<svg width="24" height="24" viewBox="0 0 24 24" fill="none" xmlns="http://www.w3.org/2000/svg">
<path d="M17.7075 8.11L13.8175 12L17.7075 15.89C18.0975 16.28 18.0975 16.91 17.7075 17.3C17.3175 17.69 16.6875 17.69 16.2975 17.3L11.7075 12.71C11.3175 12.32 11.3175 11.69 11.7075 11.3L16.2975 6.7C16.6875 6.31 17.3175 6.31 17.7075 6.7C18.0875 7.09 18.0875 7.73 17.7075 8.11ZM6.9975 6C6.4475 6 5.9975 6.45 5.9975 7V17C5.9975 17.55 6.4475 18 6.9975 18C7.5475 18 7.9975 17.55 7.9975 17V7C7.9975 6.45 7.5475 6 6.9975 6Z" fill="#1C3553"/>
</svg>
