<svg width="24" height="24" viewBox="0 0 24 24" fill="none" xmlns="http://www.w3.org/2000/svg">
<path d="M12 4.5C7 4.5 2.7 7.6 1 12C2.7 16.4 7 19.5 12 19.5C17 19.5 21.3 16.4 23 12C21.3 7.6 17 4.5 12 4.5ZM12 17C9.2 17 7 14.8 7 12C7 9.2 9.2 7 12 7C14.8 7 17 9.2 17 12C17 14.8 14.8 17 12 17ZM12 9C10.3 9 9 10.3 9 12C9 13.7 10.3 15 12 15C13.7 15 15 13.7 15 12C15 10.3 13.7 9 12 9Z" fill="#1C3553"/>
</svg>
4.18005 2.71 4.57005L4.68 6.54005C3.06 7.83005 1.77 9.53005 1 11.5001C2.73 15.8901 7 19.0001 12 19.0001C13.52 19.0001 14.97 18.7001 16.31 18.1801L19.03 20.9001C19.42 21.2901 20.05 21.2901 20.44 20.9001C20.83 20.5101 20.83 19.8801 20.44 19.4901L4.13 3.16005C3.74 2.77005 3.1 2.77005 2.71 3.16005ZM12 16.5001C9.24 16.5001 7 14.2601 7 11.5001C7 10.7301 7.18 10.0001 7.49 9.36005L9.06 10.9301C9.03 11.1101 9 11.3001 9 11.5001C9 13.1601 10.34 14.5001 12 14.5001C12.2 14.5001 12.38 14.4701 12.57 14.4301L14.14 16.0001C13.49 16.3201 12.77 16.5001 12 16.5001ZM14.97 11.1701C14.82 9.77005 13.72 8.68005 12.33 8.53005L14.97 11.1701Z" fill="#1C3553"/>
</svg>
