<svg width="156" height="156" viewBox="0 0 156 156" fill="none" xmlns="http://www.w3.org/2000/svg">
<path fill-rule="evenodd" clip-rule="evenodd" d="M80.4498 15.8981C79.0077 14.7807 76.9923 14.7807 75.5501 15.8981L67.7151 21.9685C66.9805 22.5376 66.0707 22.8332 65.1418 22.8046L55.2351 22.4988C53.4116 22.4425 51.7811 23.6272 51.2711 25.3788L48.5006 34.8952C48.2408 35.7874 47.6785 36.5614 46.9102 37.0841L38.7157 42.6598C37.2074 43.6861 36.5846 45.6029 37.2016 47.3197L40.5538 56.6471C40.8681 57.5216 40.8681 58.4783 40.5538 59.3528L37.2016 68.6802C36.5846 70.3971 37.2074 72.3138 38.7157 73.3401L46.9102 78.9158C47.6785 79.4386 48.2408 80.2125 48.5006 81.1048L51.2711 90.6211C51.7811 92.3727 53.4116 93.5574 55.2351 93.5011L65.1419 93.1954C66.0707 93.1667 66.9805 93.4623 67.7151 94.0315L75.5501 100.102C76.9923 101.219 79.0077 101.219 80.4498 100.102L88.2849 94.0315C89.0195 93.4623 89.9293 93.1667 90.8581 93.1954L100.765 93.5011C102.588 93.5574 104.219 92.3727 104.729 90.6211L107.499 81.1048C107.759 80.2125 108.321 79.4386 109.09 78.9158L117.284 73.3401C118.793 72.3138 119.415 70.3971 118.798 68.6802L115.446 59.3528C115.132 58.4783 115.132 57.5216 115.446 56.6471L118.798 47.3197C119.415 45.6029 118.793 43.6861 117.284 42.6598L109.09 37.0841C108.321 36.5614 107.759 35.7874 107.499 34.8952L104.729 25.3788C104.219 23.6272 102.588 22.4425 100.765 22.4988L90.8581 22.8046C89.9293 22.8332 89.0195 22.5376 88.2849 21.9685L80.4498 15.8981ZM78 86C93.464 86 106 73.4639 106 58C106 42.536 93.464 30 78 30C62.536 30 50 42.536 50 58C50 73.4639 62.536 86 78 86Z" fill="#C2DDFF"/>
<path d="M77.1368 43.9279C77.5225 43.2657 78.4792 43.2657 78.865 43.9279L82.8079 50.6975C82.9492 50.9401 83.186 51.1121 83.4604 51.1716L91.1171 52.8296C91.8661 52.9918 92.1618 53.9017 91.6511 54.4732L86.4313 60.3151C86.2442 60.5245 86.1538 60.8028 86.1821 61.0821L86.9712 68.8764C87.0484 69.639 86.2744 70.2013 85.5731 69.8923L78.4041 66.7331C78.1472 66.6199 77.8545 66.6199 77.5976 66.7331L70.4287 69.8923C69.7273 70.2013 68.9533 69.639 69.0305 68.8764L69.8197 61.0821C69.8479 60.8028 69.7575 60.5245 69.5704 60.3151L64.3506 54.4732C63.84 53.9017 64.1356 52.9918 64.8847 52.8296L72.5414 51.1716C72.8157 51.1121 73.0525 50.9401 73.1938 50.6975L77.1368 43.9279Z" fill="#C2DDFF"/>
<path d="M75.5501 15.8981C76.9923 14.7808 79.0077 14.7808 80.4498 15.8981L88.2849 21.9685C89.0195 22.5377 89.9293 22.8333 90.8581 22.8046L100.765 22.4989C102.588 22.4426 104.219 23.6272 104.729 25.3788L107.499 34.8952C107.759 35.7874 108.321 36.5614 109.09 37.0841L117.284 42.6598C118.793 43.6861 119.415 45.6029 118.798 47.3197L115.446 56.6472C115.132 57.5217 115.132 58.4783 115.446 59.3528L118.798 68.6803C119.415 70.3971 118.793 72.3139 117.284 73.3402L109.09 78.9159C108.321 79.4386 107.759 80.2126 107.499 81.1048L104.729 90.6212C104.219 92.3728 102.588 93.5574 100.765 93.5011L90.8581 93.1954C89.9293 93.1667 89.0195 93.4623 88.2849 94.0315L80.4499 100.102C79.0077 101.219 76.9923 101.219 75.5502 100.102L67.7151 94.0315C66.9805 93.4623 66.0707 93.1667 65.1419 93.1954L55.2351 93.5011C53.4116 93.5574 51.7811 92.3728 51.2711 90.6212L48.5006 81.1048C48.2408 80.2126 47.6785 79.4386 46.9102 78.9159L38.7158 73.3402C37.2075 72.3139 36.5847 70.3971 37.2017 68.6803L40.5538 59.3528C40.8681 58.4783 40.8681 57.5217 40.5538 56.6472L37.2017 47.3197C36.5847 45.6029 37.2075 43.6861 38.7158 42.6598L46.9102 37.0841C47.6785 36.5614 48.2408 35.7874 48.5006 34.8952L51.2711 25.3788C51.7811 23.6272 53.4116 22.4426 55.2351 22.4989L65.1419 22.8046C66.0707 22.8333 66.9805 22.5377 67.7151 21.9685L75.5501 15.8981Z" stroke="#1C3553" stroke-width="4" stroke-linecap="round" stroke-linejoin="round"/>
<circle cx="78" cy="58" r="28" stroke="#1C3553" stroke-width="4" stroke-linecap="round" stroke-linejoin="round"/>
<path d="M77.137 43.9279C77.5227 43.2657 78.4795 43.2657 78.8652 43.9279L82.8082 50.6975C82.9495 50.9401 83.1862 51.1121 83.4606 51.1716L91.1173 52.8296C91.8664 52.9918 92.162 53.9017 91.6514 54.4732L86.4315 60.3151C86.2445 60.5245 86.154 60.8028 86.1823 61.0821L86.9715 68.8764C87.0487 69.639 86.2747 70.2013 85.5733 69.8923L78.4044 66.7331C78.1474 66.6199 77.8548 66.6199 77.5979 66.7331L70.4289 69.8923C69.7276 70.2013 68.9535 69.639 69.0307 68.8764L69.8199 61.0821C69.8482 60.8028 69.7577 60.5245 69.5707 60.3151L64.3509 54.4732C63.8402 53.9017 64.1358 52.9918 64.8849 52.8296L72.5416 51.1716C72.816 51.1121 73.0528 50.9401 73.1941 50.6975L77.137 43.9279Z" stroke="#1C3553" stroke-width="4" stroke-linecap="round" stroke-linejoin="round"/>
<path d="M95.7852 106.33L110.739 132.231C111.572 133.673 113.698 133.526 114.324 131.984L117.92 123.126C118.265 122.278 119.141 121.772 120.048 121.898L129.517 123.212C131.166 123.441 132.356 121.673 131.524 120.231L114.07 90" stroke="#1C3553" stroke-width="4" stroke-linecap="round" stroke-linejoin="round"/>
<path d="M42.5 90L25.0459 120.231C24.2136 121.673 25.4041 123.441 27.053 123.212L36.5215 121.898C37.4285 121.772 38.3051 122.278 38.6496 123.126L42.2454 131.984C42.8716 133.526 44.9982 133.673 45.8306 132.231L60.7846 106.33" stroke="#1C3553" stroke-width="4" stroke-linecap="round" stroke-linejoin="round"/>
</svg>
