<svg width="156" height="156" viewBox="0 0 156 156" fill="none" xmlns="http://www.w3.org/2000/svg">
<path fill-rule="evenodd" clip-rule="evenodd" d="M35 102C33.8954 102 33 102.895 33 104V132C33 133.105 33.8954 134 35 134H65V107.278H79V134H109C110.105 134 111 133.105 111 132V104C111 102.895 110.105 102 109 102H35ZM53 107.278H39V121.667H53V107.278ZM91 107.278H105V121.667H91V107.278Z" fill="#C2DDFF"/>
<path d="M45.7002 78.3596C45.8901 78.1316 46.1716 77.9998 46.4684 77.9998H97.5316C97.8284 77.9998 98.1099 78.1316 98.2998 78.3596L106.633 88.3596C107.176 89.0109 106.713 89.9998 105.865 89.9998H38.135C37.2872 89.9998 36.824 89.0109 37.3668 88.3596L45.7002 78.3596Z" fill="#C2DDFF"/>
<path d="M129 134V42C129 39.7909 127.209 38 125 38H82M74 38H61C58.7909 38 57 39.7909 57 42V64" stroke="#1C3553" stroke-width="4" stroke-linecap="round" stroke-linejoin="round"/>
<path d="M57 30H129" stroke="#1C3553" stroke-width="4" stroke-linecap="round" stroke-linejoin="round"/>
<rect x="69" y="48" width="14" height="14" stroke="#1C3553" stroke-width="4" stroke-linecap="round" stroke-linejoin="round"/>
<rect x="103" y="48" width="14" height="14" stroke="#1C3553" stroke-width="4" stroke-linecap="round" stroke-linejoin="round"/>
<path d="M79 108H65V134H79V108Z" stroke="#1C3553" stroke-width="4" stroke-linecap="round" stroke-linejoin="round"/>
<rect x="39" y="108" width="14" height="14" stroke="#1C3553" stroke-width="4" stroke-linecap="round" stroke-linejoin="round"/>
<rect x="91" y="108" width="14" height="14" stroke="#1C3553" stroke-width="4" stroke-linecap="round" stroke-linejoin="round"/>
<path d="M27 104V134H117V104" stroke="#1C3553" stroke-width="4" stroke-linecap="round" stroke-linejoin="round"/>
<path d="M56 95.9998H121L99.7374 71.9998H44.2626L23 95.9998H48" stroke="#1C3553" stroke-width="4" stroke-linecap="round" stroke-linejoin="round"/>
<path d="M18 134H138" stroke="#1C3553" stroke-width="4" stroke-linecap="round" stroke-linejoin="round"/>
</svg>
