<svg width="156" height="156" viewBox="0 0 156 156" fill="none" xmlns="http://www.w3.org/2000/svg">
<circle cx="112" cy="42" r="8" fill="#C2DDFF"/>
<path fill-rule="evenodd" clip-rule="evenodd" d="M29 28C28.4477 28 28 28.4477 28 29V128C28 128.552 28.4477 129 29 129H71C71.5523 129 72 128.552 72 128V29C72 28.4477 71.5523 28 71 28H29ZM42.3333 36H56.6667C61.269 36 65 39.731 65 44.3333C65 45.2538 64.2538 46 63.3333 46H35.6667C34.7462 46 34 45.2538 34 44.3333C34 39.731 37.731 36 42.3333 36Z" fill="#C2DDFF"/>
<path d="M86 93C86 91.8954 86.8954 91 88 91H136C137.105 91 138 91.8954 138 93V109C138 110.105 137.105 111 136 111H88C86.8954 111 86 110.105 86 109V93Z" stroke="#1C3553" stroke-width="4" stroke-linecap="round" stroke-linejoin="round"/>
<path d="M130 99L87 99" stroke="#1C3553" stroke-width="4" stroke-linecap="round" stroke-linejoin="round"/>
<path d="M97 79C97 77.8954 97.8954 77 99 77H125C126.105 77 127 77.8954 127 79V81C127 86.5228 122.523 91 117 91H107C101.477 91 97 86.5228 97 81V79Z" stroke="#1C3553" stroke-width="4" stroke-linecap="round" stroke-linejoin="round"/>
<path d="M105 77C105 77 105 70 105 69C105 68 105 64 109 64C113 64 113 69 113 69" stroke="#1C3553" stroke-width="4" stroke-linecap="round" stroke-linejoin="round"/>
<circle cx="112" cy="42" r="14" stroke="#1C3553" stroke-width="4" stroke-linecap="round" stroke-linejoin="round"/>
<path d="M50 22L50 36" stroke="#1C3553" stroke-width="4" stroke-linecap="round" stroke-linejoin="round"/>
<path d="M40 54L40 64" stroke="#1C3553" stroke-width="4" stroke-linecap="round" stroke-linejoin="round"/>
<path d="M50 54L50 68" stroke="#1C3553" stroke-width="4" stroke-linecap="round" stroke-linejoin="round"/>
<path d="M60 54L60 64" stroke="#1C3553" stroke-width="4" stroke-linecap="round" stroke-linejoin="round"/>
<path d="M40 72L40 76" stroke="#1C3553" stroke-width="4" stroke-linecap="round" stroke-linejoin="round"/>
<path d="M50 76L50 80" stroke="#1C3553" stroke-width="4" stroke-linecap="round" stroke-linejoin="round"/>
<path d="M60 72L60 76" stroke="#1C3553" stroke-width="4" stroke-linecap="round" stroke-linejoin="round"/>
<path d="M22 94V133C22 134.105 22.8954 135 24 135H77.875C77.944 135 78 134.944 78 134.875V134.875V26C78 23.7909 76.2091 22 74 22H26C23.7909 22 22 23.7909 22 26V86" stroke="#1C3553" stroke-width="4" stroke-linecap="round" stroke-linejoin="round"/>
<path d="M56.6667 36H42.3333C37.731 36 34 39.731 34 44.3333C34 45.2538 34.7462 46 35.6667 46H63.3333C64.2538 46 65 45.2538 65 44.3333C65 39.731 61.269 36 56.6667 36Z" stroke="#1C3553" stroke-width="4" stroke-linecap="round" stroke-linejoin="round"/>
</svg>
