<svg width="156" height="156" viewBox="0 0 156 156" fill="none" xmlns="http://www.w3.org/2000/svg">
<rect x="37" y="84" width="8" height="38" rx="2" fill="#C2DDFF"/>
<rect x="57" y="84" width="8" height="38" rx="2" fill="#C2DDFF"/>
<rect x="77" y="84" width="8" height="38" rx="2" fill="#C2DDFF"/>
<rect x="97" y="84" width="8" height="38" rx="2" fill="#C2DDFF"/>
<rect x="117" y="84" width="8" height="38" rx="2" fill="#C2DDFF"/>
<path d="M31 42V68.2667C31 69.224 31.776 70 32.7333 70H73.2661C74.2234 70 74.9994 69.224 74.9994 68.2667V48V27.7333C74.9994 26.776 74.2234 26 73.2661 26H32.7333C31.776 26 31 26.776 31 27.7333V34" stroke="#1C3553" stroke-width="4" stroke-linecap="round" stroke-linejoin="round"/>
<path d="M52.9998 26L52.9998 48L52.9998 70" stroke="#1C3553" stroke-width="4" stroke-linecap="round" stroke-linejoin="round"/>
<path d="M31 48L75 48" stroke="#1C3553" stroke-width="4" stroke-linecap="round" stroke-linejoin="round"/>
<path d="M107 136H23C21.8954 136 21 135.105 21 134V130C21 128.895 21.8954 128 23 128H139C140.105 128 141 128.895 141 130V134C141 135.105 140.105 136 139 136H115" stroke="#1C3553" stroke-width="4" stroke-linecap="round" stroke-linejoin="round"/>
<path d="M21 78L141 78" stroke="#1C3553" stroke-width="4" stroke-linecap="round" stroke-linejoin="round"/>
<path d="M31 86V120" stroke="#1C3553" stroke-width="4" stroke-linecap="round" stroke-linejoin="round"/>
<path d="M91 86V120" stroke="#1C3553" stroke-width="4" stroke-linecap="round" stroke-linejoin="round"/>
<path d="M51 86V120" stroke="#1C3553" stroke-width="4" stroke-linecap="round" stroke-linejoin="round"/>
<path d="M71 86V120" stroke="#1C3553" stroke-width="4" stroke-linecap="round" stroke-linejoin="round"/>
<path d="M111 86V120" stroke="#1C3553" stroke-width="4" stroke-linecap="round" stroke-linejoin="round"/>
<path fill-rule="evenodd" clip-rule="evenodd" d="M131 86V120V86Z" stroke="#1C3553" stroke-width="4" stroke-linecap="round" stroke-linejoin="round"/>
</svg>
