<svg width="156" height="156" viewBox="0 0 156 156" fill="none" xmlns="http://www.w3.org/2000/svg">
<path fill-rule="evenodd" clip-rule="evenodd" d="M45.6284 52.6194C45.2228 52.8652 44.9177 53.2473 44.7677 53.6973L39.6299 69.1112C40.1723 69.0271 40.6441 69 41.0001 69C43.6426 69 51.4237 70.093 51.4237 79.9302C56.1773 80.6546 60.0001 84.1081 60.0001 88.7674C60.0001 92.3243 58.1177 95.4133 55.0001 97C55.0001 97 57.0001 101 56.0001 104.977C55.1091 108.52 51.8108 112.741 47 114.779V132C47 133.104 47.8955 134 49 134H68V96H88V134H107C108.105 134 109 133.104 109 132V84.9997C109 83.8952 109.895 82.9997 111 82.9997H118.226C119.591 82.9997 120.555 81.6623 120.123 80.3673L111.233 53.6973C111.083 53.2473 110.778 52.8652 110.372 52.6194L79.0371 33.628C78.4 33.2418 77.601 33.2418 76.9639 33.628L45.6284 52.6194ZM88 59.9997H68V79.9997H88V59.9997Z" fill="#C2DDFF"/>
<path d="M22 88.7674C22 84.0599 26.9795 80.5966 31.8065 79.9302C31.8065 70.093 38 69 41 69C44 69 51.4236 70.093 51.4236 79.9302C56.1771 80.6546 60 84.1081 60 88.7674C60 92.3243 58.1176 95.4133 55 97C55 97 57 101 56 104.977C54.775 109.848 49 116 41 116C33 116 27.2127 109.851 26 105C25 101 27 97 27 97C23.8659 95.4175 22 92.3381 22 88.7674Z" stroke="#1C3553" stroke-width="4" stroke-linecap="round" stroke-linejoin="round"/>
<path d="M40.9998 81V93M40.9998 134H46.9998H56.9998M40.9998 134V101M40.9998 134H28.9998M40.9998 101L34.9998 96.5M40.9998 101V93M40.9998 93L46.9998 87" stroke="#1C3553" stroke-width="4" stroke-linecap="round" stroke-linejoin="round"/>
<path d="M115 89V134H47" stroke="#1C3553" stroke-width="4" stroke-linecap="round" stroke-linejoin="round"/>
<path d="M127 134L47 134" stroke="#1C3553" stroke-width="4" stroke-linecap="round" stroke-linejoin="round"/>
<path d="M115 89H123.45C126.181 89 128.108 86.3252 127.245 83.7351L116 50L80.1361 27.349C78.8313 26.525 77.1689 26.525 75.8642 27.349L40 50L35.5 62" stroke="#1C3553" stroke-width="4" stroke-linecap="round" stroke-linejoin="round"/>
<path d="M68 96H88M68 96V134M68 96L88 134M88 96V134M88 96L68 134M88 134H68" stroke="#1C3553" stroke-width="4" stroke-linecap="round" stroke-linejoin="round"/>
<rect x="68" y="60" width="20" height="20" rx="2" stroke="#1C3553" stroke-width="4" stroke-linecap="round" stroke-linejoin="round"/>
</svg>
