<svg width="156" height="156" viewBox="0 0 156 156" fill="none" xmlns="http://www.w3.org/2000/svg">
<path fill-rule="evenodd" clip-rule="evenodd" d="M78 124C103.405 124 124 103.405 124 78C124 52.5949 103.405 32 78 32C52.5949 32 32 52.5949 32 78C32 103.405 52.5949 124 78 124ZM111.363 57.3611C112.144 58.1421 112.144 59.4084 111.363 60.1895L67.6049 103.948C66.0428 105.51 63.5101 105.51 61.948 103.948L40.9271 82.9267C40.1461 82.1457 40.1461 80.8793 40.9271 80.0983L43.8131 77.2123C44.5941 76.4313 45.8604 76.4313 46.6415 77.2123L64.175 94.7458L105.047 53.8736C105.828 53.0926 107.095 53.0926 107.876 53.8736L111.363 57.3611Z" fill="#C2DDFF"/>
<path d="M111.363 60.1895C112.144 59.4084 112.144 58.1421 111.363 57.3611L107.876 53.8736C107.095 53.0926 105.828 53.0926 105.047 53.8736L64.175 94.7458L46.6415 77.2123C45.8604 76.4313 44.5941 76.4313 43.8131 77.2123L40.9271 80.0983C40.1461 80.8793 40.1461 82.1457 40.9271 82.9267L61.948 103.948C63.5101 105.51 66.0428 105.51 67.6049 103.948L111.363 60.1895Z" stroke="#1C3553" stroke-width="4" stroke-linecap="round" stroke-linejoin="round"/>
<path d="M39.5417 43C31.1289 52.2387 26 64.5204 26 78C26 106.719 49.2812 130 78 130C106.719 130 130 106.719 130 78C130 49.2812 106.719 26 78 26C66.1586 26 55.2417 29.958 46.5 36.6232" stroke="#1C3553" stroke-width="4" stroke-linecap="round" stroke-linejoin="round"/>
</svg>
