<svg width="156" height="156" viewBox="0 0 156 156" fill="none" xmlns="http://www.w3.org/2000/svg">
<path d="M83.2057 92.7252L80.0275 89.547L33.9027 135.672C33.1217 136.453 31.8554 136.453 31.0743 135.672L25.7806 130.378C24.9996 129.597 24.9996 128.331 25.7806 127.55L71.9054 81.4249L68.374 77.8936L72.2251 67.686C65.6538 58.4369 54.8149 54.9621 50.2169 54.3808C61.0166 46.9712 74.0751 55.4774 79.2544 60.6567L97.2643 78.6666L94.9737 84.8334L98.1519 88.0116L103.974 85.3762L109.977 91.3795L95.9185 105.438L89.9152 99.4348L91.9384 94.2379L88.7601 91.0597L83.2057 92.7252Z" fill="#C2DDFF"/>
<path d="M123 107V125C123 127.209 121.209 129 119 129H53M123 99V80C123 79.4477 123.448 79 124 79H140.225C141.999 79 142.895 76.8614 141.65 75.597L84.8836 17.9293C83.3039 16.3246 80.7114 16.3395 79.1503 17.9623L58.7207 39.1987C58.0965 39.8475 57 39.4057 57 38.5054V33C57 32.4477 56.5523 32 56 32H42C41.4477 32 41 32.4477 41 33V56.5858C41 56.851 40.8946 57.1054 40.7071 57.2929L22.4142 75.5858C21.1543 76.8457 22.0466 79 23.8284 79H40C40.5523 79 41 79.4477 41 80V102" stroke="#1C3553" stroke-width="4" stroke-linecap="round" stroke-linejoin="round"/>
<path d="M77.5555 87.0751L83.2057 92.7252L88.7601 91.0597L91.9384 94.2379L89.9152 99.4348L95.9185 105.438L109.977 91.3795L103.974 85.3762L98.1519 88.0116L94.9737 84.8334L97.2643 78.6666L79.2544 60.6567C74.0751 55.4774 61.0166 46.9712 50.2169 54.3808C54.8149 54.9621 65.6538 58.4369 72.2251 67.686L68.374 77.8936L71.9054 81.4249L25.7806 127.55C24.9996 128.331 24.9996 129.597 25.7806 130.378L31.0743 135.672C31.8554 136.453 33.1217 136.453 33.9027 135.672L80.0275 89.547" stroke="#1C3553" stroke-width="4" stroke-linecap="round" stroke-linejoin="round"/>
</svg>
