<svg width="156" height="156" viewBox="0 0 156 156" fill="none" xmlns="http://www.w3.org/2000/svg">
<path d="M40 35H34C33.4477 35 33 35.4477 33 36V42C33 42.5523 33.4477 43 34 43H40C40.5523 43 41 43.4477 41 44V50C41 50.5523 41.4477 51 42 51H48C48.5523 51 49 50.5523 49 50V44C49 43.4477 49.4477 43 50 43H56C56.5523 43 57 42.5523 57 42V36C57 35.4477 56.5523 35 56 35H50C49.4477 35 49 34.5523 49 34V28C49 27.4477 48.5523 27 48 27H42C41.4477 27 41 27.4477 41 28V34C41 34.5523 40.5523 35 40 35Z" fill="#C2DDFF"/>
<rect x="33" y="62" width="24" height="8" fill="#C2DDFF"/>
<path d="M73 108H99C104 108 105 105.278 105 102C105 98.7225 101.918 97 99 97C99 97 85.5 97 84 97C82.5 97 81.8835 97 80 95C72.7495 87.3011 61.0378 86.03 53 86M45 115.013C45 115.013 70.6113 124.087 79 127C87.3887 129.913 96.0822 124.457 99 123C101.918 121.543 125.988 109.185 130 107C134 105 135.5 102 134 99C132.5 96 129.5 96.3661 125 98C120.988 99.4567 104.56 105 104.56 105M45 115.013V82H37.0284M45 115.013V121C45 122.105 44.1046 123 43 123H33.375C31.4256 123 29.7601 121.595 29.432 119.673L23 82H37.0284M37.0284 82L37.0285 115.013" stroke="#1C3553" stroke-width="4" stroke-miterlimit="10" stroke-linecap="round" stroke-linejoin="round"/>
<path d="M82 61.9998C84.8535 72.3192 97.4267 90.5844 122 79V66C116.797 70.1611 104.848 74.7826 98 61.9998H111L116 48.9999H97.44C99.1185 43.008 106.692 33.0133 122 42.9998V31.0781C111.761 25.7519 88.8483 22.2359 82 48.9998M82 61.9998H70L75 48.9999L82 48.9998M82 61.9998H87M82 48.9998H87" stroke="#1C3553" stroke-width="4" stroke-linecap="round" stroke-linejoin="round"/>
<path d="M34 37H40V33H34V37ZM43 34V28H39V34H43ZM42 29H48V25H42V29ZM47 28V34H51V28H47ZM50 37H56V33H50V37ZM55 36V42H59V36H55ZM56 41H50V45H56V41ZM47 44V50H51V44H47ZM48 49H42V53H48V49ZM43 50V44H39V50H43ZM40 41H34V45H40V41ZM35 42V36H31V42H35ZM34 41C34.5523 41 35 41.4477 35 42H31C31 43.6569 32.3431 45 34 45V41ZM43 44C43 42.3431 41.6569 41 40 41V45C39.4477 45 39 44.5523 39 44H43ZM42 49C42.5523 49 43 49.4477 43 50H39C39 51.6569 40.3431 53 42 53V49ZM47 50C47 49.4477 47.4477 49 48 49V53C49.6569 53 51 51.6569 51 50H47ZM50 41C48.3431 41 47 42.3431 47 44H51C51 44.5523 50.5523 45 50 45V41ZM55 42C55 41.4477 55.4477 41 56 41V45C57.6569 45 59 43.6569 59 42H55ZM56 37C55.4477 37 55 36.5523 55 36H59C59 34.3431 57.6569 33 56 33V37ZM47 34C47 35.6569 48.3431 37 50 37V33C50.5523 33 51 33.4477 51 34H47ZM48 29C47.4477 29 47 28.5523 47 28H51C51 26.3431 49.6569 25 48 25V29ZM43 28C43 28.5523 42.5523 29 42 29V25C40.3431 25 39 26.3431 39 28H43ZM40 37C41.6569 37 43 35.6569 43 34H39C39 33.4477 39.4477 33 40 33V37ZM34 33C32.3431 33 31 34.3431 31 36H35C35 36.5523 34.5523 37 34 37V33Z" fill="#1C3553"/>
<rect x="33" y="62" width="24" height="8" stroke="#1C3553" stroke-width="4" stroke-linecap="round" stroke-linejoin="round"/>
</svg>
