<svg width="156" height="156" viewBox="0 0 156 156" fill="none" xmlns="http://www.w3.org/2000/svg">
<path fill-rule="evenodd" clip-rule="evenodd" d="M132 92C132 99.732 125.732 106 118 106C111.658 106 106.301 101.783 104.58 96H85V102H77V96H70V88H104.58C106.301 82.217 111.658 78 118 78C125.732 78 132 84.268 132 92ZM118 97C120.761 97 123 94.7614 123 92C123 89.2386 120.761 87 118 87C115.239 87 113 89.2386 113 92C113 94.7614 115.239 97 118 97Z" fill="#C2DDFF"/>
<path d="M104.58 96L106.497 95.4295C106.244 94.5814 105.465 94 104.58 94V96ZM85 96V94C83.8954 94 83 94.8954 83 96H85ZM85 102V104C86.1046 104 87 103.105 87 102H85ZM77 102H75C75 103.105 75.8954 104 77 104V102ZM77 96H79C79 94.8954 78.1046 94 77 94V96ZM70 96H68C68 97.1046 68.8954 98 70 98V96ZM70 88V86C68.8954 86 68 86.8954 68 88H70ZM104.58 88V90C105.465 90 106.244 89.4186 106.497 88.5705L104.58 88ZM118 108C126.837 108 134 100.837 134 92H130C130 98.6274 124.627 104 118 104V108ZM102.663 96.5705C104.629 103.178 110.749 108 118 108V104C112.567 104 107.972 100.388 106.497 95.4295L102.663 96.5705ZM85 98H104.58V94H85V98ZM87 102V96H83V102H87ZM77 104H85V100H77V104ZM75 96V102H79V96H75ZM70 98H77V94H70V98ZM68 88V96H72V88H68ZM104.58 86H70V90H104.58V86ZM118 76C110.749 76 104.629 80.8218 102.663 87.4295L106.497 88.5705C107.972 83.6122 112.567 80 118 80V76ZM134 92C134 83.1634 126.837 76 118 76V80C124.627 80 130 85.3726 130 92H134ZM121 92C121 93.6569 119.657 95 118 95V99C121.866 99 125 95.866 125 92H121ZM118 89C119.657 89 121 90.3431 121 92H125C125 88.134 121.866 85 118 85V89ZM115 92C115 90.3431 116.343 89 118 89V85C114.134 85 111 88.134 111 92H115ZM118 95C116.343 95 115 93.6569 115 92H111C111 95.866 114.134 99 118 99V95Z" fill="#1C3553"/>
<path d="M100 48V31L118 48H100Z" fill="#C2DDFF"/>
<path d="M100 31H40C38.8954 31 38 31.8954 38 33V55M100 31V46C100 47.1046 100.895 48 102 48H118M100 31L118 48M118 48V70M118 114V123C118 124.105 117.105 125 116 125H40C38.8954 125 38 124.105 38 123V63" stroke="#1C3553" stroke-width="4" stroke-linecap="round" stroke-linejoin="round"/>
<path d="M51 112H105" stroke="#1C3553" stroke-width="4" stroke-linecap="round" stroke-linejoin="round"/>
<path d="M51 100H61" stroke="#1C3553" stroke-width="4" stroke-linecap="round" stroke-linejoin="round"/>
<path d="M51 64H105" stroke="#1C3553" stroke-width="4" stroke-linecap="round" stroke-linejoin="round"/>
<path d="M51 45H67" stroke="#1C3553" stroke-width="4" stroke-linecap="round" stroke-linejoin="round"/>
<path d="M51 76H97" stroke="#1C3553" stroke-width="4" stroke-linecap="round" stroke-linejoin="round"/>
<path d="M51 88H61" stroke="#1C3553" stroke-width="4" stroke-linecap="round" stroke-linejoin="round"/>
<circle cx="118" cy="92" r="5" stroke="#1C3553" stroke-width="4" stroke-linecap="round" stroke-linejoin="round"/>
</svg>
