<svg width="156" height="156" viewBox="0 0 156 156" fill="none" xmlns="http://www.w3.org/2000/svg">
<rect x="27" y="48" width="38" height="20" rx="2" fill="#C2DDFF"/>
<rect x="93" y="80" width="38" height="20" rx="2" fill="#C2DDFF"/>
<path d="M100 48V31L118 48H100Z" fill="#C2DDFF"/>
<path d="M100 31H40C38.8954 31 38 31.8954 38 33V34M100 31V46C100 47.1046 100.895 48 102 48H118M100 31L118 48M118 48V66M38 82V123C38 124.105 38.8954 125 40 125H116C117.105 125 118 124.105 118 123V114" stroke="#1C3553" stroke-width="4" stroke-linecap="round" stroke-linejoin="round"/>
<path d="M80 66H106" stroke="#1C3553" stroke-width="4" stroke-linecap="round" stroke-linejoin="round"/>
<path d="M80 56H106" stroke="#1C3553" stroke-width="4" stroke-linecap="round" stroke-linejoin="round"/>
<path d="M50 104H78" stroke="#1C3553" stroke-width="4" stroke-linecap="round" stroke-linejoin="round"/>
<path d="M50 94H78" stroke="#1C3553" stroke-width="4" stroke-linecap="round" stroke-linejoin="round"/>
<path d="M50 114H89" stroke="#1C3553" stroke-width="4" stroke-linecap="round" stroke-linejoin="round"/>
<path d="M38 62H54" stroke="#1C3553" stroke-width="4" stroke-linecap="round" stroke-linejoin="round"/>
<path d="M33 54H59" stroke="#1C3553" stroke-width="4" stroke-linecap="round" stroke-linejoin="round"/>
<path d="M58 82L56.6351 83.4619C57.2173 84.0054 58.0665 84.1517 58.7969 83.8344C59.5274 83.517 60 82.7965 60 82H58ZM50.0077 74.5381L51.3726 73.0762L50.0077 74.5381ZM23 44H69V40H23V44ZM69 44V72H73V44H69ZM23 72V44H19V72H23ZM48.6429 72H23V76H48.6429V72ZM69 72H60V76H69V72ZM56 76V82H60V76H56ZM59.3649 80.5381L51.3726 73.0762L48.6429 76L56.6351 83.4619L59.3649 80.5381ZM60 72C57.7909 72 56 73.7909 56 76H60V72ZM48.6429 76L51.3726 73.0762C50.6319 72.3846 49.6563 72 48.6429 72V76ZM19 72C19 74.2091 20.7909 76 23 76V72H23H19ZM69 72V76C71.2091 76 73 74.2091 73 72H69ZM69 44H73C73 41.7909 71.2091 40 69 40V44ZM23 40C20.7909 40 19 41.7909 19 44H23V40Z" fill="#1C3553"/>
<path d="M100 114L101.365 115.462C100.783 116.005 99.9335 116.152 99.2031 115.834C98.4726 115.517 98 114.796 98 114H100ZM107.992 106.538L106.627 105.076L107.992 106.538ZM135 76H89V72H135V76ZM89 76V104H85V76H89ZM135 104V76H139V104H135ZM109.357 104H135V108H109.357V104ZM89 104H98V108H89V104ZM102 108V114H98V108H102ZM98.6351 112.538L106.627 105.076L109.357 108L101.365 115.462L98.6351 112.538ZM98 104C100.209 104 102 105.791 102 108H98V104ZM109.357 108L106.627 105.076C107.368 104.385 108.344 104 109.357 104V108ZM139 104C139 106.209 137.209 108 135 108V104H135H139ZM89 104V108C86.7909 108 85 106.209 85 104H89ZM89 76H85C85 73.7909 86.7909 72 89 72V76ZM135 72C137.209 72 139 73.7909 139 76H135V72Z" fill="#1C3553"/>
<path d="M104 94H120" stroke="#1C3553" stroke-width="4" stroke-linecap="round" stroke-linejoin="round"/>
<path d="M99 86H125" stroke="#1C3553" stroke-width="4" stroke-linecap="round" stroke-linejoin="round"/>
</svg>
