<svg width="156" height="156" viewBox="0 0 156 156" fill="none" xmlns="http://www.w3.org/2000/svg">
<rect x="83" y="35" width="34" height="38" rx="2" fill="#C2DDFF"/>
<circle cx="55" cy="37" r="9" fill="#C2DDFF"/>
<rect x="44" y="60" width="21" height="27" rx="2" fill="#C2DDFF"/>
<path d="M81 128V140C81 141.105 81.8954 142 83 142H133C135.209 142 137 140.209 137 138V92C137 90.8954 136.105 90 135 90H127C125.895 90 125 90.8954 125 92V106C125 107.105 124.105 108 123 108H105C103.895 108 103 108.895 103 110V124C103 125.105 102.105 126 101 126H83C81.8954 126 81 126.895 81 128Z" fill="#C2DDFF"/>
<rect x="83" y="35" width="34" height="38" rx="2" stroke="#1C3553" stroke-width="4" stroke-linecap="round" stroke-linejoin="round"/>
<path d="M41 136H29C26.7909 136 25 134.209 25 132V24C25 21.7909 26.7909 20 29 20H127C129.209 20 131 21.7909 131 24V76M49 136H67.0345" stroke="#1C3553" stroke-width="4" stroke-linecap="round" stroke-linejoin="round"/>
<path d="M94 50L99.5 44L105 50" stroke="#1C3553" stroke-width="4" stroke-linecap="round" stroke-linejoin="round"/>
<path d="M105 58L99.5 64L94 58" stroke="#1C3553" stroke-width="4" stroke-linecap="round" stroke-linejoin="round"/>
<circle cx="55" cy="37" r="9" stroke="#1C3553" stroke-width="4" stroke-linecap="round" stroke-linejoin="round"/>
<path d="M67 93V91C65.8954 91 65 91.8954 65 93H67ZM59 93H61C61 91.8954 60.1046 91 59 91V93ZM51 93V91C49.8954 91 49 91.8954 49 93H51ZM43 93H45C45 91.8954 44.1046 91 43 91V93ZM65 93V125H69V93H65ZM65 125H61V129H65V125ZM61 125V93H57V125H61ZM59 91H51V95H59V91ZM49 93V125H53V93H49ZM49 125H45V129H49V125ZM45 125V93H41V125H45ZM43 91H42V95H43V91ZM40 89V58H36V89H40ZM42 56H68V52H42V56ZM70 58V89H74V58H70ZM68 91H67V95H68V91ZM70 89C70 90.1046 69.1046 91 68 91V95C71.3137 95 74 92.3137 74 89H70ZM68 56C69.1046 56 70 56.8954 70 58H74C74 54.6863 71.3137 52 68 52V56ZM40 58C40 56.8954 40.8954 56 42 56V52C38.6863 52 36 54.6863 36 58H40ZM42 91C40.8954 91 40 90.1046 40 89H36C36 92.3137 38.6863 95 42 95V91ZM49 125V129C51.2091 129 53 127.209 53 125H49ZM61 125H57C57 127.209 58.7909 129 61 129V125ZM45 125H41C41 127.209 42.7909 129 45 129V125ZM65 125V129C67.2091 129 69 127.209 69 125H65Z" fill="#1C3553"/>
<path d="M75 140V120H97" stroke="#1C3553" stroke-width="4" stroke-linecap="round" stroke-linejoin="round"/>
<path d="M97 120V102H119" stroke="#1C3553" stroke-width="4" stroke-linecap="round" stroke-linejoin="round"/>
<path d="M119 102V84H135" stroke="#1C3553" stroke-width="4" stroke-linecap="round" stroke-linejoin="round"/>
</svg>
