<svg width="156" height="156" viewBox="0 0 156 156" fill="none" xmlns="http://www.w3.org/2000/svg">
<path fill-rule="evenodd" clip-rule="evenodd" d="M59.0507 77C59.284 79.372 60.2037 81.7724 61.9136 83.7705C69.7139 92.8855 78 100.542 78 100.542C78 100.542 86.286 92.8855 94.0863 83.7705C95.7962 81.7724 96.716 79.372 96.9492 77H111C112.105 77 113 77.8954 113 79V121C113 122.105 112.105 123 111 123H45C43.8954 123 43 122.105 43 121V79C43 77.8954 43.8954 77 45 77H59.0507Z" fill="#C2DDFF"/>
<path d="M119 107V125C119 127.209 117.209 129 115 129H41C38.7909 129 37 127.209 37 125V80C37 79.4477 36.5523 79 36 79H19.8284C18.0466 79 17.1543 76.8457 18.4142 75.5858L36.7071 57.2929C36.8946 57.1054 37 56.851 37 56.5858V33C37 32.4477 37.4477 32 38 32H52C52.5523 32 53 32.4477 53 33V38.5054C53 39.4057 54.0965 39.8475 54.7207 39.1987L75.1503 17.9623C76.7114 16.3395 79.3039 16.3246 80.8836 17.9293L137.65 75.597C138.895 76.8614 137.999 79 136.225 79H120C119.448 79 119 79.4477 119 80V99" stroke="#1C3553" stroke-width="4" stroke-linecap="round" stroke-linejoin="round"/>
<path d="M77.9862 72C62.9862 57 53.9862 75 61.9863 84C69.9863 93 77.9862 100 77.9862 100C77.9862 100 85.9862 92.9999 93.9862 84C101.986 75.0001 92.9862 57 77.9862 72Z" stroke="#1C3553" stroke-width="4" stroke-linecap="round" stroke-linejoin="round"/>
</svg>
