<svg width="156" height="156" viewBox="0 0 156 156" fill="none" xmlns="http://www.w3.org/2000/svg">
<rect x="96" y="85" width="44" height="44" rx="2" fill="#C2DDFF"/>
<rect x="41" y="51" width="61" height="15" rx="1" fill="#C2DDFF"/>
<path d="M26 51.0001L21 51.0001C18.7909 51.0001 17 52.7909 17 55.0001L17 91.5M88 119L21 119C18.7909 119 17 117.209 17 115L17 99.5M126 77L126 55C126 52.7909 124.209 51 122 51L117 51" stroke="#1C3553" stroke-width="4" stroke-linecap="round" stroke-linejoin="round"/>
<rect x="96" y="85" width="44" height="44" rx="2" stroke="#1C3553" stroke-width="4" stroke-linecap="round" stroke-linejoin="round"/>
<path d="M78.5 45L107 45C108.105 45 109 45.8955 109 47L109 74C109 75.1046 108.105 76 107 76L102 76C100.895 76 100 75.1046 100 74V74C100 72.8954 99.1046 72 98 72L94 72C92.8954 72 92 72.8954 92 74V74C92 75.1046 91.1046 76 90 76L86 76C84.8954 76 84 75.1046 84 74V74C84 72.8954 83.1046 72 82 72L78 72C76.8954 72 76 72.8954 76 74V74C76 75.1046 75.1046 76 74 76L70 76C68.8954 76 68 75.1046 68 74V74C68 72.8954 67.1046 72 66 72L62 72C60.8954 72 60 72.8954 60 74V74C60 75.1046 59.1046 76 58 76L54 76C52.8954 76 52 75.1046 52 74V74C52 72.8954 51.1046 72 50 72L45 72C43.8954 72 43 72.8954 43 74V74C43 75.1046 42.1046 76 41 76L36 76C34.8954 76 34 75.1046 34 74L34 47C34 45.8954 34.8954 45 36 45L62.5 45" stroke="#1C3553" stroke-width="4" stroke-linecap="round" stroke-linejoin="round"/>
<path d="M32 31C32 28.7909 33.7909 27 36 27L58 27L58 35L36 35C33.7909 35 32 33.2091 32 31V31Z" stroke="#1C3553" stroke-width="4" stroke-linecap="round" stroke-linejoin="round"/>
<path d="M59 31H70.5V59" stroke="#1C3553" stroke-width="4" stroke-linecap="round" stroke-linejoin="round"/>
<path d="M85 59H57" stroke="#1C3553" stroke-width="4" stroke-linecap="round" stroke-linejoin="round"/>
<path d="M72.75 84V111" stroke="#1C3553" stroke-width="4" stroke-linecap="round" stroke-linejoin="round"/>
<path d="M60.5 84V111" stroke="#1C3553" stroke-width="4" stroke-linecap="round" stroke-linejoin="round"/>
<path d="M85 84V111" stroke="#1C3553" stroke-width="4" stroke-linecap="round" stroke-linejoin="round"/>
<path d="M48.25 84V111" stroke="#1C3553" stroke-width="4" stroke-linecap="round" stroke-linejoin="round"/>
<path d="M36 84V111" stroke="#1C3553" stroke-width="4" stroke-linecap="round" stroke-linejoin="round"/>
</svg>
