<svg width="156" height="156" viewBox="0 0 156 156" fill="none" xmlns="http://www.w3.org/2000/svg">
<rect x="30" y="60" width="20" height="30" rx="2" fill="#C2DDFF"/>
<path d="M125 60H109C107.895 60 107 60.8954 107 62V99C107 100.105 107.895 101 109 101H119C120.105 101 121 100.105 121 99V94C121 91.7909 122.791 90 125 90C126.105 90 127 89.1046 127 88V62C127 60.8954 126.105 60 125 60Z" fill="#C2DDFF"/>
<circle cx="117" cy="36" r="10" fill="#C2DDFF"/>
<circle cx="40" cy="36" r="10" fill="#C2DDFF"/>
<circle cx="79" cy="82" r="8" fill="#C2DDFF"/>
<path d="M79 110C81.697 110 83.9784 108.586 84.7341 105.976C85.0413 104.915 84.1046 104 83 104H75C73.8954 104 72.9587 104.915 73.2659 105.976C74.0216 108.586 76.303 110 79 110Z" fill="#C2DDFF"/>
<circle cx="117" cy="36" r="10" stroke="#1C3553" stroke-width="4" stroke-linecap="round" stroke-linejoin="round"/>
<circle cx="40" cy="36" r="10" stroke="#1C3553" stroke-width="4" stroke-linecap="round" stroke-linejoin="round"/>
<path d="M54 93V131C54 132.105 53.1046 133 52 133H48C46.8954 133 46 132.105 46 131V96H38V131C38 132.105 37.1046 133 36 133H32C30.8954 133 30 132.105 30 131V96H28C25.7909 96 24 94.2091 24 92V58C24 55.7909 25.7909 54 28 54H52C54.2091 54 56 55.7896 56 57.9988C56 60.6739 56 63.8985 56 65C56 67 55.7179 72 57 78C58.2821 84 65 98 79 98C93 98 98.7179 84 100 78C101.282 72 101 67.634 101 66V58C101 55.7909 102.791 54 105 54H129C131.209 54 133 55.7909 133 58V92C133 94.2091 131.209 96 129 96H127V107H121M102 93V107H108M108 107V133M108 107H121M121 107V133" stroke="#1C3553" stroke-width="4" stroke-linecap="round" stroke-linejoin="round"/>
<circle cx="79" cy="82" r="8" stroke="#1C3553" stroke-width="4" stroke-linecap="round" stroke-linejoin="round"/>
<path d="M89 106C89 109.272 87.4289 112.176 85 114.001M69 106C69 109.272 70.5711 112.176 73 114.001M73 114.001C74.6713 115.256 76.7488 116 79 116C81.2512 116 83.3287 115.256 85 114.001M73 114.001V133M85 114.001V133" stroke="#1C3553" stroke-width="4" stroke-linecap="round" stroke-linejoin="round"/>
</svg>
