<svg width="156" height="156" viewBox="0 0 156 156" fill="none" xmlns="http://www.w3.org/2000/svg">
<path d="M53 111V121C53 122.105 53.8954 123 55 123H109C110.105 123 111 122.105 111 121V79C111 77.8954 110.105 77 109 77H96.7193C95.6147 77 94.7193 77.8954 94.7193 79V91C94.7193 92.1046 93.8239 93 92.7193 93H75.3509C74.2463 93 73.3509 93.8954 73.3509 95V107C73.3509 108.105 72.4555 109 71.3509 109H55C53.8954 109 53 109.895 53 111Z" fill="#C2DDFF"/>
<path d="M119 107V125C119 127.209 117.209 129 115 129H41C38.7909 129 37 127.209 37 125V80C37 79.4477 36.5523 79 36 79H19.8284C18.0466 79 17.1543 76.8457 18.4142 75.5858L36.7071 57.2929C36.8946 57.1054 37 56.851 37 56.5858V33C37 32.4477 37.4477 32 38 32H52C52.5523 32 53 32.4477 53 33V38.5054C53 39.4057 54.0965 39.8475 54.7207 39.1987L75.1503 17.9623C76.7114 16.3395 79.3039 16.3246 80.8836 17.9293L137.65 75.597C138.895 76.8614 137.999 79 136.225 79H120C119.448 79 119 79.4477 119 80V99" stroke="#1C3553" stroke-width="4" stroke-linecap="round" stroke-linejoin="round"/>
<path d="M47 121V103H67" stroke="#1C3553" stroke-width="4" stroke-linecap="round" stroke-linejoin="round"/>
<path d="M67 103V87H88" stroke="#1C3553" stroke-width="4" stroke-linecap="round" stroke-linejoin="round"/>
<path d="M88 87V71H109" stroke="#1C3553" stroke-width="4" stroke-linecap="round" stroke-linejoin="round"/>
</svg>
