<svg width="156" height="156" viewBox="0 0 156 156" fill="none" xmlns="http://www.w3.org/2000/svg">
<g clip-path="url(#clip0)">
<path fill-rule="evenodd" clip-rule="evenodd" d="M76.0275 89.547L79.2057 92.7252L84.7601 91.0597L87.9384 94.2379L85.9152 99.4348L91.9185 105.438L105.977 91.3795L99.9738 85.3762L94.1519 88.0116L90.9737 84.8334L93.2643 78.6666L91.5977 77H111C112.105 77 113 77.8954 113 79V121C113 122.105 112.105 123 111 123H46C45.0714 123 44.2905 122.367 44.0654 121.509L76.0275 89.547ZM44 105.33L67.9054 81.4249L64.374 77.8936L64.7111 77H46C44.8954 77 44 77.8954 44 79V105.33Z" fill="#C2DDFF"/>
<path d="M119 107V125C119 127.209 117.209 129 115 129H49M119 99V80C119 79.4477 119.448 79 120 79H136.225C137.999 79 138.895 76.8614 137.65 75.597L80.8836 17.9293C79.3039 16.3246 76.7114 16.3395 75.1503 17.9623L54.7207 39.1987C54.0965 39.8475 53 39.4057 53 38.5054V33C53 32.4477 52.5523 32 52 32H38C37.4477 32 37 32.4477 37 33V56.5858C37 56.851 36.8946 57.1054 36.7071 57.2929L18.4142 75.5858C17.1543 76.8457 18.0466 79 19.8284 79H36C36.5523 79 37 79.4477 37 80V102" stroke="#1C3553" stroke-width="4" stroke-linecap="round" stroke-linejoin="round"/>
<path d="M73.5555 87.0751L79.2057 92.7252L84.7601 91.0597L87.9384 94.2379L85.9152 99.4348L91.9185 105.438L105.977 91.3795L99.9738 85.3762L94.1519 88.0116L90.9737 84.8334L93.2643 78.6666L75.2544 60.6567C70.0751 55.4774 57.0166 46.9712 46.2169 54.3808C50.8149 54.9621 61.6538 58.4369 68.2251 67.686L64.374 77.8936L67.9054 81.4249L21.7806 127.55C20.9996 128.331 20.9996 129.597 21.7806 130.378L27.0743 135.672C27.8554 136.453 29.1217 136.453 29.9027 135.672L76.0275 89.547" stroke="#1C3553" stroke-width="4" stroke-linecap="round" stroke-linejoin="round"/>
</g>
<defs>
<clipPath id="clip0">
<path d="M0 0H156V156H0V0Z" fill="white"/>
</clipPath>
</defs>
</svg>
