<svg width="156" height="156" viewBox="0 0 156 156" fill="none" xmlns="http://www.w3.org/2000/svg">
<rect x="23" y="104" width="109" height="32" rx="2" fill="#C2DDFF"/>
<path fill-rule="evenodd" clip-rule="evenodd" d="M75 31C75.1811 30.0212 75.8479 28.603 76 27C76.7826 18.7528 69.0446 12 61 12C52.9554 12 46.4183 18.5157 47 27C47.0813 28.1854 47.5 30 48 31C40.97 32.1046 35 38.197 35 46C35 51.9186 38.4355 56.3769 43 59C41.9156 61.6574 41 64.9081 41 68C41 80.091 50.6586 90 62 90C73.3392 90 82 80.091 82 68C82 64.9127 81.0778 61.662 80 59C84.5405 56.37 88 51.8957 88 46C88 38.2771 81.9231 32.2006 75 31Z" stroke="#1C3553" stroke-width="4" stroke-linecap="round" stroke-linejoin="round"/>
<path d="M61.9997 31V50.8452M61.9997 90C61.9997 107.648 62 120 73 120M61.9997 90V66.6791M61.9997 90C62 108 62 120 51 120M61.9997 66.6791L51.3314 55.458M61.9997 66.6791V50.8452M61.9997 50.8452L72.668 39.624" stroke="#1C3553" stroke-width="4" stroke-linecap="round" stroke-linejoin="round"/>
<path d="M54 98H21C18.7909 98 17 99.7909 17 102L17 137.589C17 139.776 18.7571 141.558 20.9443 141.589L39.3279 141.845L63.8939 142H98M106 142H134C136.209 142 138 140.209 138 138V102C138 99.7909 136.209 98 134 98H88.9512M70 98H81.5452" stroke="#1C3553" stroke-width="4" stroke-linecap="round" stroke-linejoin="round"/>
</svg>
