<svg width="156" height="156" viewBox="0 0 156 156" fill="none" xmlns="http://www.w3.org/2000/svg">
<path d="M112.428 114.913L132.227 134.712C133.789 136.274 136.321 136.274 137.883 134.712L139.298 133.298C140.86 131.736 140.86 129.203 139.298 127.641L119.499 107.842C118.718 107.061 117.451 107.061 116.67 107.842L112.428 112.085C111.647 112.866 111.647 114.132 112.428 114.913Z" fill="#C2DDFF"/>
<circle cx="83" cy="78" r="24" fill="#C2DDFF"/>
<path d="M100 115V118.971C100 119.617 99.6881 120.223 99.1625 120.598L93.9429 124.327C93.3597 124.743 93.044 125.44 93.1153 126.153L93.7171 132.171C93.8549 133.549 92.5851 134.646 91.242 134.31L86.565 133.141C86.196 133.049 85.8083 133.064 85.4475 133.184L77.3778 135.874C77.1284 135.957 76.865 135.99 76.6028 135.972L63.2205 135.016C63.0739 135.005 62.929 134.979 62.7883 134.936L53.7996 132.24C53.2879 132.086 52.7361 132.144 52.2672 132.4L44.4683 136.654C43.2606 137.312 41.7639 136.584 41.5378 135.227L40.13 126.78C40.0465 126.279 40.1569 125.765 40.4387 125.342L46.1057 116.842C46.9537 115.57 46.1191 113.855 44.595 113.738L35.8423 113.065C35.3038 113.023 34.8049 112.766 34.4592 112.351L30.4636 107.556C30.164 107.197 30 106.744 30 106.276V102.667C30 102.234 29.8596 101.813 29.6 101.467L27.4 98.5333C27.1404 98.1871 27 97.7661 27 97.3333V92.3627C27 92.1228 26.9569 91.885 26.8727 91.6604L24.4522 85.2058C24.1768 84.4715 24.3561 83.6439 24.9106 83.0894L26.4142 81.5858C26.7893 81.2107 27 80.702 27 80.1716V76.1655C27 76.0554 26.9909 75.9454 26.9728 75.8367L26.229 71.3741C26.0914 70.5483 26.4827 69.7242 27.2095 69.3088L32.1318 66.4961C32.6783 66.1838 33.046 65.6324 33.124 65.0077L33.965 58.2802C33.9882 58.0943 34.0374 57.9126 34.1112 57.7404L36.714 51.6672C36.8988 51.2362 36.9262 50.7539 36.7914 50.3047L34.6315 43.1049C34.2927 41.9758 34.999 40.8002 36.1549 40.569L43.2418 39.1516C43.7297 39.0541 44.2364 39.1418 44.663 39.3978L47.5012 41.1007C48.3596 41.6157 49.4666 41.4168 50.0919 40.6351L52.0864 38.142C52.6305 37.4619 52.6719 36.5079 52.1888 35.7832L50.0495 32.5742C49.4607 31.691 49.6644 30.5017 50.5136 29.8648L51.6647 29.0015C52.4379 28.4215 52.6858 27.3716 52.2535 26.5071L49.7773 21.5547C49.0424 20.0848 50.2954 18.4051 51.9138 18.6907L63.5726 20.7481C64.4242 20.8984 65.0827 21.5789 65.205 22.4348L65.7809 26.4662C65.9099 27.3691 66.6334 28.0704 67.5399 28.1711L72.9848 28.7761C74.0933 28.8993 74.8868 29.9053 74.7485 31.0119L74.4768 33.1859C74.276 34.7919 75.9667 35.9588 77.3971 35.2015L89.8571 28.6051C90.5527 28.2368 91.3995 28.3107 92.0208 28.7939L100 35L105 39L108.529 42.5286C108.835 42.8346 109.033 43.2316 109.094 43.66L110 50" stroke="#1C3553" stroke-width="4" stroke-linecap="round" stroke-linejoin="round"/>
<path d="M105.792 108.277L109.327 104.741L112.863 101.206" stroke="#1C3553" stroke-width="4" stroke-linecap="round" stroke-linejoin="round"/>
<circle cx="83" cy="78" r="30" stroke="#1C3553" stroke-width="4"/>
<path d="M112.428 114.913L132.227 134.712C133.789 136.274 136.321 136.274 137.883 134.712L139.298 133.298C140.86 131.736 140.86 129.203 139.298 127.641L119.499 107.842C118.718 107.061 117.451 107.061 116.67 107.842L112.428 112.085C111.647 112.866 111.647 114.132 112.428 114.913Z" stroke="#1C3553" stroke-width="4" stroke-linecap="round" stroke-linejoin="round"/>
</svg>
