<svg width="156" height="156" viewBox="0 0 156 156" fill="none" xmlns="http://www.w3.org/2000/svg">
<rect x="70.3999" y="56.3999" width="51.2" height="51.2" rx="2" fill="#C2DDFF"/>
<path d="M64 82V56C64 52.6863 66.6863 50 70 50H122C125.314 50 128 52.6863 128 56V108C128 111.314 125.314 114 122 114H70C66.6863 114 64 111.314 64 108V90" stroke="#1C3553" stroke-width="4" stroke-linecap="round" stroke-linejoin="round"/>
<ellipse cx="84.2667" cy="71.8948" rx="6.4" ry="9.09474" stroke="#1C3553" stroke-width="4" stroke-linecap="round" stroke-linejoin="round"/>
<ellipse cx="107.733" cy="92.1052" rx="6.4" ry="9.09474" stroke="#1C3553" stroke-width="4" stroke-linecap="round" stroke-linejoin="round"/>
<path d="M107.733 62.8L84.2667 101.2" stroke="#1C3553" stroke-width="4" stroke-linecap="round" stroke-linejoin="round"/>
<path d="M102 122L98.0872 124.348C97.4235 124.746 97.0491 125.491 97.1262 126.262L97.7171 132.171C97.8549 133.549 96.5851 134.646 95.242 134.31L90.565 133.141C90.196 133.049 89.8083 133.064 89.4475 133.184L81.3778 135.874C81.1284 135.957 80.865 135.99 80.6028 135.972L67.2205 135.016C67.0739 135.005 66.929 134.979 66.7883 134.936L57.7996 132.24C57.2879 132.086 56.7361 132.144 56.2672 132.4L48.4683 136.654C47.2606 137.312 45.7639 136.584 45.5378 135.227L44.13 126.78C44.0465 126.279 44.1569 125.765 44.4387 125.342L50.1057 116.842C50.9537 115.57 50.1191 113.855 48.595 113.738L39.8423 113.065C39.3038 113.023 38.8049 112.766 38.4592 112.351L34.4636 107.556C34.164 107.197 34 106.744 34 106.276V102.667C34 102.234 33.8596 101.813 33.6 101.467L31.4 98.5333C31.1404 98.1871 31 97.7661 31 97.3333V92.3627C31 92.1228 30.9569 91.885 30.8727 91.6604L28.4522 85.2058C28.1768 84.4715 28.3561 83.6439 28.9106 83.0894L30.4142 81.5858C30.7893 81.2107 31 80.702 31 80.1716V76.1655C31 76.0554 30.9909 75.9454 30.9728 75.8367L30.229 71.3741C30.0914 70.5483 30.4827 69.7242 31.2095 69.3088L36.1318 66.4961C36.6783 66.1838 37.046 65.6324 37.124 65.0077L37.965 58.2802C37.9882 58.0943 38.0374 57.9126 38.1112 57.7404L40.714 51.6672C40.8988 51.2362 40.9262 50.7539 40.7914 50.3047L38.6315 43.1049C38.2927 41.9758 38.999 40.8002 40.1549 40.569L47.2418 39.1516C47.7297 39.0541 48.2364 39.1418 48.663 39.3978L51.5012 41.1007C52.3596 41.6157 53.4666 41.4168 54.0919 40.6351L56.0864 38.142C56.6305 37.4619 56.6719 36.5079 56.1888 35.7832L54.0495 32.5742C53.4607 31.691 53.6644 30.5017 54.5136 29.8648L55.6647 29.0015C56.4379 28.4215 56.6858 27.3716 56.2535 26.5071L53.7773 21.5547C53.0424 20.0848 54.2954 18.4051 55.9138 18.6907L67.5726 20.7481C68.4242 20.8984 69.0827 21.5789 69.205 22.4348L69.7809 26.4662C69.9099 27.3691 70.6334 28.0704 71.5399 28.1711L76.9848 28.7761C78.0933 28.8993 78.8868 29.9053 78.7485 31.0119L78.4768 33.1859C78.276 34.7919 79.9667 35.9588 81.3971 35.2015L93.8571 28.6051C94.5527 28.2368 95.3995 28.3107 96.0208 28.7939L104 35L112 42" stroke="#1C3553" stroke-width="4" stroke-linecap="round" stroke-linejoin="round"/>
</svg>
