<svg width="156" height="156" viewBox="0 0 156 156" fill="none" xmlns="http://www.w3.org/2000/svg">
<path d="M100 105C75.4267 116.584 62.8535 98.3195 60 88.0001H48L53 75.0001H60C66.8483 48.2362 89.7611 51.4009 100 56.7271V68.6488C84.692 58.6623 76.6785 69.0081 75 75.0001H94L89 88.0001H76C82.8483 100.783 94.7966 96.1611 100 92.0001V105Z" fill="#C2DDFF"/>
<path d="M119 107V125C119 127.209 117.209 129 115 129H41C38.7909 129 37 127.209 37 125V80C37 79.4477 36.5523 79 36 79H19.8284C18.0466 79 17.1543 76.8457 18.4142 75.5858L36.7071 57.2929C36.8946 57.1054 37 56.851 37 56.5858V33C37 32.4477 37.4477 32 38 32H52C52.5523 32 53 32.4477 53 33V38.5054C53 39.4057 54.0965 39.8475 54.7207 39.1987L75.1503 17.9623C76.7114 16.3395 79.3039 16.3246 80.8836 17.9293L93.75 31L109.5 47L125.25 63L137.65 75.597C138.895 76.8614 137.999 79 136.225 79H120C119.448 79 119 79.4477 119 80V99" stroke="#1C3553" stroke-width="4" stroke-linecap="round" stroke-linejoin="round"/>
<path d="M60 88.0001C62.8535 98.3195 75.4267 116.584 100 105V92.0001C94.7966 96.1611 82.8483 100.783 76 88.0001H89L94 75.0001H75C76.6785 69.0081 84.692 58.6623 100 68.6488V56.7271C89.7611 51.4009 66.8483 48.2362 60 75.0001M60 88.0001H48L53 75.0001H60M60 88.0001H65M60 75.0001H65" stroke="#1C3553" stroke-width="4" stroke-linecap="round" stroke-linejoin="round"/>
</svg>
