<svg width="156" height="156" viewBox="0 0 156 156" fill="none" xmlns="http://www.w3.org/2000/svg">
<path fill-rule="evenodd" clip-rule="evenodd" d="M126.78 82.6695L122.5 78L109.5 86.5L104 94L102 100.5L98.0001 103L95.5001 107.5L89.5001 109L86.0001 113L74.5001 109L70.0001 111.75L65.0001 109H59.0001L49.0001 100.5L45.0001 92.5L43.0001 86.5L33.5001 76L29.2346 82.8248C31.6582 107.622 52.5662 127 78.0001 127C103.487 127 124.429 107.541 126.78 82.6695ZM110.346 41.1924L104 45L108 52L102 56H82.5001L71.5001 61L58.0001 57L46.5001 53.5L51.0001 45L45.2512 41.5507C53.93 33.7478 65.4106 29 78.0001 29C90.3957 29 101.716 33.6028 110.346 41.1924Z" fill="#C2DDFF"/>
<path d="M47.9999 31.8947C56.6277 26.2692 66.932 23 77.9999 23C89.1367 23 99.5004 26.31 108.161 32M24.7976 92C30.9897 115.595 52.4622 133 77.9999 133C104.254 133 126.212 114.605 131.687 90" stroke="#1C3553" stroke-width="4" stroke-linecap="round" stroke-linejoin="round"/>
<path d="M122.785 76.8571C115.106 81.2904 115 85 108 87M73.0002 99C73.0002 99 73.0002 99 64.0002 107.25C64.6228 110.207 67.1831 111.711 69.0272 112.425C70.2319 112.891 71.5409 112.459 72.4543 111.546C73.5672 110.433 75.5319 108.468 79.0002 105C79.0002 101 76.0002 99 73.0002 99ZM73.0002 99C73.0002 99 73.0002 99 62.5049 108.621C61.5642 109.483 60.2311 109.908 59.0741 109.37C55.4795 107.698 54.0002 104 54.0002 104M73.0002 99C73.0002 95 70.0002 92 66.0002 93M54.0002 104L66.0002 93M54.0002 104C56.0002 102.167 66.0002 93 66.0002 93M54.0002 104C52.0002 104 46.0002 98 48.0002 96M66.0002 93C66.0002 87.3209 62.0002 85 58.5002 87M48.0002 96L44.5412 91.9644C43.128 90.3158 43.2883 87.8407 44.9024 86.3881L52.0002 80C56.0002 79 60.0002 83 58.5002 87M48.0002 96L58.5002 87M99.5002 73C92.7002 75.8 84.6669 71.8333 81.5002 69.5L66.1025 76.2134C61.709 77.4702 57.8709 70.8224 61.1561 67.6459C64.1032 65.7311 71.7143 61.5501 77.4733 58.2251C83.3464 54.8343 98.5885 54.898 100.698 56.3346L108 52" stroke="#1C3553" stroke-width="4" stroke-linecap="round" stroke-linejoin="round"/>
<path d="M112.108 40.694L104.456 45.1115L126.027 82.3234C126.568 83.2578 127.754 83.5934 128.705 83.0814L138.512 77.8012C140.268 76.8557 141.06 74.7611 140.367 72.8907L125.573 32.9199L112.108 40.694ZM112.108 40.694L130.402 72.3812" stroke="#1C3553" stroke-width="4" stroke-miterlimit="10" stroke-linecap="round" stroke-linejoin="round"/>
<path d="M33.2216 76.8661C40.9003 81.2994 38.2017 84.2293 43.0009 87.0001M76.0009 110C76.0009 110 76.0009 110 82.6134 112.834C82.8678 112.943 83.1385 113.033 83.413 113.068C88.055 113.667 88.9996 108 88.9996 108M88.9996 108L79.0009 103C79.0009 103 78.9995 103 88.9996 108ZM88.9996 108C96.9995 109.5 98.0008 102 98.0008 102M98.0008 102L81.0009 93C81.0009 93 81.0009 93 98.0008 102ZM98.0008 102C103.001 102 105.001 96.0001 103.001 93.0001M103.001 93.0001L86.0009 84M103.001 93.0001C103.001 93.0001 110.251 92.0937 107.494 85.9664C107.205 85.322 106.678 84.8138 106.066 84.4599C96.46 78.9014 81 70 81 70M71 62C64.1743 56.5064 51.8001 56.7708 47.0009 54" stroke="#1C3553" stroke-width="4" stroke-linecap="round" stroke-linejoin="round"/>
<path d="M43.8576 40.774L51.509 45.1916L29.7883 82.8129C29.2361 83.7695 28.0129 84.0973 27.0563 83.545L17.3136 77.92C15.6253 76.9453 14.8856 74.8956 15.5623 73.0674L30.3926 33L43.8576 40.774ZM43.8576 40.774L25.5631 72.4613" stroke="#1C3553" stroke-width="4" stroke-miterlimit="10" stroke-linecap="round" stroke-linejoin="round"/>
</svg>
