<svg width="156" height="156" viewBox="0 0 156 156" fill="none" xmlns="http://www.w3.org/2000/svg">
<path d="M126.326 46.6985C127.107 45.9174 127.107 44.6511 126.326 43.8701L122.083 39.6274C121.302 38.8464 120.036 38.8464 119.255 39.6274L73.3263 85.5557L53.5273 65.7567C52.7462 64.9756 51.4799 64.9757 50.6989 65.7567L47.1297 69.3259C46.3486 70.1069 46.3486 71.3733 47.1297 72.1543L71.1713 96.196C72.7334 97.7581 75.2661 97.7581 76.8281 96.196L126.326 46.6985Z" fill="#C2DDFF"/>
<path d="M119 107V125C119 127.209 117.209 129 115 129H41C38.7909 129 37 127.209 37 125V80C37 79.4477 36.5523 79 36 79H19.8284C18.0466 79 17.1543 76.8457 18.4142 75.5858L36.7071 57.2929C36.8946 57.1054 37 56.851 37 56.5858V33C37 32.4477 37.4477 32 38 32H52C52.5523 32 53 32.4477 53 33V38.5054C53 39.4057 54.0965 39.8475 54.7207 39.1987L75.1456 17.9671C76.7085 16.3425 79.3046 16.3297 80.8835 17.9389L104 41.5M119 99V80C119 79.4477 119.448 79 120 79H136.217C137.992 79 138.888 76.8591 137.641 75.5953L124.227 62" stroke="#1C3553" stroke-width="4" stroke-linecap="round" stroke-linejoin="round"/>
<path d="M126.326 46.6985C127.107 45.9174 127.107 44.6511 126.326 43.8701L122.083 39.6274C121.302 38.8464 120.036 38.8464 119.255 39.6274L73.3263 85.5557L53.5273 65.7567C52.7462 64.9756 51.4799 64.9757 50.6989 65.7567L47.1297 69.3259C46.3486 70.1069 46.3486 71.3733 47.1297 72.1543L71.1713 96.196C72.7334 97.7581 75.2661 97.7581 76.8281 96.196L126.326 46.6985Z" stroke="#1C3553" stroke-width="4" stroke-linecap="round" stroke-linejoin="round"/>
</svg>
