<svg width="156" height="156" viewBox="0 0 156 156" fill="none" xmlns="http://www.w3.org/2000/svg">
<path d="M40 68C40 66.3431 41.3431 65 43 65C44.6569 65 46 66.3431 46 68V123C46 124.657 44.6569 126 43 126C41.3431 126 40 124.657 40 123V68Z" fill="#C2DDFF"/>
<path d="M58 68C58 66.3431 59.3431 65 61 65C62.6569 65 64 66.3431 64 68V123C64 124.657 62.6569 126 61 126C59.3431 126 58 124.657 58 123V68Z" fill="#C2DDFF"/>
<path d="M76 68C76 66.3431 77.3431 65 79 65C80.6569 65 82 66.3431 82 68V123C82 124.657 80.6569 126 79 126C77.3431 126 76 124.657 76 123V68Z" fill="#C2DDFF"/>
<path d="M94 68C94 66.3431 95.3431 65 97 65C98.6569 65 100 66.3431 100 68V123C100 124.657 98.6569 126 97 126C95.3431 126 94 124.657 94 123V68Z" fill="#C2DDFF"/>
<path d="M112 68C112 66.3431 113.343 65 115 65C116.657 65 118 66.3431 118 68V123C118 124.657 116.657 126 115 126C113.343 126 112 124.657 112 123V68Z" fill="#C2DDFF"/>
<path d="M34.0005 68L34.0005 123C34.0005 127.971 38.0299 132 43.0005 132C47.9711 132 52.0005 127.971 52.0005 123L52.0005 68C52.0005 63.0294 47.971 59 43.0005 59C38.0299 59 34.0005 63.0294 34.0005 68Z" stroke="#1C3553" stroke-width="4" stroke-linecap="round" stroke-linejoin="round"/>
<path d="M52 68L52 123C52 127.971 56.0294 132 61 132C65.9706 132 70 127.971 70 123L70 68C70 63.0294 65.9706 59 61 59C56.0294 59 52 63.0294 52 68Z" stroke="#1C3553" stroke-width="4" stroke-linecap="round" stroke-linejoin="round"/>
<path d="M70 68L70 123C70 127.971 74.0294 132 79 132C83.9706 132 88 127.971 88 123L88 68C88 63.0294 83.9706 59 79 59C74.0294 59 70 63.0294 70 68Z" stroke="#1C3553" stroke-width="4" stroke-linecap="round" stroke-linejoin="round"/>
<path d="M88 68L88 123C88 127.971 92.0294 132 97 132C101.971 132 106 127.971 106 123L106 68C106 63.0294 101.971 59 97 59C92.0294 59 88 63.0294 88 68Z" stroke="#1C3553" stroke-width="4" stroke-linecap="round" stroke-linejoin="round"/>
<path d="M106 68L106 123C106 127.971 110.029 132 115 132C119.971 132 124 127.971 124 123L124 68C124 63.0294 119.971 59 115 59C110.029 59 106 63.0294 106 68Z" stroke="#1C3553" stroke-width="4" stroke-linecap="round" stroke-linejoin="round"/>
<path d="M124 78L135 78L135 69" stroke="#1C3553" stroke-width="4" stroke-linecap="round" stroke-linejoin="round"/>
<path d="M34.0001 74H25.0002V82H34.0001" stroke="#1C3553" stroke-width="4" stroke-linecap="round" stroke-linejoin="round"/>
<path d="M21 78H25" stroke="#1C3553" stroke-width="4" stroke-linecap="round" stroke-linejoin="round"/>
<path d="M62.6667 23C62.6667 23 68.6667 27 62.6667 33C56.6667 39 62.6667 43 62.6667 43" stroke="#1C3553" stroke-width="4" stroke-linecap="round" stroke-linejoin="round"/>
<path d="M92.3337 23C92.3337 23 98.3337 27 92.3337 33C86.3337 39 92.3337 43 92.3337 43" stroke="#1C3553" stroke-width="4" stroke-linecap="round" stroke-linejoin="round"/>
<path d="M77.167 17C77.167 17 87.292 23.4 77.167 33C67.042 42.6 77.167 49 77.167 49" stroke="#1C3553" stroke-width="4" stroke-linecap="round" stroke-linejoin="round"/>
</svg>
