<svg width="156" height="156" viewBox="0 0 156 156" fill="none" xmlns="http://www.w3.org/2000/svg">
<path d="M100.336 80.0351C77.824 90.0179 66.7025 73.7962 63.3053 63.4542C63.0242 62.5983 62.2421 62.0001 61.3412 62.0001H52.7302C51.34 62.0001 50.3739 60.6168 50.8525 59.3116L53.9692 50.8116C54.258 50.0238 55.0079 49.5001 55.8469 49.5001H60.3941C61.3092 49.5001 62.1074 48.8617 62.3608 47.9824C69.364 23.6722 90.0231 25.131 100.418 29.9655C101.092 30.279 101.5 30.9658 101.5 31.7094V38.7903C101.5 40.3822 99.7083 41.3457 98.2851 40.6325C86.997 34.9756 80.4824 41.5565 77.9208 47.0387C77.3609 48.237 78.3087 49.5001 79.6313 49.5001H92.2252C93.5903 49.5001 94.5542 50.8375 94.1226 52.1326L91.2892 60.6326C91.017 61.4493 90.2527 62.0001 89.3918 62.0001H81.1606C79.6522 62.0001 78.7034 63.6119 79.6031 64.8226C85.0986 72.2176 92.7043 71.3296 97.973 68.7324C99.4805 67.9893 101.5 69.0017 101.5 70.6823V78.2364C101.5 79.0083 101.041 79.7222 100.336 80.0351Z" fill="#C2DDFF"/>
<path d="M73.1967 111.311L99 111C104 111 105 108.278 105 105C105 101.722 101.918 100 99 100C99 100 85.5 100 84 100C82.5 100 81.8835 100 80 98C72.7495 90.3011 61.0378 89.03 53 89M45 118.013C45 118.013 70.6113 127.087 79 130C87.3887 132.913 96.0822 127.457 99 126C101.918 124.543 125.988 112.185 130 110C134.012 107.815 135.5 105 134 102C132.5 99 129.5 99.3661 125 101C120.988 102.457 104.56 108 104.56 108M45 118.013V85H37.0284M45 118.013V124C45 125.105 44.1046 126 43 126H33.375C31.4256 126 29.7601 124.595 29.432 122.673L23 85H37.0284M37.0284 85L37.0285 118.013" stroke="#1C3553" stroke-width="4" stroke-miterlimit="10" stroke-linecap="round" stroke-linejoin="round"/>
<path d="M62 61.9998C64.8535 72.3192 77.4267 90.5844 102 79V66C96.7966 70.1611 84.8483 74.7826 78 61.9998H91L96 48.9999H77.44C79.1185 43.008 86.692 33.0133 102 42.9998V31.0781C91.7611 25.7519 68.8483 22.2359 62 48.9998M62 61.9998H50L55 48.9999L62 48.9998M62 61.9998H67M62 48.9998H67" stroke="#1C3553" stroke-width="4" stroke-linecap="round" stroke-linejoin="round"/>
</svg>
