<svg width="156" height="156" viewBox="0 0 156 156" fill="none" xmlns="http://www.w3.org/2000/svg">
<path fill-rule="evenodd" clip-rule="evenodd" d="M42.7031 58.0083C42.7031 56.9037 43.5986 56.0083 44.7031 56.0083H124.703C125.808 56.0083 126.703 56.9037 126.703 58.0083V117C126.703 118.105 125.808 119 124.703 119H44.7031C43.5986 119 42.7031 118.105 42.7031 117V58.0083ZM110.902 105.784H59.9623C58.3212 105.784 57.3786 103.916 58.3532 102.596L71 85.4637L78 94.6077L92 76.3198L112.478 102.553C113.503 103.866 112.567 105.784 110.902 105.784ZM62 77.3358C65.3137 77.3358 68 74.6065 68 71.2398C68 67.8731 65.3137 65.1438 62 65.1438C58.6863 65.1438 56 67.8731 56 71.2398C56 74.6065 58.6863 77.3358 62 77.3358Z" fill="#C2DDFF"/>
<rect x="37" y="50" width="96" height="75" rx="4" stroke="#1C3553" stroke-width="4" stroke-linecap="round" stroke-linejoin="round"/>
<path d="M28.6543 85.6749L20.8316 48.8721C20.3723 46.7112 21.7517 44.5871 23.9126 44.1278L109.99 25.8316C112.15 25.3723 114.275 26.7517 114.734 28.9125L117.305 41.0083" stroke="#1C3553" stroke-width="4" stroke-linecap="round" stroke-linejoin="round"/>
<path d="M110.861 107H60C58.3519 107 57.4111 105.118 58.4 103.8L71 87L78 96L92 78L112.428 103.757C113.468 105.068 112.534 107 110.861 107Z" stroke="#1C3553" stroke-width="4" stroke-linecap="round" stroke-linejoin="round"/>
<circle cx="62" cy="73" r="6" stroke="#1C3553" stroke-width="4" stroke-linecap="round" stroke-linejoin="round"/>
</svg>
