<svg width="156" height="156" viewBox="0 0 156 156" fill="none" xmlns="http://www.w3.org/2000/svg">
<path fill-rule="evenodd" clip-rule="evenodd" d="M78 112C78 112 103 76.7723 103 63.3333C103 49.8944 91.8071 39 78 39C64.1929 39 53 49.8944 53 63.3333C53 76.7723 78 112 78 112ZM78 74C83.5228 74 88 69.299 88 63.5C88 57.701 83.5228 53 78 53C72.4772 53 68 57.701 68 63.5C68 69.299 72.4772 74 78 74Z" fill="#C2DDFF"/>
<path d="M61 100H30C27.7909 100 26 101.791 26 104V132C26 134.209 27.7909 136 30 136H91M99 136H124C126.209 136 128 134.209 128 132V104C128 101.791 126.209 100 124 100H95" stroke="#1C3553" stroke-width="4" stroke-linecap="round" stroke-linejoin="round"/>
<path d="M103 26.9873L122 16L141 26.9873C139.978 35.9398 134.748 55.3099 122 61.1698C109.252 55.3099 104.022 35.9398 103 26.9873Z" stroke="#1C3553" stroke-width="4" stroke-linecap="round" stroke-linejoin="round"/>
<path d="M121.136 26.4836C121.522 25.8213 122.478 25.8213 122.864 26.4836L125.334 30.7247C125.476 30.9673 125.712 31.1393 125.987 31.1987L130.784 32.2374C131.533 32.3997 131.828 33.3096 131.318 33.8811L128.048 37.541C127.86 37.7503 127.77 38.0287 127.798 38.308L128.293 43.191C128.37 43.9535 127.596 44.5159 126.895 44.2069L122.403 42.2277C122.146 42.1145 121.854 42.1145 121.597 42.2277L117.105 44.2069C116.404 44.5159 115.63 43.9535 115.707 43.191L116.202 38.308C116.23 38.0287 116.14 37.7503 115.952 37.541L112.682 33.8811C112.172 33.3096 112.467 32.3997 113.216 32.2374L118.013 31.1987C118.288 31.1393 118.524 30.9673 118.666 30.7247L121.136 26.4836Z" stroke="#1C3553" stroke-width="4" stroke-linecap="round" stroke-linejoin="round"/>
<path d="M59 35V16H35V31H15V66" stroke="#1C3553" stroke-width="4" stroke-linecap="round" stroke-linejoin="round"/>
<path d="M22 39H34" stroke="#1C3553" stroke-width="4" stroke-linecap="round" stroke-linejoin="round"/>
<path d="M22 48H34" stroke="#1C3553" stroke-width="4" stroke-linecap="round" stroke-linejoin="round"/>
<path d="M42 39H50" stroke="#1C3553" stroke-width="4" stroke-linecap="round" stroke-linejoin="round"/>
<path d="M42 48H46" stroke="#1C3553" stroke-width="4" stroke-linecap="round" stroke-linejoin="round"/>
<path d="M22 57H34" stroke="#1C3553" stroke-width="4" stroke-linecap="round" stroke-linejoin="round"/>
<path d="M42 23L52 23" stroke="#1C3553" stroke-width="4" stroke-linecap="round" stroke-linejoin="round"/>
<path d="M42 31L52 31" stroke="#1C3553" stroke-width="4" stroke-linecap="round" stroke-linejoin="round"/>
<path d="M26 111L38 111L38 122L53.5 122" stroke="#1C3553" stroke-width="4" stroke-linecap="round" stroke-linejoin="round"/>
<circle cx="57.5" cy="122" r="4" transform="rotate(-90 57.5 122)" stroke="#1C3553" stroke-width="4"/>
<circle cx="109.5" cy="114" r="4" transform="rotate(-90 109.5 114)" stroke="#1C3553" stroke-width="4"/>
<path d="M62 122H88L94 115H105" stroke="#1C3553" stroke-width="4" stroke-linecap="round" stroke-linejoin="round"/>
<ellipse cx="78" cy="63.5" rx="10" ry="10.5" stroke="#1C3553" stroke-width="4" stroke-linecap="round" stroke-linejoin="round"/>
<path d="M78 112L76.369 113.157C76.744 113.686 77.3519 114 78 114C78.6481 114 79.256 113.686 79.631 113.157L78 112ZM101 63.3333C101 66.2268 99.6089 70.6044 97.2708 75.7842C94.9711 80.8793 91.8884 86.4701 88.782 91.6823C85.6795 96.8879 82.5741 101.681 80.2426 105.176C79.0774 106.922 78.107 108.341 77.4287 109.323C77.0896 109.814 76.8236 110.195 76.6429 110.453C76.5525 110.582 76.4835 110.68 76.4374 110.746C76.4143 110.778 76.3969 110.803 76.3854 110.819C76.3797 110.827 76.3755 110.833 76.3727 110.837C76.3713 110.839 76.3703 110.841 76.3697 110.841C76.3694 110.842 76.3692 110.842 76.3691 110.842C76.369 110.843 76.369 110.843 78 112C79.631 113.157 79.6312 113.157 79.6315 113.157C79.6317 113.156 79.6321 113.156 79.6326 113.155C79.6335 113.154 79.6347 113.152 79.6364 113.15C79.6397 113.145 79.6445 113.138 79.6508 113.13C79.6634 113.112 79.6819 113.086 79.7061 113.051C79.7545 112.983 79.8259 112.881 79.9186 112.749C80.1042 112.484 80.3753 112.095 80.7197 111.597C81.4086 110.6 82.3913 109.162 83.5699 107.396C85.9259 103.865 89.0705 99.0114 92.218 93.7302C95.3616 88.4557 98.5289 82.7197 100.917 77.4299C103.266 72.2248 105 67.1594 105 63.3333H101ZM78 41C90.7538 41 101 51.0496 101 63.3333H105C105 48.7392 92.8604 37 78 37V41ZM55 63.3333C55 51.0496 65.2461 41 78 41V37C63.1396 37 51 48.7392 51 63.3333H55ZM78 112C79.631 110.843 79.631 110.843 79.6309 110.842C79.6308 110.842 79.6306 110.842 79.6303 110.841C79.6297 110.841 79.6287 110.839 79.6273 110.837C79.6245 110.833 79.6203 110.827 79.6146 110.819C79.6031 110.803 79.5857 110.778 79.5626 110.746C79.5165 110.68 79.4475 110.582 79.3571 110.453C79.1764 110.195 78.9104 109.814 78.5713 109.323C77.893 108.341 76.9226 106.922 75.7574 105.176C73.4259 101.681 70.3205 96.8879 67.218 91.6823C64.1116 86.4701 61.0289 80.8793 58.7292 75.7842C56.3911 70.6044 55 66.2268 55 63.3333H51C51 67.1594 52.7339 72.2248 55.0833 77.4299C57.4711 82.7197 60.6384 88.4557 63.782 93.7302C66.9295 99.0114 70.0741 103.865 72.4301 107.396C73.6087 109.162 74.5914 110.6 75.2803 111.597C75.6247 112.095 75.8958 112.484 76.0814 112.749C76.1741 112.881 76.2455 112.983 76.2939 113.051C76.3181 113.086 76.3366 113.112 76.3492 113.13C76.3555 113.138 76.3603 113.145 76.3636 113.15C76.3653 113.152 76.3665 113.154 76.3674 113.155C76.3679 113.156 76.3683 113.156 76.3685 113.157C76.3688 113.157 76.369 113.157 78 112ZM86 63.5C86 68.2875 82.3274 72 78 72V76C84.7183 76 90 70.3105 90 63.5H86ZM78 55C82.3274 55 86 58.7125 86 63.5H90C90 56.6895 84.7183 51 78 51V55ZM70 63.5C70 58.7125 73.6726 55 78 55V51C71.2817 51 66 56.6895 66 63.5H70ZM78 72C73.6726 72 70 68.2875 70 63.5H66C66 70.3105 71.2817 76 78 76V72Z" fill="#1C3553"/>
</svg>
