<svg width="156" height="156" viewBox="0 0 156 156" fill="none" xmlns="http://www.w3.org/2000/svg">
<rect x="84" y="28" width="44" height="35" rx="1" fill="#C2DDFF"/>
<rect x="84" y="75" width="44" height="54" rx="1" fill="#C2DDFF"/>
<rect x="29" y="100" width="34" height="29" rx="1" fill="#C2DDFF"/>
<path d="M22 96C22 94.8954 22.8954 94 24 94H67C68.1046 94 69 94.8954 69 96V133C69 134.105 68.1046 135 67 135H24C22.8954 135 22 134.105 22 133V96Z" stroke="#1C3553" stroke-width="4" stroke-linecap="round" stroke-linejoin="round"/>
<path d="M22 86H69" stroke="#1C3553" stroke-width="4" stroke-linecap="round" stroke-linejoin="round"/>
<path d="M78 69H126" stroke="#1C3553" stroke-width="4" stroke-linecap="round" stroke-linejoin="round"/>
<path d="M90 81L90 107" stroke="#1C3553" stroke-width="4" stroke-linecap="round" stroke-linejoin="round"/>
<path d="M90 39L90 57" stroke="#1C3553" stroke-width="4" stroke-linecap="round" stroke-linejoin="round"/>
<path d="M134 104V26C134 23.7909 132.209 22 130 22H82C79.7909 22 78 23.7909 78 26V133C78 134.105 78.8954 135 80 135H132C133.105 135 134 134.105 134 133V112" stroke="#1C3553" stroke-width="4" stroke-linecap="round" stroke-linejoin="round"/>
<path d="M49 44V78" stroke="#1C3553" stroke-width="4" stroke-linecap="round" stroke-linejoin="round"/>
<path d="M49 77.9997C51.8717 77.8003 57.6152 73.5728 57.6152 58.2578H49" stroke="#1C3553" stroke-width="4" stroke-linecap="round" stroke-linejoin="round"/>
<path d="M36 44L36.0154 68.0002" stroke="#1C3553" stroke-width="4" stroke-linecap="round" stroke-linejoin="round"/>
<circle cx="36" cy="73" r="5" stroke="#1C3553" stroke-width="4" stroke-linecap="round" stroke-linejoin="round"/>
<path d="M25 50L65 49.9736" stroke="#1C3553" stroke-width="4" stroke-linecap="round" stroke-linejoin="round"/>
</svg>
