<svg width="156" height="156" viewBox="0 0 156 156" fill="none" xmlns="http://www.w3.org/2000/svg">
<path d="M45 39C45 37.8954 45.8954 37 47 37H67.7016C68.5128 37 69.242 37.485 69.5698 38.227C70.9208 41.2848 74.5704 49 77 49C79.3938 49 82.3478 41.5103 83.4828 38.365C83.7763 37.5515 84.5425 37 85.4074 37H106C107.105 37 108 37.8954 108 39V66.5C108 67.6046 107.105 68.5 106 68.5H77.053C75.9484 68.5 75.053 69.3954 75.053 70.5V75.5V107.5C75.053 108.605 74.1575 109.5 73.053 109.5H72.1434C71.1883 109.5 70.3673 110.177 70.2859 111.128C70.0748 113.596 70.1922 118 73.7173 118C77.8394 118 99.3083 118 106.004 118C107.108 118 108 118.895 108 120V123C108 124.105 107.105 125 106 125H62.5C61.3954 125 60.5 124.105 60.5 123V117.606C60.5 117.211 60.6169 116.825 60.8359 116.496L61.8166 115.025C62.2356 114.397 62.2647 113.586 61.8919 112.929L52.5748 96.5128C52.2195 95.8868 51.5553 95.5 50.8355 95.5H47C45.8954 95.5 45 94.6046 45 93.5V39Z" fill="#C2DDFF"/>
<path d="M39 88V34.5775C39 32.6017 40.6017 31 42.5775 31H58M67.5714 131H110.423C112.398 131 114 129.398 114 127.423V125.84M114 58.9528V34.5775C114 32.6017 112.398 31 110.423 31H96" stroke="#1C3553" stroke-width="4" stroke-linecap="round" stroke-linejoin="round"/>
<path d="M51 57L102 57" stroke="#1C3553" stroke-width="4" stroke-linecap="round" stroke-linejoin="round"/>
<path d="M51 67H64" stroke="#1C3553" stroke-width="4" stroke-linecap="round" stroke-linejoin="round"/>
<path d="M52 47H61" stroke="#1C3553" stroke-width="4" stroke-linecap="round" stroke-linejoin="round"/>
<path d="M93 47L102 47" stroke="#1C3553" stroke-width="4" stroke-linecap="round" stroke-linejoin="round"/>
<path d="M51 77H64" stroke="#1C3553" stroke-width="4" stroke-linecap="round" stroke-linejoin="round"/>
<path d="M57.2676 87L64.2676 87" stroke="#1C3553" stroke-width="4" stroke-linecap="round" stroke-linejoin="round"/>
<path d="M70 112C70 110.895 70.8954 110 72 110H106H140C141.105 110 142 110.895 142 112V112C142 115.314 139.314 118 136 118H76C72.6863 118 70 115.314 70 112V112Z" stroke="#1C3553" stroke-width="4" stroke-linecap="round" stroke-linejoin="round"/>
<path d="M135 67H78C75.7909 67 74 68.7909 74 71V86.5868V106C74 108.209 75.7909 110 78 110H135C137.209 110 139 108.209 139 106V71C139 68.7909 137.209 67 135 67Z" stroke="#1C3553" stroke-width="4" stroke-linecap="round" stroke-linejoin="round"/>
<path d="M82 86.8125V76C82 75.4477 82.4477 75 83 75H104.37H130C130.552 75 131 75.4477 131 76V89.3884M131 97.3594V101C131 101.552 130.552 102 130 102H83C82.4477 102 82 101.552 82 101V94.8281" stroke="#1C3553" stroke-width="4" stroke-linecap="round" stroke-linejoin="round"/>
<path d="M90 94L100 86L111.912 92.6268L123 83" stroke="#1C3553" stroke-width="4" stroke-linecap="round" stroke-linejoin="round"/>
<path d="M77 49.5624L75.3696 50.7207C75.7447 51.2487 76.3523 51.5624 77 51.5624C77.6477 51.5624 78.2553 51.2487 78.6304 50.7207L77 49.5624ZM87 26.229C87 27.3731 86.4218 29.2926 85.3025 31.7696C84.2215 34.1616 82.7639 36.8043 81.2825 39.2872C79.8051 41.7633 78.3246 44.046 77.2119 45.7117C76.6562 46.5437 76.1935 47.2196 75.8707 47.6864C75.7093 47.9197 75.583 48.1006 75.4975 48.2225C75.4548 48.2834 75.4222 48.3296 75.4007 48.3601C75.3899 48.3754 75.3819 48.3867 75.3766 48.3941C75.374 48.3978 75.3721 48.4004 75.371 48.4021C75.3704 48.4029 75.37 48.4035 75.3697 48.4038C75.3696 48.404 75.3696 48.404 75.3695 48.4041C75.3695 48.4041 75.3696 48.404 77 49.5624C78.6304 50.7207 78.6305 50.7205 78.6307 50.7203C78.6309 50.7201 78.6311 50.7197 78.6314 50.7194C78.6319 50.7187 78.6325 50.7177 78.6334 50.7165C78.6351 50.7141 78.6376 50.7106 78.6407 50.7062C78.6471 50.6972 78.6562 50.6843 78.6682 50.6674C78.692 50.6336 78.7269 50.5841 78.772 50.5198C78.8623 50.3911 78.9938 50.2028 79.1605 49.9617C79.494 49.4796 79.9688 48.7857 80.5381 47.9336C81.6754 46.231 83.1949 43.8885 84.7175 41.3367C86.2361 38.7917 87.7785 36.0037 88.9475 33.4168C90.0782 30.9147 91 28.3067 91 26.229H87ZM77 49.5624C78.6304 48.404 78.6305 48.4041 78.6305 48.4041C78.6304 48.404 78.6304 48.404 78.6303 48.4038C78.63 48.4035 78.6296 48.4029 78.629 48.4021C78.6279 48.4004 78.626 48.3978 78.6234 48.3941C78.6181 48.3867 78.6101 48.3754 78.5993 48.3601C78.5778 48.3296 78.5452 48.2834 78.5025 48.2225C78.417 48.1006 78.2907 47.9197 78.1293 47.6864C77.8065 47.2196 77.3438 46.5437 76.7881 45.7117C75.6754 44.046 74.1949 41.7633 72.7175 39.2872C71.2361 36.8043 69.7785 34.1616 68.6976 31.7696C67.5782 29.2926 67 27.3731 67 26.229H63C63 28.3067 63.9218 30.9147 65.0524 33.4168C66.2215 36.0037 67.7639 38.7917 69.2825 41.3367C70.8051 43.8885 72.3246 46.231 73.4619 47.9336C74.0312 48.7857 74.506 49.4796 74.8395 49.9617C75.0062 50.2028 75.1377 50.3911 75.228 50.5198C75.2731 50.5841 75.308 50.6336 75.3318 50.6674C75.3438 50.6843 75.3529 50.6972 75.3593 50.7062C75.3624 50.7106 75.3649 50.7141 75.3666 50.7165C75.3675 50.7177 75.3681 50.7187 75.3686 50.7194C75.3689 50.7197 75.3691 50.7201 75.3693 50.7203C75.3695 50.7205 75.3696 50.7207 77 49.5624ZM67 26.229C67 20.943 71.4237 16.5624 77 16.5624V12.5624C69.3215 12.5624 63 18.6284 63 26.229H67ZM77 16.5624C82.5763 16.5624 87 20.943 87 26.229H91C91 18.6284 84.6785 12.5624 77 12.5624V16.5624Z" fill="#1C3553"/>
<circle cx="77" cy="26.4346" r="4" stroke="#1C3553" stroke-width="4" stroke-linecap="round" stroke-linejoin="round"/>
<path d="M15 117.049H27L39 108.704L51 117.049H63M15 117.049L27 96H51L63 117.049M15 117.049H19L19 140H27H39H51L59 140L59 117.049L63 117.049" stroke="#1C3553" stroke-width="4" stroke-linecap="round" stroke-linejoin="round"/>
<rect x="29" y="125" width="8" height="15" stroke="#1C3553" stroke-width="4" stroke-linecap="round" stroke-linejoin="round"/>
<path d="M51 126C51 127.657 49.6569 129 48 129C46.3431 129 45 127.657 45 126C45 124.343 46.3431 123 48 123C49.6569 123 51 124.343 51 126Z" fill="#1C3553"/>
</svg>
