<svg width="156" height="156" viewBox="0 0 156 156" fill="none" xmlns="http://www.w3.org/2000/svg">
<path d="M110 67.92C110 80.4158 107.854 86.1946 97.3684 96.4754C88.0083 103.668 96.5263 120 78 120C59.4737 120 67.9917 103.668 58.6316 96.4754C48.1456 86.1946 46 80.4158 46 67.92C46 50.2911 60.3269 36 78 36C95.6731 36 110 50.2911 110 67.92Z" stroke="#1C3553" stroke-width="4" stroke-linecap="round" stroke-linejoin="round"/>
<path d="M105 69.12C105 80.1282 99.7945 84.9203 91.5 93.9773C83.0625 102.386 90.6562 115 78 115C65.3438 115 72.0938 101.545 63.6562 93.9773C55.3617 84.9203 51 80.1282 51 69.12C51 53.5898 64.0203 41 78 41C91.9797 41 105 53.5898 105 69.12Z" fill="#C2DDFF"/>
<path d="M67 128H89" stroke="#1C3553" stroke-width="4" stroke-linecap="round" stroke-linejoin="round"/>
<path d="M67 136H89" stroke="#1C3553" stroke-width="4" stroke-linecap="round" stroke-linejoin="round"/>
<path d="M72 143H84" stroke="#1C3553" stroke-width="4" stroke-linecap="round" stroke-linejoin="round"/>
<line x1="78" y1="11" x2="78" y2="24" stroke="#1C3553" stroke-width="4" stroke-linecap="round" stroke-linejoin="round"/>
<line x1="101.268" y1="29.2679" x2="107.268" y2="18.8756" stroke="#1C3553" stroke-width="4" stroke-linecap="round" stroke-linejoin="round"/>
<line x1="48.7321" y1="18.7321" x2="54.7321" y2="29.1244" stroke="#1C3553" stroke-width="4" stroke-linecap="round" stroke-linejoin="round"/>
<line x1="114.588" y1="41.2679" x2="123.248" y2="36.2679" stroke="#1C3553" stroke-width="4" stroke-linecap="round" stroke-linejoin="round"/>
<line x1="32.7321" y1="36.2679" x2="41.3923" y2="41.2679" stroke="#1C3553" stroke-width="4" stroke-linecap="round" stroke-linejoin="round"/>
<path d="M70.0001 49C65.0001 51 57.0006 58 58.0006 73" stroke="#1C3553" stroke-width="4" stroke-linecap="round" stroke-linejoin="round"/>
</svg>
