<svg width="156" height="156" viewBox="0 0 156 156" fill="none" xmlns="http://www.w3.org/2000/svg">
<path fill-rule="evenodd" clip-rule="evenodd" d="M39 70.5V102C39 103.105 39.8954 104 41 104H115C116.105 104 117 103.105 117 102V57C117 55.8954 116.105 55 115 55H89V68.5C89 69.6045 88.1046 70.5 87 70.5H72C70.8954 70.5 70 71.3954 70 72.5V86.5L56.5976 71.183C56.2178 70.7489 55.6692 70.5 55.0925 70.5H39Z" fill="#C2DDFF"/>
<path d="M30 44H74" stroke="#1C3553" stroke-width="4" stroke-linecap="round" stroke-linejoin="round"/>
<path d="M30 56H60" stroke="#1C3553" stroke-width="4" stroke-linecap="round" stroke-linejoin="round"/>
<path d="M21 126H135C138.314 126 141 123.314 141 120C141 118.895 140.105 118 139 118H17C15.8954 118 15 118.895 15 120C15 123.314 17.6863 126 21 126Z" stroke="#1C3553" stroke-width="4" stroke-linecap="round" stroke-linejoin="round"/>
<path d="M97 40H126C128.761 40 131 42.2386 131 45V113C131 115.761 128.761 118 126 118H30C27.2386 118 25 115.761 25 113V79" stroke="#1C3553" stroke-width="4" stroke-linecap="round" stroke-linejoin="round"/>
<path d="M71 87L69.4948 88.317C70.0435 88.944 70.9235 89.1652 71.7035 88.8722C72.4834 88.5791 73 87.8332 73 87H71ZM57.5976 71.683L59.1028 70.3659L57.5976 71.683ZM19 32H85V28H19V32ZM87 34V67H91V34H87ZM17 67V34H13V67H17ZM56.0925 69H19V73H56.0925V69ZM85 69H73V73H85V69ZM69 73V87H73V73H69ZM72.5052 85.683L59.1028 70.3659L56.0925 73L69.4948 88.317L72.5052 85.683ZM73 69C70.7909 69 69 70.7908 69 73H73V69ZM56.0925 73H56.0925L59.1028 70.3659C58.3432 69.4979 57.2459 69 56.0925 69V73ZM13 67C13 70.3137 15.6863 73 19 73V69C17.8954 69 17 68.1045 17 67H13ZM87 67C87 68.1045 86.1046 69 85 69V73C88.3137 73 91 70.3137 91 67H87ZM85 32C86.1046 32 87 32.8954 87 34H91C91 30.6863 88.3137 28 85 28V32ZM19 28C15.6863 28 13 30.6863 13 34H17C17 32.8954 17.8954 32 19 32V28Z" fill="#1C3553"/>
<path d="M97 48H121C122.105 48 123 48.8954 123 50V82M123 90V108C123 109.105 122.105 110 121 110H35C33.8954 110 33 109.105 33 108V79" stroke="#1C3553" stroke-width="4" stroke-linecap="round" stroke-linejoin="round"/>
</svg>
