<svg width="156" height="156" viewBox="0 0 156 156" fill="none" xmlns="http://www.w3.org/2000/svg">
<path fill-rule="evenodd" clip-rule="evenodd" d="M76.3825 98.6056C77.1586 99.7695 78.8414 99.7695 79.6175 98.6056C85.0047 90.5262 102 64.1541 102 53C102 39.7452 91.2548 29 78 29C64.7452 29 54 39.7452 54 53C54 64.1541 70.9953 90.5262 76.3825 98.6056ZM78 64C84.6274 64 90 58.6274 90 52C90 45.3726 84.6274 40 78 40C71.3726 40 66 45.3726 66 52C66 58.6274 71.3726 64 78 64Z" fill="#C2DDFF"/>
<path d="M78.8018 109.85L77.1574 108.712L78.8018 109.85ZM106 52.3333C106 55.554 104.621 60.2252 102.269 65.7334C99.9473 71.1719 96.7867 77.1835 93.4545 82.9948C86.7925 94.6131 79.5298 105.284 77.1574 108.712L80.4463 110.988C82.8433 107.525 90.1797 96.7471 96.9245 84.9845C100.296 79.1055 103.54 72.9435 105.948 67.3039C108.326 61.7338 110 56.4221 110 52.3333H106ZM78.8426 108.712C76.4702 105.284 69.2075 94.6131 62.5455 82.9948C59.2133 77.1834 56.0527 71.1719 53.7309 65.7334C51.3794 60.2252 50 55.554 50 52.3333H46C46 56.4221 47.6742 61.7338 50.0521 67.3039C52.4598 72.9435 55.7044 79.1055 59.0755 84.9845C65.8203 96.7471 73.1567 107.525 75.5537 110.988L78.8426 108.712ZM50 52.3333C50 37.2797 62.4934 25 78 25V21C60.3695 21 46 34.9863 46 52.3333H50ZM78 25C93.5066 25 106 37.2797 106 52.3333H110C110 34.9863 95.6305 21 78 21V25ZM77.1574 108.712C77.5596 108.13 78.4404 108.13 78.8426 108.712L75.5537 110.988C76.7419 112.705 79.258 112.705 80.4463 110.988L77.1574 108.712Z" fill="#1C3553"/>
<circle cx="78" cy="52" r="12" stroke="#1C3553" stroke-width="4" stroke-linecap="round" stroke-linejoin="round"/>
<path d="M55 90H31C28.7909 90 27 91.7909 27 94V122C27 124.209 28.7909 126 31 126H89M97 126H125C127.209 126 129 124.209 129 122V94C129 91.7909 127.209 90 125 90H101" stroke="#1C3553" stroke-width="4" stroke-linecap="round" stroke-linejoin="round"/>
<path d="M29 102H47V114H64" stroke="#1C3553" stroke-width="4" stroke-linecap="round" stroke-linejoin="round"/>
<path d="M129 114H110V102H97" stroke="#1C3553" stroke-width="4" stroke-linecap="round" stroke-linejoin="round"/>
</svg>
