<svg width="156" height="156" viewBox="0 0 156 156" fill="none" xmlns="http://www.w3.org/2000/svg">
<path d="M25 74.7398V57.3167C25 56.3109 25.747 55.4615 26.7446 55.3331L104.745 45.2904C105.941 45.1364 107 46.0681 107 47.274V84.7276C107 85.933 105.942 86.8645 104.746 86.7114L26.746 76.7236C25.7478 76.5958 25 75.7461 25 74.7398Z" fill="#C2DDFF"/>
<path d="M19 78.2758V53.7997C19 52.8095 19.7245 51.9684 20.7038 51.8218L108.408 38.6877C110.826 38.3256 113 40.1985 113 42.6436V89.3601C113 91.8039 110.828 93.6765 108.411 93.3165L20.7054 80.254C19.7254 80.108 19 79.2666 19 78.2758Z" stroke="#1C3553" stroke-width="4" stroke-linecap="round" stroke-linejoin="round"/>
<path d="M40 91L53.4908 124.494C54.1006 126.008 55.569 127 57.2012 127H60.1882C62.9919 127 64.9257 124.19 63.9244 121.571L53 93" stroke="#1C3553" stroke-width="4" stroke-linecap="round" stroke-linejoin="round"/>
<path d="M47 49L47 73" stroke="#1C3553" stroke-width="4" stroke-linecap="round" stroke-linejoin="round"/>
<path d="M113 56H117C119.209 56 121 57.7909 121 60V72C121 74.2091 119.209 76 117 76H113" stroke="#1C3553" stroke-width="4" stroke-linecap="round" stroke-linejoin="round"/>
<line x1="145" y1="66" x2="131" y2="66" stroke="#1C3553" stroke-width="4" stroke-linecap="round" stroke-linejoin="round"/>
<path d="M131.002 77L142 84" stroke="#1C3553" stroke-width="4" stroke-linecap="round" stroke-linejoin="round"/>
<path d="M142 48L131 55.0003" stroke="#1C3553" stroke-width="4" stroke-linecap="round" stroke-linejoin="round"/>
</svg>
