<svg width="156" height="156" viewBox="0 0 156 156" fill="none" xmlns="http://www.w3.org/2000/svg">
<path d="M56.9524 104.796L34.6051 121.78C33.9467 122.281 33 121.811 33 120.984V87.016C33 86.189 33.9467 85.7195 34.6051 86.2199L56.9524 103.204C57.479 103.604 57.479 104.396 56.9524 104.796Z" fill="#C2DDFF"/>
<path d="M99.0476 103.204L121.395 86.2199C122.053 85.7195 123 86.189 123 87.016L123 120.984C123 121.811 122.053 122.281 121.395 121.78L99.0476 104.796C98.521 104.396 98.521 103.604 99.0476 103.204Z" fill="#C2DDFF"/>
<path d="M68.7272 110.216L47.2535 127.216C46.5104 127.804 46.9264 129 47.8742 129H109.032C109.989 129 110.399 127.783 109.637 127.204L87.2682 110.204C87.0942 110.072 86.8817 110 86.6631 110H69.3479C69.1226 110 68.9039 110.076 68.7272 110.216Z" fill="#C2DDFF"/>
<path fill-rule="evenodd" clip-rule="evenodd" d="M58 47C56.8954 47 56 47.8954 56 49V79C56 80.1046 56.8954 81 58 81H97C98.1046 81 99 80.1046 99 79V49C99 47.8954 98.1046 47 97 47H58ZM71 73L86 64L71 55V73Z" fill="#C2DDFF"/>
<path d="M100 37H114L98 22V35C98 36.1046 98.8954 37 100 37Z" fill="#C2DDFF"/>
<path d="M86 64L71 73L71 55L86 64Z" stroke="#1C3553" stroke-width="4" stroke-linecap="round" stroke-linejoin="round"/>
<path d="M69 91H87" stroke="#1C3553" stroke-width="4" stroke-linecap="round" stroke-linejoin="round"/>
<path d="M27 73V104.25M27 73L67 104M27 73L41.5 59M27 135H78.25H129M27 135L67 104M27 135V112M129 135V73M129 135L89 104M129 73L89 104M129 73L115 59M89 104H67" stroke="#1C3553" stroke-width="4" stroke-linecap="round" stroke-linejoin="round"/>
<path d="M56 37H78" stroke="#1C3553" stroke-width="4" stroke-linecap="round" stroke-linejoin="round"/>
<path d="M86 64L87.029 65.715C87.6314 65.3535 88 64.7025 88 64C88 63.2975 87.6314 62.6465 87.029 62.285L86 64ZM71 73H69C69 73.7205 69.3876 74.3854 70.0146 74.7404C70.6416 75.0954 71.4111 75.0857 72.029 74.715L71 73ZM71 55L72.029 53.285C71.4111 52.9143 70.6416 52.9046 70.0146 53.2596C69.3876 53.6146 69 54.2795 69 55H71ZM58 49V49V45C55.7909 45 54 46.7909 54 49H58ZM58 79V49H54V79H58ZM58 79H58H54C54 81.2091 55.7909 83 58 83V79ZM97 79H58V83H97V79ZM97 79V83C99.2091 83 101 81.2091 101 79H97ZM97 49V79H101V49H97ZM97 49H101C101 46.7909 99.2091 45 97 45V49ZM58 49H97V45H58V49ZM84.971 62.285L69.971 71.285L72.029 74.715L87.029 65.715L84.971 62.285ZM69.971 56.715L84.971 65.715L87.029 62.285L72.029 53.285L69.971 56.715ZM73 73V55H69V73H73Z" fill="#1C3553"/>
<path d="M98 22V35C98 36.1046 98.8954 37 100 37H114M98 22L114 37M98 22H64M114 37V84M42 84V24C42 22.8954 42.8954 22 44 22H56" stroke="#1C3553" stroke-width="4" stroke-linecap="round" stroke-linejoin="round"/>
</svg>
