<svg width="156" height="156" viewBox="0 0 156 156" fill="none" xmlns="http://www.w3.org/2000/svg">
<path d="M127 46C127 47.1046 126.105 48 125 48C123.895 48 123 47.1046 123 46C123 44.8954 123.895 44 125 44C126.105 44 127 44.8954 127 46Z" fill="#1C3553"/>
<path fill-rule="evenodd" clip-rule="evenodd" d="M124.985 20.0001C126.089 19.9916 126.991 20.8801 127 21.9846L125 22L123 22.0154C122.992 20.9108 123.88 20.0086 124.985 20.0001ZM125 22C123 22.0154 123 22.0153 123 22.0154L123.003 22.4894C123.006 22.7951 123.009 23.2379 123.012 23.7853C123.018 24.8803 123.026 26.394 123.031 28.0687C123.042 31.424 123.042 35.4061 123 37.9677C122.982 39.0722 123.863 39.9819 124.968 39.9997C126.072 40.0176 126.982 39.1367 127 38.0323C127.042 35.4272 127.042 31.4094 127.031 28.0563C127.026 26.3768 127.018 24.8593 127.012 23.7616C127.008 23.2127 127.005 22.7687 127.003 22.4618L127 21.9846C127 21.9845 127 21.9846 125 22Z" fill="#1C3553"/>
<path fill-rule="evenodd" clip-rule="evenodd" d="M42.9388 57.6108C43.706 58.4054 43.6838 59.6716 42.8892 60.4388L30.0511 72.8342L67.6843 102H88.3157L125.981 72.8094L113.586 60.4142C112.805 59.6332 112.805 58.3668 113.586 57.5858C114.367 56.8047 115.633 56.8047 116.414 57.5858L130.414 71.5858C130.789 71.9609 131 72.4696 131 73V135C131 136.105 130.105 137 129 137H27C25.8954 137 25 136.105 25 135V112C25 110.895 25.8954 110 27 110C28.1046 110 29 110.895 29 112V130.92L63.7351 104L29 77.0803V104.25C29 105.355 28.1046 106.25 27 106.25C25.8954 106.25 25 105.355 25 104.25V73C25 72.4574 25.2205 71.938 25.6108 71.5612L40.1108 57.5612C40.9054 56.794 42.1716 56.8162 42.9388 57.6108ZM67.6843 106L32.8456 133H123.154L88.3157 106H67.6843ZM92.2649 104L127 130.92V77.0803L92.2649 104Z" fill="#1C3553"/>
<path fill-rule="evenodd" clip-rule="evenodd" d="M44 24V84C44 85.1046 43.1046 86 42 86C40.8954 86 40 85.1046 40 84V24C40 21.7909 41.7909 20 44 20H56C57.1046 20 58 20.8954 58 22C58 23.1046 57.1046 24 56 24L44 24ZM62 22C62 20.8954 62.8954 20 64 20H98C98.5081 20 98.9972 20.1934 99.3679 20.5409L115.368 35.5409C115.771 35.919 116 36.4472 116 37V84C116 85.1046 115.105 86 114 86C112.895 86 112 85.1046 112 84V39H100C97.7909 39 96 37.2091 96 35V24H64C62.8954 24 62 23.1046 62 22ZM100 26.6165L108.942 35H100V26.6165Z" fill="#1C3553"/>
<path fill-rule="evenodd" clip-rule="evenodd" d="M56 35C56 33.8954 56.8954 33 58 33H72C73.1046 33 74 33.8954 74 35V47C74 48.1046 73.1046 49 72 49H58C56.8954 49 56 48.1046 56 47V35ZM60 37V45H70V37H60Z" fill="#1C3553"/>
<path fill-rule="evenodd" clip-rule="evenodd" d="M56 75C56 73.8954 56.8954 73 58 73H72C73.1046 73 74 73.8954 74 75V87C74 88.1046 73.1046 89 72 89H58C56.8954 89 56 88.1046 56 87V75ZM60 77V85H70V77H60Z" fill="#1C3553"/>
<path fill-rule="evenodd" clip-rule="evenodd" d="M56 55C56 53.8954 56.8954 53 58 53H72C73.1046 53 74 53.8954 74 55V67C74 68.1046 73.1046 69 72 69H58C56.8954 69 56 68.1046 56 67V55ZM60 57V65H70V57H60Z" fill="#1C3553"/>
</svg>
