<svg width="156" height="156" viewBox="0 0 156 156" fill="none" xmlns="http://www.w3.org/2000/svg">
<path fill-rule="evenodd" clip-rule="evenodd" d="M64 82C62.8954 82 62 82.8954 62 84V120C62 121.105 62.8954 122 64 122H92C93.1046 122 94 121.105 94 120V84C94 82.8954 93.1046 82 92 82H64ZM68 112V98.1304L78.5 90L89 98.1304V112H68Z" fill="#C2DDFF"/>
<path d="M77.1359 23.4836C77.5216 22.8213 78.4784 22.8213 78.8641 23.4836L81.011 27.1696C81.1523 27.4122 81.3891 27.5843 81.6635 27.6437L85.8326 28.5465C86.5816 28.7087 86.8773 29.6186 86.3666 30.1901L83.5244 33.371C83.3374 33.5803 83.2469 33.8587 83.2752 34.138L83.7049 38.382C83.7821 39.1445 83.0081 39.7069 82.3067 39.3978L78.4032 37.6777C78.1463 37.5645 77.8537 37.5645 77.5968 37.6777L73.6933 39.3978C72.9919 39.7069 72.2179 39.1445 72.2951 38.382L72.7248 34.138C72.7531 33.8587 72.6626 33.5803 72.4756 33.371L69.6334 30.1901C69.1227 29.6186 69.4184 28.7087 70.1674 28.5465L74.3365 27.6437C74.6109 27.5843 74.8477 27.4122 74.989 27.1696L77.1359 23.4836Z" fill="#C2DDFF"/>
<path d="M113 40H131V51H125L118 56V51H113V40Z" fill="#C2DDFF"/>
<circle cx="34" cy="46.677" r="18" stroke="#1C3553" stroke-width="4" stroke-linecap="round" stroke-linejoin="round"/>
<path d="M27 47L31.3163 51.586L41 41" stroke="#1C3553" stroke-width="4" stroke-linecap="round" stroke-linejoin="round"/>
<path d="M56 76.0069V64C56 61.7909 57.7909 60 60 60H96C98.2091 60 100 61.7909 100 64V76.0069V128.029M56 76.0069H92M56 76.0069V134C56 136.209 57.7909 138 60 138H96C98.2091 138 100 136.209 100 134V128.029M100 128.029H64" stroke="#1C3553" stroke-width="4" stroke-linecap="round" stroke-linejoin="round"/>
<path d="M70 68H86" stroke="#1C3553" stroke-width="4" stroke-linecap="round" stroke-linejoin="round"/>
<path d="M68 98.1304V112H88V98.1304L78 90L68 98.1304Z" stroke="#1C3553" stroke-width="4" stroke-linecap="round" stroke-linejoin="round"/>
<circle cx="78" cy="32" r="18" stroke="#1C3553" stroke-width="4" stroke-linecap="round" stroke-linejoin="round"/>
<path d="M77.1359 23.4836C77.5216 22.8213 78.4784 22.8213 78.8641 23.4836L81.011 27.1696C81.1523 27.4122 81.3891 27.5843 81.6635 27.6437L85.8326 28.5465C86.5816 28.7087 86.8773 29.6186 86.3666 30.1901L83.5244 33.371C83.3374 33.5803 83.2469 33.8587 83.2752 34.138L83.7049 38.382C83.7821 39.1445 83.0081 39.7069 82.3067 39.3978L78.4032 37.6777C78.1463 37.5645 77.8537 37.5645 77.5968 37.6777L73.6933 39.3978C72.9919 39.7069 72.2179 39.1445 72.2951 38.382L72.7248 34.138C72.7531 33.8587 72.6626 33.5803 72.4756 33.371L69.6334 30.1901C69.1227 29.6186 69.4184 28.7087 70.1674 28.5465L74.3365 27.6437C74.6109 27.5843 74.8477 27.4122 74.989 27.1696L77.1359 23.4836Z" stroke="#1C3553" stroke-width="4" stroke-linecap="round" stroke-linejoin="round"/>
<circle cx="122" cy="46.677" r="18" stroke="#1C3553" stroke-width="4" stroke-linecap="round" stroke-linejoin="round"/>
<path d="M113 40H131V51H125L118 56V51H113V40Z" stroke="#1C3553" stroke-width="4" stroke-linecap="round" stroke-linejoin="round"/>
</svg>
