<svg width="156" height="156" viewBox="0 0 156 156" fill="none" xmlns="http://www.w3.org/2000/svg">
<path d="M56.9524 104.796L34.6051 121.78C33.9467 122.281 33 121.811 33 120.984V87.016C33 86.189 33.9467 85.7195 34.6051 86.2199L56.9524 103.204C57.479 103.604 57.479 104.396 56.9524 104.796Z" fill="#C2DDFF"/>
<path d="M99.0476 103.204L121.395 86.2199C122.053 85.7195 123 86.189 123 87.016L123 120.984C123 121.811 122.053 122.281 121.395 121.78L99.0476 104.796C98.521 104.396 98.521 103.604 99.0476 103.204Z" fill="#C2DDFF"/>
<path d="M68.7272 110.216L47.2535 127.216C46.5104 127.804 46.9264 129 47.8742 129H109.032C109.989 129 110.399 127.783 109.637 127.204L87.2682 110.204C87.0942 110.072 86.8817 110 86.6631 110H69.3479C69.1226 110 68.9039 110.076 68.7272 110.216Z" fill="#C2DDFF"/>
<path d="M100 37H114L98 22V35C98 36.1046 98.8954 37 100 37Z" fill="#C2DDFF"/>
<rect x="58" y="35" width="14" height="12" fill="#C2DDFF"/>
<rect x="58" y="75" width="14" height="12" fill="#C2DDFF"/>
<rect x="58" y="55" width="14" height="12" fill="#C2DDFF"/>
<path d="M27 73V104.25M27 73L67 104M27 73L41.5 59M27 135H78.25H129M27 135L67 104M27 135V112M129 135V73M129 135L89 104M129 73L89 104M129 73L115 59M89 104H67" stroke="#1C3553" stroke-width="4" stroke-linecap="round" stroke-linejoin="round"/>
<path d="M98 22V35C98 36.1046 98.8954 37 100 37H114M98 22L114 37M98 22H64M114 37V84M42 84V24C42 22.8954 42.8954 22 44 22H56" stroke="#1C3553" stroke-width="4" stroke-linecap="round" stroke-linejoin="round"/>
<rect x="58" y="35" width="14" height="12" stroke="#1C3553" stroke-width="4" stroke-linecap="round" stroke-linejoin="round"/>
<rect x="58" y="75" width="14" height="12" stroke="#1C3553" stroke-width="4" stroke-linecap="round" stroke-linejoin="round"/>
<rect x="58" y="55" width="14" height="12" stroke="#1C3553" stroke-width="4" stroke-linecap="round" stroke-linejoin="round"/>
<path d="M80 37H90" stroke="#1C3553" stroke-width="4" stroke-linecap="round" stroke-linejoin="round"/>
<path d="M80 45H97" stroke="#1C3553" stroke-width="4" stroke-linecap="round" stroke-linejoin="round"/>
<path d="M80 57H90" stroke="#1C3553" stroke-width="4" stroke-linecap="round" stroke-linejoin="round"/>
<path d="M80 65H97" stroke="#1C3553" stroke-width="4" stroke-linecap="round" stroke-linejoin="round"/>
<path d="M80 77H90" stroke="#1C3553" stroke-width="4" stroke-linecap="round" stroke-linejoin="round"/>
<path d="M80 85H97" stroke="#1C3553" stroke-width="4" stroke-linecap="round" stroke-linejoin="round"/>
</svg>
oke-linecap="round" stroke-linejoin="round"/>
<rect x="58" y="55" width="14" height="12" stroke="#1C3553" stroke-width="4" stroke-linecap="round" stroke-linejoin="round"/>
</svg>
