<svg width="156" height="156" viewBox="0 0 156 156" fill="none" xmlns="http://www.w3.org/2000/svg">
<path fill-rule="evenodd" clip-rule="evenodd" d="M78 124C103.405 124 124 103.405 124 78C124 52.5949 103.405 32 78 32C52.5949 32 32 52.5949 32 78C32 103.405 52.5949 124 78 124ZM54 68L79 44L104 68V79H76V106H54V68Z" fill="#C2DDFF"/>
<path d="M39.5417 43C31.1289 52.2387 26 64.5204 26 78C26 106.719 49.2812 130 78 130C106.719 130 130 106.719 130 78C130 49.2812 106.719 26 78 26C66.1586 26 55.2417 29.958 46.5 36.6232" stroke="#1C3553" stroke-width="4" stroke-linecap="round" stroke-linejoin="round"/>
<path d="M104 68.7049V77L76 106H58C55.7909 106 54 104.209 54 102V68.7049C54 67.6157 54.4442 66.5736 55.2299 65.8193L77.6149 44.3297C78.3889 43.5867 79.6111 43.5867 80.3851 44.3297L102.77 65.8193C103.556 66.5736 104 67.6157 104 68.7049Z" stroke="#1C3553" stroke-width="4" stroke-linecap="round" stroke-linejoin="round"/>
<path d="M104.001 79C105.105 79 106.001 78.1046 106.001 77C106.001 75.8954 105.105 75 104.001 75V79ZM74.0007 106C74.0007 107.105 74.8962 108 76.0007 108C77.1053 108 78.0007 107.105 78.0007 106H74.0007ZM78.0007 106V81H74.0007V106H78.0007ZM80.0007 79H104.001V75H80.0007V79ZM78.0007 81C78.0007 80.6505 78.1956 80.1335 78.6649 79.6642C79.1343 79.1949 79.6512 79 80.0007 79V75C78.3503 75 76.8672 75.8051 75.8365 76.8358C74.8058 77.8665 74.0007 79.3495 74.0007 81H78.0007Z" fill="#1C3553"/>
</svg>
