<svg width="156" height="156" viewBox="0 0 156 156" fill="none" xmlns="http://www.w3.org/2000/svg">
<path d="M19.6359 118.484C20.0216 117.821 20.9784 117.821 21.3641 118.484L23.6727 122.447C23.814 122.69 24.0508 122.862 24.3251 122.921L28.8081 123.892C29.5571 124.054 29.8528 124.964 29.3421 125.536L26.286 128.956C26.0989 129.165 26.0085 129.444 26.0367 129.723L26.4988 134.287C26.576 135.049 25.802 135.611 25.1006 135.302L20.9032 133.453C20.6463 133.339 20.3537 133.339 20.0968 133.453L15.8994 135.302C15.198 135.611 14.424 135.049 14.5012 134.287L14.9633 129.723C14.9915 129.444 14.9011 129.165 14.714 128.956L11.6579 125.536C11.1472 124.964 11.4429 124.054 12.1919 123.892L16.6749 122.921C16.9492 122.862 17.186 122.69 17.3273 122.447L19.6359 118.484Z" fill="#C2DDFF"/>
<path d="M48.6359 118.484C49.0216 117.821 49.9784 117.821 50.3641 118.484L52.6727 122.447C52.814 122.69 53.0508 122.862 53.3251 122.921L57.8081 123.892C58.5571 124.054 58.8528 124.964 58.3421 125.536L55.286 128.956C55.0989 129.165 55.0085 129.444 55.0367 129.723L55.4988 134.287C55.576 135.049 54.802 135.611 54.1006 135.302L49.9032 133.453C49.6463 133.339 49.3537 133.339 49.0968 133.453L44.8994 135.302C44.198 135.611 43.424 135.049 43.5012 134.287L43.9633 129.723C43.9915 129.444 43.9011 129.165 43.714 128.956L40.6579 125.536C40.1472 124.964 40.4429 124.054 41.1919 123.892L45.6749 122.921C45.9492 122.862 46.186 122.69 46.3273 122.447L48.6359 118.484Z" stroke="#1C3553" stroke-width="4" stroke-linecap="round" stroke-linejoin="round"/>
<path d="M77.6359 118.484C78.0216 117.821 78.9784 117.821 79.3641 118.484L81.6727 122.447C81.814 122.69 82.0508 122.862 82.3251 122.921L86.8081 123.892C87.5571 124.054 87.8528 124.964 87.3421 125.536L84.286 128.956C84.0989 129.165 84.0085 129.444 84.0367 129.723L84.4988 134.287C84.576 135.049 83.802 135.611 83.1006 135.302L78.9032 133.453C78.6463 133.339 78.3537 133.339 78.0968 133.453L73.8994 135.302C73.198 135.611 72.424 135.049 72.5012 134.287L72.9633 129.723C72.9915 129.444 72.9011 129.165 72.714 128.956L69.6579 125.536C69.1472 124.964 69.4429 124.054 70.1919 123.892L74.6749 122.921C74.9492 122.862 75.186 122.69 75.3273 122.447L77.6359 118.484Z" stroke="#1C3553" stroke-width="4" stroke-linecap="round" stroke-linejoin="round"/>
<path d="M106.636 118.484C107.022 117.821 107.978 117.821 108.364 118.484L110.673 122.447C110.814 122.69 111.051 122.862 111.325 122.921L115.808 123.892C116.557 124.054 116.853 124.964 116.342 125.536L113.286 128.956C113.099 129.165 113.008 129.444 113.037 129.723L113.499 134.287C113.576 135.049 112.802 135.611 112.101 135.302L107.903 133.453C107.646 133.339 107.354 133.339 107.097 133.453L102.899 135.302C102.198 135.611 101.424 135.049 101.501 134.287L101.963 129.723C101.992 129.444 101.901 129.165 101.714 128.956L98.6579 125.536C98.1472 124.964 98.4429 124.054 99.1919 123.892L103.675 122.921C103.949 122.862 104.186 122.69 104.327 122.447L106.636 118.484Z" stroke="#1C3553" stroke-width="4" stroke-linecap="round" stroke-linejoin="round"/>
<path d="M134.636 118.484C135.022 117.821 135.978 117.821 136.364 118.484L138.673 122.447C138.814 122.69 139.051 122.862 139.325 122.921L143.808 123.892C144.557 124.054 144.853 124.964 144.342 125.536L141.286 128.956C141.099 129.165 141.008 129.444 141.037 129.723L141.499 134.287C141.576 135.049 140.802 135.611 140.101 135.302L135.903 133.453C135.646 133.339 135.354 133.339 135.097 133.453L130.899 135.302C130.198 135.611 129.424 135.049 129.501 134.287L129.963 129.723C129.992 129.444 129.901 129.165 129.714 128.956L126.658 125.536C126.147 124.964 126.443 124.054 127.192 123.892L131.675 122.921C131.949 122.862 132.186 122.69 132.327 122.447L134.636 118.484Z" stroke="#1C3553" stroke-width="4" stroke-linecap="round" stroke-linejoin="round"/>
<path d="M19.6359 118.484C20.0216 117.821 20.9784 117.821 21.3641 118.484L23.6727 122.447C23.814 122.69 24.0508 122.862 24.3251 122.921L28.8081 123.892C29.5571 124.054 29.8528 124.964 29.3421 125.536L26.286 128.956C26.0989 129.165 26.0085 129.444 26.0367 129.723L26.4988 134.287C26.576 135.049 25.802 135.611 25.1006 135.302L20.9032 133.453C20.6463 133.339 20.3537 133.339 20.0968 133.453L15.8994 135.302C15.198 135.611 14.424 135.049 14.5012 134.287L14.9633 129.723C14.9915 129.444 14.9011 129.165 14.714 128.956L11.6579 125.536C11.1472 124.964 11.4429 124.054 12.1919 123.892L16.6749 122.921C16.9492 122.862 17.186 122.69 17.3273 122.447L19.6359 118.484Z" stroke="#1C3553" stroke-width="4" stroke-linecap="round" stroke-linejoin="round"/>
<path fill-rule="evenodd" clip-rule="evenodd" d="M107.55 110.55C118.195 101.934 125 88.7616 125 74C125 48.0426 103.957 27 78 27C52.0426 27 31 48.0426 31 74C31 88.3444 37.426 101.188 47.5564 109.809L52 106L47 100L44 91L46 77L55 56L66 42L73 39H81L88 42L99 56L106 71L110 84L109 96L102 105L107.55 110.55Z" fill="#C2DDFF"/>
<path d="M117.346 108C125.23 98.8838 130 86.9989 130 74C130 45.2812 106.719 22 78 22C62.2801 22 48.1894 28.9755 38.6543 40M38.6543 108C30.7696 98.8838 26 86.9989 26 74C26 64.5285 28.5323 55.6485 32.9567 48" stroke="#1C3553" stroke-width="4" stroke-linecap="round" stroke-linejoin="round"/>
<path d="M68 91V100C63.4721 100.694 55 103 48 110" stroke="#1C3553" stroke-width="4" stroke-linecap="round" stroke-linejoin="round"/>
<path d="M86 91V100C90.5279 100.694 100 103 106 110" stroke="#1C3553" stroke-width="4" stroke-linecap="round" stroke-linejoin="round"/>
<path d="M58 104C73.0085 111.998 80.0322 111.996 96 103.998" stroke="#1C3553" stroke-width="4" stroke-linecap="round" stroke-linejoin="round"/>
<path d="M60.9459 61C60.0428 63.8424 59 66.4791 59 69.7568C59 82.922 67.0649 94 77 94C86.9351 94 95 82.922 95 69.7568C95 66.4791 93.9572 63.8424 93.0541 61" stroke="#1C3553" stroke-width="4" stroke-linecap="round" stroke-linejoin="round"/>
<path d="M101.247 105C101.247 105 121.048 98 101.086 60C91.1058 41.0002 84.236 39.0002 76.9999 39C69.7638 38.9998 62.8945 40.9998 52.9136 60C32.952 98.0001 52.7531 105 52.7531 105" stroke="#1C3553" stroke-width="4" stroke-linecap="round" stroke-linejoin="round"/>
<path d="M61 61H82.9764V55C84.8086 57 88.2029 61 93 61" stroke="#1C3553" stroke-width="4" stroke-linecap="round" stroke-linejoin="round"/>
</svg>
