<svg width="156" height="156" viewBox="0 0 156 156" fill="none" xmlns="http://www.w3.org/2000/svg">
<path fill-rule="evenodd" clip-rule="evenodd" d="M123.62 78.0001C124.506 78.0001 124.955 76.9332 124.335 76.3003L79.4438 30.474C78.6537 29.6675 77.3532 29.6743 76.5717 30.4891L32.6231 76.3078C32.0133 76.9436 32.4639 78.0001 33.3448 78.0001H40.9999C42.1045 78.0001 42.9999 78.8955 42.9999 80.0001V133C42.9999 133.552 43.4476 134 43.9999 134H112C112.552 134 113 133.552 113 133V80.0001C113 78.8955 113.895 78.0001 115 78.0001H123.62ZM101 106H87V134H101V106ZM69 84H55V98H69V84Z" fill="#C2DDFF"/>
<path d="M119 112V134H37V85C37 84.4477 36.5523 84 36 84H19.8284C18.0466 84 17.1543 81.8457 18.4142 80.5858L36.7071 62.2929C36.8946 62.1054 37 61.851 37 61.5858V38C37 37.4477 37.4477 37 38 37H52C52.5523 37 53 37.4477 53 38V43.5054C53 44.4057 54.0965 44.8475 54.7207 44.1987L75.1503 22.9623C76.7114 21.3395 79.3039 21.3246 80.8836 22.9293L137.65 80.597C138.895 81.8614 137.999 84 136.225 84H120C119.448 84 119 84.4477 119 85V104" stroke="#1C3553" stroke-width="4" stroke-linecap="round" stroke-linejoin="round"/>
<path d="M28 134H128" stroke="#1C3553" stroke-width="4" stroke-linecap="round" stroke-linejoin="round"/>
<path d="M101 106H87V134H101V106Z" stroke="#1C3553" stroke-width="4" stroke-linecap="round" stroke-linejoin="round"/>
<rect x="55" y="84" width="14" height="14" stroke="#1C3553" stroke-width="4" stroke-linecap="round" stroke-linejoin="round"/>
</svg>
