<svg width="156" height="156" viewBox="0 0 156 156" fill="none" xmlns="http://www.w3.org/2000/svg">
<rect x="23" y="110" width="111" height="20" rx="2" fill="#C2DDFF"/>
<rect x="102" y="24" width="32" height="32" rx="2" fill="#C2DDFF"/>
<path d="M140 104V132C140 134.209 138.209 136 136 136H106M17 104V132C17 134.209 18.7909 136 21 136H98" stroke="#1C3553" stroke-width="4" stroke-linecap="round" stroke-linejoin="round"/>
<path d="M63 104L107 104" stroke="#1C3553" stroke-width="4" stroke-linecap="round" stroke-linejoin="round"/>
<path d="M132.5 91H125" stroke="#1C3553" stroke-width="4" stroke-linecap="round" stroke-linejoin="round"/>
<path d="M65 63L69 83" stroke="#1C3553" stroke-width="4" stroke-linecap="round" stroke-linejoin="round"/>
<path d="M83 91H77" stroke="#1C3553" stroke-width="4" stroke-linecap="round" stroke-linejoin="round"/>
<path d="M33 91H27" stroke="#1C3553" stroke-width="4" stroke-linecap="round" stroke-linejoin="round"/>
<path fill-rule="evenodd" clip-rule="evenodd" d="M46 112C41.5824 112 38 108.418 38 104C38 99.5824 41.5824 96 46 96C50.4176 96 54 99.5824 54 104C54 108.418 50.4176 112 46 112Z" stroke="#1C3553" stroke-width="4" stroke-linecap="round" stroke-linejoin="round"/>
<path fill-rule="evenodd" clip-rule="evenodd" d="M115 112C110.582 112 107 108.418 107 104C107 99.5824 110.582 96 115 96C119.418 96 123 99.5824 123 104C123 108.418 119.418 112 115 112Z" stroke="#1C3553" stroke-width="4" stroke-linecap="round" stroke-linejoin="round"/>
<path d="M28 83H41M110 77L104 83H41M41 83V63" stroke="#1C3553" stroke-width="4" stroke-linecap="round" stroke-linejoin="round"/>
<path d="M132 104C132 104 141.872 81.9044 109.858 76.9929C85.7674 63.7702 80.378 63 80.378 63H31.9914L33 67C33 67 27 73.1497 27 80.4269V89.2533V104L30 104" stroke="#1C3553" stroke-width="4" stroke-linecap="round" stroke-linejoin="round"/>
<path d="M96 49V60C96 61.1046 96.8954 62 98 62H138C139.105 62 140 61.1046 140 60V20C140 18.8954 139.105 18 138 18H98C96.8954 18 96 18.8954 96 20V41" stroke="#1C3553" stroke-width="4" stroke-linecap="round" stroke-linejoin="round"/>
<path d="M113 50V41.7675M113 41.7675V31.0496C116.143 31.0496 124 30.1177 124 36.3309C124 42.5442 116.143 41.7675 113 41.7675Z" stroke="#1C3553" stroke-width="4" stroke-linecap="round" stroke-linejoin="round"/>
</svg>
