<svg width="156" height="156" viewBox="0 0 156 156" fill="none" xmlns="http://www.w3.org/2000/svg">
<path fill-rule="evenodd" clip-rule="evenodd" d="M49 84V97C49 99.7614 51.2386 102 54 102H102C104.209 102 106 100.209 106 98V84H130C131.105 84 132 84.8954 132 86V127C132 128.105 131.105 129 130 129H25C23.8954 129 23 128.105 23 127V86C23 84.8954 23.8954 84 25 84H49Z" fill="#C2DDFF"/>
<path d="M41 78H21C18.7909 78 17 79.7909 17 82L17 130.467C17 132.648 18.7472 134.427 20.9279 134.467L39.3279 134.799L63.8939 135H98M106 135H134C136.209 135 138 133.209 138 131V82C138 79.7909 136.209 78 134 78H115" stroke="#1C3553" stroke-width="4" stroke-linecap="round" stroke-linejoin="round"/>
<path d="M37.6289 67H48C48.5523 67 49 67.4477 49 68V98C49 100.209 50.7909 102 53 102H103C105.209 102 107 100.209 107 98V68C107 67.4477 107.448 67 108 67H118.316C120.077 67 120.979 64.8888 119.761 63.6169L80.9046 23.0336C79.3238 21.3827 76.6835 21.3897 75.1115 23.049L61.726 37.1782C61.1042 37.8344 60 37.3944 60 36.4904V33C60 32.4477 59.5523 32 59 32H50C49.4477 32 49 32.4477 49 33V49.6034C49 49.8582 48.9028 50.1033 48.7282 50.2888L36.1725 63.6293C34.9712 64.9056 35.8761 67 37.6289 67Z" stroke="#1C3553" stroke-width="4" stroke-linecap="round" stroke-linejoin="round"/>
<path d="M77.9999 60C68.5194 50.2256 61.9437 61.1353 67 67C72.0563 72.8647 77.9999 78 77.9999 78C77.9999 78 83.9436 72.8645 88.9999 66.9999C94.0562 61.1353 87.4805 50.2256 77.9999 60Z" stroke="#1C3553" stroke-width="4" stroke-linecap="round" stroke-linejoin="round"/>
</svg>
