<svg width="156" height="156" viewBox="0 0 156 156" fill="none" xmlns="http://www.w3.org/2000/svg">
<circle cx="48" cy="54" r="9" fill="#C2DDFF"/>
<rect x="37" y="77" width="21" height="27" rx="2" fill="#C2DDFF"/>
<circle cx="108" cy="54" r="9" fill="#C2DDFF"/>
<rect x="97" y="77" width="21" height="27" rx="2" fill="#C2DDFF"/>
<path fill-rule="evenodd" clip-rule="evenodd" d="M96 11C97.1046 11 98 11.8954 98 13V38C98 39.1046 97.1046 40 96 40H78.7675C78.2734 40 77.7968 40.1829 77.4295 40.5134L68 49V42C68 40.8954 67.1046 40 66 40H60C58.8954 40 58 39.1046 58 38V13C58 11.8954 58.8954 11 60 11H96ZM72 32V23.7273L78 19L84 23.7273V32H72Z" fill="#C2DDFF"/>
<circle cx="48" cy="54" r="9" stroke="#1C3553" stroke-width="4" stroke-linecap="round" stroke-linejoin="round"/>
<path d="M60 110V108C58.8954 108 58 108.895 58 110H60ZM52 110H54C54 108.895 53.1046 108 52 108V110ZM44 110V108C42.8954 108 42 108.895 42 110H44ZM36 110H38C38 108.895 37.1046 108 36 108V110ZM29 90C29 91.1046 29.8954 92 31 92C32.1046 92 33 91.1046 33 90H29ZM33 98C33 96.8954 32.1046 96 31 96C29.8954 96 29 96.8954 29 98H33ZM58 110V142H62V110H58ZM58 142H54V146H58V142ZM54 142V110H50V142H54ZM52 108H44V112H52V108ZM42 110V142H46V110H42ZM42 142H38V146H42V142ZM38 142V110H34V142H38ZM36 108H35V112H36V108ZM35 73H61V69H35V73ZM63 75V106H67V75H63ZM61 108H60V112H61V108ZM33 90V75H29V90H33ZM33 106V98H29V106H33ZM63 106C63 107.105 62.1046 108 61 108V112C64.3137 112 67 109.314 67 106H63ZM61 73C62.1046 73 63 73.8954 63 75H67C67 71.6863 64.3137 69 61 69V73ZM35 69C31.6863 69 29 71.6863 29 75H33C33 73.8954 33.8954 73 35 73V69ZM35 108C33.8954 108 33 107.105 33 106H29C29 109.314 31.6863 112 35 112V108ZM42 142V146C44.2091 146 46 144.209 46 142H42ZM54 142H50C50 144.209 51.7909 146 54 146V142ZM38 142H34C34 144.209 35.7909 146 38 146V142ZM58 142V146C60.2091 146 62 144.209 62 142H58Z" fill="#1C3553"/>
<circle cx="108" cy="54" r="9" stroke="#1C3553" stroke-width="4" stroke-linecap="round" stroke-linejoin="round"/>
<path d="M120 110V108C118.895 108 118 108.895 118 110H120ZM112 110H114C114 108.895 113.105 108 112 108V110ZM104 110V108C102.895 108 102 108.895 102 110H104ZM96 110H98C98 108.895 97.1046 108 96 108V110ZM123 90C123 91.1046 123.895 92 125 92C126.105 92 127 91.1046 127 90H123ZM127 98C127 96.8954 126.105 96 125 96C123.895 96 123 96.8954 123 98H127ZM118 110V142H122V110H118ZM118 142H114V146H118V142ZM114 142V110H110V142H114ZM112 108H104V112H112V108ZM102 110V142H106V110H102ZM102 142H98V146H102V142ZM98 142V110H94V142H98ZM96 108H95V112H96V108ZM93 106V75H89V106H93ZM95 73H121V69H95V73ZM121 108H120V112H121V108ZM123 75V90H127V75H123ZM123 98V106H127V98H123ZM121 112C124.314 112 127 109.314 127 106H123C123 107.105 122.105 108 121 108V112ZM121 73C122.105 73 123 73.8954 123 75H127C127 71.6863 124.314 69 121 69V73ZM93 75C93 73.8954 93.8954 73 95 73V69C91.6863 69 89 71.6863 89 75H93ZM95 108C93.8954 108 93 107.105 93 106H89C89 109.314 91.6863 112 95 112V108ZM102 142V146C104.209 146 106 144.209 106 142H102ZM114 142H110C110 144.209 111.791 146 114 146V142ZM98 142H94C94 144.209 95.7909 146 98 146V142ZM118 142V146C120.209 146 122 144.209 122 142H118Z" fill="#1C3553"/>
<path d="M68 49L69.3379 50.4866C68.7509 51.0149 67.9078 51.1483 67.1863 50.827C66.4648 50.5057 66 49.7898 66 49H68ZM77.4295 40.5134L78.7675 42L77.4295 40.5134ZM96 13H60V9H96V13ZM60 13V38H56V13H60ZM96 38V13H100V38H96ZM78.7675 38H96V42H78.7675V38ZM60 38H66V42H60V38ZM70 42V49H66V42H70ZM66.6621 47.5134L76.0916 39.0268L78.7675 42L69.3379 50.4866L66.6621 47.5134ZM66 38C68.2091 38 70 39.7909 70 42H66V38ZM78.7675 42L76.0916 39.0268C76.8261 38.3658 77.7793 38 78.7675 38V42ZM100 38C100 40.2091 98.2091 42 96 42V38H96H100ZM60 38V42C57.7909 42 56 40.2091 56 38H60ZM60 13H56C56 10.7909 57.7909 9 60 9V13ZM96 9C98.2091 9 100 10.7909 100 13H96V13V9Z" fill="#1C3553"/>
<path d="M72 23.7273V32H84V23.7273L78 19L72 23.7273Z" stroke="#1C3553" stroke-width="4" stroke-linecap="round" stroke-linejoin="round"/>
</svg>
