<svg width="156" height="156" viewBox="0 0 156 156" fill="none" xmlns="http://www.w3.org/2000/svg">
<path d="M18 78V135C18 136.105 18.8954 137 20 137H24C25.1046 137 26 136.105 26 135V86H69L75 82L69 78H18Z" fill="#C2DDFF"/>
<rect x="40" y="100" width="22" height="6" rx="1" fill="#C2DDFF"/>
<path d="M137 65H113L90.0001 53.1026L67 65H51M137 65L113.5 33H66.5001L43 65H51M137 65H129V129C129 130.105 128.105 131 127 131H54C52.8954 131 52 130.105 52 129V120M51 65V70" stroke="#1C3553" stroke-width="4" stroke-linecap="round" stroke-linejoin="round"/>
<path d="M96 131V104H84V131" stroke="#1C3553" stroke-width="4" stroke-linecap="round" stroke-linejoin="round"/>
<rect x="108" y="104" width="10" height="10" stroke="#1C3553" stroke-width="4" stroke-linecap="round" stroke-linejoin="round"/>
<rect x="108" y="78" width="10" height="10" stroke="#1C3553" stroke-width="4" stroke-linecap="round" stroke-linejoin="round"/>
<path d="M84 75.5C84 75.5 86.3399 68 90 68C93.6601 68 96 75.5 96 75.5V88H84V75.5Z" stroke="#1C3553" stroke-width="4" stroke-linecap="round" stroke-linejoin="round"/>
<path d="M40 94H34V112H68V94H62M40 94V86M40 94H62M62 94V86" stroke="#1C3553" stroke-width="4" stroke-linecap="round" stroke-linejoin="round"/>
<path d="M18 78V135C18 136.105 18.8954 137 20 137H24C25.1046 137 26 136.105 26 135V86H69L75 82L69 78H18Z" stroke="#1C3553" stroke-width="4" stroke-linecap="round" stroke-linejoin="round"/>
</svg>
