<svg width="156" height="156" viewBox="0 0 156 156" fill="none" xmlns="http://www.w3.org/2000/svg">
<path fill-rule="evenodd" clip-rule="evenodd" d="M81.4889 81.3345C94.3762 68.4472 94.3762 47.5528 81.4889 34.6655C68.6016 21.7782 47.7072 21.7782 34.8199 34.6655C21.9326 47.5528 21.9326 68.4472 34.8199 81.3345C47.7072 94.2218 68.6016 94.2218 81.4889 81.3345ZM44 72L44 51.8261L58 41L72 51.8261V72L44 72Z" fill="#C2DDFF"/>
<path d="M94.2167 102.548L117.551 125.882C119.113 127.444 121.646 127.444 123.208 125.882L126.037 123.054C127.599 121.492 127.599 118.959 126.037 117.397L102.702 94.0622C101.921 93.2812 100.655 93.2812 99.8736 94.0622L94.2167 99.7191C93.4357 100.5 93.4357 101.766 94.2167 102.548Z" fill="#C2DDFF"/>
<circle cx="58.1566" cy="58" r="39.0016" transform="rotate(-45 58.1566 58)" stroke="#1C3553" stroke-width="4"/>
<path d="M44 51V71H72V51L58 40L44 51Z" stroke="#1C3553" stroke-width="4" stroke-linecap="round" stroke-linejoin="round"/>
<path d="M94.2167 102.548L118.258 126.589C119.82 128.151 122.353 128.151 123.915 126.589L126.744 123.761C128.306 122.199 128.306 119.666 126.744 118.104L102.702 94.0622C101.921 93.2812 100.655 93.2812 99.8736 94.0622L94.2167 99.7191C93.4357 100.5 93.4357 101.766 94.2167 102.548Z" stroke="#1C3553" stroke-width="4" stroke-linecap="round" stroke-linejoin="round"/>
<path d="M87.1458 95.4766L95.631 86.9913" stroke="#1C3553" stroke-width="4" stroke-linecap="round" stroke-linejoin="round"/>
</svg>
