<svg width="156" height="156" viewBox="0 0 156 156" fill="none" xmlns="http://www.w3.org/2000/svg">
<path fill-rule="evenodd" clip-rule="evenodd" d="M34 32C32.8954 32 32 32.8954 32 34V54C32 55.1046 32.8954 56 34 56H66C67.1046 56 68 55.1046 68 54V34C68 32.8954 67.1046 32 66 32H34ZM62 38H38V50H62V38Z" fill="#C2DDFF"/>
<path fill-rule="evenodd" clip-rule="evenodd" d="M34 68C32.8954 68 32 68.8954 32 70V90C32 91.1046 32.8954 92 34 92H94C95.1046 92 96 91.1046 96 90V70C96 68.8954 95.1046 68 94 68H34ZM90 74H38V86H90V74Z" fill="#C2DDFF"/>
<path fill-rule="evenodd" clip-rule="evenodd" d="M46.5 104H122C123.105 104 124 104.895 124 106V132C124 133.105 123.105 134 122 134H118V110H104V134H68.0557C67.3951 134 66.7771 133.674 66.4044 133.128L46.5 104ZM90 110H76V124H90V110Z" fill="#C2DDFF"/>
<path d="M138 134H66.983L42.4068 98H18" stroke="#1C3553" stroke-width="4" stroke-linecap="round" stroke-linejoin="round"/>
<path d="M52 98H126C128.209 98 130 99.7909 130 102V134H67" stroke="#1C3553" stroke-width="4" stroke-linecap="round" stroke-linejoin="round"/>
<path d="M26 62V98M102 98V66C102 63.7909 100.209 62 98 62H34" stroke="#1C3553" stroke-width="4" stroke-linecap="round" stroke-linejoin="round"/>
<path d="M74 62V30C74 27.7909 72.2091 26 70 26H46M26 62V30C26 27.7909 27.7909 26 30 26H38" stroke="#1C3553" stroke-width="4" stroke-linecap="round" stroke-linejoin="round"/>
<path d="M102 78V96" stroke="#1C3553" stroke-width="4" stroke-linecap="round" stroke-linejoin="round"/>
<path d="M114 78V96" stroke="#1C3553" stroke-width="4" stroke-linecap="round" stroke-linejoin="round"/>
<path d="M126 78V96" stroke="#1C3553" stroke-width="4" stroke-linecap="round" stroke-linejoin="round"/>
<path d="M102 78H130" stroke="#1C3553" stroke-width="4" stroke-linecap="round" stroke-linejoin="round"/>
<path d="M74 44V62" stroke="#1C3553" stroke-width="4" stroke-linecap="round" stroke-linejoin="round"/>
<path d="M86 44V62" stroke="#1C3553" stroke-width="4" stroke-linecap="round" stroke-linejoin="round"/>
<path d="M98 44V62" stroke="#1C3553" stroke-width="4" stroke-linecap="round" stroke-linejoin="round"/>
<path d="M74 44L102 44" stroke="#1C3553" stroke-width="4" stroke-linecap="round" stroke-linejoin="round"/>
<path d="M64 74V86" stroke="#1C3553" stroke-width="4" stroke-linecap="round" stroke-linejoin="round"/>
<path d="M116 110H102V134H116V110Z" stroke="#1C3553" stroke-width="4" stroke-linecap="round" stroke-linejoin="round"/>
<rect x="76" y="110" width="14" height="14" stroke="#1C3553" stroke-width="4" stroke-linecap="round" stroke-linejoin="round"/>
<rect x="38" y="74" width="52" height="12" stroke="#1C3553" stroke-width="4" stroke-linecap="round" stroke-linejoin="round"/>
<rect x="38" y="38" width="24" height="12" stroke="#1C3553" stroke-width="4" stroke-linecap="round" stroke-linejoin="round"/>
</svg>
