<svg width="156" height="156" viewBox="0 0 156 156" fill="none" xmlns="http://www.w3.org/2000/svg">
<circle cx="78" cy="82.0002" r="6" fill="#C2DDFF"/>
<circle cx="78" cy="82" r="40" stroke="#1C3553" stroke-width="4" stroke-linecap="round" stroke-linejoin="round"/>
<path d="M78 60V76" stroke="#1C3553" stroke-width="4" stroke-linecap="round" stroke-linejoin="round"/>
<circle cx="36" cy="42" r="2" fill="#1C3553"/>
<path d="M36 34V22" stroke="#1C3553" stroke-width="4" stroke-linecap="round" stroke-linejoin="round"/>
<circle cx="78" cy="82.0002" r="6" fill="#C2DDFF" stroke="#1C3553" stroke-width="4" stroke-linecap="round" stroke-linejoin="round"/>
<path d="M72 29.4V29.4C69.7909 29.4 68 27.6091 68 25.4V23H88V25.4C88 27.6091 86.2091 29.4 84 29.4V29.4" stroke="#1C3553" stroke-width="4" stroke-linecap="round" stroke-linejoin="round"/>
<path d="M74 29.3999C74 28.2953 73.1046 27.3999 72 27.3999C70.8954 27.3999 70 28.2953 70 29.3999H74ZM70 33.3999C70 34.5045 70.8954 35.3999 72 35.3999C73.1046 35.3999 74 34.5045 74 33.3999H70ZM70 29.3999V33.3999H74V29.3999H70Z" fill="#1C3553"/>
<path d="M84 29.3999V33.3999" stroke="#1C3553" stroke-width="4" stroke-linecap="round" stroke-linejoin="round"/>
<path d="M32.7856 98.1264C29.6132 89.2566 29.0131 79.3644 31.6357 69.5765C38.4969 43.9701 64.8171 28.7741 90.4235 35.6354C116.03 42.4966 131.226 68.8167 124.365 94.4231C117.503 120.029 91.1832 135.225 65.5768 128.364C53.7021 125.182 44.0661 117.816 37.8306 108.276" stroke="#1C3553" stroke-width="4" stroke-linecap="round" stroke-linejoin="round"/>
<path d="M114.656 49.3137L117.485 46.4853C119.047 44.9232 119.047 42.3905 117.485 40.8284V40.8284C115.923 39.2663 113.39 39.2663 111.828 40.8284L108.999 43.6569" stroke="#1C3553" stroke-width="4" stroke-linecap="round" stroke-linejoin="round"/>
</svg>
