<svg width="96" height="96" viewBox="0 0 96 96" fill="none" xmlns="http://www.w3.org/2000/svg">
<path fill-rule="evenodd" clip-rule="evenodd" d="M48.3981 23.3831C49.4771 23.2484 50.3502 23.8119 51.0315 24.4521C51.7578 25.1339 54.0081 27.245 56.9795 30.0326C65.2209 37.7642 79.0093 50.6997 81.2128 52.7753L81.2143 52.7767L81.2256 52.7874C81.461 53.0096 81.8891 53.4138 82.156 53.9534C82.4845 54.6173 82.5323 55.3856 82.1944 56.1716L82.1938 56.173C81.8828 56.8944 81.3589 57.3881 80.7135 57.6561C80.1413 57.8937 79.5579 57.9169 79.1527 57.9141M73.0778 54.9132C75.086 54.9033 77.0962 54.9012 79.1078 54.9138C76.7612 52.7042 63.1152 39.9023 54.9314 32.2247C51.9574 29.4347 49.7048 27.3214 48.9777 26.6389C48.8587 26.5271 48.7671 26.4536 48.7002 26.407C48.6881 26.3985 48.6772 26.3912 48.6674 26.3849C48.4893 26.4174 48.3067 26.4174 48.1285 26.3848C48.1186 26.3911 48.1076 26.3985 48.0954 26.407C48.0286 26.4536 47.9376 26.5265 47.8185 26.6384C47.0912 27.3211 44.8367 29.4362 41.8612 32.2276C33.677 39.9056 20.0341 52.7045 17.6879 54.9138C19.6988 54.9012 21.7094 54.9033 23.7179 54.9132M26.9948 57.4269C26.9061 56.8522 26.6926 56.2544 26.2089 55.7687C25.4832 55.0398 24.5005 54.9167 23.7179 54.9132M17.644 57.9141C17.2386 57.9169 16.6547 57.8938 16.0824 57.6561C15.4366 57.3878 14.9126 56.8936 14.6022 56.1714L15.9803 55.5792L14.6029 56.1731C14.2641 55.3873 14.311 54.6185 14.6395 53.9539C14.9063 53.4141 15.3347 53.0096 15.57 52.7874L15.5829 52.7753C17.7867 50.6994 31.5789 37.7603 39.8199 30.0291C42.7894 27.2433 45.0381 25.1337 45.7642 24.4521C46.4462 23.8113 47.3191 23.2485 48.3981 23.3831M17.644 57.9141C17.6437 57.9141 17.6443 57.9141 17.644 57.9141V57.9141Z" fill="#1895FF"/>
<path fill-rule="evenodd" clip-rule="evenodd" d="M42 49.0999C42 48.5476 42.4477 48.0999 43 48.0999H48.54C49.0923 48.0999 49.54 48.5476 49.54 49.0999V59.7035C49.54 60.2558 49.0923 60.7035 48.54 60.7035H43C42.4477 60.7035 42 60.2558 42 59.7035V49.0999ZM44 50.0999V58.7035H47.54V50.0999H44Z" fill="#1C3553"/>
<path fill-rule="evenodd" clip-rule="evenodd" d="M24.2977 42.1056C24.2977 42.1056 24.2837 36.8526 24.2887 32.9786C24.2897 31.9306 24.7057 31.5146 25.7547 31.5086C27.3227 31.5006 28.8907 31.4986 30.4587 31.5096C31.4867 31.5166 31.9087 31.9586 31.9167 33.0046C31.9237 33.9036 31.8977 33.8586 31.9267 34.7566L24.2977 42.1056Z" fill="#1C3553"/>
<path fill-rule="evenodd" clip-rule="evenodd" d="M48.536 29.7441C49.4491 29.6302 50.192 30.0966 50.7813 30.6395L50.782 30.6401C51.5336 31.3335 54.1852 33.7774 57.5328 36.8628C64.6876 43.4572 75.0219 52.9821 76.7809 54.61C77.2963 55.087 77.3274 55.8915 76.8505 56.4069C76.3735 56.9222 75.569 56.9534 75.0536 56.4764C73.2965 54.8502 62.9741 45.3363 55.8201 38.7426C52.4689 35.654 49.813 33.206 49.0583 32.5098C48.9554 32.415 48.8763 32.3528 48.8177 32.3127C48.8017 32.3017 48.7879 32.2929 48.7763 32.2859C48.6175 32.3164 48.4542 32.3164 48.2954 32.2857C48.2837 32.2928 48.2699 32.3017 48.2537 32.3127C48.1951 32.3528 48.116 32.415 48.0131 32.5098C47.2379 33.225 44.456 35.7891 40.9752 38.9973C33.8348 45.5787 23.753 54.8711 22.0176 56.4766C21.5021 56.9534 20.6976 56.9222 20.2208 56.4067C19.7439 55.8912 19.7752 55.0867 20.2907 54.6099C22.0279 53.0028 32.1216 43.6993 39.2631 37.117C42.7401 33.9122 45.5173 31.3525 46.2894 30.6401L46.2901 30.6395C46.8801 30.0959 47.6228 29.6303 48.536 29.7441Z" fill="#1C3553"/>
</svg>
