<svg width="96" height="96" viewBox="0 0 96 96" fill="none" xmlns="http://www.w3.org/2000/svg">
<path fill-rule="evenodd" clip-rule="evenodd" d="M51.8663 19.6309C51.2261 19.0568 50.332 18.4753 49.1825 18.539L51.8663 19.6309ZM16.8428 49.3409C16.4314 48.4314 16.4859 47.5074 16.893 46.7216C17.203 46.1233 17.6851 45.6906 17.9076 45.4908C17.9153 45.4839 17.9227 45.4773 17.9297 45.471L17.931 45.4698C18.7574 44.7277 23.7435 40.2144 29.3381 35.1503C36.7105 28.4769 45.1395 20.847 46.4991 19.6301L46.4997 19.6296C47.1384 19.0583 48.0329 18.4752 49.1825 18.539M78.1088 51.2769C78.1093 51.2769 78.1098 51.2769 78.1103 51.2769L78.1216 49.2769L78.1078 51.2769C78.1081 51.2769 78.1085 51.2769 78.1088 51.2769ZM49.1662 22.6112C47.7907 23.8424 39.4707 31.3736 32.1417 38.0079C27.8689 41.8757 23.9329 45.4386 21.9061 47.2705C23.2895 47.2674 24.6719 47.2698 26.0529 47.2754L26.0543 47.2754C27.3565 47.2816 71.008 47.2816 72.3118 47.2754L72.3132 47.2754C73.6939 47.2698 75.0759 47.2674 76.4588 47.2704C74.5177 45.5156 70.8218 42.1702 66.7561 38.49C59.3 31.7409 50.6001 23.8658 49.1977 22.6106L49.196 22.6091C49.1913 22.6049 49.1868 22.6008 49.1823 22.5969M77.9784 48.6545C77.9785 48.6547 77.9777 48.6538 77.9763 48.652L77.9784 48.6545ZM20.3869 48.6545C20.3869 48.6545 20.3875 48.6536 20.389 48.6519L20.3869 48.6545Z" fill="#1895FF"/>
<path fill-rule="evenodd" clip-rule="evenodd" d="M24 50.9238C24.0053 49.8193 24.905 48.9281 26.0095 48.9334C26.7769 48.937 27.8954 49.0447 28.7534 49.8674C29.6384 50.7159 29.7572 51.8463 29.7572 52.6134M24 50.9238C23.9951 51.9495 24.7632 52.7985 25.7573 52.9188L24 50.9238ZM25.7573 52.9188C25.7588 61.3887 25.7588 66.8945 25.7588 75.4362C25.7588 76.1609 25.7975 77.4616 26.7819 78.3804C27.7152 79.2515 28.9879 79.2802 29.734 79.2802M72.5176 52.919C73.5125 52.7994 74.2813 51.9501 74.2765 50.9239C74.2712 49.8193 73.3715 48.9281 72.267 48.9334C71.4993 48.937 70.3805 49.0445 69.5221 49.8669C68.6364 50.7155 68.5177 51.8463 68.5176 52.6134M72.5176 52.919C72.5166 58.4074 72.5169 62.6509 72.5172 67.2827C72.5174 69.7987 72.5176 72.4293 72.5176 75.4362C72.5176 76.1609 72.479 77.4616 71.4946 78.3804C70.5612 79.2515 69.2886 79.2802 68.5425 79.2802M29.7588 75.2802C34.3358 75.2817 63.9406 75.2817 68.5176 75.2802C68.5176 72.3387 68.5174 69.7559 68.5172 67.2836C68.5169 62.5662 68.5166 58.2509 68.5176 52.6138M29.7588 75.2802C29.7588 66.7258 29.7588 61.2054 29.7572 52.6138L29.7588 75.2802ZM29.7347 79.2802C34.2437 79.2818 64.0328 79.2818 68.5418 79.2802H29.7347Z" fill="#1C3553"/>
<path fill-rule="evenodd" clip-rule="evenodd" d="M46.14 34.9403C46.14 34.3328 46.6325 33.8403 47.24 33.8403H51.1068C51.7144 33.8403 52.2068 34.3328 52.2068 34.9403V41.7447C52.2068 42.3522 51.7144 42.8447 51.1068 42.8447H47.24C46.6325 42.8447 46.14 42.3522 46.14 41.7447V34.9403ZM48.34 36.0403V40.6447H50.0068V36.0403H48.34Z" fill="#1C3553"/>
</svg>
