<svg width="96" height="96" viewBox="0 0 96 96" fill="none" xmlns="http://www.w3.org/2000/svg">
<path fill-rule="evenodd" clip-rule="evenodd" d="M21.9083 60.0878C22.2612 59.7689 22.72 59.5923 23.1956 59.5923H32.0042C33.0646 59.5923 33.9242 60.4519 33.9242 61.5123C33.9242 62.5727 33.0646 63.4323 32.0042 63.4323H23.9346L11.9717 74.243H84.5861L73.1812 63.4323H64.3572C63.2969 63.4323 62.4372 62.5727 62.4372 61.5123C62.4372 60.4519 63.2969 59.5923 64.3572 59.5923H73.9466C74.438 59.5923 74.9108 59.7807 75.2674 60.1188L90.7234 74.7696C91.2938 75.3102 91.4771 76.1439 91.1861 76.874C90.8951 77.604 90.1885 78.083 89.4026 78.083H6.98337C6.1891 78.083 5.47683 77.594 5.19152 76.8527C4.90621 76.1114 5.10677 75.271 5.69607 74.7385L21.9083 60.0878Z" fill="#1C3553"/>
<path fill-rule="evenodd" clip-rule="evenodd" d="M34.352 19.7328C34.352 18.6724 35.2116 17.8127 36.272 17.8127H59.9819C61.0422 17.8127 61.9019 18.6724 61.9019 19.7328V65.8181C61.9019 66.8785 61.0422 67.7381 59.9819 67.7381H36.272C35.2116 67.7381 34.352 66.8785 34.352 65.8181V19.7328ZM38.192 21.6528V63.8981H58.0618V21.6528H38.192Z" fill="#1895FF"/>
<path fill-rule="evenodd" clip-rule="evenodd" d="M39.372 43.6173C39.372 42.9524 39.9111 42.4133 40.576 42.4133H43.1072C43.7722 42.4133 44.3112 42.9524 44.3112 43.6173C44.3112 44.2823 43.7722 44.8213 43.1072 44.8213H40.576C39.9111 44.8213 39.372 44.2823 39.372 43.6173Z" fill="#1895FF"/>
</svg>
