<svg width="96" height="96" viewBox="0 0 96 96" fill="none" xmlns="http://www.w3.org/2000/svg">
<path fill-rule="evenodd" clip-rule="evenodd" d="M24.64 44.8C24.64 44.2698 25.0698 43.84 25.6 43.84H30.1714C30.7016 43.84 31.1314 44.2698 31.1314 44.8V54.4C31.1314 54.9302 30.7016 55.36 30.1714 55.36H25.6C25.0698 55.36 24.64 54.9302 24.64 54.4V44.8ZM26.56 45.76V53.44H29.2114V45.76H26.56Z" fill="#1C3553"/>
<path fill-rule="evenodd" clip-rule="evenodd" d="M66.2401 44.8C66.2401 44.2698 66.6699 43.84 67.2001 43.84H71.7715C72.3017 43.84 72.7315 44.2698 72.7315 44.8V54.4C72.7315 54.9302 72.3017 55.36 71.7715 55.36H67.2001C66.6699 55.36 66.2401 54.9302 66.2401 54.4V44.8ZM68.1601 45.76V53.44H70.8115V45.76H68.1601Z" fill="#1C3553"/>
<path fill-rule="evenodd" clip-rule="evenodd" d="M40.8 50.24C40.8 49.3564 41.5164 48.64 42.4 48.64H54.528C55.4117 48.64 56.128 49.3564 56.128 50.24V71.04H52.928V51.84H44V71.04H40.8V50.24Z" fill="#1C3553"/>
<path fill-rule="evenodd" clip-rule="evenodd" d="M8 29.6C8 28.2745 9.07452 27.2 10.4 27.2H84.0695C85.395 27.2 86.4695 28.2745 86.4695 29.6C86.4695 30.9255 85.395 32 84.0695 32H10.4C9.07452 32 8 30.9255 8 29.6Z" fill="#1895FF"/>
<path fill-rule="evenodd" clip-rule="evenodd" d="M12.7952 34.4H82.4V37.6H12.7952V34.4Z" fill="#1895FF"/>
<path fill-rule="evenodd" clip-rule="evenodd" d="M12.7952 66.24H82.4V69.44H12.7952V66.24Z" fill="#1895FF"/>
<path fill-rule="evenodd" clip-rule="evenodd" d="M8.79999 69.6C8.79999 68.7163 9.51633 68 10.4 68H85.6C86.4836 68 87.2 68.7163 87.2 69.6C87.2 70.4837 86.4836 71.2 85.6 71.2H10.4C9.51633 71.2 8.79999 70.4837 8.79999 69.6Z" fill="#1895FF"/>
<path fill-rule="evenodd" clip-rule="evenodd" d="M16 27.2V70.4333H11.2V27.2H16Z" fill="#1895FF"/>
<path fill-rule="evenodd" clip-rule="evenodd" d="M84.8 27.2V70.4333H80V27.2H84.8Z" fill="#1895FF"/>
<path d="M67.2 25.6C67.2 24.7163 67.9164 24 68.8 24H73.6C74.4837 24 75.2 24.7163 75.2 25.6V27.2C75.2 28.0837 74.4837 28.8 73.6 28.8H68.8C67.9164 28.8 67.2 28.0837 67.2 27.2V25.6Z" fill="#1895FF"/>
</svg>
