<svg width="96" height="96" viewBox="0 0 96 96" fill="none" xmlns="http://www.w3.org/2000/svg">
<path fill-rule="evenodd" clip-rule="evenodd" d="M31.6999 22.5C31.6999 21.5058 32.5058 20.7 33.4999 20.7H87.509C88.5032 20.7 89.309 21.5058 89.309 22.5C89.309 23.4941 88.5032 24.3 87.509 24.3H33.4999C32.5058 24.3 31.6999 23.4941 31.6999 22.5Z" fill="#1C3553"/>
<path fill-rule="evenodd" clip-rule="evenodd" d="M66.9996 71.4C66.9996 70.5716 67.6712 69.9 68.4996 69.9H87.5091C88.3375 69.9 89.0091 70.5716 89.0091 71.4C89.0091 72.2285 88.3375 72.9 87.5091 72.9H68.4996C67.6712 72.9 66.9996 72.2285 66.9996 71.4Z" fill="#1C3553"/>
<path fill-rule="evenodd" clip-rule="evenodd" d="M37.4999 20.7C38.494 20.7 39.2999 21.5058 39.2999 22.5V35.6529C39.2999 36.647 38.494 37.4529 37.4999 37.4529C36.5058 37.4529 35.6999 36.647 35.6999 35.6529V22.5C35.6999 21.5058 36.5058 20.7 37.4999 20.7Z" fill="#1C3553"/>
<path fill-rule="evenodd" clip-rule="evenodd" d="M83.4998 20.7C84.4939 20.7 85.2998 21.5058 85.2998 22.5V71.0077C85.2998 72.0018 84.4939 72.8077 83.4998 72.8077C82.5057 72.8077 81.6998 72.0018 81.6998 71.0077V22.5C81.6998 21.5058 82.5057 20.7 83.4998 20.7Z" fill="#1C3553"/>
<path fill-rule="evenodd" clip-rule="evenodd" d="M69.7998 40.5C69.7998 40.1134 70.1132 39.8 70.4998 39.8H73.9998C74.3864 39.8 74.6998 40.1134 74.6998 40.5V47.5C74.6998 47.8866 74.3864 48.2 73.9998 48.2H70.4998C70.1132 48.2 69.7998 47.8866 69.7998 47.5V40.5ZM71.1998 41.2V46.8H73.2998V41.2H71.1998Z" fill="#1C3553"/>
<path fill-rule="evenodd" clip-rule="evenodd" d="M20.3999 55C20.3999 54.6686 20.6686 54.4 20.9999 54.4H23.9999C24.3313 54.4 24.5999 54.6686 24.5999 55V61C24.5999 61.3314 24.3313 61.6 23.9999 61.6H20.9999C20.6686 61.6 20.3999 61.3314 20.3999 61V55ZM21.5999 55.6V60.4H23.3999V55.6H21.5999Z" fill="#1895FF"/>
<path fill-rule="evenodd" clip-rule="evenodd" d="M47.3999 55C47.3999 54.6686 47.6685 54.4 47.9999 54.4H50.9999C51.3313 54.4 51.5999 54.6686 51.5999 55V61C51.5999 61.3314 51.3313 61.6 50.9999 61.6H47.9999C47.6685 61.6 47.3999 61.3314 47.3999 61V55ZM48.5999 55.6V60.4H50.3999V55.6H48.5999Z" fill="#1895FF"/>
<path fill-rule="evenodd" clip-rule="evenodd" d="M7.99998 72C7.99998 71.4477 8.44769 71 8.99998 71H62.9998C63.5521 71 63.9998 71.4477 63.9998 72C63.9998 72.5523 63.5521 73 62.9998 73H8.99998C8.44769 73 7.99998 72.5523 7.99998 72Z" fill="#1895FF"/>
<path fill-rule="evenodd" clip-rule="evenodd" d="M9.99997 69.3H31.0262V71.3H9.99997V69.3Z" fill="#1895FF"/>
<path fill-rule="evenodd" clip-rule="evenodd" d="M39.9999 69.3H61.0261V71.3H39.9999V69.3Z" fill="#1895FF"/>
<path fill-rule="evenodd" clip-rule="evenodd" d="M10.5798 46.3333H60.9999V48.3333H10.5798V46.3333Z" fill="#1895FF"/>
<path fill-rule="evenodd" clip-rule="evenodd" d="M7.0851 41.9999C7.0851 41.1715 7.75667 40.4999 8.58509 40.4999H62.4656C63.294 40.4999 63.9656 41.1715 63.9656 41.9999C63.9656 42.8283 63.294 43.4999 62.4656 43.4999H8.58509C7.75667 43.4999 7.0851 42.8283 7.0851 41.9999Z" fill="#1895FF"/>
<path fill-rule="evenodd" clip-rule="evenodd" d="M12.5 41.1V72.9249H9.49998V41.1H12.5Z" fill="#1895FF"/>
<path fill-rule="evenodd" clip-rule="evenodd" d="M62.4998 41.1V72.9249H59.4998V41.1H62.4998Z" fill="#1895FF"/>
<path fill-rule="evenodd" clip-rule="evenodd" d="M49.9999 38.9999C49.9999 38.4476 50.4476 37.9999 50.9999 37.9999H54.9999C55.5521 37.9999 55.9999 38.4476 55.9999 38.9999V40.9999C55.9999 41.5522 55.5521 41.9999 54.9999 41.9999H50.9999C50.4476 41.9999 49.9999 41.5522 49.9999 40.9999V38.9999Z" fill="#1895FF"/>
<path fill-rule="evenodd" clip-rule="evenodd" d="M30.9999 58C30.9999 57.4477 31.4476 57 31.9999 57H40.9999C41.5522 57 41.9999 57.4477 41.9999 58V70.9999C41.9999 71.5522 41.5522 71.9999 40.9999 71.9999H31.9999C31.4476 71.9999 30.9999 71.5522 30.9999 70.9999V58ZM32.9999 59V69.9999H39.9999V59H32.9999Z" fill="#1895FF"/>
</svg>
