<svg width="96" height="96" viewBox="0 0 96 96" fill="none" xmlns="http://www.w3.org/2000/svg">
<path fill-rule="evenodd" clip-rule="evenodd" d="M60.005 71.3374H66.193V68.4644H60.005V71.3374Z" fill="#1895FF"/>
<path fill-rule="evenodd" clip-rule="evenodd" d="M55.983 75.5153H62.171V72.6423H55.983V75.5153Z" fill="#1895FF"/>
<path fill-rule="evenodd" clip-rule="evenodd" d="M63.495 75.5153H69.683V72.6423H63.495V75.5153Z" fill="#1895FF"/>
<path fill-rule="evenodd" clip-rule="evenodd" d="M63.495 67.1584H69.683V64.2854H63.495V67.1584Z" fill="#1895FF"/>
<path fill-rule="evenodd" clip-rule="evenodd" d="M71.007 75.5153H77.195V72.6423H71.007V75.5153Z" fill="#1895FF"/>
<path fill-rule="evenodd" clip-rule="evenodd" d="M71.007 67.1584H77.195V64.2854H71.007V67.1584Z" fill="#1895FF"/>
<path fill-rule="evenodd" clip-rule="evenodd" d="M67.109 71.3374H73.297V68.4644H67.109V71.3374Z" fill="#1895FF"/>
<path fill-rule="evenodd" clip-rule="evenodd" d="M73.943 62.9804H77.037V60.1074H73.943V62.9804Z" fill="#1895FF"/>
<path fill-rule="evenodd" clip-rule="evenodd" d="M55.984 71.3374H58.873V68.4644H55.984V71.3374Z" fill="#1895FF"/>
<path fill-rule="evenodd" clip-rule="evenodd" d="M74.214 71.3374H77.103V68.4644H74.214V71.3374Z" fill="#1895FF"/>
<path fill-rule="evenodd" clip-rule="evenodd" d="M66.5894 37.8086C67.5871 37.7241 68.354 38.2657 68.8377 38.7191C69.3054 39.1577 70.7756 40.5355 72.7097 42.3481C77.9394 47.2493 86.5635 55.3316 87.951 56.6372M66.5894 37.8086C65.5921 37.7243 64.8256 38.2646 64.3407 38.7191C63.873 39.1576 62.4031 40.5352 60.4692 42.3477C55.2396 47.2488 46.6149 55.3316 45.2274 56.6372C45.2218 56.6425 45.2158 56.6481 45.2094 56.6541C45.0586 56.7954 44.6894 57.1414 44.4502 57.6246C44.1323 58.2671 44.094 59.0144 44.4071 59.7425L44.4079 59.7443C44.693 60.4052 45.1891 60.8778 45.8012 61.1315C46.3254 61.3487 46.8352 61.3612 47.1199 61.3593M86.0587 61.3593C86.0584 61.3593 86.059 61.3593 86.0587 61.3593V61.3593ZM86.0587 61.3593C86.3434 61.3612 86.8541 61.3487 87.3786 61.1311C87.991 60.877 88.4859 60.404 88.7705 59.7443L88.7713 59.7425C89.0844 59.0144 89.0462 58.2671 88.7282 57.6246C88.489 57.1414 88.1198 56.7954 87.969 56.6541C87.9627 56.6482 87.9565 56.6424 87.951 56.6372M66.5892 41.5458C65.9693 42.1269 64.6234 43.3883 62.9186 44.986C58.7298 48.9116 52.3746 54.8676 49.2979 57.7537C49.854 57.7541 50.4098 57.7557 50.9651 57.7583C51.5159 57.7609 52.433 57.8403 53.1402 58.5498C53.8481 59.2602 53.9227 60.1775 53.9227 60.725M66.5892 41.5458C67.2091 42.1269 68.5549 43.3881 70.2596 44.9857C74.4483 48.9113 80.8038 54.8676 83.8805 57.7537C83.3244 57.7541 82.7686 57.7557 82.2133 57.7583C81.6625 57.7609 80.7454 57.8403 80.0382 58.5498C79.3303 59.2602 79.2557 60.1775 79.2557 60.725M53.9237 78.2153H79.2557C79.2557 76.3875 79.2556 74.5596 79.2555 72.7317C79.2553 68.7296 79.255 64.7271 79.2557 60.725M53.9237 78.2153C53.9237 72.3854 53.9237 66.5551 53.9227 60.725L53.9237 78.2153Z" fill="#1C3553"/>
<path fill-rule="evenodd" clip-rule="evenodd" d="M26.5883 15.0928C26.6213 14.48 27.1279 14 27.7416 14H33.2436C33.8573 14 34.3639 14.48 34.3969 15.0928L34.6279 19.3758C34.645 19.6925 34.5311 20.0022 34.313 20.2324C34.0949 20.4626 33.7917 20.593 33.4746 20.593H27.5106C27.1935 20.593 26.8903 20.4626 26.6722 20.2324C26.4541 20.0022 26.3402 19.6925 26.3573 19.3758L26.5883 15.0928ZM28.836 16.31L28.7296 18.283H32.2556L32.1492 16.31H28.836Z" fill="#1C3553"/>
<path fill-rule="evenodd" clip-rule="evenodd" d="M6.25031 20.6768C6.25031 19.7103 7.03381 18.9268 8.00031 18.9268H20.8573C21.6491 18.9268 22.3422 19.4583 22.5475 20.223L23.2535 22.8528H50.9763C51.6006 22.8528 52.1775 23.1853 52.4905 23.7254L52.8225 24.2984C53.1362 24.8398 53.137 25.5075 52.8245 26.0496C52.5121 26.5917 51.934 26.9258 51.3083 26.9258H23.3855L23.435 29.6419C23.4436 30.1114 23.263 30.5648 22.934 30.8999C22.6049 31.235 22.155 31.4238 21.6853 31.4238H8.00031C7.03381 31.4238 6.25031 30.6403 6.25031 29.6738V20.6768ZM20.0413 24.3866L19.5152 22.4268H9.75031V27.9238H19.9031L19.8536 25.2077C19.8484 24.9201 19.914 24.6386 20.0413 24.3866Z" fill="#1C3553"/>
<path fill-rule="evenodd" clip-rule="evenodd" d="M33.5107 17.7763C33.6597 17.3898 34.0938 17.1973 34.4803 17.3463L50.2833 23.4393C50.6698 23.5883 50.8623 24.0224 50.7133 24.4089C50.5643 24.7954 50.1302 24.9879 49.7437 24.8389L33.9407 18.7459C33.5542 18.5969 33.3617 18.1628 33.5107 17.7763Z" fill="#1C3553"/>
<path fill-rule="evenodd" clip-rule="evenodd" d="M25.6485 31.0911C25.6832 30.0121 26.5679 29.1553 27.6475 29.1553H33.3375C34.4171 29.1553 35.3018 30.0121 35.3365 31.0911L36.9185 80.3781C36.9359 80.9194 36.733 81.4446 36.3562 81.8336C35.9795 82.2227 35.4611 82.4423 34.9195 82.4423H26.0655C25.5239 82.4423 25.0055 82.2227 24.6288 81.8336C24.252 81.4446 24.0492 80.9194 24.0665 80.3781L25.6485 31.0911ZM29.5843 33.1553L28.1307 78.4423H32.8543L31.4007 33.1553H29.5843Z" fill="#1C3553"/>
<path fill-rule="evenodd" clip-rule="evenodd" d="M27.7285 44.1975C27.7285 43.9214 27.9524 43.6975 28.2285 43.6975H34.3355C34.6116 43.6975 34.8355 43.9214 34.8355 44.1975C34.8355 44.4737 34.6116 44.6975 34.3355 44.6975H28.2285C27.9524 44.6975 27.7285 44.4737 27.7285 44.1975Z" fill="#1C3553"/>
<path fill-rule="evenodd" clip-rule="evenodd" d="M34.6957 43.8502C34.8875 44.0488 34.882 44.3653 34.6834 44.5572L26.9963 51.9812C26.7977 52.173 26.4812 52.1675 26.2894 51.9689C26.0975 51.7702 26.103 51.4537 26.3017 51.2619L33.9887 43.8379C34.1873 43.646 34.5038 43.6515 34.6957 43.8502Z" fill="#1C3553"/>
<path fill-rule="evenodd" clip-rule="evenodd" d="M27.7285 36.873C27.7285 36.5969 27.9524 36.373 28.2285 36.373H34.3355C34.6116 36.373 34.8355 36.5969 34.8355 36.873C34.8355 37.1492 34.6116 37.373 34.3355 37.373H28.2285C27.9524 37.373 27.7285 37.1492 27.7285 36.873Z" fill="#1C3553"/>
<path fill-rule="evenodd" clip-rule="evenodd" d="M34.6957 36.5257C34.8875 36.7243 34.882 37.0409 34.6834 37.2327L26.9963 44.6567C26.7977 44.8485 26.4812 44.843 26.2894 44.6444C26.0975 44.4458 26.103 44.1292 26.3017 43.9374L33.9887 36.5134C34.1873 36.3216 34.5038 36.3271 34.6957 36.5257Z" fill="#1C3553"/>
<path fill-rule="evenodd" clip-rule="evenodd" d="M27.7285 52.0061C27.7285 51.73 27.9524 51.5061 28.2285 51.5061H34.3355C34.6116 51.5061 34.8355 51.73 34.8355 52.0061C34.8355 52.2822 34.6116 52.5061 34.3355 52.5061H28.2285C27.9524 52.5061 27.7285 52.2822 27.7285 52.0061Z" fill="#1C3553"/>
<path fill-rule="evenodd" clip-rule="evenodd" d="M34.6957 51.6588C34.8875 51.8574 34.882 52.1739 34.6834 52.3658L26.9963 59.7898C26.7977 59.9816 26.4812 59.9761 26.2894 59.7775C26.0975 59.5788 26.103 59.2623 26.3017 59.0705L33.9887 51.6465C34.1873 51.4546 34.5038 51.4601 34.6957 51.6588Z" fill="#1C3553"/>
<path fill-rule="evenodd" clip-rule="evenodd" d="M27.7285 59.8147C27.7285 59.5386 27.9524 59.3147 28.2285 59.3147H34.3355C34.6116 59.3147 34.8355 59.5386 34.8355 59.8147C34.8355 60.0908 34.6116 60.3147 34.3355 60.3147H28.2285C27.9524 60.3147 27.7285 60.0908 27.7285 59.8147Z" fill="#1C3553"/>
<path fill-rule="evenodd" clip-rule="evenodd" d="M34.6957 59.4674C34.8875 59.666 34.882 59.9825 34.6834 60.1744L26.9963 67.5984C26.7977 67.7902 26.4812 67.7847 26.2894 67.586C26.0975 67.3874 26.103 67.0709 26.3017 66.879L33.9887 59.455C34.1873 59.2632 34.5038 59.2687 34.6957 59.4674Z" fill="#1C3553"/>
<path fill-rule="evenodd" clip-rule="evenodd" d="M27.7285 67.6235C27.7285 67.3474 27.9524 67.1235 28.2285 67.1235H34.3355C34.6116 67.1235 34.8355 67.3474 34.8355 67.6235C34.8355 67.8997 34.6116 68.1235 34.3355 68.1235H28.2285C27.9524 68.1235 27.7285 67.8997 27.7285 67.6235Z" fill="#1C3553"/>
<path fill-rule="evenodd" clip-rule="evenodd" d="M34.6957 67.2762C34.8875 67.4748 34.882 67.7914 34.6834 67.9832L26.9963 75.4072C26.7977 75.599 26.4812 75.5935 26.2894 75.3949C26.0975 75.1963 26.103 74.8797 26.3017 74.6879L33.9887 67.2639C34.1873 67.072 34.5038 67.0776 34.6957 67.2762Z" fill="#1C3553"/>
<path fill-rule="evenodd" clip-rule="evenodd" d="M46 26.25C46.4142 26.25 46.75 26.5858 46.75 27V37.656C46.75 38.0702 46.4142 38.406 46 38.406C45.5858 38.406 45.25 38.0702 45.25 37.656V27C45.25 26.5858 45.5858 26.25 46 26.25Z" fill="#1C3553"/>
<path fill-rule="evenodd" clip-rule="evenodd" d="M41.25 38C41.25 37.5858 41.5858 37.25 42 37.25H50.377C50.7912 37.25 51.127 37.5858 51.127 38V45.779C51.127 46.1932 50.7912 46.529 50.377 46.529H42C41.5858 46.529 41.25 46.1932 41.25 45.779V38ZM42.75 38.75V45.029H49.627V38.75H42.75Z" fill="#1C3553"/>
<path fill-rule="evenodd" clip-rule="evenodd" d="M41.25 42C41.25 41.5858 41.5858 41.25 42 41.25H50.1207C50.5349 41.25 50.8707 41.5858 50.8707 42C50.8707 42.4142 50.5349 42.75 50.1207 42.75H42C41.5858 42.75 41.25 42.4142 41.25 42Z" fill="#1C3553"/>
</svg>
