<svg width="96" height="96" viewBox="0 0 96 96" fill="none" xmlns="http://www.w3.org/2000/svg">
<path fill-rule="evenodd" clip-rule="evenodd" d="M25.5 77.6V67H29.5V75.6H63.5V67H67.5V77.6C67.5 78.7046 66.6046 79.6 65.5 79.6H27.5C26.3954 79.6 25.5 78.7046 25.5 77.6Z" fill="#1895FF"/>
<path fill-rule="evenodd" clip-rule="evenodd" d="M19.5304 66C19.5304 65.1884 20.1883 64.5305 20.9999 64.5305H73.942C74.7536 64.5305 75.4115 65.1884 75.4115 66C75.4115 66.8116 74.7536 67.4695 73.942 67.4695H20.9999C20.1883 67.4695 19.5304 66.8116 19.5304 66Z" fill="#1895FF"/>
<path fill-rule="evenodd" clip-rule="evenodd" d="M52.2977 50.1709H56.0857C56.4916 50.1709 56.8207 50.5 56.8207 50.9059V57.7669C56.8207 58.1728 56.4916 58.5019 56.0857 58.5019H52.2977C51.8918 58.5019 51.5627 58.1728 51.5627 57.7669V50.9059H52.2977V50.1709ZM53.0327 51.6409V57.0319H55.3507V51.6409H53.0327Z" fill="#1C3553"/>
<path fill-rule="evenodd" clip-rule="evenodd" d="M37.2377 50.1709H41.0257C41.4316 50.1709 41.7607 50.5 41.7607 50.9059V57.7669C41.7607 58.1728 41.4316 58.5019 41.0257 58.5019H37.2377C36.8318 58.5019 36.5027 58.1728 36.5027 57.7669V50.9059H37.2377V50.1709ZM37.9727 51.6409V57.0319H40.2907V51.6409H37.9727Z" fill="#1C3553"/>
<path fill-rule="evenodd" clip-rule="evenodd" d="M46.4238 19.0112C46.8875 18.9699 47.3513 19.043 47.7944 19.2266C48.3452 19.4549 48.7815 19.8202 49.1163 20.1516C50.9832 21.9966 68.2276 39.0609 72.7904 44.1582C73.1566 44.5674 73.4706 44.9318 73.6968 45.221C73.8042 45.3584 73.9306 45.5276 74.0359 45.7014C74.0845 45.7816 74.1723 45.9332 74.2444 46.1258C74.2806 46.2227 74.3359 46.3896 74.3633 46.6024C74.3886 46.7988 74.4113 47.1919 74.2285 47.6376C73.9145 48.4051 73.3602 48.9781 72.6373 49.2943C72.0121 49.5678 71.3968 49.5854 71.0407 49.5829M46.4238 19.0112C45.9601 18.97 45.4963 19.043 45.0535 19.2263C44.5029 19.4542 44.0666 19.8189 43.7312 20.1506M46.4233 23.1139C45.5831 23.9441 43.1714 26.3252 40.1752 29.2833C34.5656 34.8217 26.9073 42.3828 23.6775 45.5756C24.6752 45.5744 25.6719 45.5771 26.6672 45.582M22.2194 47.0281C22.2193 47.0281 22.2199 47.0273 22.2212 47.0258C22.22 47.0273 22.2194 47.0281 22.2194 47.0281ZM46.4233 23.1139C48.6672 25.3326 63.078 39.6039 68.6615 45.5753C67.8333 45.5754 67.0059 45.5779 66.1795 45.582M43.7303 20.1516C43.0254 20.8483 40.5274 23.3145 37.3816 26.4204L43.7303 20.1516ZM37.3816 26.4204C30.7347 32.9829 21.1955 42.4011 19.5659 44.0166L37.3816 26.4204ZM19.5658 44.0167C19.56 44.0225 19.5539 44.0285 19.5476 44.0347C19.3561 44.2241 18.9314 44.6443 18.6614 45.2193C18.3167 45.9532 18.2737 46.7964 18.6175 47.6361C18.9315 48.4044 19.486 48.9779 20.2094 49.2943C20.8346 49.5678 21.4499 49.5854 21.806 49.5829M21.8065 49.5829C23.2466 49.5731 24.6883 49.5737 26.1329 49.5796L21.8065 49.5829ZM26.1329 49.5796C26.1333 53.1886 26.1333 53.8783 26.1333 54.5679C26.1333 55.2852 26.1333 56.0024 26.1338 60.0002C26.1339 61.1048 27.0294 62.0001 28.134 62C29.2386 61.9999 30.1339 61.1043 30.1338 59.9998C30.1333 56.002 30.1333 55.285 30.1333 54.5679C30.1333 53.8507 30.1333 53.1335 30.1328 49.1359M66.7138 49.5796C66.7133 53.6497 66.7134 54.0066 66.7136 54.8378C66.7137 55.51 66.7139 56.4925 66.7139 60C66.7139 61.1046 65.8184 62 64.7139 62C63.6093 62 62.7139 61.1046 62.7139 60C62.7139 56.4945 62.7137 55.5117 62.7136 54.839C62.7134 53.9777 62.7133 53.6248 62.7139 49.1356V49.1342C62.7144 48.4501 62.8027 47.3852 63.5872 46.5561C64.3992 45.698 65.4799 45.5852 66.1787 45.582M66.7138 49.5796C68.1584 49.5737 69.6001 49.5731 71.0402 49.5829L66.7138 49.5796ZM30.1328 49.1356C30.1328 48.4504 30.0447 47.3851 29.2595 46.5557L30.1328 49.1356ZM29.2595 46.5557C28.4474 45.6979 27.3667 45.5852 26.668 45.582L29.2595 46.5557Z" fill="#1C3553"/>
</svg>
