<svg width="96" height="96" viewBox="0 0 96 96" fill="none" xmlns="http://www.w3.org/2000/svg">
<path d="M21.8004 52.7797C21.8004 52.2274 22.2481 51.7797 22.8004 51.7797H31.7897C32.3419 51.7797 32.7897 52.2274 32.7897 52.7797V57.3113C32.7897 57.8636 32.3419 58.3113 31.7897 58.3113H22.8004C22.2481 58.3113 21.8004 57.8636 21.8004 57.3113V52.7797Z" fill="#1895FF"/>
<path fill-rule="evenodd" clip-rule="evenodd" d="M35.537 52.7797C35.537 52.2274 35.9847 51.7797 36.537 51.7797H45.5263C46.0786 51.7797 46.5263 52.2274 46.5263 52.7797V57.3113C46.5263 57.8636 46.0786 58.3113 45.5263 58.3113H36.537C35.9847 58.3113 35.537 57.8636 35.537 57.3113V52.7797Z" fill="#1895FF"/>
<path d="M21.8004 42.9824C21.8004 42.4301 22.2481 41.9824 22.8004 41.9824H31.7897C32.3419 41.9824 32.7897 42.4301 32.7897 42.9824V47.5139C32.7897 48.0662 32.3419 48.5139 31.7897 48.5139H22.8004C22.2481 48.5139 21.8004 48.0662 21.8004 47.5139V42.9824Z" fill="#1895FF"/>
<path fill-rule="evenodd" clip-rule="evenodd" d="M35.537 42.9824C35.537 42.4301 35.9847 41.9824 36.537 41.9824H45.5263C46.0786 41.9824 46.5263 42.4301 46.5263 42.9824V47.5139C46.5263 48.0662 46.0786 48.5139 45.5263 48.5139H36.537C35.9847 48.5139 35.537 48.0662 35.537 47.5139V42.9824Z" fill="#1895FF"/>
<path fill-rule="evenodd" clip-rule="evenodd" d="M49.2736 42.9824C49.2736 42.4301 49.7213 41.9824 50.2736 41.9824H59.2629C59.8152 41.9824 60.2629 42.4301 60.2629 42.9824V47.5139C60.2629 48.0662 59.8152 48.5139 59.2629 48.5139H50.2736C49.7213 48.5139 49.2736 48.0662 49.2736 47.5139V42.9824Z" fill="#1895FF"/>
<path d="M63.0102 42.9824C63.0102 42.4301 63.4579 41.9824 64.0102 41.9824H72.9995C73.5518 41.9824 73.9995 42.4301 73.9995 42.9824V47.5139C73.9995 48.0662 73.5518 48.5139 72.9995 48.5139H64.0102C63.4579 48.5139 63.0102 48.0662 63.0102 47.5139V42.9824Z" fill="#1895FF"/>
<path fill-rule="evenodd" clip-rule="evenodd" d="M17.7396 35.8095H79.7892V39.5095H17.7396V35.8095Z" fill="#1C3553"/>
<path fill-rule="evenodd" clip-rule="evenodd" d="M15.55 25.7552C15.55 24.4574 16.6021 23.4052 17.9 23.4052H78.4999C79.7978 23.4052 80.8499 24.4574 80.8499 25.7552V72.1169C80.8499 73.4147 79.7978 74.4669 78.4999 74.4669H17.9C16.6021 74.4669 15.55 73.4148 15.55 72.1169V25.7552ZM19.25 27.1052V70.7669H77.1499V27.1052H19.25Z" fill="#1C3553"/>
<path fill-rule="evenodd" clip-rule="evenodd" d="M67.9999 21.1499C69.0216 21.1499 69.8499 21.9781 69.8499 22.9999V27.5105C69.8499 28.5322 69.0216 29.3605 67.9999 29.3605C66.9782 29.3605 66.1499 28.5322 66.1499 27.5105V22.9999C66.1499 21.9781 66.9782 21.1499 67.9999 21.1499Z" fill="#1C3553"/>
<path fill-rule="evenodd" clip-rule="evenodd" d="M28.4 21.1499C29.4217 21.1499 30.25 21.9781 30.25 22.9999V27.5105C30.25 28.5322 29.4217 29.3605 28.4 29.3605C27.3782 29.3605 26.55 28.5322 26.55 27.5105V22.9999C26.55 21.9781 27.3782 21.1499 28.4 21.1499Z" fill="#1C3553"/>
</svg>
078 54.1237 60.2318H54.1717C54.3997 61.0958 54.6397 61.9958 54.8797 62.8238L55.1557 63.7838H53.1517ZM56.0797 66.9998H57.5557L54.9997 59.1518H53.3677L50.7997 66.9998H52.2277L52.8397 64.8758H55.4677L56.0797 66.9998Z" fill="#1C3553"/>
<path d="M59.5914 66.9998H60.9834V60.3278H63.2394V59.1518H57.3234V60.3278H59.5914V66.9998Z" fill="#1C3553"/>
<path d="M64.5231 66.9998H69.3591V65.8238H65.9151V63.5078H68.7351V62.3318H65.9151V60.3278H69.2391V59.1518H64.5231V66.9998Z" fill="#1C3553"/>
<path d="M52.4014 50.1581C51.1254 50.1581 49.9074 49.2301 49.5304 46.3301C50.3714 44.9961 51.3864 44.5031 52.3144 44.5031C53.7064 44.5031 54.7214 45.2281 54.7214 47.1711C54.7214 49.2591 53.6774 50.1581 52.4014 50.1581ZM58.3464 36.4411C57.1864 35.2521 55.4174 34.2371 52.9814 34.2371C49.0954 34.2371 45.5284 37.3401 45.5284 44.2131C45.5284 50.6801 48.9214 53.3481 52.4884 53.3481C55.8234 53.3481 58.6074 50.9991 58.6074 47.1711C58.6074 43.2851 56.2874 41.4871 53.1264 41.4871C51.9954 41.4871 50.4004 42.2121 49.4434 43.4301C49.5884 39.1381 51.2124 37.6881 53.2424 37.6881C54.3154 37.6881 55.4754 38.2971 56.1134 38.9931L58.3464 36.4411Z" fill="#1895FF"/>
<path fill-rule="evenodd" clip-rule="evenodd" d="M42.5 44.5002C42.5 45.0106 42.2405 45.486 41.8111 45.762L34.8111 50.262C34.1143 50.7099 33.1862 50.5082 32.7382 49.8113C32.2903 49.1145 32.492 48.1864 33.1889 47.7384L38.2261 44.5002L33.1889 41.262C32.492 40.814 32.2903 39.8859 32.7382 39.189C33.1862 38.4922 34.1143 38.2904 34.8111 38.7384L41.8111 43.2384C42.2405 43.5144 42.5 43.9898 42.5 44.5002Z" fill="#1895FF"/>
</svg>
