<svg width="96" height="96" viewBox="0 0 96 96" fill="none" xmlns="http://www.w3.org/2000/svg">
<path fill-rule="evenodd" clip-rule="evenodd" d="M18.8235 55.1382C18.8235 54.3098 19.4951 53.6382 20.3235 53.6382H26.5C27.3284 53.6382 28 54.3098 28 55.1382C28 55.9666 27.3284 56.6382 26.5 56.6382H20.3235C19.4951 56.6382 18.8235 55.9666 18.8235 55.1382Z" fill="#1895FF"/>
<path fill-rule="evenodd" clip-rule="evenodd" d="M15.5954 60.8276C15.5954 59.9992 16.267 59.3276 17.0954 59.3276H26.5618C27.3902 59.3276 28.0618 59.9992 28.0618 60.8276C28.0618 61.6561 27.3902 62.3276 26.5618 62.3276H17.0954C16.267 62.3276 15.5954 61.6561 15.5954 60.8276Z" fill="#1895FF"/>
<path fill-rule="evenodd" clip-rule="evenodd" d="M18.8235 66.5176C18.8235 65.6892 19.4951 65.0176 20.3235 65.0176H26.5C27.3284 65.0176 28 65.6892 28 66.5176C28 67.346 27.3284 68.0176 26.5 68.0176H20.3235C19.4951 68.0176 18.8235 67.346 18.8235 66.5176Z" fill="#1895FF"/>
<path fill-rule="evenodd" clip-rule="evenodd" d="M60.9545 55.1367C60.9545 55.9651 60.283 56.6367 59.4545 56.6367H43.9994C43.171 56.6367 42.4994 55.9651 42.4994 55.1367C42.4994 54.3083 43.171 53.6367 43.9994 53.6367H59.4545C60.283 53.6367 60.9545 54.3083 60.9545 55.1367Z" fill="#1895FF"/>
<path fill-rule="evenodd" clip-rule="evenodd" d="M51.9393 46.0795C52.5251 45.4937 53.4749 45.4937 54.0607 46.0795L63.1213 55.1401L54.0607 64.2008C53.4749 64.7866 52.5251 64.7866 51.9393 64.2008C51.3536 63.615 51.3536 62.6653 51.9393 62.0795L58.8787 55.1401L51.9393 48.2008C51.3536 47.615 51.3536 46.6653 51.9393 46.0795Z" fill="#1895FF"/>
<path fill-rule="evenodd" clip-rule="evenodd" d="M52.109 19.4873C53.2447 19.4286 54.0982 20.0453 54.6568 20.5816C55.8545 21.7318 63.3934 29.0499 69.8298 35.2979C74.4796 39.8116 78.5541 43.7668 79.247 44.4346L79.2483 44.4359C79.2546 44.442 79.2613 44.4484 79.2682 44.4551C79.4628 44.6426 79.897 45.0609 80.1747 45.6347C80.5338 46.3766 80.5809 47.2363 80.2216 48.0893L80.2211 48.0905C79.894 48.8657 79.3247 49.4287 78.6032 49.7354C77.9793 50.0006 77.3652 50.0179 77.004 50.0153C77.0037 50.0153 77.0043 50.0153 77.004 50.0153C75.5095 50.0051 74.013 50.0064 72.5123 50.012C72.5123 49.8632 72.5124 49.7143 72.5124 49.5655C72.5124 49.4142 72.5238 49.3536 72.5234 49.3536C72.5234 49.3536 72.5226 49.3572 72.5207 49.364C72.5121 49.3959 72.4868 49.4715 72.4296 49.5652C72.4297 49.5651 72.4296 49.5653 72.4296 49.5652C72.3936 49.6241 72.3448 49.6905 72.2798 49.7573C72.1942 49.8452 72.108 49.9059 72.0349 49.947L72.033 49.5654L72.0252 48.0139L72.0318 49.5652L72.0334 49.9478C71.9615 49.9881 71.9024 50.0094 71.8692 50.019C71.8568 50.0226 71.8501 50.024 71.8501 50.0241C71.8502 50.0244 71.9032 50.0146 72.0342 50.0139M31.7052 50.012C31.8645 50.0126 32.0239 50.0132 32.1834 50.0139C32.183 50.0139 32.1826 50.0139 32.1822 50.0139L32.1826 49.9467C32.1831 49.9469 32.1835 49.9472 32.184 49.9475L32.1834 50.0139C32.1832 50.0139 32.1835 50.0139 32.1834 50.0139M31.7052 50.012C30.2044 50.0064 28.708 50.0051 27.2135 50.0153C27.2132 50.0153 27.2138 50.0153 27.2135 50.0153M23.9963 48.087C23.6388 47.2364 23.6844 46.3781 24.0431 45.6357C24.3218 45.0591 24.758 44.64 24.9542 44.4516C24.9607 44.4453 24.967 44.4393 24.9729 44.4336C25.6688 43.7628 29.7416 39.8092 34.3891 35.2978C40.8255 29.0498 48.3642 21.7319 49.5619 20.5817C50.1192 20.0467 50.9731 19.4284 52.109 19.4873" fill="#1C3553"/>
</svg>
