<svg width="96" height="96" viewBox="0 0 96 96" fill="none" xmlns="http://www.w3.org/2000/svg">
<path fill-rule="evenodd" clip-rule="evenodd" d="M10.1352 27.2563C10.4338 26.4867 11.1744 25.9796 11.9999 25.9796H54.0829V29.9796H13.3693L7.92082 44.0265H9.99989C11.1045 44.0265 11.9999 44.9219 11.9999 46.0265V72.1003H54.0829V76.1003H9.99989C8.89532 76.1003 7.99989 75.2049 7.99989 74.1003V48.0265H4.99989C4.33995 48.0265 3.7225 47.7009 3.34966 47.1564C2.97682 46.6119 2.89659 45.9185 3.13524 45.3032L10.1352 27.2563Z" fill="#1C3553"/>
<path fill-rule="evenodd" clip-rule="evenodd" d="M54.0829 45.7384H4.81589V43.3384H54.0829V45.7384Z" fill="#1C3553"/>
<path fill-rule="evenodd" clip-rule="evenodd" d="M90.4193 45.7384H53.8143V43.3384H90.4193V45.7384Z" fill="#1895FF"/>
<path fill-rule="evenodd" clip-rule="evenodd" d="M83.1889 29.9796H53.8143V25.9796H84.5583C85.3838 25.9796 86.1244 26.4867 86.423 27.2563L93.423 45.3032C93.6616 45.9185 93.5814 46.6119 93.2085 47.1564C92.8357 47.7009 92.2182 48.0265 91.5583 48.0265H88.5583V74.1003C88.5583 75.2049 87.6629 76.1003 86.5583 76.1003H53.8143V72.1003H84.5583V46.0265C84.5583 44.9219 85.4537 44.0265 86.5583 44.0265H88.6374L83.1889 29.9796Z" fill="#1895FF"/>
<path fill-rule="evenodd" clip-rule="evenodd" d="M56 43.9998V74.9996H54V43.9998H56Z" fill="#1895FF"/>
<path fill-rule="evenodd" clip-rule="evenodd" d="M65.785 61.2891C65.785 60.7368 66.2327 60.2891 66.785 60.2891H74.214C74.7663 60.2891 75.214 60.7368 75.214 61.2891V72.9271C75.214 73.4793 74.7663 73.9271 74.214 73.9271H66.785C66.2327 73.9271 65.785 73.4793 65.785 72.9271V61.2891ZM67.785 62.2891V71.9271H73.214V62.2891H67.785Z" fill="#1895FF"/>
<path d="M72 23.1003C72 22.548 72.4477 22.1003 73 22.1003H79C79.5523 22.1003 80 22.548 80 23.1003V26.1003C80 26.6526 79.5523 27.1003 79 27.1003H73C72.4477 27.1003 72 26.6526 72 26.1003V23.1003Z" fill="#1895FF"/>
<path fill-rule="evenodd" clip-rule="evenodd" d="M74.964 49.5381C74.964 49.1239 75.2998 48.7881 75.714 48.7881H79.142C79.5562 48.7881 79.892 49.1239 79.892 49.5381V55.3761C79.892 55.7904 79.5562 56.1261 79.142 56.1261H75.714C75.2998 56.1261 74.964 55.7904 74.964 55.3761V49.5381ZM76.464 50.2881V54.6261H78.392V50.2881H76.464Z" fill="#1895FF"/>
<path fill-rule="evenodd" clip-rule="evenodd" d="M61.108 49.5381C61.108 49.1239 61.4438 48.7881 61.858 48.7881H65.286C65.7002 48.7881 66.036 49.1239 66.036 49.5381V55.3761C66.036 55.7904 65.7002 56.1261 65.286 56.1261H61.858C61.4438 56.1261 61.108 55.7904 61.108 55.3761V49.5381ZM62.608 50.2881V54.6261H64.536V50.2881H62.608Z" fill="#1895FF"/>
<path fill-rule="evenodd" clip-rule="evenodd" d="M54.4751 36.8827C54.8157 36.7691 55.1838 36.9531 55.2974 37.2937L55.9791 39.3379L55.9821 39.3454C55.9867 39.3567 55.9956 39.3772 56.0092 39.4039C56.037 39.4586 56.0803 39.5309 56.1406 39.601C56.2548 39.7338 56.4163 39.8493 56.6808 39.8493H57.6808C58.0398 39.8493 58.3308 40.1403 58.3308 40.4993C58.3308 40.8583 58.0398 41.1493 57.6808 41.1493H56.6808C55.9453 41.1493 55.4488 40.7903 55.1549 40.4486C55.0112 40.2815 54.9131 40.1165 54.8504 39.9932C54.8187 39.9309 54.7951 39.8773 54.7785 39.8368C54.7702 39.8164 54.7636 39.7991 54.7586 39.7855L54.7522 39.7677L54.7499 39.761L54.7489 39.7581L54.7485 39.7568L54.7483 39.7562C54.7482 39.7561 54.7482 39.756 54.7805 39.7452L54.7482 39.7559L54.0642 37.7049C53.9506 37.3644 54.1346 36.9963 54.4751 36.8827Z" fill="#1895FF"/>
<path fill-rule="evenodd" clip-rule="evenodd" d="M58.8452 36.8827C59.1857 36.7691 59.5539 36.9531 59.6674 37.2937L60.3492 39.3379L60.3521 39.3454C60.3567 39.3567 60.3656 39.3772 60.3792 39.4039C60.407 39.4586 60.4504 39.5309 60.5107 39.601C60.6248 39.7338 60.7863 39.8493 61.0508 39.8493H62.0508C62.4098 39.8493 62.7008 40.1403 62.7008 40.4993C62.7008 40.8583 62.4098 41.1493 62.0508 41.1493H61.0508C60.3153 41.1493 59.8188 40.7903 59.525 40.4486C59.3813 40.2815 59.2831 40.1165 59.2204 39.9932C59.1888 39.9309 59.1651 39.8773 59.1486 39.8368C59.1402 39.8164 59.1336 39.7991 59.1286 39.7855L59.1222 39.7677L59.1199 39.761L59.1189 39.7581L59.1185 39.7568L59.1183 39.7562C59.1183 39.7561 59.1182 39.756 59.1505 39.7452L59.1182 39.7559L58.4342 37.7049C58.3206 37.3644 58.5046 36.9963 58.8452 36.8827Z" fill="#1895FF"/>
<path fill-rule="evenodd" clip-rule="evenodd" d="M63.2154 36.8827C63.5559 36.7691 63.924 36.9531 64.0376 37.2937L64.7193 39.3379L64.7223 39.3454C64.7269 39.3567 64.7358 39.3772 64.7494 39.4039C64.7772 39.4586 64.8205 39.5309 64.8808 39.601C64.995 39.7338 65.1565 39.8493 65.421 39.8493H66.421C66.78 39.8493 67.071 40.1403 67.071 40.4993C67.071 40.8583 66.78 41.1493 66.421 41.1493H65.421C64.6855 41.1493 64.189 40.7903 63.8951 40.4486C63.7514 40.2815 63.6533 40.1165 63.5906 39.9932C63.5589 39.9309 63.5353 39.8773 63.5187 39.8368C63.5104 39.8164 63.5038 39.7991 63.4988 39.7855L63.4924 39.7677L63.4901 39.761L63.4891 39.7581L63.4887 39.7568L63.4885 39.7562C63.4884 39.7561 63.4884 39.756 63.5207 39.7452L63.4884 39.7559L62.8044 37.7049C62.6908 37.3644 62.8748 36.9963 63.2154 36.8827Z" fill="#1895FF"/>
<path fill-rule="evenodd" clip-rule="evenodd" d="M67.5854 36.8827C67.9259 36.7691 68.2941 36.9531 68.4076 37.2937L69.0894 39.3379L69.0923 39.3454C69.0969 39.3567 69.1058 39.3772 69.1194 39.4039C69.1472 39.4586 69.1906 39.5309 69.2509 39.601C69.365 39.7338 69.5265 39.8493 69.791 39.8493H70.791C71.15 39.8493 71.441 40.1403 71.441 40.4993C71.441 40.8583 71.15 41.1493 70.791 41.1493H69.791C69.0555 41.1493 68.559 40.7903 68.2652 40.4486C68.1215 40.2815 68.0233 40.1165 67.9606 39.9932C67.929 39.9309 67.9053 39.8773 67.8888 39.8368C67.8805 39.8164 67.8738 39.7991 67.8688 39.7855L67.8624 39.7677L67.8601 39.761L67.8591 39.7581L67.8587 39.7568L67.8585 39.7562C67.8585 39.7561 67.8584 39.756 67.8907 39.7452L67.8584 39.7559L67.1744 37.7049C67.0608 37.3644 67.2448 36.9963 67.5854 36.8827Z" fill="#1895FF"/>
<path fill-rule="evenodd" clip-rule="evenodd" d="M71.9555 36.8827C72.296 36.7691 72.6641 36.9531 72.7777 37.2937L73.4594 39.3379L73.4624 39.3454C73.467 39.3567 73.4759 39.3772 73.4895 39.4039C73.5173 39.4586 73.5607 39.5309 73.621 39.601C73.7351 39.7338 73.8966 39.8493 74.1611 39.8493H75.1611C75.5201 39.8493 75.8111 40.1403 75.8111 40.4993C75.8111 40.8583 75.5201 41.1493 75.1611 41.1493H74.1611C73.4256 41.1493 72.9291 40.7903 72.6352 40.4486C72.4915 40.2815 72.3934 40.1165 72.3307 39.9932C72.299 39.9309 72.2754 39.8773 72.2589 39.8368C72.2505 39.8164 72.2439 39.7991 72.2389 39.7855L72.2325 39.7677L72.2302 39.761L72.2292 39.7581L72.2288 39.7568L72.2286 39.7562C72.2286 39.7561 72.2285 39.756 72.2608 39.7452L72.2285 39.7559L71.5445 37.7049C71.4309 37.3644 71.6149 36.9963 71.9555 36.8827Z" fill="#1895FF"/>
<path fill-rule="evenodd" clip-rule="evenodd" d="M76.3256 36.8827C76.6661 36.7691 77.0342 36.9531 77.1478 37.2937L77.8295 39.3379L77.8325 39.3454C77.8371 39.3567 77.846 39.3772 77.8596 39.4039C77.8874 39.4586 77.9307 39.5309 77.991 39.601C78.1052 39.7338 78.2667 39.8493 78.5312 39.8493H79.5312C79.8902 39.8493 80.1812 40.1403 80.1812 40.4993C80.1812 40.8583 79.8902 41.1493 79.5312 41.1493H78.5312C77.7957 41.1493 77.2992 40.7903 77.0053 40.4486C76.8616 40.2815 76.7635 40.1165 76.7008 39.9932C76.6691 39.9309 76.6455 39.8773 76.6289 39.8368C76.6206 39.8164 76.614 39.7991 76.609 39.7855L76.6026 39.7677L76.6003 39.761L76.5993 39.7581L76.5989 39.7568L76.5987 39.7562C76.5986 39.7561 76.5986 39.756 76.6309 39.7452L76.5986 39.7559L75.9146 37.7049C75.801 37.3644 75.985 36.9963 76.3256 36.8827Z" fill="#1895FF"/>
<path fill-rule="evenodd" clip-rule="evenodd" d="M80.6956 36.8827C81.0361 36.7691 81.4043 36.9531 81.5178 37.2937L82.1996 39.3379L82.2025 39.3454C82.2071 39.3567 82.216 39.3772 82.2296 39.4039C82.2574 39.4586 82.3008 39.5309 82.3611 39.601C82.4752 39.7338 82.6367 39.8493 82.9012 39.8493H83.9012C84.2602 39.8493 84.5512 40.1403 84.5512 40.4993C84.5512 40.8583 84.2602 41.1493 83.9012 41.1493H82.9012C82.1657 41.1493 81.6692 40.7903 81.3754 40.4486C81.2317 40.2815 81.1335 40.1165 81.0708 39.9932C81.0392 39.9309 81.0155 39.8773 80.999 39.8368C80.9907 39.8164 80.984 39.7991 80.979 39.7855L80.9726 39.7677L80.9703 39.761L80.9693 39.7581L80.9689 39.7568L80.9687 39.7562C80.9687 39.7561 80.9686 39.756 81.0009 39.7452L80.9686 39.7559L80.2846 37.7049C80.171 37.3644 80.355 36.9963 80.6956 36.8827Z" fill="#1895FF"/>
<path fill-rule="evenodd" clip-rule="evenodd" d="M55.8925 31.922C56.233 31.8084 56.6012 31.9924 56.7147 32.333L57.3965 34.3772L57.3994 34.3847C57.404 34.396 57.4129 34.4166 57.4265 34.4432C57.4543 34.4979 57.4977 34.5702 57.558 34.6403C57.6721 34.7731 57.8336 34.8886 58.0981 34.8886H59.0981C59.4571 34.8886 59.7481 35.1796 59.7481 35.5386C59.7481 35.8976 59.4571 36.1886 59.0981 36.1886H58.0981C57.3626 36.1886 56.8661 35.8296 56.5723 35.4879C56.4286 35.3208 56.3304 35.1558 56.2677 35.0326C56.2361 34.9703 56.2124 34.9167 56.1959 34.8761C56.1876 34.8557 56.1809 34.8384 56.1759 34.8248L56.1695 34.807L56.1672 34.8003L56.1662 34.7974L56.1658 34.7961L56.1656 34.7955C56.1656 34.7954 56.1655 34.7953 56.1978 34.7845L56.1655 34.7952L55.4815 32.7442C55.3679 32.4037 55.5519 32.0356 55.8925 31.922Z" fill="#1895FF"/>
<path fill-rule="evenodd" clip-rule="evenodd" d="M60.0084 31.922C60.3489 31.8084 60.717 31.9924 60.8306 32.333L61.5123 34.3772L61.5153 34.3847C61.5199 34.396 61.5288 34.4166 61.5424 34.4432C61.5702 34.4979 61.6135 34.5702 61.6738 34.6403C61.788 34.7731 61.9495 34.8886 62.214 34.8886H63.214C63.573 34.8886 63.864 35.1796 63.864 35.5386C63.864 35.8976 63.573 36.1886 63.214 36.1886H62.214C61.4785 36.1886 60.982 35.8296 60.6881 35.4879C60.5444 35.3208 60.4463 35.1558 60.3836 35.0326C60.3519 34.9703 60.3283 34.9167 60.3117 34.8761C60.3034 34.8557 60.2968 34.8384 60.2918 34.8248L60.2854 34.807L60.2831 34.8003L60.2821 34.7974L60.2817 34.7961L60.2815 34.7955C60.2814 34.7954 60.2814 34.7953 60.3137 34.7845L60.2814 34.7952L59.5974 32.7442C59.4838 32.4037 59.6678 32.0356 60.0084 31.922Z" fill="#1895FF"/>
<path fill-rule="evenodd" clip-rule="evenodd" d="M64.1243 31.922C64.4648 31.8084 64.8329 31.9924 64.9465 32.333L65.6282 34.3772L65.6312 34.3847C65.6358 34.396 65.6447 34.4166 65.6583 34.4432C65.6861 34.4979 65.7295 34.5702 65.7898 34.6403C65.9039 34.7731 66.0654 34.8886 66.3299 34.8886H67.3299C67.6889 34.8886 67.9799 35.1796 67.9799 35.5386C67.9799 35.8976 67.6889 36.1886 67.3299 36.1886H66.3299C65.5944 36.1886 65.0979 35.8296 64.804 35.4879C64.6603 35.3208 64.5622 35.1558 64.4995 35.0326C64.4678 34.9703 64.4442 34.9167 64.4276 34.8761C64.4193 34.8557 64.4127 34.8384 64.4077 34.8248L64.4013 34.807L64.399 34.8003L64.398 34.7974L64.3976 34.7961L64.3974 34.7955C64.3973 34.7954 64.3973 34.7953 64.4296 34.7845L64.3973 34.7952L63.7133 32.7442C63.5997 32.4037 63.7837 32.0356 64.1243 31.922Z" fill="#1895FF"/>
<path fill-rule="evenodd" clip-rule="evenodd" d="M68.2402 31.922C68.5807 31.8084 68.9488 31.9924 69.0624 32.333L69.7441 34.3772L69.7471 34.3847C69.7517 34.396 69.7606 34.4166 69.7742 34.4432C69.802 34.4979 69.8454 34.5702 69.9057 34.6403C70.0198 34.7731 70.1813 34.8886 70.4458 34.8886H71.4458C71.8048 34.8886 72.0958 35.1796 72.0958 35.5386C72.0958 35.8976 71.8048 36.1886 71.4458 36.1886H70.4458C69.7103 36.1886 69.2138 35.8296 68.9199 35.4879C68.7762 35.3208 68.6781 35.1558 68.6154 35.0326C68.5837 34.9703 68.5601 34.9167 68.5435 34.8761C68.5352 34.8557 68.5286 34.8384 68.5236 34.8248L68.5172 34.807L68.5149 34.8003L68.5139 34.7974L68.5135 34.7961L68.5133 34.7955C68.5132 34.7954 68.5132 34.7953 68.5455 34.7845L68.5132 34.7952L67.8292 32.7442C67.7156 32.4037 67.8996 32.0356 68.2402 31.922Z" fill="#1895FF"/>
<path fill-rule="evenodd" clip-rule="evenodd" d="M72.356 31.922C72.6965 31.8084 73.0647 31.9924 73.1782 32.333L73.86 34.3772L73.8629 34.3847C73.8675 34.396 73.8764 34.4166 73.89 34.4432C73.9178 34.4979 73.9612 34.5702 74.0215 34.6403C74.1356 34.7731 74.2971 34.8886 74.5616 34.8886H75.5616C75.9206 34.8886 76.2116 35.1796 76.2116 35.5386C76.2116 35.8976 75.9206 36.1886 75.5616 36.1886H74.5616C73.8261 36.1886 73.3296 35.8296 73.0358 35.4879C72.8921 35.3208 72.7939 35.1558 72.7312 35.0326C72.6996 34.9703 72.6759 34.9167 72.6594 34.8761C72.6511 34.8557 72.6444 34.8384 72.6394 34.8248L72.633 34.807L72.6307 34.8003L72.6297 34.7974L72.6293 34.7961L72.6291 34.7955C72.6291 34.7954 72.629 34.7953 72.6613 34.7845L72.629 34.7952L71.945 32.7442C71.8314 32.4037 72.0154 32.0356 72.356 31.922Z" fill="#1895FF"/>
<path fill-rule="evenodd" clip-rule="evenodd" d="M76.472 31.922C76.8125 31.8084 77.1807 31.9924 77.2942 32.333L77.976 34.3772L77.9789 34.3847C77.9835 34.396 77.9924 34.4166 78.006 34.4432C78.0338 34.4979 78.0772 34.5702 78.1375 34.6403C78.2516 34.7731 78.4131 34.8886 78.6776 34.8886H79.6776C80.0366 34.8886 80.3276 35.1796 80.3276 35.5386C80.3276 35.8976 80.0366 36.1886 79.6776 36.1886H78.6776C77.9421 36.1886 77.4456 35.8296 77.1518 35.4879C77.0081 35.3208 76.9099 35.1558 76.8472 35.0326C76.8156 34.9703 76.7919 34.9167 76.7754 34.8761C76.7671 34.8557 76.7604 34.8384 76.7554 34.8248L76.749 34.807L76.7467 34.8003L76.7457 34.7974L76.7453 34.7961L76.7451 34.7955C76.7451 34.7954 76.745 34.7953 76.7773 34.7845L76.745 34.7952L76.061 32.7442C75.9474 32.4037 76.1314 32.0356 76.472 31.922Z" fill="#1895FF"/>
</svg>
