<svg width="96" height="96" viewBox="0 0 96 96" fill="none" xmlns="http://www.w3.org/2000/svg">
<path fill-rule="evenodd" clip-rule="evenodd" d="M77.8329 71.7184L77.8159 71.6284V71.2424V71.0154C77.1829 71.0674 76.4719 71.1004 75.6479 71.1004C72.8209 71.1004 71.1929 70.7474 70.2559 70.3574C70.0829 70.2854 69.9399 70.2134 69.8109 70.1404C69.7909 70.1294 69.7709 70.1184 69.7529 70.1074C69.7079 70.0814 69.6629 70.0544 69.6229 70.0284C69.5919 70.0544 69.5579 70.0804 69.5339 70.1074H69.4079V72.9034V72.9054L69.4559 73.1314C69.6109 73.4864 70.5189 74.6464 75.6479 74.6464C76.4799 74.6464 77.1909 74.6134 77.8159 74.5604V74.2774V73.4244C77.3909 73.4614 76.9119 73.4894 76.3649 73.5024L71.3729 71.4224C72.4899 71.6614 73.9909 71.8094 75.6479 71.8094C76.4179 71.8094 77.1519 71.7764 77.8329 71.7184Z" fill="#1895FF"/>
<path fill-rule="evenodd" clip-rule="evenodd" d="M80.6281 67.1309H80.7521V67.1839C80.9811 67.1359 81.2111 67.0879 81.4531 67.0509C81.5891 67.0289 81.7321 67.0159 81.8711 66.9979L81.8791 66.5089L81.8821 66.2999C81.8821 66.2929 81.8871 66.2859 81.8871 66.2789C81.8871 66.2729 81.8831 66.2679 81.8831 66.2609L81.8871 65.9959H81.7621C81.6671 65.8899 81.5141 65.7879 81.3201 65.6909C81.2521 65.7249 81.1801 65.7589 81.1021 65.7919C80.9411 65.8619 80.7551 65.9299 80.5471 65.9959C80.5411 65.9979 80.5351 65.9999 80.5291 66.0019C79.5451 66.3129 78.0231 66.5629 75.6481 66.5629C73.2731 66.5629 71.7511 66.3129 70.7671 66.0019C70.7611 65.9999 70.7541 65.9979 70.7481 65.9959C70.5401 65.9299 70.3541 65.8619 70.1931 65.7919C70.1151 65.7589 70.0431 65.7249 69.9751 65.6909C69.7811 65.7879 69.6281 65.8899 69.5331 65.9959H69.4081V68.7909V68.7929L69.4551 69.0189C69.5061 69.1349 69.6411 69.3369 69.9731 69.5559C70.0431 69.6019 70.1241 69.6489 70.2131 69.6959C70.2761 69.7299 70.3411 69.7629 70.4151 69.7959C70.5881 69.8749 70.7901 69.9519 71.0291 70.0249C71.1211 70.0539 71.2241 70.0809 71.3271 70.1079C72.2491 70.3499 73.6121 70.5339 75.6481 70.5339C76.4801 70.5339 77.1911 70.5009 77.8161 70.4479V70.1659V70.1079V69.5189V69.3119C77.3911 69.3499 76.9121 69.3769 76.3651 69.3899L75.3741 68.9769H75.3721L74.4381 68.5879L71.3731 67.3099C72.4901 67.5499 73.9911 67.6969 75.6471 67.6969C77.6851 67.6969 79.4891 67.4739 80.6281 67.1309Z" fill="#1895FF"/>
<path fill-rule="evenodd" clip-rule="evenodd" d="M81.7614 61.4582C81.1834 60.8112 78.6664 60.3242 75.6474 60.3242C72.6284 60.3242 70.1114 60.8112 69.5334 61.4582H69.4074V64.2532L69.4084 64.2562L69.4554 64.4822C69.5244 64.6382 69.7374 64.9482 70.3894 65.2482C70.4994 65.2992 70.6264 65.3492 70.7634 65.3982C70.8304 65.4222 70.9014 65.4462 70.9754 65.4702C71.2184 65.5472 71.5024 65.6202 71.8284 65.6862C72.7264 65.8682 73.9534 65.9962 75.6474 65.9962C77.3434 65.9962 78.5694 65.8682 79.4674 65.6862C79.7924 65.6202 80.0764 65.5472 80.3194 65.4702C80.3934 65.4462 80.4644 65.4222 80.5314 65.3982C80.6684 65.3492 80.7954 65.2992 80.9064 65.2482C81.5574 64.9482 81.7704 64.6372 81.8394 64.4822L81.8784 61.9722L81.8824 61.7622C81.8824 61.7552 81.8864 61.7492 81.8864 61.7422C81.8864 61.7362 81.8834 61.7302 81.8824 61.7242L81.8864 61.4582H81.7614ZM76.3654 64.8532L75.3814 64.4432L71.3734 62.7732C72.4904 63.0122 73.9914 63.1602 75.6474 63.1602C77.6864 63.1602 79.4914 62.9362 80.6304 62.5932H80.7524V64.0352C80.5704 64.1712 80.0374 64.4702 78.7194 64.6692C78.1144 64.7602 77.3454 64.8302 76.3654 64.8532Z" fill="#1895FF"/>
<path fill-rule="evenodd" clip-rule="evenodd" d="M90.7187 77.0372H90.5937C90.5697 77.0102 90.5357 76.9832 90.5047 76.9572C90.4637 76.9832 90.4187 77.0102 90.3727 77.0372C90.3547 77.0482 90.3357 77.0582 90.3167 77.0692C90.1877 77.1412 90.0437 77.2142 89.8707 77.2862C88.9337 77.6762 87.3057 78.0282 84.4797 78.0282C81.6537 78.0282 80.0257 77.6752 79.0887 77.2862C78.9157 77.2142 78.7717 77.1412 78.6427 77.0692C78.6237 77.0582 78.6047 77.0482 78.5867 77.0372C78.5407 77.0102 78.4957 76.9832 78.4547 76.9572C78.4237 76.9832 78.3897 77.0102 78.3647 77.0372H78.2407V77.3192V77.3202C78.2407 77.3202 78.2407 77.3202 78.2407 77.3212V77.5502V79.8312L78.2887 80.0592C78.4437 80.4142 79.3507 81.5742 84.4797 81.5742C89.6087 81.5742 90.5157 80.4142 90.6707 80.0592L90.7107 77.5502L90.7137 77.3422C90.7147 77.3342 90.7187 77.3272 90.7187 77.3202C90.7187 77.3132 90.7147 77.3072 90.7147 77.3012L90.7187 77.0372ZM89.5847 78.1722V79.6132C89.3197 79.8122 88.3127 80.3572 85.1967 80.4312L80.2067 78.3512C81.3237 78.5902 82.8247 78.7382 84.4797 78.7382C86.5177 78.7382 88.3217 78.5152 89.4597 78.1722H89.5847Z" fill="#1895FF"/>
<path fill-rule="evenodd" clip-rule="evenodd" d="M90.7187 72.9249H90.5937C90.4987 72.8179 90.3467 72.7169 90.1517 72.6199C90.0847 72.6539 90.0117 72.6869 89.9337 72.7209C89.7727 72.7909 89.5867 72.8589 89.3787 72.9249C89.3727 72.9269 89.3667 72.9289 89.3607 72.9299C88.3767 73.2409 86.8547 73.4909 84.4797 73.4909C83.6437 73.4909 82.9227 73.4579 82.2827 73.4039C82.1457 73.3929 82.0067 73.3809 81.8777 73.3679C81.8167 73.3609 81.7547 73.3549 81.6957 73.3479C81.5817 73.3349 81.4767 73.3199 81.3697 73.3049C80.8307 73.2319 80.3667 73.1419 79.9787 73.0409C79.8427 73.0049 79.7187 72.9679 79.5987 72.9309C79.5927 72.9289 79.5867 72.9269 79.5807 72.9249C79.3727 72.8589 79.1867 72.7909 79.0247 72.7209C78.9477 72.6869 78.8747 72.6539 78.8067 72.6199C78.6127 72.7169 78.4607 72.8179 78.3657 72.9249H78.2407V73.2069V73.2079C78.2407 73.2079 78.2407 73.2079 78.2407 73.2089V73.3809V73.4379V74.2349V74.5209V74.6629V75.0899V75.3579V75.3589V75.7189L78.2887 75.9469C78.3397 76.0629 78.4737 76.2649 78.8057 76.4839C78.8757 76.5299 78.9567 76.5769 79.0457 76.6249C79.1087 76.6579 79.1747 76.6909 79.2477 76.7249C79.4207 76.8029 79.6227 76.8799 79.8617 76.9539C79.9547 76.9829 80.0597 77.0099 80.1637 77.0369C81.0867 77.2789 82.4477 77.4619 84.4797 77.4619C86.5117 77.4619 87.8727 77.2789 88.7957 77.0369C88.8997 77.0099 89.0047 76.9829 89.0987 76.9539C89.3367 76.8799 89.5387 76.8029 89.7107 76.7249C89.7847 76.6909 89.8507 76.6579 89.9137 76.6249C90.0027 76.5769 90.0827 76.5309 90.1527 76.4839C90.4857 76.2649 90.6197 76.0629 90.6707 75.9469L90.7107 73.4379L90.7137 73.2299C90.7147 73.2229 90.7187 73.2149 90.7187 73.2079C90.7187 73.2019 90.7147 73.1949 90.7147 73.1889L90.7187 72.9249ZM89.5847 74.0599V75.5009C89.4617 75.5929 89.1767 75.7609 88.5957 75.9209C88.3567 75.9869 88.0637 76.0519 87.7147 76.1089C87.6587 76.1179 87.6007 76.1269 87.5427 76.1359C86.9387 76.2259 86.1717 76.2959 85.1967 76.3189L84.2057 75.9059L84.2037 75.9049L83.2697 75.5159L80.8917 74.5249L80.2957 74.2769L80.2047 74.2389C80.2467 74.2479 80.2897 74.2569 80.3327 74.2659C80.5947 74.3179 80.8747 74.3669 81.1727 74.4089C82.1327 74.5459 83.2637 74.6259 84.4797 74.6259C86.5177 74.6259 88.3217 74.4029 89.4607 74.0599H89.5847Z" fill="#1895FF"/>
<path fill-rule="evenodd" clip-rule="evenodd" d="M82.3033 67.3428C82.1623 67.3548 82.0233 67.3678 81.8863 67.3818C81.8793 67.3828 81.8723 67.3828 81.8653 67.3838C81.7263 67.3988 81.5883 67.4138 81.4543 67.4308C81.2093 67.4618 80.9763 67.4968 80.7523 67.5348C79.5483 67.7398 78.6753 68.0398 78.3653 68.3868H78.2403V68.6698V68.6708V68.7178V68.8998V69.1028V69.1378V69.2688V69.5698V70.1078V70.1218V70.4088V70.5508V70.8198V70.8208V70.9768V71.1818L78.2533 71.2418L78.2883 71.4088C78.3153 71.4708 78.3673 71.5568 78.4573 71.6568C78.5953 71.8098 78.8263 71.9948 79.2223 72.1768C79.3323 72.2268 79.4593 72.2778 79.5963 72.3268C79.6633 72.3508 79.7343 72.3748 79.8083 72.3988C80.0513 72.4758 80.3353 72.5488 80.6603 72.6148C80.6923 72.6208 80.7203 72.6278 80.7523 72.6338C80.9683 72.6758 81.2053 72.7138 81.4603 72.7488C81.5823 72.7658 81.7123 72.7798 81.8443 72.7948C81.8593 72.7968 81.8723 72.7988 81.8863 72.7998C82.0153 72.8138 82.1513 72.8258 82.2893 72.8378C82.9193 72.8908 83.6373 72.9248 84.4793 72.9248C86.1743 72.9248 87.4013 72.7968 88.2993 72.6148C88.6243 72.5488 88.9083 72.4758 89.1513 72.3988C89.2253 72.3748 89.2953 72.3508 89.3623 72.3268C89.4993 72.2778 89.6273 72.2268 89.7373 72.1768C90.3893 71.8768 90.6023 71.5648 90.6713 71.4088L90.7103 68.8998L90.7143 68.6918C90.7143 68.6848 90.7193 68.6778 90.7193 68.6708C90.7193 68.6638 90.7153 68.6578 90.7143 68.6508L90.7183 68.3868H90.5933C90.0153 67.7398 87.4983 67.2528 84.4793 67.2528C83.7133 67.2528 82.9823 67.2848 82.3033 67.3428ZM85.1973 71.7818L84.2143 71.3718L82.3093 70.5778L81.8843 70.4008L81.8823 70.3998L81.6733 70.3128L81.3893 70.1948L81.1803 70.1078L80.8533 69.9718L80.6563 69.8898L80.2703 69.7288L80.2053 69.7018C80.2353 69.7078 80.2653 69.7138 80.2963 69.7198C80.4653 69.7548 80.6413 69.7878 80.8273 69.8188C80.8823 69.8278 80.9343 69.8378 80.9903 69.8458C81.0253 69.8518 81.0623 69.8558 81.0973 69.8608C81.2363 69.8818 81.3783 69.9018 81.5253 69.9198C81.6103 69.9298 81.7003 69.9388 81.7883 69.9478C81.8223 69.9518 81.8553 69.9558 81.8893 69.9588C82.6783 70.0408 83.5543 70.0888 84.4793 70.0888C86.5193 70.0888 88.3243 69.8648 89.4623 69.5208H89.5843V70.9628C89.4033 71.0998 88.8703 71.3988 87.5523 71.5978C86.9473 71.6888 86.1773 71.7588 85.1973 71.7818Z" fill="#1895FF"/>
<path fill-rule="evenodd" clip-rule="evenodd" d="M71.8031 75.9733C71.2261 75.3263 68.7081 74.8383 65.6891 74.8383C62.6691 74.8383 60.1521 75.3263 59.5751 75.9733H59.4501V76.2553C59.4501 76.2563 59.4501 76.2563 59.4501 76.2563C59.4501 76.2573 59.4501 76.2573 59.4501 76.2573V76.4863V78.4063V78.4073V78.7683L59.4981 78.9963C59.6531 79.3513 60.5601 80.5103 65.6891 80.5103C70.8171 80.5103 71.7251 79.3523 71.8801 78.9973L71.9201 76.4863L71.9231 76.2783C71.9241 76.2713 71.9281 76.2643 71.9281 76.2563C71.9281 76.2503 71.9241 76.2443 71.9241 76.2373L71.9281 75.9733H71.8031ZM70.7931 77.1083V78.5503C70.5281 78.7493 69.5201 79.2943 66.4051 79.3673L61.4141 77.2873C62.5311 77.5273 64.0321 77.6743 65.6891 77.6743C67.7271 77.6743 69.5321 77.4513 70.6711 77.1083H70.7931Z" fill="#1895FF"/>
<path fill-rule="evenodd" clip-rule="evenodd" d="M78.282 40.1686C80.3423 38.6666 81.4605 37.4876 81.4605 36.1296C81.4605 34.5452 80.128 33.5933 78.4251 33.5933C77.3174 33.5933 76.1384 33.998 75.3642 34.8907L76.3288 36.0097C76.8647 35.4498 77.5557 35.093 78.4611 35.093C79.1162 35.093 79.7472 35.4266 79.7472 36.1296C79.7472 37.1062 78.7946 37.9164 75.5419 40.323V41.6555H81.5198V40.1686H78.282Z" fill="#1895FF"/>
<path fill-rule="evenodd" clip-rule="evenodd" d="M70.2181 36.2253L71.1827 37.2378L72.5048 35.8918V41.6553H74.1949V33.713H72.7199L70.2181 36.2253Z" fill="#1895FF"/>
<path fill-rule="evenodd" clip-rule="evenodd" d="M14.2789 41.0685C14.2789 40.4306 14.796 39.9135 15.4339 39.9135H19.2219C19.8598 39.9135 20.3769 40.4306 20.3769 41.0685V47.9295C20.3769 48.5674 19.8598 49.0845 19.2219 49.0845H15.4339C14.796 49.0845 14.2789 48.5674 14.2789 47.9295V41.0685ZM16.5889 42.2235V46.7745H18.0669V42.2235H16.5889Z" fill="#1895FF"/>
<path fill-rule="evenodd" clip-rule="evenodd" d="M36.5303 41.0685C36.5303 40.4306 37.0474 39.9135 37.6853 39.9135H41.4733C42.1112 39.9135 42.6283 40.4306 42.6283 41.0685V47.9295C42.6283 48.5674 42.1112 49.0845 41.4733 49.0845H37.6853C37.0474 49.0845 36.5303 48.5674 36.5303 47.9295V41.0685ZM38.8403 42.2235V46.7745H40.3183V42.2235H38.8403Z" fill="#1895FF"/>
<path fill-rule="evenodd" clip-rule="evenodd" d="M25.4046 41.0685C25.4046 40.4306 25.9217 39.9135 26.5596 39.9135H30.3476C30.9855 39.9135 31.5026 40.4306 31.5026 41.0685V47.9295C31.5026 48.5674 30.9855 49.0845 30.3476 49.0845H26.5596C25.9217 49.0845 25.4046 48.5674 25.4046 47.9295V41.0685ZM27.7146 42.2235V46.7745H29.1926V42.2235H27.7146Z" fill="#1895FF"/>
<path fill-rule="evenodd" clip-rule="evenodd" d="M6.0195 26.0054C6.0195 24.8818 6.93038 23.9709 8.054 23.9709H48.854C49.9776 23.9709 50.8885 24.8818 50.8885 26.0054V77.0054C50.8885 78.1291 49.9776 79.0399 48.854 79.0399H8.054C6.93038 79.0399 6.0195 78.1291 6.0195 77.0054V26.0054ZM10.0885 28.0399V74.9709H46.8195V28.0399H10.0885Z" fill="#1C3553"/>
<path fill-rule="evenodd" clip-rule="evenodd" d="M15.4339 54.4605H19.2219C19.6278 54.4605 19.9569 54.7896 19.9569 55.1955V62.0565C19.9569 62.4624 19.6278 62.7915 19.2219 62.7915H15.4339C15.028 62.7915 14.6989 62.4624 14.6989 62.0565V55.1955H15.4339V54.4605ZM16.1689 55.9305V61.3215H18.4869V55.9305H16.1689Z" fill="#1C3553"/>
<path fill-rule="evenodd" clip-rule="evenodd" d="M37.6853 54.4605H41.4733C41.8792 54.4605 42.2083 54.7896 42.2083 55.1955V62.0565C42.2083 62.4624 41.8792 62.7915 41.4733 62.7915H37.6853C37.2794 62.7915 36.9503 62.4624 36.9503 62.0565V55.1955H37.6853V54.4605ZM38.4203 55.9305V61.3215H40.7383V55.9305H38.4203Z" fill="#1C3553"/>
<path fill-rule="evenodd" clip-rule="evenodd" d="M26.5596 54.4605H30.3476C30.7535 54.4605 31.0826 54.7896 31.0826 55.1955V62.0565C31.0826 62.4624 30.7535 62.7915 30.3476 62.7915H26.5596C26.1537 62.7915 25.8246 62.4624 25.8246 62.0565V55.1955H26.5596V54.4605ZM27.2946 55.9305V61.3215H29.6126V55.9305H27.2946Z" fill="#1C3553"/>
<path fill-rule="evenodd" clip-rule="evenodd" d="M50.9076 20.6718C50.9076 19.9638 50.3556 19.3888 49.6736 19.3888H20.8816C20.9146 18.2398 20.9216 17.0898 20.8856 15.9398C20.8716 15.5008 20.3806 15.1708 19.7066 15.0498C19.7006 15.0488 19.6966 15.0488 19.6896 15.0478C19.6376 15.0388 19.5856 15.0298 19.5316 15.0248C19.5286 15.0238 19.5256 15.0238 19.5226 15.0228C19.4646 15.0168 19.4076 15.0118 19.3476 15.0068H19.3416C19.2876 15.0038 19.2326 15.0018 19.1776 15.0018C19.1696 15.0008 19.1616 15.0008 19.1526 14.9998C19.1416 14.9998 19.1326 15.0008 19.1216 15.0008C19.1056 15.0008 19.0886 14.9998 19.0696 14.9998C19.0556 15.0008 19.0436 15.0018 19.0296 15.0028C18.0616 15.0228 17.3676 15.4288 17.3416 16.0338C17.3156 16.6338 17.3356 17.2358 17.3356 17.8368C17.3356 18.3548 17.3296 18.8718 17.3366 19.3888H15.4776C15.5106 18.2398 15.5176 17.0898 15.4816 15.9398C15.4676 15.5008 14.9766 15.1708 14.3026 15.0498C14.2966 15.0488 14.2916 15.0488 14.2856 15.0478C14.2336 15.0388 14.1816 15.0298 14.1276 15.0248C14.1246 15.0238 14.1216 15.0238 14.1186 15.0228C14.0606 15.0168 14.0036 15.0118 13.9436 15.0068H13.9376C13.8836 15.0038 13.8286 15.0018 13.7736 15.0018C13.7656 15.0008 13.7576 15.0008 13.7486 14.9998C13.7376 14.9998 13.7286 15.0008 13.7176 15.0008C13.7006 15.0008 13.6836 14.9998 13.6656 14.9998C13.6516 15.0008 13.6396 15.0018 13.6256 15.0028C12.6576 15.0228 11.9636 15.4288 11.9376 16.0338C11.9116 16.6338 11.9316 17.2358 11.9316 17.8368C11.9316 18.3548 11.9256 18.8718 11.9326 19.3888H7.2336C6.5526 19.3888 5.9996 19.9638 5.9996 20.6718C5.9996 21.3798 6.5526 21.9548 7.2336 21.9548H49.6736C50.3556 21.9548 50.9076 21.3798 50.9076 20.6718Z" fill="#1C3553"/>
<path fill-rule="evenodd" clip-rule="evenodd" d="M60.8 25.0744C60.8 24.1355 61.5611 23.3744 62.5 23.3744H89.5C90.4389 23.3744 91.2 24.1355 91.2 25.0744V45.0744C91.2 46.0133 90.4389 46.7744 89.5 46.7744H62.5C61.5611 46.7744 60.8 46.0133 60.8 45.0744V25.0744ZM63.2 25.7744V44.3744H88.8V25.7744H63.2Z" fill="#1C3553"/>
<path fill-rule="evenodd" clip-rule="evenodd" d="M61.7953 29.3H90.7179V31.7H61.7953V29.3Z" fill="#1C3553"/>
<path fill-rule="evenodd" clip-rule="evenodd" d="M85 22.1C85.4971 22.1 85.9 22.503 85.9 23V26C85.9 26.4971 85.4971 26.9 85 26.9C84.5029 26.9 84.1 26.4971 84.1 26V23C84.1 22.503 84.5029 22.1 85 22.1Z" fill="#1C3553"/>
<path fill-rule="evenodd" clip-rule="evenodd" d="M67 22.1C67.4971 22.1 67.9 22.503 67.9 23V26C67.9 26.4971 67.4971 26.9 67 26.9C66.5029 26.9 66.1 26.4971 66.1 26V23C66.1 22.503 66.5029 22.1 67 22.1Z" fill="#1C3553"/>
</svg>
