<svg width="96" height="96" viewBox="0 0 96 96" fill="none" xmlns="http://www.w3.org/2000/svg">
<path fill-rule="evenodd" clip-rule="evenodd" d="M47.4607 19.0448C48.6428 18.9322 49.5641 19.5674 50.1843 20.1502L48.8147 21.6076L50.1833 20.1493C50.1837 20.1496 50.184 20.1499 50.1843 20.1502C50.9268 20.8471 53.5583 23.3143 56.872 26.4212C63.8716 32.984 73.9155 42.4009 75.6314 44.0164L74.2606 45.4727L75.6315 44.0165C75.638 44.0225 75.6447 44.0288 75.6518 44.0355C75.851 44.2226 76.2966 44.6411 76.5822 45.2185C76.9542 45.9706 77.0011 46.8446 76.629 47.7069M47.4607 19.0448C46.2796 18.9323 45.3581 19.566 44.737 20.1493L47.4607 19.0448ZM47.4602 23.0793C48.2236 23.7958 50.8505 26.2587 54.1509 29.3532C60.0365 34.8714 68.0643 42.398 71.4874 45.6114C70.4122 45.61 69.338 45.6127 68.2653 45.6177C67.5576 45.6208 66.4744 45.7257 65.6483 46.5547C64.8216 47.3843 64.7222 48.4677 64.7216 49.1699V49.1714C64.721 54.5023 64.7212 59.8337 64.7214 65.1648C64.7215 67.7322 64.7216 70.2996 64.7216 72.8667C59.8719 72.8677 35.0521 72.8677 30.1997 72.8667C30.1992 68.9744 30.1992 65.0818 30.1992 61.189V61.1662C30.1992 57.168 30.1992 53.1697 30.1987 49.1717M47.4602 23.0793C46.6967 23.7958 44.0699 26.2587 40.7694 29.3532C34.8838 34.8714 26.8561 42.398 23.433 45.6114C24.5081 45.61 25.5823 45.6127 26.6551 45.6177C27.3627 45.6208 28.4459 45.7257 29.2721 46.5544C30.0994 47.3843 30.1987 48.4681 30.1987 49.1714M44.7361 20.1502C43.9938 20.8469 41.3637 23.3128 38.0514 26.4184L44.7361 20.1502ZM38.0514 26.4184C31.0516 32.9812 21.0051 42.4007 19.2889 44.0164L38.0514 26.4184ZM19.2888 44.0165C19.2824 44.0225 19.2756 44.0288 19.2686 44.0355C19.0693 44.2226 18.6237 44.6411 18.3382 45.2185C17.9663 45.9703 17.9193 46.844 18.2909 47.7058C18.6284 48.4901 19.2112 49.0455 19.9316 49.3447C20.555 49.6036 21.1693 49.6211 21.5351 49.6186C21.5349 49.6186 21.5348 49.6186 21.5346 49.6186L21.5217 47.6187L21.5351 49.6186M26.1988 49.6157C26.1992 53.4657 26.1992 57.3159 26.1992 61.1662C26.1992 65.1643 26.1992 69.1626 26.1997 73.1607M21.858 47.1008C21.8567 47.1025 21.8559 47.1034 21.8559 47.1034C21.8559 47.1034 21.8566 47.1025 21.858 47.1008ZM68.7216 49.6157C68.721 54.7984 68.7212 59.9813 68.7214 65.1643C68.7215 67.8297 68.7216 70.4952 68.7216 73.1607C68.7216 73.8167 68.6962 75.0629 67.778 75.9612C66.876 76.8437 65.6399 76.8667 64.9771 76.8667M68.7216 49.6157C70.2785 49.6094 71.8327 49.6086 73.3853 49.6186L68.7216 49.6157ZM26.1997 73.1609C26.1997 73.8171 26.2253 75.0627 27.1429 75.9608L26.1997 73.1609ZM27.1429 75.9608C28.0448 76.8436 29.2808 76.8667 29.9432 76.8667L27.1429 75.9608ZM29.9437 76.8667C34.1774 76.8677 60.743 76.8677 64.9766 76.8667H29.9437Z" fill="#1C3553"/>
<path fill-rule="evenodd" clip-rule="evenodd" d="M65.9622 48.2329L74.3822 47.3969L55.9382 30.3969V45.7289H21.3823L28.6653 49.7098L28.3823 55.8328H46.1593V62.6628H65.6442L65.9622 48.2329Z" fill="#1895FF"/>
</svg>
