<svg width="96" height="96" viewBox="0 0 96 96" fill="none" xmlns="http://www.w3.org/2000/svg">
<path fill-rule="evenodd" clip-rule="evenodd" d="M28.5 64V76.604H66.5V64" fill="#1895FF"/>
<path fill-rule="evenodd" clip-rule="evenodd" d="M26.5 76.604V64H30.5V74.604H64.5V64H68.5V76.604C68.5 77.7086 67.6046 78.604 66.5 78.604H28.5C27.3954 78.604 26.5 77.7086 26.5 76.604Z" fill="#1C3553"/>
<path fill-rule="evenodd" clip-rule="evenodd" d="M26.5 76.604V64H30.5V74.604H64.5V64H68.5V76.604C68.5 77.7086 67.6046 78.604 66.5 78.604H28.5C27.3954 78.604 26.5 77.7086 26.5 76.604Z" fill="#1C3553"/>
<path fill-rule="evenodd" clip-rule="evenodd" d="M50.1488 19.1147C49.5286 18.5322 48.6077 17.8976 47.4261 18.0101L50.1488 19.1147ZM76.595 46.6712C76.2575 47.4555 75.6747 48.0109 74.9543 48.3101C74.3309 48.569 73.7166 48.5865 73.3508 48.584C73.3506 48.584 73.3509 48.584 73.3508 48.584C71.7982 48.574 70.2441 48.5748 68.6871 48.5811C68.6871 48.4387 68.6871 48.2913 68.6871 48.1388C68.6873 47.9924 68.6983 47.9339 68.698 47.9338C68.6979 47.9338 68.6969 47.9383 68.6946 47.9466C68.6854 47.9798 68.6609 48.0505 68.6088 48.1373L66.6871 48.1371L68.608 48.1387C68.5703 48.2013 68.5182 48.2723 68.4472 48.3435C68.3785 48.4125 68.31 48.4637 68.2491 48.5012C68.2493 48.5011 68.2489 48.5014 68.2491 48.5012C68.1597 48.5562 68.0861 48.5822 68.0527 48.5916C68.0448 48.5939 68.0405 48.5948 68.0405 48.5949C68.0406 48.5952 68.0999 48.5837 68.2488 48.583C68.3947 48.5824 68.5412 48.5817 68.6871 48.5811C68.6866 52.5035 68.6866 52.6762 68.6868 53.1957C68.6869 53.6463 68.6871 54.3576 68.6871 58.0017C68.6871 59.1063 67.7917 60.0017 66.6871 60.0017C65.5826 60.0017 64.6871 59.1063 64.6871 58.0017C64.6871 54.3617 64.6869 53.6492 64.6868 53.1976C64.6866 52.6575 64.6866 52.4907 64.6871 48.1368V48.1353C64.6877 47.4331 64.7871 46.3497 65.6138 45.5201C66.4401 44.6908 67.5238 44.5861 68.2315 44.5831M70.9211 44.5764C71.4015 45.0639 71.8209 45.4971 72.1677 45.8649C72.5373 46.257 72.7935 46.5429 72.944 46.7256C72.9999 46.7935 73.0228 46.8251 73.0253 46.8281C73.0264 46.8295 73.0232 46.8249 73.0169 46.8151C73.0116 46.8067 72.9498 46.7122 72.8906 46.5618C72.8608 46.4863 72.8059 46.3331 72.778 46.1276C72.7543 45.9523 72.7309 45.6011 72.8795 45.194C72.8919 45.1599 72.9056 45.1253 72.9206 45.0904C72.9205 45.0906 72.9207 45.0902 72.9206 45.0904C72.921 45.0896 72.9216 45.0882 72.9219 45.0873C72.948 45.0278 73.0044 44.9283 73.1084 44.8256C73.1985 44.7366 73.294 44.6752 73.3767 44.6355C73.3765 44.6355 73.3768 44.6354 73.3767 44.6355C73.3914 44.6284 73.4061 44.6218 73.4199 44.6161C73.4731 44.594 73.5125 44.5841 73.5306 44.5803C73.5409 44.5781 73.5443 44.5779 73.5394 44.5786C73.5373 44.5788 73.5347 44.5791 73.5315 44.5795C73.5107 44.5816 73.464 44.5847 73.3775 44.5841C72.5583 44.5788 71.7392 44.5765 70.9211 44.5764ZM47.4261 18.0101C46.2451 17.8977 45.3235 18.5313 44.7024 19.1147C43.9612 19.8104 41.3292 22.2781 38.0143 25.3861C31.0147 31.9488 20.9703 41.3663 19.2543 42.9818M47.4256 22.0447C46.6623 22.761 44.0364 25.2231 40.7367 28.3167C34.851 33.8351 26.8219 41.3631 23.3984 44.5768C24.4733 44.5754 25.5472 44.5781 26.6198 44.5831M19.2543 42.9818C19.2479 42.9878 19.241 42.9942 19.234 43.0009L19.2543 42.9818ZM19.234 43.0009C19.0347 43.188 18.5891 43.6065 18.3035 44.1839L19.234 43.0009ZM18.3035 44.1839C17.9317 44.9357 17.8847 45.8093 18.2563 46.6712L18.3035 44.1839ZM18.2563 46.6712C18.5937 47.4555 19.1766 48.0109 19.8969 48.3101C20.5204 48.569 21.1347 48.5865 21.5005 48.584C21.5003 48.584 21.5006 48.584 21.5005 48.584M26.1642 48.5811L26.1651 58.002C26.1653 59.1065 27.0608 60.0018 28.1654 60.0017C29.2699 60.0016 30.1653 59.106 30.1651 58.0014L30.1641 48.1371C30.1641 47.4337 30.0648 46.3496 29.2375 45.5198C28.4113 44.691 27.3274 44.5862 26.6198 44.5831M26.1642 48.5811L26.1641 48.1373C26.1641 47.9916 26.1532 47.9332 26.1535 47.9331C26.1536 47.9331 26.1546 47.9377 26.157 47.9462C26.1662 47.9796 26.1907 48.0503 26.2427 48.1371C26.2428 48.1371 26.2427 48.137 26.2427 48.1371C26.2806 48.2002 26.3331 48.272 26.4047 48.3438C26.4733 48.4126 26.5415 48.4636 26.6021 48.501C26.6024 48.5012 26.6019 48.5009 26.6021 48.501C26.6918 48.5563 26.7656 48.5823 26.7989 48.5917C26.8067 48.5939 26.8109 48.5948 26.8109 48.5949C26.8109 48.5952 26.7515 48.5837 26.6025 48.583C26.4566 48.5824 26.31 48.5817 26.1642 48.5811Z" fill="#1C3553"/>
<path fill-rule="evenodd" clip-rule="evenodd" d="M53.6853 50.4595H57.4733C57.8792 50.4595 58.2083 50.7885 58.2083 51.1945V58.0555C58.2083 58.4614 57.8792 58.7905 57.4733 58.7905H53.6853C53.2794 58.7905 52.9503 58.4614 52.9503 58.0555V51.1945H53.6853V50.4595ZM54.4203 51.9295V57.3205H56.7383V51.9295H54.4203Z" fill="#1C3553"/>
<path fill-rule="evenodd" clip-rule="evenodd" d="M37.5596 50.4595H41.3476C41.7535 50.4595 42.0826 50.7885 42.0826 51.1945V58.0555C42.0826 58.4614 41.7535 58.7905 41.3476 58.7905H37.5596C37.1537 58.7905 36.8246 58.4614 36.8246 58.0555V51.1945H37.5596V50.4595ZM38.2946 51.9295V57.3205H40.6126V51.9295H38.2946Z" fill="#1C3553"/>
<path fill-rule="evenodd" clip-rule="evenodd" d="M20.5304 63.9998C20.5304 63.1882 21.1883 62.5303 21.9999 62.5303H74.942C75.7536 62.5303 76.4115 63.1882 76.4115 63.9998C76.4115 64.8114 75.7536 65.4693 74.942 65.4693H21.9999C21.1883 65.4693 20.5304 64.8114 20.5304 63.9998Z" fill="#1C3553"/>
</svg>
