<svg width="96" height="96" viewBox="0 0 96 96" fill="none" xmlns="http://www.w3.org/2000/svg">
<path fill-rule="evenodd" clip-rule="evenodd" d="M11.0194 24.0048C11.0194 22.8812 11.9303 21.9703 13.0539 21.9703H53.8539C54.9775 21.9703 55.8884 22.8812 55.8884 24.0048V55.6937C55.8884 56.8173 54.9775 57.7282 53.8539 57.7282C52.7303 57.7282 51.8194 56.8173 51.8194 55.6937V26.0393H15.0884V72.9711H22.5889C23.7125 72.9711 24.6234 73.882 24.6234 75.0056C24.6234 76.1292 23.7125 77.0401 22.5889 77.0401H13.0539C11.9303 77.0401 11.0194 76.1292 11.0194 75.0056V24.0048Z" fill="#1C3553"/>
<path fill-rule="evenodd" clip-rule="evenodd" d="M55.9076 18.6719C55.9076 17.9639 55.3556 17.3889 54.6736 17.3889H25.8816C25.9146 16.2399 25.9216 15.0899 25.8856 13.9399C25.8716 13.5009 25.3806 13.1709 24.7066 13.0499C24.7006 13.0489 24.6966 13.0489 24.6896 13.0479C24.6376 13.0389 24.5856 13.0299 24.5316 13.0249C24.5286 13.0239 24.5256 13.0239 24.5226 13.0229C24.4646 13.0169 24.4076 13.0119 24.3476 13.0069H24.3416C24.2876 13.0039 24.2326 13.0019 24.1776 13.0019C24.1696 13.0009 24.1616 13.0009 24.1526 12.9999C24.1416 12.9999 24.1326 13.0009 24.1216 13.0009C24.1056 13.0009 24.0886 12.9999 24.0696 12.9999C24.0556 13.0009 24.0436 13.0019 24.0296 13.0029C23.0616 13.0229 22.3676 13.4289 22.3416 14.0339C22.3156 14.6339 22.3356 15.2359 22.3356 15.8369C22.3356 16.3549 22.3296 16.8719 22.3366 17.3889H20.4776C20.5106 16.2399 20.5176 15.0899 20.4816 13.9399C20.4676 13.5009 19.9766 13.1709 19.3026 13.0499C19.2966 13.0489 19.2916 13.0489 19.2856 13.0479C19.2336 13.0389 19.1816 13.0299 19.1276 13.0249C19.1246 13.0239 19.1216 13.0239 19.1186 13.0229C19.0606 13.0169 19.0036 13.0119 18.9436 13.0069H18.9376C18.8836 13.0039 18.8286 13.0019 18.7736 13.0019C18.7656 13.0009 18.7576 13.0009 18.7486 12.9999C18.7376 12.9999 18.7286 13.0009 18.7176 13.0009C18.7006 13.0009 18.6836 12.9999 18.6656 12.9999C18.6516 13.0009 18.6396 13.0019 18.6256 13.0029C17.6576 13.0229 16.9636 13.4289 16.9376 14.0339C16.9116 14.6339 16.9316 15.2359 16.9316 15.8369C16.9316 16.3549 16.9256 16.8719 16.9326 17.3889H12.2336C11.5526 17.3889 10.9996 17.9639 10.9996 18.6719C10.9996 19.3799 11.5526 19.9549 12.2336 19.9549H54.6736C55.3556 19.9549 55.9076 19.3799 55.9076 18.6719Z" fill="#1C3553"/>
<path fill-rule="evenodd" clip-rule="evenodd" d="M73.3759 52.0418C73.639 51.5512 74.1505 51.2451 74.7071 51.2451H76.2981C76.8549 51.2451 77.3665 51.5514 77.6295 52.0421L79.1515 54.8821C79.1945 54.9624 79.2301 55.0463 79.258 55.133L84.4457 71.2585L85.6049 72.1702C86.0327 72.5067 86.2464 73.0472 86.1643 73.5853L84.6711 73.3575C86.1643 73.5853 86.1643 73.5857 86.1642 73.5863L86.1635 73.5907L86.1621 73.5998L86.1575 73.6287C86.1536 73.6526 86.148 73.6859 86.1407 73.7278C86.1262 73.8116 86.1047 73.9303 86.0753 74.0789C86.0167 74.3758 85.9265 74.7939 85.798 75.2933C85.5424 76.286 85.1281 77.6283 84.4936 78.9863C83.2769 81.5908 80.9499 84.847 76.8691 84.847H74.1361C70.0553 84.847 67.7283 81.5908 66.5116 78.9863C65.8771 77.6283 65.4628 76.286 65.2072 75.2933C65.0787 74.7939 64.9885 74.3758 64.9299 74.0789C64.9005 73.9303 64.879 73.8116 64.8645 73.7278C64.8572 73.6859 64.8517 73.6526 64.8478 73.6287L64.8431 73.5998L64.8417 73.5907L64.841 73.5863C64.841 73.5857 64.8409 73.5853 66.3341 73.3575L64.8409 73.5853C64.7588 73.0472 64.9725 72.5067 65.4003 72.1702L66.5595 71.2586L71.7462 55.1331C71.7741 55.0463 71.8098 54.9621 71.8529 54.8817L73.3759 52.0418ZM67.9954 73.9726C68.0339 74.1422 68.0795 74.3327 68.1329 74.5402C68.3589 75.4184 68.7176 76.5709 69.2486 77.7076C70.3629 80.0927 71.9369 81.826 74.1361 81.826H76.8691C79.0683 81.826 80.6423 80.0927 81.7566 77.7076C82.2876 76.5709 82.6463 75.4184 82.8724 74.5402C82.9258 74.3327 82.9713 74.1422 83.0098 73.9726L82.2153 73.3478C81.9789 73.1618 81.8033 72.9095 81.7112 72.6231L76.4241 56.1885L75.5024 54.4687L74.5801 56.1886L69.2941 72.623C69.2019 72.9094 69.0264 73.1618 68.7899 73.3478L67.9954 73.9726Z" fill="#1C3553"/>
<path fill-rule="evenodd" clip-rule="evenodd" d="M73.7172 50.7514C74.0042 50.4037 74.4314 50.2024 74.8822 50.2024H76.1222C76.573 50.2024 77.0002 50.4037 77.2872 50.7514L78.4732 52.1884C78.5974 52.3389 78.6913 52.5121 78.7496 52.6983L82.764 65.513L83.5944 66.1838C84.0107 66.52 84.218 67.0515 84.1393 67.5808L82.6452 67.3588C84.1393 67.5808 84.1394 67.5803 84.1393 67.5808L84.1386 67.5858L84.1374 67.5937L84.1335 67.6181C84.1304 67.6382 84.1259 67.6657 84.1201 67.7002C84.1084 67.7691 84.0913 67.8661 84.068 67.9871C84.0215 68.2289 83.9502 68.5684 83.8486 68.9735C83.647 69.7778 83.3192 70.8689 82.8156 71.9758C81.8658 74.0635 79.9753 76.8523 76.5672 76.8523H74.4382C71.0298 76.8523 69.139 74.0637 68.189 71.9759C67.6853 70.8689 67.3575 69.7778 67.1558 68.9735C67.0543 68.5684 66.9829 68.2289 66.9364 67.9871C66.9131 67.8661 66.896 67.7691 66.8843 67.7002C66.8785 67.6657 66.874 67.6382 66.8709 67.6181L66.8671 67.5937L66.8659 67.5858L66.8654 67.5829L66.8653 67.5818C66.8652 67.5813 66.8651 67.5808 68.3592 67.3588L66.8653 67.5818C66.7866 67.0524 66.9938 66.52 67.4101 66.1838L68.2404 65.513L72.2548 52.6983C72.3131 52.5121 72.407 52.3389 72.5312 52.1884L73.7172 50.7514ZM70.0188 67.96C70.0391 68.0476 70.0616 68.1408 70.0861 68.2388C70.2598 68.9313 70.5343 69.8359 70.9387 70.7247C71.8049 72.6283 72.9536 73.8313 74.4382 73.8313H76.5672C78.0512 73.8313 79.1997 72.6285 80.0658 70.7248C80.4702 69.836 80.7447 68.9314 80.9183 68.2388C80.9429 68.1408 80.9653 68.0477 80.9856 67.96L80.5101 67.5759C80.2782 67.3886 80.1069 67.1368 80.0178 66.8524L75.9551 53.8834L75.5022 53.3347L75.0493 53.8834L70.9866 66.8524C70.8975 67.1368 70.7262 67.3886 70.4944 67.5759L70.0188 67.96Z" fill="#1C3553"/>
<path fill-rule="evenodd" clip-rule="evenodd" d="M73.9038 50.785C74.1899 50.4169 74.63 50.2017 75.0962 50.2017H75.9082C76.3744 50.2017 76.8145 50.4169 77.1006 50.785L77.8766 51.783C77.9925 51.932 78.0794 52.1014 78.1329 52.2824L80.7243 61.0589L81.1611 61.4332C81.5521 61.7683 81.7455 62.2795 81.6741 62.7895L80.1782 62.5802C81.6741 62.7895 81.6742 62.7891 81.6741 62.7895L81.6735 62.7939L81.6726 62.8002L81.6698 62.8191C81.6676 62.8342 81.6644 62.8546 81.6604 62.8799C81.6524 62.9305 81.6407 63.0007 81.6249 63.0877C81.5934 63.2616 81.5453 63.5045 81.4769 63.7938C81.3417 64.3666 81.1205 65.1492 80.7781 65.9479C80.1624 67.3838 78.8101 69.6357 76.1992 69.6357H74.8052C72.1947 69.6357 70.8424 67.3836 70.2267 65.948C69.8842 65.1494 69.663 64.3668 69.5276 63.794C69.4593 63.5047 69.4111 63.2618 69.3796 63.088C69.3638 63.0009 69.3521 62.9307 69.344 62.8802C69.34 62.8549 69.3369 62.8345 69.3346 62.8193L69.3318 62.8005L69.3309 62.7941L69.3304 62.7907C69.3304 62.7902 69.3303 62.7898 70.8262 62.5802L69.3304 62.7907C69.2589 62.2802 69.4525 61.7677 69.844 61.4326L70.2811 61.0585L72.8715 52.2826C72.9249 52.1015 73.0119 51.932 73.1278 51.783L73.9038 50.785ZM72.4804 63.1526C72.5912 63.6116 72.7607 64.1919 73.0032 64.7573C73.5765 66.0942 74.2137 66.6147 74.8052 66.6147H76.1992C76.7913 66.6147 77.4285 66.094 78.0016 64.7574C78.2441 64.1917 78.4136 63.6112 78.5243 63.1521L78.4193 63.0621C78.1979 62.8724 78.0361 62.6226 77.9535 62.3429L75.5022 54.0412L73.0519 62.3428C72.9693 62.6228 72.8072 62.8729 72.5854 63.0627L72.4804 63.1526Z" fill="#1C3553"/>
<path fill-rule="evenodd" clip-rule="evenodd" d="M46.5343 60.6329L47.5613 62.6389C47.5613 62.6389 48.0823 63.6549 47.8213 64.7669L46.5443 70.2089C46.5443 70.2089 46.2833 71.3209 47.4083 71.5129L53.0933 72.4849C53.0933 72.4849 54.2183 72.6779 54.2653 71.5369L54.5723 63.9709C54.5723 63.9709 54.6183 62.8309 53.5163 62.5309L46.5343 60.6329Z" fill="#1895FF"/>
<path fill-rule="evenodd" clip-rule="evenodd" d="M57.737 65.1346C57.9934 65.4276 57.9638 65.873 57.6708 66.1295L54.0178 69.3265C53.7248 69.5829 53.2794 69.5532 53.023 69.2602C52.7665 68.9672 52.7962 68.5218 53.0892 68.2654L56.7422 65.0684C57.0352 64.812 57.4806 64.8416 57.737 65.1346Z" fill="#1895FF"/>
<path fill-rule="evenodd" clip-rule="evenodd" d="M56.4133 63.3558C56.6981 63.1885 57.0607 63.2414 57.286 63.4829L59.292 65.6339C59.5172 65.8754 59.5446 66.2409 59.3579 66.5133C59.1712 66.7857 58.8204 66.892 58.5139 66.769L57.0059 66.164C56.8113 66.0859 56.6616 65.9254 56.5973 65.7258L56.0993 64.1798C55.9981 63.8655 56.1286 63.523 56.4133 63.3558Z" fill="#1895FF"/>
<path fill-rule="evenodd" clip-rule="evenodd" d="M59.4893 62.7287C59.5346 62.342 59.8847 62.0652 60.2715 62.1104C60.3648 62.1214 60.4534 62.1472 60.5351 62.1845C60.8893 62.3462 61.0454 62.7644 60.8837 63.1186C60.7329 63.449 60.3588 63.607 60.0217 63.4955C59.6807 63.4124 59.4474 63.0861 59.4893 62.7287Z" fill="#1895FF"/>
<path fill-rule="evenodd" clip-rule="evenodd" d="M62.4893 61.7287C62.5346 61.342 62.8847 61.0652 63.2715 61.1104C63.3648 61.1214 63.4534 61.1472 63.5351 61.1845C63.8893 61.3462 64.0454 61.7644 63.8837 62.1186C63.7329 62.449 63.3588 62.607 63.0217 62.4955C62.6807 62.4124 62.4474 62.0861 62.4893 61.7287Z" fill="#1895FF"/>
<path fill-rule="evenodd" clip-rule="evenodd" d="M65.4893 62.7287C65.5346 62.342 65.8847 62.0652 66.2715 62.1104C66.3648 62.1214 66.4534 62.1472 66.5351 62.1845C66.8893 62.3462 67.0454 62.7644 66.8837 63.1186C66.7329 63.449 66.3588 63.607 66.0217 63.4955C65.6807 63.4124 65.4474 63.0861 65.4893 62.7287Z" fill="#1895FF"/>
<path fill-rule="evenodd" clip-rule="evenodd" d="M45.9335 62.8302C45.9335 62.8302 44.1905 59.5482 43.9775 58.7763C43.1905 55.9223 42.3855 53.0723 41.5255 50.2393C40.7075 47.5433 39.1535 46.4283 36.3735 46.4243C34.0335 46.4213 31.6935 46.4233 29.3535 46.4243C25.9575 46.4243 24.5915 47.4533 23.6215 50.7323C22.0145 55.0363 22.9605 55.7393 24.1895 56.6213L27.7335 58.6733C27.7335 62.5082 27.7335 66.3432 27.7335 70.1772C27.7345 73.1022 27.7135 76.0272 27.7425 78.9511C27.7595 80.6731 28.9635 81.6741 30.4385 81.2331C31.6545 80.8691 31.8885 79.8921 31.8875 78.7822C31.8845 74.2372 31.8875 69.6932 31.8875 65.1482V63.5022H33.3965V70.4392C33.3965 73.2292 33.3875 76.0192 33.3995 78.8092C33.4065 80.3841 34.1475 81.2861 35.4145 81.3161C36.7645 81.3491 37.4835 80.4841 37.5165 78.7872C37.5235 78.4272 37.5185 78.0672 37.5185 77.7072V53.1393V51.6283C38.4995 51.3033 38.9135 51.4873 39.1385 52.3893C39.7695 54.9123 40.5525 57.3973 41.1905 59.9182C41.4905 61.1032 42.1215 61.7972 43.3035 62.0782C44.1755 62.2862 45.0375 62.5622 45.9335 62.8302ZM27.7335 53.0333V55.4423C25.6265 54.4183 25.5525 54.7053 26.2745 52.3263C26.4935 51.5103 26.8735 51.3083 27.7335 51.6053V53.0333Z" fill="#1895FF"/>
<path fill-rule="evenodd" clip-rule="evenodd" d="M35.5408 41.7972C35.5638 43.7292 34.0048 45.3112 32.0628 45.3282C30.1008 45.3442 28.5448 43.8252 28.5268 41.8752C28.5088 39.9402 30.0638 38.3372 31.9828 38.3132C33.8788 38.2902 35.5178 39.8942 35.5408 41.7972Z" fill="#1895FF"/>
</svg>
