<svg width="96" height="96" viewBox="0 0 96 96" fill="none" xmlns="http://www.w3.org/2000/svg">
<path fill-rule="evenodd" clip-rule="evenodd" d="M26.1343 27.0056C26.1343 25.9756 26.9693 25.1406 27.9993 25.1406H68.7993C69.8293 25.1406 70.6643 25.9756 70.6643 27.0056V78.0056C70.6643 79.0356 69.8293 79.8706 68.7993 79.8706H27.9993C26.9693 79.8706 26.1343 79.0356 26.1343 78.0056V27.0056ZM29.8643 28.8706V76.1406H66.9343V28.8706H29.8643Z" fill="#1C3553"/>
<path fill-rule="evenodd" clip-rule="evenodd" d="M34.2996 55.9998C34.2996 55.6132 34.613 55.2998 34.9996 55.2998H38.9996C39.3862 55.2998 39.6996 55.6132 39.6996 55.9998V62.9998C39.6996 63.3864 39.3862 63.6998 38.9996 63.6998H34.9996C34.613 63.6998 34.2996 63.3864 34.2996 62.9998V55.9998ZM35.6996 56.6998V62.2998H38.2996V56.6998H35.6996Z" fill="#1C3553"/>
<path fill-rule="evenodd" clip-rule="evenodd" d="M45.2996 55.9998C45.2996 55.6132 45.613 55.2998 45.9996 55.2998H49.9996C50.3862 55.2998 50.6996 55.6132 50.6996 55.9998V62.9998C50.6996 63.3864 50.3862 63.6998 49.9996 63.6998H45.9996C45.613 63.6998 45.2996 63.3864 45.2996 62.9998V55.9998ZM46.6996 56.6998V62.2998H49.2996V56.6998H46.6996Z" fill="#1C3553"/>
<path fill-rule="evenodd" clip-rule="evenodd" d="M56.2996 55.9998C56.2996 55.6132 56.613 55.2998 56.9996 55.2998H60.9996C61.3862 55.2998 61.6996 55.6132 61.6996 55.9998V62.9998C61.6996 63.3864 61.3862 63.6998 60.9996 63.6998H56.9996C56.613 63.6998 56.2996 63.3864 56.2996 62.9998V55.9998ZM57.6996 56.6998V62.2998H60.2996V56.6998H57.6996Z" fill="#1C3553"/>
<path fill-rule="evenodd" clip-rule="evenodd" d="M70.9076 21.672C70.9076 20.964 70.3556 20.389 69.6736 20.389H40.8816C40.9146 19.24 40.9216 18.09 40.8856 16.94C40.8716 16.501 40.3806 16.171 39.7066 16.05C39.7006 16.049 39.6966 16.049 39.6896 16.048C39.6376 16.039 39.5856 16.03 39.5316 16.025C39.5286 16.024 39.5256 16.024 39.5226 16.023C39.4646 16.017 39.4076 16.012 39.3476 16.007H39.3416C39.2876 16.004 39.2326 16.002 39.1776 16.002C39.1696 16.001 39.1616 16.001 39.1526 16C39.1416 16 39.1326 16.001 39.1216 16.001C39.1056 16.001 39.0886 16 39.0696 16C39.0556 16.001 39.0436 16.002 39.0296 16.003C38.0616 16.023 37.3676 16.429 37.3416 17.034C37.3156 17.634 37.3356 18.236 37.3356 18.837C37.3356 19.355 37.3296 19.872 37.3366 20.389H35.4776C35.5106 19.24 35.5176 18.09 35.4816 16.94C35.4676 16.501 34.9766 16.171 34.3026 16.05C34.2966 16.049 34.2916 16.049 34.2856 16.048C34.2336 16.039 34.1816 16.03 34.1276 16.025C34.1246 16.024 34.1216 16.024 34.1186 16.023C34.0606 16.017 34.0036 16.012 33.9436 16.007H33.9376C33.8836 16.004 33.8286 16.002 33.7736 16.002C33.7656 16.001 33.7576 16.001 33.7486 16C33.7376 16 33.7286 16.001 33.7176 16.001C33.7006 16.001 33.6836 16 33.6656 16C33.6516 16.001 33.6396 16.002 33.6256 16.003C32.6576 16.023 31.9636 16.429 31.9376 17.034C31.9116 17.634 31.9316 18.236 31.9316 18.837C31.9316 19.355 31.9256 19.872 31.9326 20.389H27.2336C26.5526 20.389 25.9996 20.964 25.9996 21.672C25.9996 22.38 26.5526 22.955 27.2336 22.955H69.6736C70.3556 22.955 70.9076 22.38 70.9076 21.672Z" fill="#1C3553"/>
<path fill-rule="evenodd" clip-rule="evenodd" d="M33.9492 42.0002C33.9492 41.4203 34.4193 40.9502 34.9992 40.9502H38.9992C39.5791 40.9502 40.0492 41.4203 40.0492 42.0002V49.0002C40.0492 49.5801 39.5791 50.0502 38.9992 50.0502H34.9992C34.4193 50.0502 33.9492 49.5801 33.9492 49.0002V42.0002ZM36.0492 43.0502V47.9502H37.9492V43.0502H36.0492Z" fill="#1895FF"/>
<path fill-rule="evenodd" clip-rule="evenodd" d="M44.9492 42.0002C44.9492 41.4203 45.4193 40.9502 45.9992 40.9502H49.9992C50.5791 40.9502 51.0492 41.4203 51.0492 42.0002V49.0002C51.0492 49.5801 50.5791 50.0502 49.9992 50.0502H45.9992C45.4193 50.0502 44.9492 49.5801 44.9492 49.0002V42.0002ZM47.0492 43.0502V47.9502H48.9492V43.0502H47.0492Z" fill="#1895FF"/>
<path fill-rule="evenodd" clip-rule="evenodd" d="M55.9492 42.0002C55.9492 41.4203 56.4193 40.9502 56.9992 40.9502H60.9992C61.5791 40.9502 62.0492 41.4203 62.0492 42.0002V49.0002C62.0492 49.5801 61.5791 50.0502 60.9992 50.0502H56.9992C56.4193 50.0502 55.9492 49.5801 55.9492 49.0002V42.0002ZM58.0492 43.0502V47.9502H59.9492V43.0502H58.0492Z" fill="#1895FF"/>
</svg>
