<svg width="96" height="96" viewBox="0 0 96 96" fill="none" xmlns="http://www.w3.org/2000/svg">
<path fill-rule="evenodd" clip-rule="evenodd" d="M28.7979 77.96H68.9078V60.9601H28.7979V77.96Z" fill="#1895FF"/>
<path fill-rule="evenodd" clip-rule="evenodd" d="M26.0499 27.965C26.0499 26.8605 26.9453 25.965 28.0499 25.965H68.8498C69.9544 25.965 70.8498 26.8605 70.8498 27.965V78.965C70.8498 80.0696 69.9544 80.965 68.8498 80.965H28.0499C26.9453 80.965 26.0499 80.0696 26.0499 78.965V27.965ZM30.0499 29.965V76.965H66.8498V29.965H30.0499Z" fill="#1C3553"/>
<path fill-rule="evenodd" clip-rule="evenodd" d="M35.4337 40.351H39.2217C39.6276 40.351 39.9567 40.68 39.9567 41.086V47.947C39.9567 48.3529 39.6276 48.682 39.2217 48.682H35.4337C35.0278 48.682 34.6987 48.3529 34.6987 47.947V41.086H35.4337V40.351ZM36.1687 41.821V47.212H38.4867V41.821H36.1687Z" fill="#1C3553"/>
<path fill-rule="evenodd" clip-rule="evenodd" d="M57.6852 40.351H61.4732C61.8791 40.351 62.2082 40.68 62.2082 41.086V47.947C62.2082 48.3529 61.8791 48.682 61.4732 48.682H57.6852C57.2792 48.682 56.9502 48.3529 56.9502 47.947V41.086H57.6852V40.351ZM58.4202 41.821V47.212H60.7382V41.821H58.4202Z" fill="#1C3553"/>
<path fill-rule="evenodd" clip-rule="evenodd" d="M46.5595 40.351H50.3475C50.7534 40.351 51.0825 40.68 51.0825 41.086V47.947C51.0825 48.3529 50.7534 48.682 50.3475 48.682H46.5595C46.1536 48.682 45.8245 48.3529 45.8245 47.947V41.086H46.5595V40.351ZM47.2945 41.821V47.212H49.6125V41.821H47.2945Z" fill="#1C3553"/>
<path fill-rule="evenodd" clip-rule="evenodd" d="M70.9074 22.6317C70.9074 21.9237 70.3554 21.3487 69.6734 21.3487H40.8815C40.9145 20.1997 40.9215 19.0497 40.8855 17.8997C40.8715 17.4607 40.3805 17.1307 39.7065 17.0097C39.7005 17.0087 39.6965 17.0087 39.6895 17.0077C39.6375 16.9987 39.5855 16.9897 39.5315 16.9847C39.5285 16.9837 39.5255 16.9837 39.5225 16.9827C39.4645 16.9767 39.4075 16.9717 39.3475 16.9677H39.3415C39.2875 16.9637 39.2325 16.9617 39.1775 16.9617C39.1695 16.9607 39.1615 16.9607 39.1525 16.9597C39.1415 16.9597 39.1325 16.9607 39.1215 16.9607C39.1055 16.9607 39.0885 16.9597 39.0695 16.9597C39.0555 16.9607 39.0435 16.9617 39.0295 16.9627C38.0615 16.9827 37.3675 17.3887 37.3415 17.9937C37.3155 18.5937 37.3355 19.1957 37.3355 19.7967C37.3355 20.3147 37.3295 20.8317 37.3365 21.3487H35.4775C35.5105 20.1997 35.5175 19.0497 35.4815 17.8997C35.4675 17.4607 34.9765 17.1307 34.3025 17.0097C34.2965 17.0087 34.2915 17.0087 34.2855 17.0077C34.2335 16.9987 34.1815 16.9897 34.1275 16.9847C34.1245 16.9837 34.1215 16.9837 34.1185 16.9827C34.0605 16.9767 34.0035 16.9717 33.9435 16.9677H33.9375C33.8835 16.9637 33.8285 16.9617 33.7735 16.9617C33.7655 16.9607 33.7575 16.9607 33.7485 16.9597C33.7375 16.9597 33.7285 16.9607 33.7175 16.9607C33.7005 16.9607 33.6835 16.9597 33.6655 16.9597C33.6515 16.9607 33.6395 16.9617 33.6255 16.9627C32.6575 16.9827 31.9635 17.3887 31.9375 17.9937C31.9115 18.5937 31.9315 19.1957 31.9315 19.7967C31.9315 20.3147 31.9255 20.8317 31.9325 21.3487H27.2335C26.5525 21.3487 25.9995 21.9237 25.9995 22.6317C25.9995 23.3397 26.5525 23.9147 27.2335 23.9147H69.6734C70.3554 23.9147 70.9074 23.3397 70.9074 22.6317Z" fill="#1C3553"/>
</svg>
