<svg width="96" height="96" viewBox="0 0 96 96" fill="none" xmlns="http://www.w3.org/2000/svg">
<path fill-rule="evenodd" clip-rule="evenodd" d="M69.1893 48.9991H28.5783C27.9873 48.9991 27.4043 48.8771 26.8633 48.6401L22.4323 46.6971L21.5723 45.7762L45.4413 23.1696C47.0493 21.6466 49.5553 21.6056 51.2123 23.0756L72.0233 41.5332C74.2243 43.4862 73.8373 47.0281 71.2663 48.4601C70.6313 48.8131 69.9163 48.9991 69.1893 48.9991Z" fill="#1895FF"/>
<path fill-rule="evenodd" clip-rule="evenodd" d="M47.4261 19.0099C48.6077 18.8974 49.5286 19.5319 50.1488 20.1145C50.8903 20.8104 53.524 23.2796 56.8405 26.3891C63.8401 32.9516 73.8813 42.3659 75.597 43.9811M75.597 43.9812L75.6173 44.0002C75.8166 44.1873 76.2621 44.6058 76.5477 45.1832C76.9193 45.9346 76.9665 46.8076 76.5956 47.669C76.5952 47.67 76.5948 47.6711 76.5943 47.6721M64.9421 76.8309C60.7085 76.8319 34.1428 76.8319 29.9091 76.8309V74.8309L29.9087 76.8309C29.2462 76.8308 28.0102 76.8078 27.1083 75.925C26.1907 75.0269 26.1651 73.7813 26.1651 73.1251M76.5943 47.6721C76.2567 48.4555 75.6742 49.0103 74.9543 49.3093C74.3311 49.5682 73.7171 49.5857 73.3512 49.5833M47.4261 19.0099C46.2451 18.8975 45.3235 19.5311 44.7025 20.1145C43.9612 20.8101 41.329 23.278 38.0139 26.3862C31.0142 32.9488 20.9702 42.3657 19.2543 43.9811M47.4256 23.0444C46.6624 23.7607 44.0366 26.2226 40.7371 29.316C34.8514 34.8343 26.8221 42.3623 23.3984 45.5761C24.4733 45.5747 25.5472 45.5773 26.6198 45.5824M21.8213 47.0681C21.8213 47.0681 21.8219 47.0672 21.8234 47.0655C21.8221 47.0672 21.8213 47.0681 21.8213 47.0681ZM47.4256 23.0444C48.1889 23.7608 50.8151 26.223 54.115 29.3168C60.0006 34.835 68.0294 42.3625 71.4528 45.5761C70.3779 45.5747 69.304 45.5773 68.2315 45.5824M19.2542 43.9812C19.2478 43.9872 19.241 43.9935 19.234 44.0002L19.2542 43.9812ZM19.234 44.0002C19.0347 44.1873 18.5891 44.6058 18.3035 45.1832L19.234 44.0002ZM18.3035 45.1832C17.9317 45.935 17.8847 46.8086 18.2563 47.6705L18.3035 45.1832ZM18.2563 47.6705C18.5938 48.4548 19.1766 49.0101 19.897 49.3093C20.5201 49.5682 21.1341 49.5857 21.5 49.5833M26.1642 49.5804C26.1646 53.4303 26.1646 57.2804 26.1646 61.1306C26.1646 65.1287 26.1646 69.1269 26.1651 73.1249M73.0273 47.0648C73.0295 47.0674 73.0303 47.0685 73.0299 47.068C73.0296 47.0677 73.0287 47.0666 73.0273 47.0648ZM30.1641 49.1361C30.1641 48.4327 30.0648 47.3489 29.2375 46.519C28.4113 45.6903 27.3281 45.5855 26.6205 45.5824M30.1641 49.1363C30.1646 53.1343 30.1646 57.1325 30.1646 61.1306V61.1534C30.1646 65.0461 30.1646 68.9386 30.1651 72.8309C35.0175 72.8318 59.8374 72.8318 64.6871 72.8309" fill="#1C3553"/>
<path fill-rule="evenodd" clip-rule="evenodd" d="M52.6853 56.4586H56.4733C56.8792 56.4586 57.2083 56.7877 57.2083 57.1936V64.0545C57.2083 64.4604 56.8792 64.7895 56.4733 64.7895H52.6853C52.2794 64.7895 51.9503 64.4604 51.9503 64.0545V57.1936H52.6853V56.4586ZM53.4203 57.9286V63.3195H55.7383V57.9286H53.4203Z" fill="#1C3553"/>
<path fill-rule="evenodd" clip-rule="evenodd" d="M38.5596 56.4586H42.3476C42.7535 56.4586 43.0826 56.7877 43.0826 57.1936V64.0545C43.0826 64.4604 42.7535 64.7895 42.3476 64.7895H38.5596C38.1537 64.7895 37.8246 64.4604 37.8246 64.0545V57.1936H38.5596V56.4586ZM39.2946 57.9286V63.3195H41.6126V57.9286H39.2946Z" fill="#1C3553"/>
</svg>
