<svg width="96" height="96" viewBox="0 0 96 96" fill="none" xmlns="http://www.w3.org/2000/svg">
<path fill-rule="evenodd" clip-rule="evenodd" d="M90.7686 73.2769C90.7436 73.2479 90.7066 73.2199 90.6746 73.1919C90.6316 73.2199 90.5836 73.2489 90.5356 73.2769C90.5156 73.2879 90.4956 73.2999 90.4746 73.3109C90.3386 73.3879 90.1866 73.4649 90.0037 73.5409C89.0107 73.9549 87.2847 74.3289 84.2897 74.3289C82.9147 74.3289 81.8177 74.2469 80.9257 74.1219C80.3167 74.0369 79.8027 73.9309 79.3777 73.8129C79.2277 73.7709 79.0847 73.7289 78.9557 73.6839C78.8177 73.6379 78.6917 73.5899 78.5747 73.5409C78.4657 73.4959 78.3687 73.4499 78.2757 73.4039C78.2137 73.3729 78.1577 73.3419 78.1027 73.3109C78.0827 73.2999 78.0617 73.2889 78.0427 73.2769C77.9937 73.2489 77.9467 73.2209 77.9037 73.1929C77.8707 73.2209 77.8347 73.2489 77.8097 73.2769H77.6767V73.4119V73.7119V73.8619V74.3119V76.2389V76.2409L77.7267 76.4819C77.8917 76.8579 78.8537 78.0859 84.2897 78.0859C89.7247 78.0859 90.6866 76.8579 90.8516 76.4819L90.8936 73.8209L90.8976 73.5979C90.8976 73.5909 90.9016 73.5839 90.9016 73.5769C90.9016 73.5709 90.8986 73.5649 90.8976 73.5579L90.9026 73.2769H90.7686ZM89.6987 74.4789V76.0079C89.4177 76.2189 88.3497 76.7959 85.0487 76.8739L79.7587 74.6699C80.9427 74.9229 82.5337 75.0799 84.2887 75.0799C86.4487 75.0799 88.3617 74.8439 89.5677 74.4789H89.6987Z" fill="#1895FF"/>
<path fill-rule="evenodd" clip-rule="evenodd" d="M90.3005 68.5957C90.2285 68.6317 90.1515 68.6667 90.0695 68.7027C89.8985 68.7767 89.7015 68.8487 89.4815 68.9187C89.4755 68.9207 89.4685 68.9227 89.4615 68.9247C88.4855 69.2327 86.9966 69.4807 84.7466 69.5117C84.5956 69.5137 84.4546 69.5187 84.2966 69.5187H84.2896H84.2876C84.2386 69.5187 84.1976 69.5167 84.1506 69.5167C84.0256 69.5157 83.9116 69.5127 83.7906 69.5107C83.3316 69.5037 82.8996 69.4897 82.5026 69.4657C81.9086 69.4297 81.3816 69.3777 80.9146 69.3117C80.7286 69.2857 80.5526 69.2567 80.3856 69.2277C80.0116 69.1607 79.6756 69.0867 79.3846 69.0057C79.2906 68.9797 79.2026 68.9527 79.1156 68.9247C79.1096 68.9227 79.1026 68.9207 79.0956 68.9187C79.0796 68.9137 79.0616 68.9087 79.0456 68.9037C78.8456 68.8387 78.6666 68.7717 78.5076 68.7027C78.4256 68.6677 78.3486 68.6317 78.2766 68.5957C78.0806 68.6937 77.9256 68.7967 77.8246 68.9037C77.8196 68.9087 77.8126 68.9137 77.8086 68.9187H77.6756V69.0537V69.3537V69.5037V69.9547V70.1067V70.7066V71.8816V71.8836L77.7266 72.1236C77.7386 72.1526 77.7586 72.1876 77.7816 72.2246C77.8306 72.3036 77.9086 72.4006 78.0286 72.5066C78.0956 72.5656 78.1766 72.6276 78.2736 72.6916C78.3376 72.7336 78.4076 72.7756 78.4856 72.8186C78.4986 72.8256 78.5146 72.8336 78.5286 72.8406C78.5956 72.8766 78.6646 72.9116 78.7426 72.9466C78.9256 73.0296 79.1396 73.1116 79.3926 73.1886C79.4906 73.2196 79.6016 73.2486 79.7116 73.2766C79.7756 73.2936 79.8366 73.3116 79.9056 73.3276C80.2046 73.3986 80.5466 73.4636 80.9326 73.5196C81.0986 73.5436 81.2776 73.5656 81.4616 73.5856C81.8976 73.6346 82.3866 73.6716 82.9306 73.6956C83.3516 73.7146 83.7956 73.7276 84.2886 73.7276C86.4436 73.7276 87.8865 73.5336 88.8645 73.2766C88.9745 73.2486 89.0855 73.2196 89.1835 73.1886C89.4365 73.1116 89.6505 73.0296 89.8335 72.9466C89.9115 72.9116 89.9815 72.8766 90.0485 72.8406C90.1425 72.7906 90.2285 72.7406 90.3025 72.6916C90.6535 72.4596 90.7965 72.2466 90.8495 72.1236L90.8925 69.4627L90.8955 69.2407C90.8965 69.2337 90.9005 69.2267 90.9005 69.2197C90.9005 69.2127 90.8965 69.2067 90.8965 69.2007L90.9005 68.9187H90.7675C90.6675 68.8057 90.5055 68.6977 90.3005 68.5957ZM89.6985 70.1207V71.6496C89.5685 71.7476 89.2665 71.9246 88.6525 72.0936C88.3985 72.1636 88.0885 72.2326 87.7165 72.2936C87.6585 72.3036 87.5975 72.3126 87.5345 72.3216C86.8946 72.4176 86.0826 72.4906 85.0476 72.5156L84.7166 72.3766L84.2966 72.2016L84.2136 72.1676L83.9986 72.0776H83.9966L83.8446 72.0136L83.0326 71.6756L83.0056 71.6646L80.3876 70.5736L79.7576 70.3117C80.1136 70.3877 80.5066 70.4546 80.9296 70.5116C81.5866 70.5996 82.3156 70.6636 83.0936 70.6956C83.3376 70.7056 83.5866 70.7126 83.8396 70.7156C83.9816 70.7176 84.1226 70.7206 84.2676 70.7206C84.2746 70.7206 84.2816 70.7216 84.2886 70.7216H84.2956C84.4436 70.7216 84.5886 70.7186 84.7336 70.7166C86.7106 70.6866 88.4455 70.4596 89.5685 70.1207H89.6985Z" fill="#1895FF"/>
<path fill-rule="evenodd" clip-rule="evenodd" d="M84.7198 62.9119C84.5788 62.9099 84.4398 62.9069 84.2968 62.9069H84.2888C84.2738 62.9069 84.2608 62.9079 84.2458 62.9079C84.1108 62.9079 83.9788 62.9099 83.8448 62.9119C82.9788 62.9249 82.1598 62.9759 81.4168 63.0579C81.2278 63.0789 81.0438 63.1009 80.8658 63.1259C80.6328 63.1579 80.4088 63.1929 80.1968 63.2309C79.9158 63.2809 79.6568 63.3369 79.4158 63.3959C79.4018 63.3999 79.3878 63.4039 79.3728 63.4069C78.9038 63.5259 78.5138 63.6609 78.2288 63.8089C78.0448 63.9049 77.9018 64.0059 77.8078 64.1099H77.6748V64.2439V64.5449V64.6949V65.1449V65.7479V66.3479V67.0719L77.6758 67.0739L77.7128 67.2509L77.7258 67.3129C77.7658 67.4039 77.8538 67.5439 78.0368 67.7049H78.0378C78.1888 67.8369 78.4038 67.9829 78.7148 68.1258C78.7198 68.1278 78.7268 68.1308 78.7318 68.1328C78.7708 68.1508 78.8178 68.1678 78.8598 68.1868C78.9398 68.2198 79.0218 68.2528 79.1128 68.2848C79.1838 68.3108 79.2588 68.3358 79.3368 68.3608C79.5948 68.4428 79.8958 68.5198 80.2408 68.5898C80.5898 68.6608 80.9888 68.7228 81.4398 68.7748C81.7418 68.8088 82.0598 68.8398 82.4108 68.8618C82.5268 68.8698 82.6548 68.8738 82.7768 68.8798C82.8068 68.8818 82.8378 68.8828 82.8678 68.8838C83.0098 68.8908 83.1438 68.8988 83.2928 68.9038C83.4648 68.9088 83.6538 68.9098 83.8368 68.9118C83.8618 68.9128 83.8868 68.9128 83.9118 68.9128C83.9998 68.9138 84.0818 68.9168 84.1728 68.9168C84.2128 68.9168 84.2478 68.9188 84.2888 68.9188H84.2948C84.3548 68.9188 84.4068 68.9168 84.4658 68.9168C86.1668 68.9078 87.4168 68.7768 88.3358 68.5898C88.6808 68.5198 88.9807 68.4428 89.2387 68.3608C89.3177 68.3358 89.3917 68.3108 89.4637 68.2848C89.6087 68.2328 89.7437 68.1798 89.8607 68.1258C90.5507 67.8079 90.7777 67.4789 90.8497 67.3139L90.8917 64.6539L90.8957 64.4319C90.8957 64.4239 90.9007 64.4179 90.9007 64.4099C90.9007 64.4039 90.8967 64.3979 90.8967 64.3909L90.9007 64.1099H90.7687C90.1857 63.4549 87.7258 62.9559 84.7198 62.9119ZM85.0488 67.7069L84.7208 67.5709L84.2968 67.3939L84.2518 67.3749L84.0058 67.2729L83.8428 67.2049L83.0938 66.8929L81.2228 66.1129L80.3458 65.7479L79.7578 65.5029C80.2118 65.5999 80.7248 65.6819 81.2858 65.7479C81.6878 65.7939 82.1128 65.8309 82.5568 65.8589C82.7338 65.8699 82.9118 65.8789 83.0938 65.8869C83.3378 65.8969 83.5858 65.9039 83.8378 65.9069C83.9828 65.9089 84.1278 65.9119 84.2748 65.9119C84.2798 65.9119 84.2848 65.9129 84.2888 65.9129H84.2968C84.4458 65.9129 84.5918 65.9089 84.7388 65.9079C86.7128 65.8769 88.4458 65.6509 89.5677 65.3129H89.6987V66.8399C89.5067 66.9839 88.9417 67.3009 87.5448 67.5119C86.9038 67.6079 86.0878 67.6819 85.0488 67.7069Z" fill="#1895FF"/>
<path fill-rule="evenodd" clip-rule="evenodd" d="M75.6757 70.635C76.1697 70.671 76.6897 70.693 77.2257 70.701V70.106V69.947C76.6707 69.939 76.1487 69.922 75.6837 69.89L75.6807 70.106L75.6757 70.635Z" fill="#1895FF"/>
<path fill-rule="evenodd" clip-rule="evenodd" d="M77.724 73.0675C77.406 72.8225 77.294 72.6115 77.257 72.5175L77.254 72.5045L77.225 72.3525V71.9925L75.668 71.3435L75.657 72.4405L75.656 72.5025C75.62 72.5965 75.507 72.8055 75.192 73.0495C75.101 73.1205 74.988 73.1935 74.859 73.2685C74.72 73.3495 74.562 73.4305 74.372 73.5115C75.13 73.6195 76.076 73.6895 77.225 73.7055V73.4055V73.3705H77.426C77.498 73.2645 77.61 73.1695 77.717 73.0745C77.72 73.0725 77.722 73.0695 77.724 73.0675Z" fill="#1895FF"/>
<path fill-rule="evenodd" clip-rule="evenodd" d="M75.6757 66.277C76.1697 66.313 76.6897 66.335 77.2257 66.343V65.748V65.138C76.6717 65.131 76.1517 65.114 75.6877 65.082V65.089L75.6807 65.748L75.6757 66.277Z" fill="#1895FF"/>
<path fill-rule="evenodd" clip-rule="evenodd" d="M77.2254 69.0472V69.0122H77.4264C77.4534 68.9732 77.5024 68.9412 77.5334 68.9032C77.5874 68.8392 77.6494 68.7762 77.7174 68.7162C77.8144 68.6292 77.9224 68.5482 78.0454 68.4692C77.8574 68.3602 77.7114 68.2522 77.6004 68.1532C77.5994 68.1522 77.5974 68.1512 77.5964 68.1502C77.3774 67.9532 77.2884 67.7892 77.2574 67.7082L77.2564 67.7062V67.7052L77.2444 67.6422L76.4014 67.2912L75.6684 66.9852L75.6644 67.3442L75.6604 67.7722V67.7922L75.6574 68.0812L75.6564 68.1432C75.6454 68.1712 75.6244 68.2122 75.5974 68.2582C75.5324 68.3672 75.4144 68.5192 75.1924 68.6902C75.1914 68.6912 75.1904 68.6922 75.1894 68.6932C75.1374 68.7332 75.0754 68.7752 75.0104 68.8182C74.9674 68.8462 74.9194 68.8742 74.8704 68.9022C74.8674 68.9042 74.8634 68.9072 74.8594 68.9092C74.8444 68.9182 74.8274 68.9272 74.8114 68.9362C74.6834 69.0082 74.5414 69.0802 74.3724 69.1522C74.6014 69.1852 74.8464 69.2142 75.1074 69.2392C75.1454 69.2432 75.1894 69.2452 75.2274 69.2492C75.2294 69.2492 75.2314 69.2502 75.2324 69.2502C75.3764 69.2632 75.5254 69.2752 75.6784 69.2852C76.1444 69.3182 76.6614 69.3382 77.2264 69.3462V69.0472H77.2254Z" fill="#1895FF"/>
<path fill-rule="evenodd" clip-rule="evenodd" d="M83.0534 62.4947C83.3184 62.4797 83.5804 62.4727 83.8434 62.4677C83.9794 62.4647 84.1174 62.4577 84.2534 62.4577L84.2874 60.2797L84.2904 60.0597C84.2914 60.0517 84.2964 60.0437 84.2964 60.0367C84.2964 60.0297 84.2924 60.0227 84.2914 60.0157L84.2954 59.7357H84.1634C84.0624 59.6227 83.9004 59.5147 83.6954 59.4127C83.6234 59.4487 83.5464 59.4847 83.4644 59.5197C83.2934 59.5937 83.0974 59.6657 82.8784 59.7357C82.8714 59.7377 82.8634 59.7397 82.8564 59.7417C81.8134 60.0717 80.2004 60.3367 77.6834 60.3367C76.9424 60.3367 76.2804 60.3137 75.6874 60.2727V60.2807L75.6804 60.9387L75.6754 61.4677C76.3094 61.5137 76.9834 61.5387 77.6834 61.5387C79.8454 61.5387 81.7584 61.3027 82.9644 60.9377H83.0934V62.4657C83.0824 62.4747 83.0674 62.4847 83.0534 62.4947Z" fill="#1895FF"/>
<path fill-rule="evenodd" clip-rule="evenodd" d="M77.8255 63.7972C78.0245 63.6432 78.2755 63.5062 78.5565 63.3802C78.5705 63.3742 78.5865 63.3682 78.6005 63.3622C78.6035 63.3612 78.6065 63.3602 78.6095 63.3582C78.6365 63.3462 78.6675 63.3362 78.6955 63.3252C78.6115 63.3272 78.5315 63.3312 78.4445 63.3332L77.4025 62.8992L75.6685 62.1762L75.6595 62.9862L75.6565 63.2732V63.3352C75.6475 63.3572 75.6335 63.3852 75.6165 63.4182C75.6125 63.4252 75.6065 63.4332 75.6025 63.4402C75.5385 63.5502 75.4195 63.7052 75.1925 63.8822C75.1645 63.9032 75.1295 63.9252 75.0985 63.9482C75.0305 63.9962 74.9535 64.0452 74.8675 64.0962C74.8655 64.0972 74.8615 64.0992 74.8585 64.1012C74.7895 64.1412 74.7175 64.1812 74.6365 64.2212C74.5645 64.2572 74.4875 64.2922 74.4055 64.3282C74.3935 64.3332 74.3835 64.3392 74.3715 64.3442C74.3985 64.3482 74.4295 64.3512 74.4565 64.3552C74.6165 64.3762 74.7845 64.3962 74.9595 64.4152C75.0685 64.4272 75.1845 64.4372 75.2995 64.4472C75.8615 64.4972 76.5025 64.5282 77.2245 64.5382V64.2382V64.2022H77.4265C77.4985 64.0962 77.6095 64.0022 77.7175 63.9062C77.7575 63.8712 77.7815 63.8312 77.8255 63.7972Z" fill="#1895FF"/>
<path fill-rule="evenodd" clip-rule="evenodd" d="M84.2917 55.2066L84.2957 54.9266H84.1637C84.0627 54.8136 83.9007 54.7056 83.6957 54.6036C83.6237 54.6396 83.5467 54.6746 83.4647 54.7106C83.2937 54.7846 83.0957 54.8566 82.8757 54.9266C82.8697 54.9286 82.8627 54.9306 82.8567 54.9326C81.8137 55.2616 80.2007 55.5266 77.6837 55.5266C76.9427 55.5266 76.2817 55.5036 75.6877 55.4626V55.4696L75.6807 56.1286L75.6757 56.6586C76.3097 56.7046 76.9837 56.7296 77.6837 56.7296C79.8447 56.7296 81.7567 56.4936 82.9637 56.1286H83.0937V57.6566C82.9017 57.8016 82.3357 58.1176 80.9407 58.3276C80.2987 58.4246 79.4827 58.4986 78.4437 58.5236L77.4007 58.0886L75.6687 57.3666L75.6597 58.1766L75.6567 58.4626V58.5246C75.6477 58.5466 75.6337 58.5756 75.6157 58.6086C75.6127 58.6156 75.6067 58.6236 75.6027 58.6306C75.5387 58.7406 75.4197 58.8956 75.1917 59.0726C75.1647 59.0936 75.1297 59.1156 75.0997 59.1376C75.0307 59.1866 74.9537 59.2356 74.8677 59.2856C74.8647 59.2876 74.8617 59.2896 74.8577 59.2916C74.7887 59.3316 74.7177 59.3716 74.6367 59.4116C74.5647 59.4476 74.4877 59.4826 74.4057 59.5186C74.3937 59.5236 74.3847 59.5286 74.3727 59.5336C74.3987 59.5376 74.4297 59.5406 74.4567 59.5446C74.6157 59.5666 74.7847 59.5866 74.9597 59.6046C75.0687 59.6166 75.1837 59.6266 75.2997 59.6366C75.9807 59.6966 76.7637 59.7346 77.6837 59.7346C79.4797 59.7346 80.7797 59.5996 81.7317 59.4056C82.0757 59.3356 82.3767 59.2586 82.6347 59.1766C82.7127 59.1516 82.7877 59.1266 82.8587 59.1006C83.0037 59.0486 83.1387 58.9956 83.2567 58.9416C83.9467 58.6236 84.1727 58.2946 84.2447 58.1286L84.2867 55.4696L84.2907 55.2496C84.2907 55.2416 84.2957 55.2336 84.2957 55.2256C84.2967 55.2206 84.2917 55.2136 84.2917 55.2066Z" fill="#1895FF"/>
<path fill-rule="evenodd" clip-rule="evenodd" d="M84.2917 50.3977L84.2957 50.1187H84.1637C84.0627 50.0047 83.9017 49.8977 83.6957 49.7947C83.6237 49.8307 83.5467 49.8667 83.4647 49.9017C83.2937 49.9757 83.0957 50.0477 82.8757 50.1187C82.8697 50.1207 82.8627 50.1227 82.8567 50.1237C81.8137 50.4537 80.2007 50.7187 77.6837 50.7187C76.9427 50.7187 76.2807 50.6947 75.6867 50.6547L75.6877 50.6617L75.6807 51.3207L75.6757 51.8497C76.3087 51.8957 76.9827 51.9207 77.6837 51.9207C79.8437 51.9207 81.7557 51.6847 82.9617 51.3207H83.0937V52.8477C82.9017 52.9927 82.3367 53.3097 80.9397 53.5197C80.2977 53.6167 79.4827 53.6907 78.4437 53.7147L77.4017 53.2807L75.6687 52.5587L75.6597 53.3687L75.6567 53.6557V53.7177C75.6477 53.7387 75.6337 53.7677 75.6157 53.8007C75.6127 53.8077 75.6067 53.8157 75.6027 53.8227C75.5387 53.9327 75.4197 54.0877 75.1917 54.2647C75.1647 54.2857 75.1297 54.3087 75.0987 54.3307C75.0307 54.3787 74.9537 54.4277 74.8687 54.4777C74.8657 54.4797 74.8627 54.4817 74.8597 54.4827C74.7897 54.5227 74.7177 54.5637 74.6367 54.6037C74.5647 54.6397 74.4877 54.6747 74.4057 54.7107C74.3937 54.7157 74.3837 54.7207 74.3717 54.7267C74.3987 54.7307 74.4287 54.7337 74.4567 54.7367C74.6157 54.7587 74.7847 54.7787 74.9597 54.7977C75.0687 54.8087 75.1847 54.8187 75.2997 54.8287C75.9817 54.8897 76.7637 54.9267 77.6837 54.9267C79.4797 54.9267 80.7787 54.7917 81.7307 54.5977C82.0757 54.5277 82.3757 54.4507 82.6337 54.3687C82.7127 54.3437 82.7867 54.3187 82.8577 54.2927C83.0027 54.2407 83.1377 54.1877 83.2547 54.1337C83.9457 53.8157 84.1727 53.4867 84.2447 53.3207L84.2867 50.6617L84.2897 50.4417C84.2907 50.4337 84.2957 50.4257 84.2957 50.4187C84.2967 50.4107 84.2917 50.4047 84.2917 50.3977Z" fill="#1895FF"/>
<path fill-rule="evenodd" clip-rule="evenodd" d="M74.8688 44.8421C75.0838 44.9801 75.2628 45.1281 75.3948 45.2901C75.4218 45.3231 75.4648 45.3511 75.4878 45.3841H75.6608L75.6878 45.8351L75.6818 46.4931L75.6758 47.0231C76.3098 47.0691 76.9838 47.0941 77.6838 47.0941C79.8458 47.0941 81.7598 46.8571 82.9658 46.4931H83.0938V48.0211C82.9018 48.1661 82.3368 48.4821 80.9398 48.6931C80.2988 48.7901 79.4828 48.8641 78.4448 48.8881L77.4018 48.4541L75.6688 47.7311L75.6608 48.5411L75.6568 48.8281V48.8901C75.6478 48.9121 75.6348 48.9401 75.6168 48.9731C75.6128 48.9801 75.6078 48.9881 75.6028 48.9951C75.5398 49.1051 75.4208 49.2601 75.1928 49.4371C75.1648 49.4581 75.1308 49.4801 75.0998 49.5031C75.0308 49.5511 74.9538 49.6001 74.8688 49.6501C74.8658 49.6521 74.8628 49.6531 74.8598 49.6551C74.7908 49.6951 74.7188 49.7351 74.6368 49.7761C74.5648 49.8121 74.4878 49.8471 74.4058 49.8831C74.3938 49.8881 74.3848 49.8931 74.3728 49.8981C74.3998 49.9031 74.4298 49.9051 74.4578 49.9101C74.6168 49.9311 74.7858 49.9511 74.9608 49.9701C75.0698 49.9821 75.1848 49.9921 75.2998 50.0021C75.9818 50.0621 76.7638 50.0991 77.6838 50.0991C79.4798 50.0991 80.7798 49.9641 81.7308 49.7711C82.0758 49.7011 82.3768 49.6231 82.6348 49.5411C82.7128 49.5161 82.7878 49.4911 82.8588 49.4651C83.0038 49.4131 83.1388 49.3601 83.2558 49.3061C83.9468 48.9881 84.1728 48.6581 84.2458 48.4931L84.2878 45.8341L84.2908 45.6141C84.2918 45.6061 84.2958 45.5991 84.2958 45.5911C84.2958 45.5841 84.2918 45.5771 84.2918 45.5701L84.2958 45.2901H84.1628C83.5498 44.6041 80.8828 44.0881 77.6828 44.0881C76.9608 44.0881 76.2668 44.1151 75.6158 44.1641C75.6128 44.1711 75.6068 44.1801 75.6028 44.1871C75.5308 44.3101 75.3838 44.4921 75.0988 44.6941C75.0318 44.7431 74.9548 44.7921 74.8688 44.8421Z" fill="#1895FF"/>
<path fill-rule="evenodd" clip-rule="evenodd" d="M75.1871 72.1061L75.2021 71.1501L75.2111 70.5961L75.2181 70.1061L75.2221 69.8491C75.0731 69.8361 74.9171 69.8241 74.7781 69.8081C74.7501 69.8051 74.7261 69.8011 74.6981 69.7981C74.0981 69.7271 73.5901 69.6361 73.1541 69.5341C72.7851 69.6211 72.3591 69.6981 71.8741 69.7631C71.7941 69.7731 71.7171 69.7851 71.6341 69.7941C71.6261 69.7961 71.6191 69.7961 71.6111 69.7981C71.5801 69.8011 71.5531 69.8061 71.5221 69.8091C71.3801 69.8251 71.2231 69.8371 71.0721 69.8501C70.9231 69.8641 70.7801 69.8791 70.6211 69.8901C70.0811 69.9271 69.4752 69.9471 68.8132 69.9511L68.8122 70.1051L68.8062 70.7031C69.4372 70.6991 70.0471 70.6771 70.6221 70.6351C70.7751 70.6241 70.9241 70.6111 71.0721 70.5981C71.1751 70.5881 71.2761 70.5781 71.3761 70.5681C71.4261 70.5631 71.4741 70.5571 71.5221 70.5521C71.7821 70.5231 72.0351 70.4911 72.2741 70.4551C72.5891 70.4081 72.8811 70.3541 73.1551 70.2951C73.4281 70.2371 73.6781 70.1731 73.9041 70.1051H74.0361V70.4551V70.6621V71.6321C73.9171 71.7211 73.6531 71.8771 73.1431 72.0321C72.8301 72.1271 72.4221 72.2221 71.8931 72.3021C71.8201 72.3131 71.7431 72.3241 71.6651 72.3341C71.5531 72.3501 71.4331 72.3641 71.3111 72.3771C71.2441 72.3851 71.1791 72.3931 71.1091 72.4001C70.9611 72.4151 70.8041 72.4271 70.6421 72.4391C70.2641 72.4671 69.8481 72.4881 69.3872 72.4991L68.7912 72.2511L68.7882 72.5071L68.7862 72.6621C68.7512 72.7511 68.6452 72.9441 68.3682 73.1711C68.2772 73.2451 68.1672 73.3231 68.0342 73.4031C68.0222 73.4101 68.0092 73.4161 67.9982 73.4231C68.1382 73.512 68.2582 73.607 68.3632 73.707C68.4532 73.708 68.5342 73.711 68.6262 73.711C69.9941 73.711 71.0781 73.633 71.9381 73.5101C72.2761 73.4621 72.5711 73.4061 72.8431 73.3461C72.9511 73.3221 73.0571 73.2981 73.1551 73.2731C73.3731 73.2171 73.5661 73.1591 73.7391 73.0981C73.9041 73.0411 74.0561 72.9831 74.1861 72.9231C74.6021 72.7331 74.8501 72.5401 74.9991 72.3791C75.1001 72.2691 75.1571 72.1731 75.1871 72.1061Z" fill="#1895FF"/>
<path fill-rule="evenodd" clip-rule="evenodd" d="M68.3004 68.8357C68.3254 68.8577 68.3434 68.8817 68.3674 68.9037C68.4184 68.9517 68.4704 69.0007 68.5124 69.0517C68.5424 69.0887 68.5904 69.1197 68.6164 69.1577H68.7894L68.8014 69.3517C69.4764 69.3477 70.0804 69.3257 70.6214 69.2877C70.7764 69.2767 70.9264 69.2647 71.0714 69.2517C71.0754 69.2507 71.0784 69.2507 71.0824 69.2507C71.1204 69.2467 71.1644 69.2447 71.2024 69.2407C71.4634 69.2147 71.7084 69.1857 71.9374 69.1537C71.9624 69.1497 71.9834 69.1457 72.0084 69.1417C72.3164 69.0957 72.5904 69.0447 72.8424 68.9887C72.9504 68.9647 73.0564 68.9407 73.1544 68.9157C73.1704 68.9117 73.1844 68.9077 73.1994 68.9037C73.3104 68.8747 73.4214 68.8457 73.5204 68.8157C73.5984 68.7917 73.6684 68.7657 73.7394 68.7407C73.8974 68.6857 74.0444 68.6297 74.1704 68.5727C74.1754 68.5697 74.1814 68.5677 74.1864 68.5657C74.2584 68.5327 74.3214 68.4997 74.3844 68.4657C74.4254 68.4447 74.4674 68.4227 74.5044 68.4017C74.5524 68.3727 74.5964 68.3447 74.6384 68.3177C74.7974 68.2127 74.9144 68.1117 74.9984 68.0207C75.0574 67.9577 75.0994 67.8997 75.1314 67.8497C75.1384 67.8377 75.1464 67.8257 75.1524 67.8157C75.1664 67.7907 75.1784 67.7677 75.1874 67.7477L75.1934 67.3977L75.2024 66.7917L75.2114 66.2387L75.2194 65.7477L75.2294 65.0887L75.2304 65.0417C75.2154 65.0407 75.2014 65.0397 75.1874 65.0387C75.1844 65.0377 75.1814 65.0377 75.1784 65.0377C74.9704 65.0187 74.7694 64.9977 74.5804 64.9737C74.0324 64.9057 73.5614 64.8217 73.1554 64.7257C72.7494 64.8217 72.2774 64.9057 71.7304 64.9737C71.5404 64.9977 71.3404 65.0177 71.1314 65.0377C71.1294 65.0377 71.1264 65.0387 71.1234 65.0387C71.1064 65.0397 71.0894 65.0417 71.0724 65.0427C70.9234 65.0567 70.7804 65.0707 70.6214 65.0817C70.0814 65.1197 69.4754 65.1397 68.8134 65.1427L68.8074 65.7477L68.8014 66.3467C69.4334 66.3427 70.0454 66.3197 70.6214 66.2787C70.7744 66.2677 70.9234 66.2547 71.0714 66.2407C71.1744 66.2317 71.2754 66.2217 71.3764 66.2117C71.4254 66.2067 71.4734 66.2007 71.5224 66.1957C71.7824 66.1667 72.0354 66.1347 72.2744 66.0987C72.5884 66.0517 72.8814 65.9977 73.1544 65.9387C73.4284 65.8807 73.6784 65.8167 73.9044 65.7487H74.0354V66.0997V66.3067V67.2757C73.9164 67.3657 73.6534 67.5207 73.1434 67.6757C73.0934 67.6917 73.0434 67.7067 72.9874 67.7217C72.7344 67.7917 72.4244 67.8597 72.0534 67.9207C72.0014 67.9297 71.9484 67.9377 71.8934 67.9467C71.8864 67.9477 71.8794 67.9487 71.8724 67.9497C71.8054 67.9597 71.7354 67.9687 71.6654 67.9787C71.5524 67.9937 71.4334 68.0077 71.3104 68.0217C71.2434 68.0287 71.1794 68.0367 71.1084 68.0437C70.9604 68.0587 70.8034 68.0717 70.6414 68.0837C70.2634 68.1117 69.8474 68.1317 69.3864 68.1437L68.7714 67.8867C68.7434 67.9487 68.6904 68.0397 68.5914 68.1527L68.5904 68.1537C68.4714 68.2877 68.2834 68.4487 67.9984 68.6157C68.1084 68.6857 68.2104 68.7587 68.3004 68.8357Z" fill="#1895FF"/>
<path fill-rule="evenodd" clip-rule="evenodd" d="M68.0073 63.8116C68.1143 63.8806 68.2133 63.9516 68.3002 64.0266C68.3812 64.0956 68.4512 64.1686 68.5132 64.2436C68.5432 64.2796 68.5902 64.3106 68.6162 64.3476H68.7892L68.8012 64.5426C69.6432 64.5386 70.3742 64.5036 71.0102 64.4476C71.1242 64.4366 71.2402 64.4276 71.3482 64.4156C71.5232 64.3966 71.6922 64.3766 71.8512 64.3556C71.8792 64.3516 71.9092 64.3476 71.9372 64.3446C72.2052 64.3056 72.4462 64.2626 72.6722 64.2156C72.7312 64.2036 72.7872 64.1916 72.8432 64.1796C72.9502 64.1556 73.0562 64.1316 73.1542 64.1066C73.3052 64.0676 73.4462 64.0276 73.5762 63.9866C73.6332 63.9686 73.6852 63.9506 73.7382 63.9316C73.7582 63.9246 73.7802 63.9176 73.8002 63.9106C73.9412 63.8596 74.0722 63.8086 74.1862 63.7556C74.1902 63.7546 74.1942 63.7526 74.1972 63.7516C74.3262 63.6916 74.4352 63.6326 74.5332 63.5736C74.5682 63.5526 74.6012 63.5326 74.6322 63.5126C74.7942 63.4056 74.9142 63.3036 74.9982 63.2116C75.0552 63.1506 75.0962 63.0956 75.1272 63.0466C75.1522 63.0066 75.1732 62.9686 75.1872 62.9386L75.2022 61.9816L75.2112 61.4286L75.2182 60.9376L75.2292 60.2796V60.2326C75.2152 60.2306 75.2012 60.2296 75.1862 60.2286C75.1832 60.2276 75.1802 60.2276 75.1772 60.2276C74.9702 60.2086 74.7692 60.1876 74.5802 60.1636C74.0322 60.0956 73.5602 60.0116 73.1542 59.9156C72.7482 60.0116 72.2772 60.0956 71.7292 60.1636C71.5402 60.1876 71.3392 60.2076 71.1312 60.2276C71.1282 60.2276 71.1252 60.2276 71.1222 60.2276C71.1052 60.2296 71.0882 60.2306 71.0712 60.2326C70.9222 60.2456 70.7802 60.2606 70.6212 60.2716C70.0802 60.3086 69.4752 60.3286 68.8132 60.3326L68.8062 60.9366L68.8002 61.5356C69.4332 61.5326 70.0442 61.5096 70.6212 61.4676C70.7742 61.4566 70.9232 61.4436 71.0712 61.4306C71.1742 61.4216 71.2752 61.4116 71.3752 61.4006C71.4242 61.3956 71.4722 61.3896 71.5212 61.3846C71.7812 61.3556 72.0342 61.3236 72.2732 61.2876C72.5882 61.2406 72.8802 61.1866 73.1542 61.1276C73.4282 61.0696 73.6792 61.0056 73.9062 60.9366H74.0342V61.2876V61.4956V62.4656C73.9162 62.5546 73.6522 62.7096 73.1422 62.8656C72.8282 62.9606 72.4212 63.0556 71.8922 63.1356C71.8882 63.1366 71.8842 63.1366 71.8802 63.1376C71.8102 63.1476 71.7382 63.1586 71.6642 63.1676C71.5512 63.1836 71.4322 63.1966 71.3092 63.2106C71.2422 63.2186 71.1782 63.2266 71.1072 63.2336C70.9592 63.2476 70.8022 63.2606 70.6402 63.2726C70.2622 63.3006 69.8462 63.3216 69.3862 63.3326L68.7702 63.0756C68.7422 63.1376 68.6892 63.2286 68.5902 63.3416H68.5892C68.4712 63.4766 68.2823 63.6376 67.9963 63.8046C68.0003 63.8076 68.0043 63.8096 68.0073 63.8116Z" fill="#1895FF"/>
<path fill-rule="evenodd" clip-rule="evenodd" d="M68.0057 59.0017C68.1137 59.0707 68.2127 59.1417 68.3007 59.2177C68.3817 59.2877 68.4517 59.3597 68.5137 59.4347C68.5437 59.4707 68.5907 59.5017 68.6167 59.5387H68.7897L68.8017 59.7327C69.6436 59.7287 70.3746 59.6937 71.0106 59.6377C71.1256 59.6277 71.2406 59.6177 71.3496 59.6057C71.5246 59.5877 71.6936 59.5677 71.8536 59.5457C71.8806 59.5427 71.9106 59.5387 71.9366 59.5357C72.2056 59.4967 72.4466 59.4537 72.6736 59.4067C72.7316 59.3957 72.7866 59.3827 72.8426 59.3707C72.9506 59.3467 73.0566 59.3227 73.1546 59.2977C73.3056 59.2597 73.4466 59.2197 73.5766 59.1787C73.6326 59.1607 73.6846 59.1427 73.7376 59.1237C73.7586 59.1167 73.7806 59.1097 73.8006 59.1027C73.9416 59.0517 74.0726 58.9997 74.1866 58.9477C74.1906 58.9457 74.1946 58.9447 74.1986 58.9427C74.3266 58.8837 74.4356 58.8247 74.5336 58.7657C74.5686 58.7447 74.6016 58.7237 74.6326 58.7037C74.7946 58.5977 74.9146 58.4947 74.9996 58.4027C75.0556 58.3417 75.0966 58.2867 75.1286 58.2377C75.1536 58.1977 75.1746 58.1607 75.1876 58.1297L75.2026 57.1737L75.2116 56.6197L75.2186 56.1287L75.2296 55.4707V55.4227C75.2156 55.4217 75.2016 55.4197 75.1866 55.4187C75.1836 55.4187 75.1806 55.4187 75.1786 55.4177C74.9706 55.3987 74.7696 55.3787 74.5796 55.3547C74.0326 55.2867 73.5606 55.2017 73.1546 55.1067C72.7486 55.2017 72.2776 55.2867 71.7306 55.3547C71.5406 55.3777 71.3396 55.3987 71.1316 55.4177C71.1286 55.4187 71.1256 55.4187 71.1226 55.4187C71.1056 55.4207 71.0886 55.4217 71.0716 55.4237C70.9226 55.4367 70.7806 55.4517 70.6216 55.4627C70.0806 55.4997 69.4756 55.5197 68.8137 55.5237L68.8067 56.1287L68.8007 56.7277C69.4336 56.7237 70.0446 56.7007 70.6216 56.6597C70.7746 56.6487 70.9236 56.6357 71.0716 56.6217C71.1746 56.6127 71.2756 56.6027 71.3756 56.5917C71.4256 56.5867 71.4736 56.5807 71.5216 56.5757C71.7816 56.5467 72.0346 56.5147 72.2736 56.4797C72.5886 56.4317 72.8806 56.3777 73.1546 56.3197C73.4286 56.2607 73.6786 56.1967 73.9056 56.1287H74.0346V56.4797V56.6867V57.6567C73.9166 57.7467 73.6526 57.9007 73.1426 58.0557C72.8286 58.1517 72.4206 58.2467 71.8926 58.3267C71.8886 58.3267 71.8846 58.3277 71.8816 58.3277C71.8116 58.3387 71.7386 58.3487 71.6646 58.3587C71.5516 58.3737 71.4326 58.3877 71.3096 58.4017C71.2426 58.4087 71.1776 58.4167 71.1076 58.4237C70.9596 58.4387 70.8026 58.4517 70.6406 58.4637C70.2626 58.4917 69.8456 58.5127 69.3846 58.5227L68.7707 58.2677C68.7427 58.3287 68.6907 58.4197 68.5917 58.5317C68.5917 58.5327 68.5907 58.5327 68.5907 58.5327C68.4717 58.6677 68.2827 58.8297 67.9977 58.9967C67.9997 58.9987 68.0027 58.9997 68.0057 59.0017Z" fill="#1895FF"/>
<path fill-rule="evenodd" clip-rule="evenodd" d="M68.0065 54.1931C68.1135 54.2621 68.2135 54.3331 68.3005 54.4091C68.3805 54.4781 68.4505 54.5501 68.5125 54.6251C68.5425 54.6611 68.5905 54.6931 68.6165 54.7301H68.7895L68.8015 54.9241C69.6435 54.9201 70.3745 54.8851 71.0105 54.8291C71.1255 54.8191 71.2405 54.8091 71.3495 54.7971C71.5245 54.7781 71.6935 54.7591 71.8525 54.7371C71.8805 54.7331 71.9105 54.7301 71.9375 54.7261C72.2055 54.6881 72.4465 54.6441 72.6725 54.5981C72.7315 54.5861 72.7865 54.5741 72.8425 54.5621C72.9505 54.5381 73.0565 54.5141 73.1545 54.4891C73.3055 54.4501 73.4465 54.4111 73.5755 54.3691C73.6325 54.3511 73.6855 54.3331 73.7385 54.3141C73.7595 54.3071 73.7805 54.3001 73.8005 54.2931C73.9415 54.2431 74.0715 54.1911 74.1865 54.1391C74.1905 54.1371 74.1945 54.1351 74.1985 54.1341C74.3265 54.0751 74.4345 54.0161 74.5325 53.9571C74.5675 53.9361 74.6005 53.9161 74.6315 53.8951C74.7935 53.7881 74.9135 53.6861 74.9995 53.5941C75.0555 53.5331 75.0965 53.4791 75.1275 53.4291C75.1525 53.3891 75.1735 53.3511 75.1875 53.3211L75.2025 52.3651L75.2115 51.8111L75.2185 51.3211L75.2295 50.6621V50.6141C75.2155 50.6131 75.2015 50.6121 75.1875 50.6111C75.1845 50.6101 75.1815 50.6101 75.1785 50.6101C74.9705 50.5911 74.7695 50.5701 74.5795 50.5461C74.0325 50.4791 73.5605 50.3941 73.1545 50.2981C72.7485 50.3941 72.2775 50.4791 71.7305 50.5461C71.5405 50.5701 71.3395 50.5911 71.1315 50.6101C71.1285 50.6101 71.1255 50.6111 71.1225 50.6111C71.1065 50.6121 71.0885 50.6141 71.0715 50.6151C70.9225 50.6291 70.7805 50.6441 70.6215 50.6551C70.0805 50.6921 69.4755 50.7121 68.8135 50.7151L68.8065 51.3211L68.8005 51.9191C69.4335 51.9151 70.0445 51.8921 70.6215 51.8511C70.7745 51.8401 70.9235 51.8271 71.0715 51.8131C71.1745 51.8041 71.2755 51.7941 71.3755 51.7831C71.4255 51.7781 71.4735 51.7721 71.5215 51.7671C71.7815 51.7381 72.0345 51.7061 72.2735 51.6711C72.5885 51.6231 72.8805 51.5691 73.1545 51.5111C73.4275 51.4521 73.6775 51.3891 73.9035 51.3201H74.0355V51.6711V51.8781V52.8481C73.9165 52.9371 73.6525 53.0921 73.1425 53.2471C72.8295 53.3431 72.4215 53.4381 71.8925 53.5181C71.8895 53.5191 71.8845 53.5191 71.8815 53.5201C71.8115 53.5301 71.7385 53.5401 71.6645 53.5501C71.5525 53.5651 71.4325 53.5791 71.3105 53.5931C71.2435 53.6001 71.1785 53.6081 71.1085 53.6151C70.9605 53.6301 70.8035 53.6431 70.6415 53.6551C70.2635 53.6831 69.8475 53.7041 69.3865 53.7151L68.7705 53.4581C68.7435 53.5201 68.6905 53.6111 68.5915 53.7231C68.5915 53.7241 68.5915 53.7241 68.5915 53.7241H68.5905C68.4715 53.8591 68.2825 54.0201 67.9975 54.1871C68.0005 54.1891 68.0035 54.1911 68.0065 54.1931Z" fill="#1895FF"/>
<path fill-rule="evenodd" clip-rule="evenodd" d="M68.0066 49.366C68.1136 49.435 68.2136 49.506 68.3006 49.582C68.3806 49.651 68.4506 49.723 68.5126 49.798C68.5426 49.834 68.5906 49.866 68.6166 49.904H68.7896L68.8016 50.097C69.6435 50.093 70.3745 50.059 71.0105 50.002C71.1255 49.992 71.2405 49.982 71.3495 49.97C71.5235 49.951 71.6925 49.932 71.8525 49.91C71.8795 49.906 71.9095 49.903 71.9365 49.899C72.2055 49.86 72.4455 49.817 72.6725 49.771C72.7305 49.759 72.7865 49.747 72.8425 49.734C72.9505 49.711 73.0555 49.686 73.1545 49.661C73.3055 49.623 73.4465 49.583 73.5755 49.541C73.6325 49.523 73.6855 49.505 73.7385 49.486C73.7585 49.479 73.7805 49.473 73.8005 49.465C73.9415 49.415 74.0715 49.363 74.1855 49.311C74.1895 49.309 74.1945 49.308 74.1975 49.306C74.3255 49.247 74.4345 49.188 74.5325 49.129C74.5665 49.108 74.6005 49.088 74.6315 49.067C74.7935 48.961 74.9135 48.859 74.9985 48.767C75.0545 48.706 75.0955 48.651 75.1265 48.601C75.1525 48.561 75.1735 48.524 75.1865 48.493L75.2015 47.537L75.2105 46.984L75.2185 46.492L75.2285 45.834L75.2315 45.615C75.2325 45.607 75.2375 45.599 75.2375 45.59C75.2375 45.583 75.2325 45.576 75.2325 45.569L75.2365 45.29H75.1045C75.0035 45.177 74.8415 45.07 74.6365 44.968C74.5645 45.003 74.4875 45.039 74.4055 45.074C74.2355 45.148 74.0395 45.22 73.8205 45.29C73.8125 45.292 73.8045 45.295 73.7975 45.297C73.2705 45.463 72.5935 45.612 71.7295 45.719C71.5395 45.743 71.3385 45.763 71.1305 45.783C71.1275 45.783 71.1245 45.783 71.1215 45.783C71.1055 45.785 71.0875 45.787 71.0705 45.788C70.9215 45.801 70.7795 45.816 70.6205 45.827C70.0795 45.864 69.4745 45.884 68.8126 45.888L68.8056 46.492L68.7996 47.091C69.4325 47.088 70.0435 47.065 70.6205 47.023C70.7735 47.012 70.9225 46.999 71.0705 46.986C71.1735 46.977 71.2745 46.967 71.3745 46.956C71.4245 46.951 71.4725 46.945 71.5205 46.94C71.7805 46.911 72.0335 46.88 72.2725 46.843C72.5875 46.796 72.8795 46.742 73.1535 46.684C73.4275 46.625 73.6785 46.561 73.9055 46.492H74.0345V46.843V47.051V48.021C73.9155 48.11 73.6515 48.265 73.1415 48.421C72.8285 48.516 72.4205 48.611 71.8915 48.691C71.8885 48.692 71.8835 48.692 71.8805 48.693C71.8105 48.703 71.7375 48.713 71.6635 48.723C71.5515 48.738 71.4315 48.752 71.3095 48.766C71.2425 48.773 71.1775 48.781 71.1075 48.788C70.9595 48.803 70.8025 48.816 70.6405 48.828C70.2625 48.856 69.8465 48.877 69.3855 48.888L68.7706 48.632C68.7426 48.693 68.6896 48.784 68.5906 48.896L68.5896 48.897C68.4706 49.032 68.2816 49.193 67.9966 49.36C68.0006 49.362 68.0036 49.364 68.0066 49.366Z" fill="#1895FF"/>
<path fill-rule="evenodd" clip-rule="evenodd" d="M71.8812 43.8841C71.2402 43.9811 70.4252 44.0551 69.3873 44.0791L68.7713 43.8221C68.7433 43.8841 68.6903 43.9751 68.5913 44.0881H68.5903C68.4723 44.2231 68.2833 44.3841 67.9973 44.5511C68.0003 44.5531 68.0043 44.5551 68.0073 44.5571C68.1143 44.6261 68.2133 44.6971 68.3003 44.7721C68.3813 44.8411 68.4513 44.9141 68.5133 44.9891C68.5433 45.0251 68.5903 45.0561 68.6163 45.0931H68.7893L68.8013 45.2881C69.6433 45.2841 70.3742 45.2491 71.0102 45.1931C71.1242 45.1831 71.2392 45.1731 71.3482 45.1611C71.5232 45.1421 71.6922 45.1221 71.8512 45.1011C72.1522 45.0591 72.4222 45.0121 72.6722 44.9621C73.0172 44.8921 73.3182 44.8141 73.5762 44.7331C73.6542 44.7071 73.7292 44.6821 73.8002 44.6571C73.9452 44.6041 74.0802 44.5511 74.1972 44.4981C74.3262 44.4381 74.4342 44.3791 74.5332 44.3201C74.5672 44.2991 74.6002 44.2791 74.6312 44.2581C74.9002 44.0821 75.0482 43.9171 75.1262 43.7931C75.1522 43.7531 75.1732 43.7151 75.1862 43.6851L75.2282 41.0251L75.2312 40.8061C75.2322 40.7981 75.2372 40.7901 75.2372 40.7811C75.2372 40.7741 75.2322 40.7671 75.2322 40.7601L75.2362 40.4811H75.1042C75.0032 40.3682 74.8412 40.2602 74.6362 40.1582C74.5642 40.1942 74.4872 40.2292 74.4052 40.2652C74.2342 40.3392 74.0362 40.4112 73.8172 40.4811C73.8102 40.4831 73.8032 40.4851 73.7972 40.4871C72.7812 40.8081 71.2172 41.0651 68.8123 41.0781L68.8063 41.6831L68.8003 42.2821C70.8882 42.2701 72.7312 42.0381 73.9052 41.6831H74.0342V43.2121C73.8432 43.3571 73.2782 43.6741 71.8812 43.8841Z" fill="#1895FF"/>
<path fill-rule="evenodd" clip-rule="evenodd" d="M62.3128 38.5514C62.3628 38.5524 62.4128 38.5534 62.4638 38.5554C62.8328 38.5674 63.2018 38.5874 63.5698 38.6174C64.4398 38.6884 65.2858 38.8084 66.0388 38.9874C66.3418 39.0594 66.6298 39.1394 66.8968 39.2294C66.9788 39.2564 67.0478 39.2904 67.1268 39.3194C67.1348 39.3224 67.1428 39.3264 67.1508 39.3284C67.4778 39.4534 67.7648 39.5924 68.0068 39.7484C68.1138 39.8174 68.2128 39.8884 68.3008 39.9634C68.3808 40.0324 68.4508 40.1054 68.5128 40.1794C68.5428 40.2164 68.5898 40.2474 68.6158 40.2854H68.7888L68.8008 40.4793C70.5027 40.4703 71.7537 40.3394 72.6717 40.1534C73.0167 40.0834 73.3177 40.0064 73.5747 39.9244C73.6537 39.8994 73.7277 39.8734 73.7997 39.8484C73.9447 39.7954 74.0797 39.7424 74.1967 39.6884C74.8877 39.3704 75.1147 39.0404 75.1867 38.8754L75.2287 36.2174L75.2317 35.9984C75.2327 35.9904 75.2377 35.9824 75.2377 35.9734C75.2377 35.9664 75.2327 35.9594 75.2327 35.9524L75.2367 35.6734H75.1047C75.0047 35.5604 74.8427 35.4524 74.6367 35.3504C74.5647 35.3864 74.4877 35.4214 74.4057 35.4574C74.2347 35.5314 74.0377 35.6034 73.8167 35.6734C73.8107 35.6754 73.8037 35.6774 73.7977 35.6794C72.7547 36.0094 71.1417 36.2744 68.6248 36.2744C66.1078 36.2744 64.4958 36.0094 63.4528 35.6804C63.4468 35.6784 63.4398 35.6764 63.4328 35.6744C63.2128 35.6044 63.0158 35.5314 62.8448 35.4574C62.7628 35.4224 62.6858 35.3864 62.6138 35.3514C62.4078 35.4534 62.2468 35.5614 62.1458 35.6744H62.0128V38.5464C62.1128 38.5454 62.2128 38.5494 62.3128 38.5514ZM64.0958 37.0654C65.2788 37.3194 66.8698 37.4754 68.6258 37.4754C70.7857 37.4754 72.6977 37.2394 73.9047 36.8754H74.0347V38.4024C73.8427 38.5474 73.2777 38.8644 71.8807 39.0744C71.2397 39.1714 70.4237 39.2454 69.3848 39.2694L68.3428 38.8354L64.0958 37.0654Z" fill="#1895FF"/>
<path fill-rule="evenodd" clip-rule="evenodd" d="M62.0637 34.0676C62.1357 34.2326 62.3627 34.5626 63.0527 34.8796C63.1697 34.9336 63.3047 34.9866 63.4497 35.0396C63.5217 35.0646 63.5957 35.0906 63.6747 35.1156C63.9327 35.1976 64.2327 35.2746 64.5777 35.3446C65.5297 35.5376 66.8297 35.6726 68.6257 35.6726C70.4216 35.6726 71.7216 35.5376 72.6726 35.3446C73.0176 35.2746 73.3186 35.1966 73.5766 35.1146C73.6546 35.0896 73.7296 35.0646 73.8006 35.0386C73.9456 34.9866 74.0806 34.9336 74.1976 34.8796C74.8886 34.5616 75.1146 34.2316 75.1866 34.0666L75.2286 31.4076L75.2326 31.1886C75.2326 31.1806 75.2376 31.1726 75.2376 31.1646C75.2376 31.1566 75.2336 31.1496 75.2326 31.1426L75.2376 30.8636H75.1046C74.4916 30.1776 71.8246 29.6616 68.6247 29.6616C65.4257 29.6616 62.7577 30.1776 62.1457 30.8636H62.0127V33.8256V33.8266L62.0637 34.0676ZM69.3856 34.4616L68.3437 34.0266L64.0957 32.2566C65.2797 32.5106 66.8707 32.6666 68.6257 32.6666C70.7876 32.6666 72.7006 32.4306 73.9066 32.0656H74.0356V33.5936C73.8436 33.7386 73.2786 34.0556 71.8816 34.2666C71.2396 34.3626 70.4246 34.4366 69.3856 34.4616Z" fill="#1895FF"/>
<path fill-rule="evenodd" clip-rule="evenodd" d="M68.3664 73.8732H68.2344C68.2294 73.8672 68.2214 73.8612 68.2164 73.8562C68.1674 73.8042 68.1054 73.7532 68.0334 73.7042C67.9574 73.6512 67.8664 73.6002 67.7664 73.5502C67.6944 73.5852 67.6174 73.6212 67.5354 73.6572C67.5104 73.6672 67.4874 73.6782 67.4604 73.6892C67.3524 73.7342 67.2344 73.7782 67.1074 73.8222C67.0574 73.8392 66.9994 73.8562 66.9464 73.8732C66.9404 73.8752 66.9334 73.8772 66.9274 73.8792C66.5924 73.9852 66.1944 74.0832 65.7304 74.1682C64.7474 74.3492 63.4624 74.4732 61.7534 74.4732C59.2364 74.4732 57.6234 74.2082 56.5804 73.8792C56.5744 73.8772 56.5674 73.8752 56.5614 73.8732C56.3414 73.8032 56.1444 73.7312 55.9734 73.6572C55.8914 73.6212 55.8134 73.5852 55.7424 73.5502C55.5364 73.6522 55.3744 73.7602 55.2734 73.8732H55.1414V74.1732V74.4172V76.4522V76.5452V76.8352L55.1924 77.0772C55.2464 77.2002 55.3894 77.4142 55.7404 77.6462C55.8144 77.6942 55.9004 77.7442 55.9944 77.7942C56.0614 77.8302 56.1314 77.8652 56.2094 77.9002C56.3924 77.9832 56.6064 78.0652 56.8584 78.1432C56.9574 78.1732 57.0684 78.2022 57.1794 78.2312C58.1564 78.4882 59.6004 78.6822 61.7534 78.6822C63.9074 78.6822 65.3504 78.4882 66.3274 78.2312C66.4384 78.2022 66.5494 78.1732 66.6484 78.1432C66.9014 78.0652 67.1154 77.9832 67.2984 77.9002C67.3764 77.8652 67.4454 77.8292 67.5124 77.7942C67.6074 77.7442 67.6924 77.6942 67.7674 77.6452C68.1184 77.4132 68.2614 77.1982 68.3154 77.0752L68.3574 74.4172L68.3594 74.3082L68.3604 74.1972C68.3614 74.1892 68.3664 74.1812 68.3664 74.1732C68.3664 74.1662 68.3614 74.1592 68.3614 74.1522L68.3664 73.8732ZM67.1634 75.0752V76.6022C67.0334 76.7012 66.7324 76.8782 66.1164 77.0482C65.8624 77.1182 65.5534 77.1862 65.1824 77.2472C65.1234 77.2572 65.0624 77.2662 65.0004 77.2762C64.3604 77.3722 63.5474 77.4452 62.5144 77.4702L61.4634 77.0322H61.4624L60.4724 76.6192L57.2234 75.2652C58.4074 75.5192 59.9984 75.6752 61.7534 75.6752C63.9144 75.6752 65.8264 75.4392 67.0324 75.0752H67.1634Z" fill="#1895FF"/>
<path fill-rule="evenodd" clip-rule="evenodd" d="M56.1812 73.0804C56.2982 73.1344 56.4332 73.1874 56.5782 73.2394C56.6492 73.2654 56.7242 73.2904 56.8032 73.3154C57.0602 73.3974 57.3602 73.4744 57.7052 73.5444C58.6572 73.7374 59.9572 73.8734 61.7542 73.8734C62.5022 73.8734 63.1582 73.8484 63.7472 73.8074C64.3042 73.7674 64.7932 73.7134 65.2232 73.6464C65.3982 73.6194 65.5662 73.5914 65.7222 73.5614C65.7502 73.5564 65.7742 73.5504 65.8012 73.5444C66.1082 73.4824 66.3852 73.4154 66.6222 73.3434C66.6522 73.3344 66.6762 73.3244 66.7042 73.3154C66.7832 73.2904 66.8582 73.2654 66.9292 73.2394C66.9912 73.2174 67.0502 73.1944 67.1072 73.1714C67.1822 73.1414 67.2592 73.1114 67.3262 73.0804C67.7662 72.8774 68.0142 72.6714 68.1572 72.5054C68.2382 72.4104 68.2892 72.3274 68.3152 72.2674L68.3192 72.0564L68.3402 70.7034L68.3492 70.1064L68.3522 69.9504L68.3572 69.6074L68.3592 69.4994L68.3612 69.3884C68.3612 69.3804 68.3662 69.3724 68.3662 69.3644C68.3662 69.3594 68.3632 69.3544 68.3632 69.3504C68.3632 69.3474 68.3622 69.3454 68.3612 69.3434L68.3662 69.0634H68.2332C68.2282 69.0584 68.2222 69.0534 68.2172 69.0484C68.1742 69.0034 68.1242 68.9584 68.0642 68.9144C68.0592 68.9104 68.0522 68.9074 68.0472 68.9034C67.9672 68.8474 67.8712 68.7934 67.7652 68.7404C67.6932 68.7764 67.6162 68.8124 67.5342 68.8474C67.5222 68.8534 67.5132 68.8574 67.5022 68.8624C67.4692 68.8764 67.4322 68.8904 67.3982 68.9044C67.3042 68.9414 67.2082 68.9794 67.1012 69.0154C67.0532 69.0324 66.9982 69.0474 66.9472 69.0644C66.9412 69.0664 66.9332 69.0684 66.9262 69.0704C66.7202 69.1354 66.4892 69.1974 66.2352 69.2564C66.0792 69.2924 65.9142 69.3264 65.7392 69.3584C65.2962 69.4404 64.7872 69.5094 64.2072 69.5614C63.6872 69.6084 63.1072 69.6404 62.4632 69.6544C62.4152 69.6554 62.3662 69.6554 62.3182 69.6564C62.2162 69.6584 62.1172 69.6604 62.0122 69.6614C61.9232 69.6624 61.8442 69.6654 61.7532 69.6654C61.6862 69.6654 61.6282 69.6624 61.5622 69.6624C59.1582 69.6484 57.5952 69.3914 56.5802 69.0704C56.5732 69.0684 56.5652 69.0664 56.5592 69.0644C56.3392 68.9944 56.1432 68.9224 55.9722 68.8484C55.8902 68.8134 55.8142 68.7774 55.7412 68.7414C55.5362 68.8434 55.3742 68.9514 55.2732 69.0644H55.1402V69.3644V69.6084V71.6434V71.7354V72.0264L55.1912 72.2684C55.2652 72.4334 55.4912 72.7624 56.1812 73.0804ZM61.5632 70.8644C61.6272 70.8654 61.6892 70.8674 61.7542 70.8674C61.8412 70.8674 61.9262 70.8644 62.0132 70.8644C62.0822 70.8634 62.1512 70.8624 62.2202 70.8614C62.3012 70.8604 62.3832 70.8604 62.4632 70.8584C62.7192 70.8514 62.9692 70.8414 63.2152 70.8284C63.8492 70.7964 64.4482 70.7434 64.9992 70.6724C65.2672 70.6384 65.5222 70.5994 65.7662 70.5574C66.2452 70.4734 66.6722 70.3754 67.0352 70.2664H67.1642V70.6684V71.5754V71.7944C67.0052 71.9144 66.5892 72.1514 65.6642 72.3484C65.4692 72.3904 65.2532 72.4304 65.0102 72.4664C64.5102 72.5414 63.9042 72.6034 63.1682 72.6384C63.1572 72.6394 63.1472 72.6394 63.1362 72.6404C62.9612 72.6484 62.7752 72.6544 62.5842 72.6594C62.5602 72.6604 62.5392 72.6614 62.5142 72.6624L62.1292 72.5014L61.5622 72.2654L61.4722 72.2284L57.2232 70.4574C58.3642 70.7014 59.8832 70.8534 61.5632 70.8644Z" fill="#1895FF"/>
<path fill-rule="evenodd" clip-rule="evenodd" d="M56.1808 68.2707C56.2978 68.3247 56.4328 68.3777 56.5788 68.4297C56.6498 68.4557 56.7248 68.4817 56.8028 68.5057C57.0608 68.5877 57.3608 68.6647 57.7058 68.7347C58.6218 68.9207 59.8678 69.0507 61.5628 69.0597C61.6278 69.0607 61.6868 69.0627 61.7538 69.0627C61.8448 69.0627 61.9248 69.0597 62.0128 69.0597C62.0238 69.0597 62.0338 69.0587 62.0448 69.0587C62.1328 69.0587 62.2178 69.0567 62.3038 69.0547C62.4208 69.0527 62.5448 69.0527 62.6568 69.0507C62.8438 69.0447 63.0168 69.0367 63.1928 69.0277C63.4018 69.0177 63.6058 69.0067 63.7988 68.9927C63.9548 68.9817 64.1098 68.9697 64.2558 68.9557C64.4228 68.9407 64.5788 68.9217 64.7318 68.9037C64.9068 68.8817 65.0758 68.8597 65.2338 68.8347C65.4358 68.8037 65.6258 68.7707 65.8018 68.7347C65.8878 68.7167 65.9728 68.6987 66.0518 68.6807C66.2938 68.6257 66.5108 68.5667 66.7048 68.5057C66.7828 68.4797 66.8578 68.4547 66.9288 68.4297C67.0738 68.3767 67.2098 68.3237 67.3268 68.2697C67.3888 68.2417 67.4408 68.2127 67.4958 68.1847C67.5288 68.1677 67.5668 68.1497 67.5968 68.1327C67.8668 67.9807 68.0368 67.8337 68.1478 67.7067L68.1488 67.7057C68.1658 67.6857 68.1848 67.6657 68.1988 67.6477C68.2568 67.5727 68.2938 67.5077 68.3158 67.4577L68.3188 67.2577L68.3328 66.3447L68.3428 65.7477L68.3518 65.1407L68.3578 64.7987L68.3598 64.6907L68.3608 64.5787C68.3618 64.5707 68.3668 64.5627 68.3668 64.5547C68.3668 64.5517 68.3648 64.5487 68.3648 64.5457C68.3648 64.5437 68.3637 64.5427 68.3637 64.5417C68.3637 64.5387 68.3618 64.5367 68.3618 64.5337L68.3668 64.2547H68.2338C68.2298 64.2497 68.2228 64.2447 68.2178 64.2397C68.1748 64.1937 68.1248 64.1497 68.0648 64.1057C67.9818 64.0457 67.8788 63.9877 67.7648 63.9317C67.6938 63.9677 67.6168 64.0027 67.5348 64.0387C67.5228 64.0437 67.5138 64.0487 67.5018 64.0537C67.3798 64.1047 67.2458 64.1567 67.1008 64.2057C67.0518 64.2227 66.9968 64.2387 66.9458 64.2547C66.9398 64.2567 66.9328 64.2587 66.9268 64.2607C66.7198 64.3257 66.4878 64.3887 66.2328 64.4467C66.0828 64.4817 65.9228 64.5137 65.7548 64.5457C65.7498 64.5467 65.7438 64.5467 65.7388 64.5487C65.2948 64.6307 64.7858 64.6987 64.2048 64.7517C63.7948 64.7887 63.3588 64.8187 62.8728 64.8357C62.6508 64.8427 62.4098 64.8457 62.1708 64.8487C62.1178 64.8487 62.0678 64.8507 62.0138 64.8507H62.0128C61.9238 64.8517 61.8448 64.8547 61.7538 64.8547C61.6868 64.8547 61.6288 64.8517 61.5628 64.8517C59.1598 64.8377 57.5958 64.5807 56.5808 64.2607C56.5748 64.2587 56.5678 64.2567 56.5618 64.2547C56.3418 64.1847 56.1448 64.1127 55.9738 64.0387C55.8918 64.0027 55.8138 63.9667 55.7428 63.9317C55.5368 64.0337 55.3748 64.1417 55.2738 64.2547H55.1408V64.5557V64.7987V66.8347V66.9267V67.2177L55.1918 67.4597C55.2648 67.6247 55.4908 67.9537 56.1808 68.2707ZM61.5628 66.0557C61.6268 66.0557 61.6898 66.0577 61.7538 66.0577C61.8418 66.0577 61.9268 66.0557 62.0128 66.0547C62.1328 66.0537 62.2528 66.0537 62.3708 66.0507C62.4018 66.0507 62.4328 66.0497 62.4638 66.0497C62.7188 66.0427 62.9688 66.0327 63.2158 66.0207C63.5328 66.0037 63.8398 65.9827 64.1378 65.9557C64.1478 65.9547 64.1578 65.9547 64.1678 65.9537C64.7458 65.9017 65.2818 65.8317 65.7668 65.7477C66.2448 65.6647 66.6708 65.5667 67.0338 65.4577H67.1638V65.7477V66.3097V66.9857C67.1158 67.0217 67.0408 67.0697 66.9388 67.1227C66.7948 67.1987 66.5898 67.2867 66.3018 67.3757C65.9828 67.4747 65.5608 67.5737 65.0108 67.6567C64.8018 67.6887 64.5748 67.7167 64.3278 67.7427C64.2548 67.7507 64.1808 67.7577 64.1038 67.7647C63.6998 67.8017 63.2428 67.8287 62.7338 67.8447C62.6598 67.8477 62.5898 67.8507 62.5128 67.8527L62.4638 67.8317L62.0438 67.6567L62.0128 67.6437L61.5628 67.4557L61.4708 67.4177L57.2238 65.6487C58.3638 65.8917 59.8838 66.0447 61.5628 66.0557Z" fill="#1895FF"/>
<path fill-rule="evenodd" clip-rule="evenodd" d="M56.1812 63.4619C56.2982 63.5159 56.4332 63.5689 56.5782 63.6209C56.6502 63.6469 56.7242 63.6729 56.8032 63.6969C57.0612 63.7789 57.3612 63.8559 57.7062 63.9259C58.6582 64.1189 59.9572 64.2549 61.7532 64.2549C61.8912 64.2549 62.0142 64.2509 62.1462 64.2489C62.2882 64.2479 62.4322 64.2459 62.5682 64.2429C62.5962 64.2419 62.6282 64.2429 62.6562 64.2419C62.7942 64.2379 62.9212 64.2309 63.0532 64.2259C63.3132 64.2149 63.5632 64.2009 63.7982 64.1839C63.9552 64.1729 64.1092 64.1609 64.2542 64.1469C64.6122 64.1139 64.9352 64.0719 65.2322 64.0269C65.4342 63.9949 65.6242 63.9619 65.8002 63.9259C65.8872 63.9079 65.9712 63.8899 66.0522 63.8719C66.2932 63.8169 66.5102 63.7579 66.7032 63.6969C66.7822 63.6709 66.8572 63.6459 66.9282 63.6209C67.0732 63.5679 67.2082 63.5149 67.3252 63.4609C67.3912 63.4309 67.4462 63.4009 67.5032 63.3709C67.5072 63.3689 67.5112 63.3669 67.5152 63.3649C67.5412 63.3519 67.5712 63.3379 67.5952 63.3239C67.8602 63.1749 68.0302 63.0289 68.1422 62.9039C68.1622 62.8809 68.1812 62.8589 68.1982 62.8379C68.2562 62.7629 68.2932 62.6979 68.3152 62.6479L68.3322 61.5349L68.3422 60.9369L68.3512 60.3319L68.3572 59.9889L68.3592 59.8809L68.3602 59.7699C68.3612 59.7619 68.3662 59.7539 68.3662 59.7459C68.3662 59.7419 68.3632 59.7389 68.3632 59.7359C68.3632 59.7339 68.3632 59.7329 68.3632 59.7319C68.3632 59.7289 68.3612 59.7279 68.3612 59.7249L68.3652 59.4459H68.2332C68.2292 59.4409 68.2222 59.4359 68.2172 59.4309C68.1742 59.3849 68.1252 59.3399 68.0642 59.2959C67.9822 59.2369 67.8782 59.1789 67.7652 59.1229C67.6932 59.1589 67.6162 59.1939 67.5342 59.2299C67.5232 59.2349 67.5142 59.2399 67.5022 59.2439C67.3802 59.2959 67.2462 59.3479 67.1002 59.3979C67.0522 59.4149 66.9972 59.4299 66.9462 59.4459C66.9392 59.4479 66.9332 59.4499 66.9262 59.4519C66.7202 59.5169 66.4902 59.5789 66.2362 59.6379C66.0862 59.6719 65.9282 59.7049 65.7612 59.7359C65.7542 59.7369 65.7462 59.7379 65.7392 59.7399C65.2962 59.8219 64.7872 59.8909 64.2062 59.9429C63.7962 59.9799 63.3592 60.0099 62.8732 60.0269C62.6512 60.0349 62.4092 60.0369 62.1702 60.0399C62.1182 60.0409 62.0682 60.0419 62.0142 60.0419H62.0132C61.9242 60.0429 61.8452 60.0459 61.7542 60.0459C61.6872 60.0459 61.6292 60.0439 61.5632 60.0429C59.1592 60.0299 57.5962 59.7729 56.5812 59.4519C56.5752 59.4499 56.5682 59.4479 56.5612 59.4459C56.3412 59.3759 56.1442 59.3039 55.9732 59.2299C55.8912 59.1939 55.8142 59.1589 55.7422 59.1229C55.5362 59.2249 55.3752 59.3329 55.2742 59.4459H55.1422V59.7459V59.9899V62.0249V62.1179V62.4079L55.1922 62.6499C55.2652 62.8149 55.4912 63.1439 56.1812 63.4619ZM61.5632 61.2469C61.6272 61.2469 61.6892 61.2489 61.7542 61.2489C61.8412 61.2489 61.9262 61.2469 62.0132 61.2459C62.1332 61.2449 62.2532 61.2439 62.3712 61.2419C62.4022 61.2409 62.4322 61.2409 62.4632 61.2399C62.7192 61.2339 62.9692 61.2239 63.2152 61.2109C63.5322 61.1949 63.8392 61.1729 64.1382 61.1469C64.1482 61.1459 64.1582 61.1449 64.1682 61.1439C64.7472 61.0929 65.2842 61.0229 65.7702 60.9379C66.2472 60.8549 66.6712 60.7579 67.0332 60.6489H67.1642V60.9379V61.5009V62.1759C67.1162 62.2119 67.0412 62.2599 66.9392 62.3139C66.6352 62.4739 66.0562 62.6899 65.0102 62.8479C64.8022 62.8789 64.5742 62.9079 64.3272 62.9329C63.8692 62.9809 63.3402 63.0169 62.7342 63.0359C62.6602 63.0379 62.5902 63.0409 62.5142 63.0429L62.4642 63.0219L62.0442 62.8469L62.0132 62.8339L61.5632 62.6459L61.4722 62.6079L57.2232 60.8389C58.3632 61.0829 59.8832 61.2359 61.5632 61.2469Z" fill="#1895FF"/>
<path fill-rule="evenodd" clip-rule="evenodd" d="M56.1812 58.6529C56.2982 58.7069 56.4332 58.7599 56.5782 58.8119C56.6492 58.8379 56.7242 58.8629 56.8032 58.8879C57.0602 58.9699 57.3612 59.0469 57.7062 59.1169C58.6572 59.3099 59.9572 59.4459 61.7542 59.4459C61.8912 59.4459 62.0132 59.4419 62.1452 59.4399C62.2872 59.4389 62.4322 59.4379 62.5682 59.4339C62.5972 59.4339 62.6292 59.4339 62.6582 59.4329C62.7962 59.4289 62.9222 59.4219 63.0532 59.4169C63.3142 59.4059 63.5642 59.3919 63.8002 59.3749C63.9572 59.3639 64.1122 59.3519 64.2582 59.3389C64.6142 59.3049 64.9372 59.2639 65.2332 59.2179C65.4352 59.1859 65.6252 59.1529 65.8022 59.1169C65.8882 59.0989 65.9732 59.0809 66.0542 59.0629C66.2952 59.0079 66.5122 58.9489 66.7052 58.8879C66.7842 58.8629 66.8582 58.8369 66.9292 58.8119C67.0752 58.7599 67.2092 58.7059 67.3262 58.6519C67.3922 58.6219 67.4482 58.5919 67.5052 58.5619C67.5092 58.5599 67.5132 58.5579 67.5172 58.5559C67.5432 58.5419 67.5742 58.5279 67.5982 58.5149C67.8631 58.3649 68.0321 58.2189 68.1441 58.0939C68.1631 58.0719 68.1831 58.0499 68.1991 58.0289C68.2571 57.9549 68.2941 57.8889 68.3161 57.8389L68.3341 56.7259L68.3431 56.1289L68.3531 55.5219L68.3581 55.1799L68.3601 55.0719L68.3621 54.9609C68.3621 54.9529 68.3671 54.9449 68.3671 54.9369C68.3671 54.9329 68.3651 54.9299 68.3651 54.9259C68.3651 54.9249 68.3641 54.9239 68.3631 54.9229C68.3631 54.9209 68.3621 54.9179 68.3621 54.9159L68.3661 54.6359H68.2341C68.2291 54.6309 68.2221 54.6259 68.2171 54.6209C68.1741 54.5759 68.1251 54.5309 68.0651 54.4869C67.9821 54.4269 67.8791 54.3699 67.7651 54.3129C67.6941 54.3489 67.6172 54.3849 67.5352 54.4199C67.5232 54.4249 67.5142 54.4299 67.5032 54.4349C67.3812 54.4869 67.2472 54.5379 67.1022 54.5879C67.0542 54.6039 66.9992 54.6199 66.9492 54.6359C66.9422 54.6379 66.9342 54.6409 66.9272 54.6429C66.7212 54.7079 66.4902 54.7699 66.2362 54.8289C66.0862 54.8629 65.9272 54.8959 65.7602 54.9269C65.7542 54.9279 65.7472 54.9289 65.7402 54.9309C65.2972 55.0129 64.7882 55.0819 64.2082 55.1339C63.7972 55.1709 63.3602 55.2009 62.8722 55.2179C62.6502 55.2259 62.4092 55.2279 62.1702 55.2309C62.1182 55.2319 62.0682 55.2329 62.0142 55.2329H62.0132C61.9242 55.2339 61.8452 55.2379 61.7542 55.2379C61.6862 55.2379 61.6282 55.2349 61.5622 55.2339C59.1592 55.2209 57.5952 54.9629 56.5812 54.6429C56.5742 54.6409 56.5662 54.6379 56.5592 54.6359C56.3402 54.5669 56.1432 54.4939 55.9732 54.4209C55.8912 54.3849 55.8142 54.3489 55.7422 54.3139C55.5362 54.4159 55.3752 54.5239 55.2742 54.6359H55.1412V54.9369V55.1809V57.2159V57.3089V57.5989L55.1922 57.8409C55.2652 58.0059 55.4912 58.3349 56.1812 58.6529ZM61.5632 56.4379C61.6272 56.4379 61.6892 56.4399 61.7542 56.4399C61.8412 56.4399 61.9262 56.4379 62.0132 56.4369C62.1332 56.4359 62.2532 56.4349 62.3712 56.4329C62.4022 56.4319 62.4322 56.4319 62.4632 56.4309C62.7192 56.4249 62.9692 56.4149 63.2152 56.4019C63.5322 56.3859 63.8392 56.3639 64.1372 56.3379C64.1472 56.3369 64.1582 56.3359 64.1682 56.3349C64.7462 56.2839 65.2832 56.2139 65.7682 56.1299C66.2472 56.0459 66.6722 55.9489 67.0352 55.8389H67.1642V56.1299V56.6919V57.3679C67.1152 57.4039 67.0412 57.4519 66.9392 57.5049C66.6352 57.6649 66.0562 57.8819 65.0102 58.0399C64.8022 58.0709 64.5752 58.0989 64.3282 58.1249C63.8702 58.1729 63.3412 58.2089 62.7342 58.2279C62.6612 58.2299 62.5912 58.2329 62.5152 58.2349L62.4642 58.2139L62.0442 58.0389L62.0132 58.0259L61.5632 57.8379L61.4732 57.8009L57.2242 56.0299C58.3642 56.2739 59.8832 56.4269 61.5632 56.4379Z" fill="#1895FF"/>
<path fill-rule="evenodd" clip-rule="evenodd" d="M56.1808 53.8436C56.2978 53.8976 56.4328 53.9506 56.5788 54.0026C56.6498 54.0286 56.7248 54.0536 56.8028 54.0786C57.0608 54.1606 57.3608 54.2376 57.7058 54.3076C58.6578 54.5006 59.9578 54.6366 61.7538 54.6366C61.8918 54.6366 62.0148 54.6326 62.1468 54.6306C62.2888 54.6286 62.4338 54.6276 62.5698 54.6246C62.5978 54.6236 62.6288 54.6246 62.6568 54.6236C62.7958 54.6196 62.9228 54.6126 63.0548 54.6066C63.3138 54.5966 63.5638 54.5826 63.7988 54.5656C63.9548 54.5546 64.1098 54.5426 64.2558 54.5296C64.6128 54.4956 64.9358 54.4546 65.2338 54.4086C65.4358 54.3766 65.6248 54.3436 65.8018 54.3076C65.8878 54.2906 65.9718 54.2726 66.0518 54.2536C66.2938 54.1986 66.5108 54.1406 66.7048 54.0786C66.7828 54.0536 66.8578 54.0286 66.9288 54.0026C67.0738 53.9506 67.2098 53.8976 67.3268 53.8436C67.3918 53.8136 67.4478 53.7836 67.5048 53.7526C67.5088 53.7506 67.5128 53.7486 67.5168 53.7466C67.5428 53.7336 67.5728 53.7196 67.5968 53.7056C67.8628 53.5556 68.0318 53.4106 68.1428 53.2856C68.1628 53.2626 68.1818 53.2406 68.1988 53.2206C68.2558 53.1456 68.2938 53.0806 68.3148 53.0306L68.3328 51.9176L68.3428 51.3206L68.3518 50.7136L68.3578 50.3716L68.3588 50.2636L68.3608 50.1516C68.3618 50.1436 68.3658 50.1356 68.3658 50.1276C68.3658 50.1246 68.3638 50.1216 68.3638 50.1186C68.3638 50.1166 68.3638 50.1156 68.3638 50.1146C68.3638 50.1116 68.3618 50.1096 68.3618 50.1076L68.3658 49.8276H68.2338C68.2288 49.8226 68.2228 49.8176 68.2178 49.8126C68.1748 49.7666 68.1248 49.7226 68.0648 49.6786C67.9818 49.6186 67.8788 49.5616 67.7648 49.5046C67.6938 49.5406 67.6168 49.5756 67.5348 49.6116C67.5228 49.6166 67.5138 49.6216 67.5018 49.6266C67.3798 49.6786 67.2458 49.7296 67.1008 49.7796C67.0518 49.7956 66.9968 49.8116 66.9458 49.8276C66.9398 49.8296 66.9328 49.8316 66.9268 49.8336C66.7198 49.8996 66.4878 49.9616 66.2328 50.0206C66.0828 50.0546 65.9228 50.0866 65.7548 50.1186C65.7498 50.1196 65.7438 50.1206 65.7388 50.1216C65.2948 50.2036 64.7858 50.2726 64.2058 50.3246C63.7958 50.3616 63.3598 50.3916 62.8738 50.4086C62.6518 50.4166 62.4098 50.4186 62.1708 50.4216C62.1178 50.4226 62.0688 50.4236 62.0148 50.4246H62.0128C61.9248 50.4246 61.8448 50.4286 61.7538 50.4286C61.6868 50.4286 61.6288 50.4256 61.5628 50.4246C59.1598 50.4116 57.5968 50.1546 56.5818 49.8336C56.5748 49.8316 56.5678 49.8296 56.5618 49.8276C56.3418 49.7586 56.1448 49.6856 55.9738 49.6116C55.8918 49.5766 55.8148 49.5406 55.7428 49.5046C55.5368 49.6076 55.3748 49.7156 55.2748 49.8286H55.1418V50.1286V50.3726V52.4076V52.4996V52.7906L55.1928 53.0326C55.2648 53.1976 55.4908 53.5266 56.1808 53.8436ZM61.5628 51.6287C61.6268 51.6287 61.6898 51.6307 61.7538 51.6307C61.8418 51.6307 61.9268 51.6287 62.0128 51.6277C62.1328 51.6267 62.2528 51.6257 62.3708 51.6237C62.4018 51.6227 62.4328 51.6227 62.4638 51.6217C62.7188 51.6157 62.9688 51.6057 63.2158 51.5927C63.5328 51.5767 63.8398 51.5547 64.1378 51.5287C64.1478 51.5277 64.1578 51.5267 64.1688 51.5257C64.7458 51.4747 65.2818 51.4047 65.7658 51.3207C66.2448 51.2367 66.6708 51.1397 67.0338 51.0297H67.1638V51.3207V51.8827V52.5587C67.1158 52.5947 67.0408 52.6427 66.9388 52.6957C66.6348 52.8557 66.0568 53.0727 65.0108 53.2297C64.8018 53.2617 64.5748 53.2897 64.3278 53.3157C63.8698 53.3627 63.3398 53.3987 62.7338 53.4177C62.6598 53.4197 62.5898 53.4227 62.5128 53.4247L62.4638 53.4047L62.0438 53.2297L62.0128 53.2167L61.5628 53.0287L61.4708 52.9907L57.2238 51.2207C58.3638 51.4647 59.8838 51.6177 61.5628 51.6287Z" fill="#1895FF"/>
<path fill-rule="evenodd" clip-rule="evenodd" d="M56.1815 49.0163C56.2985 49.0703 56.4335 49.1233 56.5795 49.1753C56.6505 49.2013 56.7255 49.2263 56.8035 49.2513C57.0615 49.3333 57.3615 49.4103 57.7065 49.4803C58.6585 49.6733 59.9585 49.8093 61.7545 49.8093C61.8915 49.8093 62.0145 49.8053 62.1465 49.8033C62.2895 49.8023 62.4335 49.8013 62.5695 49.7973C62.5975 49.7973 62.6295 49.7973 62.6565 49.7963C62.7955 49.7923 62.9225 49.7853 63.0545 49.7803C63.3145 49.7693 63.5635 49.7553 63.7985 49.7393C63.9555 49.7273 64.1105 49.7163 64.2565 49.7023C64.6135 49.6683 64.9365 49.6273 65.2335 49.5813C65.4355 49.5503 65.6255 49.5163 65.8015 49.4803C65.8875 49.4633 65.9725 49.4453 66.0525 49.4273C66.2935 49.3723 66.5115 49.3133 66.7045 49.2513C66.7835 49.2263 66.8575 49.2013 66.9285 49.1753C67.0745 49.1233 67.2095 49.0703 67.3265 49.0163C67.3915 48.9863 67.4475 48.9563 67.5045 48.9263C67.5085 48.9243 67.5125 48.9223 67.5165 48.9203C67.5425 48.9063 67.5725 48.8933 67.5965 48.8793C67.8625 48.7303 68.0315 48.5843 68.1435 48.4583C68.1625 48.4363 68.1825 48.4143 68.1995 48.3933C68.2575 48.3183 68.2945 48.2533 68.3165 48.2033L68.3345 47.0913L68.3435 46.4933L68.3535 45.8873L68.3585 45.5453L68.3605 45.4373L68.3625 45.3253C68.3625 45.3173 68.3675 45.3093 68.3675 45.3013C68.3675 45.2983 68.3655 45.2943 68.3655 45.2913C68.3655 45.2913 68.3645 45.2893 68.3645 45.2883C68.3645 45.2853 68.3625 45.2833 68.3625 45.2803L68.3675 45.0013H68.2345C68.2305 44.9963 68.2235 44.9913 68.2185 44.9863C68.1755 44.9403 68.1265 44.8953 68.0655 44.8513C67.9835 44.7923 67.8795 44.7343 67.7665 44.6783C67.6945 44.7143 67.6175 44.7493 67.5355 44.7853C67.5245 44.7903 67.5145 44.7943 67.5035 44.7993C67.3815 44.8513 67.2475 44.9023 67.1015 44.9523C67.0535 44.9693 66.9985 44.9843 66.9465 45.0013C66.9405 45.0033 66.9335 45.0053 66.9275 45.0073C66.7205 45.0723 66.4885 45.1343 66.2335 45.1933C66.0855 45.2273 65.9275 45.2593 65.7615 45.2903C65.7545 45.2923 65.7465 45.2933 65.7395 45.2943C65.2955 45.3763 64.7865 45.4453 64.2065 45.4973C63.7965 45.5343 63.3605 45.5643 62.8745 45.5813C62.6525 45.5893 62.4105 45.5913 62.1715 45.5943C62.1185 45.5953 62.0685 45.5973 62.0155 45.5973H62.0145C61.9255 45.5983 61.8455 45.6013 61.7545 45.6013C61.6875 45.6013 61.6295 45.5983 61.5635 45.5983C59.1605 45.5843 57.5975 45.3273 56.5825 45.0073C56.5755 45.0053 56.5685 45.0033 56.5625 45.0013C56.3425 44.9313 56.1455 44.8583 55.9745 44.7853C55.8925 44.7493 55.8145 44.7133 55.7435 44.6783C55.5375 44.7803 55.3755 44.8883 55.2745 45.0013H55.1425V45.3013V45.5453V47.5803V47.6733V47.9623L55.1925 48.2043C55.2645 48.3693 55.4915 48.6983 56.1815 49.0163ZM61.5625 46.8013C61.6275 46.8013 61.6895 46.8033 61.7545 46.8033C61.8415 46.8033 61.9265 46.8013 62.0135 46.8003C62.1335 46.7993 62.2535 46.7993 62.3715 46.7963C62.4015 46.7963 62.4325 46.7953 62.4635 46.7953C62.7195 46.7883 62.9695 46.7783 63.2155 46.7663C63.5325 46.7493 63.8395 46.7283 64.1375 46.7013C64.1475 46.7003 64.1585 46.7003 64.1675 46.6993C64.7475 46.6473 65.2855 46.5773 65.7715 46.4923C66.2485 46.4093 66.6715 46.3123 67.0335 46.2033H67.1635V46.4923V47.0563V47.7303C67.1155 47.7673 67.0405 47.8153 66.9385 47.8683C66.6345 48.0283 66.0565 48.2453 65.0095 48.4023C64.8015 48.4343 64.5745 48.4623 64.3265 48.4883C63.8695 48.5353 63.3395 48.5713 62.7335 48.5903C62.6595 48.5923 62.5895 48.5953 62.5135 48.5973L62.4635 48.5773L62.0445 48.4023L62.0135 48.3893L61.5625 48.2013L61.4715 48.1633L57.2245 46.3933C58.3645 46.6373 59.8835 46.7903 61.5625 46.8013Z" fill="#1895FF"/>
<path fill-rule="evenodd" clip-rule="evenodd" d="M56.1812 44.2077C56.2982 44.2617 56.4332 44.3147 56.5782 44.3667C56.6502 44.3927 56.7242 44.4187 56.8032 44.4427C57.0612 44.5247 57.3612 44.6017 57.7062 44.6717C58.6582 44.8647 59.9582 45.0007 61.7542 45.0007C61.8912 45.0007 62.0142 44.9967 62.1462 44.9947C62.2882 44.9937 62.4332 44.9927 62.5682 44.9887C62.5962 44.9887 62.6282 44.9887 62.6562 44.9877C62.7952 44.9837 62.9212 44.9767 63.0532 44.9717C63.3132 44.9607 63.5632 44.9467 63.7992 44.9297C63.9552 44.9187 64.1102 44.9067 64.2552 44.8937C64.6122 44.8597 64.9352 44.8187 65.2332 44.7727C65.4352 44.7407 65.6242 44.7077 65.8012 44.6717C65.8872 44.6537 65.9722 44.6357 66.0522 44.6177C66.2932 44.5627 66.5112 44.5037 66.7042 44.4427C66.7832 44.4177 66.8572 44.3917 66.9282 44.3667C67.0742 44.3147 67.2092 44.2607 67.3262 44.2067C67.3912 44.1767 67.4472 44.1467 67.5042 44.1167C67.5082 44.1147 67.5122 44.1127 67.5162 44.1107C67.5412 44.0967 67.5712 44.0837 67.5952 44.0697C67.8602 43.9207 68.0302 43.7747 68.1422 43.6497C68.1622 43.6267 68.1812 43.6047 68.1982 43.5837C68.2562 43.5087 68.2932 43.4437 68.3152 43.3937L68.3322 42.2807L68.3422 41.6827L68.3512 41.0767L68.3572 40.7347L68.3592 40.6267L68.3602 40.5147C68.3612 40.5067 68.3662 40.4987 68.3662 40.4907C68.3662 40.4877 68.3632 40.4847 68.3632 40.4807C68.3632 40.4797 68.3632 40.4777 68.3632 40.4777C68.3632 40.4747 68.3612 40.4727 68.3612 40.4697L68.3652 40.1897H68.2332C68.2282 40.1847 68.2212 40.1797 68.2162 40.1747C68.1742 40.1297 68.1242 40.0847 68.0642 40.0407C67.9282 39.9427 67.7482 39.8497 67.5312 39.7607C67.2032 39.6267 66.7852 39.5057 66.2982 39.4017C66.2702 39.3947 66.2402 39.3897 66.2102 39.3837C65.8082 39.2997 65.3642 39.2257 64.8802 39.1667C64.2342 39.0877 63.5212 39.0337 62.7692 39.0077C62.6732 39.0047 62.5792 39.0007 62.4832 38.9977C62.3662 38.9947 62.2472 38.9937 62.1292 38.9927C62.0902 38.9917 62.0512 38.9917 62.0122 38.9907C61.9262 38.9897 61.8412 38.9877 61.7532 38.9877C61.6892 38.9877 61.6262 38.9897 61.5622 38.9897C58.4492 39.0107 55.8742 39.5177 55.2742 40.1897H55.1412V40.4907V40.7347V42.7697V42.8627V43.1527L55.1912 43.3947C55.2652 43.5607 55.4912 43.8897 56.1812 44.2077ZM67.1642 42.2467V42.9217C67.1152 42.9577 67.0412 43.0057 66.9392 43.0597C66.6342 43.2197 66.0562 43.4357 65.0102 43.5937C64.8012 43.6247 64.5742 43.6537 64.3272 43.6797C63.8692 43.7267 63.3402 43.7627 62.7342 43.7817C62.6602 43.7837 62.5902 43.7867 62.5142 43.7887L62.4632 43.7677L62.0442 43.5927L62.0132 43.5797L61.5622 43.3917L61.4722 43.3547L57.2232 41.5837C58.3632 41.8287 59.8832 41.9807 61.5622 41.9917C61.6262 41.9927 61.6892 41.9947 61.7532 41.9947C61.8412 41.9947 61.9262 41.9917 62.0122 41.9917C62.1322 41.9907 62.2522 41.9897 62.3702 41.9877C62.4012 41.9867 62.4322 41.9867 62.4632 41.9857C62.7182 41.9797 62.9682 41.9697 63.2152 41.9567C63.5322 41.9397 63.8392 41.9187 64.1372 41.8927C64.1472 41.8917 64.1572 41.8907 64.1672 41.8897C64.7462 41.8377 65.2832 41.7677 65.7692 41.6837C66.2472 41.6007 66.6722 41.5027 67.0352 41.3937H67.1632V41.6837V42.2467H67.1642Z" fill="#1895FF"/>
<path fill-rule="evenodd" clip-rule="evenodd" d="M13.2788 42.0684C13.2788 41.4305 13.7959 40.9134 14.4338 40.9134H18.2218C18.8597 40.9134 19.3768 41.4305 19.3768 42.0684V48.9294C19.3768 49.5673 18.8597 50.0844 18.2218 50.0844H14.4338C13.7959 50.0844 13.2788 49.5673 13.2788 48.9294V42.0684ZM15.5888 43.2234V47.7744H17.0668V43.2234H15.5888Z" fill="#1895FF"/>
<path fill-rule="evenodd" clip-rule="evenodd" d="M35.5301 42.0684C35.5301 41.4305 36.0472 40.9134 36.6851 40.9134H40.4731C41.111 40.9134 41.6281 41.4305 41.6281 42.0684V48.9294C41.6281 49.5673 41.111 50.0844 40.4731 50.0844H36.6851C36.0472 50.0844 35.5301 49.5673 35.5301 48.9294V42.0684ZM37.8401 43.2234V47.7744H39.3181V43.2234H37.8401Z" fill="#1895FF"/>
<path fill-rule="evenodd" clip-rule="evenodd" d="M24.4045 42.0684C24.4045 41.4305 24.9216 40.9134 25.5595 40.9134H29.3475C29.9853 40.9134 30.5024 41.4305 30.5024 42.0684V48.9294C30.5024 49.5673 29.9853 50.0844 29.3475 50.0844H25.5595C24.9216 50.0844 24.4045 49.5673 24.4045 48.9294V42.0684ZM26.7145 43.2234V47.7744H28.1925V43.2234H26.7145Z" fill="#1895FF"/>
<path fill-rule="evenodd" clip-rule="evenodd" d="M5.01948 27.0054C5.01948 25.8818 5.93035 24.9709 7.05396 24.9709H47.8538C48.9774 24.9709 49.8882 25.8818 49.8882 27.0054V78.0054C49.8882 79.129 48.9774 80.0399 47.8538 80.0399H7.05396C5.93035 80.0399 5.01948 79.129 5.01948 78.0054V27.0054ZM9.08845 29.0399V75.9709H45.8193V29.0399H9.08845Z" fill="#1C3553"/>
<path fill-rule="evenodd" clip-rule="evenodd" d="M14.4338 55.4605H18.2218C18.6277 55.4605 18.9568 55.7895 18.9568 56.1955V63.0564C18.9568 63.4624 18.6277 63.7914 18.2218 63.7914H14.4338C14.0279 63.7914 13.6988 63.4624 13.6988 63.0564V56.1955H14.4338V55.4605ZM15.1688 56.9305V62.3214H17.4868V56.9305H15.1688Z" fill="#1C3553"/>
<path fill-rule="evenodd" clip-rule="evenodd" d="M36.6851 55.4605H40.4731C40.879 55.4605 41.2081 55.7895 41.2081 56.1955V63.0564C41.2081 63.4624 40.879 63.7914 40.4731 63.7914H36.6851C36.2792 63.7914 35.9501 63.4624 35.9501 63.0564V56.1955H36.6851V55.4605ZM37.4201 56.9305V62.3214H39.7381V56.9305H37.4201Z" fill="#1C3553"/>
<path fill-rule="evenodd" clip-rule="evenodd" d="M25.5595 55.4605H29.3475C29.7534 55.4605 30.0824 55.7895 30.0824 56.1955V63.0564C30.0824 63.4624 29.7534 63.7914 29.3475 63.7914H25.5595C25.1535 63.7914 24.8245 63.4624 24.8245 63.0564V56.1955H25.5595V55.4605ZM26.2945 56.9305V62.3214H28.6125V56.9305H26.2945Z" fill="#1C3553"/>
<path fill-rule="evenodd" clip-rule="evenodd" d="M49.9074 21.6717C49.9074 20.9637 49.3554 20.3887 48.6734 20.3887H19.8815C19.9145 19.2397 19.9215 18.0897 19.8855 16.9397C19.8715 16.5007 19.3805 16.1707 18.7065 16.0497C18.7005 16.0487 18.6965 16.0487 18.6895 16.0477C18.6375 16.0387 18.5855 16.0297 18.5315 16.0247C18.5285 16.0237 18.5255 16.0237 18.5225 16.0227C18.4645 16.0167 18.4075 16.0117 18.3475 16.0067H18.3415C18.2875 16.0037 18.2325 16.0017 18.1775 16.0017C18.1695 16.0007 18.1615 16.0007 18.1525 15.9997C18.1415 15.9997 18.1325 16.0007 18.1215 16.0007C18.1055 16.0007 18.0885 15.9997 18.0695 15.9997C18.0555 16.0007 18.0435 16.0017 18.0295 16.0027C17.0615 16.0227 16.3675 16.4287 16.3415 17.0337C16.3155 17.6337 16.3355 18.2357 16.3355 18.8367C16.3355 19.3547 16.3295 19.8717 16.3365 20.3887H14.4775C14.5105 19.2397 14.5175 18.0897 14.4815 16.9397C14.4675 16.5007 13.9765 16.1707 13.3025 16.0497C13.2965 16.0487 13.2915 16.0487 13.2855 16.0477C13.2335 16.0387 13.1815 16.0297 13.1275 16.0247C13.1245 16.0237 13.1215 16.0237 13.1185 16.0227C13.0605 16.0167 13.0035 16.0117 12.9435 16.0067H12.9375C12.8835 16.0037 12.8285 16.0017 12.7735 16.0017C12.7655 16.0007 12.7575 16.0007 12.7485 15.9997C12.7375 15.9997 12.7285 16.0007 12.7175 16.0007C12.7005 16.0007 12.6835 15.9997 12.6655 15.9997C12.6515 16.0007 12.6395 16.0017 12.6255 16.0027C11.6575 16.0227 10.9635 16.4287 10.9375 17.0337C10.9115 17.6337 10.9315 18.2357 10.9315 18.8367C10.9315 19.3547 10.9255 19.8717 10.9325 20.3887H6.23357C5.55258 20.3887 4.99958 20.9637 4.99958 21.6717C4.99958 22.3797 5.55258 22.9547 6.23357 22.9547H48.6734C49.3554 22.9547 49.9074 22.3797 49.9074 21.6717Z" fill="#1C3553"/>
</svg>
