<svg width="96" height="96" viewBox="0 0 96 96" fill="none" xmlns="http://www.w3.org/2000/svg">
<path fill-rule="evenodd" clip-rule="evenodd" d="M28.5 64V76.604H66.5V64" fill="#1895FF"/>
<path fill-rule="evenodd" clip-rule="evenodd" d="M26.5 76.604V64H30.5V74.604H64.5V64H68.5V76.604C68.5 77.7086 67.6046 78.604 66.5 78.604H28.5C27.3954 78.604 26.5 77.7086 26.5 76.604Z" fill="#1C3553"/>
<path fill-rule="evenodd" clip-rule="evenodd" d="M26.5 76.604V64H30.5V74.604H64.5V64H68.5V76.604C68.5 77.7086 67.6046 78.604 66.5 78.604H28.5C27.3954 78.604 26.5 77.7086 26.5 76.604Z" fill="#1C3553"/>
<path fill-rule="evenodd" clip-rule="evenodd" d="M50.1488 19.1149C49.5286 18.5323 48.6077 17.8978 47.4261 18.0103L50.1488 19.1149ZM76.595 46.6714C76.2575 47.4556 75.6747 48.011 74.9543 48.3102C74.3309 48.5691 73.7166 48.5866 73.3508 48.5841C73.3506 48.5841 73.3509 48.5841 73.3508 48.5841C71.7982 48.5741 70.2441 48.5749 68.6871 48.5812C68.6871 48.4388 68.6871 48.2914 68.6871 48.1389C68.6873 47.9925 68.6983 47.934 68.698 47.934C68.6979 47.9339 68.6969 47.9384 68.6946 47.9468C68.6854 47.9799 68.6609 48.0506 68.6088 48.1374L66.6871 48.1372L68.608 48.1389C68.5703 48.2015 68.5182 48.2724 68.4472 48.3436C68.3785 48.4126 68.31 48.4638 68.2491 48.5013C68.2493 48.5012 68.2489 48.5015 68.2491 48.5013C68.1597 48.5563 68.0861 48.5823 68.0527 48.5917C68.0448 48.594 68.0405 48.5949 68.0405 48.595C68.0406 48.5953 68.0999 48.5838 68.2488 48.5832C68.3947 48.5825 68.5412 48.5818 68.6871 48.5812C68.6866 52.5037 68.6866 52.6763 68.6868 53.1959C68.6869 53.6464 68.6871 54.3578 68.6871 58.0018C68.6871 59.1064 67.7917 60.0018 66.6871 60.0018C65.5826 60.0018 64.6871 59.1064 64.6871 58.0018C64.6871 54.3618 64.6869 53.6493 64.6868 53.1977C64.6866 52.6577 64.6866 52.4908 64.6871 48.1369V48.1354C64.6877 47.4332 64.7871 46.3498 65.6138 45.5202C66.4401 44.6909 67.5238 44.5863 68.2315 44.5832M70.9211 44.5765C71.4015 45.0641 71.8209 45.4972 72.1677 45.8651C72.5373 46.2571 72.7935 46.543 72.944 46.7258C72.9999 46.7936 73.0228 46.8252 73.0253 46.8282C73.0264 46.8296 73.0232 46.825 73.0169 46.8152C73.0116 46.8069 72.9498 46.7123 72.8906 46.562C72.8608 46.4864 72.8059 46.3332 72.778 46.1278C72.7543 45.9525 72.7309 45.6012 72.8795 45.1941C72.8919 45.16 72.9056 45.1254 72.9206 45.0905C72.9205 45.0907 72.9207 45.0903 72.9206 45.0905C72.921 45.0897 72.9216 45.0883 72.9219 45.0875C72.948 45.0279 73.0044 44.9284 73.1084 44.8257C73.1985 44.7368 73.294 44.6753 73.3767 44.6356C73.3765 44.6356 73.3768 44.6355 73.3767 44.6356C73.3914 44.6285 73.4061 44.6219 73.4199 44.6162C73.4731 44.5941 73.5125 44.5842 73.5306 44.5804C73.5409 44.5782 73.5443 44.578 73.5394 44.5787C73.5373 44.5789 73.5347 44.5792 73.5315 44.5796C73.5107 44.5817 73.464 44.5848 73.3775 44.5842C72.5583 44.5789 71.7392 44.5766 70.9211 44.5765ZM47.4261 18.0103C46.2451 17.8978 45.3235 18.5315 44.7024 19.1149C43.9612 19.8105 41.3292 22.2782 38.0143 25.3862C31.0147 31.949 20.9703 41.3664 19.2543 42.9819M47.4256 22.0448C46.6623 22.7611 44.0364 25.2232 40.7367 28.3169C34.851 33.8352 26.8219 41.3632 23.3984 44.5769C24.4733 44.5755 25.5472 44.5782 26.6198 44.5832M19.2543 42.9819C19.2479 42.9879 19.241 42.9944 19.234 43.001L19.2543 42.9819ZM19.234 43.001C19.0347 43.1881 18.5891 43.6066 18.3035 44.184L19.234 43.001ZM18.3035 44.184C17.9317 44.9358 17.8847 45.8095 18.2563 46.6714L18.3035 44.184ZM18.2563 46.6714C18.5937 47.4556 19.1766 48.011 19.8969 48.3102C20.5204 48.5691 21.1347 48.5866 21.5005 48.5841C21.5003 48.5841 21.5006 48.5841 21.5005 48.5841M26.1642 48.5812L26.1651 58.0021C26.1653 59.1066 27.0608 60.002 28.1654 60.0018C29.2699 60.0017 30.1653 59.1061 30.1651 58.0016L30.1641 48.1372C30.1641 47.4338 30.0648 46.3498 29.2375 45.5199C28.4113 44.6912 27.3274 44.5863 26.6198 44.5832M26.1642 48.5812L26.1641 48.1374C26.1641 47.9918 26.1532 47.9333 26.1535 47.9332C26.1536 47.9332 26.1546 47.9378 26.157 47.9463C26.1662 47.9798 26.1907 48.0505 26.2427 48.1372C26.2428 48.1373 26.2427 48.1371 26.2427 48.1372C26.2806 48.2003 26.3331 48.2721 26.4047 48.344C26.4733 48.4127 26.5415 48.4637 26.6021 48.5012C26.6024 48.5013 26.6019 48.501 26.6021 48.5012C26.6918 48.5564 26.7656 48.5824 26.7989 48.5918C26.8067 48.594 26.8109 48.5949 26.8109 48.595C26.8109 48.5954 26.7515 48.5838 26.6025 48.5832C26.4566 48.5825 26.31 48.5818 26.1642 48.5812Z" fill="#1C3553"/>
<path fill-rule="evenodd" clip-rule="evenodd" d="M53.6853 50.4596H57.4733C57.8792 50.4596 58.2083 50.7887 58.2083 51.1946V58.0556C58.2083 58.4615 57.8792 58.7906 57.4733 58.7906H53.6853C53.2794 58.7906 52.9503 58.4615 52.9503 58.0556V51.1946H53.6853V50.4596ZM54.4203 51.9296V57.3206H56.7383V51.9296H54.4203Z" fill="#1C3553"/>
<path fill-rule="evenodd" clip-rule="evenodd" d="M37.5596 50.4596H41.3476C41.7535 50.4596 42.0826 50.7887 42.0826 51.1946V58.0556C42.0826 58.4615 41.7535 58.7906 41.3476 58.7906H37.5596C37.1537 58.7906 36.8246 58.4615 36.8246 58.0556V51.1946H37.5596V50.4596ZM38.2946 51.9296V57.3206H40.6126V51.9296H38.2946Z" fill="#1C3553"/>
<path fill-rule="evenodd" clip-rule="evenodd" d="M20.5304 64C20.5304 63.1884 21.1883 62.5305 21.9999 62.5305H74.942C75.7536 62.5305 76.4115 63.1884 76.4115 64C76.4115 64.8116 75.7536 65.4695 74.942 65.4695H21.9999C21.1883 65.4695 20.5304 64.8116 20.5304 64Z" fill="#1C3553"/>
</svg>
