<svg width="96" height="96" viewBox="0 0 96 96" fill="none" xmlns="http://www.w3.org/2000/svg">
<path fill-rule="evenodd" clip-rule="evenodd" d="M28.7979 77.96H68.9078V60.9601H28.7979V77.96Z" fill="#1895FF"/>
<path fill-rule="evenodd" clip-rule="evenodd" d="M26.0499 27.9649C26.0499 26.8603 26.9454 25.9649 28.0499 25.9649H68.8498C69.9544 25.9649 70.8498 26.8603 70.8498 27.9649V78.9649C70.8498 80.0695 69.9544 80.9649 68.8498 80.9649H28.0499C26.9454 80.9649 26.0499 80.0695 26.0499 78.9649V27.9649ZM30.0499 29.9649V76.9649H66.8498V29.9649H30.0499Z" fill="#1C3553"/>
<path fill-rule="evenodd" clip-rule="evenodd" d="M35.4337 40.3508H39.2217C39.6276 40.3508 39.9567 40.6799 39.9567 41.0858V47.9468C39.9567 48.3528 39.6276 48.6818 39.2217 48.6818H35.4337C35.0278 48.6818 34.6987 48.3528 34.6987 47.9468V41.0858H35.4337V40.3508ZM36.1687 41.8208V47.2118H38.4867V41.8208H36.1687Z" fill="#1C3553"/>
<path fill-rule="evenodd" clip-rule="evenodd" d="M57.6852 40.3508H61.4731C61.8791 40.3508 62.2081 40.6799 62.2081 41.0858V47.9468C62.2081 48.3528 61.8791 48.6818 61.4731 48.6818H57.6852C57.2792 48.6818 56.9502 48.3528 56.9502 47.9468V41.0858H57.6852V40.3508ZM58.4202 41.8208V47.2118H60.7381V41.8208H58.4202Z" fill="#1C3553"/>
<path fill-rule="evenodd" clip-rule="evenodd" d="M46.5595 40.3508H50.3475C50.7534 40.3508 51.0825 40.6799 51.0825 41.0858V47.9468C51.0825 48.3528 50.7534 48.6818 50.3475 48.6818H46.5595C46.1536 48.6818 45.8245 48.3528 45.8245 47.9468V41.0858H46.5595V40.3508ZM47.2945 41.8208V47.2118H49.6125V41.8208H47.2945Z" fill="#1C3553"/>
<path fill-rule="evenodd" clip-rule="evenodd" d="M70.9074 22.6315C70.9074 21.9235 70.3554 21.3485 69.6734 21.3485H40.8815C40.9145 20.1995 40.9215 19.0495 40.8855 17.8995C40.8715 17.4606 40.3805 17.1306 39.7065 17.0096C39.7005 17.0086 39.6965 17.0086 39.6895 17.0076C39.6375 16.9986 39.5855 16.9896 39.5315 16.9846C39.5285 16.9836 39.5255 16.9836 39.5225 16.9826C39.4645 16.9766 39.4075 16.9716 39.3475 16.9676H39.3415C39.2875 16.9636 39.2325 16.9616 39.1775 16.9616C39.1695 16.9606 39.1615 16.9606 39.1525 16.9596C39.1415 16.9596 39.1325 16.9606 39.1215 16.9606C39.1055 16.9606 39.0885 16.9596 39.0695 16.9596C39.0555 16.9606 39.0435 16.9616 39.0295 16.9626C38.0615 16.9826 37.3675 17.3886 37.3415 17.9935C37.3155 18.5935 37.3355 19.1955 37.3355 19.7965C37.3355 20.3145 37.3295 20.8315 37.3365 21.3485H35.4775C35.5105 20.1995 35.5175 19.0495 35.4815 17.8995C35.4675 17.4606 34.9765 17.1306 34.3025 17.0096C34.2965 17.0086 34.2915 17.0086 34.2855 17.0076C34.2335 16.9986 34.1815 16.9896 34.1275 16.9846C34.1245 16.9836 34.1215 16.9836 34.1185 16.9826C34.0605 16.9766 34.0035 16.9716 33.9435 16.9676H33.9375C33.8835 16.9636 33.8285 16.9616 33.7735 16.9616C33.7655 16.9606 33.7575 16.9606 33.7485 16.9596C33.7375 16.9596 33.7285 16.9606 33.7175 16.9606C33.7005 16.9606 33.6835 16.9596 33.6655 16.9596C33.6515 16.9606 33.6395 16.9616 33.6255 16.9626C32.6575 16.9826 31.9635 17.3886 31.9375 17.9935C31.9115 18.5935 31.9315 19.1955 31.9315 19.7965C31.9315 20.3145 31.9255 20.8315 31.9325 21.3485H27.2335C26.5525 21.3485 25.9995 21.9235 25.9995 22.6315C25.9995 23.3395 26.5525 23.9145 27.2335 23.9145H69.6734C70.3554 23.9145 70.9074 23.3395 70.9074 22.6315Z" fill="#1C3553"/>
</svg>
