<svg width="96" height="96" viewBox="0 0 96 96" fill="none" xmlns="http://www.w3.org/2000/svg">
<path fill-rule="evenodd" clip-rule="evenodd" d="M90.6667 65.4159C90.6667 65.4089 90.6707 65.4029 90.6707 65.3959C90.6707 65.3899 90.6677 65.3849 90.6677 65.3789L90.6707 65.1389H90.5577C90.4717 65.0429 90.3327 64.9499 90.1567 64.8629C90.0957 64.8929 90.0297 64.9239 89.9597 64.9539C89.8137 65.0169 89.6447 65.0789 89.4567 65.1389C89.4507 65.1409 89.4447 65.1429 89.4397 65.1439C88.6047 65.4079 87.3307 65.6199 85.4067 65.6459C85.2777 65.6479 85.1567 65.6529 85.0217 65.6529C85.0197 65.6529 85.0177 65.6529 85.0147 65.6529H85.0137C84.9727 65.6529 84.9367 65.6509 84.8967 65.6509C84.7897 65.6499 84.6927 65.6469 84.5897 65.6459C84.1967 65.6399 83.8267 65.6279 83.4867 65.6069C82.9787 65.5769 82.5287 65.5309 82.1287 65.4749C81.9697 65.4529 81.8197 65.4289 81.6767 65.4029C81.3567 65.3459 81.0687 65.2829 80.8207 65.2139C80.7387 65.1909 80.6647 65.1679 80.5897 65.1439C80.5847 65.1429 80.5787 65.1409 80.5737 65.1389C80.5597 65.1349 80.5437 65.1309 80.5307 65.1259C80.3587 65.0699 80.2057 65.0129 80.0707 64.9539C79.9997 64.9239 79.9347 64.8929 79.8727 64.8629C79.7047 64.9459 79.5717 65.0339 79.4857 65.1259C79.4817 65.1309 79.4757 65.1349 79.4717 65.1389H79.3587V65.2539V65.3949V65.3959C79.3587 65.3959 79.3587 65.3959 79.3587 65.3969V65.5109V65.6039V65.6399V66.0249V66.1549V66.6679V67.3449V67.3459V67.6729L79.4027 67.8789C79.4127 67.9039 79.4307 67.9349 79.4507 67.9679C79.4927 68.0349 79.5597 68.1169 79.6617 68.2079C79.7187 68.2589 79.7887 68.3119 79.8707 68.3659C79.9247 68.4019 79.9847 68.4379 80.0517 68.4749C80.0637 68.4809 80.0767 68.4869 80.0887 68.4929C80.1457 68.5239 80.2047 68.5539 80.2717 68.5839C80.4287 68.6549 80.6117 68.7249 80.8277 68.7919C80.9127 68.8179 81.0067 68.8419 81.1017 68.8669C81.1567 68.8819 81.2087 68.8959 81.2667 68.9099C81.5227 68.9709 81.8147 69.0269 82.1447 69.0749C82.2867 69.0959 82.4407 69.1139 82.5977 69.1309C82.9707 69.1729 83.3887 69.2049 83.8537 69.2249C84.2147 69.2409 84.5937 69.2529 85.0147 69.2529C86.8587 69.2529 88.0937 69.0869 88.9297 68.8669C89.0237 68.8429 89.1177 68.8179 89.2027 68.7919C89.4187 68.7249 89.6017 68.6549 89.7587 68.5839C89.8257 68.5539 89.8847 68.5239 89.9417 68.4939C90.0227 68.4509 90.0957 68.4079 90.1597 68.3669C90.4597 68.1679 90.5817 67.9849 90.6277 67.8799L90.6637 65.6039L90.6667 65.4159ZM89.6427 67.4749C89.5307 67.5589 89.2727 67.7109 88.7467 67.8559C88.5297 67.9159 88.2647 67.9739 87.9467 68.0259C87.8967 68.0339 87.8447 68.0419 87.7917 68.0499C87.2437 68.1319 86.5487 68.1949 85.6647 68.2159L85.3817 68.0979L85.0217 67.9479L84.9517 67.9189L84.7667 67.8419L84.7657 67.8409L84.6357 67.7879L83.9407 67.4979L83.9177 67.4879L81.6777 66.5549L81.1397 66.3309C81.4437 66.3959 81.7797 66.4529 82.1417 66.5019C82.7047 66.5779 83.3277 66.6319 83.9937 66.6589C84.2017 66.6679 84.4147 66.6739 84.6317 66.6769C84.7527 66.6789 84.8737 66.6809 84.9977 66.6809C85.0037 66.6809 85.0087 66.6819 85.0147 66.6819C85.0167 66.6819 85.0197 66.6809 85.0217 66.6809C85.1477 66.6809 85.2717 66.6789 85.3957 66.6769C87.0867 66.6509 88.5707 66.4579 89.5307 66.1679H89.6427V67.4749ZM90.6707 61.282C90.6707 61.277 90.6677 61.271 90.6677 61.265L90.6707 61.026H90.5577C90.0587 60.466 87.9547 60.039 85.3837 60.001C85.2637 59.999 85.1437 59.997 85.0217 59.997H85.0147C85.0027 59.997 84.9907 59.997 84.9787 59.997C84.8637 59.998 84.7497 60 84.6367 60.001C83.8947 60.013 83.1947 60.056 82.5587 60.126C82.3967 60.144 82.2397 60.163 82.0867 60.184C81.8877 60.212 81.6957 60.241 81.5147 60.274C81.2747 60.317 81.0527 60.364 80.8477 60.415C80.8347 60.418 80.8227 60.422 80.8097 60.425C80.4087 60.526 80.0747 60.642 79.8317 60.769C79.6747 60.851 79.5517 60.936 79.4717 61.026H79.3587V61.141V61.282V61.283V61.398V61.491V61.526V61.912V62.427V62.94V63.231V63.232V63.559L79.3917 63.713L79.4027 63.765C79.4357 63.843 79.5117 63.963 79.6687 64.101C79.6687 64.101 79.6697 64.101 79.6697 64.102C79.7987 64.214 79.9827 64.338 80.2487 64.461C80.2527 64.463 80.2587 64.465 80.2637 64.467C80.2977 64.482 80.3367 64.498 80.3737 64.513C80.4407 64.541 80.5117 64.569 80.5887 64.597C80.6497 64.619 80.7137 64.641 80.7807 64.662C81.0007 64.732 81.2577 64.798 81.5527 64.858C81.8517 64.919 82.1927 64.972 82.5787 65.016C82.8367 65.045 83.1087 65.071 83.4097 65.091C83.5087 65.097 83.6177 65.101 83.7207 65.106C83.7467 65.107 83.7737 65.108 83.8007 65.11C83.9217 65.115 84.0357 65.122 84.1637 65.126C84.3107 65.131 84.4717 65.132 84.6287 65.134C84.6507 65.134 84.6717 65.134 84.6937 65.135C84.7687 65.135 84.8387 65.138 84.9157 65.138C84.9507 65.138 84.9807 65.139 85.0147 65.139C85.0177 65.139 85.0197 65.139 85.0217 65.139C85.0727 65.139 85.1167 65.137 85.1677 65.137C86.6217 65.129 87.6917 65.018 88.4767 64.858C88.7727 64.798 89.0297 64.732 89.2497 64.662C89.3167 64.641 89.3807 64.619 89.4417 64.597C89.5657 64.552 89.6817 64.507 89.7817 64.461C90.3717 64.189 90.5657 63.907 90.6277 63.766L90.6637 61.491L90.6667 61.302C90.6667 61.296 90.6707 61.289 90.6707 61.282ZM89.6427 63.361C89.4777 63.485 88.9947 63.756 87.7997 63.936C87.2517 64.018 86.5537 64.082 85.6647 64.103L85.3857 63.986L85.0217 63.835L84.9837 63.819L84.7737 63.731L84.6347 63.673L83.9937 63.406L82.3927 62.739L81.6427 62.427L81.1397 62.217C81.5277 62.3 81.9667 62.371 82.4467 62.427C82.7897 62.467 83.1537 62.498 83.5327 62.522C83.6847 62.531 83.8377 62.539 83.9937 62.546C84.2017 62.555 84.4137 62.56 84.6297 62.564C84.7537 62.565 84.8777 62.568 85.0037 62.568C85.0077 62.568 85.0107 62.568 85.0147 62.568C85.0167 62.568 85.0197 62.568 85.0217 62.568C85.1497 62.568 85.2747 62.565 85.3997 62.564C87.0887 62.538 88.5707 62.344 89.5297 62.054H89.6427V63.361ZM85.0177 57.5261L85.0217 57.2841H84.9077C84.8217 57.1871 84.6837 57.0951 84.5077 57.0081C84.4467 57.0391 84.3807 57.0691 84.3107 57.1001C84.1647 57.1631 83.9967 57.2241 83.8087 57.2841C83.8027 57.2861 83.7967 57.2881 83.7907 57.2901C82.8987 57.5711 81.5187 57.7981 79.3647 57.7981C78.7317 57.7981 78.1657 57.7781 77.6577 57.7441L77.6587 57.7501L77.6527 58.3131L77.6477 58.7661C78.1897 58.8051 78.7667 58.8271 79.3657 58.8271C81.2137 58.8271 82.8507 58.6241 83.8827 58.3131H83.9937V59.6201C83.9837 59.6271 83.9707 59.6361 83.9587 59.6441C84.1857 59.6321 84.4097 59.6261 84.6347 59.6211C84.7517 59.6191 84.8697 59.6131 84.9847 59.6131L85.0147 57.7501L85.0177 57.5591C85.0177 57.5531 85.0217 57.5471 85.0217 57.5411C85.0217 57.5361 85.0187 57.5311 85.0177 57.5261ZM85.0177 53.4131L85.0217 53.1711H84.9077C84.8217 53.0741 84.6837 52.9821 84.5077 52.8941C84.4467 52.9251 84.3807 52.9551 84.3097 52.9861C84.1637 53.0491 83.9957 53.1111 83.8067 53.1711C83.8017 53.1731 83.7957 53.1741 83.7897 53.1761C82.8977 53.4581 81.5177 53.6841 79.3647 53.6841C78.7317 53.6841 78.1657 53.6641 77.6577 53.6301L77.6587 53.6361L77.6527 54.1991L77.6477 54.6521C78.1897 54.6921 78.7667 54.7131 79.3657 54.7131C81.2137 54.7131 82.8487 54.5111 83.8817 54.1991H83.9937V55.5071C83.8287 55.6301 83.3457 55.9011 82.1507 56.0811C81.6017 56.1631 80.9037 56.2271 80.0147 56.2481L79.1227 55.8761L77.6417 55.2591L77.6347 55.9511L77.6317 56.1961V56.2501C77.6247 56.2681 77.6127 56.2931 77.5977 56.3211C77.5937 56.3271 77.5897 56.3341 77.5857 56.3401C77.5307 56.4341 77.4287 56.5671 77.2347 56.7181C77.2107 56.7361 77.1817 56.7551 77.1557 56.7731C77.0967 56.8151 77.0307 56.8571 76.9577 56.9001C76.9547 56.9021 76.9517 56.9041 76.9487 56.9051C76.8897 56.9391 76.8287 56.9741 76.7597 57.0081C76.6977 57.0391 76.6317 57.0691 76.5617 57.1001C76.5517 57.1041 76.5437 57.1081 76.5327 57.1131C76.5557 57.1161 76.5817 57.1191 76.6047 57.1221C76.7407 57.1411 76.8857 57.1581 77.0347 57.1731C77.1287 57.1831 77.2277 57.1921 77.3257 57.2011C77.9087 57.2521 78.5777 57.2841 79.3647 57.2841C80.9017 57.2841 82.0137 57.1681 82.8277 57.0031C83.1227 56.9431 83.3797 56.8771 83.6007 56.8071C83.6677 56.7861 83.7317 56.7641 83.7927 56.7421C83.9167 56.6981 84.0327 56.6521 84.1327 56.6061C84.7227 56.3351 84.9167 56.0531 84.9787 55.9121L85.0147 53.6361L85.0177 53.4451C85.0177 53.4391 85.0217 53.4331 85.0217 53.4281C85.0217 53.4231 85.0187 53.4181 85.0177 53.4131ZM85.0177 49.2992L85.0217 49.0582H84.9087C84.8217 48.9612 84.6837 48.8692 84.5077 48.7812C84.4467 48.8122 84.3807 48.8422 84.3107 48.8732C84.1637 48.9362 83.9957 48.9982 83.8067 49.0582C83.8017 49.0592 83.7957 49.0612 83.7897 49.0632C82.8977 49.3442 81.5177 49.5712 79.3647 49.5712C78.7317 49.5712 78.1657 49.5512 77.6577 49.5162L77.6587 49.5222L77.6527 50.0862L77.6477 50.5392C78.1897 50.5782 78.7667 50.6002 79.3657 50.6002C81.2127 50.6002 82.8487 50.3972 83.8807 50.0862H83.9937V51.3932C83.8287 51.5162 83.3447 51.7872 82.1497 51.9672C81.6017 52.0502 80.9037 52.1132 80.0157 52.1342L79.1237 51.7632L77.6417 51.1452L77.6347 51.8382L77.6317 52.0832V52.1362C77.6247 52.1552 77.6127 52.1792 77.5977 52.2072C77.5947 52.2132 77.5897 52.2202 77.5857 52.2262C77.5317 52.3202 77.4297 52.4532 77.2347 52.6042C77.2107 52.6222 77.1817 52.6412 77.1557 52.6602C77.0967 52.7022 77.0307 52.7442 76.9577 52.7872C76.9547 52.7882 76.9527 52.7902 76.9497 52.7912C76.8907 52.8252 76.8287 52.8602 76.7587 52.8942C76.6977 52.9252 76.6317 52.9552 76.5617 52.9862C76.5517 52.9902 76.5427 52.9952 76.5327 52.9992C76.5557 53.0032 76.5817 53.0052 76.6047 53.0092C76.7417 53.0272 76.8857 53.0442 77.0357 53.0602C77.1287 53.0702 77.2277 53.0792 77.3257 53.0872C77.9087 53.1392 78.5777 53.1712 79.3647 53.1712C80.9017 53.1712 82.0137 53.0552 82.8277 52.8902C83.1227 52.8302 83.3797 52.7642 83.6007 52.6942C83.6677 52.6732 83.7317 52.6512 83.7927 52.6292C83.9167 52.5842 84.0317 52.5392 84.1327 52.4932C84.7227 52.2212 84.9167 51.9392 84.9787 51.7982L85.0147 49.5222L85.0177 49.3312C85.0177 49.3262 85.0217 49.3202 85.0217 49.3142C85.0217 49.3092 85.0187 49.3042 85.0177 49.2992ZM85.0177 45.1853L85.0217 44.9433H84.9077C84.8217 44.8473 84.6837 44.7553 84.5077 44.6673C84.4467 44.6983 84.3807 44.7293 84.3107 44.7593C84.1647 44.8223 83.9967 44.8843 83.8087 44.9433C83.8027 44.9453 83.7967 44.9473 83.7907 44.9493C82.8987 45.2313 81.5187 45.4583 79.3647 45.4583C78.7317 45.4583 78.1657 45.4383 77.6577 45.4033L77.6587 45.4093L77.6527 45.9723L77.6477 46.4253C78.1897 46.4643 78.7667 46.4863 79.3657 46.4863C81.2137 46.4863 82.8497 46.2843 83.8817 45.9723H83.9937V47.2793C83.8287 47.4033 83.3447 47.6743 82.1497 47.8543C81.6017 47.9373 80.9037 48.0003 80.0157 48.0213L79.1247 47.6503L77.6417 47.0323L77.6347 47.7253L77.6317 47.9703V48.0233C77.6247 48.0413 77.6127 48.0663 77.5977 48.0933C77.5947 48.0993 77.5897 48.1073 77.5857 48.1133C77.5317 48.2063 77.4297 48.3403 77.2347 48.4913C77.2117 48.5093 77.1817 48.5283 77.1557 48.5473C77.0967 48.5883 77.0307 48.6313 76.9577 48.6743C76.9547 48.6753 76.9527 48.6763 76.9497 48.6783C76.8907 48.7123 76.8287 48.7463 76.7597 48.7813C76.6977 48.8123 76.6317 48.8423 76.5617 48.8733C76.5517 48.8773 76.5437 48.8823 76.5327 48.8863C76.5557 48.8893 76.5817 48.8923 76.6057 48.8953C76.7417 48.9143 76.8867 48.9313 77.0357 48.9473C77.1287 48.9573 77.2277 48.9653 77.3257 48.9743C77.9087 49.0263 78.5777 49.0583 79.3647 49.0583C80.9017 49.0583 82.0137 48.9423 82.8277 48.7763C83.1227 48.7163 83.3797 48.6513 83.6007 48.5803C83.6677 48.5593 83.7317 48.5373 83.7927 48.5153C83.9167 48.4713 84.0327 48.4253 84.1327 48.3793C84.7227 48.1083 84.9167 47.8263 84.9787 47.6843L85.0147 45.4093L85.0177 45.2183C85.0177 45.2123 85.0217 45.2063 85.0217 45.2003C85.0217 45.1953 85.0187 45.1913 85.0177 45.1853ZM85.0177 41.0724L85.0217 40.8304H84.9087C84.8217 40.7334 84.6837 40.6414 84.5077 40.5544C84.4467 40.5844 84.3807 40.6154 84.3107 40.6454C84.1647 40.7084 83.9957 40.7704 83.8077 40.8304C83.8027 40.8324 83.7957 40.8344 83.7897 40.8364C82.8977 41.1174 81.5187 41.3444 79.3647 41.3444C78.7317 41.3444 78.1657 41.3244 77.6577 41.2894L77.6587 41.2954L77.6527 41.8594L77.6477 42.3124C78.1897 42.3514 78.7667 42.3724 79.3657 42.3724C81.2137 42.3724 82.8487 42.1704 83.8807 41.8594H83.9937V43.1664C83.8287 43.2894 83.3457 43.5604 82.1517 43.7404C81.6037 43.8234 80.9047 43.8864 80.0157 43.9074L79.1227 43.5354L77.6417 42.9184L77.6347 43.6104L77.6317 43.8564V43.9094C77.6247 43.9284 77.6127 43.9524 77.5977 43.9804C77.5947 43.9864 77.5897 43.9934 77.5857 43.9994C77.5317 44.0934 77.4297 44.2264 77.2347 44.3774C77.2107 44.3954 77.1817 44.4144 77.1557 44.4334C77.0967 44.4754 77.0307 44.5174 76.9577 44.5604C76.9557 44.5614 76.9527 44.5624 76.9507 44.5644C76.8907 44.5984 76.8287 44.6334 76.7597 44.6674C76.6977 44.6984 76.6317 44.7284 76.5617 44.7594C76.5517 44.7634 76.5437 44.7684 76.5327 44.7724C76.5557 44.7764 76.5817 44.7784 76.6057 44.7824C76.7417 44.8004 76.8867 44.8174 77.0357 44.8334C77.1287 44.8434 77.2277 44.8524 77.3267 44.8604C77.9017 44.9114 78.5617 44.9434 79.3347 44.9434C79.3457 44.9434 79.3547 44.9444 79.3647 44.9444C79.3757 44.9444 79.3847 44.9434 79.3947 44.9434C80.9157 44.9424 82.0187 44.8274 82.8277 44.6634C83.1227 44.6034 83.3797 44.5374 83.6007 44.4674C83.6677 44.4454 83.7317 44.4244 83.7927 44.4024C83.9167 44.3574 84.0327 44.3114 84.1327 44.2654C84.7227 43.9934 84.9167 43.7124 84.9787 43.5704L85.0147 41.2954L85.0177 41.1044C85.0177 41.0984 85.0217 41.0934 85.0217 41.0874C85.0217 41.0824 85.0187 41.0774 85.0177 41.0724ZM85.0177 36.9584L85.0217 36.7164H84.9077C84.3847 36.1304 82.1027 35.6884 79.3657 35.6884C78.7477 35.6884 78.1547 35.7114 77.5977 35.7534C77.5947 35.7594 77.5897 35.7664 77.5857 35.7724C77.5247 35.8774 77.3997 36.0334 77.1557 36.2064C77.0967 36.2484 77.0307 36.2904 76.9577 36.3334C77.1417 36.4504 77.2957 36.5774 77.4077 36.7164C77.4307 36.7444 77.4667 36.7684 77.4867 36.7964H77.6347L77.6587 37.1824L77.6527 37.7454L77.6477 38.1984C78.1897 38.2374 78.7667 38.2594 79.3657 38.2594C81.2137 38.2594 82.8497 38.0574 83.8817 37.7454H83.9937V39.0524C83.8287 39.1764 83.3457 39.4474 82.1507 39.6274C81.6027 39.7094 80.9047 39.7734 80.0157 39.7944L79.1227 39.4224L77.6417 38.8054L77.6347 39.4974L77.6317 39.7424V39.7964C77.6247 39.8144 77.6127 39.8394 77.5977 39.8664C77.5947 39.8724 77.5897 39.8794 77.5857 39.8864C77.5317 39.9794 77.4297 40.1124 77.2347 40.2634C77.2107 40.2824 77.1817 40.3014 77.1547 40.3204C77.0967 40.3614 77.0307 40.4034 76.9577 40.4464C76.9557 40.4484 76.9527 40.4494 76.9507 40.4504C76.8917 40.4854 76.8297 40.5194 76.7597 40.5544C76.6977 40.5844 76.6317 40.6154 76.5617 40.6454C76.5517 40.6504 76.5437 40.6544 76.5327 40.6594C76.5557 40.6624 76.5817 40.6654 76.6057 40.6684C76.7417 40.6864 76.8857 40.7044 77.0357 40.7194C77.1287 40.7294 77.2277 40.7384 77.3257 40.7474C77.9087 40.7984 78.5777 40.8304 79.3647 40.8304C80.9007 40.8304 82.0127 40.7144 82.8267 40.5494C83.1217 40.4894 83.3797 40.4234 83.5997 40.3534C83.6677 40.3324 83.7317 40.3104 83.7917 40.2884C83.9167 40.2434 84.0317 40.1984 84.1327 40.1524C84.7227 39.8804 84.9167 39.5984 84.9787 39.4574L85.0147 37.1824L85.0177 36.9914C85.0177 36.9854 85.0217 36.9794 85.0217 36.9734C85.0217 36.9684 85.0187 36.9634 85.0177 36.9584ZM77.2697 32.8445L77.2737 32.6035H77.1597C77.0737 32.5065 76.9347 32.4145 76.7597 32.3275C76.6977 32.3575 76.6317 32.3885 76.5617 32.4185C76.4157 32.4815 76.2477 32.5435 76.0607 32.6035C76.0547 32.6055 76.0477 32.6065 76.0417 32.6085C75.1737 32.8835 73.8357 33.1035 71.7777 33.1145L71.7727 33.6315L71.7677 34.1435C73.5537 34.1335 75.1297 33.9345 76.1337 33.6315H76.2447V34.9395C76.0797 35.0625 75.5967 35.3335 74.4027 35.5135C73.8547 35.5965 73.1557 35.6595 72.2667 35.6805L71.7417 35.4615C71.7177 35.5145 71.6727 35.5915 71.5877 35.6885C71.4857 35.8035 71.3247 35.9415 71.0797 36.0845C71.0827 36.0865 71.0857 36.0885 71.0877 36.0895C71.1797 36.1485 71.2647 36.2095 71.3387 36.2735C71.4077 36.3325 71.4677 36.3945 71.5207 36.4585C71.5457 36.4895 71.5867 36.5165 71.6087 36.5485H71.7567L71.7667 36.7145C72.4877 36.7105 73.1117 36.6815 73.6557 36.6335C73.7547 36.6245 73.8537 36.6165 73.9467 36.6065C74.0967 36.5905 74.2407 36.5735 74.3767 36.5545C74.6347 36.5195 74.8657 36.4795 75.0787 36.4355C75.3737 36.3765 75.6307 36.3105 75.8517 36.2395C75.9187 36.2185 75.9827 36.1965 76.0437 36.1745C76.1677 36.1305 76.2837 36.0845 76.3837 36.0385C76.4947 35.9875 76.5867 35.9375 76.6707 35.8865C76.7007 35.8695 76.7287 35.8515 76.7557 35.8335C76.9867 35.6825 77.1127 35.5415 77.1797 35.4345C77.2007 35.4005 77.2187 35.3695 77.2297 35.3435L77.2657 33.0685L77.2687 32.8785C77.2697 32.8725 77.2727 32.8665 77.2727 32.8605C77.2727 32.8545 77.2697 32.8495 77.2697 32.8445ZM77.2697 28.7307L77.2737 28.4897H77.1597C77.0737 28.3927 76.9347 28.3007 76.7597 28.2137C76.6977 28.2447 76.6317 28.2747 76.5617 28.3057C76.4167 28.3687 76.2487 28.4297 76.0607 28.4897C76.0547 28.4917 76.0487 28.4937 76.0417 28.4957C75.1497 28.7767 73.7707 29.0037 71.6177 29.0037C69.4637 29.0037 68.0837 28.7777 67.1917 28.4957C67.1857 28.4937 67.1787 28.4917 67.1727 28.4897C66.9857 28.4297 66.8177 28.3687 66.6717 28.3057C66.6017 28.2747 66.5357 28.2447 66.4737 28.2137C66.2987 28.3017 66.1607 28.3927 66.0737 28.4897H65.9607V30.9467C66.0457 30.9477 66.1317 30.9507 66.2167 30.9527C66.2597 30.9537 66.3027 30.9547 66.3457 30.9557C66.6617 30.9657 66.9767 30.9837 67.2917 31.0087C68.0347 31.0697 68.7587 31.1727 69.4027 31.3247C69.6627 31.3867 69.9087 31.4547 70.1377 31.5317C70.2077 31.5557 70.2667 31.5837 70.3347 31.6097C70.3417 31.6117 70.3477 31.6147 70.3547 31.6177C70.6347 31.7237 70.8817 31.8427 71.0877 31.9767C71.1797 32.0347 71.2637 32.0957 71.3387 32.1607C71.4077 32.2197 71.4677 32.2817 71.5197 32.3447C71.5457 32.3757 71.5867 32.4027 71.6087 32.4347H71.7567L71.7667 32.6017C73.2227 32.5937 74.2927 32.4817 75.0787 32.3227C75.3737 32.2627 75.6307 32.1967 75.8517 32.1267C75.9187 32.1047 75.9827 32.0837 76.0437 32.0617C76.1677 32.0167 76.2837 31.9717 76.3837 31.9247C76.9747 31.6537 77.1677 31.3717 77.2297 31.2307L77.2657 28.9557L77.2687 28.7657C77.2697 28.7587 77.2727 28.7527 77.2727 28.7467C77.2727 28.7417 77.2697 28.7357 77.2697 28.7307ZM76.2447 30.8255C76.0797 30.9495 75.5967 31.2195 74.4027 31.3995C73.8547 31.4825 73.1557 31.5455 72.2667 31.5665L71.3737 31.1945L67.7417 29.6815C68.7547 29.8985 70.1157 30.0325 71.6167 30.0325C73.4657 30.0325 75.1017 29.8295 76.1337 29.5185H76.2447V30.8255ZM77.2697 24.6167L77.2737 24.3767H77.1597C76.6367 23.7897 74.3537 23.3477 71.6167 23.3477C68.8797 23.3477 66.5977 23.7897 66.0737 24.3767H65.9607V26.9097V26.9117L66.0037 27.1167C66.0657 27.2577 66.2597 27.5397 66.8497 27.8117C66.9497 27.8577 67.0657 27.9037 67.1897 27.9477C67.2507 27.9697 67.3147 27.9917 67.3817 28.0127C67.6027 28.0827 67.8597 28.1487 68.1557 28.2087C68.9637 28.3727 70.0677 28.4877 71.5867 28.4897C71.5977 28.4897 71.6067 28.4897 71.6177 28.4897C71.6277 28.4897 71.6367 28.4897 71.6477 28.4897C73.1667 28.4877 74.2707 28.3727 75.0787 28.2087C75.3737 28.1487 75.6307 28.0827 75.8517 28.0127C75.9187 27.9917 75.9827 27.9697 76.0437 27.9477C76.1677 27.9027 76.2837 27.8577 76.3837 27.8117C76.9747 27.5397 77.1677 27.2577 77.2297 27.1167L77.2657 24.8417L77.2687 24.6517C77.2697 24.6457 77.2727 24.6397 77.2727 24.6327C77.2727 24.6277 77.2697 24.6227 77.2697 24.6167ZM76.2447 26.7127C76.0797 26.8357 75.5967 27.1067 74.4027 27.2867C73.8547 27.3687 73.1567 27.4327 72.2677 27.4537L71.3747 27.0817L67.7417 25.5677C68.7547 25.7847 70.1157 25.9187 71.6167 25.9187C73.4647 25.9187 75.1007 25.7167 76.1327 25.4047H76.2447V26.7127ZM65.9607 31.3295C65.8867 31.3285 65.8137 31.3265 65.7387 31.3265C65.6837 31.3265 65.6297 31.3275 65.5747 31.3285C62.9117 31.3455 60.7087 31.7805 60.1957 32.3555H60.0827V34.8885V34.8905L60.1257 35.0955C60.1877 35.2365 60.3817 35.5185 60.9717 35.7905C61.0717 35.8365 61.1877 35.8815 61.3117 35.9265C61.3727 35.9485 61.4367 35.9705 61.5037 35.9915C61.7247 36.0615 61.9817 36.1275 62.2767 36.1875C63.0857 36.3515 64.1897 36.4665 65.7097 36.4685C65.7197 36.4685 65.7287 36.4685 65.7397 36.4685C65.7497 36.4685 65.7587 36.4685 65.7697 36.4685C65.8757 36.4685 65.9717 36.4655 66.0737 36.4645C66.1957 36.4625 66.3197 36.4615 66.4357 36.4585C66.4597 36.4585 66.4867 36.4585 66.5107 36.4575C66.6287 36.4545 66.7377 36.4485 66.8507 36.4445C67.0737 36.4345 67.2867 36.4235 67.4887 36.4085C67.6227 36.3985 67.7547 36.3885 67.8797 36.3775C68.1857 36.3485 68.4617 36.3135 68.7167 36.2735C68.8887 36.2465 69.0497 36.2185 69.2007 36.1875C69.2747 36.1725 69.3477 36.1575 69.4167 36.1415C69.6227 36.0945 69.8087 36.0445 69.9737 35.9915C70.0407 35.9705 70.1047 35.9485 70.1657 35.9265C70.2907 35.8815 70.4057 35.8365 70.5057 35.7905C70.5617 35.7645 70.6097 35.7385 70.6587 35.7135C70.6617 35.7115 70.6657 35.7095 70.6687 35.7075C70.6907 35.6965 70.7167 35.6845 70.7377 35.6725C70.9647 35.5445 71.1097 35.4195 71.2047 35.3125C71.2217 35.2935 71.2387 35.2755 71.2517 35.2575C71.3017 35.1935 71.3337 35.1375 71.3527 35.0955L71.3677 34.1425L71.3757 33.6315L71.3837 33.1135L71.3887 32.8205L71.3897 32.7285L71.3917 32.6305C71.3917 32.6245 71.3957 32.6185 71.3957 32.6115C71.3957 32.6095 71.3937 32.6065 71.3937 32.6035C71.3937 32.6025 71.3927 32.6015 71.3927 32.5995C71.3927 32.5985 71.3917 32.5975 71.3917 32.5965L71.3957 32.3555H71.2817C71.2777 32.3505 71.2717 32.3465 71.2677 32.3415C71.2307 32.3025 71.1887 32.2645 71.1367 32.2275C71.0217 32.1435 70.8677 32.0635 70.6827 31.9875C70.4017 31.8735 70.0437 31.7695 69.6277 31.6795C69.6027 31.6745 69.5767 31.6695 69.5517 31.6645C69.2077 31.5925 68.8277 31.5295 68.4127 31.4795C67.8607 31.4115 67.2507 31.3655 66.6077 31.3435C66.5257 31.3405 66.4447 31.3365 66.3627 31.3345C66.2627 31.3325 66.1607 31.3315 66.0597 31.3305C66.0267 31.3295 65.9937 31.3295 65.9607 31.3295ZM65.9607 33.8945C66.0627 33.8935 66.1657 33.8935 66.2667 33.8915C66.2927 33.8905 66.3197 33.8905 66.3457 33.8895C66.5647 33.8845 66.7777 33.8755 66.9887 33.8645C67.2597 33.8505 67.5227 33.8325 67.7777 33.8105C67.7867 33.8095 67.7957 33.8085 67.8037 33.8075C68.2987 33.7635 68.7577 33.7045 69.1737 33.6315C69.5817 33.5605 69.9457 33.4775 70.2547 33.3835H70.3667V33.6315V34.1135V34.6905C70.3257 34.7225 70.2617 34.7625 70.1747 34.8085C69.9137 34.9455 69.4197 35.1305 68.5247 35.2655C68.3467 35.2925 68.1517 35.3165 67.9407 35.3385C67.5487 35.3795 67.0957 35.4095 66.5767 35.4265C66.5147 35.4285 66.4547 35.4305 66.3897 35.4325L66.3457 35.4145L65.9867 35.2645L65.9607 35.2535L65.5747 35.0935L65.4967 35.0605L61.8637 33.5465C62.8387 33.7555 64.1387 33.8865 65.5747 33.8955C65.6297 33.8955 65.6837 33.8975 65.7387 33.8975C65.8137 33.8975 65.8867 33.8955 65.9607 33.8945ZM57.7657 66.2529L57.7687 66.0129H57.6557C57.6337 65.9879 57.6027 65.9639 57.5747 65.9399C57.5387 65.9639 57.4967 65.9879 57.4557 66.0129C57.4387 66.0219 57.4217 66.0319 57.4047 66.0419C57.2877 66.1069 57.1577 66.1729 57.0007 66.2389C56.1507 66.5919 54.6747 66.9119 52.1127 66.9119C51.4217 66.9119 50.8147 66.8869 50.2717 66.8459L50.2697 67.0409L50.2647 67.4829C50.8447 67.5289 51.4647 67.5549 52.1127 67.5549C53.9607 67.5549 55.5957 67.3529 56.6277 67.0409H56.7407V68.3479C56.5007 68.5289 55.5867 69.0229 52.7627 69.0899L50.2597 68.0459L50.2487 69.0269L50.2477 69.1229C50.2187 69.1969 50.1297 69.3589 49.8997 69.5489C49.8267 69.6099 49.7397 69.6739 49.6337 69.7399C49.6157 69.7509 49.5927 69.7619 49.5737 69.7729C49.6987 69.8529 49.8047 69.9389 49.8977 70.0279C50.5177 70.0899 51.2487 70.1259 52.1127 70.1259C56.7627 70.1259 57.5847 69.0749 57.7257 68.7529L57.7617 66.4779L57.7647 66.2879C57.7657 66.2819 57.7687 66.2759 57.7687 66.2689C57.7687 66.2639 57.7657 66.2589 57.7657 66.2529ZM57.7657 62.525L57.7687 62.285H57.6557C57.5697 62.188 57.4317 62.096 57.2557 62.008C57.1937 62.039 57.1277 62.069 57.0577 62.1C56.9117 62.163 56.7427 62.225 56.5547 62.285C56.5497 62.286 56.5437 62.288 56.5377 62.29C55.6457 62.572 54.2667 62.798 52.1127 62.798C49.9597 62.798 48.5807 62.572 47.6877 62.29C47.6827 62.288 47.6767 62.287 47.6707 62.285C47.4827 62.225 47.3137 62.163 47.1677 62.1C47.0977 62.069 47.0317 62.039 46.9697 62.008C46.7947 62.096 46.6557 62.188 46.5697 62.285H46.4557V64.766H46.4567C46.5617 64.779 46.6677 64.791 46.7717 64.806C46.7947 64.809 46.8187 64.811 46.8417 64.815C47.2947 64.881 47.7207 64.969 48.1177 65.073C48.3207 65.126 48.5167 65.183 48.6987 65.246C48.7397 65.26 48.7747 65.277 48.8147 65.292C49.0457 65.378 49.2517 65.473 49.4357 65.577C49.5657 65.65 49.6917 65.725 49.7937 65.808C49.8737 65.872 49.9337 65.943 49.9947 66.013C50.0067 66.027 50.0237 66.039 50.0347 66.054C50.0547 66.078 50.0867 66.099 50.1037 66.124H50.2507L50.2637 66.33C50.8027 66.372 51.4097 66.398 52.1127 66.398C53.9557 66.398 55.1897 66.232 56.0267 66.013C56.1207 65.988 56.2157 65.963 56.3007 65.937C56.5167 65.871 56.6997 65.801 56.8557 65.73C56.9227 65.7 56.9817 65.669 57.0397 65.639C57.1197 65.596 57.1937 65.554 57.2567 65.512C57.5577 65.313 57.6797 65.13 57.7257 65.025L57.7617 62.75L57.7647 62.56C57.7657 62.554 57.7687 62.548 57.7687 62.541C57.7687 62.536 57.7657 62.531 57.7657 62.525ZM56.7407 64.6199C56.6287 64.7039 56.3707 64.8559 55.8437 65.0009C55.6277 65.0609 55.3627 65.1189 55.0447 65.1709C54.9947 65.1799 54.9427 65.1879 54.8897 65.1959C54.3417 65.2779 53.6467 65.3409 52.7627 65.3619L51.8647 64.9869H51.8627L51.0167 64.6339L48.2377 63.4759C49.2507 63.6929 50.6117 63.8269 52.1127 63.8269C53.9607 63.8269 55.5957 63.6249 56.6277 63.3129H56.7407V64.6199ZM57.7657 58.412L57.7687 58.171H57.6557C57.5697 58.074 57.4307 57.982 57.2547 57.895C57.1937 57.925 57.1277 57.956 57.0577 57.986C56.9117 58.049 56.7437 58.111 56.5567 58.171C56.5507 58.173 56.5437 58.174 56.5377 58.176C55.6457 58.458 54.2667 58.685 52.1127 58.685C49.9597 58.685 48.5797 58.458 47.6877 58.176C47.6817 58.174 47.6747 58.173 47.6687 58.171C47.4817 58.111 47.3137 58.049 47.1677 57.986C47.0977 57.956 47.0317 57.925 46.9707 57.895C46.7947 57.982 46.6567 58.074 46.5697 58.171H46.4557V60.705L46.4567 60.707L46.4997 60.912C46.5617 61.053 46.7547 61.335 47.3457 61.607C47.4457 61.653 47.5617 61.698 47.6857 61.743C47.7467 61.765 47.8097 61.786 47.8777 61.808C48.0977 61.878 48.3547 61.944 48.6507 62.004C49.4647 62.169 50.5767 62.285 52.1127 62.285C53.6497 62.285 54.7617 62.169 55.5757 62.003C55.8707 61.944 56.1277 61.878 56.3477 61.808C56.4157 61.786 56.4797 61.765 56.5407 61.743C56.6647 61.698 56.7797 61.653 56.8797 61.607C57.4707 61.335 57.6637 61.053 57.7257 60.912L57.7617 58.636L57.7647 58.446C57.7657 58.44 57.7687 58.434 57.7687 58.428C57.7687 58.422 57.7657 58.417 57.7657 58.412ZM56.7407 60.506C56.5757 60.63 56.0927 60.901 54.8977 61.081C54.3497 61.164 53.6517 61.227 52.7637 61.248L51.8717 60.877L48.2377 59.362C49.2497 59.579 50.6107 59.713 52.1127 59.713C53.9617 59.713 55.5977 59.511 56.6297 59.199H56.7407V60.506ZM57.7657 54.2981L57.7687 54.0571H57.6557C57.5697 53.9611 57.4307 53.8691 57.2547 53.7811C57.1937 53.8121 57.1277 53.8421 57.0577 53.8721C56.9117 53.9361 56.7427 53.9971 56.5547 54.0571C56.5487 54.0591 56.5427 54.0611 56.5377 54.0621C55.6457 54.3441 54.2657 54.5711 52.1127 54.5711C49.9597 54.5711 48.5807 54.3441 47.6877 54.0621C47.6827 54.0611 47.6767 54.0591 47.6707 54.0571C47.4827 53.9971 47.3147 53.9361 47.1677 53.8721C47.0977 53.8421 47.0317 53.8121 46.9707 53.7811C46.7947 53.8691 46.6557 53.9611 46.5697 54.0571H46.4557V56.5911L46.4567 56.5931L46.4997 56.7981C46.5617 56.9401 46.7547 57.2211 47.3457 57.4931C47.4457 57.5391 47.5617 57.5841 47.6857 57.6291C47.7467 57.6511 47.8107 57.6731 47.8777 57.6941C48.0977 57.7641 48.3547 57.8301 48.6497 57.8901C49.4647 58.0551 50.5767 58.1711 52.1127 58.1711C53.6497 58.1711 54.7617 58.0551 55.5757 57.8901C55.8707 57.8301 56.1277 57.7641 56.3477 57.6941C56.4147 57.6731 56.4787 57.6511 56.5397 57.6291C56.6647 57.5841 56.7797 57.5391 56.8807 57.4931C57.4707 57.2211 57.6637 56.9401 57.7257 56.7981L57.7617 54.5231L57.7647 54.3331C57.7657 54.3271 57.7687 54.3201 57.7687 54.3141C57.7687 54.3091 57.7657 54.3031 57.7657 54.2981ZM56.7407 56.3931C56.5757 56.5171 56.0927 56.7881 54.8987 56.9671C54.3497 57.0501 53.6517 57.1131 52.7617 57.1341L51.8707 56.7631L48.2377 55.2491C49.2497 55.4661 50.6107 55.6001 52.1127 55.6001C53.9607 55.6001 55.5967 55.3971 56.6287 55.0861H56.7407V56.3931ZM57.7657 50.1842L57.7687 49.9442H57.6557C57.5697 49.8472 57.4317 49.7552 57.2557 49.6682C57.1937 49.6982 57.1277 49.7292 57.0577 49.7592C56.9117 49.8222 56.7427 49.8842 56.5547 49.9442C56.5497 49.9462 56.5437 49.9472 56.5377 49.9492C55.6457 50.2312 54.2667 50.4582 52.1127 50.4582C49.9597 50.4582 48.5807 50.2312 47.6877 49.9492C47.6827 49.9482 47.6767 49.9462 47.6707 49.9442C47.4827 49.8842 47.3137 49.8222 47.1677 49.7592C47.0977 49.7292 47.0317 49.6982 46.9697 49.6682C46.7937 49.7552 46.6557 49.8472 46.5697 49.9442H46.4557V52.4772L46.4567 52.4792L46.4997 52.6842C46.5617 52.8262 46.7547 53.1072 47.3457 53.3792C47.4457 53.4252 47.5617 53.4712 47.6857 53.5152C47.7467 53.5372 47.8107 53.5592 47.8777 53.5802C48.0987 53.6512 48.3557 53.7162 48.6507 53.7762C49.4647 53.9412 50.5767 54.0572 52.1127 54.0572C53.6497 54.0572 54.7617 53.9422 55.5757 53.7762C55.8707 53.7162 56.1277 53.6512 56.3477 53.5802C56.4147 53.5592 56.4787 53.5372 56.5397 53.5152C56.6637 53.4712 56.7797 53.4252 56.8797 53.3792C57.4707 53.1072 57.6637 52.8262 57.7257 52.6842L57.7617 50.4092L57.7647 50.2192C57.7657 50.2132 57.7687 50.2072 57.7687 50.2012C57.7687 50.1952 57.7657 50.1902 57.7657 50.1842ZM56.7407 52.2792C56.5757 52.4032 56.0927 52.6742 54.8977 52.8542C54.3497 52.9362 53.6517 53.0002 52.7627 53.0212L51.8717 52.6492L48.2377 51.1352C49.2507 51.3522 50.6117 51.4862 52.1127 51.4862C53.9607 51.4862 55.5957 51.2842 56.6277 50.9732H56.7407V52.2792ZM57.7657 46.0713L57.7687 45.8303H57.6557C57.5697 45.7333 57.4307 45.6413 57.2557 45.5543C57.1937 45.5853 57.1277 45.6153 57.0577 45.6453C56.9117 45.7093 56.7437 45.7703 56.5567 45.8303C56.5507 45.8323 56.5437 45.8343 56.5377 45.8353C55.6457 46.1173 54.2667 46.3443 52.1127 46.3443C49.9597 46.3443 48.5797 46.1173 47.6877 45.8363C47.6817 45.8343 47.6747 45.8323 47.6687 45.8303C47.4817 45.7703 47.3137 45.7093 47.1677 45.6453C47.0977 45.6153 47.0317 45.5853 46.9697 45.5543C46.7947 45.6413 46.6567 45.7333 46.5697 45.8303H46.4557V48.3643L46.4567 48.3663L46.4997 48.5713C46.5617 48.7123 46.7547 48.9943 47.3457 49.2663C47.4457 49.3123 47.5607 49.3573 47.6847 49.4023C47.7457 49.4243 47.8097 49.4463 47.8777 49.4673C48.0977 49.5373 48.3547 49.6033 48.6507 49.6633C49.4647 49.8283 50.5767 49.9443 52.1127 49.9443C53.6497 49.9443 54.7617 49.8283 55.5757 49.6633C55.8707 49.6033 56.1277 49.5373 56.3477 49.4673C56.4157 49.4463 56.4797 49.4243 56.5407 49.4023C56.6647 49.3573 56.7797 49.3123 56.8797 49.2663C57.4707 48.9943 57.6637 48.7123 57.7257 48.5713L57.7617 46.2953L57.7647 46.1063C57.7657 46.0993 57.7687 46.0933 57.7687 46.0873C57.7687 46.0823 57.7657 46.0763 57.7657 46.0713ZM56.7407 48.1662C56.5757 48.2902 56.0927 48.5612 54.8977 48.7412C54.3497 48.8232 53.6517 48.8872 52.7637 48.9082L51.8717 48.5362L48.2377 47.0222C49.2507 47.2392 50.6117 47.3722 52.1127 47.3722C53.9617 47.3722 55.5977 47.1702 56.6297 46.8582H56.7407V48.1662ZM57.7657 41.9573L57.7687 41.7173H57.6557C57.5697 41.6203 57.4307 41.5283 57.2557 41.4403C57.1937 41.4713 57.1277 41.5013 57.0577 41.5323C56.9117 41.5953 56.7437 41.6573 56.5557 41.7173C56.5497 41.7193 56.5437 41.7203 56.5377 41.7223C55.6457 42.0043 54.2657 42.2313 52.1127 42.2313C49.9597 42.2313 48.5797 42.0043 47.6877 41.7223C47.6817 41.7203 47.6757 41.7193 47.6697 41.7173C47.4817 41.6573 47.3137 41.5953 47.1677 41.5323C47.0977 41.5013 47.0317 41.4713 46.9697 41.4403C46.7947 41.5283 46.6557 41.6203 46.5697 41.7173H46.4557V44.2503L46.4567 44.2523L46.4997 44.4573C46.5617 44.5983 46.7547 44.8803 47.3457 45.1523C47.4457 45.1983 47.5617 45.2433 47.6857 45.2883C47.7467 45.3103 47.8107 45.3323 47.8777 45.3533C48.0987 45.4233 48.3557 45.4893 48.6507 45.5493C49.4587 45.7133 50.5627 45.8283 52.0827 45.8303C52.0937 45.8303 52.1027 45.8303 52.1127 45.8303C52.1237 45.8303 52.1327 45.8303 52.1437 45.8303C53.6627 45.8283 54.7667 45.7133 55.5757 45.5493C55.8707 45.4893 56.1277 45.4233 56.3477 45.3533C56.4147 45.3323 56.4787 45.3103 56.5397 45.2883C56.6647 45.2433 56.7797 45.1983 56.8797 45.1523C57.4707 44.8803 57.6637 44.5983 57.7257 44.4573L57.7617 42.1823L57.7647 41.9923C57.7657 41.9863 57.7687 41.9803 57.7687 41.9733C57.7687 41.9683 57.7657 41.9633 57.7657 41.9573ZM56.7407 44.0533C56.5757 44.1763 56.0927 44.4473 54.8997 44.6273C54.3517 44.7093 53.6527 44.7733 52.7637 44.7943L51.8697 44.4223L48.2377 42.9083C49.2497 43.1253 50.6107 43.2593 52.1127 43.2593C53.9607 43.2593 55.5967 43.0573 56.6287 42.7453H56.7407V44.0533ZM57.7657 37.8444L57.7687 37.6034H57.6557C57.5697 37.5064 57.4307 37.4144 57.2557 37.3274C57.1937 37.3574 57.1277 37.3884 57.0577 37.4184C56.9117 37.4824 56.7437 37.5434 56.5567 37.6034C56.5507 37.6054 56.5437 37.6074 56.5377 37.6084C55.6457 37.8904 54.2667 38.1174 52.1127 38.1174C49.9597 38.1174 48.5797 37.8904 47.6877 37.6094C47.6817 37.6074 47.6747 37.6054 47.6687 37.6034C47.4817 37.5434 47.3137 37.4814 47.1677 37.4184C47.0977 37.3884 47.0317 37.3574 46.9697 37.3274C46.7947 37.4144 46.6557 37.5064 46.5697 37.6034H46.4557V40.1374L46.4567 40.1384L46.4997 40.3434C46.5617 40.4854 46.7547 40.7664 47.3457 41.0384C47.4457 41.0844 47.5617 41.1304 47.6857 41.1754C47.7467 41.1974 47.8107 41.2184 47.8777 41.2404C48.0987 41.3104 48.3557 41.3764 48.6517 41.4364C49.4657 41.6014 50.5767 41.7174 52.1127 41.7174C53.6487 41.7174 54.7607 41.6014 55.5747 41.4364C55.8697 41.3764 56.1267 41.3104 56.3477 41.2404C56.4147 41.2184 56.4787 41.1974 56.5397 41.1754C56.6637 41.1304 56.7797 41.0844 56.8797 41.0384C57.4707 40.7664 57.6637 40.4854 57.7257 40.3434L57.7617 38.0684L57.7647 37.8784C57.7657 37.8724 57.7687 37.8664 57.7687 37.8604C57.7687 37.8544 57.7657 37.8494 57.7657 37.8444ZM56.7407 39.9394C56.5757 40.0624 56.0927 40.3334 54.8987 40.5134C54.3497 40.5964 53.6517 40.6594 52.7627 40.6804L51.8707 40.3084L48.2377 38.7954C49.2507 39.0124 50.6117 39.1454 52.1127 39.1454C53.9607 39.1454 55.5967 38.9434 56.6297 38.6324H56.7407V39.9394ZM57.7657 33.7305L57.7687 33.4895H57.6557C57.5697 33.3935 57.4307 33.3015 57.2557 33.2135C57.1937 33.2445 57.1277 33.2745 57.0577 33.3055C56.9117 33.3685 56.7437 33.4295 56.5567 33.4895C56.5507 33.4915 56.5437 33.4935 56.5377 33.4955C55.6457 33.7775 54.2667 34.0045 52.1127 34.0045C49.9597 34.0045 48.5797 33.7775 47.6877 33.4955C47.6817 33.4935 47.6747 33.4915 47.6687 33.4895C47.4817 33.4295 47.3137 33.3685 47.1677 33.3055C47.0977 33.2745 47.0317 33.2445 46.9697 33.2135C46.7947 33.3015 46.6557 33.3935 46.5697 33.4895H46.4557V36.0235L46.4567 36.0255L46.4997 36.2305C46.5617 36.3715 46.7547 36.6535 47.3457 36.9255C47.4457 36.9715 47.5617 37.0165 47.6857 37.0615C47.7467 37.0835 47.8107 37.1055 47.8777 37.1265C48.0987 37.1965 48.3557 37.2625 48.6507 37.3225C49.4657 37.4875 50.5767 37.6035 52.1127 37.6035C53.6487 37.6035 54.7607 37.4875 55.5747 37.3225C55.8697 37.2625 56.1267 37.1965 56.3477 37.1265C56.4147 37.1055 56.4787 37.0835 56.5397 37.0615C56.6637 37.0165 56.7797 36.9715 56.8797 36.9255C57.4707 36.6535 57.6637 36.3715 57.7257 36.2305L57.7617 33.9555L57.7647 33.7655C57.7657 33.7595 57.7687 33.7535 57.7687 33.7465C57.7687 33.7415 57.7657 33.7365 57.7657 33.7305ZM56.7407 35.8255C56.5757 35.9495 56.0927 36.2205 54.8987 36.3995C54.3507 36.4825 53.6517 36.5465 52.7627 36.5675L51.8707 36.1955L48.2377 34.6815C49.2507 34.8985 50.6117 35.0325 52.1127 35.0325C53.9617 35.0325 55.5977 34.8295 56.6297 34.5185H56.7407V35.8255ZM57.7657 29.6176L57.7687 29.3766H57.6557C57.5697 29.2796 57.4307 29.1876 57.2557 29.1006C57.1937 29.1306 57.1277 29.1616 57.0577 29.1916C56.9117 29.2546 56.7447 29.3166 56.5567 29.3766C56.5507 29.3776 56.5437 29.3796 56.5377 29.3816C55.6457 29.6636 54.2667 29.8906 52.1127 29.8906C49.9597 29.8906 48.5797 29.6636 47.6877 29.3816C47.6817 29.3796 47.6747 29.3786 47.6687 29.3766C47.4807 29.3166 47.3137 29.2546 47.1677 29.1916C47.0977 29.1616 47.0317 29.1306 46.9697 29.1006C46.7947 29.1876 46.6567 29.2796 46.5697 29.3766H46.4557V31.9106L46.4567 31.9116L46.4997 32.1166C46.5617 32.2586 46.7547 32.5396 47.3457 32.8116C47.4457 32.8576 47.5617 32.9036 47.6857 32.9476C47.7467 32.9696 47.8107 32.9916 47.8777 33.0126C48.0987 33.0826 48.3557 33.1486 48.6507 33.2086C49.4657 33.3736 50.5767 33.4896 52.1127 33.4896C53.6487 33.4896 54.7607 33.3736 55.5747 33.2086C55.8697 33.1486 56.1267 33.0826 56.3477 33.0126C56.4147 32.9916 56.4787 32.9696 56.5397 32.9476C56.6637 32.9036 56.7797 32.8576 56.8797 32.8116C57.4707 32.5396 57.6637 32.2576 57.7257 32.1166L57.7617 29.8416L57.7647 29.6516C57.7657 29.6456 57.7687 29.6396 57.7687 29.6336C57.7687 29.6276 57.7657 29.6226 57.7657 29.6176ZM56.7407 31.7115C56.5757 31.8355 56.0927 32.1065 54.8987 32.2865C54.3497 32.3685 53.6517 32.4325 52.7627 32.4535L51.8697 32.0815L48.2377 30.5675C49.2497 30.7845 50.6107 30.9185 52.1127 30.9185C53.9617 30.9185 55.5977 30.7165 56.6297 30.4045H56.7407V31.7115ZM57.7657 25.5037L57.7687 25.2627H57.6557C57.1317 24.6757 54.8497 24.2347 52.1127 24.2347C49.3757 24.2347 47.0937 24.6757 46.5697 25.2627H46.4557V27.7967L46.4567 27.7987L46.4997 28.0027C46.5617 28.1447 46.7547 28.4267 47.3457 28.6987C47.4457 28.7447 47.5617 28.7897 47.6857 28.8347C47.7467 28.8567 47.8107 28.8777 47.8777 28.8997C48.0987 28.9697 48.3557 29.0357 48.6517 29.0957C49.4597 29.2597 50.5637 29.3747 52.0827 29.3767C52.0937 29.3767 52.1027 29.3767 52.1127 29.3767C52.1237 29.3767 52.1327 29.3767 52.1437 29.3767C53.6627 29.3747 54.7667 29.2597 55.5747 29.0957C55.8697 29.0357 56.1267 28.9697 56.3477 28.8997C56.4147 28.8777 56.4787 28.8567 56.5397 28.8347C56.6637 28.7897 56.7797 28.7447 56.8797 28.6977C57.4707 28.4267 57.6637 28.1447 57.7257 28.0027L57.7617 25.7277L57.7647 25.5387C57.7657 25.5317 57.7687 25.5257 57.7687 25.5197C57.7687 25.5147 57.7657 25.5087 57.7657 25.5037ZM56.7407 27.5987C56.5757 27.7227 56.0927 27.9927 54.8987 28.1727C54.3497 28.2557 53.6517 28.3187 52.7637 28.3407L51.8707 27.9687L48.2377 26.4547C49.2497 26.6717 50.6107 26.8057 52.1127 26.8057C53.9607 26.8057 55.5967 26.6027 56.6287 26.2917H56.7407V27.5987ZM46.4567 65.1179C46.3307 65.1059 46.2007 65.0959 46.0707 65.0849C45.4937 65.0399 44.8777 65.0149 44.2337 65.0149C41.4967 65.0149 39.2147 65.4559 38.6907 66.0429H38.5777V66.2999V66.3009V66.5089V68.2489V68.2499V68.5769L38.6207 68.7829C38.6827 68.9249 38.8767 69.2069 39.4677 69.4789C39.5677 69.5249 39.6827 69.5699 39.8067 69.6149C39.8677 69.6369 39.9317 69.6589 39.9987 69.6799C40.2197 69.7499 40.4767 69.8159 40.7717 69.8759C41.5857 70.0409 42.6977 70.1569 44.2337 70.1569C45.4867 70.1569 46.4537 70.0799 47.2127 69.9619C47.3837 69.9349 47.5457 69.9069 47.6957 69.8759C47.7927 69.8559 47.8897 69.8369 47.9777 69.8159C48.0677 69.7939 48.1487 69.7719 48.2307 69.7489C48.3127 69.7269 48.3947 69.7039 48.4687 69.6799C48.5357 69.6589 48.5997 69.6369 48.6607 69.6149C48.6777 69.6089 48.6977 69.6029 48.7137 69.5969C48.8177 69.5579 48.9137 69.5189 49.0007 69.4789C49.0247 69.4679 49.0447 69.4559 49.0677 69.4449C49.4107 69.2779 49.6087 69.1109 49.7217 68.9749C49.7847 68.8999 49.8257 68.8329 49.8467 68.7839L49.8607 67.8799L49.8677 67.4489L49.8737 67.0409L49.8777 66.8109L49.8827 66.5089L49.8837 66.4239L49.8857 66.3199C49.8857 66.3139 49.8897 66.3069 49.8897 66.2999C49.8897 66.2939 49.8867 66.2889 49.8857 66.2829L49.8897 66.0429H49.7767C49.7707 66.0369 49.7617 66.0309 49.7557 66.0239C49.7527 66.0209 49.7467 66.0169 49.7427 66.0129C49.6507 65.9219 49.5157 65.8339 49.3427 65.7509C49.2597 65.7119 49.1677 65.6729 49.0677 65.6349C48.8497 65.5539 48.5957 65.4779 48.3067 65.4099C48.2397 65.3939 48.1697 65.3789 48.0997 65.3639C47.9227 65.3259 47.7357 65.2909 47.5387 65.2589C47.4187 65.2389 47.2957 65.2199 47.1687 65.2029C47.0787 65.1899 46.9907 65.1779 46.8977 65.1659C46.7877 65.1529 46.6737 65.1409 46.5587 65.1289C46.5247 65.1259 46.4917 65.1219 46.4567 65.1179ZM46.4557 67.4829H46.4567C46.5437 67.4739 46.6267 67.4639 46.7117 67.4549C46.7547 67.4499 46.7987 67.4449 46.8417 67.4399C47.0657 67.4139 47.2797 67.3839 47.4847 67.3509C47.7557 67.3079 48.0107 67.2599 48.2437 67.2069C48.2447 67.2059 48.2457 67.2059 48.2467 67.2059C48.4297 67.1639 48.5947 67.1189 48.7507 67.0719H48.8617V67.3199V67.4639V68.3789C48.7687 68.4489 48.5737 68.5649 48.2117 68.6849C47.9567 68.7699 47.6167 68.8559 47.1677 68.9299C47.1197 68.9379 47.0697 68.9459 47.0187 68.9539C47.0057 68.9559 46.9907 68.9579 46.9777 68.9589C46.8807 68.9739 46.7797 68.9879 46.6727 69.0009C46.6167 69.0079 46.5577 69.0139 46.4987 69.0199C46.3697 69.0339 46.2337 69.0469 46.0917 69.0579C45.7327 69.0879 45.3347 69.1099 44.8837 69.1209L43.9927 68.7489L40.3587 67.2349C41.3707 67.4519 42.7317 67.5859 44.2337 67.5859C44.8777 67.5859 45.4937 67.5599 46.0707 67.5149C46.2007 67.5049 46.3307 67.4949 46.4557 67.4829ZM38.5777 70.6218V72.3628V72.3638V72.6908L38.6207 72.8968C38.7617 73.2188 39.5837 74.2708 44.2337 74.2708C48.8827 74.2708 49.7057 73.2188 49.8467 72.8968L49.8827 70.6218L49.8837 70.5388L49.8857 70.4338C49.8857 70.4268 49.8897 70.4208 49.8897 70.4138C49.8897 70.4078 49.8867 70.4018 49.8857 70.3968L49.8897 70.1568H49.7767C49.7717 70.1518 49.7647 70.1468 49.7597 70.1408C49.7107 70.0888 49.6437 70.0388 49.5677 69.9898C49.5107 69.9518 49.4477 69.9158 49.3757 69.8808C49.3317 69.9028 49.2817 69.9248 49.2327 69.9468C49.2147 69.9548 49.1977 69.9638 49.1787 69.9718C49.1247 69.9948 49.0657 70.0178 49.0067 70.0408C48.9037 70.0798 48.7947 70.1188 48.6747 70.1568C48.6697 70.1588 48.6637 70.1608 48.6577 70.1618C48.5287 70.2028 48.3897 70.2418 48.2387 70.2798C47.3487 70.5038 46.0747 70.6708 44.2337 70.6708C42.0807 70.6708 40.7007 70.4438 39.8087 70.1618C39.8037 70.1608 39.7977 70.1588 39.7927 70.1568C39.6037 70.0968 39.4357 70.0348 39.2887 69.9718C39.2187 69.9418 39.1527 69.9108 39.0917 69.8808C38.9157 69.9678 38.7767 70.0608 38.6907 70.1568H38.5777V70.4128V70.4138C38.5777 70.4138 38.5777 70.4138 38.5777 70.4148V70.6218ZM40.3587 71.3488C41.3707 71.5658 42.7317 71.6988 44.2337 71.6988C46.0817 71.6988 47.7167 71.4968 48.7497 71.1858H48.8617V72.4918C48.6207 72.6728 47.7067 73.1668 44.8837 73.2338L40.3587 71.3488ZM60.1967 36.4684H60.0827V39.0024V39.0034L60.1257 39.2094C60.1877 39.3504 60.3817 39.6324 60.9717 39.9034C61.0717 39.9504 61.1877 39.9954 61.3127 40.0404C61.3737 40.0624 61.4367 40.0834 61.5047 40.1054C61.7247 40.1754 61.9817 40.2414 62.2767 40.3014C63.0917 40.4664 64.2027 40.5824 65.7397 40.5824C65.8567 40.5824 65.9617 40.5784 66.0737 40.5774C66.1957 40.5754 66.3197 40.5754 66.4367 40.5724C66.4597 40.5714 66.4867 40.5714 66.5107 40.5714C66.6287 40.5674 66.7377 40.5624 66.8507 40.5574C67.0737 40.5474 67.2867 40.5364 67.4877 40.5224C67.6217 40.5124 67.7547 40.5024 67.8787 40.4904C68.1847 40.4614 68.4617 40.4264 68.7167 40.3864C68.8887 40.3604 69.0507 40.3314 69.2007 40.3014C69.2747 40.2864 69.3467 40.2704 69.4167 40.2554C69.6227 40.2074 69.8087 40.1574 69.9737 40.1054C70.0407 40.0834 70.1047 40.0624 70.1657 40.0404C70.2907 39.9954 70.4057 39.9504 70.5057 39.9034C70.5617 39.8784 70.6097 39.8524 70.6587 39.8264C70.6617 39.8244 70.6657 39.8234 70.6687 39.8214C70.6907 39.8094 70.7167 39.7984 70.7367 39.7864C70.9647 39.6584 71.1097 39.5334 71.2047 39.4264C71.2217 39.4074 71.2387 39.3884 71.2517 39.3714C71.3017 39.3074 71.3337 39.2514 71.3527 39.2094L71.3677 38.2564L71.3757 37.7454L71.3837 37.2274L71.3887 36.9334L71.3897 36.8414L71.3917 36.7434C71.3917 36.7374 71.3957 36.7314 71.3957 36.7254C71.3957 36.7224 71.3937 36.7194 71.3937 36.7164C71.3937 36.7154 71.3927 36.7144 71.3927 36.7134C71.3927 36.7124 71.3917 36.7114 71.3917 36.7094L71.3957 36.4684H71.2817C71.2777 36.4644 71.2717 36.4594 71.2677 36.4554C71.2307 36.4164 71.1887 36.3784 71.1367 36.3404C71.0667 36.2894 70.9787 36.2404 70.8817 36.1924C70.8207 36.2234 70.7547 36.2534 70.6837 36.2844C70.6747 36.2884 70.6667 36.2924 70.6567 36.2964C70.5527 36.3404 70.4387 36.3844 70.3147 36.4274C70.2737 36.4414 70.2267 36.4544 70.1837 36.4684C70.1767 36.4704 70.1697 36.4724 70.1637 36.4744C69.9877 36.5304 69.7907 36.5824 69.5727 36.6324C69.4457 36.6624 69.3097 36.6904 69.1667 36.7164C69.1607 36.7174 69.1547 36.7184 69.1487 36.7204C68.7697 36.7904 68.3337 36.8494 67.8367 36.8944C67.4857 36.9254 67.1117 36.9514 66.6957 36.9654C66.5057 36.9724 66.2997 36.9744 66.0947 36.9774C66.0507 36.9774 66.0077 36.9784 65.9617 36.9794H65.9607C65.8847 36.9794 65.8167 36.9824 65.7387 36.9824C65.6807 36.9824 65.6317 36.9804 65.5747 36.9804C63.5187 36.9684 62.1817 36.7484 61.3137 36.4744C61.3077 36.4724 61.3007 36.4704 61.2947 36.4684C61.1077 36.4084 60.9397 36.3474 60.7937 36.2844C60.7237 36.2534 60.6577 36.2234 60.5967 36.1924C60.4207 36.2794 60.2827 36.3714 60.1967 36.4684ZM61.8637 37.6604C62.8387 37.8694 64.1387 37.9994 65.5747 38.0094C65.6297 38.0094 65.6837 38.0114 65.7387 38.0114C65.8137 38.0114 65.8867 38.0094 65.9607 38.0084C66.0627 38.0074 66.1657 38.0074 66.2667 38.0054C66.2927 38.0044 66.3197 38.0044 66.3457 38.0034C66.5647 37.9984 66.7777 37.9894 66.9887 37.9784C67.2597 37.9644 67.5227 37.9464 67.7777 37.9234C67.7867 37.9224 67.7957 37.9224 67.8037 37.9214C68.2987 37.8774 68.7577 37.8174 69.1727 37.7454C69.5817 37.6744 69.9457 37.5904 70.2557 37.4974H70.3667V37.7454V38.2264V38.8044C70.3257 38.8354 70.2617 38.8764 70.1747 38.9224C69.9137 39.0594 69.4197 39.2434 68.5247 39.3784C68.3467 39.4054 68.1517 39.4304 67.9397 39.4524C67.5487 39.4924 67.0957 39.5234 66.5767 39.5394C66.5137 39.5414 66.4537 39.5444 66.3887 39.5454L66.3457 39.5274L65.9867 39.3784L65.9607 39.3674L65.5747 39.2064L65.4957 39.1734L61.8637 37.6604ZM60.1967 40.5824H60.0827V43.1164V43.1174L60.1257 43.3224C60.1877 43.4644 60.3817 43.7454 60.9717 44.0174C61.0717 44.0634 61.1877 44.1094 61.3117 44.1534C61.3727 44.1754 61.4367 44.1974 61.5037 44.2184C61.7247 44.2894 61.9817 44.3544 62.2767 44.4144C63.0917 44.5804 64.2027 44.6954 65.7397 44.6954C65.8567 44.6954 65.9617 44.6924 66.0737 44.6914C66.1957 44.6894 66.3197 44.6884 66.4367 44.6854C66.4597 44.6854 66.4867 44.6854 66.5107 44.6844C66.6297 44.6814 66.7377 44.6754 66.8507 44.6714C67.0737 44.6614 67.2867 44.6504 67.4887 44.6354C67.6217 44.6264 67.7547 44.6154 67.8787 44.6044C68.1847 44.5754 68.4617 44.5404 68.7167 44.5004C68.8887 44.4734 69.0507 44.4454 69.2007 44.4144C69.2747 44.3994 69.3477 44.3844 69.4167 44.3684C69.6227 44.3214 69.8087 44.2714 69.9737 44.2184C70.0417 44.1974 70.1047 44.1754 70.1657 44.1534C70.2907 44.1094 70.4057 44.0634 70.5057 44.0174C70.5617 43.9914 70.6097 43.9664 70.6587 43.9404C70.6627 43.9384 70.6657 43.9364 70.6697 43.9344C70.6907 43.9234 70.7167 43.9114 70.7367 43.9004C70.9647 43.7714 71.1097 43.6474 71.2057 43.5394C71.2217 43.5204 71.2387 43.5024 71.2527 43.4844C71.3017 43.4214 71.3337 43.3654 71.3527 43.3224L71.3677 42.3704L71.3757 41.8594L71.3837 41.3404L71.3887 41.0474L71.3897 40.9554L71.3917 40.8574C71.3917 40.8514 71.3957 40.8454 71.3957 40.8394C71.3957 40.8364 71.3937 40.8334 71.3937 40.8304C71.3937 40.8294 71.3927 40.8284 71.3927 40.8274C71.3927 40.8264 71.3917 40.8244 71.3917 40.8234L71.3957 40.5824H71.2817C71.2777 40.5774 71.2717 40.5734 71.2677 40.5684C71.2307 40.5294 71.1887 40.4914 71.1367 40.4544C71.0667 40.4034 70.9787 40.3544 70.8817 40.3064C70.8207 40.3364 70.7547 40.3674 70.6837 40.3974C70.6747 40.4014 70.6667 40.4054 70.6567 40.4104C70.5527 40.4544 70.4387 40.4974 70.3147 40.5404C70.2737 40.5544 70.2267 40.5684 70.1827 40.5824C70.1767 40.5844 70.1697 40.5854 70.1637 40.5874C69.9877 40.6434 69.7897 40.6964 69.5727 40.7464C69.4447 40.7764 69.3087 40.8034 69.1657 40.8304C69.1597 40.8314 69.1547 40.8324 69.1487 40.8334C68.7697 40.9044 68.3337 40.9634 67.8367 41.0074C67.4857 41.0394 67.1127 41.0654 66.6957 41.0794C66.5057 41.0864 66.2997 41.0884 66.0947 41.0904C66.0497 41.0914 66.0077 41.0924 65.9617 41.0924H65.9607C65.8847 41.0934 65.8167 41.0964 65.7387 41.0964C65.6807 41.0964 65.6317 41.0944 65.5747 41.0934C63.5187 41.0824 62.1817 40.8614 61.3137 40.5874C61.3077 40.5854 61.3007 40.5844 61.2957 40.5824C61.1077 40.5224 60.9397 40.4604 60.7937 40.3974C60.7237 40.3674 60.6577 40.3364 60.5967 40.3064C60.4207 40.3934 60.2827 40.4854 60.1967 40.5824ZM61.8637 41.7733C62.8397 41.9823 64.1387 42.1133 65.5747 42.1223C65.6297 42.1233 65.6837 42.1243 65.7387 42.1243C65.8137 42.1243 65.8867 42.1223 65.9607 42.1223C66.0627 42.1213 66.1657 42.1203 66.2667 42.1183C66.2927 42.1183 66.3197 42.1173 66.3457 42.1173C66.5647 42.1113 66.7777 42.1023 66.9887 42.0923C67.2597 42.0783 67.5227 42.0593 67.7777 42.0373C67.7867 42.0363 67.7957 42.0353 67.8037 42.0343C68.2987 41.9903 68.7567 41.9313 69.1717 41.8593C69.5817 41.7873 69.9457 41.7043 70.2557 41.6103H70.3667V41.8593V42.3403V42.9173C70.3257 42.9493 70.2617 42.9893 70.1747 43.0353C69.9137 43.1723 69.4197 43.3573 68.5247 43.4923C68.3467 43.5193 68.1517 43.5433 67.9397 43.5653C67.5487 43.6063 67.0957 43.6363 66.5767 43.6533C66.5137 43.6553 66.4537 43.6573 66.3887 43.6593L66.3457 43.6413L65.9867 43.4913L65.9607 43.4803L65.5747 43.3203L65.4967 43.2873L61.8637 41.7733ZM60.1957 44.6953H60.0827V47.2293V47.2303L60.1257 47.4363C60.1877 47.5773 60.3817 47.8593 60.9717 48.1313C61.0717 48.1773 61.1877 48.2223 61.3117 48.2673C61.3727 48.2893 61.4367 48.3113 61.5037 48.3323C61.7247 48.4023 61.9817 48.4683 62.2767 48.5283C63.0907 48.6933 64.2027 48.8093 65.7397 48.8093C65.8567 48.8093 65.9617 48.8063 66.0747 48.8043C66.1957 48.8033 66.3197 48.8023 66.4357 48.7993C66.4597 48.7993 66.4867 48.7993 66.5107 48.7983C66.6297 48.7953 66.7377 48.7893 66.8507 48.7843C67.0737 48.7753 67.2867 48.7643 67.4887 48.7493C67.6217 48.7393 67.7547 48.7293 67.8787 48.7173C68.1847 48.6893 68.4607 48.6533 68.7157 48.6143C68.8887 48.5873 69.0507 48.5593 69.2017 48.5283C69.2757 48.5133 69.3477 48.4983 69.4167 48.4823C69.6227 48.4353 69.8087 48.3853 69.9737 48.3323C70.0417 48.3113 70.1057 48.2893 70.1667 48.2673C70.2907 48.2223 70.4057 48.1773 70.5057 48.1313C70.5617 48.1053 70.6097 48.0793 70.6587 48.0533C70.6627 48.0523 70.6667 48.0503 70.6697 48.0483C70.6917 48.0373 70.7167 48.0253 70.7367 48.0133C70.9647 47.8853 71.1097 47.7613 71.2047 47.6543C71.2217 47.6353 71.2387 47.6163 71.2527 47.5983C71.3017 47.5343 71.3337 47.4783 71.3527 47.4363L71.3677 46.4833L71.3757 45.9723L71.3837 45.4543L71.3887 45.1613L71.3897 45.0683L71.3917 44.9703C71.3917 44.9643 71.3957 44.9583 71.3957 44.9523C71.3957 44.9493 71.3937 44.9463 71.3937 44.9433C71.3937 44.9423 71.3927 44.9413 71.3927 44.9413C71.3927 44.9393 71.3917 44.9383 71.3917 44.9373L71.3957 44.6953H71.2817C71.2777 44.6913 71.2717 44.6863 71.2677 44.6823C71.2307 44.6433 71.1887 44.6053 71.1367 44.5683C71.0667 44.5163 70.9787 44.4673 70.8817 44.4193C70.8207 44.4503 70.7547 44.4803 70.6837 44.5113C70.6747 44.5153 70.6667 44.5193 70.6567 44.5233C70.5527 44.5673 70.4387 44.6113 70.3147 44.6543C70.2737 44.6683 70.2267 44.6813 70.1827 44.6953C70.1767 44.6973 70.1697 44.6993 70.1637 44.7013C69.9877 44.7573 69.7897 44.8103 69.5727 44.8603C69.4457 44.8893 69.3107 44.9173 69.1677 44.9433C69.1617 44.9453 69.1557 44.9463 69.1497 44.9473C68.7697 45.0173 68.3347 45.0763 67.8377 45.1213C67.4857 45.1523 67.1117 45.1783 66.6947 45.1933C66.5057 45.2003 66.2987 45.2013 66.0947 45.2043C66.0497 45.2053 66.0077 45.2063 65.9617 45.2063H65.9607C65.8847 45.2073 65.8167 45.2103 65.7387 45.2103C65.6807 45.2103 65.6317 45.2073 65.5747 45.2073C63.5187 45.1953 62.1817 44.9753 61.3137 44.7013C61.3077 44.6993 61.3007 44.6973 61.2957 44.6953C61.1077 44.6363 60.9397 44.5743 60.7937 44.5113C60.7237 44.4803 60.6577 44.4503 60.5967 44.4193C60.4207 44.5073 60.2827 44.5993 60.1957 44.6953ZM61.8637 45.8873C62.8387 46.0963 64.1387 46.2263 65.5747 46.2363C65.6297 46.2363 65.6837 46.2383 65.7387 46.2383C65.8137 46.2383 65.8867 46.2363 65.9607 46.2353C66.0627 46.2343 66.1657 46.2343 66.2667 46.2323C66.2927 46.2313 66.3197 46.2313 66.3457 46.2303C66.5647 46.2253 66.7777 46.2163 66.9887 46.2053C67.2597 46.1913 67.5227 46.1733 67.7777 46.1503C67.7867 46.1503 67.7957 46.1493 67.8037 46.1483C68.2987 46.1043 68.7587 46.0443 69.1737 45.9723C69.5827 45.9013 69.9457 45.8173 70.2557 45.7243H70.3667V45.9723V46.4533V47.0313C70.3257 47.0623 70.2617 47.1033 70.1737 47.1493C69.9137 47.2863 69.4187 47.4713 68.5237 47.6063C68.3457 47.6323 68.1507 47.6573 67.9397 47.6793C67.5477 47.7203 67.0957 47.7503 66.5767 47.7663C66.5147 47.7683 66.4547 47.7713 66.3897 47.7733L66.3457 47.7543L65.9867 47.6053L65.9607 47.5943L65.5747 47.4333L65.4977 47.4013L61.8637 45.8873ZM60.1957 48.8092H60.0827V51.3422V51.3442L60.1257 51.5492C60.1877 51.6912 60.3817 51.9722 60.9717 52.2442C61.0727 52.2902 61.1877 52.3362 61.3127 52.3802C61.3737 52.4022 61.4367 52.4242 61.5047 52.4452C61.7247 52.5152 61.9817 52.5812 62.2767 52.6412C63.0907 52.8072 64.2027 52.9222 65.7397 52.9222C65.8567 52.9222 65.9617 52.9192 66.0747 52.9182C66.1967 52.9162 66.3207 52.9152 66.4367 52.9122C66.4607 52.9122 66.4877 52.9122 66.5107 52.9112C66.6297 52.9082 66.7377 52.9022 66.8507 52.8972C67.0737 52.8882 67.2867 52.8772 67.4877 52.8622C67.6217 52.8532 67.7537 52.8422 67.8787 52.8312C68.1847 52.8022 68.4607 52.7672 68.7157 52.7272C68.8877 52.7002 69.0507 52.6722 69.2017 52.6412C69.2747 52.6262 69.3477 52.6112 69.4157 52.5952C69.6227 52.5482 69.8087 52.4982 69.9737 52.4462C70.0407 52.4242 70.1047 52.4022 70.1657 52.3812C70.2897 52.3362 70.4057 52.2902 70.5057 52.2442C70.5617 52.2182 70.6097 52.1932 70.6587 52.1672C70.6617 52.1652 70.6657 52.1632 70.6687 52.1622C70.6907 52.1502 70.7167 52.1382 70.7367 52.1272C70.9647 51.9992 71.1097 51.8742 71.2047 51.7672C71.2217 51.7482 71.2387 51.7292 71.2517 51.7112C71.3017 51.6482 71.3337 51.5922 71.3527 51.5492L71.3677 50.5972L71.3757 50.0862L71.3837 49.5672L71.3887 49.2742L71.3897 49.1822L71.3917 49.0842C71.3917 49.0782 71.3957 49.0722 71.3957 49.0662C71.3957 49.0632 71.3937 49.0602 71.3937 49.0582C71.3937 49.0572 71.3927 49.0552 71.3927 49.0542C71.3927 49.0532 71.3917 49.0522 71.3917 49.0502L71.3957 48.8092H71.2817C71.2777 48.8052 71.2727 48.8002 71.2687 48.7962C71.2317 48.7572 71.1887 48.7192 71.1367 48.6812C71.0667 48.6302 70.9787 48.5812 70.8817 48.5332C70.8197 48.5632 70.7537 48.5942 70.6837 48.6242C70.6737 48.6282 70.6667 48.6332 70.6567 48.6372C70.5517 48.6812 70.4377 48.7252 70.3127 48.7682C70.2717 48.7822 70.2247 48.7952 70.1807 48.8092C70.1757 48.8112 70.1697 48.8132 70.1637 48.8142C69.9867 48.8702 69.7887 48.9232 69.5707 48.9732C69.4427 49.0032 69.3057 49.0312 69.1617 49.0582C69.1567 49.0582 69.1527 49.0592 69.1477 49.0602C68.7687 49.1302 68.3327 49.1892 67.8357 49.2342C67.4857 49.2652 67.1127 49.2912 66.6967 49.3062C66.5067 49.3122 66.2997 49.3142 66.0957 49.3172C66.0507 49.3172 66.0077 49.3192 65.9617 49.3192H65.9607C65.8847 49.3202 65.8167 49.3222 65.7387 49.3222C65.6807 49.3222 65.6317 49.3202 65.5747 49.3202C63.5197 49.3082 62.1827 49.0882 61.3137 48.8142C61.3087 48.8132 61.3027 48.8112 61.2967 48.8092C61.1087 48.7492 60.9407 48.6872 60.7937 48.6242C60.7237 48.5942 60.6577 48.5632 60.5967 48.5332C60.4207 48.6202 60.2827 48.7122 60.1957 48.8092ZM61.8637 50.0012C62.8387 50.2092 64.1387 50.3402 65.5747 50.3492C65.6297 50.3502 65.6837 50.3512 65.7387 50.3512C65.8137 50.3512 65.8867 50.3492 65.9607 50.3492C66.0627 50.3482 66.1657 50.3472 66.2667 50.3452C66.2927 50.3452 66.3197 50.3442 66.3457 50.3442C66.5647 50.3382 66.7777 50.3302 66.9887 50.3192C67.2597 50.3052 67.5227 50.2862 67.7777 50.2642C67.7867 50.2632 67.7957 50.2622 67.8037 50.2622C68.2977 50.2182 68.7557 50.1582 69.1707 50.0862C69.5807 50.0152 69.9447 49.9312 70.2547 49.8382H70.3667V50.0862V50.5672V51.1442C70.3257 51.1752 70.2617 51.2162 70.1737 51.2622C69.9127 51.3992 69.4187 51.5842 68.5237 51.7192C68.3457 51.7462 68.1507 51.7702 67.9397 51.7922C67.5477 51.8332 67.0957 51.8632 66.5767 51.8802C66.5137 51.8822 66.4537 51.8842 66.3887 51.8862L66.3457 51.8682L65.9867 51.7192L65.9607 51.7082L65.5747 51.5472L65.4967 51.5142L61.8637 50.0012ZM60.1967 52.9221H60.0827V55.4561V55.4581L60.1257 55.6631C60.1877 55.8051 60.3817 56.0861 60.9717 56.3581C61.0717 56.4041 61.1877 56.4501 61.3117 56.4941C61.3727 56.5161 61.4367 56.5381 61.5037 56.5591C61.7237 56.6291 61.9807 56.6951 62.2757 56.7551C63.0897 56.9211 64.2027 57.0371 65.7397 57.0371C65.8567 57.0371 65.9617 57.0331 66.0737 57.0321C66.1957 57.0301 66.3197 57.0291 66.4357 57.0261C66.4597 57.0261 66.4877 57.0261 66.5117 57.0251C66.6297 57.0221 66.7377 57.0161 66.8497 57.0121C67.0727 57.0021 67.2877 56.9911 67.4897 56.9761C67.6237 56.9671 67.7557 56.9561 67.8807 56.9451C68.1857 56.9161 68.4617 56.8811 68.7157 56.8411C68.8887 56.8151 69.0507 56.7861 69.2017 56.7551C69.2757 56.7401 69.3487 56.7251 69.4177 56.7091C69.6237 56.6621 69.8097 56.6121 69.9747 56.5591C70.0417 56.5381 70.1057 56.5161 70.1667 56.4941C70.2907 56.4501 70.4057 56.4041 70.5057 56.3581C70.5627 56.3321 70.6107 56.3061 70.6597 56.2801C70.6627 56.2791 70.6667 56.2771 70.6697 56.2751C70.6917 56.2631 70.7177 56.2521 70.7387 56.2401C70.9657 56.1121 71.1107 55.9871 71.2057 55.8801C71.2217 55.8611 71.2387 55.8431 71.2527 55.8251C71.3017 55.7611 71.3337 55.7061 71.3527 55.6631L71.3677 54.7101L71.3757 54.1991L71.3837 53.6801L71.3887 53.3881L71.3897 53.2961L71.3917 53.1971C71.3917 53.1911 71.3957 53.1861 71.3957 53.1791C71.3957 53.1761 71.3937 53.1741 71.3937 53.1711C71.3937 53.1701 71.3927 53.1691 71.3927 53.1681C71.3927 53.1661 71.3917 53.1651 71.3917 53.1641L71.3957 52.9221H71.2817C71.2777 52.9181 71.2717 52.9141 71.2677 52.9091C71.2317 52.8701 71.1887 52.8321 71.1367 52.7951C71.0667 52.7431 70.9787 52.6941 70.8817 52.6461C70.8197 52.6771 70.7537 52.7071 70.6837 52.7381C70.6747 52.7421 70.6667 52.7461 70.6567 52.7501C70.5527 52.7951 70.4387 52.8381 70.3137 52.8811C70.2727 52.8951 70.2257 52.9081 70.1827 52.9221C70.1767 52.9241 70.1697 52.9261 70.1637 52.9281C69.9877 52.9841 69.7897 53.0371 69.5727 53.0871C69.4447 53.1161 69.3087 53.1441 69.1657 53.1711C69.1597 53.1721 69.1547 53.1731 69.1487 53.1741C68.7697 53.2441 68.3347 53.3031 67.8387 53.3481C67.4867 53.3791 67.1127 53.4051 66.6957 53.4201C66.5057 53.4261 66.2997 53.4281 66.0947 53.4311C66.0497 53.4321 66.0077 53.4331 65.9617 53.4331H65.9607C65.8847 53.4341 65.8167 53.4371 65.7387 53.4371C65.6807 53.4371 65.6317 53.4341 65.5747 53.4341C63.5187 53.4221 62.1817 53.2021 61.3137 52.9281C61.3077 52.9261 61.3007 52.9241 61.2957 52.9221C61.1077 52.8631 60.9397 52.8011 60.7937 52.7381C60.7237 52.7071 60.6577 52.6771 60.5967 52.6461C60.4207 52.7341 60.2827 52.8261 60.1967 52.9221ZM61.8637 54.1141C62.8397 54.3231 64.1387 54.4541 65.5747 54.4631C65.6297 54.4631 65.6837 54.4651 65.7387 54.4651C65.8137 54.4651 65.8867 54.4631 65.9607 54.4621C66.0627 54.4611 66.1657 54.4611 66.2667 54.4591C66.2927 54.4581 66.3197 54.4581 66.3457 54.4571C66.5647 54.4521 66.7777 54.4431 66.9887 54.4321C67.2597 54.4181 67.5227 54.4001 67.7777 54.3771C67.7867 54.3771 67.7957 54.3761 67.8047 54.3751C68.2987 54.3311 68.7577 54.2721 69.1727 54.1991C69.5817 54.1281 69.9457 54.0451 70.2557 53.9511H70.3667V54.1991V54.6811V55.2581C70.3257 55.2891 70.2617 55.3301 70.1747 55.3761C69.9137 55.5131 69.4187 55.6981 68.5237 55.8331C68.3457 55.8601 68.1517 55.8841 67.9407 55.9061C67.5497 55.9471 67.0957 55.9781 66.5777 55.9941C66.5147 55.9961 66.4547 55.9981 66.3897 56.0001L66.3457 55.9821L65.9867 55.8321L65.9607 55.8211L65.5747 55.6601L65.4987 55.6281L61.8637 54.1141ZM60.1957 57.0371H60.0827V59.5701V59.5711L60.1257 59.7771C60.1877 59.9181 60.3817 60.2001 60.9717 60.4711C61.0717 60.5181 61.1877 60.5631 61.3117 60.6081C61.3727 60.6301 61.4367 60.6511 61.5037 60.6731C61.7247 60.7431 61.9817 60.8091 62.2767 60.8691C63.0907 61.0341 64.2027 61.1501 65.7397 61.1501C65.8567 61.1501 65.9617 61.1461 66.0747 61.1451C66.1957 61.1441 66.3197 61.1431 66.4357 61.1401C66.4597 61.1391 66.4867 61.1391 66.5107 61.1391C66.6297 61.1351 66.7377 61.1301 66.8507 61.1251C67.0737 61.1161 67.2867 61.1041 67.4887 61.0901C67.6217 61.0801 67.7547 61.0701 67.8787 61.0581C68.1847 61.0291 68.4607 60.9941 68.7157 60.9551C68.8887 60.9281 69.0507 60.8991 69.2017 60.8691C69.2757 60.8541 69.3477 60.8381 69.4167 60.8231C69.6227 60.7751 69.8087 60.7251 69.9737 60.6731C70.0417 60.6511 70.1057 60.6301 70.1657 60.6081C70.2907 60.5631 70.4057 60.5181 70.5057 60.4721C70.5617 60.4461 70.6097 60.4201 70.6587 60.3941C70.6627 60.3921 70.6657 60.3911 70.6697 60.3891C70.6917 60.3771 70.7167 60.3661 70.7367 60.3541C70.9647 60.2261 71.1097 60.1021 71.2047 59.9941C71.2217 59.9751 71.2387 59.9561 71.2527 59.9391C71.3017 59.8751 71.3337 59.8191 71.3527 59.7771L71.3677 58.8241L71.3757 58.3131L71.3837 57.7951L71.3887 57.5011L71.3897 57.4091L71.3917 57.3111C71.3917 57.3051 71.3957 57.2991 71.3957 57.2931C71.3957 57.2901 71.3937 57.2871 71.3937 57.2841C71.3937 57.2831 71.3927 57.2821 71.3927 57.2811C71.3927 57.2801 71.3917 57.2791 71.3917 57.2771L71.3957 57.0371H71.2817C71.2777 57.0321 71.2727 57.0281 71.2687 57.0231C71.2317 56.9841 71.1887 56.9461 71.1367 56.9081C71.0667 56.8571 70.9787 56.8081 70.8817 56.7601C70.8207 56.7901 70.7547 56.8211 70.6837 56.8511C70.6747 56.8561 70.6667 56.8601 70.6567 56.8641C70.5527 56.9081 70.4377 56.9521 70.3127 56.9951C70.2717 57.0091 70.2247 57.0231 70.1807 57.0371C70.1757 57.0381 70.1697 57.0401 70.1637 57.0421C69.9877 57.0971 69.7897 57.1501 69.5727 57.2001C69.4457 57.2301 69.3097 57.2571 69.1667 57.2841C69.1607 57.2851 69.1547 57.2861 69.1487 57.2871C68.7687 57.3581 68.3337 57.4171 67.8367 57.4611C67.4857 57.4931 67.1127 57.5191 66.6957 57.5331C66.5057 57.5401 66.2997 57.5421 66.0957 57.5441C66.0507 57.5451 66.0077 57.5461 65.9617 57.5461H65.9607C65.8847 57.5471 65.8167 57.5501 65.7387 57.5501C65.6807 57.5501 65.6317 57.5481 65.5747 57.5471C63.5187 57.5361 62.1817 57.3161 61.3137 57.0411C61.3087 57.0401 61.3027 57.0381 61.2967 57.0371C61.1087 56.9771 60.9407 56.9151 60.7937 56.8511C60.7237 56.8211 60.6577 56.7901 60.5967 56.7601C60.4207 56.8471 60.2817 56.9401 60.1957 57.0371ZM61.8637 58.228C62.8397 58.437 64.1387 58.567 65.5747 58.577C65.6297 58.577 65.6837 58.578 65.7387 58.578C65.8137 58.578 65.8867 58.577 65.9607 58.576C66.0627 58.575 66.1657 58.575 66.2667 58.572C66.2927 58.572 66.3197 58.571 66.3457 58.571C66.5647 58.566 66.7777 58.557 66.9887 58.546C67.2597 58.532 67.5227 58.513 67.7777 58.491C67.7867 58.49 67.7957 58.49 67.8037 58.489C68.2987 58.445 68.7587 58.385 69.1747 58.313C69.5817 58.242 69.9447 58.158 70.2537 58.065H70.3667V58.313V58.794V59.372C70.3257 59.403 70.2617 59.444 70.1737 59.49C69.9137 59.626 69.4187 59.812 68.5237 59.946C68.3457 59.973 68.1507 59.998 67.9397 60.02C67.5477 60.06 67.0957 60.091 66.5767 60.107C66.5137 60.109 66.4547 60.112 66.3897 60.113L66.3457 60.095L65.9867 59.946L65.9607 59.935L65.5747 59.774L65.4977 59.742L61.8637 58.228ZM60.1957 61.15H60.0827V63.684V63.685L60.1257 63.891C60.1877 64.032 60.3817 64.314 60.9717 64.585C61.0717 64.631 61.1877 64.677 61.3117 64.721C61.3727 64.743 61.4367 64.765 61.5037 64.786C61.7247 64.856 61.9817 64.922 62.2757 64.982C63.0597 65.141 64.1257 65.252 65.5747 65.261C65.6317 65.261 65.6817 65.263 65.7397 65.263C65.8167 65.263 65.8847 65.26 65.9607 65.26C65.9697 65.26 65.9787 65.26 65.9877 65.26C66.0637 65.259 66.1357 65.258 66.2087 65.256C66.3087 65.255 66.4147 65.255 66.5107 65.252C66.6717 65.248 66.8197 65.24 66.9697 65.233C67.1487 65.224 67.3227 65.215 67.4877 65.203C67.6217 65.193 67.7547 65.183 67.8787 65.171C68.0227 65.158 68.1557 65.142 68.2877 65.126C68.4367 65.108 68.5807 65.089 68.7157 65.068C68.8887 65.041 69.0507 65.013 69.2017 64.982C69.2757 64.967 69.3477 64.952 69.4167 64.936C69.6227 64.889 69.8087 64.839 69.9737 64.786C70.0417 64.765 70.1057 64.743 70.1667 64.721C70.2907 64.677 70.4067 64.631 70.5067 64.585C70.5597 64.561 70.6047 64.536 70.6517 64.512C70.6797 64.497 70.7127 64.482 70.7387 64.467C70.9687 64.337 71.1147 64.211 71.2097 64.103C71.2097 64.103 71.2097 64.102 71.2107 64.102C71.2247 64.085 71.2407 64.068 71.2527 64.052C71.3017 63.989 71.3337 63.933 71.3527 63.891L71.3547 63.719L71.3677 62.937L71.3757 62.427L71.3837 61.908L71.3887 61.615L71.3897 61.523L71.3917 61.425C71.3917 61.419 71.3957 61.413 71.3957 61.407C71.3957 61.404 71.3937 61.401 71.3937 61.398C71.3937 61.397 71.3927 61.396 71.3927 61.395C71.3927 61.394 71.3917 61.392 71.3917 61.391L71.3957 61.15H71.2817C71.2777 61.145 71.2727 61.141 71.2677 61.137C71.2317 61.098 71.1887 61.059 71.1367 61.022C71.0667 60.971 70.9777 60.922 70.8817 60.873C70.8197 60.904 70.7537 60.934 70.6837 60.965C70.6737 60.969 70.6667 60.973 70.6567 60.978C70.5517 61.022 70.4377 61.065 70.3127 61.108C70.2717 61.122 70.2247 61.136 70.1807 61.15C70.1757 61.152 70.1697 61.153 70.1637 61.155C69.9867 61.211 69.7887 61.264 69.5707 61.314C69.4427 61.344 69.3057 61.371 69.1617 61.398C69.1567 61.399 69.1517 61.4 69.1477 61.401C68.7677 61.471 68.3327 61.53 67.8357 61.575C67.4857 61.606 67.1127 61.632 66.6967 61.646C66.5067 61.653 66.2997 61.655 66.0957 61.657C66.0507 61.658 66.0077 61.659 65.9617 61.66H65.9607C65.8847 61.66 65.8167 61.663 65.7387 61.663C65.6807 61.663 65.6317 61.661 65.5747 61.661C63.5197 61.649 62.1827 61.429 61.3137 61.155C61.3087 61.153 61.3027 61.152 61.2967 61.15C61.1087 61.09 60.9407 61.028 60.7937 60.965C60.7237 60.934 60.6577 60.904 60.5967 60.873C60.4207 60.961 60.2827 61.053 60.1957 61.15ZM61.8637 62.341C62.8387 62.55 64.1387 62.681 65.5747 62.69C65.6297 62.69 65.6837 62.692 65.7387 62.692C65.8137 62.692 65.8867 62.69 65.9607 62.69C66.0627 62.689 66.1657 62.688 66.2667 62.686C66.2927 62.685 66.3197 62.685 66.3457 62.684C66.5647 62.679 66.7777 62.67 66.9887 62.66C67.2597 62.646 67.5227 62.627 67.7777 62.605C67.7867 62.604 67.7957 62.603 67.8037 62.602C68.2977 62.558 68.7567 62.499 69.1707 62.427C69.5807 62.356 69.9447 62.272 70.2547 62.178H70.3667V62.427V62.908V63.486C70.3257 63.517 70.2617 63.558 70.1747 63.603C70.0517 63.668 69.8757 63.743 69.6297 63.82C69.3567 63.904 68.9957 63.989 68.5247 64.06C68.3467 64.087 68.1517 64.111 67.9397 64.133C67.8777 64.14 67.8147 64.146 67.7497 64.152C67.4037 64.183 67.0127 64.207 66.5767 64.22C66.5137 64.222 66.4537 64.225 66.3887 64.227L66.3457 64.209L65.9867 64.059L65.9607 64.048L65.5747 63.888L65.4967 63.855L61.8637 62.341ZM60.1967 65.2629H60.0827V67.7969V67.7979L60.1257 68.0039C60.1877 68.1449 60.3817 68.4269 60.9717 68.6989C61.0717 68.7449 61.1877 68.7899 61.3117 68.8349C61.3727 68.8569 61.4367 68.8789 61.5037 68.8999C61.7237 68.9699 61.9807 69.0359 62.2757 69.0959C63.0897 69.2609 64.2027 69.3769 65.7397 69.3769C66.3797 69.3769 66.9407 69.3559 67.4437 69.3209C67.9207 69.2869 68.3397 69.2399 68.7077 69.1829C68.8567 69.1599 69.0017 69.1369 69.1337 69.1109C69.1577 69.1059 69.1787 69.1009 69.2017 69.0959C69.4637 69.0429 69.7017 68.9849 69.9047 68.9239C69.9297 68.9159 69.9497 68.9079 69.9747 68.8999C70.0417 68.8789 70.1057 68.8569 70.1667 68.8349C70.2197 68.8159 70.2707 68.7969 70.3187 68.7769C70.3837 68.7509 70.4487 68.7249 70.5057 68.6989C70.8827 68.5259 71.0957 68.3489 71.2177 68.2069C71.2867 68.1259 71.3297 68.0549 71.3527 68.0039L71.3547 67.8229L71.3737 66.6649L71.3817 66.1549L71.3837 66.0209L71.3887 65.7289L71.3897 65.6359L71.3917 65.5379C71.3917 65.5319 71.3957 65.5259 71.3957 65.5199C71.3957 65.5159 71.3927 65.5119 71.3927 65.5079C71.3927 65.5069 71.3917 65.5059 71.3917 65.5039L71.3957 65.2629H71.2817C71.2777 65.2589 71.2717 65.2539 71.2677 65.2499C71.2307 65.2109 71.1887 65.1729 71.1367 65.1349C71.1327 65.1319 71.1267 65.1289 71.1227 65.1259C71.0547 65.0779 70.9727 65.0319 70.8817 64.9869C70.8197 65.0179 70.7537 65.0479 70.6837 65.0779C70.6737 65.0829 70.6667 65.0869 70.6567 65.0909C70.6287 65.1029 70.5967 65.1139 70.5677 65.1259C70.4877 65.1579 70.4047 65.1899 70.3137 65.2219C70.2727 65.2359 70.2257 65.2489 70.1827 65.2629C70.1767 65.2649 70.1697 65.2669 70.1637 65.2689C69.9877 65.3239 69.7897 65.3769 69.5727 65.4279C69.4397 65.4579 69.2977 65.4869 69.1487 65.5149C68.7697 65.5849 68.3347 65.6439 67.8387 65.6879C67.3927 65.7289 66.8977 65.7559 66.3457 65.7679C66.3057 65.7679 66.2627 65.7689 66.2227 65.7699C66.1357 65.7709 66.0507 65.7729 65.9607 65.7739C65.8847 65.7739 65.8167 65.7769 65.7387 65.7769C65.6807 65.7769 65.6317 65.7749 65.5747 65.7749C63.5187 65.7629 62.1817 65.5429 61.3137 65.2689C61.3077 65.2669 61.3007 65.2649 61.2957 65.2629C61.1077 65.2029 60.9397 65.1419 60.7937 65.0779C60.7237 65.0479 60.6577 65.0179 60.5967 64.9869C60.4207 65.0739 60.2827 65.1659 60.1967 65.2629ZM61.8637 66.4549C62.8387 66.6639 64.1387 66.7939 65.5747 66.8039C65.6297 66.8039 65.6837 66.8059 65.7387 66.8059C65.8137 66.8059 65.8867 66.8039 65.9607 66.8029C66.0197 66.8029 66.0787 66.8019 66.1377 66.8009C66.2067 66.7999 66.2767 66.7999 66.3457 66.7979C66.5647 66.7929 66.7777 66.7839 66.9887 66.7729C67.5317 66.7449 68.0437 66.6999 68.5147 66.6399C68.7447 66.6099 68.9617 66.5769 69.1707 66.5399C69.5807 66.4689 69.9457 66.3849 70.2557 66.2919H70.3667V66.6359V67.4109V67.5989C70.2307 67.7009 69.8757 67.9039 69.0837 68.0729C68.9167 68.1079 68.7317 68.1419 68.5237 68.1739C68.0967 68.2379 67.5777 68.2909 66.9497 68.3209C66.9397 68.3209 66.9307 68.3219 66.9207 68.3219C66.7707 68.3289 66.6117 68.3349 66.4497 68.3389C66.4287 68.3389 66.4107 68.3399 66.3897 68.3409L66.0607 68.2029L65.5747 68.0009L65.4977 67.9689L61.8637 66.4549ZM60.1957 69.3768H60.0827V71.9098V71.9118L60.1257 72.1168C60.1717 72.2218 60.2937 72.4058 60.5947 72.6038C60.6587 72.6458 60.7317 72.6888 60.8127 72.7308C60.8697 72.7618 60.9287 72.7918 60.9957 72.8218C61.1527 72.8928 61.3357 72.9628 61.5517 73.0288C61.6357 73.0558 61.7307 73.0798 61.8257 73.1048C62.6617 73.3248 63.8967 73.4908 65.7397 73.4908C67.5817 73.4908 68.8167 73.3248 69.6527 73.1048C69.7477 73.0798 69.8417 73.0558 69.9257 73.0298C70.1427 72.9628 70.3257 72.8928 70.4827 72.8218C70.5497 72.7918 70.6087 72.7618 70.6657 72.7308C70.7467 72.6888 70.8197 72.6458 70.8827 72.6038C71.1837 72.4058 71.3057 72.2218 71.3527 72.1168L71.3887 69.8418L71.3897 69.7488L71.3917 69.6518C71.3917 69.6458 71.3957 69.6398 71.3957 69.6338C71.3957 69.6278 71.3917 69.6228 71.3917 69.6178L71.3957 69.3768H71.2817C71.2777 69.3718 71.2707 69.3668 71.2667 69.3618C71.2247 69.3178 71.1717 69.2748 71.1097 69.2318C71.0447 69.1868 70.9677 69.1428 70.8817 69.1008C70.8197 69.1308 70.7547 69.1618 70.6837 69.1918C70.6627 69.2008 70.6427 69.2108 70.6207 69.2198C70.5277 69.2578 70.4267 69.2958 70.3187 69.3328C70.2757 69.3478 70.2267 69.3628 70.1807 69.3768C70.1757 69.3788 70.1697 69.3808 70.1637 69.3818C69.8777 69.4728 69.5377 69.5558 69.1407 69.6298C68.2997 69.7848 67.2007 69.8908 65.7387 69.8908C63.5857 69.8908 62.2057 69.6638 61.3137 69.3818C61.3087 69.3798 61.3027 69.3788 61.2967 69.3768C61.1087 69.3168 60.9407 69.2548 60.7937 69.1918C60.7237 69.1618 60.6577 69.1308 60.5967 69.1008C60.4207 69.1878 60.2817 69.2798 60.1957 69.3768ZM61.8637 70.5688C62.8767 70.7848 64.2377 70.9188 65.7387 70.9188C67.5867 70.9188 69.2227 70.7168 70.2547 70.4058H70.3667V71.7118C70.2557 71.7958 69.9967 71.9478 69.4697 72.0928C69.2537 72.1528 68.9887 72.2118 68.6717 72.2638C68.6207 72.2718 68.5687 72.2798 68.5157 72.2878C67.9687 72.3698 67.2737 72.4328 66.3887 72.4538L65.4907 72.0798L65.4897 72.0788L64.6427 71.7258L61.8637 70.5688ZM60.1957 73.1048H60.0827V75.3108V75.6378V75.6398L60.1257 75.8448C60.2667 76.1668 61.0897 77.2178 65.7397 77.2178C70.3887 77.2178 71.2107 76.1668 71.3527 75.8448L71.3887 73.5698L71.3917 73.3798C71.3917 73.3738 71.3957 73.3678 71.3957 73.3618C71.3957 73.3558 71.3917 73.3508 71.3917 73.3458L71.3957 73.1048H71.2817C71.2597 73.0808 71.2297 73.0568 71.2017 73.0328C71.1647 73.0568 71.1237 73.0808 71.0817 73.1048C71.0657 73.1148 71.0477 73.1248 71.0307 73.1338C70.9137 73.1998 70.7837 73.2658 70.6267 73.3308C69.7767 73.6838 68.3007 74.0038 65.7387 74.0038C63.1767 74.0038 61.7007 73.6838 60.8507 73.3308C60.6947 73.2658 60.5647 73.1998 60.4477 73.1338C60.4297 73.1248 60.4127 73.1148 60.3957 73.1048C60.3547 73.0808 60.3137 73.0568 60.2767 73.0328C60.2487 73.0568 60.2177 73.0808 60.1957 73.1048ZM61.8667 74.2967C62.8787 74.5137 64.2387 74.6468 65.7387 74.6468C67.5867 74.6468 69.2217 74.4448 70.2537 74.1338H70.3667V75.4398C70.1267 75.6208 69.2127 76.1147 66.3897 76.1818L61.8667 74.2967ZM71.3917 69.2359C71.4687 69.2369 71.5377 69.2399 71.6177 69.2399C72.7877 69.2399 73.7137 69.1729 74.4497 69.0679C74.7387 69.0269 74.9917 68.9789 75.2247 68.9269C75.3167 68.9069 75.4067 68.8859 75.4907 68.8649C75.6767 68.8169 75.8427 68.7669 75.9917 68.7149C76.1327 68.6659 76.2627 68.6159 76.3747 68.5649C76.7297 68.4029 76.9417 68.2379 77.0697 68.0999C77.1557 68.0059 77.2047 67.9239 77.2297 67.8659L77.2427 67.0479L77.2507 66.5739L77.2567 66.1549L77.2607 65.9359C77.1327 65.9239 76.9997 65.9139 76.8797 65.8999C76.8557 65.8979 76.8347 65.8939 76.8117 65.8909C76.2977 65.8309 75.8637 65.7539 75.4907 65.6659C75.1747 65.7399 74.8107 65.8059 74.3957 65.8609C74.3277 65.8709 74.2617 65.8799 74.1897 65.8889C74.1837 65.8899 74.1777 65.8909 74.1707 65.8909C74.1437 65.8939 74.1217 65.8979 74.0937 65.9009C73.9737 65.9149 73.8387 65.9249 73.7087 65.9369C73.5817 65.9479 73.4597 65.9609 73.3237 65.9699C72.8617 66.0019 72.3437 66.0189 71.7777 66.0219L71.7767 66.1549L71.7717 66.6659C72.3107 66.6629 72.8317 66.6439 73.3237 66.6079C73.4547 66.5989 73.5817 66.5879 73.7087 66.5759C73.7977 66.5679 73.8837 66.5599 73.9697 66.5509C74.0117 66.5459 74.0527 66.5419 74.0937 66.5369C74.3167 66.5119 74.5327 66.4849 74.7377 66.4549C75.0067 66.4139 75.2567 66.3679 75.4907 66.3179C75.7247 66.2679 75.9387 66.2129 76.1317 66.1549H76.2447V66.4549V66.6319V67.4609C76.1427 67.5379 75.9177 67.6709 75.4807 67.8029C75.2127 67.8849 74.8637 67.9659 74.4117 68.0349C74.3487 68.0439 74.2827 68.0529 74.2157 68.0619C74.1197 68.0749 74.0177 68.0869 73.9127 68.0989C73.8547 68.1049 73.8007 68.1119 73.7397 68.1179C73.6137 68.1309 73.4787 68.1419 73.3407 68.1519C73.0177 68.1759 72.6617 68.1939 72.2667 68.2029L71.7577 67.9909L71.7557 68.2099L71.7537 68.3429C71.7247 68.4179 71.6327 68.5829 71.3967 68.7769C71.3187 68.8409 71.2247 68.9069 71.1107 68.9759C71.1007 68.9819 71.0897 68.9869 71.0797 68.9929C71.1987 69.0699 71.3017 69.1509 71.3917 69.2359ZM77.6527 66.1549L77.6477 66.6079C78.0707 66.6379 78.5147 66.6569 78.9737 66.6639V66.1549V66.0189C78.4987 66.0119 78.0527 65.9969 77.6547 65.9699L77.6527 66.1549ZM79.6747 64.7549C79.5137 64.6609 79.3887 64.5699 79.2947 64.4849C79.2937 64.4839 79.2917 64.4829 79.2907 64.4819C79.1037 64.3129 79.0267 64.1729 79.0007 64.1049L78.9997 64.1019V64.1009L78.9897 64.0479L78.2687 63.7469L77.6417 63.4859L77.6387 63.7929L77.6347 64.1589V64.1769L77.6317 64.4239V64.4769C77.6227 64.5009 77.6047 64.5349 77.5817 64.5749C77.5257 64.6679 77.4247 64.7979 77.2347 64.9449C77.2337 64.9459 77.2327 64.9459 77.2317 64.9469C77.1867 64.9819 77.1337 65.0179 77.0787 65.0539C77.0427 65.0779 77.0017 65.1019 76.9597 65.1259C76.9567 65.1279 76.9527 65.1299 76.9497 65.1319C76.9367 65.1399 76.9227 65.1469 76.9087 65.1549C76.7987 65.2169 76.6777 65.2789 76.5327 65.3399C76.7277 65.3679 76.9377 65.3929 77.1617 65.4149C77.1937 65.4179 77.2307 65.4199 77.2637 65.4229C77.2657 65.4229 77.2667 65.4229 77.2687 65.4229C77.3917 65.4349 77.5187 65.4449 77.6497 65.4539C78.0477 65.4819 78.4907 65.4989 78.9737 65.5059V65.2489V65.2189H79.1447C79.1677 65.1859 79.2097 65.1579 79.2357 65.1259C79.2817 65.0709 79.3357 65.0179 79.3937 64.9659C79.4757 64.8919 79.5697 64.8219 79.6747 64.7549ZM77.6577 61.857L77.6587 61.863L77.6527 62.427L77.6477 62.88C78.0707 62.91 78.5147 62.929 78.9737 62.936V62.427V61.905C78.5007 61.899 78.0557 61.884 77.6577 61.857ZM77.2347 60.831C77.2117 60.85 77.1817 60.869 77.1557 60.887C77.0967 60.929 77.0307 60.971 76.9577 61.014C76.9547 61.016 76.9527 61.017 76.9497 61.019C76.8907 61.053 76.8287 61.087 76.7597 61.122C76.6977 61.152 76.6317 61.183 76.5617 61.213C76.5517 61.218 76.5437 61.222 76.5327 61.227C76.5557 61.23 76.5817 61.233 76.6057 61.236C76.7417 61.255 76.8867 61.272 77.0357 61.288C77.1287 61.297 77.2277 61.306 77.3257 61.315C77.8067 61.357 78.3557 61.384 78.9737 61.393V61.136V61.106H79.1447C79.2067 61.015 79.3017 60.934 79.3937 60.852C79.4277 60.822 79.4487 60.788 79.4857 60.759C79.6567 60.627 79.8717 60.51 80.1117 60.402C80.1227 60.396 80.1367 60.392 80.1487 60.387C80.1517 60.386 80.1547 60.385 80.1577 60.383C80.1807 60.373 80.2067 60.365 80.2297 60.355C80.1587 60.357 80.0897 60.36 80.0157 60.362L79.1247 59.99L77.6417 59.373L77.6347 60.065L77.6317 60.31V60.364C77.6247 60.382 77.6127 60.406 77.5977 60.434C77.5947 60.44 77.5897 60.447 77.5857 60.454C77.5317 60.547 77.4297 60.68 77.2347 60.831ZM76.2447 62.904V63.733C76.1427 63.81 75.9177 63.942 75.4807 64.075C75.4377 64.088 75.3957 64.101 75.3487 64.114C75.1317 64.174 74.8667 64.233 74.5487 64.285C74.5047 64.292 74.4587 64.299 74.4117 64.307C74.4057 64.308 74.3997 64.308 74.3937 64.309C74.3357 64.318 74.2767 64.326 74.2157 64.334C74.1197 64.347 74.0177 64.359 73.9127 64.371C73.8547 64.377 73.8007 64.384 73.7397 64.39C73.6137 64.402 73.4787 64.414 73.3407 64.424C73.0177 64.448 72.6617 64.466 72.2667 64.475L71.7417 64.256C71.7177 64.309 71.6717 64.387 71.5877 64.483L71.5867 64.484C71.4847 64.599 71.3237 64.737 71.0797 64.879C71.1747 64.94 71.2617 65.002 71.3387 65.068C71.3597 65.087 71.3757 65.107 71.3957 65.126C71.4397 65.168 71.4837 65.209 71.5197 65.253C71.5457 65.284 71.5867 65.311 71.6087 65.344H71.7567L71.7667 65.509C72.3447 65.506 72.8617 65.487 73.3237 65.455C73.4567 65.445 73.5847 65.435 73.7087 65.424C73.7117 65.423 73.7147 65.423 73.7177 65.423C73.7507 65.42 73.7887 65.418 73.8207 65.415C74.0447 65.393 74.2537 65.368 74.4497 65.34C74.4707 65.337 74.4887 65.333 74.5097 65.33C74.7737 65.291 75.0087 65.247 75.2247 65.199C75.3167 65.179 75.4067 65.159 75.4907 65.137C75.5047 65.133 75.5167 65.13 75.5307 65.126C75.6257 65.101 75.7197 65.077 75.8047 65.051C75.8717 65.03 75.9307 65.009 75.9917 64.987C76.1267 64.94 76.2517 64.892 76.3597 64.843C76.3647 64.841 76.3697 64.839 76.3737 64.837C76.4357 64.809 76.4897 64.781 76.5437 64.752C76.5787 64.734 76.6147 64.715 76.6467 64.696C76.6877 64.672 76.7257 64.649 76.7607 64.625C76.8967 64.535 76.9977 64.449 77.0697 64.372C77.1197 64.317 77.1557 64.268 77.1827 64.224C77.1897 64.214 77.1957 64.205 77.2007 64.195C77.2117 64.175 77.2227 64.155 77.2297 64.138L77.2347 63.838L77.2427 63.32L77.2507 62.847L77.2567 62.427L77.2657 61.863L77.2667 61.823C77.2537 61.822 77.2417 61.821 77.2287 61.82C77.2267 61.819 77.2247 61.819 77.2217 61.819C77.0437 61.803 76.8727 61.785 76.7107 61.765C76.2417 61.706 75.8387 61.634 75.4907 61.553C75.1437 61.634 74.7397 61.706 74.2717 61.765C74.1097 61.785 73.9377 61.803 73.7607 61.819C73.7577 61.819 73.7557 61.819 73.7527 61.82C73.7387 61.821 73.7237 61.822 73.7087 61.824C73.5817 61.835 73.4597 61.848 73.3237 61.857C72.8617 61.889 72.3437 61.906 71.7777 61.909L71.7727 62.427L71.7677 62.939C72.3077 62.935 72.8307 62.916 73.3237 62.88C73.4547 62.871 73.5817 62.86 73.7087 62.848C73.7977 62.84 73.8837 62.832 73.9697 62.823C74.0117 62.818 74.0527 62.814 74.0937 62.809C74.3167 62.784 74.5327 62.757 74.7377 62.727C75.0067 62.686 75.2567 62.64 75.4907 62.59C75.7247 62.54 75.9387 62.485 76.1317 62.427H76.2447V62.727V62.904ZM76.7097 57.6511C76.2417 57.5931 75.8387 57.521 75.4907 57.439C75.1437 57.521 74.7407 57.5931 74.2717 57.6511C74.1097 57.6711 73.9387 57.689 73.7607 57.706C73.7577 57.706 73.7557 57.706 73.7527 57.706C73.7387 57.708 73.7237 57.709 73.7087 57.71C73.5817 57.722 73.4597 57.7341 73.3237 57.744C72.8617 57.775 72.3437 57.793 71.7777 57.796L71.7727 58.313L71.7677 58.8251C72.3077 58.8221 72.8307 58.802 73.3237 58.767C73.4547 58.757 73.5817 58.7461 73.7087 58.7351C73.7977 58.7271 73.8837 58.718 73.9697 58.709C74.0117 58.705 74.0527 58.7001 74.0937 58.696C74.3167 58.671 74.5327 58.644 74.7377 58.613C75.0067 58.572 75.2567 58.526 75.4907 58.476C75.7257 58.426 75.9397 58.371 76.1337 58.313H76.2447V58.613V58.7901V59.62C76.1427 59.697 75.9177 59.829 75.4807 59.962C75.2127 60.044 74.8637 60.125 74.4117 60.1931C74.4087 60.194 74.4047 60.194 74.4017 60.195C74.3417 60.204 74.2797 60.2121 74.2157 60.2211C74.1197 60.2341 74.0177 60.246 73.9127 60.258C73.8547 60.264 73.8007 60.271 73.7407 60.2771C73.6137 60.2891 73.4797 60.3 73.3407 60.3111C73.0177 60.335 72.6617 60.3521 72.2677 60.362L71.7417 60.143C71.7177 60.195 71.6717 60.273 71.5877 60.369C71.5877 60.369 71.5877 60.369 71.5877 60.37H71.5867C71.4857 60.4851 71.3237 60.623 71.0797 60.766C71.0817 60.767 71.0847 60.7691 71.0877 60.771C71.1797 60.83 71.2637 60.89 71.3387 60.955C71.4077 61.014 71.4677 61.076 71.5207 61.14C71.5457 61.171 71.5867 61.197 71.6087 61.229H71.7567L71.7667 61.396C72.4877 61.392 73.1127 61.363 73.6557 61.315C73.7547 61.306 73.8527 61.297 73.9467 61.288C74.0957 61.272 74.2397 61.2551 74.3767 61.236C74.3997 61.2331 74.4257 61.23 74.4497 61.2271C74.6797 61.194 74.8857 61.1561 75.0797 61.1171C75.1297 61.1071 75.1777 61.096 75.2247 61.086C75.3167 61.066 75.4067 61.045 75.4907 61.024C75.6207 60.991 75.7407 60.956 75.8517 60.921C75.9007 60.906 75.9457 60.89 75.9917 60.8741C76.0087 60.868 76.0277 60.862 76.0447 60.856C76.1647 60.813 76.2767 60.769 76.3747 60.724C76.3777 60.722 76.3807 60.721 76.3837 60.72C76.4947 60.669 76.5877 60.618 76.6717 60.5681C76.7017 60.55 76.7297 60.532 76.7567 60.515C76.8947 60.424 76.9967 60.337 77.0697 60.258C77.1177 60.2061 77.1527 60.159 77.1797 60.1171C77.2007 60.083 77.2187 60.051 77.2297 60.025L77.2427 59.206L77.2507 58.733L77.2567 58.313L77.2657 57.75L77.2667 57.71C77.2537 57.708 77.2417 57.707 77.2297 57.706C77.2267 57.706 77.2247 57.706 77.2217 57.706C77.0437 57.689 76.8717 57.6711 76.7097 57.6511ZM76.7097 53.5371C76.2417 53.4791 75.8387 53.4071 75.4907 53.3251C75.1437 53.4071 74.7407 53.4791 74.2727 53.5371C74.1097 53.5571 73.9387 53.5751 73.7597 53.5921C73.7577 53.5921 73.7557 53.5921 73.7527 53.5921C73.7387 53.5941 73.7237 53.5951 73.7087 53.5961C73.5817 53.6081 73.4597 53.6201 73.3237 53.6301C72.8617 53.6611 72.3437 53.6791 71.7777 53.6821L71.7727 54.1991L71.7677 54.7111C72.3077 54.7081 72.8307 54.6891 73.3237 54.6531C73.4547 54.6441 73.5817 54.6331 73.7087 54.6211C73.7977 54.6131 73.8837 54.6051 73.9697 54.5961C74.0117 54.5911 74.0527 54.5871 74.0937 54.5821C74.3167 54.5571 74.5327 54.5301 74.7377 54.4991C75.0067 54.4591 75.2567 54.4131 75.4907 54.3631C75.7247 54.3121 75.9387 54.2581 76.1327 54.1991H76.2447V54.4991V54.6771V55.5071C76.1427 55.5831 75.9177 55.7161 75.4807 55.8481C75.2127 55.9301 74.8637 56.0111 74.4117 56.0791C74.4087 56.0801 74.4057 56.0801 74.4027 56.0811C74.3427 56.0901 74.2797 56.0991 74.2157 56.1071C74.1197 56.1201 74.0177 56.1321 73.9117 56.1441C73.8547 56.1501 73.7997 56.1571 73.7397 56.1631C73.6137 56.1751 73.4787 56.1861 73.3407 56.1971C73.0167 56.2211 72.6607 56.2381 72.2667 56.2481L71.7417 56.0291C71.7177 56.0821 71.6727 56.1591 71.5887 56.2551C71.5877 56.2551 71.5877 56.2561 71.5877 56.2561C71.4857 56.3721 71.3237 56.5101 71.0797 56.6531C71.0817 56.6541 71.0837 56.6551 71.0857 56.6571C71.1787 56.7161 71.2637 56.7771 71.3387 56.8411C71.4077 56.9011 71.4677 56.9631 71.5207 57.0271C71.5457 57.0581 71.5867 57.0841 71.6087 57.1161H71.7567L71.7667 57.2821C72.4877 57.2781 73.1127 57.2491 73.6567 57.2011C73.7557 57.1921 73.8537 57.1831 73.9467 57.1731C74.0967 57.1581 74.2407 57.1411 74.3777 57.1221C74.4007 57.1191 74.4257 57.1161 74.4487 57.1131C74.6797 57.0801 74.8857 57.0431 75.0797 57.0031C75.1297 56.9931 75.1767 56.9831 75.2247 56.9721C75.3167 56.9521 75.4067 56.9311 75.4907 56.9101C75.6207 56.8771 75.7407 56.8431 75.8517 56.8071C75.9007 56.7921 75.9457 56.7761 75.9907 56.7611C76.0077 56.7551 76.0267 56.7491 76.0437 56.7421C76.1647 56.6991 76.2767 56.6551 76.3747 56.6101C76.3777 56.6091 76.3817 56.6081 76.3847 56.6061C76.4947 56.5551 76.5877 56.5051 76.6717 56.4541C76.7017 56.4361 76.7297 56.4191 76.7567 56.4011C76.8947 56.3101 76.9977 56.2231 77.0697 56.1441C77.1177 56.0921 77.1537 56.0451 77.1797 56.0021C77.2007 55.9691 77.2187 55.9371 77.2297 55.9121L77.2427 55.0931L77.2507 54.6191L77.2567 54.1991L77.2657 53.6361L77.2667 53.5961C77.2537 53.5941 77.2417 53.5931 77.2287 53.5921C77.2267 53.5921 77.2247 53.5921 77.2217 53.5921C77.0437 53.5751 76.8717 53.5571 76.7097 53.5371ZM76.7107 49.4242C76.2417 49.3662 75.8387 49.2942 75.4907 49.2122C75.1437 49.2942 74.7397 49.3662 74.2717 49.4242C74.1097 49.4442 73.9377 49.4622 73.7607 49.4782C73.7577 49.4782 73.7557 49.4792 73.7527 49.4792C73.7387 49.4802 73.7237 49.4822 73.7087 49.4832C73.5817 49.4942 73.4597 49.5072 73.3237 49.5162C72.8617 49.5482 72.3437 49.5652 71.7777 49.5682L71.7727 50.0862L71.7677 50.5982C72.3077 50.5952 72.8307 50.5752 73.3237 50.5402C73.4547 50.5302 73.5817 50.5192 73.7087 50.5082C73.7977 50.5002 73.8837 50.4912 73.9697 50.4822C74.0117 50.4782 74.0527 50.4732 74.0937 50.4682C74.3167 50.4442 74.5327 50.4172 74.7377 50.3862C75.0067 50.3452 75.2567 50.2992 75.4907 50.2492C75.7247 50.1992 75.9387 50.1442 76.1317 50.0862H76.2447V50.3862V50.5632V51.3932C76.1427 51.4692 75.9177 51.6022 75.4807 51.7352C75.2127 51.8162 74.8637 51.8972 74.4117 51.9662C74.4087 51.9662 74.4047 51.9672 74.4017 51.9672C74.3417 51.9762 74.2797 51.9852 74.2157 51.9942C74.1197 52.0062 74.0177 52.0192 73.9127 52.0302C73.8547 52.0372 73.8007 52.0432 73.7397 52.0492C73.6137 52.0622 73.4787 52.0732 73.3407 52.0832C73.0177 52.1072 72.6617 52.1252 72.2667 52.1342L71.7417 51.9152C71.7177 51.9682 71.6717 52.0462 71.5877 52.1422H71.5867V52.1432C71.4857 52.2582 71.3237 52.3962 71.0797 52.5392C71.0817 52.5402 71.0847 52.5422 71.0867 52.5432C71.1787 52.6022 71.2637 52.6632 71.3387 52.7282C71.4067 52.7872 71.4667 52.8492 71.5197 52.9122C71.5457 52.9442 71.5867 52.9712 71.6087 53.0032H71.7567L71.7667 53.1692C72.4877 53.1652 73.1127 53.1352 73.6557 53.0872C73.7547 53.0792 73.8537 53.0702 73.9467 53.0602C74.0957 53.0442 74.2407 53.0272 74.3767 53.0092C74.4007 53.0052 74.4267 53.0032 74.4497 52.9992C74.6797 52.9672 74.8857 52.9292 75.0797 52.8902C75.1297 52.8802 75.1767 52.8692 75.2247 52.8592C75.3167 52.8382 75.4067 52.8182 75.4907 52.7962C75.6197 52.7632 75.7407 52.7292 75.8517 52.6942C75.9007 52.6782 75.9457 52.6622 75.9917 52.6472C76.0087 52.6412 76.0277 52.6352 76.0437 52.6292C76.1647 52.5852 76.2767 52.5412 76.3747 52.4972C76.3777 52.4952 76.3807 52.4942 76.3837 52.4932C76.4947 52.4422 76.5867 52.3912 76.6717 52.3402C76.7007 52.3232 76.7297 52.3052 76.7557 52.2882C76.8947 52.1972 76.9967 52.1102 77.0697 52.0312C77.1177 51.9792 77.1527 51.9312 77.1797 51.8892C77.2007 51.8552 77.2187 51.8232 77.2297 51.7982L77.2427 50.9792L77.2507 50.5062L77.2567 50.0862L77.2657 49.5222L77.2667 49.4822C77.2537 49.4812 77.2417 49.4802 77.2297 49.4792C77.2267 49.4792 77.2247 49.4782 77.2217 49.4782C77.0437 49.4622 76.8727 49.4442 76.7107 49.4242ZM76.7107 45.3113C76.2417 45.2523 75.8387 45.1803 75.4907 45.0983C75.1437 45.1803 74.7397 45.2523 74.2717 45.3113C74.1097 45.3313 73.9377 45.3483 73.7607 45.3653C73.7577 45.3653 73.7557 45.3653 73.7527 45.3663C73.7387 45.3673 73.7237 45.3683 73.7087 45.3703C73.5817 45.3813 73.4597 45.3943 73.3237 45.4033C72.8617 45.4353 72.3437 45.4523 71.7777 45.4553L71.7727 45.9723L71.7677 46.4843C72.3077 46.4813 72.8307 46.4613 73.3237 46.4263C73.4547 46.4173 73.5817 46.4063 73.7087 46.3943C73.7977 46.3863 73.8837 46.3773 73.9697 46.3683C74.0117 46.3643 74.0527 46.3593 74.0937 46.3553C74.3167 46.3303 74.5327 46.3033 74.7377 46.2723C75.0067 46.2323 75.2567 46.1863 75.4907 46.1353C75.7257 46.0853 75.9397 46.0313 76.1337 45.9723H76.2447V46.2723V46.4503V47.2793C76.1427 47.3563 75.9177 47.4893 75.4807 47.6213C75.2127 47.7033 74.8637 47.7843 74.4117 47.8533C74.4087 47.8533 74.4047 47.8543 74.4017 47.8543C74.3417 47.8633 74.2797 47.8723 74.2157 47.8803C74.1197 47.8933 74.0177 47.9053 73.9127 47.9173C73.8547 47.9233 73.8007 47.9303 73.7407 47.9363C73.6137 47.9493 73.4797 47.9603 73.3407 47.9703C73.0177 47.9943 72.6617 48.0123 72.2677 48.0213L71.7417 47.8023C71.7177 47.8553 71.6727 47.9333 71.5877 48.0293C71.4857 48.1443 71.3237 48.2823 71.0797 48.4253C71.0817 48.4273 71.0847 48.4283 71.0877 48.4303C71.1797 48.4893 71.2637 48.5503 71.3387 48.6143C71.4077 48.6733 71.4677 48.7353 71.5207 48.7993C71.5457 48.8303 71.5867 48.8573 71.6087 48.8893H71.7567L71.7667 49.0553C72.4877 49.0523 73.1127 49.0223 73.6557 48.9743C73.7547 48.9653 73.8527 48.9573 73.9457 48.9473C74.0957 48.9313 74.2397 48.9143 74.3757 48.8953C74.3997 48.8923 74.4257 48.8893 74.4497 48.8863C74.6797 48.8533 74.8857 48.8163 75.0797 48.7763C75.1297 48.7663 75.1777 48.7563 75.2247 48.7453C75.3167 48.7253 75.4067 48.7053 75.4907 48.6833C75.6207 48.6503 75.7407 48.6163 75.8517 48.5803C75.9007 48.5653 75.9457 48.5493 75.9917 48.5333C76.0087 48.5273 76.0277 48.5213 76.0447 48.5153C76.1647 48.4723 76.2767 48.4283 76.3747 48.3833C76.3777 48.3823 76.3807 48.3813 76.3837 48.3793C76.4947 48.3283 76.5877 48.2773 76.6717 48.2273C76.7017 48.2093 76.7297 48.1923 76.7567 48.1743C76.8947 48.0833 76.9967 47.9963 77.0697 47.9183C77.1177 47.8663 77.1527 47.8183 77.1797 47.7763C77.2007 47.7423 77.2187 47.7103 77.2297 47.6843L77.2427 46.8663L77.2507 46.3923L77.2567 45.9723L77.2657 45.4093L77.2667 45.3693C77.2537 45.3683 77.2417 45.3673 77.2297 45.3663C77.2267 45.3653 77.2247 45.3653 77.2217 45.3653C77.0437 45.3483 76.8727 45.3313 76.7107 45.3113ZM76.7097 41.1973C76.2417 41.1393 75.8387 41.0663 75.4907 40.9853C75.1437 41.0663 74.7407 41.1393 74.2717 41.1973C74.1097 41.2173 73.9387 41.2353 73.7607 41.2513C73.7577 41.2513 73.7557 41.2523 73.7527 41.2523C73.7387 41.2533 73.7237 41.2553 73.7087 41.2563C73.5817 41.2673 73.4597 41.2803 73.3237 41.2893C72.8617 41.3213 72.3437 41.3383 71.7777 41.3413L71.7727 41.8593L71.7677 42.3713C72.3077 42.3673 72.8307 42.3483 73.3237 42.3133C73.4547 42.3033 73.5817 42.2923 73.7087 42.2813C73.7977 42.2733 73.8837 42.2643 73.9697 42.2553C74.0117 42.2503 74.0527 42.2463 74.0937 42.2413C74.3167 42.2173 74.5327 42.1903 74.7377 42.1593C75.0067 42.1183 75.2567 42.0723 75.4907 42.0223C75.7247 41.9723 75.9387 41.9173 76.1327 41.8593H76.2447V42.1593V42.3363V43.1663C76.1427 43.2423 75.9177 43.3753 75.4807 43.5083C75.2127 43.5893 74.8637 43.6703 74.4117 43.7393C74.4087 43.7393 74.4067 43.7403 74.4037 43.7403C74.3437 43.7493 74.2807 43.7583 74.2157 43.7673C74.1197 43.7793 74.0177 43.7923 73.9127 43.8033C73.8557 43.8103 73.8007 43.8163 73.7407 43.8223C73.6137 43.8353 73.4797 43.8463 73.3407 43.8563C73.0177 43.8803 72.6617 43.8983 72.2677 43.9073L71.7417 43.6883C71.7177 43.7413 71.6727 43.8193 71.5877 43.9153C71.4857 44.0313 71.3237 44.1693 71.0797 44.3123C71.0827 44.3133 71.0857 44.3153 71.0877 44.3163C71.1797 44.3753 71.2637 44.4363 71.3387 44.5003C71.4077 44.5593 71.4677 44.6213 71.5197 44.6853C71.5457 44.7163 71.5867 44.7433 71.6087 44.7753H71.7567L71.7667 44.9423C72.4877 44.9383 73.1117 44.9083 73.6557 44.8603C73.7547 44.8523 73.8527 44.8433 73.9467 44.8333C74.0957 44.8173 74.2407 44.8003 74.3767 44.7823C74.4007 44.7783 74.4257 44.7763 74.4497 44.7723C74.6797 44.7403 74.8857 44.7023 75.0797 44.6633C75.1297 44.6523 75.1767 44.6423 75.2247 44.6323C75.3167 44.6113 75.4067 44.5913 75.4907 44.5693C75.6197 44.5363 75.7407 44.5023 75.8517 44.4673C75.9007 44.4513 75.9457 44.4353 75.9917 44.4193C76.0087 44.4133 76.0277 44.4083 76.0437 44.4023C76.1647 44.3583 76.2767 44.3143 76.3737 44.2693C76.3777 44.2683 76.3807 44.2673 76.3847 44.2653C76.4947 44.2153 76.5867 44.1643 76.6707 44.1133C76.7007 44.0963 76.7287 44.0783 76.7557 44.0613C76.8937 43.9703 76.9967 43.8823 77.0687 43.8043C77.1177 43.7513 77.1527 43.7043 77.1797 43.6613C77.2007 43.6273 77.2187 43.5963 77.2297 43.5703L77.2427 42.7523L77.2507 42.2793L77.2567 41.8593L77.2657 41.2953L77.2667 41.2553C77.2537 41.2543 77.2417 41.2533 77.2297 41.2523C77.2267 41.2523 77.2247 41.2513 77.2217 41.2513C77.0437 41.2353 76.8717 41.2173 76.7097 41.1973ZM77.2727 36.9734C77.2727 36.9684 77.2697 36.9634 77.2697 36.9574L77.2737 36.7164H77.1597C77.0737 36.6204 76.9357 36.5284 76.7597 36.4404C76.6977 36.4714 76.6327 36.5014 76.5617 36.5324C76.4157 36.5954 76.2477 36.6574 76.0607 36.7164C76.0547 36.7184 76.0477 36.7204 76.0417 36.7224C75.5907 36.8644 75.0107 36.9924 74.2717 37.0844C74.1097 37.1044 73.9387 37.1214 73.7607 37.1384C73.7577 37.1384 73.7557 37.1384 73.7527 37.1394C73.7387 37.1404 73.7237 37.1414 73.7087 37.1434C73.5817 37.1544 73.4597 37.1674 73.3237 37.1764C72.8617 37.2084 72.3437 37.2254 71.7777 37.2284L71.7727 37.7454L71.7677 38.2574C72.3077 38.2544 72.8307 38.2344 73.3237 38.1994C73.4547 38.1904 73.5817 38.1784 73.7087 38.1674C73.7977 38.1594 73.8837 38.1504 73.9697 38.1414C74.0117 38.1374 74.0527 38.1324 74.0937 38.1284C74.3167 38.1034 74.5327 38.0764 74.7377 38.0454C75.0067 38.0054 75.2567 37.9584 75.4907 37.9084C75.7257 37.8584 75.9397 37.8044 76.1337 37.7454H76.2447V38.0454V38.2234V39.0524C76.1427 39.1294 75.9177 39.2614 75.4807 39.3944C75.2127 39.4764 74.8637 39.5574 74.4117 39.6254C74.4087 39.6264 74.4057 39.6264 74.4027 39.6274C74.3427 39.6364 74.2797 39.6444 74.2157 39.6534C74.1197 39.6664 74.0177 39.6784 73.9127 39.6894C73.8547 39.6964 73.8007 39.7034 73.7407 39.7094C73.6137 39.7214 73.4787 39.7324 73.3407 39.7424C73.0177 39.7674 72.6617 39.7844 72.2667 39.7944L71.7417 39.5754C71.7177 39.6274 71.6727 39.7054 71.5877 39.8014V39.8024C71.4857 39.9174 71.3237 40.0554 71.0797 40.1984C71.0827 40.2004 71.0857 40.2014 71.0887 40.2034C71.1797 40.2624 71.2647 40.3224 71.3387 40.3874C71.4077 40.4464 71.4677 40.5084 71.5197 40.5714C71.5457 40.6024 71.5867 40.6294 71.6087 40.6614H71.7567L71.7667 40.8284C72.4877 40.8244 73.1127 40.7954 73.6567 40.7474C73.7547 40.7384 73.8537 40.7294 73.9467 40.7194C74.0957 40.7034 74.2407 40.6864 74.3767 40.6684C74.4007 40.6654 74.4257 40.6624 74.4487 40.6594C74.6787 40.6264 74.8847 40.5884 75.0787 40.5494C75.1287 40.5394 75.1767 40.5284 75.2247 40.5184C75.3167 40.4984 75.4067 40.4774 75.4907 40.4554C75.6197 40.4224 75.7407 40.3884 75.8517 40.3534C75.9007 40.3374 75.9457 40.3224 75.9917 40.3064C76.0087 40.3004 76.0267 40.2944 76.0437 40.2884C76.1647 40.2454 76.2757 40.2004 76.3737 40.1564C76.3767 40.1544 76.3807 40.1534 76.3837 40.1524C76.4937 40.1014 76.5867 40.0504 76.6707 40.0004C76.6997 39.9824 76.7287 39.9654 76.7557 39.9474C76.8937 39.8564 76.9967 39.7694 77.0687 39.6904C77.1177 39.6384 77.1527 39.5914 77.1797 39.5484C77.2007 39.5144 77.2187 39.4824 77.2297 39.4574L77.2427 38.6384L77.2507 38.1654L77.2567 37.7454L77.2657 37.1824L77.2687 36.9924C77.2697 36.9864 77.2727 36.9804 77.2727 36.9734ZM76.9497 68.8599C76.8307 68.9289 76.6957 68.9989 76.5327 69.0679C77.1817 69.1609 77.9907 69.2199 78.9737 69.2339V68.9769V68.9469H79.1447C79.2067 68.8569 79.3017 68.7759 79.3937 68.6939C79.3957 68.6919 79.3977 68.6899 79.3997 68.6879C79.1287 68.4779 79.0317 68.2979 79.0007 68.2179L78.9987 68.2069L78.9737 68.0769V67.7689L77.6417 67.2139L77.6317 68.1519V68.2049C77.6007 68.2849 77.5037 68.4639 77.2347 68.6729C77.1567 68.7329 77.0597 68.7959 76.9497 68.8599ZM79.3587 69.7529V71.0729V71.0739V71.3999L79.4027 71.6069C79.5437 71.9289 80.3647 72.9809 85.0147 72.9809C89.6637 72.9809 90.4867 71.9289 90.6277 71.6069L90.6637 69.3319L90.6667 69.1439C90.6667 69.1369 90.6707 69.1309 90.6707 69.1239C90.6707 69.1179 90.6677 69.1119 90.6677 69.1069L90.6707 68.8669H90.5577C90.5357 68.8429 90.5047 68.8189 90.4767 68.7949C90.4407 68.8189 90.3997 68.8429 90.3577 68.8669C90.3417 68.8769 90.3237 68.8869 90.3067 68.8959C90.1897 68.9619 90.0597 69.0279 89.9027 69.0929C89.0527 69.4469 87.5767 69.7669 85.0147 69.7669C83.8397 69.7669 82.9017 69.6968 82.1387 69.5899C81.6177 69.5168 81.1777 69.4269 80.8147 69.3259C80.6867 69.2899 80.5637 69.2539 80.4527 69.2159C80.3357 69.1759 80.2267 69.1349 80.1267 69.0929C80.0337 69.0539 79.9507 69.0149 79.8717 68.9759C79.8187 68.9489 79.7707 68.9229 79.7237 68.8959C79.7057 68.8869 79.6887 68.8769 79.6717 68.8669C79.6307 68.8429 79.5897 68.8189 79.5527 68.7949C79.5247 68.8189 79.4937 68.8429 79.4717 68.8669H79.3587V68.9819V69.1229V69.1239C79.3587 69.1239 79.3587 69.1239 79.3587 69.1249V69.2389V69.3319V69.3679V69.7529ZM81.1397 70.0588C82.1527 70.2758 83.5137 70.4088 85.0147 70.4088C86.8627 70.4088 88.4987 70.2068 89.5307 69.8958H89.6427V71.2018C89.4017 71.3828 88.4887 71.8768 85.6647 71.9438L81.1397 70.0588Z" fill="#1895FF"/>
<path fill-rule="evenodd" clip-rule="evenodd" d="M36.2192 46.3999H40.0072C40.4131 46.3999 40.7422 46.729 40.7422 47.1349V53.9958C40.7422 54.4017 40.4131 54.7308 40.0072 54.7308H36.2192C35.8133 54.7308 35.4842 54.4017 35.4842 53.9958V47.1349H36.2192V46.3999ZM36.9542 47.8699V53.2608H39.2722V47.8699H36.9542Z" fill="#1C3553"/>
<path fill-rule="evenodd" clip-rule="evenodd" d="M21.1592 46.3999H24.9472C25.3531 46.3999 25.6822 46.729 25.6822 47.1349V53.9958C25.6822 54.4017 25.3531 54.7308 24.9472 54.7308H21.1592C20.7533 54.7308 20.4242 54.4017 20.4242 53.9958V47.1349H21.1592V46.3999ZM21.8942 47.8699V53.2608H24.2122V47.8699H21.8942Z" fill="#1C3553"/>
<path fill-rule="evenodd" clip-rule="evenodd" d="M31.9656 20.4302C30.9871 21.3234 28.4334 23.6527 25.2837 26.5258C19.2521 32.0275 11.0348 39.5231 7.50701 42.7448C8.62232 42.7433 9.73681 42.7459 10.8504 42.7509C11.5638 42.7539 12.6481 42.8551 13.481 43.6685C14.3298 44.4973 14.4358 45.5898 14.4364 46.3024L14.4364 46.3039C14.4369 50.2993 14.4369 54.2947 14.4369 58.29V58.3128C14.4369 62.2026 14.4369 66.0923 14.4374 69.982C17.3984 69.9824 21.8861 69.9824 25.6689 69.9823L32.6737 69.9819C32.6738 69.9819 32.6743 69.9819 32.6744 71.9819C32.6746 73.9819 32.6745 73.9819 32.6744 73.9819L25.669 73.9823C21.7968 73.9824 17.1853 73.9824 14.2291 73.9819H14.2281C13.5524 73.9815 12.3168 73.9585 11.4096 73.0946C10.4664 72.1963 10.4374 70.9391 10.4374 70.2761M32.6744 71.9819L32.6744 73.9819C33.779 73.9818 34.6745 73.0863 34.6744 71.9818C34.6743 70.8772 33.7783 69.9818 32.6737 69.9819L32.6744 71.9819ZM31.9656 20.4302C33.1107 21.4882 35.1861 23.4754 37.0509 25.2721C38.0524 26.2368 38.9858 27.1396 39.6689 27.8012C40.0104 28.1319 40.2893 28.4024 40.4827 28.59L40.7835 28.882C41.5758 29.6517 42.8423 29.6336 43.612 28.8414C44.3816 28.0491 44.3633 26.7829 43.571 26.0133L42.313 27.3082C43.571 26.0132 43.5711 26.0133 43.571 26.0133L43.268 25.7191C43.0738 25.5307 42.7941 25.2595 42.4517 24.9279C41.7669 24.2646 40.8309 23.3593 39.8262 22.3914C37.8266 20.465 35.5254 18.2617 34.4074 17.2418M34.4074 17.2418C33.9045 16.783 33.0674 16.1321 31.918 16.1539L34.4074 17.2418ZM31.918 16.1539C30.7986 16.175 29.9787 16.8282 29.4824 17.281L31.918 16.1539ZM29.4824 17.281C28.72 17.9772 26.0102 20.4489 22.5994 23.5602L29.4824 17.281ZM22.5994 23.5602C15.4106 30.1175 5.10541 39.5176 3.34226 41.1322L22.5994 23.5602ZM3.34226 41.1322C3.33556 41.1384 3.32851 41.1448 3.32113 41.1515C3.11726 41.3376 2.66028 41.7548 2.36605 42.3336C1.97912 43.0948 1.92988 43.9847 2.31632 44.8582M2.31632 44.8582C2.66716 45.651 3.26632 46.1963 3.98402 46.4858C4.60571 46.7365 5.21903 46.7542 5.59072 46.7518" fill="#1C3553"/>
</svg>
