<svg width="96" height="96" viewBox="0 0 96 96" fill="none" xmlns="http://www.w3.org/2000/svg">
<path fill-rule="evenodd" clip-rule="evenodd" d="M18.0357 30.6408C18.5717 30.0233 19.5198 29.317 20.9091 29.317H74.3129C75.7022 29.317 76.6503 30.0233 77.1863 30.6408C77.448 30.9424 77.6276 31.2369 77.743 31.4559C77.8018 31.5674 77.847 31.6653 77.8803 31.7428C77.897 31.7817 77.9109 31.8159 77.9222 31.8448L77.9372 31.8841L77.9433 31.9007L77.946 31.9082L77.9473 31.9117C77.9474 31.912 77.9482 31.9141 77.8432 31.9518L77.9482 31.9143L82.9857 46.0244C83.2043 46.6369 83.1115 47.3174 82.7369 47.849C82.3622 48.3806 81.7524 48.6968 81.1021 48.6968H78.905V71.0569C78.905 72.1615 78.0096 73.0569 76.905 73.0569H18.3169C17.2124 73.0569 16.317 72.1615 16.317 71.0569V48.6968H14.1199C13.4695 48.6968 12.8598 48.3806 12.4851 47.849C12.1105 47.3174 12.0177 46.6369 12.2363 46.0244L17.2737 31.9143L17.3786 31.9518C17.2738 31.9141 17.2736 31.9146 17.2737 31.9143L17.2747 31.9117L17.2759 31.9082L17.2786 31.9007L17.2848 31.8841L17.2998 31.8448C17.311 31.8159 17.325 31.7817 17.3417 31.7428C17.375 31.6653 17.4202 31.5674 17.479 31.4559C17.5944 31.2369 17.7739 30.9424 18.0357 30.6408ZM21.0202 33.3169L16.9575 44.6968H18.3169C19.4215 44.6968 20.3169 45.5923 20.3169 46.6968V69.057H74.905V46.6968C74.905 45.5923 75.8005 44.6968 76.905 44.6968H78.2645L74.2018 33.3169H21.0202Z" fill="#1C3553"/>
<path fill-rule="evenodd" clip-rule="evenodd" d="M33.8058 29.3299H62.0055V73.0099H33.8058V29.3299ZM37.7458 33.2699V69.0699H58.0656V33.2699H37.7458Z" fill="#1895FF"/>
<path d="M49.9995 27C49.9995 26.4477 50.4472 26 50.9995 26H54.9994C55.5517 26 55.9994 26.4477 55.9994 27V30.9999C55.9994 31.5522 55.5517 31.9999 54.9994 31.9999H50.9995C50.4472 31.9999 49.9995 31.5522 49.9995 30.9999V27Z" fill="#1895FF"/>
<path fill-rule="evenodd" clip-rule="evenodd" d="M40.5097 47.7379C40.5097 47.1856 40.9574 46.7379 41.5097 46.7379H45.0981C45.6504 46.7379 46.0981 47.1856 46.0981 47.7379V54.6389C46.0981 55.1911 45.6504 55.6388 45.0981 55.6388H41.5097C40.9574 55.6388 40.5097 55.1911 40.5097 54.6389V47.7379ZM42.5097 48.7379V53.6389H44.0981V48.7379H42.5097Z" fill="#1895FF"/>
<path fill-rule="evenodd" clip-rule="evenodd" d="M49.8138 47.7379C49.8138 47.1856 50.2615 46.7379 50.8138 46.7379H54.4022C54.9545 46.7379 55.4022 47.1856 55.4022 47.7379V54.6389C55.4022 55.1911 54.9545 55.6388 54.4022 55.6388H50.8138C50.2615 55.6388 49.8138 55.1911 49.8138 54.6389V47.7379ZM51.8138 48.7379V53.6389H53.4022V48.7379H51.8138Z" fill="#1895FF"/>
</svg>
