<svg width="96" height="96" viewBox="0 0 96 96" fill="none" xmlns="http://www.w3.org/2000/svg">
<path fill-rule="evenodd" clip-rule="evenodd" d="M64.9455 54.0371C64.9565 55.0991 65.8395 55.9661 66.9205 55.9741C68.0315 55.9821 68.9465 55.0871 68.9355 54.0041C68.9245 52.9551 68.0235 52.0641 66.9635 52.0531C65.8755 52.0421 64.9345 52.9681 64.9455 54.0371ZM84.9789 65.6189L84.979 65.619L84.9791 65.619C85.1559 65.6729 85.3348 65.7274 85.5172 65.7804H85.5162V66.6414C85.5162 67.4214 85.5166 68.2014 85.5169 68.9813V68.9814V68.9814C85.5179 71.0094 85.519 73.0371 85.5132 75.0644C85.5112 75.6474 85.6032 76.1644 86.3232 76.1564C87.0422 76.1474 87.1262 75.6044 87.1272 75.0394C87.1272 74.7199 87.1254 74.4003 87.1236 74.0807C87.119 73.247 87.1144 72.4134 87.1412 71.5814C87.1532 71.2414 87.3742 70.6084 87.4302 70.6174C87.9046 70.6819 87.8416 70.9903 87.7826 71.2796C87.7619 71.3806 87.7418 71.4792 87.7452 71.5644C87.7812 72.5253 87.7737 73.4887 87.7661 74.4517V74.452V74.4522C87.7643 74.6927 87.7624 74.9331 87.7612 75.1734C87.7582 75.7114 87.9052 76.1434 88.5262 76.1574C89.1912 76.1724 89.3602 75.7214 89.3572 75.1534C89.3572 75.0409 89.3577 74.9281 89.3582 74.8154C89.3587 74.7026 89.3592 74.5899 89.3592 74.4774C89.3592 73.9645 89.3589 73.4516 89.3586 72.9388L89.3586 72.9289V72.9289V72.9289C89.3574 70.9381 89.3563 68.9474 89.3722 66.9574C89.3729 66.8265 89.4604 66.6961 89.5481 66.5655C89.589 66.5045 89.63 66.4435 89.6622 66.3824C89.6963 66.44 89.7385 66.4972 89.7808 66.5544L89.7808 66.5544C89.8735 66.6799 89.9663 66.8055 89.9732 66.9354C90.0003 67.486 89.9962 68.0382 89.9921 68.5905C89.9907 68.7905 89.9892 68.9905 89.9892 69.1904C89.9892 69.6284 90.0742 70.0364 90.6182 70.0124C91.1152 69.9924 91.1792 69.5934 91.1792 69.1914C91.1795 68.9162 91.1804 68.6411 91.1814 68.366V68.3659V68.3658C91.184 67.6631 91.1865 66.9605 91.1772 66.2584C91.1602 64.8994 90.4872 64.2424 89.1352 64.2224C88.6015 64.2146 88.0676 64.203 87.5337 64.1913L87.5336 64.1913C86.6909 64.1729 85.8481 64.1544 85.0052 64.1514C84.5032 64.1494 84.3342 63.8884 84.2162 63.4574C83.7772 61.8684 83.3292 60.2804 82.8502 58.7024C82.3942 57.1994 81.5292 56.5794 79.9802 56.5774C78.6765 56.5754 77.3738 56.5764 76.0702 56.5774L76.0692 56.5774C74.1782 56.5774 73.4162 57.1504 72.8762 58.9764C72.7221 59.4979 72.5646 60.0185 72.4071 60.5391C72.3387 60.7652 72.2703 60.9912 72.2022 61.2174C71.9122 60.5633 71.7063 59.9151 71.5034 59.2765L71.5034 59.2765L71.5034 59.2765C71.4194 59.0121 71.3359 58.7493 71.2472 58.4884C70.8092 57.1984 69.9352 56.5864 68.5962 56.5784C67.4932 56.5714 66.3902 56.5714 65.2872 56.5784C63.9742 56.5854 63.1152 57.1774 62.6612 58.4164C62.4878 58.8894 62.3498 59.3759 62.2121 59.8615L62.2121 59.8616L62.2121 59.8617C62.1862 59.953 62.1603 60.0442 62.1342 60.1354L62.064 60.3795C61.7073 61.6199 61.3511 62.8591 61.0142 64.1044C60.8772 64.6144 60.9742 65.0974 61.5522 65.2504C62.1152 65.3984 62.4412 65.0484 62.6242 64.5494C62.6449 64.495 62.6561 64.4368 62.6674 64.3783C62.6753 64.3377 62.6831 64.2971 62.6942 64.2574C62.819 63.8219 62.9448 63.3866 63.0706 62.9513L63.0707 62.9512L63.0707 62.9511C63.3612 61.946 63.6518 60.9406 63.9302 59.9324C64.0592 59.4614 64.2602 59.2274 64.8022 59.4934C64.0812 62.4964 63.3612 65.4934 62.6172 68.5894H64.6002V69.4704C64.6002 69.9965 64.5999 70.5225 64.5996 71.0484L64.5996 71.0497V71.0498V71.0499C64.599 72.2781 64.5984 73.506 64.6012 74.7344C64.6042 75.6114 64.9442 76.0594 65.5802 76.0444C66.2142 76.0304 66.5482 75.5784 66.5542 74.7014C66.5598 74.0343 66.5585 73.3676 66.5573 72.7011V72.701V72.701C66.5567 72.4154 66.5562 72.1299 66.5562 71.8444V68.6184H67.3432V69.3984C67.3432 69.8994 67.343 70.4007 67.3428 70.902C67.3424 72.1555 67.342 73.4094 67.3442 74.6624C67.3452 75.5784 67.6952 76.0554 68.3452 76.0454C68.9682 76.0354 69.2962 75.5784 69.2972 74.7024C69.2993 73.8616 69.2989 73.0197 69.2985 72.1784V72.1781C69.2983 71.8418 69.2982 71.5055 69.2982 71.1694V68.5614H71.2362C70.7393 66.4745 70.2529 64.4278 69.7696 62.3941L69.0762 59.4764C69.5832 59.3014 69.7982 59.4054 69.9222 59.8634C70.1575 60.7351 70.4105 61.6025 70.6636 62.4699C70.8515 63.1141 71.0395 63.7583 71.2202 64.4044C71.3522 64.8764 71.5412 65.2684 72.0922 65.2774C72.6642 65.2864 72.9162 64.9174 73.0592 64.4074C73.2338 63.7844 73.4145 63.1632 73.5952 62.542L73.5952 62.542L73.5952 62.542C73.8543 61.6515 74.1132 60.7612 74.3542 59.8664C74.4762 59.4114 74.6882 59.2984 75.1672 59.4634V60.2594V69.8104C75.1672 70.2698 75.1663 70.7293 75.1654 71.1888C75.1632 72.3587 75.161 73.5288 75.1732 74.6984C75.1822 75.6574 75.8522 76.2144 76.6752 75.9694C77.3522 75.7664 77.4832 75.2214 77.4822 74.6044C77.4808 72.9164 77.4813 71.2284 77.4817 69.5404L77.4817 69.5189C77.482 68.6821 77.4822 67.8452 77.4822 67.0084V66.0914H78.3222V69.9564C78.3222 70.4002 78.3218 70.8442 78.3215 71.2882V71.2883V71.2884C78.3207 72.3987 78.3199 73.5093 78.3242 74.6194C78.3272 75.4964 78.7402 75.9994 79.4462 76.0164C80.1982 76.0334 80.5992 75.5524 80.6172 74.6064C80.6193 74.4635 80.6189 74.32 80.6185 74.1768C80.6183 74.1196 80.6182 74.0625 80.6182 74.0054V60.3174V59.4764C81.1652 59.2954 81.3952 59.3974 81.5212 59.9004C81.7006 60.6185 81.9025 61.3315 82.1044 62.0445C82.2975 62.7265 82.4906 63.4085 82.6642 64.0954C82.8302 64.7554 83.1832 65.1414 83.8412 65.2984C84.221 65.388 84.5952 65.502 84.9789 65.6189L84.9789 65.6189L84.9789 65.6189ZM79.5171 53.9997C79.5301 55.0757 78.6621 55.9577 77.5791 55.9667C76.4861 55.9757 75.6201 55.1297 75.6091 54.0427C75.5991 52.9657 76.4651 52.0727 77.5351 52.0597C78.5911 52.0457 79.5041 52.9397 79.5171 53.9997ZM85.996 62.149C85.984 62.907 86.595 63.518 87.367 63.518C88.157 63.519 88.725 62.94 88.715 62.147C88.706 61.416 88.12 60.811 87.4 60.791C86.66 60.769 86.008 61.4 85.996 62.149Z" fill="#1895FF"/>
<path fill-rule="evenodd" clip-rule="evenodd" d="M42.265 52.9935C42.265 52.5876 42.5941 52.2585 43 52.2585H46.788C47.1939 52.2585 47.523 52.5876 47.523 52.9935V59.8545C47.523 60.2605 47.1939 60.5895 46.788 60.5895H43C42.5941 60.5895 42.265 60.2605 42.265 59.8545V52.9935ZM43.735 53.7285V59.1195H46.053V53.7285H43.735Z" fill="#1895FF"/>
<path fill-rule="evenodd" clip-rule="evenodd" d="M39.3593 20.1857C38.6441 19.5139 37.5202 18.7629 36.0538 19.1675C34.9605 19.4692 34.3188 20.6 34.6205 21.6933C34.8691 22.5942 35.6808 23.1885 36.5706 23.2009C37.3438 23.9265 39.9642 26.3834 43.2539 29.4676C49.0836 34.9334 57.0149 42.3696 60.4914 45.633C59.4616 45.6319 58.4327 45.6346 57.4051 45.6394M62.1603 47.2098C62.1618 47.2117 62.1626 47.2127 62.1626 47.2127C62.1626 47.2127 62.1619 47.2117 62.1603 47.2098ZM39.3593 20.1857C40.1006 20.8814 42.7329 23.3494 46.0482 26.4577C53.0478 33.0204 63.0916 42.4372 64.8075 44.0526M64.8076 44.0527C64.8142 44.0589 64.8211 44.0654 64.8284 44.0722C65.0279 44.2595 65.4792 44.6834 65.7693 45.2692C66.1481 46.0343 66.1967 46.9242 65.8194 47.8013L65.8186 47.8033C65.4753 48.599 64.883 49.1645 64.1492 49.4693C63.5157 49.7324 62.8927 49.7498 62.5248 49.7474M54.116 76.9953C54.1163 76.9953 54.1166 76.9953 54.117 76.9953L54.116 74.9428V76.9953ZM54.116 76.9953C53.4441 76.9956 52.227 77.0022 50.6168 77.011C47.3177 77.029 42.3687 77.056 37.0794 77.056C35.9453 77.056 35.0259 76.1366 35.0259 75.0025C35.0259 73.8683 35.9453 72.949 37.0794 72.949C42.44 72.949 47.1191 72.923 50.358 72.905C51.8282 72.8969 53.0018 72.8904 53.8075 72.8887C53.8075 65.0085 53.8075 57.1272 53.8085 49.2469M53.8085 49.2466C53.8085 48.5408 53.9072 47.4384 54.7495 46.5926L53.8085 49.2466ZM54.7495 46.5926C55.5912 45.7474 56.6935 45.6426 57.4044 45.6394L54.7495 46.5926Z" fill="#1895FF"/>
<path fill-rule="evenodd" clip-rule="evenodd" d="M35.5 11.5C36.0523 11.5 36.5 11.9477 36.5 12.5V82.7563C36.5 83.3086 36.0523 83.7563 35.5 83.7563C34.9477 83.7563 34.5 83.3086 34.5 82.7563V12.5C34.5 11.9477 34.9477 11.5 35.5 11.5Z" fill="#1895FF"/>
<path fill-rule="evenodd" clip-rule="evenodd" d="M32.3182 20.2747C31.5424 19.4475 30.2428 19.4058 29.4156 20.1816C29.3743 20.2203 29.1126 20.4658 28.6722 20.8786C24.705 24.5981 6.24349 41.9068 3.96683 44.0501M32.3182 20.2747C33.094 21.102 33.0523 22.4015 32.2251 23.1773L32.3182 20.2747ZM32.2251 23.1773C32.1832 23.2166 31.9187 23.4646 31.4743 23.8813L32.2251 23.1773ZM31.4743 23.8813C27.9783 27.1589 13.3452 40.8783 8.28373 45.6297L31.4743 23.8813ZM8.28373 45.6297C9.31345 45.6284 10.3421 45.6311 11.3692 45.6359L8.28373 45.6297ZM14.9658 49.2443C14.9668 57.1249 14.9668 65.0054 14.9668 72.8857H30.7005C30.7006 72.8857 30.7006 72.8857 30.7006 74.9392L30.7005 72.8857C31.8346 72.8857 32.7541 73.8051 32.7541 74.9392C32.7541 76.0733 31.8348 76.9927 30.7006 76.9927V74.9392C30.7006 76.9927 30.7007 76.9927 30.7006 76.9927H14.6583C13.9969 76.9927 12.7387 76.9715 11.8192 76.0715C10.8837 75.1558 10.8598 73.8876 10.8598 73.2322C10.8598 65.4016 10.8598 57.5711 10.8589 49.7407C9.32007 49.7346 7.7845 49.734 6.25076 49.7448C5.88148 49.7473 5.25822 49.7294 4.62502 49.4662C3.89308 49.1619 3.30013 48.5977 2.95627 47.8019L2.95494 47.7988C2.57765 46.9216 2.62626 46.0317 3.00505 45.2667C3.29512 44.6808 3.74652 44.257 3.94602 44.0697C3.95326 44.0629 3.96027 44.0563 3.96683 44.0501" fill="#1C3553"/>
</svg>
