<svg width="96" height="97" viewBox="0 0 96 97" fill="none" xmlns="http://www.w3.org/2000/svg">
<path fill-rule="evenodd" clip-rule="evenodd" d="M20.4421 44.9336H23.7991C24.205 44.9336 24.5341 45.2627 24.5341 45.6686V51.8486C24.5341 52.2545 24.205 52.5836 23.7991 52.5836H20.4421C20.0362 52.5836 19.7071 52.2545 19.7071 51.8486V45.6686H20.4421V44.9336ZM21.1771 46.4036V51.1136H23.0641V46.4036H21.1771Z" fill="#1C3553"/>
<path fill-rule="evenodd" clip-rule="evenodd" d="M45.2983 44.9336H48.6553C49.0612 44.9336 49.3903 45.2627 49.3903 45.6686V51.8486C49.3903 52.2545 49.0612 52.5836 48.6553 52.5836H45.2983C44.8924 52.5836 44.5633 52.2545 44.5633 51.8486V45.6686H45.2983V44.9336ZM46.0333 46.4036V51.1136H47.9203V46.4036H46.0333Z" fill="#1C3553"/>
<path fill-rule="evenodd" clip-rule="evenodd" d="M32.8702 44.9336H36.2272C36.6331 44.9336 36.9622 45.2627 36.9622 45.6686V51.8486C36.9622 52.2545 36.6331 52.5836 36.2272 52.5836H32.8702C32.4643 52.5836 32.1352 52.2545 32.1352 51.8486V45.6686H32.8702V44.9336ZM33.6052 46.4036V51.1136H35.4922V46.4036H33.6052Z" fill="#1C3553"/>
<path fill-rule="evenodd" clip-rule="evenodd" d="M32.8702 31.5837H36.2272C36.6331 31.5837 36.9622 31.9128 36.9622 32.3187V38.4987C36.9622 38.9047 36.6331 39.2337 36.2272 39.2337H32.8702C32.4643 39.2337 32.1352 38.9047 32.1352 38.4987V32.3187H32.8702V31.5837ZM33.6052 33.0537V37.7637H35.4922V33.0537H33.6052Z" fill="#1C3553"/>
<path fill-rule="evenodd" clip-rule="evenodd" d="M34.5456 11.0665C35.7779 10.9412 36.7461 11.6005 37.4197 12.2319L37.4208 12.233C38.2946 13.0534 41.533 16.0901 45.534 19.842C53.2723 27.0983 63.863 37.0295 65.7159 38.7743L65.7375 38.7946C65.9578 39.002 66.4264 39.4431 66.7251 40.0467C67.1097 40.8238 67.1605 41.7264 66.7741 42.6247L66.7736 42.6258C66.4212 43.4438 65.8161 44.0191 65.0683 44.3295C64.4188 44.599 63.7739 44.6193 63.3732 44.6164M34.5456 11.0665C33.3135 10.9414 32.3456 11.5995 31.6712 12.2327C30.9173 12.9403 28.4056 15.2954 25.163 18.336C17.3726 25.641 5.36342 36.902 3.3763 38.7738C3.36986 38.7799 3.36315 38.7862 3.35621 38.7927C3.13515 39.0003 2.66547 39.4415 2.36606 40.046C1.98091 40.8235 1.93019 41.7264 2.31663 42.6247L2.31709 42.6258C2.66991 43.4446 3.27572 44.0196 4.02311 44.3296C4.67236 44.599 5.31698 44.6193 5.71748 44.6164C7.51559 44.605 8.03182 44.6062 9.71091 44.6141C9.71233 51.1257 9.71216 56.8879 9.71198 63.0248C9.71191 65.1565 9.71185 67.3335 9.71185 69.6027C9.71185 70.3363 9.7464 71.6305 10.6934 72.5574C11.6248 73.4691 12.9105 73.5008 13.6518 73.5008C14.7564 73.5008 15.6518 72.6053 15.6518 71.5008C15.6518 70.4163 14.7887 69.5334 13.7118 69.5016C13.7118 67.2685 13.7119 65.1241 13.712 63.0236C13.7122 56.8026 13.7123 50.9659 13.7108 44.3434M34.4695 15.0936C34.451 15.11 34.4308 15.1284 34.4089 15.149C33.652 15.8594 31.1338 18.2206 27.8855 21.2666C21.0445 27.6814 10.963 37.1347 7.26432 40.6087C8.10015 40.6066 8.7404 40.6095 9.99263 40.6154M34.4695 15.0936C34.5203 15.0955 34.5712 15.0955 34.622 15.0936C34.6409 15.1103 34.6615 15.129 34.6839 15.15M34.6839 15.15C35.5631 15.9755 38.807 19.0174 42.8114 22.7724C49.5368 29.0789 58.4078 37.3975 61.8271 40.6087C60.9909 40.6066 60.3507 40.6095 59.0981 40.6154M59.3798 44.6141C59.3789 53.3876 59.3789 60.8009 59.3789 69.6027C59.3789 70.3363 59.3443 71.6305 58.3973 72.5574C57.4659 73.4691 56.1802 73.5008 55.4389 73.5008C54.3343 73.5008 53.4389 72.6053 53.4389 71.5008C53.4389 70.4163 54.302 69.5334 55.3789 69.5016C55.3789 60.654 55.3789 53.2018 55.3799 44.3434M59.3798 44.6141C61.0588 44.6062 61.5753 44.605 63.3732 44.6164L59.3798 44.6141ZM13.7108 44.3434C13.7108 43.5763 13.6008 42.4486 12.7465 41.5912L13.7108 44.3434ZM12.7465 41.5912C11.8927 40.7342 10.7648 40.6185 9.99263 40.6154L12.7465 41.5912ZM59.0981 40.6154C58.3259 40.6185 57.198 40.7342 56.3442 41.5912L59.0981 40.6154ZM56.3442 41.5912C55.4899 42.4486 55.3799 43.5763 55.3799 44.3434L56.3442 41.5912Z" fill="#1C3553"/>
<path fill-rule="evenodd" clip-rule="evenodd" d="M65.1493 50.1202C65.1593 51.1652 66.0303 52.0192 67.0943 52.0272C68.1883 52.0352 69.0893 51.1542 69.0783 50.0872C69.0683 49.0542 68.1803 48.1772 67.1363 48.1662C66.0653 48.1552 65.1383 49.0662 65.1493 50.1202ZM84.8689 61.5229L84.869 61.5229L84.869 61.5229C85.0461 61.5768 85.2251 61.6312 85.4076 61.6842H85.4066V62.5322C85.4066 63.3002 85.407 64.0683 85.4074 64.8364C85.4084 66.8334 85.4094 68.8303 85.4036 70.8273C85.4016 71.4013 85.4926 71.9103 86.2006 71.9023C86.9096 71.8933 86.9916 71.3593 86.9926 70.8023C86.9929 70.4741 86.9912 70.1458 86.9894 69.8174C86.9852 69.0101 86.981 68.2027 87.0066 67.3972C87.0186 67.0622 87.2366 66.4392 87.2916 66.4472C87.7584 66.5109 87.6965 66.8146 87.6384 67.0995C87.6181 67.1991 87.5982 67.2963 87.6016 67.3802C87.637 68.3324 87.6297 69.2865 87.6223 70.2405V70.2406V70.2406V70.2407C87.6205 70.4719 87.6188 70.7031 87.6176 70.9343C87.6146 71.4643 87.7596 71.8893 88.3716 71.9033C89.0256 71.9183 89.1926 71.4733 89.1896 70.9153C89.189 70.7821 89.1895 70.6485 89.1899 70.5152V70.5149C89.1903 70.4262 89.1906 70.3376 89.1906 70.2493C89.1906 69.7409 89.1903 69.2324 89.19 68.724V68.724V68.724C89.1888 66.7634 89.1877 64.803 89.2036 62.8432C89.2049 62.7148 89.2908 62.5868 89.3767 62.4587C89.4173 62.3982 89.4578 62.3378 89.4896 62.2772C89.5232 62.334 89.5649 62.3904 89.6065 62.4469C89.6976 62.5702 89.7887 62.6936 89.7956 62.8212C89.8221 63.3657 89.8182 63.9118 89.8144 64.4576V64.4576V64.4578V64.458V64.4581C89.813 64.6529 89.8116 64.8476 89.8116 65.0422C89.8116 65.4732 89.8956 65.8752 90.4316 65.8522C90.9206 65.8322 90.9836 65.4392 90.9836 65.0432C90.9839 64.7723 90.9849 64.5014 90.9859 64.2305C90.9884 63.5384 90.9909 62.8463 90.9816 62.1542C90.9646 60.8161 90.3016 60.1701 88.9706 60.1491C88.4371 60.1417 87.9035 60.1301 87.3697 60.1186H87.3697H87.3696L87.3695 60.1186C86.5477 60.1009 85.7256 60.0832 84.9036 60.0801C84.4086 60.0781 84.2426 59.8211 84.1266 59.3971C83.6946 57.8311 83.2536 56.2681 82.7816 54.7141C82.3316 53.234 81.4806 52.623 79.9546 52.621C78.6706 52.62 77.3876 52.62 76.1036 52.621C74.2406 52.621 73.4916 53.186 72.9596 54.9841C72.8224 55.4472 72.6825 55.9098 72.5425 56.3726L72.5424 56.3729C72.46 56.6456 72.3775 56.9183 72.2956 57.1911C72.0105 56.5483 71.8081 55.9115 71.6086 55.2838L71.6086 55.2838C71.5254 55.0219 71.4426 54.7616 71.3546 54.5031C70.9236 53.232 70.0636 52.63 68.7446 52.622C67.6586 52.616 66.5726 52.616 65.4866 52.622C64.1926 52.629 63.3466 53.212 62.8996 54.4321C62.7312 54.8931 62.5961 55.3681 62.4614 55.8419L62.4614 55.8419C62.4345 55.9364 62.4077 56.0308 62.3806 56.1251L62.3327 56.2916C61.9746 57.5371 61.6165 58.7828 61.2776 60.0331C61.1426 60.5351 61.2376 61.0111 61.8076 61.1621C62.3616 61.3081 62.6826 60.9631 62.8636 60.4721C62.8832 60.4196 62.8942 60.3633 62.9052 60.307L62.9052 60.307C62.9132 60.2659 62.9212 60.2248 62.9326 60.1851C63.0502 59.7747 63.1687 59.3646 63.2871 58.9545C63.5785 57.9456 63.8699 56.9368 64.1486 55.9251C64.2766 55.4611 64.4746 55.2311 65.0086 55.4931C64.2986 58.4501 63.5896 61.4012 62.8566 64.4502H64.8086V65.3182C64.809 65.9828 64.8086 66.6474 64.8083 67.3121C64.8077 68.3755 64.8071 69.4389 64.8096 70.5023C64.8126 71.3663 65.1486 71.8063 65.7736 71.7923C66.3986 71.7783 66.7276 71.3333 66.7336 70.4693C66.7384 69.8275 66.7371 69.1857 66.7358 68.5439C66.7352 68.2477 66.7346 67.9514 66.7346 67.6552V64.4792H67.5106V65.2472C67.5106 65.7409 67.5104 66.2346 67.5103 66.7284C67.5099 67.9627 67.5094 69.197 67.5116 70.4313C67.5126 71.3333 67.8566 71.8033 68.4976 71.7933C69.1106 71.7833 69.4336 71.3333 69.4346 70.4703C69.4367 69.6423 69.4363 68.8133 69.4359 67.9848V67.9846V67.9844C69.4358 67.6532 69.4356 67.3221 69.4356 66.9912V64.4232H71.3436L70.7967 62.123L70.7929 62.107C70.2617 59.8727 69.7391 57.675 69.2166 55.4761C69.7166 55.3031 69.9286 55.4071 70.0506 55.8571C70.2818 56.7156 70.5309 57.5698 70.78 58.424C70.9649 59.0584 71.1499 59.6929 71.3276 60.3291C71.4576 60.7931 71.6436 61.1801 72.1866 61.1891C72.7506 61.1981 72.9986 60.8341 73.1396 60.3321C73.3121 59.716 73.4909 59.1016 73.6696 58.4873L73.6697 58.4871L73.6698 58.4869C73.9242 57.6127 74.1785 56.7386 74.4146 55.8601C74.5356 55.4121 74.7436 55.3001 75.2156 55.4641V56.2471V65.6532C75.2156 66.1174 75.2147 66.5817 75.2137 67.0461V67.0462V67.0463C75.2115 68.1863 75.2092 69.3265 75.2206 70.4663C75.2296 71.4103 75.8906 71.9593 76.6996 71.7183C77.3676 71.5183 77.4956 70.9813 77.4946 70.3733C77.4933 68.7115 77.4937 67.0497 77.4941 65.3876V65.3874V65.3871C77.4944 64.5559 77.4946 63.7246 77.4946 62.8932V61.9912H78.3216V65.7962C78.3216 66.2045 78.3213 66.6128 78.321 67.021V67.0211V67.0211C78.3202 68.1438 78.3195 69.2663 78.3246 70.3883C78.3276 71.2523 78.7336 71.7473 79.4286 71.7643C80.1696 71.7813 80.5646 71.3073 80.5826 70.3763C80.5847 70.2356 80.5843 70.0945 80.5839 69.9532V69.9531V69.953L80.5839 69.9512C80.5837 69.8952 80.5836 69.8392 80.5836 69.7833V56.3051V55.4761C81.1216 55.2981 81.3486 55.3991 81.4716 55.8941C81.6474 56.5947 81.8444 57.2906 82.0415 57.9865L82.0415 57.9867C82.2335 58.6645 82.4254 59.3422 82.5976 60.0241C82.7616 60.6741 83.1086 61.0551 83.7566 61.2091C84.1281 61.2974 84.4941 61.4088 84.8689 61.5229ZM79.499 50.0827C79.512 51.1427 78.657 52.0107 77.591 52.0197C76.515 52.0287 75.661 51.1957 75.651 50.1257C75.641 49.0647 76.494 48.1847 77.547 48.1717C78.587 48.1587 79.486 49.0387 79.499 50.0827ZM85.8788 58.1082C85.8668 58.8542 86.4688 59.4562 87.2288 59.4562C88.0068 59.4572 88.5668 58.8872 88.5568 58.1062C88.5468 57.3862 87.9698 56.7912 87.2608 56.7702C86.5328 56.7492 85.8898 57.3712 85.8788 58.1082Z" fill="#1895FF"/>
<path fill-rule="evenodd" clip-rule="evenodd" d="M21.3812 66.8318C21.3692 66.0798 20.7152 65.4468 19.9732 65.4688C19.2512 65.4888 18.6632 66.0958 18.6542 66.8298C18.6432 67.6238 19.2142 68.2048 20.0062 68.2048C20.7792 68.2038 21.3942 67.5918 21.3812 66.8318ZM30.1862 59.1067C30.1752 58.0557 29.2722 57.1617 28.2082 57.1507C27.1172 57.1407 26.1732 58.0677 26.1842 59.1407C26.1942 60.2067 27.0822 61.0757 28.1652 61.0837C29.2792 61.0927 30.1972 60.1937 30.1862 59.1067ZM40.8002 59.1027C40.7872 58.0397 39.8722 57.1437 38.8122 57.1567C37.7392 57.1707 36.8702 58.0657 36.8802 59.1467C36.8902 60.2367 37.7602 61.0857 38.8572 61.0767C39.9422 61.0677 40.8132 60.1827 40.8002 59.1027ZM50.0262 67.2758C50.0172 66.5428 49.4292 65.9358 48.7072 65.9148C47.9652 65.8938 47.3112 66.5268 47.2992 67.2788C47.2872 68.0388 47.9012 68.6518 48.6742 68.6518C49.4652 68.6518 50.0372 68.0708 50.0262 67.2758ZM52.5002 74.3419C52.5002 73.3609 52.5112 72.3799 52.4982 71.3998C52.4802 70.0368 51.8052 69.3778 50.4502 69.3578C49.0692 69.3378 47.6872 69.2908 46.3062 69.2858C45.8032 69.2848 45.6342 69.0228 45.5152 68.5908C45.0752 66.9968 44.6252 65.4038 44.1452 63.8207C43.6882 62.3137 42.8192 61.6907 41.2652 61.6887C39.9582 61.6867 38.6502 61.6877 37.3432 61.6877C35.4452 61.6887 34.6822 62.2637 34.1392 64.0957C33.9182 64.8458 33.6892 65.5938 33.4632 66.3438C33.0532 65.4158 32.8092 64.4998 32.5052 63.6057C32.0672 62.3117 31.1912 61.6977 29.8462 61.6897C28.7402 61.6827 27.6342 61.6837 26.5282 61.6897C25.2102 61.6967 24.3482 62.2917 23.8932 63.5337C23.6872 64.0977 23.5312 64.6808 23.3642 65.2578C23.0542 66.3378 22.7482 67.4198 22.4492 68.5028C22.3282 68.7568 22.1382 68.9038 21.7632 68.9048C21.6192 68.9058 21.4752 68.9118 21.3312 68.9128C21.3312 68.9128 20.0152 68.9678 19.3582 68.9718C18.5202 68.9758 17.9702 69.3548 17.6812 70.1448C17.5492 70.5038 17.4502 70.8748 17.3442 71.2428C17.1022 72.0858 16.8592 72.9299 16.6292 73.7769C16.5412 74.1019 16.6032 74.4099 16.9732 74.5079C17.3322 74.6029 17.5402 74.3789 17.6572 74.0609C17.6792 74.0009 17.6842 73.9359 17.7022 73.8749C17.9662 72.9539 18.2362 72.0358 18.4902 71.1128C18.5732 70.8118 18.7012 70.6628 19.0472 70.8328C18.5872 72.7499 18.1282 74.6629 17.6522 76.6399H18.9182V77.2029C18.9182 78.3229 18.9172 79.4439 18.9202 80.564C18.9202 81.123 19.1382 81.409 19.5442 81.399C19.9492 81.39 20.1622 81.102 20.1662 80.542C20.1712 79.9349 20.1672 79.3259 20.1672 78.7179V76.6589H20.6692V77.1569C20.6692 78.2759 20.6682 79.3969 20.6702 80.517C20.6712 81.102 20.8952 81.407 21.3102 81.4C21.7082 81.394 21.9162 81.102 21.9182 80.543C21.9192 79.7909 21.9192 79.0379 21.9192 78.2859V76.6219H23.1552C22.6872 74.6499 21.9232 70.5888 21.9332 70.3408C22.2652 70.2408 22.6002 70.1328 22.9312 70.0548C23.5922 69.8968 23.9452 69.5098 24.1122 68.8488C24.1932 68.5298 24.2852 68.2138 24.3722 67.8968L24.3582 67.8908C24.6302 66.9458 24.9052 66.0018 25.1662 65.0538C25.2962 64.5818 25.4972 64.3467 26.0412 64.6128C25.3182 67.6258 24.5962 70.6318 23.8502 73.7369H25.8392V74.6219C25.8392 76.3809 25.8352 78.1419 25.8402 79.9029C25.8422 80.782 26.1842 81.231 26.8212 81.216C27.4572 81.201 27.7922 80.749 27.7992 79.8689C27.8062 78.9139 27.8012 77.9579 27.8012 77.0029V73.7679H28.5902V74.5489C28.5902 76.3089 28.5882 78.0699 28.5912 79.8299C28.5922 80.748 28.9442 81.228 29.5962 81.217C30.2212 81.208 30.5492 80.748 30.5502 79.8709C30.5532 78.6889 30.5512 77.5069 30.5512 76.3249V73.7099H32.4952C31.7582 70.6118 31.0432 67.6038 30.3282 64.5958C30.8372 64.4197 31.0542 64.5248 31.1772 64.9838C31.5892 66.5088 32.0532 68.0188 32.4782 69.5388C32.6112 70.0128 32.8002 70.4068 33.3542 70.4158C33.9272 70.4238 34.1812 70.0538 34.3242 69.5428C34.7502 68.0218 35.2132 66.5118 35.6232 64.9868C35.7452 64.5308 35.9582 64.4177 36.4392 64.5838V65.3818V74.9629C36.4392 76.5969 36.4282 78.2309 36.4432 79.8659C36.4532 80.828 37.1262 81.387 37.9512 81.14C38.6302 80.937 38.7612 80.391 38.7602 79.7709C38.7582 77.2309 38.7602 74.6909 38.7602 72.1518V71.2328H39.6032V75.1089C39.6042 76.6679 39.5992 78.2269 39.6052 79.7859C39.6092 80.667 40.0232 81.17 40.7312 81.187C41.4852 81.205 41.8872 80.722 41.9052 79.7729C41.9092 79.5719 41.9062 79.3709 41.9062 79.1699V65.4408V64.5968C42.4542 64.4147 42.6862 64.5178 42.8122 65.0218C43.1642 66.4318 43.6022 67.8198 43.9582 69.2288C44.1262 69.8908 44.4792 70.2788 45.1392 70.4358C45.6952 70.5688 46.2402 70.7508 46.8202 70.9198V71.7848C46.8202 74.6009 46.8252 77.4169 46.8172 80.233C46.8152 80.818 46.9072 81.336 47.6302 81.328C48.3502 81.32 48.4352 80.775 48.4352 80.208C48.4362 79.0519 48.4122 77.8949 48.4502 76.7379C48.4552 76.5819 48.5052 76.3629 48.5632 76.1739C48.6302 75.9509 48.7092 75.7669 48.7392 75.7709C49.3812 75.8589 49.0432 76.3919 49.0552 76.7219C49.1002 77.9269 49.0782 79.1349 49.0712 80.342C49.0682 80.882 49.2162 81.315 49.8392 81.329C50.5062 81.344 50.6752 80.892 50.6732 80.323C50.6722 80.0959 50.6742 79.8699 50.6742 79.6439C50.6752 77.1289 50.6672 74.6149 50.6882 72.1008C50.6892 71.9078 50.8772 71.7168 50.9782 71.5248C51.0872 71.7088 51.2802 71.8888 51.2902 72.0788C51.3272 72.8309 51.3072 73.5869 51.3072 74.3409C51.3072 74.7809 51.3922 75.1899 51.9392 75.1659C52.4352 75.1449 52.5002 74.7459 52.5002 74.3419Z" fill="#1895FF"/>
</svg>
