<svg width="96" height="96" viewBox="0 0 96 96" fill="none" xmlns="http://www.w3.org/2000/svg">
<path fill-rule="evenodd" clip-rule="evenodd" d="M57.3223 49.745C56.4733 46.9341 54.8629 46.1558 51.9805 46.1505C51.8223 46.1505 51.6641 46.1516 51.5049 46.1505C50.3711 46.1505 49.2374 46.1505 48.1036 46.1505C46.9709 46.1505 45.8372 46.1505 44.7034 46.1505H44.7024C44.5442 46.1516 44.386 46.1505 44.2267 46.1505C41.3444 46.1558 39.7339 46.9341 38.886 49.745C38.7974 50.0366 38.4968 55.018 38.5991 56.5788V64.071C38.598 64.0943 38.5864 64.1134 38.5864 64.1368C38.5864 65.002 39.2836 65.7018 40.1431 65.7018C41.0037 65.7018 41.7008 65.002 41.7008 64.1368C41.7008 64.1134 41.6882 64.0943 41.6871 64.071V53.612C41.6871 51.8275 42.3621 51.3493 43.0402 51.5751V53.1486V69.678C43.0297 70.1742 43.0234 70.5973 43.0234 70.908C43.0244 73.9564 43.0023 77.0059 43.0329 80.0533C43.036 80.4169 43.1025 80.7403 43.1984 81.0351C43.2005 81.0415 43.2027 81.0468 43.2037 81.0531C43.2923 81.3172 43.4083 81.5568 43.5591 81.7561C43.6214 81.8441 43.6962 81.9152 43.7711 81.9873C43.9177 82.1294 44.0759 82.2534 44.2563 82.3414C44.2879 82.3552 44.3206 82.3669 44.3543 82.3796C44.7836 82.5609 45.2866 82.5948 45.8287 82.4316C45.8889 82.4135 45.9194 82.3764 45.9753 82.3552C46.0713 82.3181 46.1567 82.2683 46.2432 82.2174C47.107 81.7477 47.3316 80.8771 47.3306 79.8762C47.3263 75.1397 47.3295 70.4033 47.3306 65.6668V63.9512H48.8777V65.6668C48.8788 70.4033 48.882 75.1397 48.8777 79.8762C48.8767 80.8771 49.1013 81.7477 49.9651 82.2174C50.0516 82.2683 50.1359 82.3181 50.2319 82.3552C50.2889 82.3764 50.3194 82.4135 50.3796 82.4316C50.9217 82.5948 51.4247 82.5609 51.854 82.3796C51.8867 82.3669 51.9204 82.3552 51.9521 82.3414C52.1313 82.2534 52.2906 82.1294 52.4372 81.9873C52.511 81.9152 52.5859 81.8441 52.6492 81.7561C52.8 81.5568 52.916 81.3172 53.0035 81.0531C53.0056 81.0468 53.0078 81.0415 53.0088 81.0351C53.1058 80.7403 53.1712 80.4169 53.1754 80.0533C53.205 77.0059 53.1839 73.9564 53.1839 70.908C53.1839 70.5973 53.1776 70.1742 53.1681 69.678V53.1486V51.5751C53.8462 51.3493 54.5201 51.8275 54.5201 53.612V64.071C54.5191 64.0943 54.5075 64.1134 54.5075 64.1368C54.5075 65.002 55.2046 65.7018 56.0652 65.7018C56.9247 65.7018 57.6219 65.002 57.6219 64.1368C57.6219 64.1134 57.6103 64.0943 57.6092 64.071V56.5788C57.7105 55.018 57.4099 50.0366 57.3223 49.745ZM51.7401 41.4098C51.758 39.3931 50.1465 37.722 48.1574 37.6966C46.1915 37.6722 44.4914 39.3443 44.4682 41.3282C44.444 43.3417 46.0608 44.9916 48.0741 45.0085C50.1075 45.0255 51.7211 43.4414 51.7401 41.4098Z" fill="#1895FF"/>
<path fill-rule="evenodd" clip-rule="evenodd" d="M47.9635 16.0483C49.172 15.9298 50.1175 16.5789 50.7646 17.1891C51.5203 17.9021 54.1401 20.3716 57.472 23.5124C64.8644 30.4807 75.7648 40.7558 77.603 42.4963M77.603 42.4963L77.6231 42.5152C77.8335 42.714 78.29 43.1453 78.5813 43.7372C78.9576 44.5017 79.0057 45.3886 78.6281 46.268C78.2846 47.0688 77.6923 47.6358 76.9575 47.9421C76.32 48.2079 75.6892 48.2268 75.3061 48.2242M66.2782 47.8718C66.2783 47.1356 66.3821 46.0301 67.2195 45.1852C68.0592 44.3379 69.1662 44.2264 69.9074 44.2232C69.9076 44.2232 69.9072 44.2232 69.9074 44.2232C71.1369 44.2174 72.3681 44.2146 73.6 44.2171C74.1697 44.7548 74.5985 45.16 74.8531 45.4011C74.9597 45.5019 75.01 45.5534 75.0393 45.587C75.0463 45.5951 75.0494 45.5991 75.0494 45.5992C75.0494 45.5993 75.0234 45.5663 74.9925 45.5036C74.9692 45.4563 74.9451 45.3959 74.9259 45.3247C74.926 45.3248 74.9259 45.3245 74.9259 45.3247C74.9061 45.2508 74.8916 45.1648 74.889 45.0701C74.8839 44.8868 74.9254 44.7537 74.9518 44.6917C74.952 44.691 74.9523 44.6904 74.9526 44.6897C74.9744 44.6396 75.0258 44.5466 75.1246 44.4487C75.1935 44.3804 75.2656 44.3293 75.3316 44.2924C75.3315 44.2925 75.3318 44.2924 75.3316 44.2924C75.362 44.2755 75.3916 44.2613 75.4185 44.2501C75.4958 44.2178 75.5386 44.2148 75.5178 44.2175C75.4955 44.2205 75.4408 44.225 75.3325 44.2243C74.755 44.2206 74.1772 44.2182 73.6 44.2171C70.0647 40.8796 61.1074 32.4362 54.7412 26.4352C51.4048 23.2902 48.7801 20.8161 48.0205 20.0994M47.9635 16.0483C46.7545 15.9297 45.8097 16.5797 45.1635 17.1891C44.3816 17.9268 41.6049 20.5442 38.1085 23.84C30.7262 30.7987 20.1334 40.7837 18.324 42.4963L18.3223 42.4979C18.3158 42.5041 18.309 42.5105 18.3019 42.5172C18.0922 42.7158 17.6372 43.1466 17.3465 43.7372C16.971 44.5002 16.9216 45.3859 17.2979 46.2656L17.2992 46.2686C17.6433 47.0692 18.2357 47.6359 18.9703 47.9421C19.6076 48.2078 20.2379 48.2268 20.6209 48.2242M25.6489 48.2216C25.6504 54.4639 25.6502 60.7062 25.65 66.9488C25.6499 69.0681 25.6499 71.1876 25.6499 73.307C25.6499 74.0046 25.6802 75.2733 26.6087 76.1866C27.5248 77.0876 28.7863 77.1165 29.4888 77.117H37.8251C38.9297 77.117 39.8251 76.2216 39.8251 75.117C39.8251 74.0124 38.9297 73.117 37.8251 73.117H29.6499C29.6499 71.0609 29.6499 69.0047 29.65 66.9485C29.6502 60.5898 29.6504 54.2309 29.6488 47.872M47.9076 20.0994C47.1217 20.8409 44.3389 23.464 40.8371 26.7649C34.4968 32.7414 25.7991 40.9401 22.3273 44.2171C23.5597 44.2146 24.791 44.2174 26.0207 44.2232M47.9076 20.0994C47.9162 20.0912 47.925 20.083 47.933 20.0756C47.9537 20.076 47.9744 20.076 47.9951 20.0756C48.0031 20.083 48.0119 20.0912 48.0205 20.0994M29.6488 47.872C29.6488 47.1369 29.5455 46.031 28.7088 45.186L29.6488 47.872ZM28.7088 45.186C27.8694 44.3381 26.7617 44.2265 26.0207 44.2232L28.7088 45.186Z" fill="#1C3553"/>
</svg>
