<svg width="96" height="96" viewBox="0 0 96 96" fill="none" xmlns="http://www.w3.org/2000/svg">
<path fill-rule="evenodd" clip-rule="evenodd" d="M50.1795 20.1501C49.5593 19.5673 48.638 18.9321 47.4559 19.0447L50.1795 20.1501ZM47.4559 19.0447C46.2748 18.9323 45.3533 19.5659 44.7322 20.1493L47.4559 19.0447ZM47.4554 23.0792C46.6919 23.7958 44.0647 26.2589 40.7639 29.3537C34.8784 34.8719 26.8512 42.3981 23.4282 45.6114C24.5034 45.6099 25.5776 45.6126 26.6504 45.6176C27.358 45.6208 28.4412 45.7256 29.2674 46.5543C30.0947 47.3842 30.1939 48.468 30.194 49.1714M47.4554 23.0792C48.2189 23.7958 50.8461 26.259 54.147 29.3539C60.0325 34.8721 68.0596 42.3982 71.4825 45.6114C70.4074 45.6099 69.3332 45.6126 68.2604 45.6176C67.5527 45.6208 66.4695 45.7256 65.6434 46.5547C64.8168 47.3843 64.7174 48.4676 64.7168 49.1699V49.1714C64.7161 54.5022 64.7164 59.8336 64.7166 65.1647C64.7167 67.7322 64.7168 70.2995 64.7168 72.8667C59.8671 72.8676 35.0473 72.8676 30.1949 72.8667C30.1945 68.9743 30.1945 65.0817 30.1945 61.189V61.1661C30.1945 57.168 30.1945 53.1694 30.194 49.1714M44.7313 20.1502C43.9889 20.8469 41.3585 23.3132 38.0458 26.4191L44.7313 20.1502ZM38.0458 26.4191C31.046 32.982 20.9999 42.4011 19.2841 44.0164L38.0458 26.4191ZM19.2841 44.0164C19.2777 44.0225 19.2709 44.0288 19.2639 44.0354C19.0646 44.2226 18.619 44.641 18.3334 45.2185C17.9616 45.9703 17.9146 46.8439 18.2862 47.7058C18.6236 48.49 19.2065 49.0454 19.9268 49.3446C20.55 49.6034 25.8282 49.6181 26.194 49.6157M26.194 49.6157C26.1945 53.4656 26.1945 57.3158 26.1945 61.1661C26.1945 65.1643 26.1945 69.1626 26.195 73.1606M56.8642 26.4183C63.864 32.9813 73.9108 42.401 75.6267 44.0164C75.6331 44.0225 75.6398 44.0288 75.6469 44.0354C75.8462 44.2226 76.2917 44.641 76.5773 45.2185C76.9493 45.9706 76.9962 46.8446 76.6242 47.7068M56.8642 26.4183C53.5519 23.3128 50.9218 20.8468 50.1795 20.1501L56.8642 26.4183ZM68.7167 49.6157C68.7161 54.7983 68.7163 59.9812 68.7166 65.1642C68.7167 67.8297 68.7168 70.4952 68.7168 73.1606C68.7168 73.8166 68.6914 75.0628 67.7732 75.9611C66.8711 76.8436 65.635 76.8666 64.9723 76.8666M68.7167 49.6157C70.2739 49.6094 71.8282 49.6086 73.3809 49.6186L68.7167 49.6157ZM26.195 73.1606C26.195 73.8167 26.2206 75.0626 27.1381 75.9608L26.195 73.1606ZM27.1381 75.9608C28.0401 76.8436 29.276 76.8666 29.9385 76.8666L27.1381 75.9608ZM29.9385 76.8666C34.1721 76.8676 60.7386 76.8676 64.9723 76.8666H29.9385Z" fill="#1C3553"/>
<path fill-rule="evenodd" clip-rule="evenodd" d="M38.5003 63.5727C38.5003 63.0204 38.948 62.5727 39.5003 62.5727H43.6973C44.2495 62.5727 44.6973 63.0204 44.6973 63.5727V64.9787H47.1772C47.7295 64.9787 48.1772 65.4264 48.1772 65.9787V67.3857H50.6582C51.2105 67.3857 51.6582 67.8334 51.6582 68.3857V69.7926H54.1382C54.6905 69.7926 55.1382 70.2404 55.1382 70.7926V71.9996H58.1792C58.7315 71.9996 59.1792 72.4473 59.1792 72.9996C59.1792 73.5519 58.7315 73.9996 58.1792 73.9996H54.1382C53.5859 73.9996 53.1382 73.5519 53.1382 72.9996V71.7926H50.6582C50.1059 71.7926 49.6582 71.3449 49.6582 70.7926V69.3856H47.1772C46.625 69.3856 46.1773 68.9379 46.1773 68.3857V66.9787H43.6973C43.145 66.9787 42.6973 66.5309 42.6973 65.9787V64.5727H39.5003C38.948 64.5727 38.5003 64.125 38.5003 63.5727Z" fill="#1895FF"/>
<path fill-rule="evenodd" clip-rule="evenodd" d="M38.5003 51.5727C38.5003 51.0205 38.948 50.5727 39.5003 50.5727H43.6973C44.2495 50.5727 44.6973 51.0205 44.6973 51.5727V52.9787H47.1772C47.7295 52.9787 48.1772 53.4264 48.1772 53.9787V55.3857H50.6582C51.2105 55.3857 51.6582 55.8334 51.6582 56.3857V57.7927H54.1382C54.6905 57.7927 55.1382 58.2404 55.1382 58.7927V59.9997H58.1792C58.7315 59.9997 59.1792 60.4474 59.1792 60.9997C59.1792 61.552 58.7315 61.9997 58.1792 61.9997H54.1382C53.5859 61.9997 53.1382 61.552 53.1382 60.9997V59.7927H50.6582C50.1059 59.7927 49.6582 59.345 49.6582 58.7927V57.3857H47.1772C46.625 57.3857 46.1773 56.938 46.1773 56.3857V54.9787H43.6973C43.145 54.9787 42.6973 54.531 42.6973 53.9787V52.5727H39.5003C38.948 52.5727 38.5003 52.125 38.5003 51.5727Z" fill="#1895FF"/>
<path fill-rule="evenodd" clip-rule="evenodd" d="M67.9997 63.1649H26.9999V61.3649H67.9997V63.1649Z" fill="#1895FF"/>
<path fill-rule="evenodd" clip-rule="evenodd" d="M67.9997 51.3998H26.9999V49.5998H67.9997V51.3998Z" fill="#1895FF"/>
</svg>
