<svg width="96" height="96" viewBox="0 0 96 96" fill="none" xmlns="http://www.w3.org/2000/svg">
<path fill-rule="evenodd" clip-rule="evenodd" d="M47.4561 19.0448C48.6377 18.9323 49.5586 19.5668 50.1788 20.1494C50.92 20.845 53.5516 23.3124 56.8661 26.42C63.8658 32.9827 73.9109 42.4009 75.627 44.0164M47.4561 19.0448C46.2751 18.9324 45.3535 19.566 44.7325 20.1494C43.9912 20.845 41.3592 23.3128 38.0443 26.4208C31.0447 32.9835 21.0003 42.4009 19.2843 44.0164M47.4556 23.0794C46.6924 23.7957 44.0664 26.2578 40.7668 29.3514C34.881 34.8698 26.8519 42.3977 23.4284 45.6115C24.5033 45.6101 25.5772 45.6127 26.6498 45.6177M47.4556 23.0794C48.2189 23.7957 50.845 26.2578 54.1446 29.3515C60.0304 34.8699 68.0594 42.3978 71.4829 45.6115C70.408 45.6101 69.3341 45.6127 68.2615 45.6177M19.2843 44.0164C19.2779 44.0225 19.271 44.0289 19.264 44.0355L19.2843 44.0164ZM19.264 44.0355C19.0647 44.2227 18.6191 44.6411 18.3335 45.2186L19.264 44.0355ZM18.3335 45.2186C17.9617 45.9704 17.9147 46.844 18.2863 47.7059L18.3335 45.2186ZM18.2863 47.7059C18.6237 48.4902 19.2066 49.0455 19.9269 49.3447C20.5504 49.6037 21.1647 49.6211 21.5305 49.6187M26.1942 49.6158C26.1946 53.4657 26.1946 57.3159 26.1946 61.1662C26.1946 65.1644 26.1946 69.1627 26.1951 73.1607M26.1942 49.6158C26.1942 49.4678 26.1941 49.3199 26.1941 49.172C26.1941 49.0263 26.1835 48.9678 26.1835 48.9678C26.1835 48.9678 26.1846 48.9723 26.187 48.9809C26.1962 49.0143 26.2208 49.085 26.2727 49.1717C26.3106 49.2348 26.3631 49.3067 26.4347 49.3785C26.5033 49.4472 26.5715 49.4982 26.6321 49.5357C26.7218 49.5909 26.7956 49.617 26.8289 49.6263C26.8367 49.6286 26.8409 49.6296 26.8409 49.6296C26.8409 49.6296 26.7815 49.6183 26.6325 49.6177C26.4866 49.617 26.34 49.6164 26.1942 49.6158ZM76.5778 45.2186C76.9496 45.9704 76.9966 46.844 76.625 47.7059C76.2875 48.4902 75.7047 49.0455 74.9843 49.3447C74.3609 49.6037 73.7466 49.6211 73.3808 49.6187C71.8283 49.6087 70.2741 49.6095 68.7171 49.6158C68.7171 49.4683 68.7171 49.3209 68.7171 49.1735C68.7173 49.027 68.728 48.9685 68.728 48.9685C68.728 48.9685 68.7269 48.973 68.7246 48.9813C68.7154 49.0145 68.6909 49.0852 68.6388 49.172L66.7171 49.1717L68.638 49.1734C68.6003 49.236 68.5482 49.3069 68.4773 49.3782C68.4085 49.4472 68.34 49.4983 68.2791 49.5359C68.1898 49.5909 68.1161 49.6169 68.0827 49.6263C68.0748 49.6285 68.0706 49.6296 68.0706 49.6296C68.0706 49.6296 68.1299 49.6183 68.2788 49.6177C68.4247 49.617 68.5713 49.6164 68.7171 49.6158C68.7165 54.7984 68.7167 59.9813 68.7169 65.1643C68.717 67.8298 68.7171 70.4953 68.7171 73.1607C68.7171 73.8167 68.6917 75.0629 67.7735 75.9612C66.8715 76.8437 65.6354 76.8667 64.9726 76.8667C60.739 76.8677 34.1728 76.8677 29.9391 76.8667C29.2766 76.8667 28.0402 76.8437 27.1383 75.9609C26.2207 75.0628 26.1951 73.8169 26.1951 73.1607M76.5778 45.2186C76.2922 44.6411 75.8466 44.2227 75.6473 44.0355L76.5778 45.2186ZM75.6473 44.0355C75.6402 44.0289 75.6334 44.0225 75.627 44.0164L75.6473 44.0355ZM30.1941 49.1715C30.1941 48.4681 30.0948 47.3843 29.2675 46.5544C28.4413 45.7257 27.3574 45.6209 26.6498 45.6177M30.1941 49.1715C30.1946 53.1695 30.1946 57.1681 30.1946 61.1662V61.1891C30.1946 65.0818 30.1946 68.9744 30.1951 72.8668C35.0475 72.8677 59.8674 72.8677 64.7171 72.8668" fill="#1C3553"/>
<path fill-rule="evenodd" clip-rule="evenodd" d="M52.0463 50.0993C52.0463 49.5194 52.5164 49.0493 53.0963 49.0493H56.8843C57.4642 49.0493 57.9343 49.5194 57.9343 50.0993V56.9603C57.9343 57.5402 57.4642 58.0103 56.8843 58.0103H53.0963C52.5164 58.0103 52.0463 57.5402 52.0463 56.9603V50.0993ZM54.1463 51.1493V55.9103H55.8343V51.1493H54.1463Z" fill="#1895FF"/>
<path fill-rule="evenodd" clip-rule="evenodd" d="M36.9863 50.0993C36.9863 49.5194 37.4564 49.0493 38.0363 49.0493H41.8243C42.4042 49.0493 42.8743 49.5194 42.8743 50.0993V56.9603C42.8743 57.5402 42.4042 58.0103 41.8243 58.0103H38.0363C37.4564 58.0103 36.9863 57.5402 36.9863 56.9603V50.0993ZM39.0863 51.1493V55.9103H40.7743V51.1493H39.0863Z" fill="#1895FF"/>
</svg>
