<svg width="96" height="96" viewBox="0 0 96 96" fill="none" xmlns="http://www.w3.org/2000/svg">
<path fill-rule="evenodd" clip-rule="evenodd" d="M10.1352 26.2564C10.4337 25.4868 11.1744 24.9797 11.9998 24.9797H54.0826V28.9796H13.3692L7.92077 43.0267H9.99984C11.1044 43.0267 11.9998 43.9221 11.9998 45.0267V71.1007H54.0826V75.1006H9.99984C8.89527 75.1006 7.99985 74.2052 7.99985 73.1007V47.0266H4.99986C4.33993 47.0266 3.72248 46.7011 3.34964 46.1566C2.97681 45.6121 2.89658 44.9187 3.13522 44.3034L10.1352 26.2564Z" fill="#1C3553"/>
<path fill-rule="evenodd" clip-rule="evenodd" d="M86.1472 26.2567C85.8487 25.4871 85.108 24.98 84.2825 24.98H42.1998V28.98H82.9131L88.3616 43.027H86.2825C85.178 43.027 84.2826 43.9224 84.2826 45.027V71.101H42.1998V75.101H86.2825C87.3871 75.101 88.2825 74.2055 88.2825 73.101V47.027H91.2825C91.9424 47.027 92.5599 46.7014 92.9327 46.1569C93.3056 45.6124 93.3858 44.919 93.1472 44.3037L86.1472 26.2567Z" fill="#1C3553"/>
<path fill-rule="evenodd" clip-rule="evenodd" d="M89.0013 44.7387H4.81586V42.3387H89.0013V44.7387Z" fill="#1C3553"/>
<path fill-rule="evenodd" clip-rule="evenodd" d="M67.419 44.7387H30.8141V42.3387H67.419V44.7387Z" fill="#1C3553"/>
<path fill-rule="evenodd" clip-rule="evenodd" d="M32.9998 43V74H30.9998V43H32.9998Z" fill="#1C3553"/>
<path fill-rule="evenodd" clip-rule="evenodd" d="M67.3997 43V74H65.3997V43H67.3997Z" fill="#1C3553"/>
<path fill-rule="evenodd" clip-rule="evenodd" d="M43.7848 60.2894C43.7848 59.7371 44.2325 59.2894 44.7848 59.2894H52.2137C52.766 59.2894 53.2137 59.7371 53.2137 60.2894V71.9274C53.2137 72.4796 52.766 72.9274 52.2137 72.9274H44.7848C44.2325 72.9274 43.7848 72.4796 43.7848 71.9274V60.2894ZM45.7848 61.2894V70.9274H51.2137V61.2894H45.7848Z" fill="#1895FF"/>
<path fill-rule="evenodd" clip-rule="evenodd" d="M52.9637 48.5384C52.9637 48.1242 53.2995 47.7885 53.7137 47.7885H57.1417C57.5559 47.7885 57.8917 48.1242 57.8917 48.5384V54.3764C57.8917 54.7906 57.5559 55.1264 57.1417 55.1264H53.7137C53.2995 55.1264 52.9637 54.7906 52.9637 54.3764V48.5384ZM54.4637 49.2884V53.6264H56.3917V49.2884H54.4637Z" fill="#1895FF"/>
<path fill-rule="evenodd" clip-rule="evenodd" d="M39.1078 48.5384C39.1078 48.1242 39.4436 47.7885 39.8578 47.7885H43.2858C43.7 47.7885 44.0358 48.1242 44.0358 48.5384V54.3764C44.0358 54.7906 43.7 55.1264 43.2858 55.1264H39.8578C39.4436 55.1264 39.1078 54.7906 39.1078 54.3764V48.5384ZM40.6078 49.2884V53.6264H42.5358V49.2884H40.6078Z" fill="#1895FF"/>
<path fill-rule="evenodd" clip-rule="evenodd" d="M30.9998 29.0004H67.6047V25.0004H30.9998V29.0004Z" fill="#1895FF"/>
<path fill-rule="evenodd" clip-rule="evenodd" d="M30.9998 75.1004H67.6047V71.0004H30.9998V75.1004Z" fill="#1895FF"/>
<path d="M55.9997 22.1004C55.9997 21.5481 56.4474 21.1004 56.9997 21.1004H61.9997C62.552 21.1004 62.9997 21.5481 62.9997 22.1004V26.1004C62.9997 26.6527 62.552 27.1004 61.9997 27.1004H56.9997C56.4474 27.1004 55.9997 26.6527 55.9997 26.1004V22.1004Z" fill="#1895FF"/>
<path fill-rule="evenodd" clip-rule="evenodd" d="M34.475 35.8827C34.8155 35.7692 35.1836 35.9532 35.2972 36.2937L35.9789 38.3379L35.9819 38.3454C35.9865 38.3568 35.9954 38.3773 36.009 38.404C36.0368 38.4586 36.0802 38.5309 36.1405 38.6011C36.2546 38.7338 36.4161 38.8493 36.6806 38.8493H37.6806C38.0396 38.8493 38.3306 39.1404 38.3306 39.4993C38.3306 39.8583 38.0396 40.1493 37.6806 40.1493H36.6806C35.9451 40.1493 35.4486 39.7904 35.1548 39.4486C35.011 39.2815 34.9129 39.1166 34.8502 38.9933C34.8185 38.931 34.7949 38.8774 34.7784 38.8368C34.77 38.8164 34.7634 38.7992 34.7584 38.7855L34.752 38.7678L34.7497 38.761L34.7487 38.7582L34.7483 38.7569L34.7481 38.7563C34.7481 38.7562 34.748 38.7561 34.7803 38.7452L34.748 38.756L34.064 36.705C33.9504 36.3644 34.1344 35.9963 34.475 35.8827Z" fill="#1895FF"/>
<path fill-rule="evenodd" clip-rule="evenodd" d="M38.845 35.8827C39.1855 35.7692 39.5537 35.9532 39.6672 36.2937L40.349 38.3379L40.3519 38.3454C40.3565 38.3568 40.3654 38.3773 40.379 38.404C40.4068 38.4586 40.4502 38.5309 40.5105 38.6011C40.6246 38.7338 40.7861 38.8493 41.0506 38.8493H42.0506C42.4096 38.8493 42.7006 39.1404 42.7006 39.4993C42.7006 39.8583 42.4096 40.1493 42.0506 40.1493H41.0506C40.3151 40.1493 39.8186 39.7904 39.5248 39.4486C39.3811 39.2815 39.2829 39.1166 39.2202 38.9933C39.1886 38.931 39.1649 38.8774 39.1484 38.8368C39.1401 38.8164 39.1334 38.7992 39.1284 38.7855L39.122 38.7678L39.1197 38.761L39.1187 38.7582L39.1183 38.7569L39.1181 38.7563C39.1181 38.7562 39.118 38.7561 39.1503 38.7452L39.118 38.756L38.434 36.705C38.3204 36.3644 38.5044 35.9963 38.845 35.8827Z" fill="#1895FF"/>
<path fill-rule="evenodd" clip-rule="evenodd" d="M43.2151 35.8827C43.5557 35.7692 43.9238 35.9532 44.0374 36.2937L44.7191 38.3379L44.7221 38.3454C44.7267 38.3568 44.7356 38.3773 44.7491 38.404C44.7769 38.4586 44.8203 38.5309 44.8806 38.6011C44.9948 38.7338 45.1563 38.8493 45.4208 38.8493H46.4208C46.7797 38.8493 47.0708 39.1404 47.0708 39.4993C47.0708 39.8583 46.7797 40.1493 46.4208 40.1493H45.4208C44.6853 40.1493 44.1888 39.7904 43.8949 39.4486C43.7512 39.2815 43.6531 39.1166 43.5904 38.9933C43.5587 38.931 43.5351 38.8774 43.5185 38.8368C43.5102 38.8164 43.5036 38.7992 43.4986 38.7855L43.4922 38.7678L43.4899 38.761L43.4889 38.7582L43.4885 38.7569L43.4883 38.7563C43.4882 38.7562 43.4882 38.7561 43.5205 38.7452L43.4882 38.756L42.8042 36.705C42.6906 36.3644 42.8746 35.9963 43.2151 35.8827Z" fill="#1895FF"/>
<path fill-rule="evenodd" clip-rule="evenodd" d="M47.5851 35.8827C47.9256 35.7692 48.2938 35.9532 48.4074 36.2937L49.0891 38.3379L49.092 38.3454C49.0967 38.3568 49.1055 38.3773 49.1191 38.404C49.1469 38.4586 49.1903 38.5309 49.2506 38.6011C49.3647 38.7338 49.5262 38.8493 49.7907 38.8493H50.7907C51.1497 38.8493 51.4407 39.1404 51.4407 39.4993C51.4407 39.8583 51.1497 40.1493 50.7907 40.1493H49.7907C49.0552 40.1493 48.5587 39.7904 48.2649 39.4486C48.1212 39.2815 48.0231 39.1166 47.9604 38.9933C47.9287 38.931 47.9051 38.8774 47.8885 38.8368C47.8802 38.8164 47.8736 38.7992 47.8685 38.7855L47.8622 38.7678L47.8598 38.761L47.8589 38.7582L47.8584 38.7569L47.8582 38.7563C47.8582 38.7562 47.8582 38.7561 47.8904 38.7452L47.8581 38.756L47.1741 36.705C47.0606 36.3644 47.2446 35.9963 47.5851 35.8827Z" fill="#1895FF"/>
<path fill-rule="evenodd" clip-rule="evenodd" d="M51.9552 35.8827C52.2957 35.7692 52.6639 35.9532 52.7774 36.2937L53.4592 38.3379L53.4621 38.3454C53.4668 38.3568 53.4756 38.3773 53.4892 38.404C53.517 38.4586 53.5604 38.5309 53.6207 38.6011C53.7348 38.7338 53.8963 38.8493 54.1608 38.8493H55.1608C55.5198 38.8493 55.8108 39.1404 55.8108 39.4993C55.8108 39.8583 55.5198 40.1493 55.1608 40.1493H54.1608C53.4253 40.1493 52.9288 39.7904 52.635 39.4486C52.4913 39.2815 52.3932 39.1166 52.3305 38.9933C52.2988 38.931 52.2752 38.8774 52.2586 38.8368C52.2503 38.8164 52.2437 38.7992 52.2386 38.7855L52.2323 38.7678L52.2299 38.761L52.229 38.7582L52.2285 38.7569L52.2283 38.7563C52.2283 38.7562 52.2282 38.7561 52.2605 38.7452L52.2282 38.756L51.5442 36.705C51.4307 36.3644 51.6147 35.9963 51.9552 35.8827Z" fill="#1895FF"/>
<path fill-rule="evenodd" clip-rule="evenodd" d="M56.3253 35.8827C56.6658 35.7692 57.0339 35.9532 57.1475 36.2937L57.8292 38.3379L57.8322 38.3454C57.8368 38.3568 57.8457 38.3773 57.8593 38.404C57.8871 38.4586 57.9305 38.5309 57.9907 38.6011C58.1049 38.7338 58.2664 38.8493 58.5309 38.8493H59.5309C59.8899 38.8493 60.1809 39.1404 60.1809 39.4993C60.1809 39.8583 59.8899 40.1493 59.5309 40.1493H58.5309C57.7954 40.1493 57.2989 39.7904 57.005 39.4486C56.8613 39.2815 56.7632 39.1166 56.7005 38.9933C56.6688 38.931 56.6452 38.8774 56.6286 38.8368C56.6203 38.8164 56.6137 38.7992 56.6087 38.7855L56.6023 38.7678L56.6 38.761L56.599 38.7582L56.5986 38.7569L56.5984 38.7563C56.5983 38.7562 56.5983 38.7561 56.6306 38.7452L56.5983 38.756L55.9143 36.705C55.8007 36.3644 55.9847 35.9963 56.3253 35.8827Z" fill="#1895FF"/>
<path fill-rule="evenodd" clip-rule="evenodd" d="M60.6953 35.8827C61.0358 35.7692 61.4039 35.9532 61.5175 36.2937L62.1992 38.3379L62.2022 38.3454C62.2068 38.3568 62.2157 38.3773 62.2293 38.404C62.2571 38.4586 62.3005 38.5309 62.3608 38.6011C62.4749 38.7338 62.6364 38.8493 62.9009 38.8493H63.9009C64.2599 38.8493 64.5509 39.1404 64.5509 39.4993C64.5509 39.8583 64.2599 40.1493 63.9009 40.1493H62.9009C62.1654 40.1493 61.6689 39.7904 61.375 39.4486C61.2313 39.2815 61.1332 39.1166 61.0705 38.9933C61.0388 38.931 61.0152 38.8774 60.9987 38.8368C60.9903 38.8164 60.9837 38.7992 60.9787 38.7855L60.9723 38.7678L60.97 38.761L60.969 38.7582L60.9686 38.7569L60.9684 38.7563C60.9684 38.7562 60.9683 38.7561 61.0006 38.7452L60.9683 38.756L60.2843 36.705C60.1707 36.3644 60.3547 35.9963 60.6953 35.8827Z" fill="#1895FF"/>
<path fill-rule="evenodd" clip-rule="evenodd" d="M35.8923 30.9221C36.2328 30.8085 36.601 30.9925 36.7145 31.3331L37.3963 33.3772L37.3992 33.3848C37.4039 33.3961 37.4127 33.4166 37.4263 33.4433C37.4541 33.498 37.4975 33.5703 37.5578 33.6404C37.6719 33.7731 37.8334 33.8887 38.0979 33.8887H39.0979C39.4569 33.8887 39.7479 34.1797 39.7479 34.5387C39.7479 34.8977 39.4569 35.1887 39.0979 35.1887H38.0979C37.3624 35.1887 36.8659 34.8297 36.5721 34.488C36.4284 34.3208 36.3303 34.1559 36.2676 34.0326C36.2359 33.9703 36.2122 33.9167 36.1957 33.8761C36.1874 33.8558 36.1808 33.8385 36.1757 33.8249L36.1694 33.8071L36.167 33.8003L36.166 33.7975L36.1656 33.7962L36.1654 33.7956C36.1654 33.7955 36.1653 33.7954 36.1976 33.7845L36.1653 33.7953L35.4813 31.7443C35.3677 31.4038 35.5517 31.0356 35.8923 30.9221Z" fill="#1895FF"/>
<path fill-rule="evenodd" clip-rule="evenodd" d="M40.0081 30.9221C40.3487 30.8085 40.7168 30.9925 40.8304 31.3331L41.5121 33.3772L41.5151 33.3848C41.5197 33.3961 41.5286 33.4166 41.5421 33.4433C41.57 33.498 41.6133 33.5703 41.6736 33.6404C41.7878 33.7731 41.9493 33.8887 42.2138 33.8887H43.2138C43.5728 33.8887 43.8638 34.1797 43.8638 34.5387C43.8638 34.8977 43.5728 35.1887 43.2138 35.1887H42.2138C41.4783 35.1887 40.9818 34.8297 40.6879 34.488C40.5442 34.3208 40.4461 34.1559 40.3834 34.0326C40.3517 33.9703 40.3281 33.9167 40.3115 33.8761C40.3032 33.8558 40.2966 33.8385 40.2916 33.8249L40.2852 33.8071L40.2829 33.8003L40.2819 33.7975L40.2815 33.7962L40.2813 33.7956C40.2812 33.7955 40.2812 33.7954 40.3135 33.7845L40.2812 33.7953L39.5972 31.7443C39.4836 31.4038 39.6676 31.0356 40.0081 30.9221Z" fill="#1895FF"/>
<path fill-rule="evenodd" clip-rule="evenodd" d="M44.124 30.9221C44.4646 30.8085 44.8327 30.9925 44.9463 31.3331L45.628 33.3772L45.631 33.3848C45.6356 33.3961 45.6445 33.4166 45.658 33.4433C45.6858 33.498 45.7292 33.5703 45.7895 33.6404C45.9037 33.7731 46.0652 33.8887 46.3297 33.8887H47.3297C47.6886 33.8887 47.9797 34.1797 47.9797 34.5387C47.9797 34.8977 47.6886 35.1887 47.3297 35.1887H46.3297C45.5942 35.1887 45.0977 34.8297 44.8038 34.488C44.6601 34.3208 44.562 34.1559 44.4993 34.0326C44.4676 33.9703 44.444 33.9167 44.4274 33.8761C44.4191 33.8558 44.4125 33.8385 44.4075 33.8249L44.4011 33.8071L44.3988 33.8003L44.3978 33.7975L44.3974 33.7962L44.3972 33.7956C44.3971 33.7955 44.3971 33.7954 44.4294 33.7845L44.3971 33.7953L43.7131 31.7443C43.5995 31.4038 43.7835 31.0356 44.124 30.9221Z" fill="#1895FF"/>
<path fill-rule="evenodd" clip-rule="evenodd" d="M48.2399 30.9221C48.5805 30.8085 48.9486 30.9925 49.0622 31.3331L49.7439 33.3772L49.7469 33.3848C49.7515 33.3961 49.7604 33.4166 49.7739 33.4433C49.8017 33.498 49.8451 33.5703 49.9054 33.6404C50.0195 33.7731 50.1811 33.8887 50.4455 33.8887H51.4455C51.8045 33.8887 52.0955 34.1797 52.0955 34.5387C52.0955 34.8977 51.8045 35.1887 51.4455 35.1887H50.4455C49.71 35.1887 49.2136 34.8297 48.9197 34.488C48.776 34.3208 48.6779 34.1559 48.6152 34.0326C48.5835 33.9703 48.5599 33.9167 48.5433 33.8761C48.535 33.8558 48.5284 33.8385 48.5234 33.8249L48.517 33.8071L48.5146 33.8003L48.5137 33.7975L48.5132 33.7962L48.513 33.7956C48.513 33.7955 48.513 33.7954 48.5453 33.7845L48.5129 33.7953L47.8289 31.7443C47.7154 31.4038 47.8994 31.0356 48.2399 30.9221Z" fill="#1895FF"/>
<path fill-rule="evenodd" clip-rule="evenodd" d="M52.3557 30.9221C52.6963 30.8085 53.0644 30.9925 53.178 31.3331L53.8597 33.3772L53.8627 33.3848C53.8673 33.3961 53.8761 33.4166 53.8897 33.4433C53.9175 33.498 53.9609 33.5703 54.0212 33.6404C54.1353 33.7731 54.2968 33.8887 54.5613 33.8887H55.5613C55.9203 33.8887 56.2113 34.1797 56.2113 34.5387C56.2113 34.8977 55.9203 35.1887 55.5613 35.1887H54.5613C53.8258 35.1887 53.3293 34.8297 53.0355 34.488C52.8918 34.3208 52.7937 34.1559 52.731 34.0326C52.6993 33.9703 52.6757 33.9167 52.6591 33.8761C52.6508 33.8558 52.6442 33.8385 52.6392 33.8249L52.6328 33.8071L52.6304 33.8003L52.6295 33.7975L52.629 33.7962L52.6288 33.7956C52.6288 33.7955 52.6288 33.7954 52.6611 33.7845L52.6287 33.7953L51.9447 31.7443C51.8312 31.4038 52.0152 31.0356 52.3557 30.9221Z" fill="#1895FF"/>
<path fill-rule="evenodd" clip-rule="evenodd" d="M56.4717 30.9221C56.8122 30.8085 57.1804 30.9925 57.2939 31.3331L57.9757 33.3772L57.9786 33.3848C57.9832 33.3961 57.9921 33.4166 58.0057 33.4433C58.0335 33.498 58.0769 33.5703 58.1372 33.6404C58.2513 33.7731 58.4128 33.8887 58.6773 33.8887H59.6773C60.0363 33.8887 60.3273 34.1797 60.3273 34.5387C60.3273 34.8977 60.0363 35.1887 59.6773 35.1887H58.6773C57.9418 35.1887 57.4453 34.8297 57.1515 34.488C57.0078 34.3208 56.9096 34.1559 56.847 34.0326C56.8153 33.9703 56.7916 33.9167 56.7751 33.8761C56.7668 33.8558 56.7602 33.8385 56.7551 33.8249L56.7487 33.8071L56.7464 33.8003L56.7454 33.7975L56.745 33.7962L56.7448 33.7956C56.7448 33.7955 56.7447 33.7954 56.777 33.7845L56.7447 33.7953L56.0607 31.7443C55.9471 31.4038 56.1311 31.0356 56.4717 30.9221Z" fill="#1895FF"/>
</svg>
