<svg width="96" height="96" viewBox="0 0 96 96" fill="none" xmlns="http://www.w3.org/2000/svg">
<path fill-rule="evenodd" clip-rule="evenodd" d="M50.1795 20.1502C49.5593 19.5674 48.638 18.9322 47.4559 19.0448L50.1795 20.1502ZM47.4559 19.0448C46.2748 18.9324 45.3533 19.566 44.7322 20.1494L47.4559 19.0448ZM47.4554 23.0793C46.6919 23.7959 44.0647 26.259 40.7639 29.3538C34.8784 34.872 26.8512 42.3982 23.4282 45.6115C24.5034 45.61 25.5776 45.6127 26.6504 45.6177C27.358 45.6209 28.4412 45.7257 29.2674 46.5544C30.0947 47.3843 30.1939 48.4681 30.194 49.1715M47.4554 23.0793C48.2189 23.7959 50.8461 26.2591 54.147 29.354C60.0325 34.8722 68.0596 42.3983 71.4825 45.6115C70.4074 45.61 69.3332 45.6127 68.2604 45.6177C67.5527 45.6209 66.4695 45.7257 65.6434 46.5548C64.8168 47.3844 64.7174 48.4677 64.7168 49.17V49.1715C64.7161 54.5023 64.7164 59.8337 64.7166 65.1648C64.7167 67.7323 64.7168 70.2996 64.7168 72.8668C59.8671 72.8677 35.0473 72.8677 30.1949 72.8668C30.1945 68.9744 30.1945 65.0818 30.1945 61.189V61.1662C30.1945 57.1681 30.1945 53.1695 30.194 49.1715M44.7313 20.1503C43.9889 20.847 41.3585 23.3133 38.0458 26.4192L44.7313 20.1503ZM38.0458 26.4192C31.046 32.9821 20.9999 42.4011 19.2841 44.0165L38.0458 26.4192ZM19.2841 44.0165C19.2777 44.0225 19.2709 44.0289 19.2639 44.0355C19.0646 44.2227 18.619 44.6411 18.3334 45.2186C17.9616 45.9704 17.9146 46.844 18.2862 47.7059C18.6236 48.4901 19.2065 49.0455 19.9268 49.3447C20.55 49.6035 25.8282 49.6182 26.194 49.6158M26.194 49.6158C26.1945 53.4657 26.1945 57.3159 26.1945 61.1662C26.1945 65.1644 26.1945 69.1626 26.195 73.1607M56.8642 26.4184C63.864 32.9814 73.9108 42.4011 75.6267 44.0165C75.6331 44.0225 75.6398 44.0289 75.6469 44.0355C75.8462 44.2227 76.2917 44.6411 76.5773 45.2186C76.9493 45.9707 76.9962 46.8447 76.6242 47.7069M56.8642 26.4184C53.5519 23.3129 50.9218 20.8469 50.1795 20.1502L56.8642 26.4184ZM68.7167 49.6158C68.7161 54.7984 68.7163 59.9813 68.7166 65.1643C68.7167 67.8298 68.7168 70.4952 68.7168 73.1607C68.7168 73.8167 68.6914 75.0629 67.7732 75.9612C66.8711 76.8437 65.635 76.8667 64.9723 76.8667M68.7167 49.6158C70.2739 49.6095 71.8282 49.6087 73.3809 49.6187L68.7167 49.6158ZM26.195 73.1607C26.195 73.8168 26.2206 75.0627 27.1381 75.9609L26.195 73.1607ZM27.1381 75.9609C28.0401 76.8437 29.276 76.8667 29.9385 76.8667L27.1381 75.9609ZM29.9385 76.8667C34.1721 76.8677 60.7386 76.8677 64.9723 76.8667H29.9385Z" fill="#1C3553"/>
<path fill-rule="evenodd" clip-rule="evenodd" d="M38.5003 63.5729C38.5003 63.0206 38.948 62.5729 39.5003 62.5729H43.6973C44.2496 62.5729 44.6973 63.0206 44.6973 63.5729V64.9789H47.1773C47.7295 64.9789 48.1773 65.4266 48.1773 65.9789V67.3859H50.6582C51.2105 67.3859 51.6582 67.8336 51.6582 68.3859V69.7929H54.1382C54.6905 69.7929 55.1382 70.2406 55.1382 70.7929V71.9999H58.1792C58.7315 71.9999 59.1792 72.4476 59.1792 72.9999C59.1792 73.5522 58.7315 73.9999 58.1792 73.9999H54.1382C53.5859 73.9999 53.1382 73.5522 53.1382 72.9999V71.7929H50.6582C50.106 71.7929 49.6583 71.3452 49.6583 70.7929V69.3859H47.1773C46.625 69.3859 46.1773 68.9382 46.1773 68.3859V66.9789H43.6973C43.145 66.9789 42.6973 66.5312 42.6973 65.9789V64.5729H39.5003C38.948 64.5729 38.5003 64.1252 38.5003 63.5729Z" fill="#1895FF"/>
<path fill-rule="evenodd" clip-rule="evenodd" d="M38.5003 51.573C38.5003 51.0207 38.948 50.573 39.5003 50.573H43.6973C44.2496 50.573 44.6973 51.0207 44.6973 51.573V52.979H47.1773C47.7295 52.979 48.1773 53.4267 48.1773 53.979V55.386H50.6582C51.2105 55.386 51.6582 55.8337 51.6582 56.386V57.7929H54.1382C54.6905 57.7929 55.1382 58.2407 55.1382 58.7929V59.9999H58.1792C58.7315 59.9999 59.1792 60.4476 59.1792 60.9999C59.1792 61.5522 58.7315 61.9999 58.1792 61.9999H54.1382C53.5859 61.9999 53.1382 61.5522 53.1382 60.9999V59.7929H50.6582C50.106 59.7929 49.6583 59.3452 49.6583 58.7929V57.386H47.1773C46.625 57.386 46.1773 56.9382 46.1773 56.386V54.979H43.6973C43.145 54.979 42.6973 54.5312 42.6973 53.979V52.573H39.5003C38.948 52.573 38.5003 52.1253 38.5003 51.573Z" fill="#1895FF"/>
<path fill-rule="evenodd" clip-rule="evenodd" d="M67.9997 63.165H26.9999V61.365H67.9997V63.165Z" fill="#1895FF"/>
<path fill-rule="evenodd" clip-rule="evenodd" d="M67.9997 51.4H26.9999V49.6H67.9997V51.4Z" fill="#1895FF"/>
</svg>
