<svg width="96" height="96" viewBox="0 0 96 96" fill="none" xmlns="http://www.w3.org/2000/svg">
<path fill-rule="evenodd" clip-rule="evenodd" d="M30.7028 20.1646C31.4132 19.4973 32.5182 18.7618 33.9575 19.159C35.0223 19.4528 35.6473 20.5542 35.3534 21.6189C35.1094 22.5033 34.3082 23.0843 33.4336 23.0874C32.6801 23.7946 30.0462 26.2641 26.7342 29.3694C20.8487 34.8875 12.8217 42.4135 9.39879 45.6267C10.474 45.6253 11.5481 45.6279 12.6209 45.633C13.3284 45.6361 14.412 45.7409 15.2381 46.5704C16.0649 47.4005 16.1635 48.4843 16.1635 49.1867M7.82154 47.1189C7.8215 47.1189 7.82218 47.118 7.82367 47.1162C7.82232 47.118 7.82158 47.1188 7.82154 47.1189ZM30.7019 20.1655C29.9593 20.8624 27.3275 23.3299 24.0134 26.4372C17.0137 33 6.97023 42.4166 5.25463 44.0317C5.24823 44.0377 5.24151 44.0441 5.23447 44.0507C5.03514 44.2379 4.5899 44.656 4.30423 45.233C3.93232 45.9841 3.88429 46.8576 4.25532 47.7202L4.25614 47.7221C4.59388 48.505 5.17597 49.0605 5.89687 49.3599C6.5204 49.6189 7.13482 49.6363 7.50089 49.6339C7.50074 49.6339 7.50059 49.6339 7.50044 49.6339L7.48756 47.6339L7.50089 49.6339M12.1636 49.631C12.1645 57.4789 12.1645 65.3278 12.1645 73.1759C12.1645 73.8319 12.19 75.0781 13.1082 75.9764C14.01 76.8587 15.2457 76.8819 15.9086 76.8819M32.0715 21.6229L32.0715 21.6229L32.0715 21.6229C26.6313 72.8829 18.6889 72.8829 16.1645 72.882C36.3485 73.7784 35.4531 72.8829 34.3485 72.8829C35.4531 76.8829 36.3485 75.9875 36.3485 74.8829C18.1115 76.8829 26.352 76.8829 34.3485 76.8829M16.1645 72.882C16.1645 64.9841 16.1645 57.085 16.1635 49.1869L16.1645 72.882Z" fill="#1C3553"/>
<path fill-rule="evenodd" clip-rule="evenodd" d="M33.8176 23.0908C32.943 23.0878 32.1418 22.5068 31.8978 21.6223C31.604 20.5576 32.2289 19.4562 33.2937 19.1624C34.733 18.7652 35.838 19.5007 36.5484 20.168M33.8176 23.0908C34.5711 23.798 37.2045 26.2671 40.5162 29.372C46.4017 34.8902 54.4293 42.4168 57.8524 45.6301C56.7773 45.6287 55.7031 45.6313 54.6303 45.6364C53.9228 45.6395 52.8392 45.7443 52.0131 46.5738C51.1863 47.4039 51.0877 48.4878 51.0877 49.1901M59.4297 47.1223C59.4297 47.1223 59.4289 47.1214 59.4275 47.1196C59.429 47.1214 59.4297 47.1223 59.4297 47.1223ZM61.9965 44.0351C60.2805 42.4196 50.2361 33.0021 43.2365 26.4394C39.922 23.3318 37.2902 20.8643 36.5487 20.1683M61.9966 44.0351C62.003 44.0412 62.0097 44.0475 62.0167 44.0541C62.2161 44.2413 62.6613 44.6595 62.947 45.2364C63.3189 45.9876 63.3669 46.861 62.9959 47.7236L62.9951 47.7255C62.6573 48.5085 62.0752 49.0639 61.3543 49.3633C60.7308 49.6223 60.1164 49.6397 59.7503 49.6373L59.7636 47.6416L59.7508 49.6373C59.7506 49.6373 59.7505 49.6373 59.7503 49.6373C58.1981 49.6273 56.6443 49.6281 55.0876 49.6344C55.0876 49.4865 55.0876 49.3385 55.0877 49.1906V49.1903C55.0877 49.0442 55.0986 48.9858 55.0983 48.9857C55.0982 48.9857 55.0972 48.9902 55.0949 48.9987C55.0856 49.032 55.0611 49.1031 55.0087 49.1903C55.0087 49.1904 55.0086 49.1905 55.0086 49.1906C54.9708 49.2535 54.9186 49.3248 54.8473 49.3964C54.7783 49.4656 54.7097 49.5169 54.6486 49.5545C54.6484 49.5547 54.6482 49.5548 54.648 49.555C54.5586 49.6099 54.4857 49.6355 54.4523 49.6449C54.4444 49.6471 54.4401 49.6481 54.4401 49.6482C54.4402 49.6485 54.4995 49.637 54.6483 49.6363L54.649 49.6363C54.7952 49.6356 54.9414 49.635 55.0876 49.6344C55.0867 57.4824 55.0867 65.3313 55.0867 73.1793C55.0867 73.8354 55.0612 75.0815 54.143 75.9798C53.2412 76.8621 52.0055 76.8853 51.3426 76.8853L51.3417 74.8853V76.8853C49.1397 76.8863 40.8992 76.8863 32.9027 76.8863C31.7982 76.8863 30.9027 75.9909 30.9027 74.8863C30.9027 73.7818 31.7982 72.8863 32.9027 72.8863C40.6199 72.8863 48.5623 72.8863 51.0867 72.8855C51.0867 64.9875 51.0867 57.0884 51.0877 49.1903" fill="#1C3553"/>
<path fill-rule="evenodd" clip-rule="evenodd" d="M39.1151 52.3826H42.9031C43.309 52.3826 43.6381 52.7116 43.6381 53.1176V59.9785C43.6381 60.3845 43.309 60.7135 42.9031 60.7135H39.1151C38.7092 60.7135 38.3801 60.3845 38.3801 59.9785V53.1176H39.1151V52.3826ZM39.8501 53.8526V59.2435H42.1681V53.8526H39.8501Z" fill="#1C3553"/>
<path fill-rule="evenodd" clip-rule="evenodd" d="M24.0553 52.3826H27.8432C28.2492 52.3826 28.5782 52.7116 28.5782 53.1176V59.9785C28.5782 60.3845 28.2492 60.7135 27.8432 60.7135H24.0553C23.6493 60.7135 23.3203 60.3845 23.3203 59.9785V53.1176H24.0553V52.3826ZM24.7902 53.8526V59.2435H27.1082V53.8526H24.7902Z" fill="#1C3553"/>
<path fill-rule="evenodd" clip-rule="evenodd" d="M84.5168 65.7269C83.9388 65.5589 83.3958 65.3759 82.8408 65.2449C82.1828 65.0879 81.8298 64.7019 81.6638 64.0419C81.3088 62.6369 80.8718 61.2519 80.5208 59.8469C80.3948 59.3439 80.1649 59.2419 79.6179 59.4229V60.2639V73.9518C79.6179 74.1518 79.6198 74.3528 79.6168 74.5528C79.5988 75.4988 79.1979 75.9798 78.4459 75.9628C77.7399 75.9458 77.3269 75.4428 77.3239 74.5658C77.3179 73.0118 77.3219 71.4568 77.3219 69.9028V66.0379H76.4819V66.9549C76.4819 69.4868 76.4799 72.0188 76.4819 74.5508C76.4829 75.1678 76.3519 75.7128 75.6749 75.9158C74.8519 76.1608 74.1819 75.6038 74.1729 74.6448C74.1559 73.0158 74.1669 71.3858 74.1669 69.7568V60.2059V59.4099C73.6879 59.2449 73.4759 59.3579 73.3539 59.8129C72.9449 61.3319 72.4839 62.8379 72.0589 64.3539C71.9159 64.8639 71.6639 65.2329 71.0919 65.2239C70.5409 65.2149 70.3519 64.8229 70.2199 64.3509C69.7959 62.8349 69.3319 61.3289 68.9219 59.8099C68.7979 59.3519 68.5829 59.2479 68.0759 59.4229C68.7889 62.4219 69.5009 65.4209 70.2359 68.5079H68.2979V71.1158C68.2979 72.2928 68.2999 73.4718 68.2969 74.6488C68.2959 75.5248 67.9679 75.9818 67.3449 75.9918C66.6949 76.0018 66.3449 75.5248 66.3439 74.6088C66.3409 72.8548 66.3429 71.0988 66.3429 69.3448V68.5649H65.5559V71.7908C65.5559 72.7428 65.5619 73.6948 65.5539 74.6478C65.5479 75.5248 65.2139 75.9768 64.5799 75.9908C63.9439 76.0058 63.6039 75.5578 63.6009 74.6808C63.5969 72.9258 63.5999 71.1718 63.5999 69.4168V68.5359H61.6169C62.3609 65.4399 63.0809 62.4429 63.8019 59.4399C63.2599 59.1739 63.0589 59.4079 62.9299 59.8789C62.5309 61.3239 62.1069 62.7629 61.6939 64.2039C61.6669 64.3009 61.6589 64.4039 61.6239 64.4959C61.4409 64.9949 61.1149 65.3449 60.5519 65.1969C59.9739 65.0439 59.8769 64.5609 60.0139 64.0509C60.3729 62.7239 60.7539 61.4039 61.1339 60.0819C61.2989 59.5059 61.4549 58.9249 61.6609 58.3629C62.1149 57.1239 62.9739 56.5319 64.2869 56.5249C65.3899 56.5179 66.4929 56.5179 67.5959 56.5249C68.9349 56.5329 69.8089 57.1449 70.2469 58.4349C70.5499 59.3259 70.7919 60.2389 71.2019 61.1639C71.4269 60.4169 71.6549 59.6709 71.8759 58.9229C72.4159 57.0969 73.1779 56.5239 75.0689 56.5239C76.3729 56.5229 77.6759 56.5219 78.9799 56.5239C80.5288 56.5259 81.3938 57.1459 81.8498 58.6489C82.3288 60.2269 82.7768 61.8149 83.2158 63.4039C83.3338 63.8349 83.5028 64.0959 84.0048 64.0979C85.3818 64.1029 86.7588 64.1489 88.1348 64.1689C89.4868 64.1889 90.1598 64.8459 90.1768 66.2049C90.1898 67.1819 90.1798 68.1599 90.1788 69.1378C90.1788 69.5398 90.1148 69.9388 89.6178 69.9588C89.0738 69.9828 88.9888 69.5748 88.9888 69.1369C88.9888 68.3849 89.0098 67.6319 88.9728 66.8819C88.9628 66.6929 88.7708 66.5129 88.6618 66.3289C88.5608 66.5209 88.3728 66.7119 88.3718 66.9039C88.3518 69.4098 88.3588 71.9168 88.3588 74.4238C88.3588 74.6488 88.3568 74.8748 88.3568 75.0998C88.3598 75.6678 88.1908 76.1188 87.5258 76.1038C86.9048 76.0898 86.7578 75.6578 86.7608 75.1198C86.7668 73.9168 86.7898 72.7118 86.7448 71.5108C86.7318 71.1818 87.0698 70.6508 86.4298 70.5638C86.3738 70.5548 86.1528 71.1878 86.1408 71.5278C86.1038 72.6788 86.1268 73.8328 86.1268 74.9858C86.1258 75.5508 86.0418 76.0938 85.3228 76.1028C84.6028 76.1108 84.5108 75.5938 84.5128 75.0108C84.5208 72.2038 84.5158 69.3958 84.5158 66.5879V65.7269H84.5168Z" fill="#1895FF"/>
<path fill-rule="evenodd" clip-rule="evenodd" d="M65.9203 55.9206C64.8393 55.9126 63.9563 55.0456 63.9453 53.9836C63.9343 52.9146 64.8753 51.9886 65.9633 51.9996C67.0233 52.0106 67.9243 52.9016 67.9353 53.9506C67.9463 55.0336 67.0313 55.9286 65.9203 55.9206Z" fill="#1895FF"/>
<path fill-rule="evenodd" clip-rule="evenodd" d="M78.5169 53.9463C78.5299 55.0222 77.6619 55.9042 76.5789 55.9132C75.4859 55.9222 74.6199 55.0762 74.6089 53.9893C74.5989 52.9123 75.4649 52.0193 76.5349 52.0063C77.5909 51.9923 78.5039 52.8863 78.5169 53.9463Z" fill="#1895FF"/>
<path fill-rule="evenodd" clip-rule="evenodd" d="M86.3667 63.4645C85.5947 63.4645 84.9837 62.8535 84.9957 62.0955C85.0077 61.3465 85.6597 60.7155 86.3997 60.7375C87.1197 60.7575 87.7057 61.3625 87.7147 62.0935C87.7247 62.8865 87.1567 63.4655 86.3667 63.4645Z" fill="#1895FF"/>
</svg>
