<svg width="96" height="96" viewBox="0 0 96 96" fill="none" xmlns="http://www.w3.org/2000/svg">
<path fill-rule="evenodd" clip-rule="evenodd" d="M41.3979 25.315C41.3979 24.3162 42.2076 23.5065 43.2064 23.5065H79.7664C80.7652 23.5065 81.5749 24.3162 81.5749 25.315V30.0829C81.5749 31.0817 80.7652 31.8914 79.7664 31.8914C78.7676 31.8914 77.9579 31.0817 77.9579 30.0829V27.1235H45.0149V70.421H77.9579V62.7656C77.9579 61.7668 78.7676 60.9571 79.7664 60.9571C80.7652 60.9571 81.5749 61.7668 81.5749 62.7656V72.2295C81.5749 73.2283 80.7652 74.038 79.7664 74.038H43.2064C42.2076 74.038 41.3979 73.2283 41.3979 72.2295V25.315Z" fill="#1C3553"/>
<path fill-rule="evenodd" clip-rule="evenodd" d="M50.0023 34.6028H53.6363C54.0422 34.6028 54.3713 34.9319 54.3713 35.3378V41.7428C54.3713 42.1488 54.0422 42.4778 53.6363 42.4778H50.0023C49.5964 42.4778 49.2673 42.1488 49.2673 41.7428V35.3378H50.0023V34.6028ZM50.7373 36.0728V41.0078H52.9013V36.0728H50.7373Z" fill="#1C3553"/>
<path fill-rule="evenodd" clip-rule="evenodd" d="M50.0023 48.4562H53.6363C54.0422 48.4562 54.3713 48.7853 54.3713 49.1912V55.5962C54.3713 56.0022 54.0422 56.3312 53.6363 56.3312H50.0023C49.5964 56.3312 49.2673 56.0022 49.2673 55.5962V49.1912H50.0023V48.4562ZM50.7373 49.9262V54.8612H52.9013V49.9262H50.7373Z" fill="#1C3553"/>
<path fill-rule="evenodd" clip-rule="evenodd" d="M30.4624 20.0836C29.4245 21.0485 26.266 23.9817 22.493 27.4857C16.5207 33.032 9.00867 40.0083 5.92949 42.8719C7.15025 42.8688 8.36944 42.8715 9.5868 42.8771C10.2919 42.8802 11.3313 42.9845 12.122 43.7708C12.9183 44.5626 13.0202 45.6046 13.0202 46.3058M4.16595 42.8708C4.16595 42.8708 4.16654 42.8709 4.1677 42.8711L4.16595 42.8708ZM30.4624 20.0836C31.5177 21.0622 32.8188 22.2566 33.8767 23.225C34.4381 23.7389 34.9317 24.19 35.2851 24.5126L35.8514 25.0292C36.6127 25.723 37.7929 25.6688 38.4867 24.9075C39.1805 24.1462 39.1257 22.9666 38.3644 22.2728L37.8 21.7579C37.4476 21.4362 36.9552 20.9863 36.3954 20.4738C35.275 19.4481 33.8879 18.1747 32.8126 17.176C32.3241 16.7222 31.5202 16.0866 30.416 16.1077C29.3406 16.1283 28.5529 16.7662 28.0698 17.215C27.2227 18.0028 23.9394 21.052 19.9736 24.735C12.9816 31.2283 3.86588 39.6939 2.22823 41.2212C2.22199 41.227 2.21515 41.2334 2.20837 41.2397C2.00695 41.4272 1.57227 41.832 1.29441 42.388C0.933909 43.1094 0.887248 43.9489 1.24916 44.7804C1.57836 45.5358 2.14157 46.0636 2.82991 46.3469C3.4285 46.5932 4.02172 46.6114 4.38746 46.609C6.01984 46.5977 7.65375 46.5989 9.29023 46.6058C9.29119 54.5487 9.29119 62.4907 9.29119 70.4338C9.29119 71.0986 9.32198 72.2959 10.2058 73.1524C11.0678 73.9879 12.2529 74.0153 12.9269 74.0158C15.8491 74.0163 21.9925 74.0163 27.4042 74.0162L37.4964 74.0158C37.4966 74.0158 37.4973 74.0158 37.4972 72.1508L37.4964 74.0158C38.5264 74.0157 39.3622 73.1807 39.3622 72.1507C39.3621 71.1207 38.5271 70.2857 37.4971 70.2858L37.4972 72.147C37.4971 70.2858 37.4972 70.2858 37.4971 70.2858L27.4042 70.2862C22.0489 70.2863 15.9786 70.2863 13.0212 70.2858C13.0212 62.2923 13.0212 54.2995 13.0202 46.3058" fill="#1C3553"/>
<path fill-rule="evenodd" clip-rule="evenodd" d="M18.147 47.6839C18.147 47.278 18.4761 46.9489 18.882 46.9489H22.661C23.0669 46.9489 23.396 47.278 23.396 47.6839V54.3089C23.396 54.7148 23.0669 55.0439 22.661 55.0439H18.882C18.4761 55.0439 18.147 54.7148 18.147 54.3089V47.6839ZM19.617 48.4189V53.5739H21.926V48.4189H19.617Z" fill="#1C3553"/>
<path fill-rule="evenodd" clip-rule="evenodd" d="M31.9315 47.6834C31.9315 47.2775 32.2606 46.9484 32.6665 46.9484H35.0025C35.4084 46.9484 35.7375 47.2775 35.7375 47.6834C35.7375 48.0894 35.4084 48.4184 35.0025 48.4184H33.4015V53.5734H35.0025C35.4084 53.5734 35.7375 53.9025 35.7375 54.3084C35.7375 54.7144 35.4084 55.0434 35.0025 55.0434H32.6665C32.2606 55.0434 31.9315 54.7144 31.9315 54.3084V47.6834Z" fill="#1C3553"/>
<path fill-rule="evenodd" clip-rule="evenodd" d="M81.822 20.1181C81.822 19.3171 81.198 18.6681 80.427 18.6681H51.867C51.905 17.3681 51.912 17.3621 51.871 16.0631C51.856 15.5661 51.3 15.1931 50.539 15.0561C50.532 15.0551 50.526 15.0551 50.519 15.0541C50.46 15.0431 50.401 15.0341 50.341 15.0281C50.337 15.0271 50.334 15.0271 50.33 15.0261C50.264 15.0181 50.2 15.0131 50.132 15.0081H50.126C50.065 15.0041 50.002 15.0021 49.94 15.0021C49.931 15.0011 49.922 15.0011 49.912 15.0001C49.9 15.0001 49.889 15.0011 49.877 15.0011C49.858 15.0011 49.839 15.0001 49.818 15.0001C49.803 15.0011 49.789 15.0021 49.773 15.0031C48.678 15.0261 47.894 15.4851 47.864 16.1691C47.835 16.8471 47.85 18.0831 47.859 18.6681H42.546C41.776 18.6681 41.151 19.3171 41.151 20.1181C41.151 20.9191 41.776 21.5681 42.546 21.5681H80.427C81.198 21.5681 81.822 20.9191 81.822 20.1181Z" fill="#1C3553"/>
<path fill-rule="evenodd" clip-rule="evenodd" d="M11.8002 29.4373C11.8002 29.4373 11.7882 25.1403 11.7922 21.9713C11.7942 21.1143 12.1402 20.7733 13.0122 20.7693C14.3172 20.7613 15.6212 20.7603 16.9262 20.7693C17.7812 20.7753 18.1322 21.1363 18.1392 21.9923C18.1442 22.7283 18.1232 22.6903 18.1472 23.4253L11.8002 29.4373Z" fill="#1C3553"/>
<path fill-rule="evenodd" clip-rule="evenodd" d="M68.0357 31.8443C75.5277 30.2515 82.892 35.0343 84.4847 42.526L84.4848 42.5262C86.0763 50.0169 81.2948 57.3812 73.8029 58.9739C66.311 60.5666 58.9466 55.784 57.3549 48.2922M68.7409 35.1611C63.0816 36.3644 59.4685 41.9281 60.6717 47.5869L60.6718 47.5872C61.8742 53.247 67.4377 56.8603 73.0977 55.657C78.7577 54.4538 82.3701 48.8902 81.1679 43.2312M68.7409 35.1611C74.4008 33.9579 79.9644 37.571 81.1678 43.231L68.7409 35.1611ZM68.0357 31.8443L68.0357 31.8443L68.0357 31.8443ZM68.0357 31.8443C60.545 33.4369 55.7622 40.8009 57.3548 48.2919L68.0357 31.8443Z" fill="#1895FF"/>
<path fill-rule="evenodd" clip-rule="evenodd" d="M94.2584 64.3304C94.1604 64.2424 86.5064 57.2615 83.2884 54.3265L83.2784 54.2915C83.2784 54.2915 82.3534 53.4595 81.0554 52.2785C80.2754 53.4095 79.2444 54.3395 78.1804 55.2495C80.2814 57.1665 82.5384 59.2254 83.9464 60.5094L83.9564 60.5444C83.9564 60.5444 91.2424 67.1804 91.3664 67.2914C92.2124 68.0473 93.5454 67.9983 94.3444 67.1804C95.1434 66.3624 95.1044 65.0864 94.2584 64.3304Z" fill="#1895FF"/>
<path fill-rule="evenodd" clip-rule="evenodd" d="M94.2584 64.3304C94.1604 64.2424 86.5064 57.2615 83.2884 54.3265L83.2784 54.2915C83.2784 54.2915 82.3534 53.4595 81.0554 52.2785C80.2754 53.4095 79.2444 54.3395 78.1804 55.2495C80.2814 57.1665 82.5384 59.2254 83.9464 60.5094L83.9564 60.5444C83.9564 60.5444 91.2424 67.1804 91.3664 67.2914C92.2124 68.0473 93.5454 67.9983 94.3444 67.1804C95.1434 66.3624 95.1044 65.0864 94.2584 64.3304Z" fill="#1895FF"/>
<path fill-rule="evenodd" clip-rule="evenodd" d="M80.9377 51.2542C81.2333 51.2203 81.5291 51.3157 81.7492 51.5159C82.3972 52.1055 82.9521 52.6079 83.3449 52.963C83.5413 53.1404 83.6972 53.2811 83.8039 53.3772L83.9672 53.5244C84.0186 53.5705 84.0655 53.6221 84.1063 53.677L94.9212 63.5396C94.9402 63.5569 94.9473 63.5634 94.9472 63.5633L94.2585 64.3303L94.9454 63.5616C96.2347 64.7138 96.2863 66.6678 95.0819 67.9008C93.9017 69.1091 91.9412 69.1877 90.6794 68.0601C90.613 68.0007 88.7537 66.3077 86.9207 64.6385L83.2625 61.307C83.2624 61.3069 83.2622 61.3067 83.9564 60.5444L83.2625 61.307C83.2131 61.2619 83.168 61.2121 83.1285 61.1589C81.7143 59.8692 79.5263 57.8731 77.4855 56.0111C77.2671 55.8119 77.1448 55.5285 77.1495 55.2329C77.1543 54.9374 77.2856 54.6581 77.5103 54.4659C78.5729 53.5572 79.5104 52.7028 80.2067 51.6932C80.3756 51.4482 80.6421 51.2882 80.9377 51.2542ZM92.0473 66.5171L84.7739 59.8945L92.0473 66.5171ZM84.7739 59.8945C84.7346 59.8416 84.6902 59.7924 84.6411 59.7476C83.4221 58.636 81.5667 56.9434 79.727 55.265C80.2305 54.8084 80.7278 54.322 81.186 53.79C81.4855 54.0615 81.7479 54.299 81.9624 54.4928C82.1595 54.6709 82.316 54.8121 82.4233 54.9088L82.4637 54.9453C82.5023 54.9967 82.5457 55.0446 82.5936 55.0882L83.3375 55.7667C86.8528 58.9728 93.4748 65.0124 93.5696 65.0975L93.5714 65.0992C93.974 65.459 94.0005 66.0569 93.6068 66.4599C93.1892 66.8875 92.4841 66.907 92.0538 66.523" fill="#1895FF"/>
</svg>
