<svg width="96" height="96" viewBox="0 0 96 96" fill="none" xmlns="http://www.w3.org/2000/svg">
<path fill-rule="evenodd" clip-rule="evenodd" d="M30.7028 20.1645C31.4132 19.4972 32.5182 18.7617 33.9575 19.1589C35.0223 19.4527 35.6473 20.554 35.3534 21.6188C35.1094 22.5032 34.3082 23.0842 33.4336 23.0873C32.6801 23.7945 30.0462 26.264 26.7342 29.3693C20.8487 34.8874 12.8217 42.4134 9.39879 45.6266C10.474 45.6251 11.5481 45.6278 12.6209 45.6328C13.3284 45.636 14.412 45.7407 15.2381 46.5702C16.0649 47.4004 16.1635 48.4842 16.1635 49.1866M7.82154 47.1187C7.8215 47.1188 7.82218 47.1179 7.82367 47.1161C7.82232 47.1178 7.82158 47.1187 7.82154 47.1187ZM30.7019 20.1654C29.9593 20.8623 27.3275 23.3298 24.0134 26.4371C17.0137 32.9999 6.97023 42.4165 5.25463 44.0316C5.24823 44.0376 5.24151 44.0439 5.23447 44.0505C5.03514 44.2378 4.5899 44.6559 4.30423 45.2329C3.93232 45.984 3.88429 46.8575 4.25532 47.7201L4.25614 47.722C4.59388 48.5049 5.17597 49.0604 5.89687 49.3598C6.5204 49.6188 7.13482 49.6362 7.50089 49.6338C7.50074 49.6338 7.50059 49.6338 7.50044 49.6338L7.48756 47.6338L7.50089 49.6338M12.1636 49.6309C12.1645 57.4788 12.1645 65.3277 12.1645 73.1758C12.1645 73.8318 12.19 75.078 13.1082 75.9763C14.01 76.8586 15.2457 76.8818 15.9086 76.8818M32.0715 21.6228L32.0715 21.6228L32.0715 21.6228C26.6313 72.8828 18.6889 72.8828 16.1645 72.8819C36.3485 73.7782 35.4531 72.8828 34.3485 72.8828C35.4531 76.8828 36.3485 75.9874 36.3485 74.8828C18.1115 76.8828 26.352 76.8828 34.3485 76.8828M16.1645 72.8819C16.1645 64.984 16.1645 57.0849 16.1635 49.1868L16.1645 72.8819Z" fill="#1C3553"/>
<path fill-rule="evenodd" clip-rule="evenodd" d="M33.8176 23.0907C32.943 23.0876 32.1419 22.5066 31.8978 21.6222C31.604 20.5575 32.229 19.4561 33.2937 19.1623C34.733 18.7651 35.838 19.5006 36.5484 20.1679M33.8176 23.0907C34.5711 23.7978 37.2046 26.2669 40.5162 29.3719C46.4018 34.8901 54.4294 42.4166 57.8524 45.63C56.7773 45.6286 55.7031 45.6312 54.6303 45.6362C53.9229 45.6394 52.8392 45.7441 52.0131 46.5737C51.1864 47.4038 51.0877 48.4876 51.0877 49.19M59.4297 47.1222C59.4297 47.1222 59.4289 47.1213 59.4276 47.1195C59.429 47.1213 59.4297 47.1221 59.4297 47.1222ZM61.9965 44.0349C60.2805 42.4195 50.2362 33.002 43.2365 26.4392C39.922 23.3317 37.2903 20.8641 36.5487 20.1682M61.9966 44.035C62.003 44.041 62.0097 44.0474 62.0168 44.054C62.2161 44.2412 62.6613 44.6593 62.947 45.2363C63.3189 45.9874 63.367 46.8609 62.9959 47.7235L62.9951 47.7254C62.6574 48.5083 62.0753 49.0638 61.3544 49.3632C60.7308 49.6222 60.1164 49.6396 59.7503 49.6372L59.7637 47.6414L59.7508 49.6372C59.7506 49.6372 59.7505 49.6372 59.7503 49.6372C58.1981 49.6272 56.6443 49.628 55.0876 49.6343C55.0877 49.4863 55.0877 49.3384 55.0877 49.1905V49.1902C55.0877 49.044 55.0987 48.9857 55.0983 48.9856C55.0982 48.9856 55.0973 48.9901 55.0949 48.9985C55.0857 49.0319 55.0611 49.103 55.0088 49.1902C55.0087 49.1903 55.0087 49.1904 55.0086 49.1905C54.9708 49.2534 54.9186 49.3247 54.8473 49.3963C54.7784 49.4655 54.7097 49.5168 54.6487 49.5544C54.6484 49.5546 54.6482 49.5547 54.648 49.5548C54.5586 49.6098 54.4857 49.6354 54.4523 49.6448C54.4444 49.647 54.4401 49.648 54.4401 49.648C54.4402 49.6484 54.4995 49.6368 54.6483 49.6362L54.6491 49.6362C54.7953 49.6355 54.9415 49.6349 55.0876 49.6343C55.0867 57.4822 55.0867 65.3311 55.0867 73.1792C55.0867 73.8352 55.0613 75.0814 54.1431 75.9797C53.2412 76.862 52.0055 76.8852 51.3426 76.8852L51.3417 74.8852V76.8852C49.1397 76.8862 40.8992 76.8862 32.9027 76.8862C31.7982 76.8862 30.9028 75.9908 30.9028 74.8862C30.9028 73.7817 31.7982 72.8862 32.9027 72.8862C40.62 72.8862 48.5623 72.8862 51.0867 72.8853C51.0867 64.9874 51.0867 57.0883 51.0877 49.1902" fill="#1C3553"/>
<path fill-rule="evenodd" clip-rule="evenodd" d="M39.1151 52.3824H42.9031C43.309 52.3824 43.6381 52.7115 43.6381 53.1174V59.9784C43.6381 60.3843 43.309 60.7134 42.9031 60.7134H39.1151C38.7092 60.7134 38.3801 60.3843 38.3801 59.9784V53.1174H39.1151V52.3824ZM39.8501 53.8524V59.2434H42.1681V53.8524H39.8501Z" fill="#1C3553"/>
<path fill-rule="evenodd" clip-rule="evenodd" d="M24.0553 52.3824H27.8432C28.2492 52.3824 28.5782 52.7115 28.5782 53.1174V59.9784C28.5782 60.3843 28.2492 60.7134 27.8432 60.7134H24.0553C23.6493 60.7134 23.3203 60.3843 23.3203 59.9784V53.1174H24.0553V52.3824ZM24.7902 53.8524V59.2434H27.1082V53.8524H24.7902Z" fill="#1C3553"/>
<path fill-rule="evenodd" clip-rule="evenodd" d="M84.5168 65.7271C83.9388 65.5591 83.3958 65.3761 82.8408 65.2451C82.1828 65.0881 81.8298 64.7021 81.6638 64.0421C81.3088 62.6371 80.8718 61.2521 80.5208 59.8471C80.3948 59.3441 80.1649 59.2421 79.6179 59.4231V60.2641V73.9521C79.6179 74.1521 79.6198 74.3531 79.6168 74.5531C79.5988 75.4991 79.1979 75.9801 78.4459 75.9631C77.7399 75.9461 77.3269 75.4431 77.3239 74.5661C77.3179 73.0121 77.3219 71.4571 77.3219 69.9031V66.0381H76.4819V66.9551C76.4819 69.4871 76.4799 72.0191 76.4819 74.5511C76.4829 75.1681 76.3519 75.7131 75.6749 75.9161C74.8519 76.1611 74.1819 75.6041 74.1729 74.6451C74.1559 73.0161 74.1669 71.3861 74.1669 69.7571V60.2061V59.4101C73.6879 59.2451 73.4759 59.3581 73.3539 59.8131C72.9449 61.3321 72.4839 62.8381 72.0589 64.3541C71.9159 64.8641 71.6639 65.2331 71.0919 65.2241C70.5409 65.2151 70.3519 64.8231 70.2199 64.3511C69.7959 62.8351 69.3319 61.3291 68.9219 59.8101C68.7979 59.3521 68.5829 59.2481 68.0759 59.4231C68.7889 62.4221 69.5009 65.4211 70.2359 68.5081H68.2979V71.1161C68.2979 72.2931 68.2999 73.4721 68.2969 74.6491C68.2959 75.5251 67.9679 75.9821 67.3449 75.9921C66.6949 76.0021 66.3449 75.5251 66.3439 74.6091C66.3409 72.8551 66.3429 71.0991 66.3429 69.3451V68.5651H65.5559V71.7911C65.5559 72.7431 65.5619 73.6951 65.5539 74.6481C65.5479 75.5251 65.2139 75.9771 64.5799 75.9911C63.9439 76.0061 63.6039 75.5581 63.6009 74.6811C63.5969 72.9261 63.5999 71.1721 63.5999 69.4171V68.5361H61.6169C62.3609 65.4401 63.0809 62.4431 63.8019 59.4401C63.2599 59.1741 63.0589 59.4081 62.9299 59.8791C62.5309 61.3241 62.1069 62.7631 61.6939 64.2041C61.6669 64.3011 61.6589 64.4041 61.6239 64.4961C61.4409 64.9951 61.1149 65.3451 60.5519 65.1971C59.9739 65.0441 59.8769 64.5611 60.0139 64.0511C60.3729 62.7241 60.7539 61.4041 61.1339 60.0821C61.2989 59.5061 61.4549 58.9251 61.6609 58.3631C62.1149 57.1241 62.9739 56.5321 64.2869 56.5251C65.3899 56.5181 66.4929 56.5181 67.5959 56.5251C68.9349 56.5331 69.8089 57.1451 70.2469 58.4351C70.5499 59.3261 70.7919 60.2391 71.2019 61.1641C71.4269 60.4171 71.6549 59.6711 71.8759 58.9231C72.4159 57.0971 73.1779 56.5241 75.0689 56.5241C76.3729 56.5231 77.6759 56.5221 78.9799 56.5241C80.5288 56.5261 81.3938 57.1461 81.8498 58.6491C82.3288 60.2271 82.7768 61.8151 83.2158 63.4041C83.3338 63.8351 83.5028 64.0961 84.0048 64.0981C85.3818 64.1031 86.7588 64.1491 88.1348 64.1691C89.4868 64.1891 90.1598 64.8461 90.1768 66.2051C90.1898 67.1821 90.1798 68.1601 90.1788 69.1381C90.1788 69.5401 90.1148 69.9391 89.6178 69.9591C89.0738 69.9831 88.9888 69.5751 88.9888 69.1371C88.9888 68.3851 89.0098 67.6321 88.9728 66.8821C88.9628 66.6931 88.7708 66.5131 88.6618 66.3291C88.5608 66.5211 88.3728 66.7121 88.3718 66.9041C88.3518 69.4101 88.3588 71.9171 88.3588 74.4241C88.3588 74.6491 88.3568 74.8751 88.3568 75.1001C88.3598 75.6681 88.1908 76.1191 87.5258 76.1041C86.9048 76.0901 86.7578 75.6581 86.7608 75.1201C86.7668 73.9171 86.7898 72.7121 86.7448 71.5111C86.7318 71.1821 87.0698 70.6511 86.4298 70.5641C86.3738 70.5551 86.1528 71.1881 86.1408 71.5281C86.1038 72.6791 86.1268 73.8331 86.1268 74.9861C86.1258 75.5511 86.0418 76.0941 85.3228 76.1031C84.6028 76.1111 84.5108 75.5941 84.5128 75.0111C84.5208 72.2041 84.5158 69.3961 84.5158 66.5881V65.7271H84.5168Z" fill="#1895FF"/>
<path fill-rule="evenodd" clip-rule="evenodd" d="M65.9203 55.9207C64.8393 55.9127 63.9563 55.0457 63.9453 53.9837C63.9343 52.9147 64.8753 51.9887 65.9633 51.9997C67.0233 52.0107 67.9243 52.9017 67.9353 53.9507C67.9463 55.0337 67.0313 55.9287 65.9203 55.9207Z" fill="#1895FF"/>
<path fill-rule="evenodd" clip-rule="evenodd" d="M78.5168 53.9464C78.5298 55.0224 77.6618 55.9044 76.5788 55.9134C75.4858 55.9224 74.6198 55.0764 74.6088 53.9894C74.5988 52.9124 75.4648 52.0194 76.5348 52.0064C77.5908 51.9924 78.5038 52.8864 78.5168 53.9464Z" fill="#1895FF"/>
<path fill-rule="evenodd" clip-rule="evenodd" d="M86.3667 63.4647C85.5947 63.4647 84.9837 62.8537 84.9957 62.0957C85.0077 61.3467 85.6597 60.7157 86.3997 60.7377C87.1197 60.7577 87.7057 61.3627 87.7147 62.0937C87.7247 62.8867 87.1567 63.4657 86.3667 63.4647Z" fill="#1895FF"/>
</svg>
