<svg width="96" height="96" viewBox="0 0 96 96" fill="none" xmlns="http://www.w3.org/2000/svg">
<path fill-rule="evenodd" clip-rule="evenodd" d="M64.9455 54.0372C64.9565 55.0992 65.8395 55.9662 66.9205 55.9742C68.0315 55.9822 68.9465 55.0872 68.9355 54.0042C68.9245 52.9552 68.0235 52.0642 66.9635 52.0532C65.8755 52.0422 64.9345 52.9682 64.9455 54.0372ZM84.979 65.6191L84.979 65.6191L84.9791 65.6191C85.156 65.673 85.3348 65.7275 85.5172 65.7805H85.5162V66.6415C85.5162 67.4215 85.5166 68.2015 85.517 68.9814V68.9815V68.9816C85.518 71.0095 85.519 73.0372 85.5132 75.0645C85.5112 75.6475 85.6032 76.1645 86.3232 76.1565C87.0422 76.1475 87.1262 75.6045 87.1272 75.0395C87.1272 74.72 87.1254 74.4004 87.1237 74.0808C87.1191 73.2471 87.1145 72.4135 87.1412 71.5815C87.1532 71.2415 87.3742 70.6085 87.4302 70.6175C87.9046 70.682 87.8416 70.9904 87.7826 71.2797C87.762 71.3807 87.7418 71.4794 87.7452 71.5645C87.7812 72.5254 87.7737 73.4889 87.7662 74.4518V74.4521V74.4524C87.7643 74.6928 87.7624 74.9332 87.7612 75.1735C87.7582 75.7115 87.9052 76.1435 88.5262 76.1575C89.1912 76.1725 89.3602 75.7215 89.3572 75.1535C89.3572 75.041 89.3577 74.9282 89.3582 74.8155C89.3587 74.7027 89.3592 74.59 89.3592 74.4775C89.3592 73.9646 89.3589 73.4518 89.3586 72.9389L89.3586 72.9291V72.929V72.929C89.3575 70.9382 89.3563 68.9475 89.3722 66.9575C89.3729 66.8266 89.4604 66.6962 89.5481 66.5657C89.5891 66.5047 89.63 66.4436 89.6622 66.3825C89.6963 66.4401 89.7386 66.4973 89.7808 66.5545L89.7808 66.5545C89.8736 66.6801 89.9663 66.8057 89.9732 66.9355C90.0004 67.4861 89.9963 68.0384 89.9922 68.5906C89.9907 68.7906 89.9892 68.9906 89.9892 69.1905C89.9892 69.6285 90.0742 70.0365 90.6182 70.0125C91.1152 69.9925 91.1792 69.5935 91.1792 69.1915C91.1795 68.9164 91.1805 68.6412 91.1815 68.3661V68.366V68.3659C91.184 67.6632 91.1866 66.9606 91.1772 66.2585C91.1602 64.8995 90.4872 64.2425 89.1352 64.2225C88.6015 64.2147 88.0677 64.2031 87.5337 64.1914L87.5336 64.1914C86.691 64.173 85.8481 64.1546 85.0052 64.1515C84.5032 64.1495 84.3342 63.8885 84.2162 63.4575C83.7772 61.8685 83.3292 60.2805 82.8502 58.7025C82.3942 57.1995 81.5292 56.5795 79.9802 56.5775C78.6765 56.5755 77.3739 56.5765 76.0702 56.5775L76.0692 56.5775C74.1782 56.5775 73.4162 57.1505 72.8762 58.9765C72.7221 59.4981 72.5646 60.0186 72.4071 60.5393C72.3387 60.7653 72.2703 60.9914 72.2022 61.2175C71.9123 60.5634 71.7063 59.9152 71.5035 59.2767L71.5034 59.2766L71.5034 59.2766C71.4194 59.0122 71.3359 58.7494 71.2472 58.4885C70.8092 57.1985 69.9352 56.5865 68.5962 56.5785C67.4932 56.5715 66.3902 56.5715 65.2872 56.5785C63.9742 56.5855 63.1152 57.1775 62.6612 58.4165C62.4878 58.8895 62.3499 59.376 62.2121 59.8617L62.2121 59.8617L62.2121 59.8618C62.1862 59.9531 62.1603 60.0444 62.1342 60.1355L62.064 60.3796C61.7074 61.62 61.3511 62.8592 61.0142 64.1045C60.8772 64.6145 60.9742 65.0975 61.5522 65.2505C62.1152 65.3985 62.4412 65.0485 62.6242 64.5495C62.6449 64.4951 62.6561 64.4369 62.6675 64.3784C62.6753 64.3379 62.6832 64.2972 62.6942 64.2575C62.819 63.822 62.9448 63.3867 63.0707 62.9514L63.0707 62.9513L63.0707 62.9513C63.3612 61.9461 63.6518 60.9408 63.9302 59.9325C64.0592 59.4615 64.2602 59.2275 64.8022 59.4935C64.0812 62.4965 63.3612 65.4935 62.6172 68.5895H64.6002V69.4705C64.6002 69.9966 64.5999 70.5226 64.5997 71.0486L64.5997 71.0499V71.05V71.0501C64.599 72.2782 64.5984 73.5061 64.6012 74.7345C64.6042 75.6115 64.9442 76.0595 65.5802 76.0445C66.2142 76.0305 66.5482 75.5785 66.5542 74.7015C66.5598 74.0344 66.5585 73.3677 66.5573 72.7013V72.7012V72.7011C66.5567 72.4155 66.5562 72.13 66.5562 71.8445V68.6185H67.3432V69.3985C67.3432 69.8996 67.343 70.4008 67.3429 70.9021C67.3425 72.1556 67.3421 73.4096 67.3442 74.6625C67.3452 75.5785 67.6952 76.0555 68.3452 76.0455C68.9682 76.0355 69.2962 75.5785 69.2972 74.7025C69.2993 73.8617 69.2989 73.0199 69.2985 72.1785V72.1783C69.2984 71.8419 69.2982 71.5056 69.2982 71.1695V68.5615H71.2362C70.7393 66.4746 70.253 64.4279 69.7697 62.3942L69.0762 59.4765C69.5832 59.3015 69.7982 59.4055 69.9222 59.8635C70.1575 60.7352 70.4105 61.6026 70.6636 62.47C70.8516 63.1142 71.0395 63.7585 71.2202 64.4045C71.3522 64.8765 71.5412 65.2685 72.0922 65.2775C72.6642 65.2865 72.9162 64.9175 73.0592 64.4075C73.2338 63.7846 73.4146 63.1633 73.5952 62.5422L73.5952 62.5421L73.5953 62.5421C73.8543 61.6516 74.1133 60.7613 74.3542 59.8665C74.4762 59.4115 74.6882 59.2985 75.1672 59.4635V60.2595V69.8105C75.1672 70.2699 75.1663 70.7294 75.1655 71.1889C75.1632 72.3588 75.161 73.5289 75.1732 74.6985C75.1822 75.6575 75.8522 76.2145 76.6752 75.9695C77.3522 75.7665 77.4832 75.2215 77.4822 74.6045C77.4809 72.9165 77.4813 71.2285 77.4818 69.5405L77.4818 69.519C77.482 68.6822 77.4822 67.8453 77.4822 67.0085V66.0915H78.3222V69.9565C78.3222 70.4004 78.3219 70.8443 78.3216 71.2883V71.2884V71.2885C78.3207 72.3989 78.3199 73.5094 78.3242 74.6195C78.3272 75.4965 78.7402 75.9995 79.4462 76.0165C80.1982 76.0335 80.5992 75.5525 80.6172 74.6065C80.6193 74.4636 80.6189 74.3202 80.6185 74.177C80.6184 74.1198 80.6182 74.0626 80.6182 74.0055V60.3175V59.4765C81.1652 59.2955 81.3952 59.3975 81.5212 59.9005C81.7006 60.6187 81.9025 61.3316 82.1044 62.0447C82.2975 62.7266 82.4907 63.4087 82.6642 64.0955C82.8302 64.7555 83.1832 65.1415 83.8412 65.2985C84.221 65.3882 84.5953 65.5022 84.9789 65.6191L84.9789 65.6191L84.979 65.6191ZM79.5171 53.9998C79.5301 55.0758 78.6621 55.9578 77.5791 55.9668C76.4861 55.9758 75.6201 55.1298 75.6091 54.0428C75.5991 52.9658 76.4651 52.0728 77.5351 52.0598C78.5911 52.0458 79.5041 52.9398 79.5171 53.9998ZM85.996 62.1491C85.984 62.9071 86.595 63.5181 87.367 63.5181C88.157 63.5191 88.725 62.9401 88.715 62.1471C88.706 61.4161 88.12 60.8111 87.4 60.7911C86.66 60.7691 86.008 61.4001 85.996 62.1491Z" fill="#1895FF"/>
<path fill-rule="evenodd" clip-rule="evenodd" d="M42.265 52.9934C42.265 52.5875 42.5941 52.2584 43 52.2584H46.788C47.1939 52.2584 47.523 52.5875 47.523 52.9934V59.8544C47.523 60.2604 47.1939 60.5894 46.788 60.5894H43C42.5941 60.5894 42.265 60.2604 42.265 59.8544V52.9934ZM43.735 53.7284V59.1194H46.053V53.7284H43.735Z" fill="#1895FF"/>
<path fill-rule="evenodd" clip-rule="evenodd" d="M39.3593 20.1857C38.6441 19.5139 37.5202 18.7629 36.0538 19.1675C34.9605 19.4692 34.3188 20.6 34.6205 21.6933C34.8691 22.5942 35.6808 23.1885 36.5705 23.2009C37.3438 23.9265 39.9642 26.3834 43.2538 29.4676C49.0836 34.9334 57.0148 42.3696 60.4914 45.633C59.4616 45.6319 58.4327 45.6346 57.4051 45.6394M62.1603 47.2098C62.1618 47.2117 62.1626 47.2127 62.1626 47.2127C62.1626 47.2127 62.1619 47.2117 62.1603 47.2098ZM39.3593 20.1857C40.1005 20.8814 42.7329 23.3494 46.0482 26.4577C53.0478 33.0204 63.0916 42.4372 64.8075 44.0526M64.8076 44.0527C64.8142 44.0589 64.8211 44.0654 64.8283 44.0722C65.0278 44.2595 65.4792 44.6834 65.7693 45.2692C66.1481 46.0343 66.1967 46.9242 65.8194 47.8013L65.8185 47.8033C65.4753 48.599 64.8829 49.1645 64.1492 49.4693C63.5157 49.7324 62.8927 49.7498 62.5248 49.7474M54.116 76.9953C54.1163 76.9953 54.1166 76.9953 54.1169 76.9953L54.116 74.9428V76.9953ZM54.116 76.9953C53.4441 76.9956 52.2269 77.0022 50.6168 77.011C47.3176 77.029 42.3686 77.056 37.0794 77.056C35.9453 77.056 35.0259 76.1366 35.0259 75.0025C35.0259 73.8683 35.9453 72.949 37.0794 72.949C42.4399 72.949 47.119 72.923 50.3579 72.905C51.8282 72.8969 53.0017 72.8904 53.8075 72.8887C53.8075 65.0085 53.8075 57.1272 53.8085 49.2469M53.8085 49.2466C53.8085 48.5408 53.9071 47.4384 54.7495 46.5926L53.8085 49.2466ZM54.7495 46.5926C55.5912 45.7474 56.6934 45.6426 57.4044 45.6394L54.7495 46.5926Z" fill="#1895FF"/>
<path fill-rule="evenodd" clip-rule="evenodd" d="M35.5 11.5C36.0523 11.5 36.5 11.9477 36.5 12.5V82.7563C36.5 83.3086 36.0523 83.7563 35.5 83.7563C34.9477 83.7563 34.5 83.3086 34.5 82.7563V12.5C34.5 11.9477 34.9477 11.5 35.5 11.5Z" fill="#1895FF"/>
<path fill-rule="evenodd" clip-rule="evenodd" d="M32.3181 20.2749C31.5423 19.4476 30.2428 19.4059 29.4156 20.1818C29.3743 20.2205 29.1125 20.4659 28.6722 20.8787C24.705 24.5982 6.24346 41.9069 3.9668 44.0502M32.3181 20.2749C33.094 21.1021 33.0523 22.4016 32.2251 23.1774L32.3181 20.2749ZM32.2251 23.1774C32.1832 23.2167 31.9187 23.4647 31.4743 23.8814L32.2251 23.1774ZM31.4743 23.8814C27.9783 27.1591 13.3452 40.8784 8.2837 45.6298L31.4743 23.8814ZM8.2837 45.6298C9.31342 45.6285 10.3421 45.6312 11.3692 45.636L8.2837 45.6298ZM14.9658 49.2445C14.9668 57.125 14.9668 65.0055 14.9668 72.8858H30.7004C30.7006 72.8858 30.7006 72.8858 30.7006 74.9393L30.7004 72.8858C31.8346 72.8858 32.7541 73.8052 32.7541 74.9393C32.7541 76.0734 31.8347 76.9928 30.7006 76.9928V74.9393C30.7006 76.9928 30.7007 76.9928 30.7006 76.9928H14.6583C13.9969 76.9928 12.7387 76.9716 11.8191 76.0716C10.8836 75.1559 10.8598 73.8877 10.8598 73.2323C10.8598 65.4017 10.8598 57.5713 10.8589 49.7408C9.32004 49.7347 7.78447 49.7341 6.25073 49.7449C5.88145 49.7474 5.25819 49.7295 4.62498 49.4663C3.89305 49.1621 3.3001 48.5978 2.95624 47.802L2.95491 47.7989C2.57762 46.9217 2.62622 46.0319 3.00502 45.2668C3.29509 44.681 3.74649 44.2571 3.94599 44.0698C3.95323 44.063 3.96024 44.0564 3.9668 44.0502" fill="#1C3553"/>
</svg>
