<svg width="96" height="96" viewBox="0 0 96 96" fill="none" xmlns="http://www.w3.org/2000/svg">
<path fill-rule="evenodd" clip-rule="evenodd" d="M16.8863 72.5409L16.9033 72.4509V72.065V71.838C17.5363 71.89 18.2473 71.923 19.0713 71.923C21.8983 71.923 23.5263 71.57 24.4633 71.18C24.6363 71.108 24.7793 71.036 24.9083 70.963C24.9283 70.952 24.9483 70.941 24.9663 70.93C25.0113 70.904 25.0563 70.877 25.0963 70.851C25.1273 70.877 25.1613 70.903 25.1853 70.93H25.3113V73.7259V73.7279L25.2633 73.9539C25.1083 74.3089 24.2003 75.4689 19.0713 75.4689C18.2393 75.4689 17.5283 75.4359 16.9033 75.3829V75.0999V74.2469C17.3283 74.2839 17.8073 74.3119 18.3543 74.3249L23.3463 72.245C22.2293 72.4839 20.7283 72.6319 19.0713 72.6319C18.3013 72.6319 17.5673 72.5989 16.8863 72.5409Z" fill="#1895FF"/>
<path fill-rule="evenodd" clip-rule="evenodd" d="M14.0911 67.9533H13.9671V68.0063C13.7381 67.9583 13.5081 67.9103 13.2661 67.8733C13.1301 67.8513 12.9871 67.8383 12.8481 67.8203L12.8401 67.3313L12.8371 67.1223C12.8371 67.1153 12.8321 67.1083 12.8321 67.1013C12.8321 67.0953 12.8361 67.0903 12.8361 67.0833L12.8321 66.8183H12.9571C13.0521 66.7123 13.2051 66.6103 13.3991 66.5133C13.4671 66.5473 13.5391 66.5813 13.6171 66.6143C13.7781 66.6843 13.9641 66.7523 14.1721 66.8183C14.1781 66.8203 14.1841 66.8223 14.1901 66.8243C15.1741 67.1353 16.6961 67.3853 19.0711 67.3853C21.4461 67.3853 22.9681 67.1353 23.9521 66.8243C23.9581 66.8223 23.9651 66.8203 23.9711 66.8183C24.1791 66.7523 24.3651 66.6843 24.5261 66.6143C24.6041 66.5813 24.6761 66.5473 24.7441 66.5133C24.9381 66.6103 25.0911 66.7123 25.1861 66.8183H25.3111V69.6133V69.6153L25.2641 69.8413C25.2131 69.9573 25.0781 70.1593 24.7461 70.3783C24.6761 70.4243 24.5951 70.4713 24.5061 70.5183C24.4431 70.5523 24.3781 70.5853 24.3041 70.6183C24.1311 70.6973 23.9291 70.7743 23.6901 70.8473C23.5981 70.8763 23.4951 70.9033 23.3921 70.9303C22.4701 71.1723 21.1071 71.3563 19.0711 71.3563C18.2391 71.3563 17.5281 71.3233 16.9031 71.2703V70.9883V70.9303V70.3413V70.1343C17.3281 70.1723 17.8071 70.1993 18.3541 70.2123L19.3451 69.7993H19.3471L20.2811 69.4103L23.3461 68.1323C22.2291 68.3723 20.7281 68.5193 19.0721 68.5193C17.0341 68.5193 15.2301 68.2963 14.0911 67.9533Z" fill="#1895FF"/>
<path fill-rule="evenodd" clip-rule="evenodd" d="M12.9578 62.2807C13.5358 61.6337 16.0528 61.1467 19.0718 61.1467C22.0908 61.1467 24.6078 61.6337 25.1858 62.2807H25.3118V65.0756L25.3108 65.0786L25.2638 65.3046C25.1948 65.4606 24.9818 65.7706 24.3298 66.0706C24.2198 66.1216 24.0928 66.1716 23.9558 66.2206C23.8888 66.2446 23.8178 66.2686 23.7438 66.2926C23.5008 66.3696 23.2168 66.4426 22.8908 66.5086C21.9928 66.6906 20.7658 66.8186 19.0718 66.8186C17.3758 66.8186 16.1498 66.6906 15.2518 66.5086C14.9268 66.4426 14.6428 66.3696 14.3998 66.2926C14.3258 66.2686 14.2548 66.2446 14.1878 66.2206C14.0508 66.1716 13.9238 66.1216 13.8128 66.0706C13.1618 65.7706 12.9488 65.4596 12.8798 65.3046L12.8408 62.7947L12.8368 62.5847C12.8368 62.5777 12.8328 62.5717 12.8328 62.5647C12.8328 62.5587 12.8358 62.5527 12.8368 62.5467L12.8328 62.2807H12.9578ZM18.3538 65.6756L19.3378 65.2656L23.3458 63.5956C22.2288 63.8346 20.7278 63.9826 19.0718 63.9826C17.0328 63.9826 15.2278 63.7586 14.0888 63.4157H13.9668V64.8576C14.1488 64.9936 14.6818 65.2926 15.9998 65.4916C16.6048 65.5826 17.3738 65.6526 18.3538 65.6756Z" fill="#1895FF"/>
<path fill-rule="evenodd" clip-rule="evenodd" d="M4.00047 77.8599H4.12547C4.14947 77.8329 4.18347 77.8059 4.21447 77.7799C4.25547 77.8059 4.30047 77.8329 4.34647 77.8599C4.36447 77.8709 4.38347 77.8809 4.40247 77.8919C4.53147 77.9639 4.67546 78.0369 4.84846 78.1089C5.78546 78.4989 7.41345 78.8509 10.2394 78.8509C13.0654 78.8509 14.6934 78.4979 15.6304 78.1089C15.8034 78.0369 15.9474 77.9639 16.0764 77.8919C16.0954 77.8809 16.1144 77.8709 16.1324 77.8599C16.1784 77.8329 16.2234 77.8059 16.2644 77.7799C16.2954 77.8059 16.3294 77.8329 16.3544 77.8599H16.4784V78.1419V78.1429C16.4784 78.1429 16.4784 78.1429 16.4784 78.1439V78.3729V80.6539L16.4304 80.8819C16.2754 81.2369 15.3684 82.3969 10.2394 82.3969C5.11046 82.3969 4.20347 81.2369 4.04847 80.8819L4.00847 78.3729L4.00547 78.1649C4.00447 78.1569 4.00047 78.1499 4.00047 78.1429C4.00047 78.1359 4.00447 78.1299 4.00447 78.1239L4.00047 77.8599ZM5.13446 78.9949V80.4359C5.39946 80.6349 6.40746 81.1799 9.52244 81.2539L14.5124 79.1739C13.3954 79.4129 11.8944 79.5609 10.2394 79.5609C8.20145 79.5609 6.39746 79.3379 5.25946 78.9949H5.13446Z" fill="#1895FF"/>
<path fill-rule="evenodd" clip-rule="evenodd" d="M4.00047 73.7475H4.12547C4.22047 73.6405 4.37247 73.5395 4.56747 73.4425C4.63446 73.4765 4.70746 73.5095 4.78546 73.5435C4.94646 73.6135 5.13246 73.6815 5.34046 73.7475C5.34646 73.7495 5.35246 73.7515 5.35846 73.7525C6.34246 74.0635 7.86445 74.3135 10.2394 74.3135C11.0754 74.3135 11.7964 74.2805 12.4364 74.2265C12.5734 74.2155 12.7124 74.2035 12.8414 74.1905C12.9024 74.1835 12.9644 74.1775 13.0234 74.1705C13.1374 74.1575 13.2424 74.1425 13.3494 74.1275C13.8884 74.0545 14.3524 73.9645 14.7404 73.8635C14.8764 73.8275 15.0004 73.7905 15.1204 73.7535C15.1264 73.7515 15.1324 73.7495 15.1384 73.7475C15.3464 73.6815 15.5324 73.6135 15.6944 73.5435C15.7714 73.5095 15.8444 73.4765 15.9124 73.4425C16.1064 73.5395 16.2584 73.6405 16.3534 73.7475H16.4784V74.0295V74.0305C16.4784 74.0305 16.4784 74.0305 16.4784 74.0315V74.2035V74.2605V75.0575V75.3435V75.4855V75.9125V76.1805V76.1815V76.5415L16.4304 76.7695C16.3794 76.8855 16.2454 77.0875 15.9134 77.3065C15.8434 77.3525 15.7624 77.3995 15.6734 77.4475C15.6104 77.4805 15.5444 77.5135 15.4714 77.5475C15.2984 77.6255 15.0964 77.7025 14.8574 77.7765C14.7644 77.8055 14.6594 77.8325 14.5554 77.8595C13.6334 78.1015 12.2714 78.2845 10.2394 78.2845C8.20745 78.2845 6.84645 78.1015 5.92346 77.8595C5.81946 77.8325 5.71446 77.8055 5.62046 77.7765C5.38246 77.7025 5.18046 77.6255 5.00846 77.5475C4.93446 77.5135 4.86846 77.4805 4.80546 77.4475C4.71646 77.3995 4.63646 77.3535 4.56647 77.3065C4.23347 77.0875 4.09947 76.8855 4.04847 76.7695L4.00847 74.2605L4.00547 74.0525C4.00447 74.0455 4.00047 74.0375 4.00047 74.0305C4.00047 74.0245 4.00447 74.0175 4.00447 74.0115L4.00047 73.7475ZM5.13446 74.8825V76.3235C5.25746 76.4155 5.54246 76.5835 6.12346 76.7435C6.36246 76.8095 6.65545 76.8745 7.00445 76.9315C7.06045 76.9405 7.11845 76.9495 7.17645 76.9585C7.78045 77.0485 8.54744 77.1185 9.52244 77.1415L10.5134 76.7285L10.5154 76.7275L11.4494 76.3385L13.8274 75.3475L14.4234 75.0995L14.5144 75.0615C14.4724 75.0705 14.4294 75.0795 14.3864 75.0885C14.1244 75.1405 13.8444 75.1895 13.5464 75.2315C12.5864 75.3685 11.4554 75.4485 10.2394 75.4485C8.20145 75.4485 6.39746 75.2255 5.25846 74.8825H5.13446Z" fill="#1895FF"/>
<path fill-rule="evenodd" clip-rule="evenodd" d="M12.4159 68.1653C12.5569 68.1773 12.6959 68.1903 12.8329 68.2043C12.8399 68.2053 12.8469 68.2053 12.8539 68.2063C12.9929 68.2213 13.1309 68.2363 13.2649 68.2533C13.5099 68.2843 13.7429 68.3193 13.9669 68.3573C15.1709 68.5623 16.0439 68.8623 16.3539 69.2093H16.4789V69.4923V69.4933V69.5403V69.7223V69.9253V69.9603V70.0913V70.3923V70.9303V70.9443V71.2313V71.3733V71.6423V71.6433V71.7993V72.0043L16.4659 72.0643L16.4309 72.2313C16.4039 72.2933 16.3519 72.3793 16.2619 72.4793C16.1239 72.6323 15.8929 72.8173 15.4969 72.9993C15.3869 73.0493 15.2599 73.1003 15.1229 73.1493C15.0559 73.1733 14.9849 73.1973 14.9109 73.2213C14.6679 73.2983 14.3839 73.3713 14.0589 73.4373C14.0269 73.4433 13.9989 73.4503 13.9669 73.4563C13.7509 73.4983 13.5139 73.5363 13.2589 73.5713C13.1369 73.5883 13.0069 73.6023 12.8749 73.6173C12.8599 73.6193 12.8469 73.6213 12.8329 73.6223C12.7039 73.6363 12.5679 73.6483 12.4299 73.6603C11.7999 73.7133 11.0819 73.7473 10.2399 73.7473C8.54496 73.7473 7.31796 73.6193 6.41997 73.4373C6.09497 73.3713 5.81097 73.2983 5.56797 73.2213C5.49397 73.1973 5.42397 73.1733 5.35697 73.1493C5.21997 73.1003 5.09197 73.0493 4.98197 72.9993C4.32998 72.6993 4.11698 72.3873 4.04798 72.2313L4.00898 69.7223L4.00498 69.5143C4.00498 69.5073 3.99998 69.5003 3.99998 69.4933C3.99998 69.4863 4.00398 69.4803 4.00498 69.4733L4.00098 69.2093H4.12598C4.70398 68.5623 7.22096 68.0753 10.2399 68.0753C11.0059 68.0753 11.7369 68.1073 12.4159 68.1653ZM9.52195 72.6043L10.5049 72.1943L12.4099 71.4003L12.8349 71.2233L12.8369 71.2223L13.0459 71.1353L13.3299 71.0173L13.5389 70.9303L13.8659 70.7943L14.0629 70.7123L14.4489 70.5513L14.5139 70.5243C14.4839 70.5303 14.4539 70.5363 14.4229 70.5423C14.2539 70.5773 14.0779 70.6103 13.8919 70.6413C13.8369 70.6503 13.7849 70.6603 13.7289 70.6683C13.6939 70.6743 13.6569 70.6783 13.6219 70.6833C13.4829 70.7043 13.3409 70.7243 13.1939 70.7423C13.1089 70.7523 13.0189 70.7613 12.9309 70.7703C12.8969 70.7743 12.8639 70.7783 12.8299 70.7813C12.0409 70.8633 11.1649 70.9113 10.2399 70.9113C8.19996 70.9113 6.39497 70.6873 5.25697 70.3433H5.13497V71.7853C5.31597 71.9223 5.84897 72.2213 7.16696 72.4203C7.77196 72.5113 8.54196 72.5813 9.52195 72.6043Z" fill="#1895FF"/>
<path fill-rule="evenodd" clip-rule="evenodd" d="M22.9161 76.7957C23.4931 76.1487 26.0111 75.6607 29.0301 75.6607C32.05 75.6607 34.567 76.1487 35.144 76.7957H35.269V77.0777C35.269 77.0787 35.269 77.0787 35.269 77.0787C35.269 77.0797 35.269 77.0797 35.269 77.0797V77.3087V79.2287V79.2297V79.5907L35.221 79.8187C35.066 80.1737 34.159 81.3327 29.0301 81.3327C23.9021 81.3327 22.9941 80.1747 22.8391 79.8197L22.7991 77.3087L22.7961 77.1007C22.7951 77.0937 22.7911 77.0867 22.7911 77.0787C22.7911 77.0727 22.7951 77.0667 22.7951 77.0597L22.7911 76.7957H22.9161ZM23.9261 77.9307V79.3727C24.1911 79.5717 25.1991 80.1167 28.3141 80.1897L33.305 78.1097C32.188 78.3497 30.687 78.4967 29.0301 78.4967C26.9921 78.4967 25.1871 78.2737 24.0481 77.9307H23.9261Z" fill="#1895FF"/>
<path fill-rule="evenodd" clip-rule="evenodd" d="M57.0066 44.9627H60.7946C61.4325 44.9627 61.9496 45.4798 61.9496 46.1177V52.9786C61.9496 53.6165 61.4325 54.1336 60.7946 54.1336H57.0066C56.3687 54.1336 55.8516 53.6165 55.8516 52.9786V46.1177H57.0066V44.9627ZM58.1616 47.2727V51.8236H59.6396V47.2727H58.1616Z" fill="#1895FF"/>
<path fill-rule="evenodd" clip-rule="evenodd" d="M41.9467 44.9627H45.7347C46.3726 44.9627 46.8897 45.4798 46.8897 46.1177V52.9786C46.8897 53.6165 46.3726 54.1336 45.7347 54.1336H41.9467C41.3088 54.1336 40.7917 53.6165 40.7917 52.9786V46.1177H41.9467V44.9627ZM43.1017 47.2727V51.8236H44.5797V47.2727H43.1017Z" fill="#1895FF"/>
<path fill-rule="evenodd" clip-rule="evenodd" d="M73.5188 73.3489V62.216H71.4488L67.9439 65.738L69.2958 67.157L71.1488 65.27V73.3489H73.5188ZM83.7838 73.3489V71.263H79.2438C82.1318 69.159 83.7008 67.507 83.7008 65.604C83.7008 63.384 81.8308 62.049 79.4438 62.049C77.8918 62.049 76.2398 62.616 75.1548 63.868L76.5068 65.437C77.2578 64.653 78.2258 64.152 79.4938 64.152C80.4118 64.152 81.2968 64.619 81.2968 65.604C81.2968 66.973 79.9618 68.108 75.4048 71.48V73.3489H83.7838Z" fill="#1895FF"/>
<path fill-rule="evenodd" clip-rule="evenodd" d="M61.7742 63.8115C61.7742 63.8795 61.7882 63.9505 61.8002 64.0405C61.8002 67.6555 61.7902 71.2715 61.7902 74.8875C61.7902 76.6605 62.7662 77.6445 64.5432 77.6465C68.5062 77.6505 72.4702 77.6485 76.4332 77.6465C80.3972 77.6485 84.3591 77.6505 88.3231 77.6465C90.1011 77.6445 91.0771 76.6605 91.0771 74.8875C91.0771 71.2715 91.0651 67.6555 91.0661 64.0405C91.0791 63.9505 91.0921 63.8795 91.0921 63.8115C91.0931 61.4545 91.1091 59.0985 91.0941 56.7435C91.0961 56.4145 91.0981 56.0855 91.1021 55.7585C91.1031 55.6085 91.0961 55.4605 91.0801 55.3155C91.0211 53.7065 89.8181 52.7135 88.2161 52.8475C88.0461 52.8565 87.8691 52.8745 87.6821 52.9055C87.6821 53.2225 87.6851 53.5525 87.6821 53.8805C87.6701 55.2075 86.7301 56.2105 85.4751 56.2355H85.4661H85.4301C84.1901 56.2215 83.2291 55.2155 83.2151 53.9065C83.2111 53.5625 83.2151 53.2195 83.2151 52.8755H83.1811H69.6852H69.6512C69.6512 53.2195 69.6542 53.5625 69.6512 53.9065C69.6372 55.2155 68.6762 56.2215 67.4352 56.2355H67.4002H67.3912C66.1372 56.2105 65.1962 55.2075 65.1842 53.8805C65.1812 53.5525 65.1842 53.2225 65.1842 52.9055C64.9972 52.8745 64.8202 52.8565 64.6502 52.8475C63.0482 52.7135 61.8452 53.7065 61.7862 55.3155C61.7702 55.4605 61.7632 55.6085 61.7642 55.7585C61.7672 56.0855 61.7692 56.4145 61.7722 56.7435C61.7572 59.0985 61.7732 61.4545 61.7742 63.8115ZM64.0502 60.1914C64.0502 60.0144 64.0652 59.8374 64.0752 59.6464H88.7911C88.8011 59.8374 88.8171 60.0144 88.8171 60.1914C88.8181 65.0484 88.8111 69.9054 88.8281 74.7634C88.8301 75.2784 88.6711 75.4014 88.1721 75.3994C84.2581 75.3804 80.3462 75.3874 76.4332 75.3884C72.5202 75.3874 68.6072 75.3804 64.6942 75.3994C64.1952 75.4014 64.0362 75.2784 64.0382 74.7634C64.0562 69.9054 64.0482 65.0484 64.0502 60.1914Z" fill="#1C3553"/>
<path fill-rule="evenodd" clip-rule="evenodd" d="M85.4159 55.0967C85.4209 55.0967 85.4249 55.0977 85.4289 55.0977C85.8949 55.1087 86.2469 54.8867 86.4349 54.4917C86.4379 54.4857 86.4409 54.4797 86.4439 54.4727C86.4499 54.4587 86.4559 54.4457 86.4609 54.4317C86.4919 54.3627 86.5159 54.2887 86.5329 54.2117C86.5349 54.2067 86.5359 54.2017 86.5369 54.1967C86.5409 54.1797 86.5439 54.1617 86.5459 54.1437C86.5699 54.0277 86.5839 53.9037 86.5859 53.7697C86.5919 53.0867 86.5869 52.4047 86.5869 51.7217C86.5859 51.0047 86.5979 50.2897 86.5829 49.5737C86.5659 48.8537 86.1239 48.3697 85.5059 48.3447C85.4979 48.3437 85.4889 48.3427 85.4809 48.3427C85.4699 48.3417 85.4589 48.3427 85.4479 48.3427C85.4409 48.3427 85.4349 48.3417 85.4279 48.3427C85.4229 48.3427 85.4179 48.3437 85.4119 48.3437C85.3769 48.3447 85.3429 48.3467 85.3079 48.3507C85.3059 48.3507 85.3059 48.3507 85.3039 48.3517C85.2659 48.3557 85.2289 48.3617 85.1929 48.3697C85.1909 48.3707 85.1889 48.3707 85.1869 48.3717C85.1529 48.3797 85.1189 48.3877 85.0849 48.3987C85.0829 48.3997 85.0789 48.4007 85.0759 48.4017C84.6459 48.5457 84.3319 48.9397 84.3239 49.4617C84.2989 50.9767 84.2969 52.4927 84.3279 54.0087C84.3399 54.6547 84.8209 55.0877 85.4159 55.0967Z" fill="#1C3553"/>
<path fill-rule="evenodd" clip-rule="evenodd" d="M66.3195 54.1435C66.3225 54.1615 66.3265 54.1795 66.3305 54.1975C66.3315 54.2025 66.3325 54.2075 66.3335 54.2105C66.3505 54.2885 66.3745 54.3625 66.4045 54.4315C66.4105 54.4455 66.4165 54.4595 66.4235 54.4735C66.4265 54.4785 66.4295 54.4855 66.4315 54.4915C66.6195 54.8865 66.9715 55.1085 67.4375 55.0975C67.4425 55.0975 67.4465 55.0965 67.4505 55.0965C68.0445 55.0885 68.5265 54.6545 68.5395 54.0075C68.5685 52.4925 68.5675 50.9765 68.5425 49.4625C68.5335 48.9385 68.2205 48.5455 67.7915 48.4025C67.7875 48.4015 67.7845 48.4005 67.7805 48.3995C67.7475 48.3885 67.7145 48.3785 67.6795 48.3715C67.6775 48.3705 67.6755 48.3705 67.6735 48.3695C67.6365 48.3615 67.6005 48.3565 67.5625 48.3515H67.5585C67.5245 48.3475 67.4895 48.3445 67.4535 48.3445C67.4495 48.3435 67.4445 48.3435 67.4385 48.3425C67.4315 48.3425 67.4255 48.3435 67.4185 48.3435C67.4075 48.3435 67.3975 48.3425 67.3855 48.3425C67.3765 48.3435 67.3685 48.3445 67.3595 48.3455C66.7425 48.3695 66.3005 48.8535 66.2845 49.5735C66.2675 50.2885 66.2805 51.0055 66.2805 51.7215C66.2805 52.4045 66.2735 53.0875 66.2815 53.7695C66.2835 53.9025 66.2965 54.0275 66.3195 54.1435Z" fill="#1C3553"/>
<path fill-rule="evenodd" clip-rule="evenodd" d="M51.3653 11.064C52.5467 10.9515 53.4676 11.5858 54.0875 12.1671C54.8201 12.8547 57.4002 15.2739 60.6605 18.3309C67.6647 24.8982 77.8106 34.4113 79.536 36.0357M79.536 36.0357L79.5563 36.0547C79.7556 36.2419 80.2008 36.66 80.4865 37.237C80.8584 37.9882 80.9064 38.8616 80.5354 39.7242L80.5341 39.7272C80.1962 40.5093 79.6144 41.0639 78.8947 41.3632C78.2715 41.6224 77.6574 41.6403 77.2899 41.6379C75.7381 41.627 74.1838 41.6277 72.627 41.634C72.6266 42.4225 72.6264 42.7506 72.6263 43.0787C72.6262 43.4623 72.6262 43.8458 72.6262 44.9649C72.6262 46.0695 71.7308 46.9649 70.6262 46.9649C69.5217 46.9649 68.6262 46.0695 68.6262 44.9649C68.6262 43.8451 68.6262 43.4611 68.6264 43.0772C68.6265 42.6934 68.6267 42.3096 68.6272 41.1909M51.3653 11.064C50.1844 10.9516 49.2629 11.585 48.6422 12.1671C47.9097 12.8546 45.3306 15.2728 42.0712 18.3289C35.0671 24.8962 24.9193 34.4111 23.1936 36.0357M51.3648 15.0976C52.1193 15.8056 54.6936 18.2194 57.9396 21.2629C63.8348 26.7904 71.9451 34.3949 75.3912 37.63C74.3164 37.6283 73.2427 37.631 72.1706 37.636M51.3648 15.0976C50.6104 15.8056 48.0361 18.2193 44.7903 21.2627C38.8951 26.7902 30.7846 34.3949 27.3384 37.63C28.4134 37.6283 29.4874 37.631 30.5591 37.636M23.1936 36.0357C23.1872 36.0417 23.1804 36.0481 23.1733 36.0548L23.1936 36.0357ZM23.1733 36.0548C22.974 36.2419 22.5285 36.6604 22.2429 37.2378L23.1733 36.0548ZM22.2429 37.2378C21.8711 37.9895 21.824 38.8629 22.1954 39.7247L22.2429 37.2378ZM22.1954 39.7247C22.533 40.509 23.116 41.0641 23.8359 41.3634C24.4591 41.6224 25.0733 41.6403 25.4408 41.6379C26.9918 41.627 28.5471 41.6277 30.1036 41.634C30.1044 44.8442 30.1044 48.0544 30.1044 51.2659V68.9168C30.1044 68.9169 30.1044 68.9169 32.1044 68.9169L30.1044 68.9168C30.1044 70.0214 30.9999 70.9169 32.1044 70.9169H58.0663C59.1708 70.9169 60.0663 70.0215 60.0663 68.9169C60.0663 67.8124 59.1708 66.917 58.0663 66.917H34.1044V51.2659C34.1044 47.9072 34.1044 44.5491 34.1034 41.1909M34.1034 41.1909C34.1034 40.4875 34.0041 39.4031 33.1772 38.5732L34.1034 41.1909ZM33.1772 38.5732C32.3509 37.7439 31.2667 37.6391 30.5591 37.636L33.1772 38.5732Z" fill="#1C3553"/>
</svg>
