<svg width="96" height="96" viewBox="0 0 96 96" fill="none" xmlns="http://www.w3.org/2000/svg">
<path fill-rule="evenodd" clip-rule="evenodd" d="M90.6667 65.4162C90.6667 65.4092 90.6707 65.4032 90.6707 65.3962C90.6707 65.3902 90.6677 65.3852 90.6677 65.3792L90.6707 65.1392H90.5577C90.4717 65.0432 90.3327 64.9502 90.1567 64.8632C90.0957 64.8932 90.0297 64.9242 89.9597 64.9542C89.8137 65.0172 89.6447 65.0792 89.4567 65.1392C89.4507 65.1412 89.4447 65.1432 89.4397 65.1442C88.6047 65.4082 87.3307 65.6202 85.4067 65.6462C85.2777 65.6482 85.1567 65.6532 85.0217 65.6532C85.0197 65.6532 85.0177 65.6532 85.0147 65.6532H85.0137C84.9727 65.6532 84.9367 65.6512 84.8967 65.6512C84.7897 65.6502 84.6927 65.6472 84.5897 65.6462C84.1967 65.6402 83.8267 65.6282 83.4867 65.6072C82.9787 65.5772 82.5287 65.5312 82.1287 65.4752C81.9697 65.4532 81.8197 65.4292 81.6767 65.4032C81.3567 65.3462 81.0687 65.2832 80.8207 65.2142C80.7387 65.1912 80.6647 65.1682 80.5897 65.1442C80.5847 65.1432 80.5787 65.1412 80.5737 65.1392C80.5597 65.1352 80.5437 65.1312 80.5307 65.1262C80.3587 65.0702 80.2057 65.0132 80.0707 64.9542C79.9997 64.9242 79.9347 64.8932 79.8727 64.8632C79.7047 64.9462 79.5717 65.0342 79.4857 65.1262C79.4817 65.1312 79.4757 65.1352 79.4717 65.1392H79.3587V65.2542V65.3952V65.3962C79.3587 65.3962 79.3587 65.3962 79.3587 65.3972V65.5112V65.6042V65.6402V66.0252V66.1552V66.6682V67.3452V67.3462V67.6732L79.4027 67.8792C79.4127 67.9042 79.4307 67.9352 79.4507 67.9682C79.4927 68.0352 79.5597 68.1172 79.6617 68.2082C79.7187 68.2592 79.7887 68.3122 79.8707 68.3662C79.9247 68.4022 79.9847 68.4382 80.0517 68.4752C80.0637 68.4812 80.0767 68.4872 80.0887 68.4932C80.1457 68.5242 80.2047 68.5542 80.2717 68.5842C80.4287 68.6552 80.6117 68.7252 80.8277 68.7922C80.9127 68.8182 81.0067 68.8422 81.1017 68.8672C81.1567 68.8822 81.2087 68.8962 81.2667 68.9102C81.5227 68.9712 81.8147 69.0272 82.1447 69.0752C82.2867 69.0962 82.4407 69.1142 82.5977 69.1312C82.9707 69.1732 83.3887 69.2052 83.8537 69.2252C84.2147 69.2412 84.5937 69.2532 85.0147 69.2532C86.8587 69.2532 88.0937 69.0872 88.9297 68.8672C89.0237 68.8432 89.1177 68.8182 89.2027 68.7922C89.4187 68.7252 89.6017 68.6552 89.7587 68.5842C89.8257 68.5542 89.8847 68.5242 89.9417 68.4942C90.0227 68.4512 90.0957 68.4082 90.1597 68.3672C90.4597 68.1682 90.5817 67.9852 90.6277 67.8802L90.6637 65.6042L90.6667 65.4162ZM89.6427 67.4751C89.5307 67.5591 89.2727 67.7111 88.7467 67.8561C88.5297 67.9161 88.2647 67.9741 87.9467 68.0261C87.8967 68.0341 87.8447 68.0421 87.7917 68.0501C87.2437 68.1321 86.5487 68.1951 85.6647 68.2161L85.3817 68.0981L85.0217 67.9481L84.9517 67.9191L84.7667 67.8421L84.7657 67.8411L84.6357 67.7881L83.9407 67.4981L83.9177 67.4881L81.6777 66.5551L81.1397 66.3311C81.4437 66.3961 81.7797 66.4531 82.1417 66.5021C82.7047 66.5781 83.3277 66.6321 83.9937 66.6591C84.2017 66.6681 84.4147 66.6741 84.6317 66.6771C84.7527 66.6791 84.8737 66.6811 84.9977 66.6811C85.0037 66.6811 85.0087 66.6821 85.0147 66.6821C85.0167 66.6821 85.0197 66.6811 85.0217 66.6811C85.1477 66.6811 85.2717 66.6791 85.3957 66.6771C87.0867 66.6511 88.5707 66.4581 89.5307 66.1681H89.6427V67.4751ZM90.6707 61.2823C90.6707 61.2773 90.6677 61.2713 90.6677 61.2653L90.6707 61.0263H90.5577C90.0587 60.4663 87.9547 60.0393 85.3837 60.0013C85.2637 59.9993 85.1437 59.9973 85.0217 59.9973H85.0147C85.0027 59.9973 84.9907 59.9973 84.9787 59.9973C84.8637 59.9983 84.7497 60.0003 84.6367 60.0013C83.8947 60.0133 83.1947 60.0563 82.5587 60.1263C82.3967 60.1443 82.2397 60.1633 82.0867 60.1843C81.8877 60.2123 81.6957 60.2413 81.5147 60.2743C81.2747 60.3173 81.0527 60.3643 80.8477 60.4153C80.8347 60.4183 80.8227 60.4223 80.8097 60.4253C80.4087 60.5263 80.0747 60.6423 79.8317 60.7693C79.6747 60.8513 79.5517 60.9363 79.4717 61.0263H79.3587V61.1413V61.2823V61.2833V61.3983V61.4913V61.5263V61.9123V62.4273V62.9403V63.2313V63.2323V63.5593L79.3917 63.7133L79.4027 63.7653C79.4357 63.8433 79.5117 63.9633 79.6687 64.1013C79.6687 64.1013 79.6697 64.1013 79.6697 64.1023C79.7987 64.2143 79.9827 64.3383 80.2487 64.4613C80.2527 64.4633 80.2587 64.4653 80.2637 64.4673C80.2977 64.4823 80.3367 64.4983 80.3737 64.5133C80.4407 64.5413 80.5117 64.5693 80.5887 64.5973C80.6497 64.6193 80.7137 64.6413 80.7807 64.6623C81.0007 64.7323 81.2577 64.7983 81.5527 64.8583C81.8517 64.9193 82.1927 64.9723 82.5787 65.0163C82.8367 65.0453 83.1087 65.0713 83.4097 65.0913C83.5087 65.0973 83.6177 65.1013 83.7207 65.1063C83.7467 65.1073 83.7737 65.1083 83.8007 65.1103C83.9217 65.1153 84.0357 65.1223 84.1637 65.1263C84.3107 65.1313 84.4717 65.1323 84.6287 65.1343C84.6507 65.1343 84.6717 65.1343 84.6937 65.1353C84.7687 65.1353 84.8387 65.1383 84.9157 65.1383C84.9507 65.1383 84.9807 65.1393 85.0147 65.1393C85.0177 65.1393 85.0197 65.1393 85.0217 65.1393C85.0727 65.1393 85.1167 65.1373 85.1677 65.1373C86.6217 65.1293 87.6917 65.0183 88.4767 64.8583C88.7727 64.7983 89.0297 64.7323 89.2497 64.6623C89.3167 64.6413 89.3807 64.6193 89.4417 64.5973C89.5657 64.5523 89.6817 64.5073 89.7817 64.4613C90.3717 64.1893 90.5657 63.9073 90.6277 63.7663L90.6637 61.4913L90.6667 61.3023C90.6667 61.2963 90.6707 61.2893 90.6707 61.2823ZM89.6427 63.3612C89.4777 63.4852 88.9947 63.7562 87.7997 63.9362C87.2517 64.0182 86.5537 64.0822 85.6647 64.1032L85.3857 63.9862L85.0217 63.8352L84.9837 63.8192L84.7737 63.7312L84.6347 63.6732L83.9937 63.4062L82.3927 62.7392L81.6427 62.4272L81.1397 62.2172C81.5277 62.3002 81.9667 62.3712 82.4467 62.4272C82.7897 62.4672 83.1537 62.4982 83.5327 62.5222C83.6847 62.5312 83.8377 62.5392 83.9937 62.5462C84.2017 62.5552 84.4137 62.5602 84.6297 62.5642C84.7537 62.5652 84.8777 62.5682 85.0037 62.5682C85.0077 62.5682 85.0107 62.5682 85.0147 62.5682C85.0167 62.5682 85.0197 62.5682 85.0217 62.5682C85.1497 62.5682 85.2747 62.5652 85.3997 62.5642C87.0887 62.5382 88.5707 62.3442 89.5297 62.0542H89.6427V63.3612ZM85.0177 57.5263L85.0217 57.2843H84.9077C84.8217 57.1873 84.6837 57.0953 84.5077 57.0083C84.4467 57.0393 84.3807 57.0693 84.3107 57.1003C84.1647 57.1633 83.9967 57.2243 83.8087 57.2843C83.8027 57.2863 83.7967 57.2883 83.7907 57.2903C82.8987 57.5713 81.5187 57.7983 79.3647 57.7983C78.7317 57.7983 78.1657 57.7783 77.6577 57.7443L77.6587 57.7503L77.6527 58.3133L77.6477 58.7663C78.1897 58.8053 78.7667 58.8273 79.3657 58.8273C81.2137 58.8273 82.8507 58.6243 83.8827 58.3133H83.9937V59.6203C83.9837 59.6273 83.9707 59.6363 83.9587 59.6443C84.1857 59.6323 84.4097 59.6263 84.6347 59.6213C84.7517 59.6193 84.8697 59.6133 84.9847 59.6133L85.0147 57.7503L85.0177 57.5593C85.0177 57.5533 85.0217 57.5473 85.0217 57.5413C85.0217 57.5363 85.0187 57.5313 85.0177 57.5263ZM85.0177 53.4134L85.0217 53.1714H84.9077C84.8217 53.0744 84.6837 52.9824 84.5077 52.8944C84.4467 52.9254 84.3807 52.9554 84.3097 52.9864C84.1637 53.0494 83.9957 53.1114 83.8067 53.1714C83.8017 53.1734 83.7957 53.1744 83.7897 53.1764C82.8977 53.4584 81.5177 53.6844 79.3647 53.6844C78.7317 53.6844 78.1657 53.6644 77.6577 53.6304L77.6587 53.6364L77.6527 54.1994L77.6477 54.6524C78.1897 54.6924 78.7667 54.7134 79.3657 54.7134C81.2137 54.7134 82.8487 54.5114 83.8817 54.1994H83.9937V55.5074C83.8287 55.6304 83.3457 55.9014 82.1507 56.0814C81.6017 56.1634 80.9037 56.2274 80.0147 56.2484L79.1227 55.8764L77.6417 55.2594L77.6347 55.9514L77.6317 56.1964V56.2504C77.6247 56.2684 77.6127 56.2934 77.5977 56.3214C77.5937 56.3274 77.5897 56.3344 77.5857 56.3404C77.5307 56.4344 77.4287 56.5674 77.2347 56.7184C77.2107 56.7364 77.1817 56.7554 77.1557 56.7734C77.0967 56.8154 77.0307 56.8574 76.9577 56.9004C76.9547 56.9024 76.9517 56.9044 76.9487 56.9054C76.8897 56.9394 76.8287 56.9744 76.7597 57.0084C76.6977 57.0394 76.6317 57.0694 76.5617 57.1004C76.5517 57.1044 76.5437 57.1084 76.5327 57.1134C76.5557 57.1164 76.5817 57.1194 76.6047 57.1224C76.7407 57.1414 76.8857 57.1584 77.0347 57.1734C77.1287 57.1834 77.2277 57.1924 77.3257 57.2014C77.9087 57.2524 78.5777 57.2844 79.3647 57.2844C80.9017 57.2844 82.0137 57.1684 82.8277 57.0034C83.1227 56.9434 83.3797 56.8774 83.6007 56.8074C83.6677 56.7864 83.7317 56.7644 83.7927 56.7424C83.9167 56.6984 84.0327 56.6524 84.1327 56.6064C84.7227 56.3354 84.9167 56.0534 84.9787 55.9124L85.0147 53.6364L85.0177 53.4454C85.0177 53.4394 85.0217 53.4334 85.0217 53.4284C85.0217 53.4234 85.0187 53.4184 85.0177 53.4134ZM85.0177 49.2994L85.0217 49.0584H84.9087C84.8217 48.9614 84.6837 48.8694 84.5077 48.7814C84.4467 48.8124 84.3807 48.8424 84.3107 48.8734C84.1637 48.9364 83.9957 48.9984 83.8067 49.0584C83.8017 49.0594 83.7957 49.0614 83.7897 49.0634C82.8977 49.3444 81.5177 49.5714 79.3647 49.5714C78.7317 49.5714 78.1657 49.5514 77.6577 49.5164L77.6587 49.5224L77.6527 50.0864L77.6477 50.5394C78.1897 50.5784 78.7667 50.6004 79.3657 50.6004C81.2127 50.6004 82.8487 50.3974 83.8807 50.0864H83.9937V51.3934C83.8287 51.5164 83.3447 51.7874 82.1497 51.9674C81.6017 52.0504 80.9037 52.1134 80.0157 52.1344L79.1237 51.7634L77.6417 51.1454L77.6347 51.8384L77.6317 52.0834V52.1364C77.6247 52.1554 77.6127 52.1794 77.5977 52.2074C77.5947 52.2134 77.5897 52.2204 77.5857 52.2264C77.5317 52.3204 77.4297 52.4534 77.2347 52.6044C77.2107 52.6224 77.1817 52.6414 77.1557 52.6604C77.0967 52.7024 77.0307 52.7444 76.9577 52.7874C76.9547 52.7884 76.9527 52.7904 76.9497 52.7914C76.8907 52.8254 76.8287 52.8604 76.7587 52.8944C76.6977 52.9254 76.6317 52.9554 76.5617 52.9864C76.5517 52.9904 76.5427 52.9954 76.5327 52.9994C76.5557 53.0034 76.5817 53.0054 76.6047 53.0094C76.7417 53.0274 76.8857 53.0444 77.0357 53.0604C77.1287 53.0704 77.2277 53.0794 77.3257 53.0874C77.9087 53.1394 78.5777 53.1714 79.3647 53.1714C80.9017 53.1714 82.0137 53.0554 82.8277 52.8904C83.1227 52.8304 83.3797 52.7644 83.6007 52.6944C83.6677 52.6734 83.7317 52.6514 83.7927 52.6294C83.9167 52.5844 84.0317 52.5394 84.1327 52.4934C84.7227 52.2214 84.9167 51.9394 84.9787 51.7984L85.0147 49.5224L85.0177 49.3314C85.0177 49.3264 85.0217 49.3204 85.0217 49.3144C85.0217 49.3094 85.0187 49.3044 85.0177 49.2994ZM85.0177 45.1855L85.0217 44.9435H84.9077C84.8217 44.8475 84.6837 44.7555 84.5077 44.6675C84.4467 44.6985 84.3807 44.7295 84.3107 44.7595C84.1647 44.8225 83.9967 44.8845 83.8087 44.9435C83.8027 44.9455 83.7967 44.9475 83.7907 44.9495C82.8987 45.2315 81.5187 45.4585 79.3647 45.4585C78.7317 45.4585 78.1657 45.4385 77.6577 45.4035L77.6587 45.4095L77.6527 45.9725L77.6477 46.4255C78.1897 46.4645 78.7667 46.4865 79.3657 46.4865C81.2137 46.4865 82.8497 46.2845 83.8817 45.9725H83.9937V47.2795C83.8287 47.4035 83.3447 47.6745 82.1497 47.8545C81.6017 47.9375 80.9037 48.0005 80.0157 48.0215L79.1247 47.6505L77.6417 47.0325L77.6347 47.7255L77.6317 47.9705V48.0235C77.6247 48.0415 77.6127 48.0665 77.5977 48.0935C77.5947 48.0995 77.5897 48.1075 77.5857 48.1135C77.5317 48.2065 77.4297 48.3405 77.2347 48.4915C77.2117 48.5095 77.1817 48.5285 77.1557 48.5475C77.0967 48.5885 77.0307 48.6315 76.9577 48.6745C76.9547 48.6755 76.9527 48.6765 76.9497 48.6785C76.8907 48.7125 76.8287 48.7465 76.7597 48.7815C76.6977 48.8125 76.6317 48.8425 76.5617 48.8735C76.5517 48.8775 76.5437 48.8825 76.5327 48.8865C76.5557 48.8895 76.5817 48.8925 76.6057 48.8955C76.7417 48.9145 76.8867 48.9315 77.0357 48.9475C77.1287 48.9575 77.2277 48.9655 77.3257 48.9745C77.9087 49.0265 78.5777 49.0585 79.3647 49.0585C80.9017 49.0585 82.0137 48.9425 82.8277 48.7765C83.1227 48.7165 83.3797 48.6515 83.6007 48.5805C83.6677 48.5595 83.7317 48.5375 83.7927 48.5155C83.9167 48.4715 84.0327 48.4255 84.1327 48.3795C84.7227 48.1085 84.9167 47.8265 84.9787 47.6845L85.0147 45.4095L85.0177 45.2185C85.0177 45.2125 85.0217 45.2065 85.0217 45.2005C85.0217 45.1955 85.0187 45.1915 85.0177 45.1855ZM85.0177 41.0726L85.0217 40.8306H84.9087C84.8217 40.7336 84.6837 40.6416 84.5077 40.5546C84.4467 40.5846 84.3807 40.6156 84.3107 40.6456C84.1647 40.7086 83.9957 40.7706 83.8077 40.8306C83.8027 40.8326 83.7957 40.8346 83.7897 40.8366C82.8977 41.1176 81.5187 41.3446 79.3647 41.3446C78.7317 41.3446 78.1657 41.3246 77.6577 41.2896L77.6587 41.2956L77.6527 41.8596L77.6477 42.3126C78.1897 42.3516 78.7667 42.3726 79.3657 42.3726C81.2137 42.3726 82.8487 42.1706 83.8807 41.8596H83.9937V43.1666C83.8287 43.2896 83.3457 43.5606 82.1517 43.7406C81.6037 43.8236 80.9047 43.8866 80.0157 43.9076L79.1227 43.5356L77.6417 42.9186L77.6347 43.6106L77.6317 43.8566V43.9096C77.6247 43.9286 77.6127 43.9526 77.5977 43.9806C77.5947 43.9866 77.5897 43.9936 77.5857 43.9996C77.5317 44.0936 77.4297 44.2266 77.2347 44.3776C77.2107 44.3956 77.1817 44.4146 77.1557 44.4336C77.0967 44.4756 77.0307 44.5176 76.9577 44.5606C76.9557 44.5616 76.9527 44.5626 76.9507 44.5646C76.8907 44.5986 76.8287 44.6336 76.7597 44.6676C76.6977 44.6986 76.6317 44.7286 76.5617 44.7596C76.5517 44.7636 76.5437 44.7686 76.5327 44.7726C76.5557 44.7766 76.5817 44.7786 76.6057 44.7826C76.7417 44.8006 76.8867 44.8176 77.0357 44.8336C77.1287 44.8436 77.2277 44.8526 77.3267 44.8606C77.9017 44.9116 78.5617 44.9436 79.3347 44.9436C79.3457 44.9436 79.3547 44.9446 79.3647 44.9446C79.3757 44.9446 79.3847 44.9436 79.3947 44.9436C80.9157 44.9426 82.0187 44.8276 82.8277 44.6636C83.1227 44.6036 83.3797 44.5376 83.6007 44.4676C83.6677 44.4456 83.7317 44.4246 83.7927 44.4026C83.9167 44.3576 84.0327 44.3116 84.1327 44.2656C84.7227 43.9936 84.9167 43.7126 84.9787 43.5706L85.0147 41.2956L85.0177 41.1046C85.0177 41.0986 85.0217 41.0936 85.0217 41.0876C85.0217 41.0826 85.0187 41.0776 85.0177 41.0726ZM85.0177 36.9587L85.0217 36.7167H84.9077C84.3847 36.1307 82.1027 35.6887 79.3657 35.6887C78.7477 35.6887 78.1547 35.7117 77.5977 35.7537C77.5947 35.7597 77.5897 35.7667 77.5857 35.7727C77.5247 35.8777 77.3997 36.0337 77.1557 36.2067C77.0967 36.2487 77.0307 36.2907 76.9577 36.3337C77.1417 36.4507 77.2957 36.5777 77.4077 36.7167C77.4307 36.7447 77.4667 36.7687 77.4867 36.7967H77.6347L77.6587 37.1827L77.6527 37.7457L77.6477 38.1987C78.1897 38.2377 78.7667 38.2597 79.3657 38.2597C81.2137 38.2597 82.8497 38.0577 83.8817 37.7457H83.9937V39.0527C83.8287 39.1767 83.3457 39.4477 82.1507 39.6277C81.6027 39.7097 80.9047 39.7737 80.0157 39.7947L79.1227 39.4227L77.6417 38.8057L77.6347 39.4977L77.6317 39.7427V39.7967C77.6247 39.8147 77.6127 39.8397 77.5977 39.8667C77.5947 39.8727 77.5897 39.8797 77.5857 39.8867C77.5317 39.9797 77.4297 40.1127 77.2347 40.2637C77.2107 40.2827 77.1817 40.3017 77.1547 40.3207C77.0967 40.3617 77.0307 40.4037 76.9577 40.4467C76.9557 40.4487 76.9527 40.4497 76.9507 40.4507C76.8917 40.4857 76.8297 40.5197 76.7597 40.5547C76.6977 40.5847 76.6317 40.6157 76.5617 40.6457C76.5517 40.6507 76.5437 40.6547 76.5327 40.6597C76.5557 40.6627 76.5817 40.6657 76.6057 40.6687C76.7417 40.6867 76.8857 40.7047 77.0357 40.7197C77.1287 40.7297 77.2277 40.7387 77.3257 40.7477C77.9087 40.7987 78.5777 40.8307 79.3647 40.8307C80.9007 40.8307 82.0127 40.7147 82.8267 40.5497C83.1217 40.4897 83.3797 40.4237 83.5997 40.3537C83.6677 40.3327 83.7317 40.3107 83.7917 40.2887C83.9167 40.2437 84.0317 40.1987 84.1327 40.1527C84.7227 39.8807 84.9167 39.5987 84.9787 39.4577L85.0147 37.1827L85.0177 36.9917C85.0177 36.9857 85.0217 36.9797 85.0217 36.9737C85.0217 36.9687 85.0187 36.9637 85.0177 36.9587ZM77.2697 32.8447L77.2737 32.6037H77.1597C77.0737 32.5067 76.9347 32.4147 76.7597 32.3277C76.6977 32.3577 76.6317 32.3887 76.5617 32.4187C76.4157 32.4817 76.2477 32.5437 76.0607 32.6037C76.0547 32.6057 76.0477 32.6067 76.0417 32.6087C75.1737 32.8837 73.8357 33.1037 71.7777 33.1147L71.7727 33.6317L71.7677 34.1437C73.5537 34.1337 75.1297 33.9347 76.1337 33.6317H76.2447V34.9397C76.0797 35.0627 75.5967 35.3337 74.4027 35.5137C73.8547 35.5967 73.1557 35.6597 72.2667 35.6807L71.7417 35.4617C71.7177 35.5147 71.6727 35.5917 71.5877 35.6887C71.4857 35.8037 71.3247 35.9417 71.0797 36.0847C71.0827 36.0867 71.0857 36.0887 71.0877 36.0897C71.1797 36.1487 71.2647 36.2097 71.3387 36.2737C71.4077 36.3327 71.4677 36.3947 71.5207 36.4587C71.5457 36.4897 71.5867 36.5167 71.6087 36.5487H71.7567L71.7667 36.7147C72.4877 36.7107 73.1117 36.6817 73.6557 36.6337C73.7547 36.6247 73.8537 36.6167 73.9467 36.6067C74.0967 36.5907 74.2407 36.5737 74.3767 36.5547C74.6347 36.5197 74.8657 36.4797 75.0787 36.4357C75.3737 36.3767 75.6307 36.3107 75.8517 36.2397C75.9187 36.2187 75.9827 36.1967 76.0437 36.1747C76.1677 36.1307 76.2837 36.0847 76.3837 36.0387C76.4947 35.9877 76.5867 35.9377 76.6707 35.8867C76.7007 35.8697 76.7287 35.8517 76.7557 35.8337C76.9867 35.6827 77.1127 35.5417 77.1797 35.4347C77.2007 35.4007 77.2187 35.3697 77.2297 35.3437L77.2657 33.0687L77.2687 32.8787C77.2697 32.8727 77.2727 32.8667 77.2727 32.8607C77.2727 32.8547 77.2697 32.8497 77.2697 32.8447ZM77.2697 28.7309L77.2737 28.4899H77.1597C77.0737 28.3929 76.9347 28.3009 76.7597 28.2139C76.6977 28.2449 76.6317 28.2749 76.5617 28.3059C76.4167 28.3689 76.2487 28.4299 76.0607 28.4899C76.0547 28.4919 76.0487 28.4939 76.0417 28.4959C75.1497 28.7769 73.7707 29.0039 71.6177 29.0039C69.4637 29.0039 68.0837 28.7779 67.1917 28.4959C67.1857 28.4939 67.1787 28.4919 67.1727 28.4899C66.9857 28.4299 66.8177 28.3689 66.6717 28.3059C66.6017 28.2749 66.5357 28.2449 66.4737 28.2139C66.2987 28.3019 66.1607 28.3929 66.0737 28.4899H65.9607V30.9469C66.0457 30.9479 66.1317 30.9509 66.2167 30.9529C66.2597 30.9539 66.3027 30.9549 66.3457 30.9559C66.6617 30.9659 66.9767 30.9839 67.2917 31.0089C68.0347 31.0699 68.7587 31.1729 69.4027 31.3249C69.6627 31.3869 69.9087 31.4549 70.1377 31.5319C70.2077 31.5559 70.2667 31.5839 70.3347 31.6099C70.3417 31.6119 70.3477 31.6149 70.3547 31.6179C70.6347 31.7239 70.8817 31.8429 71.0877 31.9769C71.1797 32.0349 71.2637 32.0959 71.3387 32.1609C71.4077 32.2199 71.4677 32.2819 71.5197 32.3449C71.5457 32.3759 71.5867 32.4029 71.6087 32.4349H71.7567L71.7667 32.6019C73.2227 32.5939 74.2927 32.4819 75.0787 32.3229C75.3737 32.2629 75.6307 32.1969 75.8517 32.1269C75.9187 32.1049 75.9827 32.0839 76.0437 32.0619C76.1677 32.0169 76.2837 31.9719 76.3837 31.9249C76.9747 31.6539 77.1677 31.3719 77.2297 31.2309L77.2657 28.9559L77.2687 28.7659C77.2697 28.7589 77.2727 28.7529 77.2727 28.7469C77.2727 28.7419 77.2697 28.7359 77.2697 28.7309ZM76.2447 30.8258C76.0797 30.9498 75.5967 31.2198 74.4027 31.3998C73.8547 31.4828 73.1557 31.5458 72.2667 31.5668L71.3737 31.1948L67.7417 29.6818C68.7547 29.8988 70.1157 30.0328 71.6167 30.0328C73.4657 30.0328 75.1017 29.8298 76.1337 29.5188H76.2447V30.8258ZM77.2697 24.6169L77.2737 24.3769H77.1597C76.6367 23.7899 74.3537 23.3479 71.6167 23.3479C68.8797 23.3479 66.5977 23.7899 66.0737 24.3769H65.9607V26.9099V26.9119L66.0037 27.1169C66.0657 27.2579 66.2597 27.5399 66.8497 27.8119C66.9497 27.8579 67.0657 27.9039 67.1897 27.9479C67.2507 27.9699 67.3147 27.9919 67.3817 28.0129C67.6027 28.0829 67.8597 28.1489 68.1557 28.2089C68.9637 28.3729 70.0677 28.4879 71.5867 28.4899C71.5977 28.4899 71.6067 28.4899 71.6177 28.4899C71.6277 28.4899 71.6367 28.4899 71.6477 28.4899C73.1667 28.4879 74.2707 28.3729 75.0787 28.2089C75.3737 28.1489 75.6307 28.0829 75.8517 28.0129C75.9187 27.9919 75.9827 27.9699 76.0437 27.9479C76.1677 27.9029 76.2837 27.8579 76.3837 27.8119C76.9747 27.5399 77.1677 27.2579 77.2297 27.1169L77.2657 24.8419L77.2687 24.6519C77.2697 24.6459 77.2727 24.6399 77.2727 24.6329C77.2727 24.6279 77.2697 24.6229 77.2697 24.6169ZM76.2447 26.7129C76.0797 26.8359 75.5967 27.1069 74.4027 27.2869C73.8547 27.3689 73.1567 27.4329 72.2677 27.4539L71.3747 27.0819L67.7417 25.5679C68.7547 25.7849 70.1157 25.9189 71.6167 25.9189C73.4647 25.9189 75.1007 25.7169 76.1327 25.4049H76.2447V26.7129ZM65.9607 31.3298C65.8867 31.3288 65.8137 31.3268 65.7387 31.3268C65.6837 31.3268 65.6297 31.3278 65.5747 31.3288C62.9117 31.3458 60.7087 31.7808 60.1957 32.3558H60.0827V34.8888V34.8908L60.1257 35.0958C60.1877 35.2368 60.3817 35.5188 60.9717 35.7908C61.0717 35.8368 61.1877 35.8818 61.3117 35.9268C61.3727 35.9488 61.4367 35.9708 61.5037 35.9918C61.7247 36.0618 61.9817 36.1278 62.2767 36.1878C63.0857 36.3518 64.1897 36.4668 65.7097 36.4688C65.7197 36.4688 65.7287 36.4688 65.7397 36.4688C65.7497 36.4688 65.7587 36.4688 65.7697 36.4688C65.8757 36.4688 65.9717 36.4658 66.0737 36.4648C66.1957 36.4628 66.3197 36.4618 66.4357 36.4588C66.4597 36.4588 66.4867 36.4588 66.5107 36.4578C66.6287 36.4548 66.7377 36.4488 66.8507 36.4448C67.0737 36.4348 67.2867 36.4238 67.4887 36.4088C67.6227 36.3988 67.7547 36.3888 67.8797 36.3778C68.1857 36.3488 68.4617 36.3138 68.7167 36.2738C68.8887 36.2468 69.0497 36.2188 69.2007 36.1878C69.2747 36.1728 69.3477 36.1578 69.4167 36.1418C69.6227 36.0948 69.8087 36.0448 69.9737 35.9918C70.0407 35.9708 70.1047 35.9488 70.1657 35.9268C70.2907 35.8818 70.4057 35.8368 70.5057 35.7908C70.5617 35.7648 70.6097 35.7388 70.6587 35.7138C70.6617 35.7118 70.6657 35.7098 70.6687 35.7078C70.6907 35.6968 70.7167 35.6848 70.7377 35.6728C70.9647 35.5448 71.1097 35.4198 71.2047 35.3128C71.2217 35.2938 71.2387 35.2758 71.2517 35.2578C71.3017 35.1938 71.3337 35.1378 71.3527 35.0958L71.3677 34.1428L71.3757 33.6318L71.3837 33.1138L71.3887 32.8208L71.3897 32.7288L71.3917 32.6308C71.3917 32.6248 71.3957 32.6188 71.3957 32.6118C71.3957 32.6098 71.3937 32.6068 71.3937 32.6038C71.3937 32.6028 71.3927 32.6018 71.3927 32.5998C71.3927 32.5988 71.3917 32.5978 71.3917 32.5968L71.3957 32.3558H71.2817C71.2777 32.3508 71.2717 32.3468 71.2677 32.3418C71.2307 32.3028 71.1887 32.2648 71.1367 32.2278C71.0217 32.1438 70.8677 32.0638 70.6827 31.9878C70.4017 31.8738 70.0437 31.7698 69.6277 31.6798C69.6027 31.6748 69.5767 31.6698 69.5517 31.6648C69.2077 31.5928 68.8277 31.5298 68.4127 31.4798C67.8607 31.4118 67.2507 31.3658 66.6077 31.3438C66.5257 31.3408 66.4447 31.3368 66.3627 31.3348C66.2627 31.3328 66.1607 31.3318 66.0597 31.3308C66.0267 31.3298 65.9937 31.3298 65.9607 31.3298ZM65.9607 33.8947C66.0627 33.8937 66.1657 33.8937 66.2667 33.8917C66.2927 33.8907 66.3197 33.8907 66.3457 33.8897C66.5647 33.8847 66.7777 33.8757 66.9887 33.8647C67.2597 33.8507 67.5227 33.8327 67.7777 33.8107C67.7867 33.8097 67.7957 33.8087 67.8037 33.8077C68.2987 33.7637 68.7577 33.7047 69.1737 33.6317C69.5817 33.5607 69.9457 33.4777 70.2547 33.3837H70.3667V33.6317V34.1137V34.6907C70.3257 34.7227 70.2617 34.7627 70.1747 34.8087C69.9137 34.9457 69.4197 35.1307 68.5247 35.2657C68.3467 35.2927 68.1517 35.3167 67.9407 35.3387C67.5487 35.3797 67.0957 35.4097 66.5767 35.4267C66.5147 35.4287 66.4547 35.4307 66.3897 35.4327L66.3457 35.4147L65.9867 35.2647L65.9607 35.2537L65.5747 35.0937L65.4967 35.0607L61.8637 33.5467C62.8387 33.7557 64.1387 33.8867 65.5747 33.8957C65.6297 33.8957 65.6837 33.8977 65.7387 33.8977C65.8137 33.8977 65.8867 33.8957 65.9607 33.8947ZM57.7657 66.2531L57.7687 66.0131H57.6557C57.6337 65.9881 57.6027 65.9641 57.5747 65.9401C57.5387 65.9641 57.4967 65.9881 57.4557 66.0131C57.4387 66.0221 57.4217 66.0321 57.4047 66.0421C57.2877 66.1071 57.1577 66.1731 57.0007 66.2391C56.1507 66.5921 54.6747 66.9121 52.1127 66.9121C51.4217 66.9121 50.8147 66.8871 50.2717 66.8461L50.2697 67.0411L50.2647 67.4831C50.8447 67.5291 51.4647 67.5551 52.1127 67.5551C53.9607 67.5551 55.5957 67.3531 56.6277 67.0411H56.7407V68.3481C56.5007 68.5291 55.5867 69.0231 52.7627 69.0901L50.2597 68.0461L50.2487 69.0271L50.2477 69.1231C50.2187 69.1971 50.1297 69.3591 49.8997 69.5491C49.8267 69.6101 49.7397 69.6741 49.6337 69.7401C49.6157 69.7511 49.5927 69.7621 49.5737 69.7731C49.6987 69.8531 49.8047 69.9391 49.8977 70.0281C50.5177 70.0901 51.2487 70.1261 52.1127 70.1261C56.7627 70.1261 57.5847 69.0751 57.7257 68.7531L57.7617 66.4781L57.7647 66.2881C57.7657 66.2821 57.7687 66.2761 57.7687 66.2691C57.7687 66.2641 57.7657 66.2591 57.7657 66.2531ZM57.7657 62.5252L57.7687 62.2852H57.6557C57.5697 62.1882 57.4317 62.0962 57.2557 62.0082C57.1937 62.0392 57.1277 62.0692 57.0577 62.1002C56.9117 62.1632 56.7427 62.2252 56.5547 62.2852C56.5497 62.2862 56.5437 62.2882 56.5377 62.2902C55.6457 62.5722 54.2667 62.7982 52.1127 62.7982C49.9597 62.7982 48.5807 62.5722 47.6877 62.2902C47.6827 62.2882 47.6767 62.2872 47.6707 62.2852C47.4827 62.2252 47.3137 62.1632 47.1677 62.1002C47.0977 62.0692 47.0317 62.0392 46.9697 62.0082C46.7947 62.0962 46.6557 62.1882 46.5697 62.2852H46.4557V64.7662H46.4567C46.5617 64.7792 46.6677 64.7912 46.7717 64.8062C46.7947 64.8092 46.8187 64.8112 46.8417 64.8152C47.2947 64.8812 47.7207 64.9692 48.1177 65.0732C48.3207 65.1262 48.5167 65.1832 48.6987 65.2462C48.7397 65.2602 48.7747 65.2772 48.8147 65.2922C49.0457 65.3782 49.2517 65.4732 49.4357 65.5772C49.5657 65.6502 49.6917 65.7252 49.7937 65.8082C49.8737 65.8722 49.9337 65.9432 49.9947 66.0132C50.0067 66.0272 50.0237 66.0392 50.0347 66.0542C50.0547 66.0782 50.0867 66.0992 50.1037 66.1242H50.2507L50.2637 66.3302C50.8027 66.3722 51.4097 66.3982 52.1127 66.3982C53.9557 66.3982 55.1897 66.2322 56.0267 66.0132C56.1207 65.9882 56.2157 65.9632 56.3007 65.9372C56.5167 65.8712 56.6997 65.8012 56.8557 65.7302C56.9227 65.7002 56.9817 65.6692 57.0397 65.6392C57.1197 65.5962 57.1937 65.5542 57.2567 65.5122C57.5577 65.3132 57.6797 65.1302 57.7257 65.0252L57.7617 62.7502L57.7647 62.5602C57.7657 62.5542 57.7687 62.5482 57.7687 62.5412C57.7687 62.5362 57.7657 62.5312 57.7657 62.5252ZM56.7407 64.6202C56.6287 64.7042 56.3707 64.8562 55.8437 65.0012C55.6277 65.0612 55.3627 65.1192 55.0447 65.1712C54.9947 65.1802 54.9427 65.1882 54.8897 65.1962C54.3417 65.2782 53.6467 65.3412 52.7627 65.3622L51.8647 64.9872H51.8627L51.0167 64.6342L48.2377 63.4762C49.2507 63.6932 50.6117 63.8272 52.1127 63.8272C53.9607 63.8272 55.5957 63.6252 56.6277 63.3132H56.7407V64.6202ZM57.7657 58.4123L57.7687 58.1713H57.6557C57.5697 58.0743 57.4307 57.9823 57.2547 57.8953C57.1937 57.9253 57.1277 57.9563 57.0577 57.9863C56.9117 58.0493 56.7437 58.1113 56.5567 58.1713C56.5507 58.1733 56.5437 58.1743 56.5377 58.1763C55.6457 58.4583 54.2667 58.6853 52.1127 58.6853C49.9597 58.6853 48.5797 58.4583 47.6877 58.1763C47.6817 58.1743 47.6747 58.1733 47.6687 58.1713C47.4817 58.1113 47.3137 58.0493 47.1677 57.9863C47.0977 57.9563 47.0317 57.9253 46.9707 57.8953C46.7947 57.9823 46.6567 58.0743 46.5697 58.1713H46.4557V60.7053L46.4567 60.7073L46.4997 60.9123C46.5617 61.0533 46.7547 61.3353 47.3457 61.6073C47.4457 61.6533 47.5617 61.6983 47.6857 61.7433C47.7467 61.7653 47.8097 61.7863 47.8777 61.8083C48.0977 61.8783 48.3547 61.9443 48.6507 62.0043C49.4647 62.1693 50.5767 62.2853 52.1127 62.2853C53.6497 62.2853 54.7617 62.1693 55.5757 62.0033C55.8707 61.9443 56.1277 61.8783 56.3477 61.8083C56.4157 61.7863 56.4797 61.7653 56.5407 61.7433C56.6647 61.6983 56.7797 61.6533 56.8797 61.6073C57.4707 61.3353 57.6637 61.0533 57.7257 60.9123L57.7617 58.6363L57.7647 58.4463C57.7657 58.4403 57.7687 58.4343 57.7687 58.4283C57.7687 58.4223 57.7657 58.4173 57.7657 58.4123ZM56.7407 60.5063C56.5757 60.6303 56.0927 60.9013 54.8977 61.0813C54.3497 61.1643 53.6517 61.2273 52.7637 61.2483L51.8717 60.8773L48.2377 59.3623C49.2497 59.5793 50.6107 59.7133 52.1127 59.7133C53.9617 59.7133 55.5977 59.5113 56.6297 59.1993H56.7407V60.5063ZM57.7657 54.2984L57.7687 54.0574H57.6557C57.5697 53.9614 57.4307 53.8694 57.2547 53.7814C57.1937 53.8124 57.1277 53.8424 57.0577 53.8724C56.9117 53.9364 56.7427 53.9974 56.5547 54.0574C56.5487 54.0594 56.5427 54.0614 56.5377 54.0624C55.6457 54.3444 54.2657 54.5714 52.1127 54.5714C49.9597 54.5714 48.5807 54.3444 47.6877 54.0624C47.6827 54.0614 47.6767 54.0594 47.6707 54.0574C47.4827 53.9974 47.3147 53.9364 47.1677 53.8724C47.0977 53.8424 47.0317 53.8124 46.9707 53.7814C46.7947 53.8694 46.6557 53.9614 46.5697 54.0574H46.4557V56.5914L46.4567 56.5934L46.4997 56.7984C46.5617 56.9404 46.7547 57.2214 47.3457 57.4934C47.4457 57.5394 47.5617 57.5844 47.6857 57.6294C47.7467 57.6514 47.8107 57.6734 47.8777 57.6944C48.0977 57.7644 48.3547 57.8304 48.6497 57.8904C49.4647 58.0554 50.5767 58.1714 52.1127 58.1714C53.6497 58.1714 54.7617 58.0554 55.5757 57.8904C55.8707 57.8304 56.1277 57.7644 56.3477 57.6944C56.4147 57.6734 56.4787 57.6514 56.5397 57.6294C56.6647 57.5844 56.7797 57.5394 56.8807 57.4934C57.4707 57.2214 57.6637 56.9404 57.7257 56.7984L57.7617 54.5234L57.7647 54.3334C57.7657 54.3274 57.7687 54.3204 57.7687 54.3144C57.7687 54.3094 57.7657 54.3034 57.7657 54.2984ZM56.7407 56.3933C56.5757 56.5173 56.0927 56.7883 54.8987 56.9673C54.3497 57.0503 53.6517 57.1133 52.7617 57.1343L51.8707 56.7633L48.2377 55.2493C49.2497 55.4663 50.6107 55.6003 52.1127 55.6003C53.9607 55.6003 55.5967 55.3973 56.6287 55.0863H56.7407V56.3933ZM57.7657 50.1844L57.7687 49.9444H57.6557C57.5697 49.8474 57.4317 49.7554 57.2557 49.6684C57.1937 49.6984 57.1277 49.7294 57.0577 49.7594C56.9117 49.8224 56.7427 49.8844 56.5547 49.9444C56.5497 49.9464 56.5437 49.9474 56.5377 49.9494C55.6457 50.2314 54.2667 50.4584 52.1127 50.4584C49.9597 50.4584 48.5807 50.2314 47.6877 49.9494C47.6827 49.9484 47.6767 49.9464 47.6707 49.9444C47.4827 49.8844 47.3137 49.8224 47.1677 49.7594C47.0977 49.7294 47.0317 49.6984 46.9697 49.6684C46.7937 49.7554 46.6557 49.8474 46.5697 49.9444H46.4557V52.4774L46.4567 52.4794L46.4997 52.6844C46.5617 52.8264 46.7547 53.1074 47.3457 53.3794C47.4457 53.4254 47.5617 53.4714 47.6857 53.5154C47.7467 53.5374 47.8107 53.5594 47.8777 53.5804C48.0987 53.6514 48.3557 53.7164 48.6507 53.7764C49.4647 53.9414 50.5767 54.0574 52.1127 54.0574C53.6497 54.0574 54.7617 53.9424 55.5757 53.7764C55.8707 53.7164 56.1277 53.6514 56.3477 53.5804C56.4147 53.5594 56.4787 53.5374 56.5397 53.5154C56.6637 53.4714 56.7797 53.4254 56.8797 53.3794C57.4707 53.1074 57.6637 52.8264 57.7257 52.6844L57.7617 50.4094L57.7647 50.2194C57.7657 50.2134 57.7687 50.2074 57.7687 50.2014C57.7687 50.1954 57.7657 50.1904 57.7657 50.1844ZM56.7407 52.2794C56.5757 52.4034 56.0927 52.6744 54.8977 52.8544C54.3497 52.9364 53.6517 53.0004 52.7627 53.0214L51.8717 52.6494L48.2377 51.1354C49.2507 51.3524 50.6117 51.4864 52.1127 51.4864C53.9607 51.4864 55.5957 51.2844 56.6277 50.9734H56.7407V52.2794ZM57.7657 46.0715L57.7687 45.8305H57.6557C57.5697 45.7335 57.4307 45.6415 57.2557 45.5545C57.1937 45.5855 57.1277 45.6155 57.0577 45.6455C56.9117 45.7095 56.7437 45.7705 56.5567 45.8305C56.5507 45.8325 56.5437 45.8345 56.5377 45.8355C55.6457 46.1175 54.2667 46.3445 52.1127 46.3445C49.9597 46.3445 48.5797 46.1175 47.6877 45.8365C47.6817 45.8345 47.6747 45.8325 47.6687 45.8305C47.4817 45.7705 47.3137 45.7095 47.1677 45.6455C47.0977 45.6155 47.0317 45.5855 46.9697 45.5545C46.7947 45.6415 46.6567 45.7335 46.5697 45.8305H46.4557V48.3645L46.4567 48.3665L46.4997 48.5715C46.5617 48.7125 46.7547 48.9945 47.3457 49.2665C47.4457 49.3125 47.5607 49.3575 47.6847 49.4025C47.7457 49.4245 47.8097 49.4465 47.8777 49.4675C48.0977 49.5375 48.3547 49.6035 48.6507 49.6635C49.4647 49.8285 50.5767 49.9445 52.1127 49.9445C53.6497 49.9445 54.7617 49.8285 55.5757 49.6635C55.8707 49.6035 56.1277 49.5375 56.3477 49.4675C56.4157 49.4465 56.4797 49.4245 56.5407 49.4025C56.6647 49.3575 56.7797 49.3125 56.8797 49.2665C57.4707 48.9945 57.6637 48.7125 57.7257 48.5715L57.7617 46.2955L57.7647 46.1065C57.7657 46.0995 57.7687 46.0935 57.7687 46.0875C57.7687 46.0825 57.7657 46.0765 57.7657 46.0715ZM56.7407 48.1665C56.5757 48.2905 56.0927 48.5615 54.8977 48.7415C54.3497 48.8235 53.6517 48.8875 52.7637 48.9085L51.8717 48.5365L48.2377 47.0225C49.2507 47.2395 50.6117 47.3725 52.1127 47.3725C53.9617 47.3725 55.5977 47.1705 56.6297 46.8585H56.7407V48.1665ZM57.7657 41.9576L57.7687 41.7176H57.6557C57.5697 41.6206 57.4307 41.5286 57.2557 41.4406C57.1937 41.4716 57.1277 41.5016 57.0577 41.5326C56.9117 41.5956 56.7437 41.6576 56.5557 41.7176C56.5497 41.7196 56.5437 41.7206 56.5377 41.7226C55.6457 42.0046 54.2657 42.2316 52.1127 42.2316C49.9597 42.2316 48.5797 42.0046 47.6877 41.7226C47.6817 41.7206 47.6757 41.7196 47.6697 41.7176C47.4817 41.6576 47.3137 41.5956 47.1677 41.5326C47.0977 41.5016 47.0317 41.4716 46.9697 41.4406C46.7947 41.5286 46.6557 41.6206 46.5697 41.7176H46.4557V44.2506L46.4567 44.2526L46.4997 44.4576C46.5617 44.5986 46.7547 44.8806 47.3457 45.1526C47.4457 45.1986 47.5617 45.2436 47.6857 45.2886C47.7467 45.3106 47.8107 45.3326 47.8777 45.3536C48.0987 45.4236 48.3557 45.4896 48.6507 45.5496C49.4587 45.7136 50.5627 45.8286 52.0827 45.8306C52.0937 45.8306 52.1027 45.8306 52.1127 45.8306C52.1237 45.8306 52.1327 45.8306 52.1437 45.8306C53.6627 45.8286 54.7667 45.7136 55.5757 45.5496C55.8707 45.4896 56.1277 45.4236 56.3477 45.3536C56.4147 45.3326 56.4787 45.3106 56.5397 45.2886C56.6647 45.2436 56.7797 45.1986 56.8797 45.1526C57.4707 44.8806 57.6637 44.5986 57.7257 44.4576L57.7617 42.1826L57.7647 41.9926C57.7657 41.9866 57.7687 41.9806 57.7687 41.9736C57.7687 41.9686 57.7657 41.9636 57.7657 41.9576ZM56.7407 44.0536C56.5757 44.1766 56.0927 44.4476 54.8997 44.6276C54.3517 44.7096 53.6527 44.7736 52.7637 44.7946L51.8697 44.4226L48.2377 42.9086C49.2497 43.1256 50.6107 43.2596 52.1127 43.2596C53.9607 43.2596 55.5967 43.0576 56.6287 42.7456H56.7407V44.0536ZM57.7657 37.8447L57.7687 37.6037H57.6557C57.5697 37.5067 57.4307 37.4147 57.2557 37.3277C57.1937 37.3577 57.1277 37.3887 57.0577 37.4187C56.9117 37.4827 56.7437 37.5437 56.5567 37.6037C56.5507 37.6057 56.5437 37.6077 56.5377 37.6087C55.6457 37.8907 54.2667 38.1177 52.1127 38.1177C49.9597 38.1177 48.5797 37.8907 47.6877 37.6097C47.6817 37.6077 47.6747 37.6057 47.6687 37.6037C47.4817 37.5437 47.3137 37.4817 47.1677 37.4187C47.0977 37.3887 47.0317 37.3577 46.9697 37.3277C46.7947 37.4147 46.6557 37.5067 46.5697 37.6037H46.4557V40.1377L46.4567 40.1387L46.4997 40.3437C46.5617 40.4857 46.7547 40.7667 47.3457 41.0387C47.4457 41.0847 47.5617 41.1307 47.6857 41.1757C47.7467 41.1977 47.8107 41.2187 47.8777 41.2407C48.0987 41.3107 48.3557 41.3767 48.6517 41.4367C49.4657 41.6017 50.5767 41.7177 52.1127 41.7177C53.6487 41.7177 54.7607 41.6017 55.5747 41.4367C55.8697 41.3767 56.1267 41.3107 56.3477 41.2407C56.4147 41.2187 56.4787 41.1977 56.5397 41.1757C56.6637 41.1307 56.7797 41.0847 56.8797 41.0387C57.4707 40.7667 57.6637 40.4857 57.7257 40.3437L57.7617 38.0687L57.7647 37.8787C57.7657 37.8727 57.7687 37.8667 57.7687 37.8607C57.7687 37.8547 57.7657 37.8497 57.7657 37.8447ZM56.7407 39.9396C56.5757 40.0626 56.0927 40.3336 54.8987 40.5136C54.3497 40.5966 53.6517 40.6596 52.7627 40.6806L51.8707 40.3086L48.2377 38.7956C49.2507 39.0126 50.6117 39.1456 52.1127 39.1456C53.9607 39.1456 55.5967 38.9436 56.6297 38.6326H56.7407V39.9396ZM57.7657 33.7307L57.7687 33.4897H57.6557C57.5697 33.3937 57.4307 33.3017 57.2557 33.2137C57.1937 33.2447 57.1277 33.2747 57.0577 33.3057C56.9117 33.3687 56.7437 33.4297 56.5567 33.4897C56.5507 33.4917 56.5437 33.4937 56.5377 33.4957C55.6457 33.7777 54.2667 34.0047 52.1127 34.0047C49.9597 34.0047 48.5797 33.7777 47.6877 33.4957C47.6817 33.4937 47.6747 33.4917 47.6687 33.4897C47.4817 33.4297 47.3137 33.3687 47.1677 33.3057C47.0977 33.2747 47.0317 33.2447 46.9697 33.2137C46.7947 33.3017 46.6557 33.3937 46.5697 33.4897H46.4557V36.0237L46.4567 36.0257L46.4997 36.2307C46.5617 36.3717 46.7547 36.6537 47.3457 36.9257C47.4457 36.9717 47.5617 37.0167 47.6857 37.0617C47.7467 37.0837 47.8107 37.1057 47.8777 37.1267C48.0987 37.1967 48.3557 37.2627 48.6507 37.3227C49.4657 37.4877 50.5767 37.6037 52.1127 37.6037C53.6487 37.6037 54.7607 37.4877 55.5747 37.3227C55.8697 37.2627 56.1267 37.1967 56.3477 37.1267C56.4147 37.1057 56.4787 37.0837 56.5397 37.0617C56.6637 37.0167 56.7797 36.9717 56.8797 36.9257C57.4707 36.6537 57.6637 36.3717 57.7257 36.2307L57.7617 33.9557L57.7647 33.7657C57.7657 33.7597 57.7687 33.7537 57.7687 33.7467C57.7687 33.7417 57.7657 33.7367 57.7657 33.7307ZM56.7407 35.8257C56.5757 35.9497 56.0927 36.2207 54.8987 36.3997C54.3507 36.4827 53.6517 36.5467 52.7627 36.5677L51.8707 36.1957L48.2377 34.6817C49.2507 34.8987 50.6117 35.0327 52.1127 35.0327C53.9617 35.0327 55.5977 34.8297 56.6297 34.5187H56.7407V35.8257ZM57.7657 29.6178L57.7687 29.3768H57.6557C57.5697 29.2798 57.4307 29.1878 57.2557 29.1008C57.1937 29.1308 57.1277 29.1618 57.0577 29.1918C56.9117 29.2548 56.7447 29.3168 56.5567 29.3768C56.5507 29.3778 56.5437 29.3798 56.5377 29.3818C55.6457 29.6638 54.2667 29.8908 52.1127 29.8908C49.9597 29.8908 48.5797 29.6638 47.6877 29.3818C47.6817 29.3798 47.6747 29.3788 47.6687 29.3768C47.4807 29.3168 47.3137 29.2548 47.1677 29.1918C47.0977 29.1618 47.0317 29.1308 46.9697 29.1008C46.7947 29.1878 46.6567 29.2798 46.5697 29.3768H46.4557V31.9108L46.4567 31.9118L46.4997 32.1168C46.5617 32.2588 46.7547 32.5398 47.3457 32.8118C47.4457 32.8578 47.5617 32.9038 47.6857 32.9478C47.7467 32.9698 47.8107 32.9918 47.8777 33.0128C48.0987 33.0828 48.3557 33.1488 48.6507 33.2088C49.4657 33.3738 50.5767 33.4898 52.1127 33.4898C53.6487 33.4898 54.7607 33.3738 55.5747 33.2088C55.8697 33.1488 56.1267 33.0828 56.3477 33.0128C56.4147 32.9918 56.4787 32.9698 56.5397 32.9478C56.6637 32.9038 56.7797 32.8578 56.8797 32.8118C57.4707 32.5398 57.6637 32.2578 57.7257 32.1168L57.7617 29.8418L57.7647 29.6518C57.7657 29.6458 57.7687 29.6398 57.7687 29.6338C57.7687 29.6278 57.7657 29.6228 57.7657 29.6178ZM56.7407 31.7118C56.5757 31.8358 56.0927 32.1068 54.8987 32.2868C54.3497 32.3688 53.6517 32.4328 52.7627 32.4538L51.8697 32.0818L48.2377 30.5678C49.2497 30.7848 50.6107 30.9188 52.1127 30.9188C53.9617 30.9188 55.5977 30.7168 56.6297 30.4048H56.7407V31.7118ZM57.7657 25.5039L57.7687 25.2629H57.6557C57.1317 24.6759 54.8497 24.2349 52.1127 24.2349C49.3757 24.2349 47.0937 24.6759 46.5697 25.2629H46.4557V27.7969L46.4567 27.7989L46.4997 28.0029C46.5617 28.1449 46.7547 28.4269 47.3457 28.6989C47.4457 28.7449 47.5617 28.7899 47.6857 28.8349C47.7467 28.8569 47.8107 28.8779 47.8777 28.8999C48.0987 28.9699 48.3557 29.0359 48.6517 29.0959C49.4597 29.2599 50.5637 29.3749 52.0827 29.3769C52.0937 29.3769 52.1027 29.3769 52.1127 29.3769C52.1237 29.3769 52.1327 29.3769 52.1437 29.3769C53.6627 29.3749 54.7667 29.2599 55.5747 29.0959C55.8697 29.0359 56.1267 28.9699 56.3477 28.8999C56.4147 28.8779 56.4787 28.8569 56.5397 28.8349C56.6637 28.7899 56.7797 28.7449 56.8797 28.6979C57.4707 28.4269 57.6637 28.1449 57.7257 28.0029L57.7617 25.7279L57.7647 25.5389C57.7657 25.5319 57.7687 25.5259 57.7687 25.5199C57.7687 25.5149 57.7657 25.5089 57.7657 25.5039ZM56.7407 27.5989C56.5757 27.7229 56.0927 27.9929 54.8987 28.1729C54.3497 28.2559 53.6517 28.3189 52.7637 28.3409L51.8707 27.9689L48.2377 26.4549C49.2497 26.6719 50.6107 26.8059 52.1127 26.8059C53.9607 26.8059 55.5967 26.6029 56.6287 26.2919H56.7407V27.5989ZM46.4567 65.1182C46.3307 65.1062 46.2007 65.0962 46.0707 65.0852C45.4937 65.0402 44.8777 65.0152 44.2337 65.0152C41.4967 65.0152 39.2147 65.4562 38.6907 66.0432H38.5777V66.3002V66.3012V66.5092V68.2492V68.2502V68.5772L38.6207 68.7832C38.6827 68.9252 38.8767 69.2072 39.4677 69.4792C39.5677 69.5252 39.6827 69.5702 39.8067 69.6152C39.8677 69.6372 39.9317 69.6592 39.9987 69.6802C40.2197 69.7502 40.4767 69.8162 40.7717 69.8762C41.5857 70.0412 42.6977 70.1572 44.2337 70.1572C45.4867 70.1572 46.4537 70.0802 47.2127 69.9622C47.3837 69.9352 47.5457 69.9072 47.6957 69.8762C47.7927 69.8562 47.8897 69.8372 47.9777 69.8162C48.0677 69.7942 48.1487 69.7722 48.2307 69.7492C48.3127 69.7272 48.3947 69.7042 48.4687 69.6802C48.5357 69.6592 48.5997 69.6372 48.6607 69.6152C48.6777 69.6092 48.6977 69.6032 48.7137 69.5972C48.8177 69.5582 48.9137 69.5192 49.0007 69.4792C49.0247 69.4682 49.0447 69.4562 49.0677 69.4452C49.4107 69.2782 49.6087 69.1112 49.7217 68.9752C49.7847 68.9002 49.8257 68.8332 49.8467 68.7842L49.8607 67.8802L49.8677 67.4492L49.8737 67.0412L49.8777 66.8112L49.8827 66.5092L49.8837 66.4242L49.8857 66.3202C49.8857 66.3142 49.8897 66.3072 49.8897 66.3002C49.8897 66.2942 49.8867 66.2892 49.8857 66.2832L49.8897 66.0432H49.7767C49.7707 66.0372 49.7617 66.0312 49.7557 66.0242C49.7527 66.0212 49.7467 66.0172 49.7427 66.0132C49.6507 65.9222 49.5157 65.8342 49.3427 65.7512C49.2597 65.7122 49.1677 65.6732 49.0677 65.6352C48.8497 65.5542 48.5957 65.4782 48.3067 65.4102C48.2397 65.3942 48.1697 65.3792 48.0997 65.3642C47.9227 65.3262 47.7357 65.2912 47.5387 65.2592C47.4187 65.2392 47.2957 65.2202 47.1687 65.2032C47.0787 65.1902 46.9907 65.1782 46.8977 65.1662C46.7877 65.1532 46.6737 65.1412 46.5587 65.1292C46.5247 65.1262 46.4917 65.1222 46.4567 65.1182ZM46.4557 67.4831H46.4567C46.5437 67.4741 46.6267 67.4641 46.7117 67.4551C46.7547 67.4501 46.7987 67.4451 46.8417 67.4401C47.0657 67.4141 47.2797 67.3841 47.4847 67.3511C47.7557 67.3081 48.0107 67.2601 48.2437 67.2071C48.2447 67.2061 48.2457 67.2061 48.2467 67.2061C48.4297 67.1641 48.5947 67.1191 48.7507 67.0721H48.8617V67.3201V67.4641V68.3791C48.7687 68.4491 48.5737 68.5651 48.2117 68.6851C47.9567 68.7701 47.6167 68.8561 47.1677 68.9301C47.1197 68.9381 47.0697 68.9461 47.0187 68.9541C47.0057 68.9561 46.9907 68.9581 46.9777 68.9591C46.8807 68.9741 46.7797 68.9881 46.6727 69.0011C46.6167 69.0081 46.5577 69.0141 46.4987 69.0201C46.3697 69.0341 46.2337 69.0471 46.0917 69.0581C45.7327 69.0881 45.3347 69.1101 44.8837 69.1211L43.9927 68.7491L40.3587 67.2351C41.3707 67.4521 42.7317 67.5861 44.2337 67.5861C44.8777 67.5861 45.4937 67.5601 46.0707 67.5151C46.2007 67.5051 46.3307 67.4951 46.4557 67.4831ZM38.5777 70.6221V72.3631V72.3641V72.6911L38.6207 72.8971C38.7617 73.2191 39.5837 74.2711 44.2337 74.2711C48.8827 74.2711 49.7057 73.2191 49.8467 72.8971L49.8827 70.6221L49.8837 70.5391L49.8857 70.4341C49.8857 70.4271 49.8897 70.4211 49.8897 70.4141C49.8897 70.4081 49.8867 70.4021 49.8857 70.3971L49.8897 70.1571H49.7767C49.7717 70.1521 49.7647 70.1471 49.7597 70.1411C49.7107 70.0891 49.6437 70.0391 49.5677 69.9901C49.5107 69.9521 49.4477 69.9161 49.3757 69.8811C49.3317 69.9031 49.2817 69.9251 49.2327 69.9471C49.2147 69.9551 49.1977 69.9641 49.1787 69.9721C49.1247 69.9951 49.0657 70.0181 49.0067 70.0411C48.9037 70.0801 48.7947 70.1191 48.6747 70.1571C48.6697 70.1591 48.6637 70.1611 48.6577 70.1621C48.5287 70.2031 48.3897 70.2421 48.2387 70.2801C47.3487 70.5041 46.0747 70.6711 44.2337 70.6711C42.0807 70.6711 40.7007 70.4441 39.8087 70.1621C39.8037 70.1611 39.7977 70.1591 39.7927 70.1571C39.6037 70.0971 39.4357 70.0351 39.2887 69.9721C39.2187 69.9421 39.1527 69.9111 39.0917 69.8811C38.9157 69.9681 38.7767 70.0611 38.6907 70.1571H38.5777V70.4131V70.4141C38.5777 70.4141 38.5777 70.4141 38.5777 70.4151V70.6221ZM40.3587 71.3491C41.3707 71.5661 42.7317 71.6991 44.2337 71.6991C46.0817 71.6991 47.7167 71.4971 48.7497 71.1861H48.8617V72.4921C48.6207 72.6731 47.7067 73.1671 44.8837 73.2341L40.3587 71.3491ZM60.1967 36.4687H60.0827V39.0027V39.0037L60.1257 39.2097C60.1877 39.3507 60.3817 39.6327 60.9717 39.9037C61.0717 39.9507 61.1877 39.9957 61.3127 40.0407C61.3737 40.0627 61.4367 40.0837 61.5047 40.1057C61.7247 40.1757 61.9817 40.2417 62.2767 40.3017C63.0917 40.4667 64.2027 40.5827 65.7397 40.5827C65.8567 40.5827 65.9617 40.5787 66.0737 40.5777C66.1957 40.5757 66.3197 40.5757 66.4367 40.5727C66.4597 40.5717 66.4867 40.5717 66.5107 40.5717C66.6287 40.5677 66.7377 40.5627 66.8507 40.5577C67.0737 40.5477 67.2867 40.5367 67.4877 40.5227C67.6217 40.5127 67.7547 40.5027 67.8787 40.4907C68.1847 40.4617 68.4617 40.4267 68.7167 40.3867C68.8887 40.3607 69.0507 40.3317 69.2007 40.3017C69.2747 40.2867 69.3467 40.2707 69.4167 40.2557C69.6227 40.2077 69.8087 40.1577 69.9737 40.1057C70.0407 40.0837 70.1047 40.0627 70.1657 40.0407C70.2907 39.9957 70.4057 39.9507 70.5057 39.9037C70.5617 39.8787 70.6097 39.8527 70.6587 39.8267C70.6617 39.8247 70.6657 39.8237 70.6687 39.8217C70.6907 39.8097 70.7167 39.7987 70.7367 39.7867C70.9647 39.6587 71.1097 39.5337 71.2047 39.4267C71.2217 39.4077 71.2387 39.3887 71.2517 39.3717C71.3017 39.3077 71.3337 39.2517 71.3527 39.2097L71.3677 38.2567L71.3757 37.7457L71.3837 37.2277L71.3887 36.9337L71.3897 36.8417L71.3917 36.7437C71.3917 36.7377 71.3957 36.7317 71.3957 36.7257C71.3957 36.7227 71.3937 36.7197 71.3937 36.7167C71.3937 36.7157 71.3927 36.7147 71.3927 36.7137C71.3927 36.7127 71.3917 36.7117 71.3917 36.7097L71.3957 36.4687H71.2817C71.2777 36.4647 71.2717 36.4597 71.2677 36.4557C71.2307 36.4167 71.1887 36.3787 71.1367 36.3407C71.0667 36.2897 70.9787 36.2407 70.8817 36.1927C70.8207 36.2237 70.7547 36.2537 70.6837 36.2847C70.6747 36.2887 70.6667 36.2927 70.6567 36.2967C70.5527 36.3407 70.4387 36.3847 70.3147 36.4277C70.2737 36.4417 70.2267 36.4547 70.1837 36.4687C70.1767 36.4707 70.1697 36.4727 70.1637 36.4747C69.9877 36.5307 69.7907 36.5827 69.5727 36.6327C69.4457 36.6627 69.3097 36.6907 69.1667 36.7167C69.1607 36.7177 69.1547 36.7187 69.1487 36.7207C68.7697 36.7907 68.3337 36.8497 67.8367 36.8947C67.4857 36.9257 67.1117 36.9517 66.6957 36.9657C66.5057 36.9727 66.2997 36.9747 66.0947 36.9777C66.0507 36.9777 66.0077 36.9787 65.9617 36.9797H65.9607C65.8847 36.9797 65.8167 36.9827 65.7387 36.9827C65.6807 36.9827 65.6317 36.9807 65.5747 36.9807C63.5187 36.9687 62.1817 36.7487 61.3137 36.4747C61.3077 36.4727 61.3007 36.4707 61.2947 36.4687C61.1077 36.4087 60.9397 36.3477 60.7937 36.2847C60.7237 36.2537 60.6577 36.2237 60.5967 36.1927C60.4207 36.2797 60.2827 36.3717 60.1967 36.4687ZM61.8637 37.6606C62.8387 37.8696 64.1387 37.9996 65.5747 38.0096C65.6297 38.0096 65.6837 38.0116 65.7387 38.0116C65.8137 38.0116 65.8867 38.0096 65.9607 38.0086C66.0627 38.0076 66.1657 38.0076 66.2667 38.0056C66.2927 38.0046 66.3197 38.0046 66.3457 38.0036C66.5647 37.9986 66.7777 37.9896 66.9887 37.9786C67.2597 37.9646 67.5227 37.9466 67.7777 37.9236C67.7867 37.9226 67.7957 37.9226 67.8037 37.9216C68.2987 37.8776 68.7577 37.8176 69.1727 37.7456C69.5817 37.6746 69.9457 37.5906 70.2557 37.4976H70.3667V37.7456V38.2266V38.8046C70.3257 38.8356 70.2617 38.8766 70.1747 38.9226C69.9137 39.0596 69.4197 39.2436 68.5247 39.3786C68.3467 39.4056 68.1517 39.4306 67.9397 39.4526C67.5487 39.4926 67.0957 39.5236 66.5767 39.5396C66.5137 39.5416 66.4537 39.5446 66.3887 39.5456L66.3457 39.5276L65.9867 39.3786L65.9607 39.3676L65.5747 39.2066L65.4957 39.1736L61.8637 37.6606ZM60.1967 40.5826H60.0827V43.1166V43.1176L60.1257 43.3226C60.1877 43.4646 60.3817 43.7456 60.9717 44.0176C61.0717 44.0636 61.1877 44.1096 61.3117 44.1536C61.3727 44.1756 61.4367 44.1976 61.5037 44.2186C61.7247 44.2896 61.9817 44.3546 62.2767 44.4146C63.0917 44.5806 64.2027 44.6956 65.7397 44.6956C65.8567 44.6956 65.9617 44.6926 66.0737 44.6916C66.1957 44.6896 66.3197 44.6886 66.4367 44.6856C66.4597 44.6856 66.4867 44.6856 66.5107 44.6846C66.6297 44.6816 66.7377 44.6756 66.8507 44.6716C67.0737 44.6616 67.2867 44.6506 67.4887 44.6356C67.6217 44.6266 67.7547 44.6156 67.8787 44.6046C68.1847 44.5756 68.4617 44.5406 68.7167 44.5006C68.8887 44.4736 69.0507 44.4456 69.2007 44.4146C69.2747 44.3996 69.3477 44.3846 69.4167 44.3686C69.6227 44.3216 69.8087 44.2716 69.9737 44.2186C70.0417 44.1976 70.1047 44.1756 70.1657 44.1536C70.2907 44.1096 70.4057 44.0636 70.5057 44.0176C70.5617 43.9916 70.6097 43.9666 70.6587 43.9406C70.6627 43.9386 70.6657 43.9366 70.6697 43.9346C70.6907 43.9236 70.7167 43.9116 70.7367 43.9006C70.9647 43.7716 71.1097 43.6476 71.2057 43.5396C71.2217 43.5206 71.2387 43.5026 71.2527 43.4846C71.3017 43.4216 71.3337 43.3656 71.3527 43.3226L71.3677 42.3706L71.3757 41.8596L71.3837 41.3406L71.3887 41.0476L71.3897 40.9556L71.3917 40.8576C71.3917 40.8516 71.3957 40.8456 71.3957 40.8396C71.3957 40.8366 71.3937 40.8336 71.3937 40.8306C71.3937 40.8296 71.3927 40.8286 71.3927 40.8276C71.3927 40.8266 71.3917 40.8246 71.3917 40.8236L71.3957 40.5826H71.2817C71.2777 40.5776 71.2717 40.5736 71.2677 40.5686C71.2307 40.5296 71.1887 40.4916 71.1367 40.4546C71.0667 40.4036 70.9787 40.3546 70.8817 40.3066C70.8207 40.3366 70.7547 40.3676 70.6837 40.3976C70.6747 40.4016 70.6667 40.4056 70.6567 40.4106C70.5527 40.4546 70.4387 40.4976 70.3147 40.5406C70.2737 40.5546 70.2267 40.5686 70.1827 40.5826C70.1767 40.5846 70.1697 40.5856 70.1637 40.5876C69.9877 40.6436 69.7897 40.6966 69.5727 40.7466C69.4447 40.7766 69.3087 40.8036 69.1657 40.8306C69.1597 40.8316 69.1547 40.8326 69.1487 40.8336C68.7697 40.9046 68.3337 40.9636 67.8367 41.0076C67.4857 41.0396 67.1127 41.0656 66.6957 41.0796C66.5057 41.0866 66.2997 41.0886 66.0947 41.0906C66.0497 41.0916 66.0077 41.0926 65.9617 41.0926H65.9607C65.8847 41.0936 65.8167 41.0966 65.7387 41.0966C65.6807 41.0966 65.6317 41.0946 65.5747 41.0936C63.5187 41.0826 62.1817 40.8616 61.3137 40.5876C61.3077 40.5856 61.3007 40.5846 61.2957 40.5826C61.1077 40.5226 60.9397 40.4606 60.7937 40.3976C60.7237 40.3676 60.6577 40.3366 60.5967 40.3066C60.4207 40.3936 60.2827 40.4856 60.1967 40.5826ZM61.8637 41.7736C62.8397 41.9826 64.1387 42.1136 65.5747 42.1226C65.6297 42.1236 65.6837 42.1246 65.7387 42.1246C65.8137 42.1246 65.8867 42.1226 65.9607 42.1226C66.0627 42.1216 66.1657 42.1206 66.2667 42.1186C66.2927 42.1186 66.3197 42.1176 66.3457 42.1176C66.5647 42.1116 66.7777 42.1026 66.9887 42.0926C67.2597 42.0786 67.5227 42.0596 67.7777 42.0376C67.7867 42.0366 67.7957 42.0356 67.8037 42.0346C68.2987 41.9906 68.7567 41.9316 69.1717 41.8596C69.5817 41.7876 69.9457 41.7046 70.2557 41.6106H70.3667V41.8596V42.3406V42.9176C70.3257 42.9496 70.2617 42.9896 70.1747 43.0356C69.9137 43.1726 69.4197 43.3576 68.5247 43.4926C68.3467 43.5196 68.1517 43.5436 67.9397 43.5656C67.5487 43.6066 67.0957 43.6366 66.5767 43.6536C66.5137 43.6556 66.4537 43.6576 66.3887 43.6596L66.3457 43.6416L65.9867 43.4916L65.9607 43.4806L65.5747 43.3206L65.4967 43.2876L61.8637 41.7736ZM60.1957 44.6955H60.0827V47.2295V47.2305L60.1257 47.4365C60.1877 47.5775 60.3817 47.8595 60.9717 48.1315C61.0717 48.1775 61.1877 48.2225 61.3117 48.2675C61.3727 48.2895 61.4367 48.3115 61.5037 48.3325C61.7247 48.4025 61.9817 48.4685 62.2767 48.5285C63.0907 48.6935 64.2027 48.8095 65.7397 48.8095C65.8567 48.8095 65.9617 48.8065 66.0747 48.8045C66.1957 48.8035 66.3197 48.8025 66.4357 48.7995C66.4597 48.7995 66.4867 48.7995 66.5107 48.7985C66.6297 48.7955 66.7377 48.7895 66.8507 48.7845C67.0737 48.7755 67.2867 48.7645 67.4887 48.7495C67.6217 48.7395 67.7547 48.7295 67.8787 48.7175C68.1847 48.6895 68.4607 48.6535 68.7157 48.6145C68.8887 48.5875 69.0507 48.5595 69.2017 48.5285C69.2757 48.5135 69.3477 48.4985 69.4167 48.4825C69.6227 48.4355 69.8087 48.3855 69.9737 48.3325C70.0417 48.3115 70.1057 48.2895 70.1667 48.2675C70.2907 48.2225 70.4057 48.1775 70.5057 48.1315C70.5617 48.1055 70.6097 48.0795 70.6587 48.0535C70.6627 48.0525 70.6667 48.0505 70.6697 48.0485C70.6917 48.0375 70.7167 48.0255 70.7367 48.0135C70.9647 47.8855 71.1097 47.7615 71.2047 47.6545C71.2217 47.6355 71.2387 47.6165 71.2527 47.5985C71.3017 47.5345 71.3337 47.4785 71.3527 47.4365L71.3677 46.4835L71.3757 45.9725L71.3837 45.4545L71.3887 45.1615L71.3897 45.0685L71.3917 44.9705C71.3917 44.9645 71.3957 44.9585 71.3957 44.9525C71.3957 44.9495 71.3937 44.9465 71.3937 44.9435C71.3937 44.9425 71.3927 44.9415 71.3927 44.9415C71.3927 44.9395 71.3917 44.9385 71.3917 44.9375L71.3957 44.6955H71.2817C71.2777 44.6915 71.2717 44.6865 71.2677 44.6825C71.2307 44.6435 71.1887 44.6055 71.1367 44.5685C71.0667 44.5165 70.9787 44.4675 70.8817 44.4195C70.8207 44.4505 70.7547 44.4805 70.6837 44.5115C70.6747 44.5155 70.6667 44.5195 70.6567 44.5235C70.5527 44.5675 70.4387 44.6115 70.3147 44.6545C70.2737 44.6685 70.2267 44.6815 70.1827 44.6955C70.1767 44.6975 70.1697 44.6995 70.1637 44.7015C69.9877 44.7575 69.7897 44.8105 69.5727 44.8605C69.4457 44.8895 69.3107 44.9175 69.1677 44.9435C69.1617 44.9455 69.1557 44.9465 69.1497 44.9475C68.7697 45.0175 68.3347 45.0765 67.8377 45.1215C67.4857 45.1525 67.1117 45.1785 66.6947 45.1935C66.5057 45.2005 66.2987 45.2015 66.0947 45.2045C66.0497 45.2055 66.0077 45.2065 65.9617 45.2065H65.9607C65.8847 45.2075 65.8167 45.2105 65.7387 45.2105C65.6807 45.2105 65.6317 45.2075 65.5747 45.2075C63.5187 45.1955 62.1817 44.9755 61.3137 44.7015C61.3077 44.6995 61.3007 44.6975 61.2957 44.6955C61.1077 44.6365 60.9397 44.5745 60.7937 44.5115C60.7237 44.4805 60.6577 44.4505 60.5967 44.4195C60.4207 44.5075 60.2827 44.5995 60.1957 44.6955ZM61.8637 45.8875C62.8387 46.0965 64.1387 46.2265 65.5747 46.2365C65.6297 46.2365 65.6837 46.2385 65.7387 46.2385C65.8137 46.2385 65.8867 46.2365 65.9607 46.2355C66.0627 46.2345 66.1657 46.2345 66.2667 46.2325C66.2927 46.2315 66.3197 46.2315 66.3457 46.2305C66.5647 46.2255 66.7777 46.2165 66.9887 46.2055C67.2597 46.1915 67.5227 46.1735 67.7777 46.1505C67.7867 46.1505 67.7957 46.1495 67.8037 46.1485C68.2987 46.1045 68.7587 46.0445 69.1737 45.9725C69.5827 45.9015 69.9457 45.8175 70.2557 45.7245H70.3667V45.9725V46.4535V47.0315C70.3257 47.0625 70.2617 47.1035 70.1737 47.1495C69.9137 47.2865 69.4187 47.4715 68.5237 47.6065C68.3457 47.6325 68.1507 47.6575 67.9397 47.6795C67.5477 47.7205 67.0957 47.7505 66.5767 47.7665C66.5147 47.7685 66.4547 47.7715 66.3897 47.7735L66.3457 47.7545L65.9867 47.6055L65.9607 47.5945L65.5747 47.4335L65.4977 47.4015L61.8637 45.8875ZM60.1957 48.8095H60.0827V51.3425V51.3445L60.1257 51.5495C60.1877 51.6915 60.3817 51.9725 60.9717 52.2445C61.0727 52.2905 61.1877 52.3365 61.3127 52.3805C61.3737 52.4025 61.4367 52.4245 61.5047 52.4455C61.7247 52.5155 61.9817 52.5815 62.2767 52.6415C63.0907 52.8075 64.2027 52.9225 65.7397 52.9225C65.8567 52.9225 65.9617 52.9195 66.0747 52.9185C66.1967 52.9165 66.3207 52.9155 66.4367 52.9125C66.4607 52.9125 66.4877 52.9125 66.5107 52.9115C66.6297 52.9085 66.7377 52.9025 66.8507 52.8975C67.0737 52.8885 67.2867 52.8775 67.4877 52.8625C67.6217 52.8535 67.7537 52.8425 67.8787 52.8315C68.1847 52.8025 68.4607 52.7675 68.7157 52.7275C68.8877 52.7005 69.0507 52.6725 69.2017 52.6415C69.2747 52.6265 69.3477 52.6115 69.4157 52.5955C69.6227 52.5485 69.8087 52.4985 69.9737 52.4465C70.0407 52.4245 70.1047 52.4025 70.1657 52.3815C70.2897 52.3365 70.4057 52.2905 70.5057 52.2445C70.5617 52.2185 70.6097 52.1935 70.6587 52.1675C70.6617 52.1655 70.6657 52.1635 70.6687 52.1625C70.6907 52.1505 70.7167 52.1385 70.7367 52.1275C70.9647 51.9995 71.1097 51.8745 71.2047 51.7675C71.2217 51.7485 71.2387 51.7295 71.2517 51.7115C71.3017 51.6485 71.3337 51.5925 71.3527 51.5495L71.3677 50.5975L71.3757 50.0865L71.3837 49.5675L71.3887 49.2745L71.3897 49.1825L71.3917 49.0845C71.3917 49.0785 71.3957 49.0725 71.3957 49.0665C71.3957 49.0635 71.3937 49.0605 71.3937 49.0585C71.3937 49.0575 71.3927 49.0555 71.3927 49.0545C71.3927 49.0535 71.3917 49.0525 71.3917 49.0505L71.3957 48.8095H71.2817C71.2777 48.8055 71.2727 48.8005 71.2687 48.7965C71.2317 48.7575 71.1887 48.7195 71.1367 48.6815C71.0667 48.6305 70.9787 48.5815 70.8817 48.5335C70.8197 48.5635 70.7537 48.5945 70.6837 48.6245C70.6737 48.6285 70.6667 48.6335 70.6567 48.6375C70.5517 48.6815 70.4377 48.7255 70.3127 48.7685C70.2717 48.7825 70.2247 48.7955 70.1807 48.8095C70.1757 48.8115 70.1697 48.8135 70.1637 48.8145C69.9867 48.8705 69.7887 48.9235 69.5707 48.9735C69.4427 49.0035 69.3057 49.0315 69.1617 49.0585C69.1567 49.0585 69.1527 49.0595 69.1477 49.0605C68.7687 49.1305 68.3327 49.1895 67.8357 49.2345C67.4857 49.2655 67.1127 49.2915 66.6967 49.3065C66.5067 49.3125 66.2997 49.3145 66.0957 49.3175C66.0507 49.3175 66.0077 49.3195 65.9617 49.3195H65.9607C65.8847 49.3205 65.8167 49.3225 65.7387 49.3225C65.6807 49.3225 65.6317 49.3205 65.5747 49.3205C63.5197 49.3085 62.1827 49.0885 61.3137 48.8145C61.3087 48.8135 61.3027 48.8115 61.2967 48.8095C61.1087 48.7495 60.9407 48.6875 60.7937 48.6245C60.7237 48.5945 60.6577 48.5635 60.5967 48.5335C60.4207 48.6205 60.2827 48.7125 60.1957 48.8095ZM61.8637 50.0014C62.8387 50.2094 64.1387 50.3404 65.5747 50.3494C65.6297 50.3504 65.6837 50.3514 65.7387 50.3514C65.8137 50.3514 65.8867 50.3494 65.9607 50.3494C66.0627 50.3484 66.1657 50.3474 66.2667 50.3454C66.2927 50.3454 66.3197 50.3444 66.3457 50.3444C66.5647 50.3384 66.7777 50.3304 66.9887 50.3194C67.2597 50.3054 67.5227 50.2864 67.7777 50.2644C67.7867 50.2634 67.7957 50.2624 67.8037 50.2624C68.2977 50.2184 68.7557 50.1584 69.1707 50.0864C69.5807 50.0154 69.9447 49.9314 70.2547 49.8384H70.3667V50.0864V50.5674V51.1444C70.3257 51.1754 70.2617 51.2164 70.1737 51.2624C69.9127 51.3994 69.4187 51.5844 68.5237 51.7194C68.3457 51.7464 68.1507 51.7704 67.9397 51.7924C67.5477 51.8334 67.0957 51.8634 66.5767 51.8804C66.5137 51.8824 66.4537 51.8844 66.3887 51.8864L66.3457 51.8684L65.9867 51.7194L65.9607 51.7084L65.5747 51.5474L65.4967 51.5144L61.8637 50.0014ZM60.1967 52.9224H60.0827V55.4564V55.4584L60.1257 55.6634C60.1877 55.8054 60.3817 56.0864 60.9717 56.3584C61.0717 56.4044 61.1877 56.4504 61.3117 56.4944C61.3727 56.5164 61.4367 56.5384 61.5037 56.5594C61.7237 56.6294 61.9807 56.6954 62.2757 56.7554C63.0897 56.9214 64.2027 57.0374 65.7397 57.0374C65.8567 57.0374 65.9617 57.0334 66.0737 57.0324C66.1957 57.0304 66.3197 57.0294 66.4357 57.0264C66.4597 57.0264 66.4877 57.0264 66.5117 57.0254C66.6297 57.0224 66.7377 57.0164 66.8497 57.0124C67.0727 57.0024 67.2877 56.9914 67.4897 56.9764C67.6237 56.9674 67.7557 56.9564 67.8807 56.9454C68.1857 56.9164 68.4617 56.8814 68.7157 56.8414C68.8887 56.8154 69.0507 56.7864 69.2017 56.7554C69.2757 56.7404 69.3487 56.7254 69.4177 56.7094C69.6237 56.6624 69.8097 56.6124 69.9747 56.5594C70.0417 56.5384 70.1057 56.5164 70.1667 56.4944C70.2907 56.4504 70.4057 56.4044 70.5057 56.3584C70.5627 56.3324 70.6107 56.3064 70.6597 56.2804C70.6627 56.2794 70.6667 56.2774 70.6697 56.2754C70.6917 56.2634 70.7177 56.2524 70.7387 56.2404C70.9657 56.1124 71.1107 55.9874 71.2057 55.8804C71.2217 55.8614 71.2387 55.8434 71.2527 55.8254C71.3017 55.7614 71.3337 55.7064 71.3527 55.6634L71.3677 54.7104L71.3757 54.1994L71.3837 53.6804L71.3887 53.3884L71.3897 53.2964L71.3917 53.1974C71.3917 53.1914 71.3957 53.1864 71.3957 53.1794C71.3957 53.1764 71.3937 53.1744 71.3937 53.1714C71.3937 53.1704 71.3927 53.1694 71.3927 53.1684C71.3927 53.1664 71.3917 53.1654 71.3917 53.1644L71.3957 52.9224H71.2817C71.2777 52.9184 71.2717 52.9144 71.2677 52.9094C71.2317 52.8704 71.1887 52.8324 71.1367 52.7954C71.0667 52.7434 70.9787 52.6944 70.8817 52.6464C70.8197 52.6774 70.7537 52.7074 70.6837 52.7384C70.6747 52.7424 70.6667 52.7464 70.6567 52.7504C70.5527 52.7954 70.4387 52.8384 70.3137 52.8814C70.2727 52.8954 70.2257 52.9084 70.1827 52.9224C70.1767 52.9244 70.1697 52.9264 70.1637 52.9284C69.9877 52.9844 69.7897 53.0374 69.5727 53.0874C69.4447 53.1164 69.3087 53.1444 69.1657 53.1714C69.1597 53.1724 69.1547 53.1734 69.1487 53.1744C68.7697 53.2444 68.3347 53.3034 67.8387 53.3484C67.4867 53.3794 67.1127 53.4054 66.6957 53.4204C66.5057 53.4264 66.2997 53.4284 66.0947 53.4314C66.0497 53.4324 66.0077 53.4334 65.9617 53.4334H65.9607C65.8847 53.4344 65.8167 53.4374 65.7387 53.4374C65.6807 53.4374 65.6317 53.4344 65.5747 53.4344C63.5187 53.4224 62.1817 53.2024 61.3137 52.9284C61.3077 52.9264 61.3007 52.9244 61.2957 52.9224C61.1077 52.8634 60.9397 52.8014 60.7937 52.7384C60.7237 52.7074 60.6577 52.6774 60.5967 52.6464C60.4207 52.7344 60.2827 52.8264 60.1967 52.9224ZM61.8637 54.1144C62.8397 54.3234 64.1387 54.4544 65.5747 54.4634C65.6297 54.4634 65.6837 54.4654 65.7387 54.4654C65.8137 54.4654 65.8867 54.4634 65.9607 54.4624C66.0627 54.4614 66.1657 54.4614 66.2667 54.4594C66.2927 54.4584 66.3197 54.4584 66.3457 54.4574C66.5647 54.4524 66.7777 54.4434 66.9887 54.4324C67.2597 54.4184 67.5227 54.4004 67.7777 54.3774C67.7867 54.3774 67.7957 54.3764 67.8047 54.3754C68.2987 54.3314 68.7577 54.2724 69.1727 54.1994C69.5817 54.1284 69.9457 54.0454 70.2557 53.9514H70.3667V54.1994V54.6814V55.2584C70.3257 55.2894 70.2617 55.3304 70.1747 55.3764C69.9137 55.5134 69.4187 55.6984 68.5237 55.8334C68.3457 55.8604 68.1517 55.8844 67.9407 55.9064C67.5497 55.9474 67.0957 55.9784 66.5777 55.9944C66.5147 55.9964 66.4547 55.9984 66.3897 56.0004L66.3457 55.9824L65.9867 55.8324L65.9607 55.8214L65.5747 55.6604L65.4987 55.6284L61.8637 54.1144ZM60.1957 57.0373H60.0827V59.5703V59.5713L60.1257 59.7773C60.1877 59.9183 60.3817 60.2003 60.9717 60.4713C61.0717 60.5183 61.1877 60.5633 61.3117 60.6083C61.3727 60.6303 61.4367 60.6513 61.5037 60.6733C61.7247 60.7433 61.9817 60.8093 62.2767 60.8693C63.0907 61.0343 64.2027 61.1503 65.7397 61.1503C65.8567 61.1503 65.9617 61.1463 66.0747 61.1453C66.1957 61.1443 66.3197 61.1433 66.4357 61.1403C66.4597 61.1393 66.4867 61.1393 66.5107 61.1393C66.6297 61.1353 66.7377 61.1303 66.8507 61.1253C67.0737 61.1163 67.2867 61.1043 67.4887 61.0903C67.6217 61.0803 67.7547 61.0703 67.8787 61.0583C68.1847 61.0293 68.4607 60.9943 68.7157 60.9553C68.8887 60.9283 69.0507 60.8993 69.2017 60.8693C69.2757 60.8543 69.3477 60.8383 69.4167 60.8233C69.6227 60.7753 69.8087 60.7253 69.9737 60.6733C70.0417 60.6513 70.1057 60.6303 70.1657 60.6083C70.2907 60.5633 70.4057 60.5183 70.5057 60.4723C70.5617 60.4463 70.6097 60.4203 70.6587 60.3943C70.6627 60.3923 70.6657 60.3913 70.6697 60.3893C70.6917 60.3773 70.7167 60.3663 70.7367 60.3543C70.9647 60.2263 71.1097 60.1023 71.2047 59.9943C71.2217 59.9753 71.2387 59.9563 71.2527 59.9393C71.3017 59.8753 71.3337 59.8193 71.3527 59.7773L71.3677 58.8243L71.3757 58.3133L71.3837 57.7953L71.3887 57.5013L71.3897 57.4093L71.3917 57.3113C71.3917 57.3053 71.3957 57.2993 71.3957 57.2933C71.3957 57.2903 71.3937 57.2873 71.3937 57.2843C71.3937 57.2833 71.3927 57.2823 71.3927 57.2813C71.3927 57.2803 71.3917 57.2793 71.3917 57.2773L71.3957 57.0373H71.2817C71.2777 57.0323 71.2727 57.0283 71.2687 57.0233C71.2317 56.9843 71.1887 56.9463 71.1367 56.9083C71.0667 56.8573 70.9787 56.8083 70.8817 56.7603C70.8207 56.7903 70.7547 56.8213 70.6837 56.8513C70.6747 56.8563 70.6667 56.8603 70.6567 56.8643C70.5527 56.9083 70.4377 56.9523 70.3127 56.9953C70.2717 57.0093 70.2247 57.0233 70.1807 57.0373C70.1757 57.0383 70.1697 57.0403 70.1637 57.0423C69.9877 57.0973 69.7897 57.1503 69.5727 57.2003C69.4457 57.2303 69.3097 57.2573 69.1667 57.2843C69.1607 57.2853 69.1547 57.2863 69.1487 57.2873C68.7687 57.3583 68.3337 57.4173 67.8367 57.4613C67.4857 57.4933 67.1127 57.5193 66.6957 57.5333C66.5057 57.5403 66.2997 57.5423 66.0957 57.5443C66.0507 57.5453 66.0077 57.5463 65.9617 57.5463H65.9607C65.8847 57.5473 65.8167 57.5503 65.7387 57.5503C65.6807 57.5503 65.6317 57.5483 65.5747 57.5473C63.5187 57.5363 62.1817 57.3163 61.3137 57.0413C61.3087 57.0403 61.3027 57.0383 61.2967 57.0373C61.1087 56.9773 60.9407 56.9153 60.7937 56.8513C60.7237 56.8213 60.6577 56.7903 60.5967 56.7603C60.4207 56.8473 60.2817 56.9403 60.1957 57.0373ZM61.8637 58.2283C62.8397 58.4373 64.1387 58.5673 65.5747 58.5773C65.6297 58.5773 65.6837 58.5783 65.7387 58.5783C65.8137 58.5783 65.8867 58.5773 65.9607 58.5763C66.0627 58.5753 66.1657 58.5753 66.2667 58.5723C66.2927 58.5723 66.3197 58.5713 66.3457 58.5713C66.5647 58.5663 66.7777 58.5573 66.9887 58.5463C67.2597 58.5323 67.5227 58.5133 67.7777 58.4913C67.7867 58.4903 67.7957 58.4903 67.8037 58.4893C68.2987 58.4453 68.7587 58.3853 69.1747 58.3133C69.5817 58.2423 69.9447 58.1583 70.2537 58.0653H70.3667V58.3133V58.7943V59.3723C70.3257 59.4033 70.2617 59.4443 70.1737 59.4903C69.9137 59.6263 69.4187 59.8123 68.5237 59.9463C68.3457 59.9733 68.1507 59.9983 67.9397 60.0203C67.5477 60.0603 67.0957 60.0913 66.5767 60.1073C66.5137 60.1093 66.4547 60.1123 66.3897 60.1133L66.3457 60.0953L65.9867 59.9463L65.9607 59.9353L65.5747 59.7743L65.4977 59.7423L61.8637 58.2283ZM60.1957 61.1502H60.0827V63.6842V63.6852L60.1257 63.8912C60.1877 64.0322 60.3817 64.3142 60.9717 64.5852C61.0717 64.6312 61.1877 64.6772 61.3117 64.7212C61.3727 64.7432 61.4367 64.7652 61.5037 64.7862C61.7247 64.8562 61.9817 64.9222 62.2757 64.9822C63.0597 65.1412 64.1257 65.2522 65.5747 65.2612C65.6317 65.2612 65.6817 65.2632 65.7397 65.2632C65.8167 65.2632 65.8847 65.2602 65.9607 65.2602C65.9697 65.2602 65.9787 65.2602 65.9877 65.2602C66.0637 65.2592 66.1357 65.2582 66.2087 65.2562C66.3087 65.2552 66.4147 65.2552 66.5107 65.2522C66.6717 65.2482 66.8197 65.2402 66.9697 65.2332C67.1487 65.2242 67.3227 65.2152 67.4877 65.2032C67.6217 65.1932 67.7547 65.1832 67.8787 65.1712C68.0227 65.1582 68.1557 65.1422 68.2877 65.1262C68.4367 65.1082 68.5807 65.0892 68.7157 65.0682C68.8887 65.0412 69.0507 65.0132 69.2017 64.9822C69.2757 64.9672 69.3477 64.9522 69.4167 64.9362C69.6227 64.8892 69.8087 64.8392 69.9737 64.7862C70.0417 64.7652 70.1057 64.7432 70.1667 64.7212C70.2907 64.6772 70.4067 64.6312 70.5067 64.5852C70.5597 64.5612 70.6047 64.5362 70.6517 64.5122C70.6797 64.4972 70.7127 64.4822 70.7387 64.4672C70.9687 64.3372 71.1147 64.2112 71.2097 64.1032C71.2097 64.1032 71.2097 64.1022 71.2107 64.1022C71.2247 64.0852 71.2407 64.0682 71.2527 64.0522C71.3017 63.9892 71.3337 63.9332 71.3527 63.8912L71.3547 63.7192L71.3677 62.9372L71.3757 62.4272L71.3837 61.9082L71.3887 61.6152L71.3897 61.5232L71.3917 61.4252C71.3917 61.4192 71.3957 61.4132 71.3957 61.4072C71.3957 61.4042 71.3937 61.4012 71.3937 61.3982C71.3937 61.3972 71.3927 61.3962 71.3927 61.3952C71.3927 61.3942 71.3917 61.3922 71.3917 61.3912L71.3957 61.1502H71.2817C71.2777 61.1452 71.2727 61.1412 71.2677 61.1372C71.2317 61.0982 71.1887 61.0592 71.1367 61.0222C71.0667 60.9712 70.9777 60.9222 70.8817 60.8732C70.8197 60.9042 70.7537 60.9342 70.6837 60.9652C70.6737 60.9692 70.6667 60.9732 70.6567 60.9782C70.5517 61.0222 70.4377 61.0652 70.3127 61.1082C70.2717 61.1222 70.2247 61.1362 70.1807 61.1502C70.1757 61.1522 70.1697 61.1532 70.1637 61.1552C69.9867 61.2112 69.7887 61.2642 69.5707 61.3142C69.4427 61.3442 69.3057 61.3712 69.1617 61.3982C69.1567 61.3992 69.1517 61.4002 69.1477 61.4012C68.7677 61.4712 68.3327 61.5302 67.8357 61.5752C67.4857 61.6062 67.1127 61.6322 66.6967 61.6462C66.5067 61.6532 66.2997 61.6552 66.0957 61.6572C66.0507 61.6582 66.0077 61.6592 65.9617 61.6602H65.9607C65.8847 61.6602 65.8167 61.6632 65.7387 61.6632C65.6807 61.6632 65.6317 61.6612 65.5747 61.6612C63.5197 61.6492 62.1827 61.4292 61.3137 61.1552C61.3087 61.1532 61.3027 61.1522 61.2967 61.1502C61.1087 61.0902 60.9407 61.0282 60.7937 60.9652C60.7237 60.9342 60.6577 60.9042 60.5967 60.8732C60.4207 60.9612 60.2827 61.0532 60.1957 61.1502ZM61.8637 62.3412C62.8387 62.5502 64.1387 62.6812 65.5747 62.6902C65.6297 62.6902 65.6837 62.6922 65.7387 62.6922C65.8137 62.6922 65.8867 62.6902 65.9607 62.6902C66.0627 62.6892 66.1657 62.6882 66.2667 62.6862C66.2927 62.6852 66.3197 62.6852 66.3457 62.6842C66.5647 62.6792 66.7777 62.6702 66.9887 62.6602C67.2597 62.6462 67.5227 62.6272 67.7777 62.6052C67.7867 62.6042 67.7957 62.6032 67.8037 62.6022C68.2977 62.5582 68.7567 62.4992 69.1707 62.4272C69.5807 62.3562 69.9447 62.2722 70.2547 62.1782H70.3667V62.4272V62.9082V63.4862C70.3257 63.5172 70.2617 63.5582 70.1747 63.6032C70.0517 63.6682 69.8757 63.7432 69.6297 63.8202C69.3567 63.9042 68.9957 63.9892 68.5247 64.0602C68.3467 64.0872 68.1517 64.1112 67.9397 64.1332C67.8777 64.1402 67.8147 64.1462 67.7497 64.1522C67.4037 64.1832 67.0127 64.2072 66.5767 64.2202C66.5137 64.2222 66.4537 64.2252 66.3887 64.2272L66.3457 64.2092L65.9867 64.0592L65.9607 64.0482L65.5747 63.8882L65.4967 63.8552L61.8637 62.3412ZM60.1967 65.2632H60.0827V67.7972V67.7982L60.1257 68.0042C60.1877 68.1451 60.3817 68.4272 60.9717 68.6992C61.0717 68.7452 61.1877 68.7902 61.3117 68.8352C61.3727 68.8572 61.4367 68.8792 61.5037 68.9002C61.7237 68.9702 61.9807 69.0362 62.2757 69.0962C63.0897 69.2612 64.2027 69.3772 65.7397 69.3772C66.3797 69.3772 66.9407 69.3562 67.4437 69.3212C67.9207 69.2872 68.3397 69.2402 68.7077 69.1832C68.8567 69.1602 69.0017 69.1372 69.1337 69.1112C69.1577 69.1062 69.1787 69.1012 69.2017 69.0962C69.4637 69.0432 69.7017 68.9852 69.9047 68.9242C69.9297 68.9162 69.9497 68.9082 69.9747 68.9002C70.0417 68.8792 70.1057 68.8572 70.1667 68.8352C70.2197 68.8162 70.2707 68.7972 70.3187 68.7772C70.3837 68.7512 70.4487 68.7252 70.5057 68.6992C70.8827 68.5261 71.0957 68.3492 71.2177 68.2072C71.2867 68.1262 71.3297 68.0551 71.3527 68.0042L71.3547 67.8232L71.3737 66.6652L71.3817 66.1552L71.3837 66.0212L71.3887 65.7292L71.3897 65.6362L71.3917 65.5382C71.3917 65.5322 71.3957 65.5262 71.3957 65.5202C71.3957 65.5162 71.3927 65.5122 71.3927 65.5082C71.3927 65.5072 71.3917 65.5061 71.3917 65.5042L71.3957 65.2632H71.2817C71.2777 65.2592 71.2717 65.2542 71.2677 65.2502C71.2307 65.2112 71.1887 65.1731 71.1367 65.1352C71.1327 65.1322 71.1267 65.1292 71.1227 65.1262C71.0547 65.0782 70.9727 65.0322 70.8817 64.9872C70.8197 65.0182 70.7537 65.0482 70.6837 65.0782C70.6737 65.0832 70.6667 65.0872 70.6567 65.0912C70.6287 65.1032 70.5967 65.1142 70.5677 65.1262C70.4877 65.1582 70.4047 65.1902 70.3137 65.2222C70.2727 65.2362 70.2257 65.2492 70.1827 65.2632C70.1767 65.2652 70.1697 65.2672 70.1637 65.2692C69.9877 65.3242 69.7897 65.3772 69.5727 65.4282C69.4397 65.4582 69.2977 65.4872 69.1487 65.5152C68.7697 65.5852 68.3347 65.6442 67.8387 65.6882C67.3927 65.7292 66.8977 65.7561 66.3457 65.7682C66.3057 65.7682 66.2627 65.7692 66.2227 65.7702C66.1357 65.7712 66.0507 65.7732 65.9607 65.7742C65.8847 65.7742 65.8167 65.7772 65.7387 65.7772C65.6807 65.7772 65.6317 65.7752 65.5747 65.7752C63.5187 65.7631 62.1817 65.5432 61.3137 65.2692C61.3077 65.2672 61.3007 65.2652 61.2957 65.2632C61.1077 65.2032 60.9397 65.1422 60.7937 65.0782C60.7237 65.0482 60.6577 65.0182 60.5967 64.9872C60.4207 65.0742 60.2827 65.1662 60.1967 65.2632ZM61.8637 66.4551C62.8387 66.6641 64.1387 66.7941 65.5747 66.8041C65.6297 66.8041 65.6837 66.8061 65.7387 66.8061C65.8137 66.8061 65.8867 66.8041 65.9607 66.8031C66.0197 66.8031 66.0787 66.8021 66.1377 66.8011C66.2067 66.8001 66.2767 66.8001 66.3457 66.7981C66.5647 66.7931 66.7777 66.7841 66.9887 66.7731C67.5317 66.7451 68.0437 66.7001 68.5147 66.6401C68.7447 66.6101 68.9617 66.5771 69.1707 66.5401C69.5807 66.4691 69.9457 66.3851 70.2557 66.2921H70.3667V66.6361V67.4111V67.5991C70.2307 67.7011 69.8757 67.9041 69.0837 68.0731C68.9167 68.1081 68.7317 68.1421 68.5237 68.1741C68.0967 68.2381 67.5777 68.2911 66.9497 68.3211C66.9397 68.3211 66.9307 68.3221 66.9207 68.3221C66.7707 68.3291 66.6117 68.3351 66.4497 68.3391C66.4287 68.3391 66.4107 68.3401 66.3897 68.3411L66.0607 68.2031L65.5747 68.0011L65.4977 67.9691L61.8637 66.4551ZM60.1957 69.3771H60.0827V71.9101V71.9121L60.1257 72.1171C60.1717 72.2221 60.2937 72.4061 60.5947 72.6041C60.6587 72.6461 60.7317 72.6891 60.8127 72.7311C60.8697 72.7621 60.9287 72.7921 60.9957 72.8221C61.1527 72.8931 61.3357 72.9631 61.5517 73.0291C61.6357 73.0561 61.7307 73.0801 61.8257 73.1051C62.6617 73.3251 63.8967 73.4911 65.7397 73.4911C67.5817 73.4911 68.8167 73.3251 69.6527 73.1051C69.7477 73.0801 69.8417 73.0561 69.9257 73.0301C70.1427 72.9631 70.3257 72.8931 70.4827 72.8221C70.5497 72.7921 70.6087 72.7621 70.6657 72.7311C70.7467 72.6891 70.8197 72.6461 70.8827 72.6041C71.1837 72.4061 71.3057 72.2221 71.3527 72.1171L71.3887 69.8421L71.3897 69.7491L71.3917 69.6521C71.3917 69.6461 71.3957 69.6401 71.3957 69.6341C71.3957 69.6281 71.3917 69.6231 71.3917 69.6181L71.3957 69.3771H71.2817C71.2777 69.3721 71.2707 69.3671 71.2667 69.3621C71.2247 69.3181 71.1717 69.2751 71.1097 69.2321C71.0447 69.1871 70.9677 69.1431 70.8817 69.1011C70.8197 69.1311 70.7547 69.1621 70.6837 69.1921C70.6627 69.2011 70.6427 69.2111 70.6207 69.2201C70.5277 69.2581 70.4267 69.2961 70.3187 69.3331C70.2757 69.3481 70.2267 69.3631 70.1807 69.3771C70.1757 69.3791 70.1697 69.3811 70.1637 69.3821C69.8777 69.4731 69.5377 69.5561 69.1407 69.6301C68.2997 69.7851 67.2007 69.8911 65.7387 69.8911C63.5857 69.8911 62.2057 69.6641 61.3137 69.3821C61.3087 69.3801 61.3027 69.3791 61.2967 69.3771C61.1087 69.3171 60.9407 69.2551 60.7937 69.1921C60.7237 69.1621 60.6577 69.1311 60.5967 69.1011C60.4207 69.1881 60.2817 69.2801 60.1957 69.3771ZM61.8637 70.5691C62.8767 70.7851 64.2377 70.9191 65.7387 70.9191C67.5867 70.9191 69.2227 70.7171 70.2547 70.4061H70.3667V71.7121C70.2557 71.7961 69.9967 71.9481 69.4697 72.0931C69.2537 72.1531 68.9887 72.2121 68.6717 72.2641C68.6207 72.2721 68.5687 72.2801 68.5157 72.2881C67.9687 72.3701 67.2737 72.4331 66.3887 72.4541L65.4907 72.0801L65.4897 72.0791L64.6427 71.7261L61.8637 70.5691ZM60.1957 73.105H60.0827V75.311V75.638V75.64L60.1257 75.845C60.2667 76.167 61.0897 77.218 65.7397 77.218C70.3887 77.218 71.2107 76.167 71.3527 75.845L71.3887 73.57L71.3917 73.38C71.3917 73.374 71.3957 73.368 71.3957 73.362C71.3957 73.356 71.3917 73.351 71.3917 73.346L71.3957 73.105H71.2817C71.2597 73.081 71.2297 73.057 71.2017 73.033C71.1647 73.057 71.1237 73.081 71.0817 73.105C71.0657 73.115 71.0477 73.125 71.0307 73.134C70.9137 73.2 70.7837 73.266 70.6267 73.331C69.7767 73.684 68.3007 74.004 65.7387 74.004C63.1767 74.004 61.7007 73.684 60.8507 73.331C60.6947 73.266 60.5647 73.2 60.4477 73.134C60.4297 73.125 60.4127 73.115 60.3957 73.105C60.3547 73.081 60.3137 73.057 60.2767 73.033C60.2487 73.057 60.2177 73.081 60.1957 73.105ZM61.8667 74.297C62.8787 74.514 64.2387 74.647 65.7387 74.647C67.5867 74.647 69.2217 74.445 70.2537 74.134H70.3667V75.44C70.1267 75.621 69.2127 76.115 66.3897 76.182L61.8667 74.297ZM71.3917 69.2361C71.4687 69.2371 71.5377 69.2401 71.6177 69.2401C72.7877 69.2401 73.7137 69.1731 74.4497 69.0681C74.7387 69.0271 74.9917 68.9791 75.2247 68.9271C75.3167 68.9071 75.4067 68.8861 75.4907 68.8651C75.6767 68.8171 75.8427 68.7671 75.9917 68.7151C76.1327 68.6661 76.2627 68.6161 76.3747 68.5651C76.7297 68.4031 76.9417 68.2381 77.0697 68.1001C77.1557 68.0061 77.2047 67.9241 77.2297 67.8661L77.2427 67.0481L77.2507 66.5741L77.2567 66.1551L77.2607 65.9361C77.1327 65.9241 76.9997 65.9141 76.8797 65.9001C76.8557 65.8981 76.8347 65.8941 76.8117 65.8911C76.2977 65.8311 75.8637 65.7541 75.4907 65.6661C75.1747 65.7401 74.8107 65.8061 74.3957 65.8611C74.3277 65.8711 74.2617 65.8801 74.1897 65.8891C74.1837 65.8901 74.1777 65.8911 74.1707 65.8911C74.1437 65.8941 74.1217 65.8981 74.0937 65.9011C73.9737 65.9151 73.8387 65.9251 73.7087 65.9371C73.5817 65.9481 73.4597 65.9611 73.3237 65.9701C72.8617 66.0021 72.3437 66.0191 71.7777 66.0221L71.7767 66.1551L71.7717 66.6661C72.3107 66.6631 72.8317 66.6441 73.3237 66.6081C73.4547 66.5991 73.5817 66.5881 73.7087 66.5761C73.7977 66.5681 73.8837 66.5601 73.9697 66.5511C74.0117 66.5461 74.0527 66.5421 74.0937 66.5371C74.3167 66.5121 74.5327 66.4851 74.7377 66.4551C75.0067 66.4141 75.2567 66.3681 75.4907 66.3181C75.7247 66.2681 75.9387 66.2131 76.1317 66.1551H76.2447V66.4551V66.6321V67.4611C76.1427 67.5381 75.9177 67.6711 75.4807 67.8031C75.2127 67.8851 74.8637 67.9661 74.4117 68.0351C74.3487 68.0441 74.2827 68.0531 74.2157 68.0621C74.1197 68.0751 74.0177 68.0871 73.9127 68.0991C73.8547 68.1051 73.8007 68.1121 73.7397 68.1181C73.6137 68.1311 73.4787 68.1421 73.3407 68.1521C73.0177 68.1761 72.6617 68.1941 72.2667 68.2031L71.7577 67.9911L71.7557 68.2101L71.7537 68.3431C71.7247 68.4181 71.6327 68.5831 71.3967 68.7771C71.3187 68.8411 71.2247 68.9071 71.1107 68.9761C71.1007 68.9821 71.0897 68.9871 71.0797 68.9931C71.1987 69.0701 71.3017 69.1511 71.3917 69.2361ZM77.6527 66.1551L77.6477 66.6081C78.0707 66.6381 78.5147 66.6571 78.9737 66.6641V66.1551V66.0191C78.4987 66.0121 78.0527 65.9971 77.6547 65.9701L77.6527 66.1551ZM79.6747 64.7552C79.5137 64.6612 79.3887 64.5702 79.2947 64.4852C79.2937 64.4842 79.2917 64.4832 79.2907 64.4822C79.1037 64.3132 79.0267 64.1732 79.0007 64.1052L78.9997 64.1022V64.1012L78.9897 64.0482L78.2687 63.7472L77.6417 63.4862L77.6387 63.7932L77.6347 64.1592V64.1772L77.6317 64.4242V64.4772C77.6227 64.5012 77.6047 64.5352 77.5817 64.5752C77.5257 64.6682 77.4247 64.7982 77.2347 64.9452C77.2337 64.9462 77.2327 64.9462 77.2317 64.9472C77.1867 64.9822 77.1337 65.0182 77.0787 65.0542C77.0427 65.0782 77.0017 65.1022 76.9597 65.1262C76.9567 65.1282 76.9527 65.1302 76.9497 65.1322C76.9367 65.1402 76.9227 65.1472 76.9087 65.1552C76.7987 65.2172 76.6777 65.2792 76.5327 65.3402C76.7277 65.3682 76.9377 65.3932 77.1617 65.4152C77.1937 65.4182 77.2307 65.4202 77.2637 65.4232C77.2657 65.4232 77.2667 65.4232 77.2687 65.4232C77.3917 65.4352 77.5187 65.4452 77.6497 65.4542C78.0477 65.4822 78.4907 65.4992 78.9737 65.5062V65.2492V65.2192H79.1447C79.1677 65.1862 79.2097 65.1582 79.2357 65.1262C79.2817 65.0712 79.3357 65.0182 79.3937 64.9662C79.4757 64.8922 79.5697 64.8222 79.6747 64.7552ZM77.6577 61.8572L77.6587 61.8632L77.6527 62.4272L77.6477 62.8802C78.0707 62.9102 78.5147 62.9292 78.9737 62.9362V62.4272V61.9052C78.5007 61.8992 78.0557 61.8842 77.6577 61.8572ZM77.2347 60.8313C77.2117 60.8503 77.1817 60.8693 77.1557 60.8873C77.0967 60.9293 77.0307 60.9713 76.9577 61.0143C76.9547 61.0163 76.9527 61.0173 76.9497 61.0193C76.8907 61.0533 76.8287 61.0873 76.7597 61.1223C76.6977 61.1523 76.6317 61.1833 76.5617 61.2133C76.5517 61.2183 76.5437 61.2223 76.5327 61.2273C76.5557 61.2303 76.5817 61.2333 76.6057 61.2363C76.7417 61.2553 76.8867 61.2723 77.0357 61.2883C77.1287 61.2973 77.2277 61.3063 77.3257 61.3153C77.8067 61.3573 78.3557 61.3843 78.9737 61.3933V61.1363V61.1063H79.1447C79.2067 61.0153 79.3017 60.9343 79.3937 60.8523C79.4277 60.8223 79.4487 60.7883 79.4857 60.7593C79.6567 60.6273 79.8717 60.5103 80.1117 60.4023C80.1227 60.3963 80.1367 60.3923 80.1487 60.3873C80.1517 60.3863 80.1547 60.3853 80.1577 60.3833C80.1807 60.3733 80.2067 60.3653 80.2297 60.3553C80.1587 60.3573 80.0897 60.3603 80.0157 60.3623L79.1247 59.9903L77.6417 59.3733L77.6347 60.0653L77.6317 60.3103V60.3643C77.6247 60.3823 77.6127 60.4063 77.5977 60.4343C77.5947 60.4403 77.5897 60.4473 77.5857 60.4543C77.5317 60.5473 77.4297 60.6803 77.2347 60.8313ZM76.2447 62.9042V63.7332C76.1427 63.8102 75.9177 63.9422 75.4807 64.0752C75.4377 64.0882 75.3957 64.1012 75.3487 64.1142C75.1317 64.1742 74.8667 64.2332 74.5487 64.2852C74.5047 64.2922 74.4587 64.2992 74.4117 64.3072C74.4057 64.3082 74.3997 64.3082 74.3937 64.3092C74.3357 64.3182 74.2767 64.3262 74.2157 64.3342C74.1197 64.3472 74.0177 64.3592 73.9127 64.3712C73.8547 64.3772 73.8007 64.3842 73.7397 64.3902C73.6137 64.4022 73.4787 64.4142 73.3407 64.4242C73.0177 64.4482 72.6617 64.4662 72.2667 64.4752L71.7417 64.2562C71.7177 64.3092 71.6717 64.3872 71.5877 64.4832L71.5867 64.4842C71.4847 64.5992 71.3237 64.7372 71.0797 64.8792C71.1747 64.9402 71.2617 65.0022 71.3387 65.0682C71.3597 65.0872 71.3757 65.1072 71.3957 65.1262C71.4397 65.1682 71.4837 65.2092 71.5197 65.2532C71.5457 65.2842 71.5867 65.3112 71.6087 65.3442H71.7567L71.7667 65.5092C72.3447 65.5062 72.8617 65.4872 73.3237 65.4552C73.4567 65.4452 73.5847 65.4352 73.7087 65.4242C73.7117 65.4232 73.7147 65.4232 73.7177 65.4232C73.7507 65.4202 73.7887 65.4182 73.8207 65.4152C74.0447 65.3932 74.2537 65.3682 74.4497 65.3402C74.4707 65.3372 74.4887 65.3332 74.5097 65.3302C74.7737 65.2912 75.0087 65.2472 75.2247 65.1992C75.3167 65.1792 75.4067 65.1592 75.4907 65.1372C75.5047 65.1332 75.5167 65.1302 75.5307 65.1262C75.6257 65.1012 75.7197 65.0772 75.8047 65.0512C75.8717 65.0302 75.9307 65.0092 75.9917 64.9872C76.1267 64.9402 76.2517 64.8922 76.3597 64.8432C76.3647 64.8412 76.3697 64.8392 76.3737 64.8372C76.4357 64.8092 76.4897 64.7812 76.5437 64.7522C76.5787 64.7342 76.6147 64.7152 76.6467 64.6962C76.6877 64.6722 76.7257 64.6492 76.7607 64.6252C76.8967 64.5352 76.9977 64.4492 77.0697 64.3722C77.1197 64.3172 77.1557 64.2682 77.1827 64.2242C77.1897 64.2142 77.1957 64.2052 77.2007 64.1952C77.2117 64.1752 77.2227 64.1552 77.2297 64.1382L77.2347 63.8382L77.2427 63.3202L77.2507 62.8472L77.2567 62.4272L77.2657 61.8632L77.2667 61.8232C77.2537 61.8222 77.2417 61.8212 77.2287 61.8202C77.2267 61.8192 77.2247 61.8192 77.2217 61.8192C77.0437 61.8032 76.8727 61.7852 76.7107 61.7652C76.2417 61.7062 75.8387 61.6342 75.4907 61.5532C75.1437 61.6342 74.7397 61.7062 74.2717 61.7652C74.1097 61.7852 73.9377 61.8032 73.7607 61.8192C73.7577 61.8192 73.7557 61.8192 73.7527 61.8202C73.7387 61.8212 73.7237 61.8222 73.7087 61.8242C73.5817 61.8352 73.4597 61.8482 73.3237 61.8572C72.8617 61.8892 72.3437 61.9062 71.7777 61.9092L71.7727 62.4272L71.7677 62.9392C72.3077 62.9352 72.8307 62.9162 73.3237 62.8802C73.4547 62.8712 73.5817 62.8602 73.7087 62.8482C73.7977 62.8402 73.8837 62.8322 73.9697 62.8232C74.0117 62.8182 74.0527 62.8142 74.0937 62.8092C74.3167 62.7842 74.5327 62.7572 74.7377 62.7272C75.0067 62.6862 75.2567 62.6402 75.4907 62.5902C75.7247 62.5402 75.9387 62.4852 76.1317 62.4272H76.2447V62.7272V62.9042ZM76.7097 57.6513C76.2417 57.5933 75.8387 57.5213 75.4907 57.4393C75.1437 57.5213 74.7407 57.5933 74.2717 57.6513C74.1097 57.6713 73.9387 57.6893 73.7607 57.7063C73.7577 57.7063 73.7557 57.7063 73.7527 57.7063C73.7387 57.7083 73.7237 57.7093 73.7087 57.7103C73.5817 57.7223 73.4597 57.7343 73.3237 57.7443C72.8617 57.7753 72.3437 57.7933 71.7777 57.7963L71.7727 58.3133L71.7677 58.8253C72.3077 58.8223 72.8307 58.8023 73.3237 58.7673C73.4547 58.7573 73.5817 58.7463 73.7087 58.7353C73.7977 58.7273 73.8837 58.7183 73.9697 58.7093C74.0117 58.7053 74.0527 58.7003 74.0937 58.6963C74.3167 58.6713 74.5327 58.6443 74.7377 58.6133C75.0067 58.5723 75.2567 58.5263 75.4907 58.4763C75.7257 58.4263 75.9397 58.3713 76.1337 58.3133H76.2447V58.6133V58.7903V59.6203C76.1427 59.6973 75.9177 59.8293 75.4807 59.9623C75.2127 60.0443 74.8637 60.1253 74.4117 60.1933C74.4087 60.1943 74.4047 60.1943 74.4017 60.1953C74.3417 60.2043 74.2797 60.2123 74.2157 60.2213C74.1197 60.2343 74.0177 60.2463 73.9127 60.2583C73.8547 60.2643 73.8007 60.2713 73.7407 60.2773C73.6137 60.2893 73.4797 60.3003 73.3407 60.3113C73.0177 60.3353 72.6617 60.3523 72.2677 60.3623L71.7417 60.1433C71.7177 60.1953 71.6717 60.2733 71.5877 60.3693C71.5877 60.3693 71.5877 60.3693 71.5877 60.3703H71.5867C71.4857 60.4853 71.3237 60.6233 71.0797 60.7663C71.0817 60.7673 71.0847 60.7693 71.0877 60.7713C71.1797 60.8303 71.2637 60.8903 71.3387 60.9553C71.4077 61.0143 71.4677 61.0763 71.5207 61.1403C71.5457 61.1713 71.5867 61.1973 71.6087 61.2293H71.7567L71.7667 61.3963C72.4877 61.3923 73.1127 61.3633 73.6557 61.3153C73.7547 61.3063 73.8527 61.2973 73.9467 61.2883C74.0957 61.2723 74.2397 61.2553 74.3767 61.2363C74.3997 61.2333 74.4257 61.2303 74.4497 61.2273C74.6797 61.1943 74.8857 61.1563 75.0797 61.1173C75.1297 61.1073 75.1777 61.0963 75.2247 61.0863C75.3167 61.0663 75.4067 61.0453 75.4907 61.0243C75.6207 60.9913 75.7407 60.9563 75.8517 60.9213C75.9007 60.9063 75.9457 60.8903 75.9917 60.8743C76.0087 60.8683 76.0277 60.8623 76.0447 60.8563C76.1647 60.8133 76.2767 60.7693 76.3747 60.7243C76.3777 60.7223 76.3807 60.7213 76.3837 60.7203C76.4947 60.6693 76.5877 60.6183 76.6717 60.5683C76.7017 60.5503 76.7297 60.5323 76.7567 60.5153C76.8947 60.4243 76.9967 60.3373 77.0697 60.2583C77.1177 60.2063 77.1527 60.1593 77.1797 60.1173C77.2007 60.0833 77.2187 60.0513 77.2297 60.0253L77.2427 59.2063L77.2507 58.7333L77.2567 58.3133L77.2657 57.7503L77.2667 57.7103C77.2537 57.7083 77.2417 57.7073 77.2297 57.7063C77.2267 57.7063 77.2247 57.7063 77.2217 57.7063C77.0437 57.6893 76.8717 57.6713 76.7097 57.6513ZM76.7097 53.5374C76.2417 53.4794 75.8387 53.4074 75.4907 53.3254C75.1437 53.4074 74.7407 53.4794 74.2727 53.5374C74.1097 53.5574 73.9387 53.5754 73.7597 53.5924C73.7577 53.5924 73.7557 53.5924 73.7527 53.5924C73.7387 53.5944 73.7237 53.5954 73.7087 53.5964C73.5817 53.6084 73.4597 53.6204 73.3237 53.6304C72.8617 53.6614 72.3437 53.6794 71.7777 53.6824L71.7727 54.1994L71.7677 54.7114C72.3077 54.7084 72.8307 54.6894 73.3237 54.6534C73.4547 54.6444 73.5817 54.6334 73.7087 54.6214C73.7977 54.6134 73.8837 54.6054 73.9697 54.5964C74.0117 54.5914 74.0527 54.5874 74.0937 54.5824C74.3167 54.5574 74.5327 54.5304 74.7377 54.4994C75.0067 54.4594 75.2567 54.4134 75.4907 54.3634C75.7247 54.3124 75.9387 54.2584 76.1327 54.1994H76.2447V54.4994V54.6774V55.5074C76.1427 55.5834 75.9177 55.7164 75.4807 55.8484C75.2127 55.9304 74.8637 56.0114 74.4117 56.0794C74.4087 56.0804 74.4057 56.0804 74.4027 56.0814C74.3427 56.0904 74.2797 56.0994 74.2157 56.1074C74.1197 56.1204 74.0177 56.1324 73.9117 56.1444C73.8547 56.1504 73.7997 56.1574 73.7397 56.1634C73.6137 56.1754 73.4787 56.1864 73.3407 56.1974C73.0167 56.2214 72.6607 56.2384 72.2667 56.2484L71.7417 56.0294C71.7177 56.0824 71.6727 56.1594 71.5887 56.2554C71.5877 56.2554 71.5877 56.2564 71.5877 56.2564C71.4857 56.3724 71.3237 56.5104 71.0797 56.6534C71.0817 56.6544 71.0837 56.6554 71.0857 56.6574C71.1787 56.7164 71.2637 56.7774 71.3387 56.8414C71.4077 56.9014 71.4677 56.9634 71.5207 57.0274C71.5457 57.0584 71.5867 57.0844 71.6087 57.1164H71.7567L71.7667 57.2824C72.4877 57.2784 73.1127 57.2494 73.6567 57.2014C73.7557 57.1924 73.8537 57.1834 73.9467 57.1734C74.0967 57.1584 74.2407 57.1414 74.3777 57.1224C74.4007 57.1194 74.4257 57.1164 74.4487 57.1134C74.6797 57.0804 74.8857 57.0434 75.0797 57.0034C75.1297 56.9934 75.1767 56.9834 75.2247 56.9724C75.3167 56.9524 75.4067 56.9314 75.4907 56.9104C75.6207 56.8774 75.7407 56.8434 75.8517 56.8074C75.9007 56.7924 75.9457 56.7764 75.9907 56.7614C76.0077 56.7554 76.0267 56.7494 76.0437 56.7424C76.1647 56.6994 76.2767 56.6554 76.3747 56.6104C76.3777 56.6094 76.3817 56.6084 76.3847 56.6064C76.4947 56.5554 76.5877 56.5054 76.6717 56.4544C76.7017 56.4364 76.7297 56.4194 76.7567 56.4014C76.8947 56.3104 76.9977 56.2234 77.0697 56.1444C77.1177 56.0924 77.1537 56.0454 77.1797 56.0024C77.2007 55.9694 77.2187 55.9374 77.2297 55.9124L77.2427 55.0934L77.2507 54.6194L77.2567 54.1994L77.2657 53.6364L77.2667 53.5964C77.2537 53.5944 77.2417 53.5934 77.2287 53.5924C77.2267 53.5924 77.2247 53.5924 77.2217 53.5924C77.0437 53.5754 76.8717 53.5574 76.7097 53.5374ZM76.7107 49.4244C76.2417 49.3664 75.8387 49.2944 75.4907 49.2124C75.1437 49.2944 74.7397 49.3664 74.2717 49.4244C74.1097 49.4444 73.9377 49.4624 73.7607 49.4784C73.7577 49.4784 73.7557 49.4794 73.7527 49.4794C73.7387 49.4804 73.7237 49.4824 73.7087 49.4834C73.5817 49.4944 73.4597 49.5074 73.3237 49.5164C72.8617 49.5484 72.3437 49.5654 71.7777 49.5684L71.7727 50.0864L71.7677 50.5984C72.3077 50.5954 72.8307 50.5754 73.3237 50.5404C73.4547 50.5304 73.5817 50.5194 73.7087 50.5084C73.7977 50.5004 73.8837 50.4914 73.9697 50.4824C74.0117 50.4784 74.0527 50.4734 74.0937 50.4684C74.3167 50.4444 74.5327 50.4174 74.7377 50.3864C75.0067 50.3454 75.2567 50.2994 75.4907 50.2494C75.7247 50.1994 75.9387 50.1444 76.1317 50.0864H76.2447V50.3864V50.5634V51.3934C76.1427 51.4694 75.9177 51.6024 75.4807 51.7354C75.2127 51.8164 74.8637 51.8974 74.4117 51.9664C74.4087 51.9664 74.4047 51.9674 74.4017 51.9674C74.3417 51.9764 74.2797 51.9854 74.2157 51.9944C74.1197 52.0064 74.0177 52.0194 73.9127 52.0304C73.8547 52.0374 73.8007 52.0434 73.7397 52.0494C73.6137 52.0624 73.4787 52.0734 73.3407 52.0834C73.0177 52.1074 72.6617 52.1254 72.2667 52.1344L71.7417 51.9154C71.7177 51.9684 71.6717 52.0464 71.5877 52.1424H71.5867V52.1434C71.4857 52.2584 71.3237 52.3964 71.0797 52.5394C71.0817 52.5404 71.0847 52.5424 71.0867 52.5434C71.1787 52.6024 71.2637 52.6634 71.3387 52.7284C71.4067 52.7874 71.4667 52.8494 71.5197 52.9124C71.5457 52.9444 71.5867 52.9714 71.6087 53.0034H71.7567L71.7667 53.1694C72.4877 53.1654 73.1127 53.1354 73.6557 53.0874C73.7547 53.0794 73.8537 53.0704 73.9467 53.0604C74.0957 53.0444 74.2407 53.0274 74.3767 53.0094C74.4007 53.0054 74.4267 53.0034 74.4497 52.9994C74.6797 52.9674 74.8857 52.9294 75.0797 52.8904C75.1297 52.8804 75.1767 52.8694 75.2247 52.8594C75.3167 52.8384 75.4067 52.8184 75.4907 52.7964C75.6197 52.7634 75.7407 52.7294 75.8517 52.6944C75.9007 52.6784 75.9457 52.6624 75.9917 52.6474C76.0087 52.6414 76.0277 52.6354 76.0437 52.6294C76.1647 52.5854 76.2767 52.5414 76.3747 52.4974C76.3777 52.4954 76.3807 52.4944 76.3837 52.4934C76.4947 52.4424 76.5867 52.3914 76.6717 52.3404C76.7007 52.3234 76.7297 52.3054 76.7557 52.2884C76.8947 52.1974 76.9967 52.1104 77.0697 52.0314C77.1177 51.9794 77.1527 51.9314 77.1797 51.8894C77.2007 51.8554 77.2187 51.8234 77.2297 51.7984L77.2427 50.9794L77.2507 50.5064L77.2567 50.0864L77.2657 49.5224L77.2667 49.4824C77.2537 49.4814 77.2417 49.4804 77.2297 49.4794C77.2267 49.4794 77.2247 49.4784 77.2217 49.4784C77.0437 49.4624 76.8727 49.4444 76.7107 49.4244ZM76.7107 45.3115C76.2417 45.2525 75.8387 45.1805 75.4907 45.0985C75.1437 45.1805 74.7397 45.2525 74.2717 45.3115C74.1097 45.3315 73.9377 45.3485 73.7607 45.3655C73.7577 45.3655 73.7557 45.3655 73.7527 45.3665C73.7387 45.3675 73.7237 45.3685 73.7087 45.3705C73.5817 45.3815 73.4597 45.3945 73.3237 45.4035C72.8617 45.4355 72.3437 45.4525 71.7777 45.4555L71.7727 45.9725L71.7677 46.4845C72.3077 46.4815 72.8307 46.4615 73.3237 46.4265C73.4547 46.4175 73.5817 46.4065 73.7087 46.3945C73.7977 46.3865 73.8837 46.3775 73.9697 46.3685C74.0117 46.3645 74.0527 46.3595 74.0937 46.3555C74.3167 46.3305 74.5327 46.3035 74.7377 46.2725C75.0067 46.2325 75.2567 46.1865 75.4907 46.1355C75.7257 46.0855 75.9397 46.0315 76.1337 45.9725H76.2447V46.2725V46.4505V47.2795C76.1427 47.3565 75.9177 47.4895 75.4807 47.6215C75.2127 47.7035 74.8637 47.7845 74.4117 47.8535C74.4087 47.8535 74.4047 47.8545 74.4017 47.8545C74.3417 47.8635 74.2797 47.8725 74.2157 47.8805C74.1197 47.8935 74.0177 47.9055 73.9127 47.9175C73.8547 47.9235 73.8007 47.9305 73.7407 47.9365C73.6137 47.9495 73.4797 47.9605 73.3407 47.9705C73.0177 47.9945 72.6617 48.0125 72.2677 48.0215L71.7417 47.8025C71.7177 47.8555 71.6727 47.9335 71.5877 48.0295C71.4857 48.1445 71.3237 48.2825 71.0797 48.4255C71.0817 48.4275 71.0847 48.4285 71.0877 48.4305C71.1797 48.4895 71.2637 48.5505 71.3387 48.6145C71.4077 48.6735 71.4677 48.7355 71.5207 48.7995C71.5457 48.8305 71.5867 48.8575 71.6087 48.8895H71.7567L71.7667 49.0555C72.4877 49.0525 73.1127 49.0225 73.6557 48.9745C73.7547 48.9655 73.8527 48.9575 73.9457 48.9475C74.0957 48.9315 74.2397 48.9145 74.3757 48.8955C74.3997 48.8925 74.4257 48.8895 74.4497 48.8865C74.6797 48.8535 74.8857 48.8165 75.0797 48.7765C75.1297 48.7665 75.1777 48.7565 75.2247 48.7455C75.3167 48.7255 75.4067 48.7055 75.4907 48.6835C75.6207 48.6505 75.7407 48.6165 75.8517 48.5805C75.9007 48.5655 75.9457 48.5495 75.9917 48.5335C76.0087 48.5275 76.0277 48.5215 76.0447 48.5155C76.1647 48.4725 76.2767 48.4285 76.3747 48.3835C76.3777 48.3825 76.3807 48.3815 76.3837 48.3795C76.4947 48.3285 76.5877 48.2775 76.6717 48.2275C76.7017 48.2095 76.7297 48.1925 76.7567 48.1745C76.8947 48.0835 76.9967 47.9965 77.0697 47.9185C77.1177 47.8665 77.1527 47.8185 77.1797 47.7765C77.2007 47.7425 77.2187 47.7105 77.2297 47.6845L77.2427 46.8665L77.2507 46.3925L77.2567 45.9725L77.2657 45.4095L77.2667 45.3695C77.2537 45.3685 77.2417 45.3675 77.2297 45.3665C77.2267 45.3655 77.2247 45.3655 77.2217 45.3655C77.0437 45.3485 76.8727 45.3315 76.7107 45.3115ZM76.7097 41.1976C76.2417 41.1396 75.8387 41.0666 75.4907 40.9856C75.1437 41.0666 74.7407 41.1396 74.2717 41.1976C74.1097 41.2176 73.9387 41.2356 73.7607 41.2516C73.7577 41.2516 73.7557 41.2526 73.7527 41.2526C73.7387 41.2536 73.7237 41.2556 73.7087 41.2566C73.5817 41.2676 73.4597 41.2806 73.3237 41.2896C72.8617 41.3216 72.3437 41.3386 71.7777 41.3416L71.7727 41.8596L71.7677 42.3716C72.3077 42.3676 72.8307 42.3486 73.3237 42.3136C73.4547 42.3036 73.5817 42.2926 73.7087 42.2816C73.7977 42.2736 73.8837 42.2646 73.9697 42.2556C74.0117 42.2506 74.0527 42.2466 74.0937 42.2416C74.3167 42.2176 74.5327 42.1906 74.7377 42.1596C75.0067 42.1186 75.2567 42.0726 75.4907 42.0226C75.7247 41.9726 75.9387 41.9176 76.1327 41.8596H76.2447V42.1596V42.3366V43.1666C76.1427 43.2426 75.9177 43.3756 75.4807 43.5086C75.2127 43.5896 74.8637 43.6706 74.4117 43.7396C74.4087 43.7396 74.4067 43.7406 74.4037 43.7406C74.3437 43.7496 74.2807 43.7586 74.2157 43.7676C74.1197 43.7796 74.0177 43.7926 73.9127 43.8036C73.8557 43.8106 73.8007 43.8166 73.7407 43.8226C73.6137 43.8356 73.4797 43.8466 73.3407 43.8566C73.0177 43.8806 72.6617 43.8986 72.2677 43.9076L71.7417 43.6886C71.7177 43.7416 71.6727 43.8196 71.5877 43.9156C71.4857 44.0316 71.3237 44.1696 71.0797 44.3126C71.0827 44.3136 71.0857 44.3156 71.0877 44.3166C71.1797 44.3756 71.2637 44.4366 71.3387 44.5006C71.4077 44.5596 71.4677 44.6216 71.5197 44.6856C71.5457 44.7166 71.5867 44.7436 71.6087 44.7756H71.7567L71.7667 44.9426C72.4877 44.9386 73.1117 44.9086 73.6557 44.8606C73.7547 44.8526 73.8527 44.8436 73.9467 44.8336C74.0957 44.8176 74.2407 44.8006 74.3767 44.7826C74.4007 44.7786 74.4257 44.7766 74.4497 44.7726C74.6797 44.7406 74.8857 44.7026 75.0797 44.6636C75.1297 44.6526 75.1767 44.6426 75.2247 44.6326C75.3167 44.6116 75.4067 44.5916 75.4907 44.5696C75.6197 44.5366 75.7407 44.5026 75.8517 44.4676C75.9007 44.4516 75.9457 44.4356 75.9917 44.4196C76.0087 44.4136 76.0277 44.4086 76.0437 44.4026C76.1647 44.3586 76.2767 44.3146 76.3737 44.2696C76.3777 44.2686 76.3807 44.2676 76.3847 44.2656C76.4947 44.2156 76.5867 44.1646 76.6707 44.1136C76.7007 44.0966 76.7287 44.0786 76.7557 44.0616C76.8937 43.9706 76.9967 43.8826 77.0687 43.8046C77.1177 43.7516 77.1527 43.7046 77.1797 43.6616C77.2007 43.6276 77.2187 43.5966 77.2297 43.5706L77.2427 42.7526L77.2507 42.2796L77.2567 41.8596L77.2657 41.2956L77.2667 41.2556C77.2537 41.2546 77.2417 41.2536 77.2297 41.2526C77.2267 41.2526 77.2247 41.2516 77.2217 41.2516C77.0437 41.2356 76.8717 41.2176 76.7097 41.1976ZM77.2727 36.9737C77.2727 36.9687 77.2697 36.9637 77.2697 36.9577L77.2737 36.7167H77.1597C77.0737 36.6207 76.9357 36.5287 76.7597 36.4407C76.6977 36.4717 76.6327 36.5017 76.5617 36.5327C76.4157 36.5957 76.2477 36.6577 76.0607 36.7167C76.0547 36.7187 76.0477 36.7207 76.0417 36.7227C75.5907 36.8647 75.0107 36.9927 74.2717 37.0847C74.1097 37.1047 73.9387 37.1217 73.7607 37.1387C73.7577 37.1387 73.7557 37.1387 73.7527 37.1397C73.7387 37.1407 73.7237 37.1417 73.7087 37.1437C73.5817 37.1547 73.4597 37.1677 73.3237 37.1767C72.8617 37.2087 72.3437 37.2257 71.7777 37.2287L71.7727 37.7457L71.7677 38.2577C72.3077 38.2547 72.8307 38.2347 73.3237 38.1997C73.4547 38.1907 73.5817 38.1787 73.7087 38.1677C73.7977 38.1597 73.8837 38.1507 73.9697 38.1417C74.0117 38.1377 74.0527 38.1327 74.0937 38.1287C74.3167 38.1037 74.5327 38.0767 74.7377 38.0457C75.0067 38.0057 75.2567 37.9587 75.4907 37.9087C75.7257 37.8587 75.9397 37.8047 76.1337 37.7457H76.2447V38.0457V38.2237V39.0527C76.1427 39.1297 75.9177 39.2617 75.4807 39.3947C75.2127 39.4767 74.8637 39.5577 74.4117 39.6257C74.4087 39.6267 74.4057 39.6267 74.4027 39.6277C74.3427 39.6367 74.2797 39.6447 74.2157 39.6537C74.1197 39.6667 74.0177 39.6787 73.9127 39.6897C73.8547 39.6967 73.8007 39.7037 73.7407 39.7097C73.6137 39.7217 73.4787 39.7327 73.3407 39.7427C73.0177 39.7677 72.6617 39.7847 72.2667 39.7947L71.7417 39.5757C71.7177 39.6277 71.6727 39.7057 71.5877 39.8017V39.8027C71.4857 39.9177 71.3237 40.0557 71.0797 40.1987C71.0827 40.2007 71.0857 40.2017 71.0887 40.2037C71.1797 40.2627 71.2647 40.3227 71.3387 40.3877C71.4077 40.4467 71.4677 40.5087 71.5197 40.5717C71.5457 40.6027 71.5867 40.6297 71.6087 40.6617H71.7567L71.7667 40.8287C72.4877 40.8247 73.1127 40.7957 73.6567 40.7477C73.7547 40.7387 73.8537 40.7297 73.9467 40.7197C74.0957 40.7037 74.2407 40.6867 74.3767 40.6687C74.4007 40.6657 74.4257 40.6627 74.4487 40.6597C74.6787 40.6267 74.8847 40.5887 75.0787 40.5497C75.1287 40.5397 75.1767 40.5287 75.2247 40.5187C75.3167 40.4987 75.4067 40.4777 75.4907 40.4557C75.6197 40.4227 75.7407 40.3887 75.8517 40.3537C75.9007 40.3377 75.9457 40.3227 75.9917 40.3067C76.0087 40.3007 76.0267 40.2947 76.0437 40.2887C76.1647 40.2457 76.2757 40.2007 76.3737 40.1567C76.3767 40.1547 76.3807 40.1537 76.3837 40.1527C76.4937 40.1017 76.5867 40.0507 76.6707 40.0007C76.6997 39.9827 76.7287 39.9657 76.7557 39.9477C76.8937 39.8567 76.9967 39.7697 77.0687 39.6907C77.1177 39.6387 77.1527 39.5917 77.1797 39.5487C77.2007 39.5147 77.2187 39.4827 77.2297 39.4577L77.2427 38.6387L77.2507 38.1657L77.2567 37.7457L77.2657 37.1827L77.2687 36.9927C77.2697 36.9867 77.2727 36.9807 77.2727 36.9737ZM76.9497 68.8601C76.8307 68.9291 76.6957 68.9991 76.5327 69.0681C77.1817 69.1611 77.9907 69.2201 78.9737 69.2341V68.9771V68.9471H79.1447C79.2067 68.8571 79.3017 68.7761 79.3937 68.6941C79.3957 68.6921 79.3977 68.6901 79.3997 68.6881C79.1287 68.4781 79.0317 68.2981 79.0007 68.2181L78.9987 68.2071L78.9737 68.0771V67.7691L77.6417 67.2141L77.6317 68.1521V68.2051C77.6007 68.2851 77.5037 68.4641 77.2347 68.6731C77.1567 68.7331 77.0597 68.7961 76.9497 68.8601ZM79.3587 69.7531V71.0731V71.0741V71.4001L79.4027 71.6071C79.5437 71.9291 80.3647 72.9811 85.0147 72.9811C89.6637 72.9811 90.4867 71.9291 90.6277 71.6071L90.6637 69.3321L90.6667 69.1441C90.6667 69.1371 90.6707 69.1311 90.6707 69.1241C90.6707 69.1181 90.6677 69.1121 90.6677 69.1071L90.6707 68.8671H90.5577C90.5357 68.8431 90.5047 68.8191 90.4767 68.7951C90.4407 68.8191 90.3997 68.8431 90.3577 68.8671C90.3417 68.8771 90.3237 68.8871 90.3067 68.8961C90.1897 68.9621 90.0597 69.0281 89.9027 69.0931C89.0527 69.4471 87.5767 69.7671 85.0147 69.7671C83.8397 69.7671 82.9017 69.6971 82.1387 69.5901C81.6177 69.5171 81.1777 69.4271 80.8147 69.3261C80.6867 69.2901 80.5637 69.2541 80.4527 69.2161C80.3357 69.1761 80.2267 69.1351 80.1267 69.0931C80.0337 69.0541 79.9507 69.0151 79.8717 68.9761C79.8187 68.9491 79.7707 68.9231 79.7237 68.8961C79.7057 68.8871 79.6887 68.8771 79.6717 68.8671C79.6307 68.8431 79.5897 68.8191 79.5527 68.7951C79.5247 68.8191 79.4937 68.8431 79.4717 68.8671H79.3587V68.9821V69.1231V69.1241C79.3587 69.1241 79.3587 69.1241 79.3587 69.1251V69.2391V69.3321V69.3681V69.7531ZM81.1397 70.0591C82.1527 70.2761 83.5137 70.4091 85.0147 70.4091C86.8627 70.4091 88.4987 70.2071 89.5307 69.8961H89.6427V71.2021C89.4017 71.3831 88.4887 71.8771 85.6647 71.9441L81.1397 70.0591Z" fill="#1895FF"/>
<path fill-rule="evenodd" clip-rule="evenodd" d="M36.2192 46.3997H40.0072C40.4131 46.3997 40.7422 46.7287 40.7422 47.1347V53.9955C40.7422 54.4015 40.4131 54.7305 40.0072 54.7305H36.2192C35.8133 54.7305 35.4842 54.4015 35.4842 53.9955V47.1347H36.2192V46.3997ZM36.9542 47.8697V53.2605H39.2722V47.8697H36.9542Z" fill="#1C3553"/>
<path fill-rule="evenodd" clip-rule="evenodd" d="M21.1592 46.3997H24.9472C25.3531 46.3997 25.6822 46.7287 25.6822 47.1347V53.9955C25.6822 54.4015 25.3531 54.7305 24.9472 54.7305H21.1592C20.7533 54.7305 20.4242 54.4015 20.4242 53.9955V47.1347H21.1592V46.3997ZM21.8942 47.8697V53.2605H24.2122V47.8697H21.8942Z" fill="#1C3553"/>
<path fill-rule="evenodd" clip-rule="evenodd" d="M31.9656 20.4302C30.9871 21.3234 28.4334 23.6527 25.2837 26.5258C19.2521 32.0275 11.0348 39.5231 7.50701 42.7448C8.62232 42.7433 9.73681 42.7459 10.8504 42.7509C11.5638 42.7539 12.6481 42.8551 13.481 43.6685C14.3298 44.4973 14.4358 45.5898 14.4364 46.3024L14.4364 46.3039C14.4369 50.2993 14.4369 54.2947 14.4369 58.29V58.3128C14.4369 62.2026 14.4369 66.0923 14.4374 69.982C17.3984 69.9824 21.8861 69.9824 25.6689 69.9823L32.6737 69.9819C32.6738 69.9819 32.6743 69.9819 32.6744 71.9819C32.6746 73.9819 32.6745 73.9819 32.6744 73.9819L25.669 73.9823C21.7968 73.9824 17.1853 73.9824 14.2291 73.9819H14.2281C13.5524 73.9815 12.3168 73.9585 11.4096 73.0946C10.4664 72.1963 10.4374 70.9391 10.4374 70.2761M32.6744 71.9819L32.6744 73.9819C33.779 73.9818 34.6745 73.0863 34.6744 71.9818C34.6743 70.8772 33.7783 69.9818 32.6737 69.9819L32.6744 71.9819ZM31.9656 20.4302C33.1107 21.4882 35.1861 23.4754 37.0509 25.2721C38.0524 26.2368 38.9858 27.1396 39.6689 27.8012C40.0104 28.1319 40.2893 28.4024 40.4827 28.59L40.7835 28.882C41.5758 29.6517 42.8423 29.6336 43.612 28.8414C44.3816 28.0491 44.3633 26.7829 43.571 26.0133L42.313 27.3082C43.571 26.0132 43.5711 26.0133 43.571 26.0133L43.268 25.7191C43.0738 25.5307 42.7941 25.2595 42.4517 24.9279C41.7669 24.2646 40.8309 23.3593 39.8262 22.3914C37.8266 20.465 35.5254 18.2617 34.4074 17.2418M34.4074 17.2418C33.9045 16.783 33.0674 16.1321 31.918 16.1539L34.4074 17.2418ZM31.918 16.1539C30.7986 16.175 29.9787 16.8282 29.4824 17.281L31.918 16.1539ZM29.4824 17.281C28.72 17.9772 26.0102 20.4489 22.5994 23.5602L29.4824 17.281ZM22.5994 23.5602C15.4106 30.1175 5.10541 39.5176 3.34226 41.1322L22.5994 23.5602ZM3.34226 41.1322C3.33556 41.1384 3.32851 41.1448 3.32113 41.1515C3.11726 41.3376 2.66028 41.7548 2.36605 42.3336C1.97912 43.0948 1.92988 43.9847 2.31632 44.8582M2.31632 44.8582C2.66716 45.651 3.26632 46.1963 3.98402 46.4858C4.60571 46.7365 5.21903 46.7542 5.59072 46.7518" fill="#1C3553"/>
</svg>
