<svg width="96" height="97" viewBox="0 0 96 97" fill="none" xmlns="http://www.w3.org/2000/svg">
<path fill-rule="evenodd" clip-rule="evenodd" d="M20.4421 44.9336H23.7991C24.205 44.9336 24.5341 45.2627 24.5341 45.6686V51.8486C24.5341 52.2545 24.205 52.5836 23.7991 52.5836H20.4421C20.0362 52.5836 19.7071 52.2545 19.7071 51.8486V45.6686H20.4421V44.9336ZM21.1771 46.4036V51.1136H23.0641V46.4036H21.1771Z" fill="#1C3553"/>
<path fill-rule="evenodd" clip-rule="evenodd" d="M45.2983 44.9336H48.6553C49.0612 44.9336 49.3903 45.2627 49.3903 45.6686V51.8486C49.3903 52.2545 49.0612 52.5836 48.6553 52.5836H45.2983C44.8924 52.5836 44.5633 52.2545 44.5633 51.8486V45.6686H45.2983V44.9336ZM46.0333 46.4036V51.1136H47.9203V46.4036H46.0333Z" fill="#1C3553"/>
<path fill-rule="evenodd" clip-rule="evenodd" d="M32.8702 44.9336H36.2272C36.6331 44.9336 36.9622 45.2627 36.9622 45.6686V51.8486C36.9622 52.2545 36.6331 52.5836 36.2272 52.5836H32.8702C32.4643 52.5836 32.1352 52.2545 32.1352 51.8486V45.6686H32.8702V44.9336ZM33.6052 46.4036V51.1136H35.4922V46.4036H33.6052Z" fill="#1C3553"/>
<path fill-rule="evenodd" clip-rule="evenodd" d="M32.8702 31.5837H36.2272C36.6331 31.5837 36.9622 31.9128 36.9622 32.3187V38.4987C36.9622 38.9047 36.6331 39.2337 36.2272 39.2337H32.8702C32.4643 39.2337 32.1352 38.9047 32.1352 38.4987V32.3187H32.8702V31.5837ZM33.6052 33.0537V37.7637H35.4922V33.0537H33.6052Z" fill="#1C3553"/>
<path fill-rule="evenodd" clip-rule="evenodd" d="M34.5456 11.0665C35.7779 10.9412 36.7461 11.6005 37.4197 12.2319L37.4208 12.233C38.2946 13.0534 41.533 16.0901 45.534 19.842C53.2723 27.0983 63.863 37.0295 65.7159 38.7743L65.7375 38.7946C65.9578 39.002 66.4264 39.4431 66.7251 40.0467C67.1097 40.8238 67.1605 41.7264 66.7741 42.6247L66.7736 42.6258C66.4212 43.4438 65.8161 44.0191 65.0683 44.3295C64.4188 44.599 63.7739 44.6193 63.3732 44.6164M34.5456 11.0665C33.3135 10.9414 32.3456 11.5995 31.6712 12.2327C30.9173 12.9403 28.4056 15.2954 25.163 18.336C17.3726 25.641 5.36342 36.902 3.3763 38.7738C3.36986 38.7799 3.36315 38.7862 3.35621 38.7927C3.13515 39.0003 2.66547 39.4415 2.36606 40.046C1.98091 40.8235 1.93019 41.7264 2.31663 42.6247L2.31709 42.6258C2.66991 43.4446 3.27572 44.0196 4.02311 44.3296C4.67236 44.599 5.31698 44.6193 5.71748 44.6164C7.51559 44.605 8.03182 44.6062 9.71091 44.6141C9.71233 51.1257 9.71216 56.8879 9.71198 63.0248C9.71191 65.1565 9.71185 67.3335 9.71185 69.6027C9.71185 70.3363 9.7464 71.6305 10.6934 72.5574C11.6248 73.4691 12.9105 73.5008 13.6518 73.5008C14.7564 73.5008 15.6518 72.6053 15.6518 71.5008C15.6518 70.4163 14.7887 69.5334 13.7118 69.5016C13.7118 67.2685 13.7119 65.1241 13.712 63.0236C13.7122 56.8026 13.7123 50.9659 13.7108 44.3434M34.4695 15.0936C34.451 15.11 34.4308 15.1284 34.4089 15.149C33.652 15.8594 31.1338 18.2206 27.8855 21.2666C21.0445 27.6814 10.963 37.1347 7.26432 40.6087C8.10015 40.6066 8.7404 40.6095 9.99263 40.6154M34.4695 15.0936C34.5203 15.0955 34.5712 15.0955 34.622 15.0936C34.6409 15.1103 34.6615 15.129 34.6839 15.15M34.6839 15.15C35.5631 15.9755 38.807 19.0174 42.8114 22.7724C49.5368 29.0789 58.4078 37.3975 61.8271 40.6087C60.9909 40.6066 60.3507 40.6095 59.0981 40.6154M59.3798 44.6141C59.3789 53.3876 59.3789 60.8009 59.3789 69.6027C59.3789 70.3363 59.3443 71.6305 58.3973 72.5574C57.4659 73.4691 56.1802 73.5008 55.4389 73.5008C54.3343 73.5008 53.4389 72.6053 53.4389 71.5008C53.4389 70.4163 54.302 69.5334 55.3789 69.5016C55.3789 60.654 55.3789 53.2018 55.3799 44.3434M59.3798 44.6141C61.0588 44.6062 61.5753 44.605 63.3732 44.6164L59.3798 44.6141ZM13.7108 44.3434C13.7108 43.5763 13.6008 42.4486 12.7465 41.5912L13.7108 44.3434ZM12.7465 41.5912C11.8927 40.7342 10.7648 40.6185 9.99263 40.6154L12.7465 41.5912ZM59.0981 40.6154C58.3259 40.6185 57.198 40.7342 56.3442 41.5912L59.0981 40.6154ZM56.3442 41.5912C55.4899 42.4486 55.3799 43.5763 55.3799 44.3434L56.3442 41.5912Z" fill="#1C3553"/>
<path fill-rule="evenodd" clip-rule="evenodd" d="M65.1493 50.1204C65.1593 51.1654 66.0303 52.0194 67.0943 52.0274C68.1883 52.0354 69.0893 51.1544 69.0783 50.0874C69.0683 49.0544 68.1803 48.1774 67.1363 48.1664C66.0653 48.1554 65.1383 49.0664 65.1493 50.1204ZM84.8689 61.523L84.869 61.523L84.869 61.523C85.0461 61.5769 85.2251 61.6313 85.4076 61.6843H85.4066V62.5323C85.4066 63.3004 85.407 64.0685 85.4074 64.8365C85.4084 66.8335 85.4094 68.8304 85.4036 70.8274C85.4016 71.4014 85.4926 71.9104 86.2006 71.9024C86.9096 71.8934 86.9916 71.3594 86.9926 70.8024C86.9929 70.4742 86.9912 70.1459 86.9895 69.8175C86.9853 69.0102 86.981 68.2028 87.0066 67.3974C87.0186 67.0623 87.2366 66.4393 87.2916 66.4473C87.7585 66.5111 87.6965 66.8148 87.6384 67.0996C87.6181 67.1992 87.5983 67.2964 87.6016 67.3804C87.637 68.3325 87.6297 69.2867 87.6223 70.2406V70.2407V70.2408V70.2408C87.6206 70.472 87.6188 70.7032 87.6176 70.9344C87.6146 71.4644 87.7596 71.8894 88.3716 71.9034C89.0256 71.9184 89.1926 71.4734 89.1896 70.9154C89.189 70.7822 89.1895 70.6486 89.19 70.5153V70.515C89.1903 70.4263 89.1906 70.3377 89.1906 70.2494C89.1906 69.741 89.1903 69.2326 89.19 68.7242V68.7241V68.7241C89.1889 66.7635 89.1877 64.8031 89.2036 62.8433C89.205 62.7149 89.2908 62.5869 89.3767 62.4588C89.4173 62.3984 89.4579 62.3379 89.4896 62.2773C89.5232 62.3341 89.5649 62.3905 89.6066 62.447C89.6976 62.5703 89.7888 62.6937 89.7956 62.8213C89.8221 63.3658 89.8183 63.9119 89.8144 64.4577V64.4578V64.4579V64.4581V64.4582C89.813 64.653 89.8116 64.8477 89.8116 65.0423C89.8116 65.4733 89.8956 65.8753 90.4316 65.8523C90.9206 65.8323 90.9836 65.4393 90.9836 65.0433C90.9839 64.7724 90.9849 64.5016 90.9859 64.2307C90.9884 63.5385 90.991 62.8464 90.9816 62.1543C90.9646 60.8163 90.3016 60.1703 88.9706 60.1493C88.4371 60.1418 87.9035 60.1303 87.3698 60.1187H87.3697H87.3697L87.3695 60.1187C86.5477 60.101 85.7257 60.0833 84.9036 60.0803C84.4086 60.0783 84.2426 59.8213 84.1266 59.3972C83.6946 57.8312 83.2536 56.2682 82.7816 54.7142C82.3316 53.2342 81.4806 52.6232 79.9546 52.6212C78.6706 52.6202 77.3876 52.6202 76.1036 52.6212C74.2406 52.6212 73.4916 53.1862 72.9596 54.9842C72.8225 55.4473 72.6825 55.91 72.5426 56.3728L72.5425 56.3731C72.46 56.6457 72.3775 56.9184 72.2956 57.1912C72.0106 56.5484 71.8082 55.9116 71.6087 55.2839L71.6086 55.2839C71.5254 55.022 71.4427 54.7617 71.3546 54.5032C70.9236 53.2322 70.0636 52.6302 68.7446 52.6222C67.6586 52.6162 66.5726 52.6162 65.4866 52.6222C64.1926 52.6292 63.3466 53.2122 62.8996 54.4322C62.7312 54.8932 62.5962 55.3682 62.4614 55.842L62.4614 55.842C62.4346 55.9365 62.4077 56.0309 62.3806 56.1252L62.3327 56.2917C61.9747 57.5373 61.6165 58.783 61.2776 60.0333C61.1426 60.5353 61.2376 61.0113 61.8076 61.1623C62.3616 61.3083 62.6826 60.9633 62.8636 60.4723C62.8833 60.4197 62.8942 60.3634 62.9052 60.3071L62.9052 60.3071C62.9132 60.266 62.9212 60.2249 62.9326 60.1853C63.0502 59.7749 63.1687 59.3647 63.2872 58.9546C63.5786 57.9457 63.8699 56.937 64.1486 55.9252C64.2766 55.4612 64.4746 55.2312 65.0086 55.4932C64.2986 58.4502 63.5896 61.4013 62.8566 64.4503H64.8086V65.3183C64.809 65.9829 64.8086 66.6476 64.8083 67.3122C64.8077 68.3756 64.8072 69.439 64.8096 70.5024C64.8126 71.3664 65.1486 71.8064 65.7736 71.7924C66.3986 71.7784 66.7276 71.3334 66.7336 70.4694C66.7384 69.8276 66.7371 69.1858 66.7358 68.544C66.7352 68.2478 66.7346 67.9516 66.7346 67.6554V64.4793H67.5106V65.2473C67.5106 65.741 67.5105 66.2348 67.5103 66.7285C67.5099 67.9628 67.5095 69.1971 67.5116 70.4314C67.5126 71.3334 67.8566 71.8034 68.4976 71.7934C69.1106 71.7834 69.4336 71.3334 69.4346 70.4704C69.4368 69.6424 69.4364 68.8134 69.4359 67.9849V67.9847V67.9845C69.4358 67.6533 69.4356 67.3223 69.4356 66.9913V64.4233H71.3436L70.7967 62.1231L70.7929 62.1071C70.2617 59.8729 69.7392 57.6751 69.2166 55.4762C69.7166 55.3032 69.9286 55.4072 70.0506 55.8572C70.2819 56.7157 70.5309 57.5699 70.78 58.4242C70.9649 59.0586 71.1499 59.693 71.3276 60.3293C71.4576 60.7933 71.6436 61.1803 72.1866 61.1893C72.7506 61.1983 72.9986 60.8343 73.1396 60.3323C73.3121 59.7162 73.4909 59.1018 73.6697 58.4875L73.6697 58.4872L73.6698 58.487C73.9242 57.6128 74.1785 56.7387 74.4146 55.8602C74.5356 55.4122 74.7436 55.3002 75.2156 55.4642V56.2472V65.6533C75.2156 66.1175 75.2147 66.5818 75.2138 67.0462V67.0463V67.0464C75.2115 68.1864 75.2093 69.3267 75.2206 70.4664C75.2296 71.4104 75.8906 71.9594 76.6996 71.7184C77.3676 71.5184 77.4956 70.9814 77.4946 70.3734C77.4933 68.7116 77.4937 67.0498 77.4942 65.3877V65.3875V65.3872C77.4944 64.556 77.4946 63.7247 77.4946 62.8933V61.9913H78.3216V65.7963C78.3216 66.2046 78.3213 66.6129 78.321 67.0211V67.0212V67.0213C78.3203 68.1439 78.3195 69.2664 78.3246 70.3884C78.3276 71.2524 78.7336 71.7474 79.4286 71.7644C80.1696 71.7814 80.5646 71.3074 80.5826 70.3764C80.5848 70.2357 80.5844 70.0946 80.5839 69.9533V69.9532V69.9532L80.5839 69.9513C80.5838 69.8953 80.5836 69.8394 80.5836 69.7834V56.3052V55.4762C81.1216 55.2982 81.3486 55.3992 81.4716 55.8942C81.6474 56.5948 81.8445 57.2907 82.0415 57.9866L82.0416 57.9868C82.2335 58.6646 82.4254 59.3424 82.5976 60.0243C82.7616 60.6743 83.1086 61.0553 83.7566 61.2093C84.1281 61.2976 84.4941 61.4089 84.8689 61.523ZM79.499 50.0829C79.512 51.1429 78.657 52.0109 77.591 52.0199C76.515 52.0289 75.661 51.1959 75.651 50.1259C75.641 49.0649 76.494 48.1849 77.547 48.1719C78.587 48.1589 79.486 49.0389 79.499 50.0829ZM85.8788 58.1084C85.8668 58.8544 86.4688 59.4564 87.2288 59.4564C88.0068 59.4574 88.5668 58.8874 88.5568 58.1064C88.5468 57.3864 87.9698 56.7914 87.2608 56.7704C86.5328 56.7494 85.8898 57.3714 85.8788 58.1084Z" fill="#1895FF"/>
<path fill-rule="evenodd" clip-rule="evenodd" d="M21.3812 66.8321C21.3692 66.0801 20.7152 65.4471 19.9732 65.4691C19.2512 65.4891 18.6632 66.0961 18.6542 66.8301C18.6432 67.6241 19.2142 68.2051 20.0062 68.2051C20.7792 68.2041 21.3942 67.5921 21.3812 66.8321ZM30.1862 59.107C30.1752 58.056 29.2722 57.162 28.2082 57.151C27.1172 57.141 26.1732 58.068 26.1842 59.141C26.1942 60.207 27.0822 61.076 28.1652 61.084C29.2792 61.093 30.1972 60.194 30.1862 59.107ZM40.8002 59.103C40.7872 58.04 39.8722 57.144 38.8122 57.157C37.7392 57.171 36.8702 58.066 36.8802 59.147C36.8902 60.237 37.7602 61.086 38.8572 61.077C39.9422 61.068 40.8132 60.183 40.8002 59.103ZM50.0262 67.2761C50.0172 66.5431 49.4292 65.9361 48.7072 65.9151C47.9652 65.8941 47.3112 66.5271 47.2992 67.2791C47.2872 68.0391 47.9012 68.6521 48.6742 68.6521C49.4652 68.6521 50.0372 68.0711 50.0262 67.2761ZM52.5002 74.3421C52.5002 73.3611 52.5112 72.3801 52.4982 71.4001C52.4802 70.0371 51.8052 69.3781 50.4502 69.3581C49.0692 69.3381 47.6872 69.2911 46.3062 69.2861C45.8032 69.2851 45.6342 69.0231 45.5152 68.591C45.0752 66.997 44.6252 65.404 44.1452 63.821C43.6882 62.314 42.8192 61.691 41.2652 61.689C39.9582 61.687 38.6502 61.688 37.3432 61.688C35.4452 61.689 34.6822 62.264 34.1392 64.096C33.9182 64.846 33.6892 65.594 33.4632 66.344C33.0532 65.416 32.8092 64.5 32.5052 63.606C32.0672 62.312 31.1912 61.698 29.8462 61.69C28.7402 61.683 27.6342 61.684 26.5282 61.69C25.2102 61.697 24.3482 62.292 23.8932 63.534C23.6872 64.098 23.5312 64.681 23.3642 65.258C23.0542 66.338 22.7482 67.42 22.4492 68.503C22.3282 68.757 22.1382 68.9041 21.7632 68.9051C21.6192 68.9061 21.4752 68.9121 21.3312 68.9131C21.3312 68.9131 20.0152 68.9681 19.3582 68.9721C18.5202 68.9761 17.9702 69.3551 17.6812 70.1451C17.5492 70.5041 17.4502 70.8751 17.3442 71.2431C17.1022 72.0861 16.8592 72.9301 16.6292 73.7771C16.5412 74.1021 16.6032 74.4101 16.9732 74.5081C17.3322 74.6031 17.5402 74.3791 17.6572 74.0611C17.6792 74.0011 17.6842 73.9361 17.7022 73.8751C17.9662 72.9541 18.2362 72.0361 18.4902 71.1131C18.5732 70.8121 18.7012 70.6631 19.0472 70.8331C18.5872 72.7501 18.1282 74.6631 17.6522 76.6402H18.9182V77.2032C18.9182 78.3232 18.9172 79.4442 18.9202 80.5642C18.9202 81.1232 19.1382 81.4092 19.5442 81.3992C19.9492 81.3902 20.1622 81.1022 20.1662 80.5422C20.1712 79.9352 20.1672 79.3262 20.1672 78.7182V76.6591H20.6692V77.1572C20.6692 78.2762 20.6682 79.3972 20.6702 80.5172C20.6712 81.1022 20.8952 81.4072 21.3102 81.4002C21.7082 81.3942 21.9162 81.1022 21.9182 80.5432C21.9192 79.7912 21.9192 79.0382 21.9192 78.2862V76.6221H23.1552C22.6872 74.6501 21.9232 70.5891 21.9332 70.3411C22.2652 70.2411 22.6002 70.1331 22.9312 70.0551C23.5922 69.8971 23.9452 69.5101 24.1122 68.8491C24.1932 68.53 24.2852 68.214 24.3722 67.897L24.3582 67.891C24.6302 66.946 24.9052 66.002 25.1662 65.054C25.2962 64.582 25.4972 64.347 26.0412 64.613C25.3182 67.626 24.5962 70.6321 23.8502 73.7371H25.8392V74.6221C25.8392 76.3811 25.8352 78.1422 25.8402 79.9032C25.8422 80.7822 26.1842 81.2312 26.8212 81.2162C27.4572 81.2012 27.7922 80.7492 27.7992 79.8692C27.8062 78.9142 27.8012 77.9582 27.8012 77.0032V73.7681H28.5902V74.5491C28.5902 76.3091 28.5882 78.0702 28.5912 79.8302C28.5922 80.7482 28.9442 81.2282 29.5962 81.2172C30.2212 81.2082 30.5492 80.7482 30.5502 79.8712C30.5532 78.6892 30.5512 77.5072 30.5512 76.3251V73.7101H32.4952C31.7582 70.6121 31.0432 67.604 30.3282 64.596C30.8372 64.42 31.0542 64.525 31.1772 64.984C31.5892 66.509 32.0532 68.019 32.4782 69.5391C32.6112 70.0131 32.8002 70.4071 33.3542 70.4161C33.9272 70.4241 34.1812 70.0541 34.3242 69.5431C34.7502 68.022 35.2132 66.512 35.6232 64.987C35.7452 64.531 35.9582 64.418 36.4392 64.584V65.382V74.9631C36.4392 76.5971 36.4282 78.2312 36.4432 79.8662C36.4532 80.8282 37.1262 81.3872 37.9512 81.1402C38.6302 80.9372 38.7612 80.3912 38.7602 79.7712C38.7582 77.2312 38.7602 74.6911 38.7602 72.1521V71.2331H39.6032V75.1091C39.6042 76.6681 39.5992 78.2272 39.6052 79.7862C39.6092 80.6672 40.0232 81.1702 40.7312 81.1872C41.4852 81.2052 41.8872 80.7222 41.9052 79.7732C41.9092 79.5722 41.9062 79.3712 41.9062 79.1702V65.441V64.597C42.4542 64.415 42.6862 64.518 42.8122 65.022C43.1642 66.432 43.6022 67.82 43.9582 69.2291C44.1262 69.8911 44.4792 70.2791 45.1392 70.4361C45.6952 70.5691 46.2402 70.7511 46.8202 70.9201V71.7851C46.8202 74.6011 46.8252 77.4172 46.8172 80.2332C46.8152 80.8182 46.9072 81.3362 47.6302 81.3282C48.3502 81.3202 48.4352 80.7752 48.4352 80.2082C48.4362 79.0522 48.4122 77.8952 48.4502 76.7382C48.4552 76.5821 48.5052 76.3631 48.5632 76.1741C48.6302 75.9511 48.7092 75.7671 48.7392 75.7711C49.3812 75.8591 49.0432 76.3921 49.0552 76.7222C49.1002 77.9272 49.0782 79.1352 49.0712 80.3422C49.0682 80.8822 49.2162 81.3152 49.8392 81.3292C50.5062 81.3442 50.6752 80.8922 50.6732 80.3232C50.6722 80.0962 50.6742 79.8702 50.6742 79.6442C50.6752 77.1292 50.6672 74.6151 50.6882 72.1011C50.6892 71.9081 50.8772 71.7171 50.9782 71.5251C51.0872 71.7091 51.2802 71.8891 51.2902 72.0791C51.3272 72.8311 51.3072 73.5871 51.3072 74.3411C51.3072 74.7811 51.3922 75.1901 51.9392 75.1661C52.4352 75.1451 52.5002 74.7461 52.5002 74.3421Z" fill="#1895FF"/>
</svg>
