<svg width="96" height="97" viewBox="0 0 96 97" fill="none" xmlns="http://www.w3.org/2000/svg">
<path fill-rule="evenodd" clip-rule="evenodd" d="M76.6404 47.8343C76.8493 47.4446 77.2557 47.2014 77.6979 47.2014H79.2889C79.7312 47.2014 80.1377 47.4447 80.3466 47.8346L81.8686 50.6746C81.9028 50.7384 81.9311 50.8051 81.9532 50.874L87.17 67.0902L88.4037 68.0605C88.7436 68.3278 88.9134 68.7572 88.8482 69.1847L87.6619 69.0037C88.8482 69.1847 88.8481 69.1851 88.8481 69.1855L88.8479 69.1865L88.8475 69.1893L88.8462 69.1977L88.8418 69.225C88.838 69.2479 88.8327 69.2801 88.8256 69.3209C88.8115 69.4026 88.7904 69.5189 88.7615 69.665C88.7038 69.957 88.6149 70.3693 88.4881 70.8621C88.2356 71.8431 87.8269 73.1659 87.2031 74.5012C85.9969 77.0832 83.7473 80.1829 79.8599 80.1829H77.1269C73.2395 80.1829 70.9899 77.0832 69.7837 74.5012C69.1599 73.1659 68.7512 71.8431 68.4987 70.8621C68.3719 70.3693 68.283 69.957 68.2253 69.665C68.1964 69.5189 68.1754 69.4026 68.1612 69.3209C68.1541 69.2801 68.1488 69.2479 68.145 69.225L68.1406 69.1977L68.1393 69.1893L68.1389 69.1865L68.1387 69.1855C68.1387 69.1851 68.1386 69.1847 69.3249 69.0037L68.1386 69.1847C68.0734 68.7572 68.2432 68.3278 68.5831 68.0605L69.8168 67.0902L75.0325 50.874C75.0547 50.805 75.0831 50.7382 75.1174 50.6743L76.6404 47.8343ZM70.6409 69.4954C70.6875 69.7112 70.7476 69.971 70.823 70.2638C71.0521 71.1539 71.4164 72.3259 71.9581 73.4854C73.0829 75.893 74.7343 77.7829 77.1269 77.7829H79.8599C82.2525 77.7829 83.9039 75.893 85.0287 73.4854C85.5704 72.3259 85.9347 71.1539 86.1638 70.2638C86.2392 69.971 86.2993 69.7112 86.3459 69.4954L85.3981 68.7499C85.2102 68.6022 85.0707 68.4017 84.9976 68.1742L79.7019 51.7125L78.5705 49.6014H78.416L77.2839 51.7126L71.9893 68.1741C71.9161 68.4017 71.7766 68.6022 71.5887 68.7499L70.6409 69.4954Z" fill="#1895FF"/>
<path fill-rule="evenodd" clip-rule="evenodd" d="M76.9475 46.5949C77.1755 46.3186 77.5149 46.1587 77.873 46.1587H79.113C79.4711 46.1587 79.8106 46.3186 80.0385 46.5949L81.2245 48.0319C81.3232 48.1515 81.3978 48.289 81.4441 48.437L85.4866 61.3416L86.3901 62.0714C86.7208 62.3386 86.8855 62.7608 86.823 63.1813L85.636 63.0049C86.823 63.1813 86.8231 63.1809 86.823 63.1813L86.8224 63.1855L86.8213 63.1927L86.8177 63.2156C86.8147 63.2347 86.8104 63.2611 86.8047 63.2945C86.7934 63.3613 86.7767 63.456 86.7539 63.5746C86.7083 63.8115 86.6382 64.1454 86.5382 64.5441C86.3395 65.3369 86.0172 66.4089 85.5238 67.4934C84.5826 69.5623 82.7683 72.1881 79.558 72.1881H77.429C74.2183 72.1881 72.4038 69.5624 71.4624 67.4935C70.9689 66.4089 70.6466 65.3369 70.4478 64.5441C70.3478 64.1454 70.2777 63.8115 70.2321 63.5746C70.2093 63.456 70.1926 63.3613 70.1813 63.2945C70.1757 63.2611 70.1714 63.2347 70.1684 63.2156L70.1648 63.1927L70.1637 63.1855L70.1633 63.183C70.1632 63.1826 70.163 63.1813 71.35 63.0049L70.163 63.1813C70.1006 62.7608 70.2653 62.3386 70.596 62.0714L71.4995 61.3416L75.5419 48.437C75.5882 48.289 75.6628 48.1515 75.7615 48.0319L76.9475 46.5949ZM72.6642 63.486C72.6951 63.6268 72.7321 63.7862 72.7758 63.9605C72.9523 64.6645 73.2323 65.5883 73.6469 66.4995C74.5217 68.4221 75.7467 69.7881 77.429 69.7881H79.558C81.2397 69.7881 82.4645 68.4223 83.3392 66.4996C83.7538 65.5883 84.0338 64.6645 84.2103 63.9605C84.254 63.7862 84.291 63.6268 84.3219 63.486L83.696 62.9804C83.5118 62.8316 83.3757 62.6316 83.3049 62.4056L79.2241 49.3785L78.5475 48.5587H78.4385L77.762 49.3785L73.6811 62.4056C73.6104 62.6316 73.4743 62.8316 73.2901 62.9804L72.6642 63.486Z" fill="#1895FF"/>
<path fill-rule="evenodd" clip-rule="evenodd" d="M77.1397 46.6215C77.367 46.3291 77.7167 46.1581 78.087 46.1581H78.899C79.2694 46.1581 79.619 46.3291 79.8464 46.6215L80.6224 47.6195C80.7144 47.7379 80.7834 47.8725 80.8259 48.0163L83.4434 56.881L83.9499 57.3151C84.2605 57.5813 84.4141 57.9874 84.3574 58.3926L83.169 58.2262C84.3574 58.3926 84.3575 58.3922 84.3574 58.3926L84.3569 58.3962L84.3561 58.4019L84.3535 58.4193C84.3514 58.4335 84.3485 58.4529 84.3446 58.4772C84.3369 58.5257 84.3256 58.5937 84.3102 58.6785C84.2795 58.8478 84.2325 59.0853 84.1656 59.3685C84.0329 59.9304 83.8167 60.6947 83.4835 61.4717C82.8723 62.8974 81.5934 64.9713 79.19 64.9713H77.796C75.3931 64.9713 74.1142 62.8972 73.5029 61.4717C73.1697 60.6948 72.9534 59.9306 72.8206 59.3687C72.7537 59.0854 72.7066 58.8479 72.6759 58.6787C72.6606 58.5939 72.6492 58.5259 72.6415 58.4774C72.6376 58.4531 72.6347 58.4337 72.6325 58.4195L72.63 58.4021L72.6291 58.3964L72.6289 58.3943C72.6288 58.394 72.6286 58.3928 73.817 58.2262L72.6286 58.3928C72.5718 57.9873 72.7257 57.5808 73.0367 57.3146L73.5437 56.8807L76.1601 48.0164C76.2026 47.8725 76.2716 47.7379 76.3637 47.6195L77.1397 46.6215ZM75.126 58.6854C75.1355 58.7275 75.1456 58.7713 75.1563 58.8166C75.2692 59.2945 75.4473 59.9165 75.7086 60.5258C76.2863 61.8729 76.997 62.5713 77.796 62.5713H79.19C79.9896 62.5713 80.7003 61.8727 81.2777 60.5259C81.539 59.9166 81.717 59.2946 81.8299 58.8168C81.8406 58.7713 81.8507 58.7273 81.8602 58.685L81.6122 58.4724C81.4363 58.3217 81.3077 58.1232 81.2421 57.9011L78.5884 48.9135L78.493 48.7909L78.3977 48.9135L75.7449 57.9009C75.6793 58.1234 75.5505 58.3221 75.3743 58.4729L75.126 58.6854Z" fill="#1895FF"/>
<path fill-rule="evenodd" clip-rule="evenodd" d="M62.4884 58.7297C62.5337 58.343 62.8839 58.0661 63.2706 58.1114C63.3639 58.1223 63.4525 58.1481 63.5343 58.1855C63.8885 58.3472 64.0445 58.7654 63.8828 59.1196C63.732 59.45 63.3579 59.608 63.0208 59.4964C62.6799 59.4133 62.4466 59.0871 62.4884 58.7297Z" fill="#1895FF"/>
<path fill-rule="evenodd" clip-rule="evenodd" d="M66.1886 57.8116C66.2194 57.8152 66.2529 57.8283 66.2886 57.8554L66.1886 57.8116Z" fill="#1895FF"/>
<path fill-rule="evenodd" clip-rule="evenodd" d="M65.4884 57.7297C65.5337 57.343 65.8839 57.0661 66.2706 57.1114C66.3639 57.1223 66.4525 57.1481 66.5343 57.1855C66.8885 57.3472 67.0445 57.7654 66.8828 58.1196C66.732 58.45 66.3579 58.608 66.0208 58.4964C65.6799 58.4133 65.4466 58.0871 65.4884 57.7297Z" fill="#1895FF"/>
<path fill-rule="evenodd" clip-rule="evenodd" d="M69.1886 58.8116C69.2194 58.8152 69.2529 58.8283 69.2886 58.8554L69.1886 58.8116Z" fill="#1895FF"/>
<path fill-rule="evenodd" clip-rule="evenodd" d="M68.4884 58.7297C68.5337 58.343 68.8839 58.0661 69.2706 58.1114C69.3639 58.1223 69.4525 58.1481 69.5343 58.1855C69.8885 58.3472 70.0445 58.7654 69.8828 59.1196C69.732 59.45 69.3579 59.608 69.0208 59.4964C68.6799 59.4133 68.4466 59.0871 68.4884 58.7297Z" fill="#1895FF"/>
<path fill-rule="evenodd" clip-rule="evenodd" d="M38.5316 37.4428C38.5546 39.3748 36.9956 40.9568 35.0536 40.9738C33.0916 40.9898 31.5356 39.4708 31.5176 37.5208C31.4996 35.5858 33.0546 33.9827 34.9736 33.9587C36.8696 33.9357 38.5086 35.5398 38.5316 37.4428ZM48.9243 58.4762C48.9243 58.4762 47.1813 55.1942 46.9683 54.4222C46.1813 51.5681 45.3763 48.7181 44.5163 45.885C43.6983 43.189 42.1443 42.074 39.3643 42.07C37.4145 42.0675 35.4647 42.0684 33.5149 42.0694L32.3443 42.07C28.9483 42.07 27.5823 43.099 26.6123 46.378C25.0053 50.6821 25.9513 51.3851 27.1803 52.2671L30.7243 54.3192V65.8233C30.7246 66.7171 30.7229 67.6109 30.7211 68.5046V68.5047C30.7171 70.5359 30.7132 72.5669 30.7333 74.5975C30.7503 76.3195 31.9543 77.3205 33.4293 76.8795C34.6453 76.5155 34.8793 75.5385 34.8783 74.4285C34.8763 71.3985 34.877 68.369 34.8776 65.3393V65.3392L34.8776 65.3263C34.878 63.8157 34.8783 62.305 34.8783 60.7943V59.1482H36.3873V66.0853C36.3873 66.9223 36.3865 67.7593 36.3857 68.5963C36.3838 70.5494 36.3819 72.5024 36.3903 74.4555C36.3973 76.0305 37.1383 76.9325 38.4053 76.9625C39.7553 76.9955 40.4743 76.1305 40.5073 74.4335C40.5123 74.1793 40.5112 73.9252 40.5102 73.6711C40.5097 73.5652 40.5093 73.4593 40.5093 73.3534V48.7851V47.274C41.4903 46.949 41.9043 47.133 42.1293 48.0351C42.4523 49.3266 42.8151 50.6081 43.178 51.8897L43.178 51.8897L43.178 51.8899C43.524 53.1118 43.8699 54.3337 44.1813 55.5642C44.4813 56.7492 45.1123 57.4432 46.2943 57.7242C46.9876 57.8896 47.6745 58.0979 48.3773 58.3111C48.5584 58.366 48.7407 58.4213 48.9243 58.4762ZM30.7243 48.679V51.088C30.5013 50.9796 30.301 50.8859 30.1221 50.8022C29.4429 50.4844 29.0707 50.3102 28.9254 50.0218C28.7493 49.6723 28.9063 49.1548 29.2537 48.0103L29.2653 47.972C29.4843 47.156 29.8643 46.954 30.7243 47.251V48.679ZM50.5521 58.2849L49.5251 56.2789L56.5071 58.1769C57.6091 58.4769 57.5631 59.6169 57.5631 59.6169L57.2561 67.183C57.2091 68.3241 56.0841 68.1311 56.0841 68.1311L50.3991 67.159C49.2741 66.967 49.5351 65.855 49.5351 65.855L50.8121 60.4129C51.0731 59.3009 50.5521 58.2849 50.5521 58.2849Z" fill="#1895FF"/>
<path fill-rule="evenodd" clip-rule="evenodd" d="M60.2571 61.1559L61.7651 61.7609L59.7591 59.6099L60.2571 61.1559Z" fill="#1895FF"/>
<path fill-rule="evenodd" clip-rule="evenodd" d="M59.5211 59.6865L59.9419 59.4393L61.9479 61.5903L61.672 61.9929L60.0551 61.3442L59.5211 59.6865ZM60.3407 60.6001L60.4591 60.9675L60.8175 61.1113L60.3407 60.6001Z" fill="#1895FF"/>
<path fill-rule="evenodd" clip-rule="evenodd" d="M56.5443 64.442L60.1973 61.245L56.5443 64.442Z" fill="#1895FF"/>
<path fill-rule="evenodd" clip-rule="evenodd" d="M60.5266 61.6212L56.8736 64.8182L56.215 64.0657L59.868 60.8687L60.5266 61.6212Z" fill="#1895FF"/>
<path fill-rule="evenodd" clip-rule="evenodd" d="M35.4554 15.045C36.6359 14.9333 37.5571 15.5657 38.179 16.15C38.9213 16.8468 41.5525 19.3137 44.8659 22.4204C51.8657 28.9834 61.9106 38.4014 63.6263 40.0167L63.6281 40.0183C63.6348 40.0247 63.6419 40.0314 63.6494 40.0384C63.8478 40.2252 64.2919 40.6432 64.5768 41.2185C64.9489 41.9701 64.9963 42.8431 64.6261 43.7052L64.6244 43.7092C64.2861 44.492 63.7036 45.0466 62.9833 45.3454C62.3604 45.6038 61.7467 45.6213 61.3805 45.6189M35.4549 19.0792C35.455 18.3768 52.8163 43.3853 53.6428 42.5554C54.4692 41.7256 55.5533 41.621 56.2608 41.618C57.3333 41.6129 58.4073 41.6103 59.4822 41.6117C60.1281 42.218 60.6101 42.6708 60.8828 42.9275C60.9839 43.0229 61.0282 43.0683 61.0525 43.0961C61.075 43.1218 61.0374 43.0848 60.9921 42.9933C60.9746 42.9581 60.9569 42.9165 60.9409 42.8692L61.4415 42.3375L62.7884 42.9159L61.4438 42.335L62.2554 41.4729L61.4425 42.3344L61.4021 42.3169L60.9525 42.1227C60.9778 42.064 61.0343 41.9634 61.1398 41.8594C61.2292 41.7714 61.3238 41.7104 61.406 41.6707C61.4211 41.6634 61.4363 41.6566 61.4505 41.6507C61.5338 41.6162 61.5832 41.6116 61.5694 41.6134C61.5543 41.6154 61.5072 41.6197 61.4067 41.619C60.7651 41.6149 60.1232 41.6126 59.4822 41.6117C56.0591 38.3983 48.0314 30.8716 42.1458 25.3532C38.8453 22.2587 36.2184 19.7957 35.4549 19.0792C34.6999 19.7877 32.1226 22.2043 28.8736 25.2507C22.9787 30.778 14.8728 38.3784 11.4286 41.6117C12.5033 41.6103 13.5773 41.6129 14.6491 41.618M61.4401 42.3369L61.4021 42.3206L60.9507 42.1267C60.9203 42.1976 60.8759 42.3409 60.8815 42.5353C60.8851 42.6632 60.9094 42.7754 60.9401 42.8668L61.4014 42.3779L61.4401 42.3369ZM35.4554 15.045C34.2751 14.9334 33.3541 15.5655 32.7322 16.1487C31.9992 16.8367 29.4166 19.2582 26.1538 22.3176C19.15 28.8846 9.0092 38.393 7.28447 40.0167C7.27782 40.023 7.27079 40.0296 7.26345 40.0365C7.06429 40.2235 6.61883 40.6419 6.33332 41.2185C5.96057 41.9714 5.9143 42.8451 6.28536 43.7067M9.5303 45.6189C11.082 45.6089 12.637 45.6097 14.1935 45.616L9.5303 45.6189ZM14.1935 45.616C14.1944 53.4612 14.1944 61.3055 14.1944 69.1499V69.1613C14.1944 69.8174 14.2198 71.0635 15.138 71.9618C16.0396 72.8439 17.2749 72.8673 17.9379 72.8674C19.2917 72.8684 21.3443 72.8684 25.7917 72.8684H25.8424C26.947 72.8684 27.8424 71.9729 27.8424 70.8684C27.8424 69.7638 26.947 68.8684 25.8424 68.8684C21.6293 68.8684 19.5553 68.8684 18.1944 68.8675C18.1944 60.9695 18.1944 53.0712 18.1934 45.172M18.1934 45.172C18.1934 44.4686 18.0941 43.3846 17.2668 42.5547L18.1934 45.172ZM17.2668 42.5547C16.4406 41.7259 15.3567 41.6211 14.6491 41.618L17.2668 42.5547Z" fill="#1C3553"/>
</svg>
