<svg width="96" height="96" viewBox="0 0 96 96" fill="none" xmlns="http://www.w3.org/2000/svg">
<path fill-rule="evenodd" clip-rule="evenodd" d="M75.7695 72.277C75.7445 72.248 75.7075 72.22 75.6755 72.192C75.6325 72.22 75.5845 72.249 75.5365 72.277C75.5165 72.288 75.4965 72.3 75.4755 72.311C75.3395 72.388 75.1875 72.465 75.0045 72.541C74.0115 72.955 72.2855 73.329 69.2905 73.329C67.9155 73.329 66.8185 73.247 65.9265 73.122C65.3175 73.037 64.8035 72.931 64.3785 72.813C64.2285 72.771 64.0855 72.729 63.9565 72.684C63.8185 72.638 63.6925 72.59 63.5755 72.541C63.4665 72.496 63.3695 72.45 63.2765 72.404C63.2145 72.373 63.1585 72.342 63.1035 72.311C63.0835 72.3 63.0625 72.289 63.0435 72.277C62.9945 72.249 62.9475 72.221 62.9045 72.193C62.8715 72.221 62.8355 72.249 62.8105 72.277H62.6775V72.412V72.712V72.862V73.312V75.2389V75.2409L62.7275 75.4819C62.8925 75.8579 63.8545 77.0859 69.2905 77.0859C74.7255 77.0859 75.6875 75.8579 75.8525 75.4819L75.8945 72.821L75.8985 72.598C75.8985 72.591 75.9025 72.584 75.9025 72.577C75.9025 72.571 75.8995 72.565 75.8985 72.558L75.9035 72.277H75.7695ZM74.6995 73.479V75.0079C74.4185 75.2189 73.3505 75.7959 70.0495 75.8739L64.7595 73.67C65.9435 73.923 67.5345 74.08 69.2895 74.08C71.4495 74.08 73.3625 73.844 74.5685 73.479H74.6995Z" fill="#1C3553"/>
<path fill-rule="evenodd" clip-rule="evenodd" d="M75.3014 67.5955C75.2294 67.6315 75.1524 67.6665 75.0704 67.7025C74.8994 67.7765 74.7024 67.8485 74.4824 67.9185C74.4764 67.9205 74.4694 67.9225 74.4624 67.9245C73.4864 68.2325 71.9974 68.4805 69.7474 68.5115C69.5964 68.5135 69.4554 68.5185 69.2974 68.5185H69.2904H69.2884C69.2394 68.5185 69.1984 68.5165 69.1514 68.5165C69.0264 68.5155 68.9124 68.5125 68.7914 68.5105C68.3324 68.5035 67.9004 68.4895 67.5034 68.4655C66.9094 68.4295 66.3824 68.3775 65.9154 68.3115C65.7294 68.2855 65.5534 68.2565 65.3864 68.2275C65.0124 68.1605 64.6764 68.0865 64.3854 68.0055C64.2914 67.9795 64.2034 67.9525 64.1164 67.9245C64.1104 67.9225 64.1034 67.9205 64.0964 67.9185C64.0804 67.9135 64.0624 67.9085 64.0464 67.9035C63.8464 67.8385 63.6674 67.7715 63.5084 67.7025C63.4264 67.6675 63.3494 67.6315 63.2774 67.5955C63.0814 67.6935 62.9264 67.7965 62.8254 67.9035C62.8204 67.9085 62.8134 67.9135 62.8094 67.9185H62.6764V68.0535V68.3535V68.5035V68.9545V69.1065V69.7065V70.8815V70.8835L62.7274 71.1235C62.7394 71.1525 62.7594 71.1875 62.7824 71.2245C62.8314 71.3035 62.9094 71.4005 63.0294 71.5065C63.0964 71.5655 63.1774 71.6275 63.2744 71.6915C63.3384 71.7335 63.4084 71.7755 63.4864 71.8185C63.4994 71.8255 63.5154 71.8335 63.5294 71.8405C63.5964 71.8765 63.6654 71.9115 63.7434 71.9465C63.9264 72.0295 64.1404 72.1115 64.3934 72.1885C64.4914 72.2195 64.6024 72.2485 64.7124 72.2765C64.7764 72.2935 64.8374 72.3115 64.9064 72.3275C65.2054 72.3985 65.5474 72.4635 65.9334 72.5195C66.0994 72.5435 66.2784 72.5655 66.4624 72.5855C66.8984 72.6345 67.3874 72.6715 67.9314 72.6955C68.3524 72.7145 68.7964 72.7275 69.2894 72.7275C71.4444 72.7275 72.8874 72.5335 73.8654 72.2765C73.9754 72.2485 74.0864 72.2195 74.1844 72.1885C74.4374 72.1115 74.6514 72.0295 74.8344 71.9465C74.9124 71.9115 74.9824 71.8765 75.0494 71.8405C75.1434 71.7905 75.2294 71.7405 75.3034 71.6915C75.6544 71.4595 75.7974 71.2465 75.8504 71.1235L75.8934 68.4625L75.8964 68.2405C75.8974 68.2335 75.9014 68.2265 75.9014 68.2195C75.9014 68.2125 75.8974 68.2065 75.8974 68.2005L75.9014 67.9185H75.7684C75.6684 67.8055 75.5064 67.6975 75.3014 67.5955ZM74.6994 69.1205V70.6495C74.5694 70.7475 74.2674 70.9245 73.6534 71.0935C73.3994 71.1635 73.0894 71.2325 72.7174 71.2935C72.6594 71.3035 72.5984 71.3125 72.5354 71.3215C71.8954 71.4175 71.0834 71.4905 70.0484 71.5155L69.7174 71.3765L69.2974 71.2015L69.2144 71.1675L68.9994 71.0775H68.9974L68.8454 71.0135L68.0334 70.6755L68.0064 70.6645L65.3884 69.5735L64.7584 69.3115C65.1144 69.3875 65.5074 69.4545 65.9304 69.5115C66.5874 69.5995 67.3164 69.6635 68.0944 69.6955C68.3384 69.7055 68.5874 69.7125 68.8404 69.7155C68.9824 69.7175 69.1234 69.7205 69.2684 69.7205C69.2754 69.7205 69.2824 69.7215 69.2894 69.7215H69.2964C69.4444 69.7215 69.5894 69.7185 69.7344 69.7165C71.7114 69.6865 73.4464 69.4595 74.5694 69.1205H74.6994Z" fill="#1C3553"/>
<path fill-rule="evenodd" clip-rule="evenodd" d="M69.7206 61.9118C69.5796 61.9098 69.4406 61.9068 69.2976 61.9068H69.2896C69.2746 61.9068 69.2616 61.9078 69.2466 61.9078C69.1116 61.9078 68.9796 61.9098 68.8456 61.9118C67.9796 61.9248 67.1606 61.9758 66.4176 62.0578C66.2286 62.0788 66.0446 62.1008 65.8666 62.1258C65.6336 62.1578 65.4096 62.1928 65.1976 62.2308C64.9166 62.2808 64.6576 62.3368 64.4166 62.3958C64.4026 62.3998 64.3886 62.4038 64.3736 62.4068C63.9046 62.5258 63.5146 62.6608 63.2296 62.8088C63.0456 62.9048 62.9026 63.0058 62.8086 63.1098H62.6756V63.2438V63.5448V63.6948V64.1448V64.7478V65.3478V66.0718L62.6766 66.0738L62.7136 66.2508L62.7266 66.3128C62.7666 66.4038 62.8546 66.5438 63.0376 66.7048H63.0386C63.1896 66.8368 63.4046 66.9828 63.7156 67.1258C63.7206 67.1278 63.7276 67.1308 63.7326 67.1328C63.7716 67.1508 63.8186 67.1678 63.8606 67.1868C63.9406 67.2198 64.0226 67.2528 64.1136 67.2848C64.1846 67.3108 64.2596 67.3358 64.3376 67.3608C64.5956 67.4428 64.8966 67.5198 65.2416 67.5898C65.5906 67.6608 65.9896 67.7228 66.4406 67.7748C66.7426 67.8088 67.0606 67.8398 67.4116 67.8618C67.5276 67.8698 67.6556 67.8738 67.7776 67.8798C67.8076 67.8818 67.8386 67.8828 67.8686 67.8838C68.0106 67.8908 68.1446 67.8988 68.2936 67.9038C68.4656 67.9088 68.6546 67.9098 68.8376 67.9118C68.8626 67.9128 68.8876 67.9128 68.9126 67.9128C69.0006 67.9138 69.0826 67.9168 69.1736 67.9168C69.2136 67.9168 69.2486 67.9188 69.2896 67.9188H69.2956C69.3556 67.9188 69.4076 67.9168 69.4666 67.9168C71.1676 67.9078 72.4176 67.7768 73.3366 67.5898C73.6816 67.5198 73.9816 67.4428 74.2396 67.3608C74.3186 67.3358 74.3926 67.3108 74.4646 67.2848C74.6096 67.2328 74.7446 67.1798 74.8616 67.1258C75.5516 66.8078 75.7786 66.4788 75.8506 66.3138L75.8926 63.6538L75.8966 63.4318C75.8966 63.4238 75.9016 63.4178 75.9016 63.4098C75.9016 63.4038 75.8976 63.3978 75.8976 63.3908L75.9016 63.1098H75.7696C75.1866 62.4548 72.7266 61.9558 69.7206 61.9118ZM70.0496 66.7068L69.7216 66.5708L69.2976 66.3938L69.2526 66.3748L69.0066 66.2728L68.8436 66.2048L68.0946 65.8928L66.2236 65.1128L65.3466 64.7478L64.7586 64.5028C65.2126 64.5998 65.7256 64.6818 66.2866 64.7478C66.6886 64.7938 67.1136 64.8308 67.5576 64.8588C67.7346 64.8698 67.9126 64.8788 68.0946 64.8868C68.3386 64.8968 68.5866 64.9038 68.8386 64.9068C68.9836 64.9088 69.1286 64.9118 69.2756 64.9118C69.2806 64.9118 69.2856 64.9128 69.2896 64.9128H69.2976C69.4466 64.9128 69.5926 64.9088 69.7396 64.9078C71.7136 64.8768 73.4466 64.6508 74.5686 64.3128H74.6996V65.8398C74.5076 65.9838 73.9426 66.3008 72.5456 66.5118C71.9046 66.6078 71.0886 66.6818 70.0496 66.7068Z" fill="#1C3553"/>
<path fill-rule="evenodd" clip-rule="evenodd" d="M60.6761 69.6352C61.1701 69.6712 61.6901 69.6932 62.2261 69.7012V69.1062V68.9472C61.6711 68.9392 61.1491 68.9222 60.6841 68.8902L60.6811 69.1062L60.6761 69.6352Z" fill="#1C3553"/>
<path fill-rule="evenodd" clip-rule="evenodd" d="M62.7244 72.0676C62.4064 71.8226 62.2944 71.6116 62.2574 71.5176L62.2544 71.5046L62.2254 71.3526V70.9926L60.6684 70.3436L60.6574 71.4406L60.6564 71.5026C60.6204 71.5966 60.5074 71.8056 60.1924 72.0496C60.1014 72.1206 59.9884 72.1936 59.8594 72.2686C59.7204 72.3496 59.5624 72.4306 59.3724 72.5116C60.1304 72.6196 61.0764 72.6896 62.2254 72.7056V72.4056V72.3706H62.4264C62.4984 72.2646 62.6104 72.1696 62.7174 72.0746C62.7204 72.0726 62.7224 72.0696 62.7244 72.0676Z" fill="#1C3553"/>
<path fill-rule="evenodd" clip-rule="evenodd" d="M60.6761 65.2771C61.1701 65.3131 61.6901 65.3351 62.2261 65.3431V64.7481V64.1381C61.6721 64.1311 61.1521 64.1141 60.6881 64.0821V64.0891L60.6811 64.7481L60.6761 65.2771Z" fill="#1C3553"/>
<path fill-rule="evenodd" clip-rule="evenodd" d="M62.2258 68.0472V68.0122H62.4268C62.4538 67.9732 62.5028 67.9412 62.5338 67.9032C62.5878 67.8392 62.6498 67.7762 62.7178 67.7162C62.8148 67.6292 62.9228 67.5482 63.0458 67.4692C62.8578 67.3602 62.7118 67.2522 62.6008 67.1532C62.5998 67.1522 62.5978 67.1512 62.5968 67.1502C62.3778 66.9532 62.2888 66.7892 62.2578 66.7082L62.2568 66.7062V66.7052L62.2448 66.6422L61.4018 66.2912L60.6688 65.9852L60.6648 66.3442L60.6608 66.7722V66.7922L60.6578 67.0812L60.6568 67.1432C60.6458 67.1712 60.6248 67.2122 60.5978 67.2582C60.5328 67.3672 60.4148 67.5192 60.1928 67.6902C60.1918 67.6912 60.1908 67.6922 60.1898 67.6932C60.1378 67.7332 60.0758 67.7752 60.0108 67.8182C59.9678 67.8462 59.9198 67.8742 59.8708 67.9022C59.8678 67.9042 59.8638 67.9072 59.8598 67.9092C59.8448 67.9182 59.8278 67.9272 59.8118 67.9362C59.6838 68.0082 59.5418 68.0802 59.3728 68.1522C59.6018 68.1852 59.8468 68.2142 60.1078 68.2392C60.1458 68.2432 60.1898 68.2452 60.2278 68.2492C60.2298 68.2492 60.2318 68.2502 60.2328 68.2502C60.3768 68.2632 60.5258 68.2752 60.6788 68.2852C61.1448 68.3182 61.6618 68.3382 62.2268 68.3462V68.0472H62.2258Z" fill="#1C3553"/>
<path fill-rule="evenodd" clip-rule="evenodd" d="M68.0538 61.4947C68.3188 61.4797 68.5808 61.4727 68.8438 61.4677C68.9798 61.4647 69.1178 61.4577 69.2538 61.4577L69.2878 59.2797L69.2908 59.0597C69.2918 59.0517 69.2968 59.0437 69.2968 59.0367C69.2968 59.0297 69.2928 59.0227 69.2918 59.0157L69.2958 58.7357H69.1638C69.0628 58.6227 68.9008 58.5147 68.6958 58.4127C68.6238 58.4487 68.5468 58.4847 68.4648 58.5197C68.2938 58.5937 68.0978 58.6657 67.8788 58.7357C67.8718 58.7377 67.8638 58.7397 67.8568 58.7417C66.8138 59.0717 65.2008 59.3367 62.6838 59.3367C61.9428 59.3367 61.2808 59.3137 60.6878 59.2727V59.2807L60.6808 59.9387L60.6758 60.4677C61.3098 60.5137 61.9838 60.5387 62.6838 60.5387C64.8458 60.5387 66.7588 60.3027 67.9648 59.9377H68.0938V61.4657C68.0828 61.4747 68.0678 61.4847 68.0538 61.4947Z" fill="#1C3553"/>
<path fill-rule="evenodd" clip-rule="evenodd" d="M62.8259 62.7974C63.0249 62.6434 63.2759 62.5064 63.5569 62.3804C63.5709 62.3744 63.5869 62.3684 63.6009 62.3624C63.6039 62.3614 63.6069 62.3604 63.6099 62.3584C63.6369 62.3464 63.6679 62.3364 63.6959 62.3254C63.6119 62.3274 63.5319 62.3314 63.4449 62.3334L62.4029 61.8994L60.6689 61.1764L60.6599 61.9864L60.6569 62.2734V62.3354C60.6479 62.3574 60.6339 62.3854 60.6169 62.4184C60.6129 62.4254 60.6069 62.4334 60.6029 62.4404C60.5389 62.5504 60.4199 62.7054 60.1929 62.8824C60.1649 62.9034 60.1299 62.9254 60.0989 62.9484C60.0309 62.9964 59.9539 63.0454 59.8679 63.0964C59.8659 63.0974 59.8619 63.0994 59.8589 63.1014C59.7899 63.1414 59.7179 63.1814 59.6369 63.2214C59.5649 63.2574 59.4879 63.2924 59.4059 63.3284C59.3939 63.3334 59.3839 63.3394 59.3719 63.3444C59.3989 63.3484 59.4299 63.3514 59.4569 63.3554C59.6169 63.3764 59.7849 63.3964 59.9599 63.4154C60.0689 63.4274 60.1849 63.4374 60.2999 63.4474C60.8619 63.4974 61.5029 63.5284 62.2249 63.5384V63.2384V63.2024H62.4269C62.4989 63.0964 62.6099 63.0024 62.7179 62.9064C62.7579 62.8714 62.7819 62.8314 62.8259 62.7974Z" fill="#1C3553"/>
<path fill-rule="evenodd" clip-rule="evenodd" d="M69.2921 54.2066L69.2961 53.9266H69.1641C69.0631 53.8136 68.9011 53.7056 68.6961 53.6036C68.6241 53.6396 68.5471 53.6746 68.4651 53.7106C68.2941 53.7846 68.0961 53.8566 67.8761 53.9266C67.8701 53.9286 67.8631 53.9306 67.8571 53.9326C66.8141 54.2616 65.2011 54.5266 62.6841 54.5266C61.9431 54.5266 61.2821 54.5036 60.6881 54.4626V54.4696L60.6811 55.1286L60.6761 55.6586C61.3101 55.7046 61.9841 55.7296 62.6841 55.7296C64.8451 55.7296 66.7571 55.4936 67.9641 55.1286H68.0941V56.6566C67.9021 56.8016 67.3361 57.1176 65.9411 57.3276C65.2991 57.4246 64.4831 57.4986 63.4441 57.5236L62.4011 57.0886L60.6691 56.3666L60.6601 57.1766L60.6571 57.4626V57.5246C60.6481 57.5466 60.6341 57.5756 60.6161 57.6086C60.6131 57.6156 60.6071 57.6236 60.6031 57.6306C60.5391 57.7406 60.4201 57.8956 60.1921 58.0726C60.1651 58.0936 60.1301 58.1156 60.1001 58.1376C60.0311 58.1866 59.9541 58.2356 59.8681 58.2856C59.8651 58.2876 59.8621 58.2896 59.8581 58.2916C59.7891 58.3316 59.7181 58.3716 59.6371 58.4116C59.5651 58.4476 59.4881 58.4826 59.4061 58.5186C59.3941 58.5236 59.3851 58.5286 59.3731 58.5336C59.3991 58.5376 59.4301 58.5406 59.4571 58.5446C59.6161 58.5666 59.7851 58.5866 59.9601 58.6046C60.0691 58.6166 60.1841 58.6266 60.3001 58.6366C60.9811 58.6966 61.7641 58.7346 62.6841 58.7346C64.4801 58.7346 65.7801 58.5996 66.7321 58.4056C67.0761 58.3356 67.3771 58.2586 67.6351 58.1766C67.7131 58.1516 67.7881 58.1266 67.8591 58.1006C68.0041 58.0486 68.1391 57.9956 68.2571 57.9416C68.9471 57.6236 69.1731 57.2946 69.2451 57.1286L69.2871 54.4696L69.2911 54.2496C69.2911 54.2416 69.2961 54.2336 69.2961 54.2256C69.2971 54.2206 69.2921 54.2136 69.2921 54.2066Z" fill="#1C3553"/>
<path fill-rule="evenodd" clip-rule="evenodd" d="M69.2921 49.3978L69.2961 49.1188H69.1641C69.0631 49.0048 68.9021 48.8978 68.6961 48.7948C68.6241 48.8308 68.5471 48.8668 68.4651 48.9018C68.2941 48.9758 68.0961 49.0478 67.8761 49.1188C67.8701 49.1208 67.8631 49.1228 67.8571 49.1238C66.8141 49.4538 65.2011 49.7188 62.6841 49.7188C61.9431 49.7188 61.2811 49.6948 60.6871 49.6548L60.6881 49.6618L60.6811 50.3208L60.6761 50.8498C61.3091 50.8958 61.9831 50.9208 62.6841 50.9208C64.8441 50.9208 66.7561 50.6848 67.9621 50.3208H68.0941V51.8478C67.9021 51.9928 67.3371 52.3098 65.9401 52.5198C65.2981 52.6168 64.4831 52.6908 63.4441 52.7148L62.4021 52.2808L60.6691 51.5588L60.6601 52.3688L60.6571 52.6558V52.7178C60.6481 52.7388 60.6341 52.7678 60.6161 52.8008C60.6131 52.8078 60.6071 52.8158 60.6031 52.8228C60.5391 52.9328 60.4201 53.0878 60.1921 53.2648C60.1651 53.2858 60.1301 53.3088 60.0991 53.3308C60.0311 53.3788 59.9541 53.4278 59.8691 53.4778C59.8661 53.4798 59.8631 53.4818 59.8601 53.4828C59.7901 53.5228 59.7181 53.5638 59.6371 53.6038C59.5651 53.6398 59.4881 53.6748 59.4061 53.7108C59.3941 53.7158 59.3841 53.7208 59.3721 53.7268C59.3991 53.7308 59.4291 53.7338 59.4571 53.7368C59.6161 53.7588 59.7851 53.7788 59.9601 53.7978C60.0691 53.8088 60.1851 53.8188 60.3001 53.8288C60.9821 53.8898 61.7641 53.9268 62.6841 53.9268C64.4801 53.9268 65.7791 53.7918 66.7311 53.5978C67.0761 53.5278 67.3761 53.4508 67.6341 53.3688C67.7131 53.3438 67.7871 53.3188 67.8581 53.2928C68.0031 53.2408 68.1381 53.1878 68.2551 53.1338C68.9461 52.8158 69.1731 52.4868 69.2451 52.3208L69.2871 49.6618L69.2901 49.4418C69.2911 49.4338 69.2961 49.4258 69.2961 49.4188C69.2971 49.4108 69.2921 49.4048 69.2921 49.3978Z" fill="#1C3553"/>
<path fill-rule="evenodd" clip-rule="evenodd" d="M69.2921 44.5885L69.2961 44.3085H69.1641C69.0631 44.1955 68.9011 44.0875 68.6951 43.9855C68.6231 44.0215 68.5461 44.0565 68.4641 44.0925C68.2931 44.1665 68.0961 44.2385 67.8761 44.3085C67.8701 44.3105 67.8631 44.3125 67.8561 44.3145C66.8131 44.6435 65.2011 44.9085 62.6841 44.9085C61.9431 44.9085 61.2821 44.8855 60.6881 44.8445V44.8525L60.6821 45.5105L60.6761 46.0405C61.3101 46.0865 61.9841 46.1115 62.6841 46.1115C64.8461 46.1115 66.7591 45.8755 67.9651 45.5105H68.0951V47.0385C67.9021 47.1835 67.3371 47.5005 65.9401 47.7105C65.2991 47.8075 64.4841 47.8815 63.4451 47.9065L62.4031 47.4715L60.6691 46.7495L60.6611 47.5595L60.6581 47.8465L60.6571 47.9085C60.6491 47.9295 60.6351 47.9585 60.6171 47.9905C60.6141 47.9975 60.6081 48.0065 60.6041 48.0135C60.5401 48.1225 60.4211 48.2785 60.1931 48.4545C60.1661 48.4765 60.1311 48.4985 60.1001 48.5205C60.0321 48.5695 59.9551 48.6185 59.8691 48.6685C59.8661 48.6705 59.8631 48.6715 59.8601 48.6735C59.7911 48.7135 59.7191 48.7535 59.6371 48.7935C59.5651 48.8295 59.4881 48.8655 59.4061 48.9005C59.3941 48.9065 59.3851 48.9115 59.3721 48.9165C59.4001 48.9205 59.4301 48.9235 59.4581 48.9275C59.6171 48.9495 59.7861 48.9695 59.9611 48.9875C60.0691 48.9995 60.1851 49.0095 60.3001 49.0195C60.9821 49.0795 61.7641 49.1175 62.6841 49.1175C64.4801 49.1175 65.7801 48.9815 66.7321 48.7885C67.0771 48.7185 67.3771 48.6415 67.6351 48.5595C67.7141 48.5345 67.7881 48.5095 67.8591 48.4835C68.0041 48.4315 68.1391 48.3775 68.2561 48.3245C68.9471 48.0065 69.1731 47.6765 69.2461 47.5115L69.2881 44.8515L69.2911 44.6315C69.2921 44.6235 69.2961 44.6155 69.2961 44.6085C69.2971 44.6025 69.2921 44.5955 69.2921 44.5885Z" fill="#1C3553"/>
<path fill-rule="evenodd" clip-rule="evenodd" d="M69.2921 39.7797L69.2961 39.4997H69.1641C69.0631 39.3867 68.9011 39.2787 68.6961 39.1767C68.6241 39.2127 68.5471 39.2477 68.4651 39.2837C68.2941 39.3577 68.0961 39.4297 67.8761 39.4997C67.8701 39.5017 67.8631 39.5037 67.8571 39.5057C66.8141 39.8357 65.2011 40.0997 62.6841 40.0997C61.9431 40.0997 61.2821 40.0767 60.6881 40.0357V40.0437L60.6811 40.7027L60.6761 41.2317C61.3101 41.2777 61.9841 41.3027 62.6841 41.3027C64.8451 41.3027 66.7571 41.0657 67.9641 40.7027H68.0941V42.2307C67.9021 42.3756 67.3361 42.6916 65.9411 42.9016C65.2991 42.9976 64.4831 43.0726 63.4441 43.0966L62.4021 42.6626L60.6691 41.9407L60.6611 42.7496L60.6581 43.0366L60.6571 43.0986C60.6481 43.1206 60.6341 43.1496 60.6171 43.1816C60.6131 43.1886 60.6071 43.1976 60.6031 43.2046C60.5391 43.3136 60.4201 43.4696 60.1931 43.6456C60.1651 43.6676 60.1301 43.6896 60.1001 43.7116C60.0311 43.7606 59.9541 43.8096 59.8691 43.8596C59.8661 43.8616 59.8631 43.8626 59.8601 43.8646C59.7911 43.9046 59.7181 43.9446 59.6371 43.9856C59.5651 44.0216 59.4881 44.0566 59.4061 44.0916C59.3941 44.0976 59.3841 44.1026 59.3721 44.1076C59.3991 44.1116 59.4291 44.1146 59.4571 44.1186C59.6161 44.1406 59.7851 44.1606 59.9601 44.1786C60.0691 44.1906 60.1841 44.2006 60.2991 44.2106C60.9811 44.2716 61.7641 44.3086 62.6841 44.3086C64.4801 44.3086 65.7801 44.1736 66.7321 43.9796C67.0761 43.9096 67.3771 43.8336 67.6351 43.7506C67.7131 43.7266 67.7881 43.7006 67.8591 43.6756C68.0041 43.6226 68.1391 43.5696 68.2571 43.5156C68.9471 43.1986 69.1731 42.8686 69.2451 42.7036L69.2871 40.0437L69.2911 39.8237C69.2911 39.8157 69.2961 39.8077 69.2961 39.7997C69.2971 39.7927 69.2921 39.7867 69.2921 39.7797Z" fill="#1C3553"/>
<path fill-rule="evenodd" clip-rule="evenodd" d="M59.8692 34.2422C60.0842 34.3802 60.2632 34.5282 60.3952 34.6902C60.4222 34.7232 60.4652 34.7512 60.4882 34.7842H60.6612L60.6882 35.2352L60.6822 35.8932L60.6762 36.4232C61.3102 36.4692 61.9842 36.4942 62.6842 36.4942C64.8462 36.4942 66.7602 36.2572 67.9662 35.8932H68.0942V37.4212C67.9022 37.5662 67.3372 37.8822 65.9402 38.0932C65.2992 38.1902 64.4832 38.2642 63.4452 38.2882L62.4022 37.8542L60.6692 37.1312L60.6612 37.9412L60.6572 38.2282V38.2902C60.6482 38.3122 60.6352 38.3402 60.6172 38.3732C60.6132 38.3802 60.6082 38.3882 60.6032 38.3952C60.5402 38.5052 60.4212 38.6602 60.1932 38.8372C60.1652 38.8582 60.1312 38.8802 60.1002 38.9032C60.0312 38.9512 59.9542 39.0002 59.8692 39.0502C59.8662 39.0522 59.8632 39.0532 59.8602 39.0552C59.7912 39.0952 59.7192 39.1352 59.6372 39.1762C59.5652 39.2122 59.4882 39.2472 59.4062 39.2832C59.3942 39.2882 59.3852 39.2932 59.3732 39.2982C59.4002 39.3032 59.4302 39.3052 59.4582 39.3102C59.6172 39.3312 59.7862 39.3512 59.9612 39.3702C60.0702 39.3822 60.1852 39.3922 60.3002 39.4022C60.9822 39.4622 61.7642 39.4992 62.6842 39.4992C64.4802 39.4992 65.7802 39.3642 66.7312 39.1712C67.0762 39.1012 67.3772 39.0232 67.6352 38.9412C67.7132 38.9162 67.7882 38.8912 67.8592 38.8652C68.0042 38.8132 68.1392 38.7602 68.2562 38.7062C68.9472 38.3882 69.1732 38.0582 69.2462 37.8932L69.2882 35.2342L69.2912 35.0142C69.2922 35.0062 69.2962 34.9992 69.2962 34.9912C69.2962 34.9842 69.2922 34.9772 69.2922 34.9702L69.2962 34.6902H69.1632C68.5502 34.0042 65.8832 33.4882 62.6832 33.4882C61.9612 33.4882 61.2672 33.5152 60.6162 33.5642C60.6132 33.5712 60.6072 33.5802 60.6032 33.5872C60.5312 33.7102 60.3842 33.8922 60.0992 34.0942C60.0322 34.1432 59.9552 34.1922 59.8692 34.2422Z" fill="#1C3553"/>
<path fill-rule="evenodd" clip-rule="evenodd" d="M53.0079 38.7661C53.1149 38.8351 53.2149 38.9061 53.3019 38.9821C53.3819 39.0511 53.4519 39.1231 53.5139 39.1981C53.5439 39.2341 53.5919 39.2661 53.6179 39.3041H53.7909L53.8029 39.4971C54.6449 39.4931 55.3759 39.4591 56.0119 39.4021C56.1269 39.3921 56.2419 39.3821 56.3509 39.3701C56.5249 39.3511 56.6939 39.3321 56.8539 39.3101C56.8809 39.3061 56.9109 39.3031 56.9379 39.2991C57.2069 39.2601 57.4469 39.2171 57.6739 39.1711C57.7319 39.1591 57.7879 39.1471 57.8439 39.1341C57.9519 39.1111 58.0569 39.0861 58.1559 39.0611C58.3069 39.0231 58.4479 38.9831 58.5769 38.9411C58.6339 38.9231 58.6869 38.9051 58.7399 38.8861C58.7599 38.8791 58.7819 38.8731 58.8019 38.8651C58.9429 38.8151 59.0729 38.7631 59.1869 38.7111C59.1909 38.7091 59.1959 38.7081 59.1989 38.7061C59.3269 38.6471 59.4359 38.5881 59.5339 38.5291C59.5679 38.5081 59.6019 38.4881 59.6329 38.4671C59.7949 38.3611 59.9149 38.2591 59.9999 38.1671C60.0559 38.1061 60.0969 38.0511 60.1279 38.0011C60.1539 37.9611 60.1749 37.9241 60.1879 37.8931L60.2029 36.9371L60.2119 36.3841L60.2199 35.8921L60.2299 35.2341L60.2329 35.0151C60.2339 35.0071 60.2389 34.9991 60.2389 34.9901C60.2389 34.9831 60.2339 34.9761 60.2339 34.9691L60.2379 34.6901H60.1059C60.0049 34.5771 59.8429 34.4701 59.6379 34.3681C59.5659 34.4031 59.4889 34.4391 59.4069 34.4741C59.2369 34.5481 59.0409 34.6201 58.8219 34.6901C58.8139 34.6921 58.8059 34.6951 58.7989 34.6971C58.2719 34.8631 57.5949 35.0121 56.7309 35.1191C56.5409 35.1431 56.3399 35.1631 56.1319 35.1831C56.1289 35.1831 56.1259 35.1831 56.1229 35.1831C56.1069 35.1851 56.0889 35.1871 56.0719 35.1881C55.9229 35.2011 55.7809 35.2161 55.6219 35.2271C55.0809 35.2641 54.4759 35.2841 53.8139 35.2881L53.8069 35.8921L53.8009 36.4911C54.4339 36.4881 55.0449 36.4651 55.6219 36.4231C55.7749 36.4121 55.9239 36.3991 56.0719 36.3861C56.1749 36.3771 56.2759 36.3671 56.3759 36.3561C56.4259 36.3511 56.4739 36.3451 56.5219 36.3401C56.7819 36.3111 57.0349 36.2801 57.2739 36.2431C57.5889 36.1961 57.8809 36.1421 58.1549 36.0841C58.4289 36.0251 58.6799 35.9611 58.9069 35.8921H59.0359V36.2431V36.4511V37.4211C58.9169 37.5101 58.6529 37.6651 58.1429 37.8211C57.8299 37.9161 57.4219 38.0111 56.8929 38.0911C56.8899 38.0921 56.8849 38.0921 56.8819 38.0931C56.8119 38.1031 56.7389 38.1131 56.6649 38.1231C56.5529 38.1381 56.4329 38.1521 56.3109 38.1661C56.2439 38.1731 56.1789 38.1811 56.1089 38.1881C55.9609 38.2031 55.8039 38.2161 55.6419 38.2281C55.2639 38.2561 54.8479 38.2771 54.3869 38.2881L53.7719 38.0321C53.7439 38.0931 53.6909 38.1841 53.5919 38.2961L53.5909 38.2971C53.4719 38.4321 53.2829 38.5931 52.9979 38.7601C53.0019 38.7621 53.0049 38.7641 53.0079 38.7661Z" fill="#1C3553"/>
<path fill-rule="evenodd" clip-rule="evenodd" d="M56.8819 33.284C56.2409 33.381 55.4259 33.455 54.3879 33.479L53.7719 33.222C53.7439 33.284 53.6909 33.375 53.5919 33.488H53.5909C53.4729 33.623 53.2839 33.784 52.9979 33.951C53.0009 33.953 53.0049 33.955 53.0079 33.957C53.1149 34.026 53.2139 34.097 53.3009 34.172C53.3819 34.241 53.4519 34.314 53.5139 34.389C53.5439 34.425 53.5909 34.456 53.6169 34.493H53.7899L53.8019 34.688C54.6439 34.684 55.3749 34.649 56.0109 34.593C56.1249 34.583 56.2399 34.573 56.3489 34.561C56.5239 34.542 56.6929 34.522 56.8519 34.501C57.1529 34.459 57.4229 34.412 57.6729 34.362C58.0179 34.292 58.3189 34.214 58.5769 34.133C58.6549 34.107 58.7299 34.082 58.8009 34.057C58.9459 34.004 59.0809 33.951 59.1979 33.898C59.3269 33.838 59.4349 33.779 59.5339 33.72C59.5679 33.699 59.6009 33.679 59.6319 33.658C59.9009 33.482 60.0489 33.317 60.1269 33.193C60.1529 33.153 60.1739 33.115 60.1869 33.085L60.2289 30.425L60.2319 30.206C60.2329 30.198 60.2379 30.19 60.2379 30.181C60.2379 30.174 60.2329 30.167 60.2329 30.16L60.2369 29.881H60.1049C60.0039 29.768 59.8419 29.66 59.6369 29.558C59.5649 29.594 59.4879 29.629 59.4059 29.665C59.2349 29.739 59.0369 29.811 58.8179 29.881C58.8109 29.883 58.8039 29.885 58.7979 29.887C57.7819 30.208 56.2179 30.465 53.8129 30.478L53.8069 31.083L53.8009 31.682C55.8889 31.67 57.7319 31.438 58.9059 31.083H59.0349V32.612C58.8439 32.757 58.2789 33.074 56.8819 33.284Z" fill="#1C3553"/>
<path fill-rule="evenodd" clip-rule="evenodd" d="M47.3136 27.9514C47.3636 27.9524 47.4136 27.9534 47.4646 27.9554C47.8336 27.9674 48.2025 27.9874 48.5705 28.0174C49.4405 28.0884 50.2865 28.2084 51.0395 28.3874C51.3425 28.4594 51.6305 28.5394 51.8975 28.6294C51.9795 28.6564 52.0485 28.6904 52.1275 28.7194C52.1355 28.7224 52.1435 28.7264 52.1515 28.7284C52.4785 28.8534 52.7655 28.9924 53.0075 29.1484C53.1145 29.2174 53.2135 29.2884 53.3015 29.3634C53.3815 29.4324 53.4515 29.5054 53.5135 29.5794C53.5435 29.6164 53.5905 29.6474 53.6165 29.6854H53.7895L53.8015 29.8794C55.5035 29.8704 56.7545 29.7394 57.6725 29.5534C58.0175 29.4834 58.3185 29.4064 58.5755 29.3244C58.6545 29.2994 58.7285 29.2734 58.8005 29.2484C58.9455 29.1954 59.0805 29.1424 59.1975 29.0884C59.8885 28.7704 60.1155 28.4404 60.1875 28.2754L60.2295 25.6174L60.2325 25.3984C60.2335 25.3904 60.2385 25.3824 60.2385 25.3734C60.2385 25.3664 60.2335 25.3594 60.2335 25.3524L60.2375 25.0734H60.1055C60.0055 24.9604 59.8435 24.8524 59.6375 24.7504C59.5655 24.7864 59.4885 24.8214 59.4065 24.8574C59.2355 24.9314 59.0385 25.0034 58.8175 25.0734C58.8115 25.0754 58.8045 25.0774 58.7985 25.0794C57.7555 25.4094 56.1425 25.6744 53.6255 25.6744C51.1085 25.6744 49.4965 25.4094 48.4535 25.0804C48.4475 25.0784 48.4405 25.0764 48.4335 25.0744C48.2135 25.0044 48.0165 24.9314 47.8456 24.8574C47.7636 24.8224 47.6866 24.7864 47.6146 24.7514C47.4086 24.8534 47.2476 24.9614 47.1466 25.0744H47.0136V27.9464C47.1136 27.9454 47.2136 27.9494 47.3136 27.9514ZM49.0965 26.4654C50.2795 26.7194 51.8705 26.8754 53.6265 26.8754C55.7865 26.8754 57.6985 26.6394 58.9055 26.2754H59.0355V27.8024C58.8435 27.9474 58.2785 28.2644 56.8815 28.4744C56.2405 28.5714 55.4245 28.6454 54.3855 28.6694L53.3435 28.2354L49.0965 26.4654Z" fill="#1C3553"/>
<path fill-rule="evenodd" clip-rule="evenodd" d="M47.0646 23.4675C47.1366 23.6325 47.3636 23.9625 48.0535 24.2795C48.1705 24.3335 48.3055 24.3865 48.4505 24.4395C48.5225 24.4645 48.5965 24.4905 48.6755 24.5155C48.9335 24.5975 49.2335 24.6745 49.5785 24.7445C50.5305 24.9375 51.8305 25.0725 53.6265 25.0725C55.4225 25.0725 56.7225 24.9375 57.6735 24.7445C58.0185 24.6745 58.3195 24.5965 58.5775 24.5145C58.6555 24.4895 58.7305 24.4645 58.8015 24.4385C58.9465 24.3865 59.0815 24.3335 59.1985 24.2795C59.8895 23.9615 60.1155 23.6315 60.1875 23.4665L60.2295 20.8075L60.2335 20.5885C60.2335 20.5805 60.2385 20.5725 60.2385 20.5645C60.2385 20.5565 60.2345 20.5495 60.2335 20.5425L60.2385 20.2635H60.1055C59.4925 19.5775 56.8255 19.0615 53.6255 19.0615C50.4265 19.0615 47.7586 19.5775 47.1466 20.2635H47.0136V23.2255V23.2265L47.0646 23.4675ZM54.3865 23.8615L53.3445 23.4265L49.0965 21.6565C50.2805 21.9105 51.8715 22.0665 53.6265 22.0665C55.7885 22.0665 57.7015 21.8305 58.9075 21.4655H59.0365V22.9935C58.8445 23.1385 58.2795 23.4555 56.8825 23.6665C56.2405 23.7625 55.4255 23.8365 54.3865 23.8615Z" fill="#1C3553"/>
<path fill-rule="evenodd" clip-rule="evenodd" d="M53.3009 67.8357C53.3259 67.8577 53.3439 67.8817 53.3679 67.9037C53.4189 67.9517 53.4709 68.0007 53.5129 68.0517C53.5429 68.0887 53.5909 68.1197 53.6169 68.1577H53.7899L53.8019 68.3517C54.4769 68.3477 55.0809 68.3257 55.6219 68.2877C55.7769 68.2767 55.9269 68.2647 56.0719 68.2517C56.0759 68.2507 56.0789 68.2507 56.0829 68.2507C56.1209 68.2467 56.1649 68.2447 56.2029 68.2407C56.4639 68.2147 56.7089 68.1857 56.9379 68.1537C56.9629 68.1497 56.9839 68.1457 57.0089 68.1417C57.3169 68.0957 57.5909 68.0447 57.8429 67.9887C57.9509 67.9647 58.0569 67.9407 58.1549 67.9157C58.1709 67.9117 58.1849 67.9077 58.1999 67.9037C58.3109 67.8747 58.4219 67.8457 58.5209 67.8157C58.5989 67.7917 58.6689 67.7657 58.7399 67.7407C58.8979 67.6857 59.0449 67.6297 59.1709 67.5727C59.1759 67.5697 59.1819 67.5677 59.1869 67.5657C59.2589 67.5327 59.3219 67.4997 59.3849 67.4657C59.4259 67.4447 59.4679 67.4227 59.5049 67.4017C59.5529 67.3727 59.5969 67.3447 59.6389 67.3177C59.7979 67.2127 59.9149 67.1117 59.9989 67.0207C60.0579 66.9577 60.0999 66.8997 60.1319 66.8497C60.1389 66.8377 60.1469 66.8257 60.1529 66.8157C60.1669 66.7907 60.1789 66.7677 60.1879 66.7477L60.1939 66.3977L60.2029 65.7917L60.2119 65.2387L60.2199 64.7477L60.2299 64.0887L60.2309 64.0417C60.2159 64.0407 60.2019 64.0397 60.1879 64.0387C60.1849 64.0377 60.1819 64.0377 60.1789 64.0377C59.9709 64.0187 59.7699 63.9977 59.5809 63.9737C59.0329 63.9057 58.5619 63.8217 58.1559 63.7257C57.7499 63.8217 57.2779 63.9057 56.7309 63.9737C56.5409 63.9977 56.3409 64.0177 56.1319 64.0377C56.1299 64.0377 56.1269 64.0387 56.1239 64.0387C56.1069 64.0397 56.0899 64.0417 56.0729 64.0427C55.9239 64.0567 55.7809 64.0707 55.6219 64.0817C55.0819 64.1197 54.4759 64.1397 53.8139 64.1427L53.8079 64.7477L53.8019 65.3467C54.4339 65.3427 55.0459 65.3197 55.6219 65.2787C55.7749 65.2677 55.9239 65.2547 56.0719 65.2407C56.1749 65.2317 56.2759 65.2217 56.3769 65.2117C56.4259 65.2067 56.4739 65.2007 56.5229 65.1957C56.7829 65.1667 57.0359 65.1347 57.2749 65.0987C57.5889 65.0517 57.8819 64.9977 58.1549 64.9387C58.4289 64.8807 58.6789 64.8167 58.9049 64.7487H59.0359V65.0997V65.3067V66.2757C58.9169 66.3657 58.6539 66.5207 58.1439 66.6757C58.0939 66.6917 58.0439 66.7067 57.9879 66.7217C57.7349 66.7917 57.4249 66.8597 57.0539 66.9207C57.0019 66.9297 56.9489 66.9377 56.8939 66.9467C56.8869 66.9477 56.8799 66.9487 56.8729 66.9497C56.8059 66.9597 56.7359 66.9687 56.6659 66.9787C56.5529 66.9937 56.4339 67.0077 56.3109 67.0217C56.2439 67.0287 56.1799 67.0367 56.1089 67.0437C55.9609 67.0587 55.8039 67.0717 55.6419 67.0837C55.2639 67.1117 54.8479 67.1317 54.3869 67.1437L53.7719 66.8867C53.7439 66.9487 53.6909 67.0397 53.5919 67.1527L53.5909 67.1537C53.4719 67.2877 53.2839 67.4487 52.9989 67.6157C53.1089 67.6857 53.2109 67.7587 53.3009 67.8357Z" fill="#1895FF"/>
<path fill-rule="evenodd" clip-rule="evenodd" d="M53.0079 62.8116C53.1149 62.8806 53.2139 62.9516 53.3009 63.0266C53.3819 63.0956 53.4519 63.1686 53.5139 63.2436C53.5439 63.2796 53.5909 63.3106 53.6169 63.3476H53.7899L53.8019 63.5426C54.6439 63.5386 55.3749 63.5036 56.0109 63.4476C56.1249 63.4366 56.2409 63.4276 56.3489 63.4156C56.5239 63.3966 56.6929 63.3766 56.8519 63.3556C56.8799 63.3516 56.9099 63.3476 56.9379 63.3446C57.2059 63.3056 57.4469 63.2626 57.6729 63.2156C57.7319 63.2036 57.7879 63.1916 57.8439 63.1796C57.9509 63.1556 58.0569 63.1316 58.1549 63.1066C58.3059 63.0676 58.4469 63.0276 58.5769 62.9866C58.6339 62.9686 58.6859 62.9506 58.7389 62.9316C58.7589 62.9246 58.7809 62.9176 58.8009 62.9106C58.9419 62.8596 59.0729 62.8086 59.1869 62.7556C59.1909 62.7546 59.1949 62.7526 59.1979 62.7516C59.3269 62.6916 59.4359 62.6326 59.5339 62.5736C59.5689 62.5526 59.6019 62.5326 59.6329 62.5126C59.7949 62.4056 59.9149 62.3036 59.9989 62.2116C60.0559 62.1506 60.0969 62.0956 60.1279 62.0466C60.1529 62.0066 60.1739 61.9686 60.1879 61.9386L60.2029 60.9816L60.2119 60.4286L60.2189 59.9376L60.2299 59.2796V59.2326C60.2159 59.2306 60.2019 59.2296 60.1869 59.2286C60.1839 59.2276 60.1809 59.2276 60.1779 59.2276C59.9709 59.2086 59.7699 59.1876 59.5809 59.1636C59.0329 59.0956 58.5609 59.0116 58.1549 58.9156C57.7489 59.0116 57.2779 59.0956 56.7299 59.1636C56.5409 59.1876 56.3399 59.2076 56.1319 59.2276C56.1289 59.2276 56.1259 59.2276 56.1229 59.2276C56.1059 59.2296 56.0889 59.2306 56.0719 59.2326C55.9229 59.2456 55.7809 59.2606 55.6219 59.2716C55.0809 59.3086 54.4759 59.3286 53.8139 59.3326L53.8069 59.9366L53.8009 60.5356C54.4339 60.5326 55.0449 60.5096 55.6219 60.4676C55.7749 60.4566 55.9239 60.4436 56.0719 60.4306C56.1749 60.4216 56.2759 60.4116 56.3759 60.4006C56.4249 60.3956 56.4729 60.3896 56.5219 60.3846C56.7819 60.3556 57.0349 60.3236 57.2739 60.2876C57.5889 60.2406 57.8809 60.1866 58.1549 60.1276C58.4289 60.0696 58.6799 60.0056 58.9069 59.9366H59.0349V60.2876V60.4956V61.4656C58.9169 61.5546 58.6529 61.7096 58.1429 61.8656C57.8289 61.9606 57.4219 62.0556 56.8929 62.1356C56.8889 62.1366 56.8849 62.1366 56.8809 62.1376C56.8109 62.1476 56.7389 62.1586 56.6649 62.1676C56.5519 62.1836 56.4329 62.1966 56.3099 62.2106C56.2429 62.2186 56.1789 62.2266 56.1079 62.2336C55.9599 62.2476 55.8029 62.2606 55.6409 62.2726C55.2629 62.3006 54.8469 62.3216 54.3869 62.3326L53.7709 62.0756C53.7429 62.1376 53.6899 62.2286 53.5909 62.3416H53.5899C53.4719 62.4766 53.2829 62.6376 52.9969 62.8046C53.0009 62.8076 53.0049 62.8096 53.0079 62.8116Z" fill="#1895FF"/>
<path fill-rule="evenodd" clip-rule="evenodd" d="M53.0069 58.0015C53.1149 58.0705 53.2139 58.1415 53.3019 58.2175C53.3829 58.2875 53.4529 58.3595 53.5149 58.4345C53.5449 58.4705 53.5919 58.5015 53.6179 58.5385H53.7909L53.8029 58.7325C54.6449 58.7285 55.3759 58.6935 56.0119 58.6375C56.1269 58.6275 56.2419 58.6175 56.3509 58.6055C56.5259 58.5875 56.6949 58.5675 56.8549 58.5455C56.8819 58.5425 56.9119 58.5385 56.9379 58.5355C57.2069 58.4965 57.4479 58.4535 57.6749 58.4065C57.7329 58.3955 57.7879 58.3825 57.8439 58.3705C57.9519 58.3465 58.0579 58.3225 58.1559 58.2975C58.3069 58.2595 58.4479 58.2195 58.5779 58.1785C58.6339 58.1605 58.6859 58.1425 58.7389 58.1235C58.7599 58.1165 58.7819 58.1095 58.8019 58.1025C58.9429 58.0515 59.0739 57.9995 59.1879 57.9475C59.1919 57.9455 59.1959 57.9445 59.1999 57.9425C59.3279 57.8835 59.4369 57.8245 59.5349 57.7655C59.5699 57.7445 59.6029 57.7235 59.6339 57.7035C59.7959 57.5975 59.9159 57.4945 60.0009 57.4025C60.0569 57.3415 60.0979 57.2865 60.1299 57.2375C60.1549 57.1975 60.1759 57.1605 60.1889 57.1295L60.2039 56.1735L60.2129 55.6195L60.2199 55.1285L60.2309 54.4706V54.4226C60.2169 54.4216 60.2029 54.4196 60.1879 54.4186C60.1849 54.4186 60.1819 54.4186 60.1799 54.4176C59.9719 54.3986 59.7709 54.3786 59.5809 54.3546C59.0339 54.2866 58.5619 54.2016 58.1559 54.1066C57.7499 54.2016 57.2789 54.2866 56.7319 54.3546C56.5419 54.3776 56.3409 54.3986 56.1329 54.4176C56.1299 54.4186 56.1269 54.4186 56.1239 54.4186C56.1069 54.4206 56.0899 54.4216 56.0729 54.4236C55.9239 54.4366 55.7819 54.4516 55.6229 54.4626C55.0819 54.4996 54.4769 54.5196 53.8149 54.5236L53.8079 55.1285L53.8019 55.7275C54.4349 55.7235 55.0459 55.7005 55.6229 55.6595C55.7759 55.6485 55.9249 55.6355 56.0729 55.6215C56.1759 55.6125 56.2769 55.6025 56.3769 55.5915C56.4269 55.5865 56.4749 55.5805 56.5229 55.5755C56.7829 55.5465 57.0359 55.5145 57.2749 55.4795C57.5899 55.4315 57.8819 55.3775 58.1559 55.3195C58.4299 55.2605 58.6799 55.1965 58.9069 55.1285H59.0359V55.4795V55.6865V56.6565C58.9179 56.7465 58.6539 56.9005 58.1439 57.0555C57.8299 57.1515 57.4219 57.2465 56.8939 57.3265C56.8899 57.3265 56.8859 57.3275 56.8829 57.3275C56.8129 57.3385 56.7399 57.3485 56.6659 57.3585C56.5529 57.3735 56.4339 57.3875 56.3109 57.4015C56.2439 57.4085 56.1789 57.4165 56.1089 57.4235C55.9609 57.4385 55.8039 57.4515 55.6419 57.4635C55.2639 57.4915 54.8469 57.5125 54.3859 57.5225L53.7719 57.2675C53.7439 57.3285 53.6919 57.4195 53.5929 57.5315C53.5929 57.5325 53.5919 57.5325 53.5919 57.5325C53.4729 57.6675 53.2839 57.8295 52.9989 57.9965C53.0009 57.9985 53.0039 57.9995 53.0069 58.0015Z" fill="#1895FF"/>
<path fill-rule="evenodd" clip-rule="evenodd" d="M53.0079 53.193C53.1149 53.262 53.2149 53.333 53.3019 53.409C53.3819 53.478 53.4519 53.55 53.5139 53.625C53.5439 53.661 53.5919 53.693 53.6179 53.73H53.7909L53.8029 53.924C54.6449 53.92 55.3759 53.885 56.0119 53.829C56.1269 53.819 56.2419 53.809 56.3509 53.797C56.5259 53.778 56.6949 53.759 56.8539 53.737C56.8819 53.733 56.9119 53.73 56.9389 53.726C57.2069 53.688 57.4479 53.644 57.6739 53.598C57.7329 53.586 57.7879 53.574 57.8439 53.562C57.9519 53.538 58.0579 53.514 58.1559 53.489C58.3069 53.45 58.4479 53.411 58.5769 53.369C58.6339 53.351 58.6869 53.333 58.7399 53.314C58.7609 53.307 58.7819 53.3 58.8019 53.293C58.9429 53.243 59.0729 53.191 59.1879 53.139C59.1919 53.137 59.1959 53.135 59.1999 53.134C59.3279 53.075 59.4359 53.016 59.5339 52.957C59.5689 52.936 59.6019 52.916 59.6329 52.895C59.7949 52.788 59.9149 52.686 60.0009 52.594C60.0569 52.533 60.0979 52.479 60.1289 52.429C60.1539 52.389 60.1749 52.351 60.1889 52.321L60.2039 51.365L60.2129 50.811L60.2199 50.321L60.2309 49.662V49.614C60.2169 49.613 60.2029 49.612 60.1889 49.611C60.1859 49.61 60.1829 49.61 60.1799 49.61C59.9719 49.591 59.7709 49.57 59.5809 49.546C59.0339 49.479 58.5619 49.394 58.1559 49.298C57.7499 49.394 57.2789 49.479 56.7319 49.546C56.5419 49.57 56.3409 49.591 56.1329 49.61C56.1299 49.61 56.1269 49.611 56.1239 49.611C56.1079 49.612 56.0899 49.614 56.0729 49.615C55.9239 49.629 55.7819 49.644 55.6229 49.655C55.0819 49.692 54.4769 49.712 53.8149 49.715L53.8079 50.321L53.8019 50.919C54.4349 50.915 55.0459 50.892 55.6229 50.851C55.7759 50.84 55.9249 50.827 56.0729 50.813C56.1759 50.804 56.2769 50.794 56.3769 50.783C56.4269 50.778 56.4749 50.772 56.5229 50.767C56.7829 50.738 57.0359 50.706 57.2749 50.671C57.5899 50.623 57.8819 50.569 58.1559 50.511C58.4289 50.452 58.6789 50.389 58.9049 50.32H59.0369V50.671V50.878V51.848C58.9179 51.937 58.6539 52.092 58.1439 52.247C57.8309 52.343 57.4229 52.438 56.8939 52.518C56.8909 52.519 56.8859 52.519 56.8829 52.52C56.8129 52.53 56.7399 52.54 56.6659 52.55C56.5539 52.565 56.4339 52.579 56.3119 52.593C56.2449 52.6 56.1799 52.608 56.1099 52.615C55.9619 52.63 55.8049 52.643 55.6429 52.655C55.2649 52.683 54.8489 52.704 54.3879 52.715L53.7719 52.458C53.7449 52.52 53.6919 52.611 53.5929 52.723C53.5929 52.724 53.5929 52.724 53.5929 52.724H53.5919C53.4729 52.859 53.2839 53.02 52.9989 53.187C53.0019 53.189 53.0049 53.191 53.0079 53.193Z" fill="#1895FF"/>
<path fill-rule="evenodd" clip-rule="evenodd" d="M53.0079 48.3842C53.1149 48.4532 53.2139 48.5242 53.3009 48.5992C53.3819 48.6692 53.4519 48.7412 53.5139 48.8162C53.5439 48.8522 53.5909 48.8832 53.6169 48.9212H53.7899L53.8019 49.1152C54.6439 49.1112 55.3749 49.0772 56.0109 49.0202C56.1249 49.0102 56.2409 49.0002 56.3489 48.9882C56.5239 48.9692 56.6929 48.9502 56.8519 48.9282C56.8799 48.9242 56.9099 48.9212 56.9379 48.9172C57.2059 48.8792 57.4469 48.8352 57.6729 48.7892C57.7319 48.7772 57.7879 48.7652 57.8439 48.7522C57.9509 48.7282 58.0569 48.7042 58.1549 48.6792C58.3059 48.6412 58.4469 48.6012 58.5769 48.5592C58.6339 48.5412 58.6859 48.5232 58.7389 48.5052C58.7589 48.4982 58.7809 48.4902 58.8009 48.4832C58.9419 48.4332 59.0729 48.3812 59.1869 48.3292C59.1899 48.3272 59.1939 48.3262 59.1979 48.3242C59.3269 48.2652 59.4349 48.2052 59.5339 48.1462C59.5679 48.1262 59.6009 48.1052 59.6319 48.0852C59.7939 47.9782 59.9139 47.8762 59.9989 47.7852C60.0549 47.7242 60.0959 47.6692 60.1269 47.6192C60.1529 47.5792 60.1739 47.5422 60.1869 47.5112L60.2019 46.5552L60.2109 46.0012L60.2189 45.5102L60.2289 44.8522L60.2299 44.8042C60.2149 44.8032 60.2009 44.8012 60.1859 44.8002C60.1839 44.7992 60.1809 44.7992 60.1779 44.7992C59.9699 44.7802 59.7679 44.7592 59.5789 44.7362C59.0319 44.6682 58.5599 44.5832 58.1549 44.4882C57.7489 44.5832 57.2779 44.6672 56.7319 44.7352C56.5419 44.7592 56.3399 44.7802 56.1309 44.7992C56.1279 44.7992 56.1259 44.7992 56.1229 44.8002C56.1059 44.8012 56.0889 44.8032 56.0719 44.8042C55.9229 44.8182 55.7799 44.8332 55.6209 44.8442C55.0809 44.8812 54.4749 44.9012 53.8129 44.9052L53.8069 45.5102L53.8009 46.1082C54.4329 46.1052 55.0449 46.0822 55.6209 46.0402C55.7749 46.0302 55.9239 46.0162 56.0709 46.0032C56.1749 45.9942 56.2749 45.9842 56.3759 45.9732C56.4249 45.9682 56.4729 45.9622 56.5219 45.9572C56.7819 45.9282 57.0349 45.8972 57.2739 45.8612C57.5879 45.8132 57.8809 45.7602 58.1539 45.7012H58.1549C58.4289 45.6432 58.6789 45.5792 58.9059 45.5102H59.0349V45.8612V46.0682V47.0382C58.9169 47.1282 58.6529 47.2832 58.1429 47.4392C57.8289 47.5342 57.4219 47.6292 56.8929 47.7092C56.8889 47.7102 56.8849 47.7102 56.8809 47.7112C56.8109 47.7212 56.7389 47.7312 56.6649 47.7412C56.5519 47.7562 56.4329 47.7702 56.3099 47.7842C56.2429 47.7912 56.1789 47.7992 56.1079 47.8062C55.9599 47.8212 55.8029 47.8342 55.6409 47.8462C55.2629 47.8742 54.8469 47.8952 54.3869 47.9062L53.7709 47.6492C53.7429 47.7112 53.6899 47.8022 53.5909 47.9152H53.5899C53.4719 48.0502 53.2829 48.2112 52.9969 48.3782C53.0009 48.3802 53.0049 48.3822 53.0079 48.3842Z" fill="#1895FF"/>
<path fill-rule="evenodd" clip-rule="evenodd" d="M53.0069 43.5746C53.1149 43.6436 53.2139 43.7146 53.3009 43.7906C53.3819 43.8596 53.4519 43.9316 53.5139 44.0066C53.5439 44.0426 53.5919 44.0736 53.6169 44.1116H53.7899L53.8019 44.3056C54.6449 44.3016 55.3749 44.2666 56.0109 44.2106C56.1259 44.2006 56.2419 44.1906 56.3509 44.1786C56.5259 44.1606 56.6949 44.1406 56.8539 44.1186C56.8809 44.1146 56.9119 44.1116 56.9389 44.1076C57.2069 44.0696 57.4479 44.0256 57.6739 43.9796C57.7319 43.9676 57.7879 43.9556 57.8439 43.9436C57.9519 43.9196 58.0569 43.8956 58.1559 43.8706C58.3059 43.8316 58.4469 43.7926 58.5769 43.7506C58.6339 43.7326 58.6869 43.7146 58.7409 43.6956C58.7599 43.6886 58.7819 43.6816 58.8019 43.6746C58.9419 43.6246 59.0729 43.5726 59.1879 43.5206C59.1909 43.5186 59.1959 43.5176 59.1989 43.5156C59.3279 43.4566 59.4359 43.3976 59.5349 43.3386C59.5689 43.3176 59.6019 43.2976 59.6329 43.2766C59.7949 43.1706 59.9149 43.0676 59.9999 42.9766C60.0559 42.9156 60.0969 42.8606 60.1289 42.8106C60.1539 42.7706 60.1749 42.7336 60.1879 42.7036L60.2029 41.7466L60.2119 41.1936L60.2199 40.7026L60.2299 40.0436L60.2309 39.9966C60.2159 39.9956 60.2019 39.9946 60.1879 39.9936C60.1849 39.9926 60.1819 39.9926 60.1789 39.9926C59.9709 39.9736 59.7699 39.9526 59.5809 39.9286C59.0329 39.8606 58.5619 39.7766 58.1559 39.6806C57.7499 39.7766 57.2779 39.8606 56.7309 39.9286C56.5419 39.9526 56.3399 39.9736 56.1319 39.9926C56.1289 39.9926 56.1269 39.9936 56.1239 39.9936C56.1069 39.9946 56.0889 39.9956 56.0719 39.9976C55.9229 40.0116 55.7809 40.0256 55.6219 40.0366C55.0809 40.0746 54.4759 40.0946 53.8139 40.0976L53.8079 40.7026L53.8009 41.3016C54.4339 41.2976 55.0459 41.2746 55.6219 41.2336C55.7749 41.2226 55.9239 41.2096 56.0719 41.1956C56.1749 41.1866 56.2759 41.1766 56.3759 41.1656C56.4259 41.1606 56.4739 41.1556 56.5219 41.1496C56.7819 41.1206 57.0349 41.0896 57.2739 41.0536C57.5889 41.0056 57.8819 40.9516 58.1549 40.8936C58.4289 40.8346 58.6789 40.7706 58.9059 40.7026H59.0359V41.0536V41.2606V42.2316C58.9169 42.3206 58.6529 42.4756 58.1429 42.6306C57.8299 42.7256 57.4219 42.8206 56.8929 42.9006C56.8899 42.9016 56.8859 42.9016 56.8819 42.9026C56.8119 42.9126 56.7389 42.9226 56.6649 42.9326C56.5519 42.9476 56.4329 42.9616 56.3099 42.9756C56.2429 42.9826 56.1789 42.9906 56.1079 42.9976C55.9599 43.0126 55.8029 43.0256 55.6409 43.0376C55.2629 43.0656 54.8469 43.0866 54.3849 43.0966L53.7709 42.8406C53.7429 42.9026 53.6899 42.9936 53.5919 43.1056C53.5909 43.1056 53.5909 43.1066 53.5909 43.1066C53.4719 43.2416 53.2829 43.4026 52.9979 43.5696C53.0009 43.5716 53.0039 43.5726 53.0069 43.5746Z" fill="#1895FF"/>
<path fill-rule="evenodd" clip-rule="evenodd" d="M60.1879 71.1062L60.2029 70.1502L60.2119 69.5962L60.2189 69.1062L60.2229 68.8492C60.0739 68.8362 59.9179 68.8242 59.7789 68.8082C59.7509 68.8052 59.7269 68.8012 59.6989 68.7982C59.0989 68.7272 58.5909 68.6362 58.1549 68.5342C57.7859 68.6212 57.3599 68.6982 56.8749 68.7632C56.7949 68.7732 56.7179 68.7852 56.6349 68.7942C56.6269 68.7962 56.6199 68.7962 56.6119 68.7982C56.5809 68.8012 56.5539 68.8062 56.5229 68.8092C56.3809 68.8252 56.2239 68.8372 56.0729 68.8502C55.9239 68.8642 55.7809 68.8792 55.6219 68.8902C55.0819 68.9272 54.4759 68.9472 53.8139 68.9512L53.8129 69.1052L53.8069 69.7032C54.4379 69.6992 55.0479 69.6772 55.6229 69.6352C55.7759 69.6242 55.9249 69.6112 56.0729 69.5982C56.1759 69.5882 56.2769 69.5782 56.3769 69.5682C56.4269 69.5632 56.4749 69.5572 56.5229 69.5522C56.7829 69.5232 57.0359 69.4912 57.2749 69.4552C57.5899 69.4082 57.8819 69.3542 58.1559 69.2952C58.4289 69.2372 58.6789 69.1732 58.9049 69.1052H59.0369V69.4552V69.6622V70.6322C58.9179 70.7212 58.6539 70.8772 58.1439 71.0322C57.8309 71.1272 57.4229 71.2222 56.8939 71.3022C56.8209 71.3132 56.7439 71.3242 56.6659 71.3342C56.5539 71.3502 56.4339 71.3642 56.3119 71.3772C56.2449 71.3852 56.1799 71.3932 56.1099 71.4002C55.9619 71.4152 55.8049 71.4272 55.6429 71.4392C55.2649 71.4672 54.8489 71.4882 54.3879 71.4992L53.7919 71.2512L53.7889 71.5072L53.7869 71.6622C53.7519 71.7512 53.6459 71.9442 53.3689 72.1712C53.2779 72.2452 53.1679 72.3232 53.0349 72.4032C53.0229 72.4102 53.0099 72.4162 52.9989 72.4232C53.1389 72.5122 53.2589 72.6072 53.3639 72.7072C53.4539 72.7082 53.5349 72.7112 53.6269 72.7112C54.9949 72.7112 56.0789 72.6332 56.9389 72.5102C57.2769 72.4622 57.5719 72.4062 57.8439 72.3462C57.9519 72.3222 58.0579 72.2982 58.1559 72.2732C58.3739 72.2172 58.5669 72.1592 58.7399 72.0982C58.9049 72.0412 59.0569 71.9832 59.1869 71.9232C59.6029 71.7332 59.8509 71.5402 59.9999 71.3792C60.1009 71.2692 60.1579 71.1732 60.1879 71.1062Z" fill="#1895FF"/>
<path fill-rule="evenodd" clip-rule="evenodd" d="M53.3667 77.2313H53.2347C53.2087 77.2023 53.1727 77.1743 53.1397 77.1463C53.0967 77.1743 53.0487 77.2023 53.0007 77.2313C52.9817 77.2423 52.9607 77.2533 52.9407 77.2653C52.8037 77.3413 52.6517 77.4193 52.4687 77.4953C51.4757 77.9083 49.7497 78.2823 46.7547 78.2823C43.7597 78.2823 42.0337 77.9083 41.0407 77.4953C40.8577 77.4193 40.7057 77.3423 40.5687 77.2653C40.5487 77.2543 40.5277 77.2433 40.5087 77.2323C40.4597 77.2033 40.4117 77.1753 40.3687 77.1473C40.3357 77.1753 40.2997 77.2023 40.2737 77.2323H40.1417V77.5323V77.7753V79.8103V79.9033V80.1933L40.1927 80.4353C40.3577 80.8123 41.3187 82.0403 46.7537 82.0403C52.1907 82.0403 53.1507 80.8113 53.3157 80.4343L53.3577 77.7753L53.3607 77.5563C53.3617 77.5483 53.3667 77.5403 53.3667 77.5323C53.3667 77.5253 53.3617 77.5173 53.3617 77.5103L53.3667 77.2313ZM52.1637 78.4343V79.9613C51.8837 80.1723 50.8167 80.7503 47.5147 80.8283L42.2257 78.6243C43.4097 78.8773 44.9997 79.0343 46.7547 79.0343C48.9147 79.0343 50.8267 78.7973 52.0327 78.4343H52.1637Z" fill="#1895FF"/>
<path fill-rule="evenodd" clip-rule="evenodd" d="M53.3667 72.8731H53.2347C53.2297 72.8671 53.2217 72.8611 53.2167 72.8561C53.1677 72.8041 53.1057 72.7531 53.0337 72.7041C52.9577 72.6511 52.8667 72.6001 52.7667 72.5501C52.6947 72.5851 52.6177 72.6211 52.5357 72.6571C52.5107 72.6671 52.4877 72.6781 52.4607 72.6891C52.3527 72.7341 52.2347 72.7781 52.1077 72.8221C52.0577 72.8391 51.9997 72.8561 51.9467 72.8731C51.9407 72.8751 51.9337 72.8771 51.9277 72.8791C51.5927 72.9851 51.1947 73.0831 50.7307 73.1681C49.7477 73.3491 48.4627 73.4731 46.7537 73.4731C44.2367 73.4731 42.6237 73.2081 41.5807 72.8791C41.5747 72.8771 41.5677 72.8751 41.5617 72.8731C41.3417 72.8031 41.1447 72.7311 40.9737 72.6571C40.8917 72.6211 40.8137 72.5851 40.7427 72.5501C40.5367 72.6521 40.3747 72.7601 40.2737 72.8731H40.1417V73.1731V73.4171V75.4521V75.5451V75.8351L40.1927 76.0771C40.2467 76.2001 40.3897 76.4141 40.7407 76.6461C40.8147 76.6941 40.9007 76.7441 40.9947 76.7941C41.0617 76.8301 41.1317 76.8651 41.2097 76.9001C41.3927 76.9831 41.6067 77.0651 41.8587 77.1431C41.9577 77.1731 42.0687 77.2021 42.1797 77.2311C43.1567 77.4881 44.6007 77.6821 46.7537 77.6821C48.9077 77.6821 50.3507 77.4881 51.3277 77.2311C51.4387 77.2021 51.5497 77.1731 51.6487 77.1431C51.9017 77.0651 52.1157 76.9831 52.2987 76.9001C52.3767 76.8651 52.4457 76.8291 52.5127 76.7941C52.6077 76.7441 52.6927 76.6941 52.7677 76.6451C53.1187 76.4131 53.2617 76.1981 53.3157 76.0751L53.3577 73.4171L53.3597 73.3081L53.3607 73.1971C53.3617 73.1891 53.3667 73.1811 53.3667 73.1731C53.3667 73.1661 53.3617 73.1591 53.3617 73.1521L53.3667 72.8731ZM52.1637 74.0751V75.6021C52.0337 75.7011 51.7327 75.8781 51.1167 76.0481C50.8627 76.1181 50.5537 76.1861 50.1827 76.2471C50.1237 76.2571 50.0627 76.2661 50.0007 76.2761C49.3607 76.3721 48.5477 76.4451 47.5147 76.4701L46.4637 76.0321H46.4627L45.4727 75.6191L42.2237 74.2651C43.4077 74.5191 44.9987 74.6751 46.7537 74.6751C48.9147 74.6751 50.8267 74.4391 52.0327 74.0751H52.1637Z" fill="#1895FF"/>
<path fill-rule="evenodd" clip-rule="evenodd" d="M41.1815 72.0803C41.2985 72.1343 41.4335 72.1873 41.5785 72.2393C41.6495 72.2653 41.7245 72.2903 41.8035 72.3153C42.0605 72.3973 42.3605 72.4743 42.7055 72.5443C43.6575 72.7373 44.9575 72.8733 46.7545 72.8733C47.5025 72.8733 48.1585 72.8483 48.7475 72.8073C49.3045 72.7673 49.7935 72.7133 50.2235 72.6463C50.3985 72.6193 50.5665 72.5913 50.7225 72.5613C50.7505 72.5563 50.7745 72.5503 50.8015 72.5443C51.1085 72.4823 51.3855 72.4153 51.6225 72.3433C51.6525 72.3343 51.6765 72.3243 51.7045 72.3153C51.7835 72.2903 51.8585 72.2653 51.9295 72.2393C51.9915 72.2173 52.0505 72.1943 52.1075 72.1713C52.1825 72.1413 52.2595 72.1113 52.3265 72.0803C52.7665 71.8773 53.0145 71.6713 53.1575 71.5053C53.2385 71.4103 53.2895 71.3273 53.3155 71.2673L53.3195 71.0563L53.3405 69.7033L53.3495 69.1063L53.3525 68.9503L53.3575 68.6073L53.3595 68.4993L53.3615 68.3883C53.3615 68.3803 53.3665 68.3723 53.3665 68.3643C53.3665 68.3593 53.3635 68.3543 53.3635 68.3503C53.3635 68.3473 53.3625 68.3453 53.3615 68.3433L53.3665 68.0633H53.2335C53.2285 68.0583 53.2225 68.0533 53.2175 68.0483C53.1745 68.0033 53.1245 67.9583 53.0645 67.9143C53.0595 67.9103 53.0525 67.9073 53.0475 67.9033C52.9675 67.8473 52.8715 67.7933 52.7655 67.7403C52.6935 67.7763 52.6165 67.8123 52.5345 67.8473C52.5225 67.8533 52.5135 67.8573 52.5025 67.8623C52.4695 67.8763 52.4325 67.8903 52.3985 67.9043C52.3045 67.9413 52.2085 67.9793 52.1015 68.0153C52.0535 68.0323 51.9985 68.0473 51.9475 68.0643C51.9415 68.0663 51.9335 68.0683 51.9265 68.0703C51.7205 68.1353 51.4895 68.1973 51.2355 68.2563C51.0795 68.2923 50.9145 68.3263 50.7395 68.3583C50.2965 68.4403 49.7875 68.5093 49.2075 68.5613C48.6875 68.6083 48.1075 68.6403 47.4635 68.6543C47.4155 68.6553 47.3665 68.6553 47.3185 68.6563C47.2165 68.6583 47.1175 68.6603 47.0125 68.6613C46.9235 68.6623 46.8445 68.6653 46.7535 68.6653C46.6865 68.6653 46.6285 68.6623 46.5625 68.6623C44.1585 68.6483 42.5955 68.3913 41.5805 68.0703C41.5735 68.0683 41.5655 68.0663 41.5595 68.0643C41.3395 67.9943 41.1435 67.9223 40.9725 67.8483C40.8905 67.8133 40.8145 67.7773 40.7415 67.7413C40.5365 67.8433 40.3745 67.9513 40.2735 68.0643H40.1405V68.3643V68.6083V70.6433V70.7353V71.0263L40.1915 71.2683C40.2655 71.4333 40.4915 71.7623 41.1815 72.0803ZM46.5635 69.8643C46.6275 69.8653 46.6895 69.8673 46.7545 69.8673C46.8415 69.8673 46.9265 69.8643 47.0135 69.8643C47.0825 69.8633 47.1515 69.8623 47.2205 69.8613C47.3015 69.8603 47.3835 69.8603 47.4635 69.8583C47.7195 69.8513 47.9695 69.8413 48.2155 69.8283C48.8495 69.7963 49.4485 69.7433 49.9995 69.6723C50.2675 69.6383 50.5225 69.5993 50.7665 69.5573C51.2455 69.4733 51.6725 69.3753 52.0355 69.2663H52.1645V69.6683V70.5753V70.7943C52.0055 70.9143 51.5895 71.1513 50.6645 71.3483C50.4695 71.3903 50.2535 71.4303 50.0105 71.4663C49.5105 71.5413 48.9045 71.6033 48.1685 71.6383C48.1575 71.6393 48.1475 71.6393 48.1365 71.6403C47.9615 71.6483 47.7755 71.6543 47.5845 71.6593C47.5605 71.6603 47.5395 71.6613 47.5145 71.6623L47.1295 71.5013L46.5625 71.2653L46.4725 71.2283L42.2235 69.4573C43.3645 69.7013 44.8835 69.8533 46.5635 69.8643Z" fill="#1895FF"/>
<path fill-rule="evenodd" clip-rule="evenodd" d="M41.1811 67.2705C41.2981 67.3245 41.4331 67.3775 41.5791 67.4295C41.6501 67.4555 41.7251 67.4815 41.8031 67.5055C42.0611 67.5875 42.3611 67.6645 42.7061 67.7345C43.6221 67.9205 44.8681 68.0505 46.5631 68.0595C46.6281 68.0605 46.6871 68.0625 46.7541 68.0625C46.8451 68.0625 46.9251 68.0595 47.0131 68.0595C47.0241 68.0595 47.0341 68.0585 47.0451 68.0585C47.1331 68.0585 47.2181 68.0565 47.3041 68.0545C47.4211 68.0525 47.5451 68.0525 47.6571 68.0505C47.8441 68.0445 48.0171 68.0365 48.1931 68.0275C48.4021 68.0175 48.6061 68.0065 48.7991 67.9925C48.9551 67.9815 49.1101 67.9695 49.2561 67.9555C49.4231 67.9405 49.5791 67.9215 49.7321 67.9035C49.9071 67.8815 50.0761 67.8595 50.2341 67.8345C50.4361 67.8035 50.6261 67.7705 50.8021 67.7345C50.8881 67.7165 50.9731 67.6985 51.0521 67.6805C51.2941 67.6255 51.5111 67.5665 51.7051 67.5055C51.7831 67.4795 51.8581 67.4545 51.9291 67.4295C52.0741 67.3765 52.2101 67.3235 52.3271 67.2695C52.3891 67.2415 52.4411 67.2125 52.4961 67.1845C52.5291 67.1675 52.5671 67.1495 52.5971 67.1325C52.8671 66.9805 53.0371 66.8335 53.1481 66.7065L53.1491 66.7055C53.1661 66.6855 53.1851 66.6655 53.1991 66.6475C53.2571 66.5725 53.2941 66.5075 53.3161 66.4575L53.3191 66.2575L53.3331 65.3445L53.3431 64.7475L53.3521 64.1405L53.3581 63.7985L53.3601 63.6905L53.3611 63.5785C53.3621 63.5705 53.3671 63.5625 53.3671 63.5545C53.3671 63.5515 53.3651 63.5485 53.3651 63.5455C53.3651 63.5435 53.3641 63.5425 53.3641 63.5415C53.3641 63.5385 53.3621 63.5365 53.3621 63.5335L53.3671 63.2545H53.2341C53.2301 63.2495 53.2231 63.2445 53.2181 63.2395C53.1751 63.1935 53.1251 63.1495 53.0651 63.1055C52.9821 63.0455 52.8791 62.9875 52.7651 62.9315C52.6941 62.9675 52.6171 63.0025 52.5351 63.0385C52.5231 63.0435 52.5141 63.0485 52.5021 63.0535C52.3801 63.1045 52.2461 63.1565 52.1011 63.2055C52.0521 63.2225 51.9971 63.2385 51.9461 63.2545C51.9401 63.2565 51.9331 63.2585 51.9271 63.2605C51.7201 63.3255 51.4881 63.3885 51.2331 63.4465C51.0831 63.4815 50.9231 63.5135 50.7551 63.5455C50.7501 63.5465 50.7441 63.5465 50.7391 63.5485C50.2951 63.6305 49.7861 63.6985 49.2051 63.7515C48.7951 63.7885 48.3591 63.8185 47.8731 63.8355C47.6511 63.8425 47.4101 63.8455 47.1711 63.8485C47.1181 63.8485 47.0681 63.8505 47.0141 63.8505H47.0131C46.9241 63.8515 46.8451 63.8545 46.7541 63.8545C46.6871 63.8545 46.6291 63.8515 46.5631 63.8515C44.1601 63.8375 42.5961 63.5805 41.5811 63.2605C41.5751 63.2585 41.5681 63.2565 41.5621 63.2545C41.3421 63.1845 41.1451 63.1125 40.9741 63.0385C40.8921 63.0025 40.8141 62.9665 40.7431 62.9315C40.5371 63.0335 40.3751 63.1415 40.2741 63.2545H40.1411V63.5555V63.7985V65.8345V65.9265V66.2175L40.1921 66.4595C40.2651 66.6245 40.4911 66.9535 41.1811 67.2705ZM46.5631 65.0555C46.6271 65.0555 46.6901 65.0575 46.7541 65.0575C46.8421 65.0575 46.9271 65.0555 47.0131 65.0545C47.1331 65.0535 47.2531 65.0535 47.3711 65.0505C47.4021 65.0505 47.4331 65.0495 47.4641 65.0495C47.7191 65.0425 47.9691 65.0325 48.2161 65.0205C48.5331 65.0035 48.8401 64.9825 49.1381 64.9555C49.1481 64.9545 49.1581 64.9545 49.1681 64.9535C49.7461 64.9015 50.2821 64.8315 50.7671 64.7475C51.2451 64.6645 51.6711 64.5665 52.0341 64.4575H52.1641V64.7475V65.3095V65.9855C52.1161 66.0215 52.0411 66.0695 51.9391 66.1225C51.7951 66.1985 51.5901 66.2865 51.3021 66.3755C50.9831 66.4745 50.5611 66.5735 50.0111 66.6565C49.8021 66.6885 49.5751 66.7165 49.3281 66.7425C49.2551 66.7505 49.1811 66.7575 49.1041 66.7645C48.7001 66.8015 48.2431 66.8285 47.7341 66.8445C47.6601 66.8475 47.5901 66.8505 47.5131 66.8525L47.4641 66.8315L47.0441 66.6565L47.0131 66.6435L46.5631 66.4555L46.4711 66.4175L42.2241 64.6485C43.3641 64.8915 44.8841 65.0445 46.5631 65.0555Z" fill="#1895FF"/>
<path fill-rule="evenodd" clip-rule="evenodd" d="M41.1815 62.4619C41.2985 62.5159 41.4335 62.5689 41.5785 62.6209C41.6505 62.6469 41.7245 62.6729 41.8035 62.6969C42.0615 62.7789 42.3615 62.8559 42.7065 62.9259C43.6585 63.1189 44.9575 63.2549 46.7535 63.2549C46.8915 63.2549 47.0145 63.2509 47.1465 63.2489C47.2885 63.2479 47.4325 63.2459 47.5685 63.2429C47.5965 63.2419 47.6285 63.2429 47.6565 63.2419C47.7945 63.2379 47.9215 63.2309 48.0535 63.2259C48.3135 63.2149 48.5635 63.2009 48.7985 63.1839C48.9555 63.1729 49.1095 63.1609 49.2545 63.1469C49.6125 63.1139 49.9355 63.0719 50.2325 63.0269C50.4345 62.9949 50.6245 62.9619 50.8005 62.9259C50.8875 62.9079 50.9715 62.8899 51.0525 62.8719C51.2935 62.8169 51.5105 62.7579 51.7035 62.6969C51.7825 62.6709 51.8575 62.6459 51.9285 62.6209C52.0735 62.5679 52.2085 62.5149 52.3255 62.4609C52.3915 62.4309 52.4465 62.4009 52.5035 62.3709C52.5075 62.3689 52.5115 62.3669 52.5155 62.3649C52.5415 62.3519 52.5715 62.3379 52.5955 62.3239C52.8605 62.1749 53.0305 62.0289 53.1425 61.9039C53.1625 61.8809 53.1815 61.8589 53.1985 61.8379C53.2565 61.7629 53.2935 61.6979 53.3155 61.6479L53.3325 60.5349L53.3425 59.9369L53.3515 59.3319L53.3575 58.9889L53.3595 58.8809L53.3605 58.7699C53.3615 58.7619 53.3665 58.7539 53.3665 58.7459C53.3665 58.7419 53.3635 58.7389 53.3635 58.7359C53.3635 58.7339 53.3635 58.7329 53.3635 58.7319C53.3635 58.7289 53.3615 58.7279 53.3615 58.7249L53.3655 58.4459H53.2335C53.2295 58.4409 53.2225 58.4359 53.2175 58.4309C53.1745 58.3849 53.1255 58.3399 53.0645 58.2959C52.9825 58.2369 52.8785 58.1789 52.7655 58.1229C52.6935 58.1589 52.6165 58.1939 52.5345 58.2299C52.5235 58.2349 52.5145 58.2399 52.5025 58.2439C52.3805 58.2959 52.2465 58.3479 52.1005 58.3979C52.0525 58.4149 51.9975 58.4299 51.9465 58.4459C51.9395 58.4479 51.9335 58.4499 51.9265 58.4519C51.7205 58.5169 51.4905 58.5789 51.2365 58.6379C51.0865 58.6719 50.9285 58.7049 50.7615 58.7359C50.7545 58.7369 50.7465 58.7379 50.7395 58.7399C50.2965 58.8219 49.7875 58.8909 49.2065 58.9429C48.7965 58.9799 48.3595 59.0099 47.8735 59.0269C47.6515 59.0349 47.4095 59.0369 47.1705 59.0399C47.1185 59.0409 47.0685 59.0419 47.0145 59.0419H47.0135C46.9245 59.0429 46.8455 59.0459 46.7545 59.0459C46.6875 59.0459 46.6295 59.0439 46.5635 59.0429C44.1595 59.0299 42.5965 58.7729 41.5815 58.4519C41.5755 58.4499 41.5685 58.4479 41.5615 58.4459C41.3415 58.3759 41.1445 58.3039 40.9735 58.2299C40.8915 58.1939 40.8145 58.1589 40.7425 58.1229C40.5365 58.2249 40.3755 58.3329 40.2745 58.4459H40.1425V58.7459V58.9899V61.0249V61.1179V61.4079L40.1925 61.6499C40.2655 61.8149 40.4915 62.1439 41.1815 62.4619ZM46.5635 60.2469C46.6275 60.2469 46.6895 60.2489 46.7545 60.2489C46.8415 60.2489 46.9265 60.2469 47.0135 60.2459C47.1335 60.2449 47.2535 60.2439 47.3715 60.2419C47.4025 60.2409 47.4325 60.2409 47.4635 60.2399C47.7195 60.2339 47.9695 60.2239 48.2155 60.2109C48.5325 60.1949 48.8395 60.1729 49.1385 60.1469C49.1485 60.1459 49.1585 60.1449 49.1685 60.1439C49.7475 60.0929 50.2845 60.0229 50.7705 59.9379C51.2475 59.8549 51.6715 59.7579 52.0335 59.6489H52.1645V59.9379V60.5009V61.1759C52.1165 61.2119 52.0415 61.2599 51.9395 61.3139C51.6355 61.4739 51.0565 61.6899 50.0105 61.8479C49.8025 61.8789 49.5745 61.9079 49.3275 61.9329C48.8695 61.9809 48.3405 62.0169 47.7345 62.0359C47.6605 62.0379 47.5905 62.0409 47.5145 62.0429L47.4645 62.0219L47.0445 61.8469L47.0135 61.8339L46.5635 61.6459L46.4725 61.6079L42.2235 59.8389C43.3635 60.0829 44.8835 60.2359 46.5635 60.2469Z" fill="#1895FF"/>
<path fill-rule="evenodd" clip-rule="evenodd" d="M41.1815 57.6528C41.2985 57.7068 41.4335 57.7598 41.5785 57.8118C41.6495 57.8378 41.7245 57.8628 41.8035 57.8878C42.0605 57.9698 42.3615 58.0468 42.7065 58.1168C43.6575 58.3098 44.9575 58.4458 46.7545 58.4458C46.8915 58.4458 47.0135 58.4418 47.1455 58.4398C47.2875 58.4388 47.4325 58.4378 47.5685 58.4338C47.5975 58.4338 47.6295 58.4338 47.6585 58.4328C47.7965 58.4288 47.9225 58.4218 48.0535 58.4168C48.3145 58.4058 48.5645 58.3918 48.8005 58.3748C48.9575 58.3638 49.1125 58.3518 49.2585 58.3388C49.6145 58.3048 49.9375 58.2638 50.2335 58.2178C50.4355 58.1858 50.6255 58.1528 50.8025 58.1168C50.8885 58.0988 50.9735 58.0808 51.0545 58.0628C51.2955 58.0078 51.5125 57.9488 51.7055 57.8878C51.7845 57.8628 51.8585 57.8368 51.9295 57.8118C52.0755 57.7598 52.2095 57.7058 52.3265 57.6518C52.3925 57.6218 52.4485 57.5918 52.5055 57.5618C52.5095 57.5598 52.5135 57.5578 52.5175 57.5558C52.5435 57.5418 52.5745 57.5278 52.5985 57.5148C52.8635 57.3648 53.0325 57.2188 53.1445 57.0938C53.1635 57.0718 53.1835 57.0498 53.1995 57.0288C53.2575 56.9548 53.2945 56.8888 53.3165 56.8388L53.3345 55.7258L53.3435 55.1288L53.3535 54.5218L53.3585 54.1799L53.3605 54.0719L53.3625 53.9609C53.3625 53.9529 53.3675 53.9449 53.3675 53.9369C53.3675 53.9329 53.3655 53.9299 53.3655 53.9259C53.3655 53.9249 53.3645 53.9239 53.3635 53.9229C53.3635 53.9209 53.3625 53.9179 53.3625 53.9159L53.3665 53.6359H53.2345C53.2295 53.6309 53.2225 53.6259 53.2175 53.6209C53.1745 53.5759 53.1255 53.5309 53.0655 53.4869C52.9825 53.4269 52.8795 53.3699 52.7655 53.3129C52.6945 53.3489 52.6175 53.3849 52.5355 53.4199C52.5235 53.4249 52.5145 53.4299 52.5035 53.4349C52.3815 53.4869 52.2475 53.5379 52.1025 53.5879C52.0545 53.6039 51.9995 53.6199 51.9495 53.6359C51.9425 53.6379 51.9345 53.6409 51.9275 53.6429C51.7215 53.7079 51.4905 53.7699 51.2365 53.8289C51.0865 53.8629 50.9275 53.8959 50.7605 53.9269C50.7545 53.9279 50.7475 53.9289 50.7405 53.9309C50.2975 54.0129 49.7885 54.0819 49.2085 54.1339C48.7975 54.1709 48.3605 54.2009 47.8725 54.2179C47.6505 54.2259 47.4095 54.2279 47.1705 54.2309C47.1185 54.2319 47.0685 54.2329 47.0145 54.2329H47.0135C46.9245 54.2339 46.8455 54.2379 46.7545 54.2379C46.6865 54.2379 46.6285 54.2349 46.5625 54.2339C44.1595 54.2209 42.5955 53.9629 41.5815 53.6429C41.5745 53.6409 41.5665 53.6379 41.5595 53.6359C41.3405 53.5669 41.1435 53.4939 40.9735 53.4209C40.8915 53.3849 40.8145 53.3489 40.7425 53.3139C40.5365 53.4159 40.3755 53.5239 40.2745 53.6359H40.1415V53.9369V54.1809V56.2158V56.3088V56.5988L40.1925 56.8408C40.2655 57.0058 40.4915 57.3348 41.1815 57.6528ZM46.5635 55.4378C46.6275 55.4378 46.6895 55.4398 46.7545 55.4398C46.8415 55.4398 46.9265 55.4378 47.0135 55.4368C47.1335 55.4358 47.2535 55.4348 47.3715 55.4328C47.4025 55.4318 47.4325 55.4318 47.4635 55.4308C47.7195 55.4248 47.9695 55.4148 48.2155 55.4018C48.5325 55.3858 48.8395 55.3638 49.1375 55.3378C49.1475 55.3368 49.1585 55.3358 49.1685 55.3348C49.7465 55.2838 50.2835 55.2138 50.7685 55.1298C51.2475 55.0458 51.6725 54.9488 52.0355 54.8388H52.1645V55.1298V55.6918V56.3678C52.1155 56.4038 52.0415 56.4518 51.9395 56.5048C51.6355 56.6648 51.0565 56.8818 50.0105 57.0398C49.8025 57.0708 49.5755 57.0988 49.3285 57.1248C48.8705 57.1728 48.3415 57.2088 47.7345 57.2278C47.6615 57.2298 47.5915 57.2328 47.5155 57.2348L47.4645 57.2138L47.0445 57.0388L47.0135 57.0258L46.5635 56.8378L46.4735 56.8008L42.2245 55.0298C43.3645 55.2738 44.8835 55.4268 46.5635 55.4378Z" fill="#1895FF"/>
<path fill-rule="evenodd" clip-rule="evenodd" d="M41.1811 52.8435C41.2981 52.8975 41.4331 52.9505 41.5791 53.0025C41.6501 53.0285 41.7251 53.0535 41.8031 53.0785C42.0611 53.1605 42.3611 53.2375 42.7061 53.3075C43.6581 53.5005 44.9581 53.6365 46.7541 53.6365C46.8921 53.6365 47.0151 53.6325 47.1471 53.6305C47.2891 53.6285 47.4341 53.6275 47.5701 53.6245C47.5981 53.6235 47.6291 53.6245 47.6571 53.6235C47.7961 53.6195 47.9231 53.6125 48.0551 53.6065C48.3141 53.5965 48.5641 53.5825 48.7991 53.5655C48.9551 53.5545 49.1101 53.5425 49.2561 53.5295C49.6131 53.4955 49.9361 53.4545 50.2341 53.4085C50.4361 53.3765 50.6251 53.3435 50.8021 53.3075C50.8881 53.2905 50.9721 53.2725 51.0521 53.2535C51.2941 53.1985 51.5111 53.1405 51.7051 53.0785C51.7831 53.0535 51.8581 53.0285 51.9291 53.0025C52.0741 52.9505 52.2101 52.8975 52.3271 52.8435C52.3921 52.8135 52.4481 52.7835 52.5051 52.7525C52.5091 52.7505 52.5131 52.7485 52.5171 52.7465C52.5431 52.7335 52.5731 52.7195 52.5971 52.7055C52.8631 52.5555 53.0321 52.4105 53.1431 52.2855C53.1631 52.2625 53.1821 52.2405 53.1991 52.2205C53.2561 52.1455 53.2941 52.0805 53.3151 52.0305L53.3331 50.9175L53.3431 50.3205L53.3521 49.7135L53.3581 49.3715L53.3591 49.2635L53.3611 49.1515C53.3621 49.1435 53.3661 49.1355 53.3661 49.1275C53.3661 49.1245 53.3641 49.1215 53.3641 49.1185C53.3641 49.1165 53.3641 49.1155 53.3641 49.1145C53.3641 49.1115 53.3621 49.1095 53.3621 49.1075L53.3661 48.8275H53.2341C53.2291 48.8225 53.2231 48.8175 53.2181 48.8125C53.1751 48.7665 53.1251 48.7225 53.0651 48.6785C52.9821 48.6185 52.8791 48.5615 52.7651 48.5045C52.6941 48.5405 52.6171 48.5755 52.5351 48.6115C52.5231 48.6165 52.5141 48.6215 52.5021 48.6265C52.3801 48.6785 52.2461 48.7295 52.1011 48.7795C52.0521 48.7955 51.9971 48.8115 51.9461 48.8275C51.9401 48.8295 51.9331 48.8315 51.9271 48.8335C51.7201 48.8995 51.4881 48.9615 51.2331 49.0205C51.0831 49.0545 50.9231 49.0865 50.7551 49.1185C50.7501 49.1195 50.7441 49.1205 50.7391 49.1215C50.2951 49.2035 49.7861 49.2725 49.2061 49.3245C48.7961 49.3615 48.3601 49.3915 47.8741 49.4085C47.6521 49.4165 47.4101 49.4185 47.1711 49.4215C47.1181 49.4225 47.0691 49.4235 47.0151 49.4245H47.0131C46.9251 49.4245 46.8451 49.4285 46.7541 49.4285C46.6871 49.4285 46.6291 49.4255 46.5631 49.4245C44.1601 49.4115 42.5971 49.1545 41.5821 48.8335C41.5751 48.8315 41.5681 48.8295 41.5621 48.8275C41.3421 48.7585 41.1451 48.6855 40.9741 48.6115C40.8921 48.5765 40.8151 48.5405 40.7431 48.5045C40.5371 48.6075 40.3751 48.7155 40.2751 48.8285H40.1421V49.1285V49.3725V51.4075V51.4995V51.7905L40.1931 52.0325C40.2651 52.1975 40.4911 52.5265 41.1811 52.8435ZM46.5631 50.6285C46.6271 50.6285 46.6901 50.6305 46.7541 50.6305C46.8421 50.6305 46.9271 50.6285 47.0131 50.6275C47.1331 50.6265 47.2531 50.6255 47.3711 50.6235C47.4021 50.6225 47.4331 50.6225 47.4641 50.6215C47.7191 50.6155 47.9691 50.6055 48.2161 50.5925C48.5331 50.5765 48.8401 50.5545 49.1381 50.5285C49.1481 50.5275 49.1581 50.5265 49.1691 50.5255C49.7461 50.4745 50.2821 50.4045 50.7661 50.3205C51.2451 50.2365 51.6711 50.1395 52.0341 50.0295H52.1641V50.3205V50.8825V51.5585C52.1161 51.5945 52.0411 51.6425 51.9391 51.6955C51.6351 51.8555 51.0571 52.0725 50.0111 52.2295C49.8021 52.2615 49.5751 52.2895 49.3281 52.3155C48.8701 52.3625 48.3401 52.3985 47.7341 52.4175C47.6601 52.4195 47.5901 52.4225 47.5131 52.4245L47.4641 52.4045L47.0441 52.2295L47.0131 52.2165L46.5631 52.0285L46.4711 51.9905L42.2241 50.2205C43.3641 50.4645 44.8841 50.6175 46.5631 50.6285Z" fill="#1895FF"/>
<path fill-rule="evenodd" clip-rule="evenodd" d="M41.1815 48.0347C41.2985 48.0887 41.4335 48.1417 41.5785 48.1937C41.6505 48.2197 41.7245 48.2457 41.8035 48.2697C42.0615 48.3517 42.3615 48.4287 42.7065 48.4987C43.6585 48.6917 44.9585 48.8277 46.7545 48.8277C46.8915 48.8277 47.0145 48.8237 47.1465 48.8217C47.2885 48.8207 47.4335 48.8197 47.5695 48.8157C47.5975 48.8157 47.6285 48.8157 47.6565 48.8147C47.7955 48.8107 47.9215 48.8037 48.0535 48.7987C48.3145 48.7877 48.5645 48.7737 48.7995 48.7567C48.9555 48.7457 49.1105 48.7337 49.2555 48.7197C49.6125 48.6867 49.9355 48.6447 50.2335 48.5997C50.4355 48.5677 50.6245 48.5347 50.8015 48.4987C50.8875 48.4807 50.9725 48.4627 51.0525 48.4447C51.2945 48.3897 51.5115 48.3307 51.7045 48.2697C51.7835 48.2437 51.8575 48.2187 51.9295 48.1937C52.0745 48.1407 52.2095 48.0877 52.3265 48.0337C52.3915 48.0037 52.4475 47.9737 52.5045 47.9437C52.5085 47.9417 52.5125 47.9397 52.5165 47.9377C52.5425 47.9237 52.5715 47.9097 52.5955 47.8967C52.8615 47.7477 53.0305 47.6017 53.1425 47.4767C53.1625 47.4537 53.1825 47.4317 53.1985 47.4107C53.2565 47.3357 53.2945 47.2707 53.3155 47.2207L53.3335 46.1077L53.3425 45.5097L53.3525 44.9037L53.3575 44.5617L53.3595 44.4537L53.3615 44.3417C53.3625 44.3337 53.3665 44.3257 53.3665 44.3177C53.3665 44.3147 53.3645 44.3117 53.3645 44.3077C53.3645 44.3067 53.3635 44.3057 53.3635 44.3037C53.3635 44.3017 53.3625 44.2997 53.3625 44.2967L53.3665 44.0167H53.2335C53.2295 44.0117 53.2225 44.0067 53.2175 44.0017C53.1745 43.9567 53.1255 43.9117 53.0645 43.8677C52.9825 43.8087 52.8795 43.7507 52.7665 43.6947C52.6945 43.7307 52.6175 43.7657 52.5355 43.8017C52.5235 43.8067 52.5145 43.8117 52.5035 43.8167C52.3825 43.8677 52.2485 43.9187 52.1035 43.9687C52.0555 43.9847 52.0005 44.0007 51.9495 44.0167C51.9425 44.0197 51.9345 44.0217 51.9275 44.0237C51.7215 44.0887 51.4905 44.1517 51.2365 44.2097C51.0875 44.2437 50.9285 44.2767 50.7615 44.3077C50.7545 44.3087 50.7475 44.3107 50.7405 44.3117C50.2975 44.3937 49.7895 44.4617 49.2095 44.5147C48.7985 44.5507 48.3605 44.5817 47.8735 44.5987C47.6515 44.6067 47.4105 44.6087 47.1715 44.6117C47.1185 44.6127 47.0685 44.6137 47.0155 44.6137H47.0145C46.9255 44.6147 46.8455 44.6177 46.7545 44.6177C46.6875 44.6177 46.6295 44.6157 46.5635 44.6157C44.1595 44.6017 42.5965 44.3447 41.5815 44.0237C41.5745 44.0217 41.5665 44.0187 41.5595 44.0167C41.3405 43.9467 41.1435 43.8747 40.9735 43.8017C40.8915 43.7657 40.8145 43.7307 40.7425 43.6947C40.5375 43.7967 40.3755 43.9047 40.2755 44.0167H40.1425V44.3177V44.5617V46.5977V46.6897V46.9797L40.1925 47.2217C40.2655 47.3877 40.4915 47.7167 41.1815 48.0347ZM46.5635 45.8197C46.6275 45.8197 46.6895 45.8217 46.7545 45.8217C46.8415 45.8217 46.9265 45.8197 47.0135 45.8187C47.1335 45.8177 47.2535 45.8167 47.3715 45.8147C47.4025 45.8137 47.4325 45.8137 47.4635 45.8127C47.7195 45.8067 47.9695 45.7967 48.2155 45.7837C48.5325 45.7677 48.8395 45.7457 49.1375 45.7197C49.1475 45.7187 49.1585 45.7177 49.1685 45.7167C49.7465 45.6657 50.2845 45.5957 50.7705 45.5107C51.2485 45.4277 51.6735 45.3297 52.0355 45.2207H52.1645V45.5107V46.0737V46.7487C52.1155 46.7857 52.0405 46.8337 51.9395 46.8867C51.6345 47.0467 51.0565 47.2637 50.0105 47.4217C49.8025 47.4527 49.5745 47.4817 49.3275 47.5067C48.8695 47.5547 48.3405 47.5907 47.7345 47.6087C47.6605 47.6117 47.5905 47.6147 47.5145 47.6167L47.4645 47.5957L47.0445 47.4207L47.0135 47.4077L46.5635 47.2197L46.4725 47.1817L42.2245 45.4117C43.3645 45.6557 44.8835 45.8087 46.5635 45.8197Z" fill="#1895FF"/>
<path fill-rule="evenodd" clip-rule="evenodd" d="M41.1815 43.2259C41.2985 43.2799 41.4335 43.3329 41.5785 43.3849C41.6495 43.4109 41.7245 43.4359 41.8025 43.4609C42.0605 43.5429 42.3605 43.6199 42.7055 43.6899C43.6445 43.8809 44.9255 44.0139 46.6835 44.0179C46.7075 44.0179 46.7295 44.0189 46.7535 44.0189C46.7785 44.0189 46.7995 44.0179 46.8245 44.0179C46.9355 44.0179 47.0365 44.0149 47.1455 44.0129C47.2875 44.0119 47.4315 44.0109 47.5675 44.0069C47.5965 44.0059 47.6295 44.0059 47.6585 44.0059C47.7955 44.0019 47.9215 43.9949 48.0525 43.9899C48.3135 43.9789 48.5645 43.9649 48.8005 43.9479C48.9575 43.9369 49.1125 43.9249 49.2585 43.9109C49.6155 43.8779 49.9385 43.8359 50.2365 43.7899C50.4375 43.7589 50.6255 43.7259 50.8015 43.6899C50.8885 43.6719 50.9735 43.6549 51.0545 43.6359C51.2955 43.5809 51.5125 43.5219 51.7055 43.4609C51.7835 43.4359 51.8585 43.4109 51.9295 43.3849C52.0745 43.3329 52.2095 43.2799 52.3265 43.2259C52.3925 43.1959 52.4475 43.1649 52.5055 43.1349C52.5095 43.1329 52.5135 43.1309 52.5175 43.1289C52.5435 43.1149 52.5735 43.1009 52.5975 43.0879C52.8635 42.9379 53.0325 42.7919 53.1435 42.6669C53.1635 42.6449 53.1825 42.6229 53.1995 42.6019C53.2565 42.5279 53.2945 42.4629 53.3165 42.4129L53.3335 41.2989L53.3435 40.7019L53.3535 40.0959L53.3585 39.7529L53.3605 39.6459L53.3615 39.5339C53.3625 39.5259 53.3675 39.5179 53.3675 39.5099C53.3675 39.5069 53.3655 39.5039 53.3645 39.4999C53.3645 39.4989 53.3635 39.4979 53.3635 39.4979C53.3635 39.4939 53.3625 39.4919 53.3625 39.4889L53.3665 39.2099H53.2345C53.2295 39.2049 53.2225 39.1989 53.2175 39.1939C53.1745 39.1489 53.1255 39.1039 53.0655 39.0599C52.9825 39.0009 52.8795 38.9429 52.7655 38.8869C52.6935 38.9229 52.6165 38.9579 52.5345 38.9939C52.5225 38.9979 52.5135 39.0029 52.5025 39.0079C52.3805 39.0599 52.2465 39.1109 52.1005 39.1609C52.0525 39.1779 51.9975 39.1929 51.9465 39.2099C51.9405 39.2119 51.9335 39.2139 51.9265 39.2159C51.7195 39.2809 51.4885 39.3429 51.2335 39.4019C51.0835 39.4359 50.9235 39.4689 50.7555 39.4999C50.7505 39.5009 50.7445 39.5019 50.7385 39.5039C50.2945 39.5859 49.7865 39.6539 49.2055 39.7059C48.7965 39.7429 48.3595 39.7729 47.8745 39.7899C47.6515 39.7979 47.4105 39.7999 47.1715 39.8029C47.1185 39.8039 47.0685 39.8049 47.0145 39.8059H47.0135C46.9245 39.8059 46.8455 39.8099 46.7545 39.8099C46.6865 39.8099 46.6285 39.8069 46.5625 39.8069C44.1595 39.7929 42.5965 39.5359 41.5815 39.2159C41.5755 39.2139 41.5685 39.2119 41.5615 39.2099C41.3415 39.1399 41.1445 39.0669 40.9735 38.9939C40.8915 38.9579 40.8145 38.9219 40.7425 38.8869C40.5375 38.9889 40.3755 39.0969 40.2745 39.2099H40.1415V39.5099V39.7539V41.7889V41.8819V42.1719L40.1925 42.4139C40.2655 42.5789 40.4915 42.9079 41.1815 43.2259ZM46.5635 41.01C46.6275 41.011 46.6895 41.013 46.7545 41.013C46.8415 41.013 46.9265 41.01 47.0135 41.01C47.1335 41.009 47.2535 41.008 47.3715 41.006C47.4025 41.005 47.4325 41.005 47.4635 41.004C47.7195 40.998 47.9695 40.988 48.2155 40.975C48.5325 40.958 48.8395 40.937 49.1385 40.911C49.1485 40.91 49.1585 40.909 49.1685 40.908C49.7465 40.856 50.2825 40.787 50.7685 40.702C51.2465 40.619 51.6725 40.521 52.0345 40.412H52.1645V40.702V41.265V41.94C52.1165 41.977 52.0415 42.024 51.9395 42.078C51.6355 42.238 51.0575 42.455 50.0105 42.612C49.8025 42.644 49.5755 42.672 49.3285 42.698C48.8705 42.746 48.3415 42.782 47.7345 42.801C47.6615 42.803 47.5915 42.806 47.5155 42.808L47.4645 42.786L47.0445 42.612L47.0135 42.599L46.5635 42.411L46.4735 42.374L42.2235 40.603C43.3635 40.847 44.8835 41 46.5635 41.01Z" fill="#1895FF"/>
<path fill-rule="evenodd" clip-rule="evenodd" d="M41.1818 38.4163C41.2988 38.4703 41.4338 38.5233 41.5798 38.5753C41.6508 38.6013 41.7258 38.6263 41.8038 38.6513C42.0618 38.7333 42.3618 38.8103 42.7068 38.8803C43.6588 39.0733 44.9588 39.2093 46.7548 39.2093C46.8918 39.2093 47.0148 39.2053 47.1468 39.2033C47.2898 39.2023 47.4338 39.2013 47.5698 39.1973C47.5978 39.1973 47.6298 39.1973 47.6568 39.1963C47.7958 39.1923 47.9228 39.1853 48.0548 39.1803C48.3148 39.1693 48.5638 39.1553 48.7988 39.1393C48.9558 39.1273 49.1108 39.1163 49.2568 39.1023C49.6138 39.0683 49.9368 39.0273 50.2338 38.9813C50.4358 38.9503 50.6258 38.9163 50.8018 38.8803C50.8878 38.8633 50.9728 38.8453 51.0528 38.8273C51.2938 38.7723 51.5118 38.7133 51.7048 38.6513C51.7838 38.6263 51.8578 38.6013 51.9288 38.5753C52.0748 38.5233 52.2098 38.4703 52.3268 38.4163C52.3918 38.3863 52.4478 38.3563 52.5048 38.3263C52.5088 38.3243 52.5128 38.3223 52.5168 38.3203C52.5428 38.3063 52.5728 38.2933 52.5968 38.2793C52.8628 38.1303 53.0318 37.9843 53.1438 37.8583C53.1628 37.8363 53.1828 37.8143 53.1998 37.7933C53.2578 37.7183 53.2948 37.6533 53.3168 37.6033L53.3348 36.4913L53.3438 35.8933L53.3538 35.2873L53.3588 34.9453L53.3608 34.8373L53.3628 34.7253C53.3628 34.7173 53.3678 34.7093 53.3678 34.7013C53.3678 34.6983 53.3658 34.6943 53.3658 34.6913C53.3658 34.6913 53.3648 34.6893 53.3648 34.6883C53.3648 34.6853 53.3628 34.6833 53.3628 34.6803L53.3678 34.4013H53.2348C53.2308 34.3963 53.2238 34.3913 53.2188 34.3863C53.1758 34.3403 53.1268 34.2953 53.0658 34.2513C52.9838 34.1923 52.8798 34.1343 52.7668 34.0783C52.6948 34.1143 52.6178 34.1493 52.5358 34.1853C52.5248 34.1903 52.5148 34.1943 52.5038 34.1993C52.3818 34.2513 52.2478 34.3023 52.1018 34.3523C52.0538 34.3693 51.9988 34.3843 51.9468 34.4013C51.9408 34.4033 51.9338 34.4053 51.9278 34.4073C51.7208 34.4723 51.4888 34.5343 51.2338 34.5933C51.0858 34.6273 50.9278 34.6593 50.7618 34.6903C50.7548 34.6923 50.7468 34.6933 50.7398 34.6943C50.2958 34.7763 49.7868 34.8453 49.2068 34.8973C48.7968 34.9343 48.3608 34.9643 47.8748 34.9813C47.6528 34.9893 47.4108 34.9913 47.1718 34.9943C47.1188 34.9953 47.0688 34.9973 47.0158 34.9973H47.0148C46.9258 34.9983 46.8458 35.0013 46.7548 35.0013C46.6878 35.0013 46.6298 34.9983 46.5638 34.9983C44.1608 34.9843 42.5978 34.7273 41.5828 34.4073C41.5758 34.4053 41.5688 34.4033 41.5628 34.4013C41.3428 34.3313 41.1458 34.2583 40.9748 34.1853C40.8928 34.1493 40.8148 34.1133 40.7438 34.0783C40.5378 34.1803 40.3758 34.2883 40.2748 34.4013H40.1428V34.7013V34.9453V36.9803V37.0733V37.3623L40.1928 37.6043C40.2648 37.7693 40.4918 38.0983 41.1818 38.4163ZM46.5628 36.2013C46.6278 36.2013 46.6898 36.2033 46.7548 36.2033C46.8418 36.2033 46.9268 36.2013 47.0138 36.2003C47.1338 36.1993 47.2538 36.1993 47.3718 36.1963C47.4018 36.1963 47.4328 36.1953 47.4638 36.1953C47.7198 36.1883 47.9698 36.1783 48.2158 36.1663C48.5328 36.1493 48.8398 36.1283 49.1378 36.1013C49.1478 36.1003 49.1588 36.1003 49.1678 36.0993C49.7478 36.0473 50.2858 35.9773 50.7718 35.8923C51.2488 35.8093 51.6718 35.7123 52.0338 35.6033H52.1638V35.8923V36.4563V37.1303C52.1158 37.1673 52.0408 37.2153 51.9388 37.2683C51.6348 37.4283 51.0568 37.6453 50.0098 37.8023C49.8018 37.8343 49.5748 37.8623 49.3268 37.8883C48.8698 37.9353 48.3398 37.9713 47.7338 37.9903C47.6598 37.9923 47.5898 37.9953 47.5138 37.9973L47.4638 37.9773L47.0448 37.8023L47.0138 37.7893L46.5628 37.6013L46.4718 37.5633L42.2248 35.7933C43.3648 36.0373 44.8838 36.1903 46.5628 36.2013Z" fill="#1895FF"/>
<path fill-rule="evenodd" clip-rule="evenodd" d="M41.1815 33.6076C41.2985 33.6616 41.4335 33.7146 41.5785 33.7666C41.6505 33.7926 41.7245 33.8186 41.8035 33.8426C42.0615 33.9246 42.3615 34.0016 42.7065 34.0716C43.6585 34.2646 44.9585 34.4006 46.7545 34.4006C46.8915 34.4006 47.0145 34.3966 47.1465 34.3946C47.2885 34.3936 47.4335 34.3926 47.5685 34.3886C47.5965 34.3886 47.6285 34.3886 47.6565 34.3876C47.7955 34.3836 47.9215 34.3766 48.0535 34.3716C48.3135 34.3606 48.5635 34.3466 48.7995 34.3296C48.9555 34.3186 49.1105 34.3066 49.2555 34.2936C49.6125 34.2596 49.9355 34.2186 50.2335 34.1726C50.4355 34.1406 50.6245 34.1076 50.8015 34.0716C50.8875 34.0536 50.9725 34.0356 51.0525 34.0176C51.2935 33.9626 51.5115 33.9036 51.7045 33.8426C51.7835 33.8176 51.8575 33.7916 51.9285 33.7666C52.0745 33.7146 52.2095 33.6606 52.3265 33.6066C52.3915 33.5766 52.4475 33.5466 52.5045 33.5166C52.5085 33.5146 52.5125 33.5126 52.5165 33.5106C52.5415 33.4966 52.5715 33.4836 52.5955 33.4696C52.8605 33.3206 53.0305 33.1746 53.1425 33.0496C53.1625 33.0266 53.1815 33.0046 53.1985 32.9836C53.2565 32.9086 53.2935 32.8436 53.3155 32.7936L53.3325 31.6806L53.3425 31.0826L53.3515 30.4766L53.3575 30.1346L53.3595 30.0266L53.3605 29.9146C53.3615 29.9066 53.3665 29.8986 53.3665 29.8906C53.3665 29.8876 53.3635 29.8846 53.3635 29.8806C53.3635 29.8796 53.3635 29.8776 53.3635 29.8776C53.3635 29.8746 53.3615 29.8726 53.3615 29.8696L53.3655 29.5896H53.2335C53.2285 29.5846 53.2215 29.5796 53.2165 29.5746C53.1745 29.5296 53.1245 29.4846 53.0645 29.4406C52.9285 29.3426 52.7485 29.2496 52.5315 29.1606C52.2035 29.0266 51.7855 28.9056 51.2985 28.8016C51.2705 28.7946 51.2405 28.7896 51.2105 28.7836C50.8085 28.6996 50.3645 28.6256 49.8805 28.5666C49.2345 28.4876 48.5215 28.4336 47.7695 28.4076C47.6735 28.4046 47.5795 28.4006 47.4835 28.3976C47.3665 28.3946 47.2475 28.3936 47.1295 28.3926C47.0905 28.3916 47.0515 28.3916 47.0125 28.3906C46.9265 28.3896 46.8415 28.3876 46.7535 28.3876C46.6895 28.3876 46.6265 28.3896 46.5625 28.3896C43.4495 28.4106 40.8745 28.9176 40.2745 29.5896H40.1415V29.8906V30.1346V32.1696V32.2626V32.5526L40.1915 32.7946C40.2655 32.9606 40.4915 33.2896 41.1815 33.6076ZM52.1645 31.6466V32.3216C52.1155 32.3576 52.0415 32.4056 51.9395 32.4596C51.6345 32.6196 51.0565 32.8356 50.0105 32.9936C49.8015 33.0246 49.5745 33.0536 49.3275 33.0796C48.8695 33.1266 48.3405 33.1626 47.7345 33.1816C47.6605 33.1836 47.5905 33.1866 47.5145 33.1886L47.4635 33.1676L47.0445 32.9926L47.0135 32.9796L46.5625 32.7916L46.4725 32.7546L42.2235 30.9836C43.3635 31.2286 44.8835 31.3806 46.5625 31.3916C46.6265 31.3926 46.6895 31.3946 46.7535 31.3946C46.8415 31.3946 46.9265 31.3916 47.0125 31.3916C47.1325 31.3906 47.2525 31.3896 47.3705 31.3876C47.4015 31.3866 47.4325 31.3866 47.4635 31.3856C47.7185 31.3796 47.9685 31.3696 48.2155 31.3566C48.5325 31.3396 48.8395 31.3186 49.1375 31.2926C49.1475 31.2916 49.1575 31.2906 49.1675 31.2896C49.7465 31.2376 50.2835 31.1676 50.7695 31.0836C51.2475 31.0006 51.6725 30.9026 52.0355 30.7936H52.1635V31.0836V31.6466H52.1645Z" fill="#1895FF"/>
<path fill-rule="evenodd" clip-rule="evenodd" d="M37.4368 68.9396H37.3048C37.2788 68.9106 37.2428 68.8826 37.2098 68.8546C37.1668 68.8826 37.1188 68.9116 37.0698 68.9396C37.0508 68.9506 37.0308 68.9616 37.0108 68.9736C36.8738 69.0496 36.7218 69.1276 36.5388 69.2036C35.5458 69.6166 33.8198 69.9906 30.8248 69.9906C30.0158 69.9906 29.3068 69.9616 28.6728 69.9136L28.6708 70.1426L28.6648 70.6596C29.3428 70.7126 30.0678 70.7426 30.8248 70.7426C32.9848 70.7426 34.8968 70.5066 36.1038 70.1426H36.2348V71.6696C35.9548 71.8816 34.8868 72.4596 31.5848 72.5376L28.6588 71.3176L28.6468 72.4646L28.6458 72.5756C28.6118 72.6636 28.5068 72.8526 28.2388 73.0746C28.1528 73.1466 28.0518 73.2205 27.9268 73.2975C27.9058 73.3105 27.8798 73.3235 27.8578 73.3365C28.0038 73.4295 28.1268 73.5295 28.2358 73.6345C28.9608 73.7065 29.8148 73.7485 30.8248 73.7485C36.2608 73.7485 37.2218 72.5186 37.3868 72.1426L37.4288 69.4836L37.4318 69.2646C37.4328 69.2566 37.4368 69.2486 37.4368 69.2406C37.4368 69.2326 37.4328 69.2256 37.4328 69.2186L37.4368 68.9396Z" fill="#1895FF"/>
<path fill-rule="evenodd" clip-rule="evenodd" d="M37.4368 64.5816H37.3048C37.2038 64.4686 37.0418 64.3606 36.8368 64.2586C36.7648 64.2946 36.6878 64.3296 36.6058 64.3656C36.4348 64.4386 36.2368 64.5116 36.0168 64.5816C36.0108 64.5836 36.0038 64.5856 35.9968 64.5876C34.9538 64.9166 33.3418 65.1816 30.8248 65.1816C28.3068 65.1816 26.6948 64.9166 25.6518 64.5876C25.6448 64.5856 25.6388 64.5836 25.6318 64.5816C25.4118 64.5116 25.2148 64.4396 25.0439 64.3656C24.9619 64.3306 24.8849 64.2946 24.8129 64.2586C24.6069 64.3616 24.4449 64.4696 24.3449 64.5826H24.2119V67.4826C24.3359 67.4986 24.4589 67.5126 24.5799 67.5296C24.6069 67.5336 24.6359 67.5356 24.6619 67.5396C25.1918 67.6176 25.6888 67.7206 26.1538 67.8426C26.3908 67.9046 26.6208 67.9706 26.8328 68.0446C26.8808 68.0606 26.9228 68.0806 26.9688 68.0976C27.2378 68.1986 27.4788 68.3096 27.6938 68.4306C27.8458 68.5166 27.9928 68.6046 28.1128 68.7006C28.2058 68.7766 28.2768 68.8586 28.3478 68.9406C28.3618 68.9566 28.3808 68.9716 28.3938 68.9886C28.4168 69.0166 28.4548 69.0406 28.4748 69.0706H28.6478L28.6628 69.3106C29.2928 69.3596 30.0018 69.3906 30.8238 69.3906C32.9768 69.3906 34.4198 69.1966 35.3978 68.9406C35.5078 68.9116 35.6188 68.8816 35.7178 68.8516C35.9708 68.7736 36.1848 68.6916 36.3678 68.6086C36.4458 68.5736 36.5158 68.5386 36.5818 68.5026C36.6768 68.4526 36.7618 68.4036 36.8368 68.3536C37.1888 68.1216 37.3318 67.9076 37.3848 67.7846L37.4268 65.1256L37.4308 64.9066C37.4308 64.8986 37.4358 64.8906 37.4358 64.8816C37.4358 64.8746 37.4318 64.8676 37.4308 64.8606L37.4368 64.5816ZM36.2338 65.7836V67.3106C36.1038 67.4096 35.8028 67.5866 35.1868 67.7566C34.9328 67.8266 34.6238 67.8956 34.2528 67.9556C34.1938 67.9656 34.1328 67.9746 34.0708 67.9846C33.4308 68.0806 32.6178 68.1536 31.5848 68.1786L30.5348 67.7406L30.5328 67.7396L29.5428 67.3276L26.2948 65.9746C27.4788 66.2276 29.0698 66.3846 30.8248 66.3846C32.9848 66.3846 34.8968 66.1476 36.1038 65.7836H36.2338Z" fill="#1895FF"/>
<path fill-rule="evenodd" clip-rule="evenodd" d="M37.4368 59.7718H37.3048C37.2038 59.6588 37.0418 59.5508 36.8368 59.4488C36.7648 59.4848 36.6878 59.5198 36.6058 59.5558C36.4348 59.6298 36.2378 59.7018 36.0188 59.7718C36.0118 59.7738 36.0048 59.7758 35.9978 59.7778C34.9548 60.1078 33.3418 60.3728 30.8248 60.3728C28.3068 60.3728 26.6949 60.1078 25.6519 59.7778C25.6449 59.7758 25.6369 59.7738 25.6299 59.7718C25.4109 59.7018 25.2149 59.6298 25.0439 59.5558C24.9619 59.5198 24.8849 59.4838 24.8129 59.4488C24.6079 59.5508 24.4459 59.6578 24.3449 59.7708H24.2129V62.7338L24.2629 62.9758C24.3349 63.1408 24.5619 63.4698 25.2519 63.7878C25.3689 63.8418 25.5039 63.8948 25.6489 63.9468C25.7199 63.9728 25.7949 63.9978 25.8739 64.0228C26.1309 64.1048 26.4319 64.1818 26.7759 64.2518C27.7279 64.4458 29.0278 64.5808 30.8248 64.5808C32.6208 64.5808 33.9208 64.4458 34.8718 64.2528C35.2168 64.1828 35.5178 64.1048 35.7758 64.0228C35.8538 63.9978 35.9288 63.9728 35.9998 63.9468C36.1448 63.8948 36.2798 63.8418 36.3968 63.7878C37.0868 63.4698 37.3138 63.1398 37.3858 62.9748L37.4278 60.3158L37.4308 60.0968C37.4318 60.0888 37.4368 60.0808 37.4368 60.0718C37.4368 60.0648 37.4318 60.0578 37.4318 60.0508L37.4368 59.7718ZM31.5848 63.3698L30.5428 62.9348L26.2949 61.1648C27.4779 61.4188 29.0698 61.5748 30.8248 61.5748C32.9858 61.5748 34.8988 61.3388 36.1058 60.9738H36.2338V62.5018C36.0418 62.6468 35.4768 62.9638 34.0798 63.1738C33.4388 63.2708 32.6238 63.3448 31.5848 63.3698Z" fill="#1895FF"/>
<path fill-rule="evenodd" clip-rule="evenodd" d="M37.4368 54.9632H37.3048C37.2038 54.8502 37.0418 54.7422 36.8358 54.6402C36.7638 54.6752 36.6868 54.7112 36.6048 54.7472C36.4338 54.8202 36.2368 54.8932 36.0168 54.9632C36.0108 54.9652 36.0038 54.9672 35.9968 54.9692C34.9538 55.2982 33.3418 55.5632 30.8248 55.5632C28.3078 55.5632 26.6949 55.2982 25.6519 54.9692C25.6459 54.9672 25.6389 54.9652 25.6329 54.9632C25.4129 54.8932 25.2159 54.8212 25.0449 54.7472C24.9629 54.7122 24.8849 54.6762 24.8139 54.6402C24.6079 54.7432 24.4459 54.8512 24.3449 54.9632H24.2129V57.9262L24.2629 58.1682C24.3359 58.3332 24.5619 58.6622 25.2519 58.9792C25.3689 59.0332 25.5039 59.0862 25.6499 59.1392C25.7209 59.1642 25.7959 59.1892 25.8739 59.2142C26.1319 59.2962 26.4319 59.3732 26.7769 59.4432C27.7289 59.6362 29.0288 59.7722 30.8248 59.7722C32.6208 59.7722 33.9208 59.6362 34.8728 59.4432C35.2178 59.3732 35.5178 59.2962 35.7758 59.2142C35.8538 59.1892 35.9288 59.1642 35.9998 59.1382C36.1448 59.0862 36.2808 59.0332 36.3978 58.9792C37.0878 58.6612 37.3138 58.3322 37.3868 58.1662L37.4288 55.5072L37.4318 55.2882C37.4328 55.2802 37.4368 55.2722 37.4368 55.2632C37.4368 55.2562 37.4328 55.2492 37.4328 55.2422L37.4368 54.9632ZM31.5838 58.5602L30.5418 58.1252L26.2949 56.3562C27.4779 56.6102 29.0698 56.7662 30.8248 56.7662C32.9858 56.7662 34.8978 56.5302 36.1048 56.1652H36.2348V57.6932C36.0418 57.8382 35.4768 58.1542 34.0808 58.3642C33.4398 58.4612 32.6228 58.5352 31.5838 58.5602Z" fill="#1895FF"/>
<path fill-rule="evenodd" clip-rule="evenodd" d="M37.4368 50.1544H37.3048C37.2038 50.0414 37.0418 49.9334 36.8368 49.8314C36.7648 49.8664 36.6878 49.9024 36.6058 49.9374C36.4338 50.0114 36.2368 50.0844 36.0168 50.1544C36.0108 50.1564 36.0038 50.1584 35.9968 50.1604C34.9538 50.4894 33.3418 50.7544 30.8248 50.7544C28.3068 50.7544 26.6948 50.4894 25.6518 50.1604C25.6448 50.1584 25.6388 50.1564 25.6318 50.1544C25.4118 50.0844 25.2148 50.0124 25.0439 49.9384C24.9619 49.9024 24.8849 49.8664 24.8129 49.8314C24.6069 49.9334 24.4449 50.0414 24.3449 50.1544H24.2119V53.1164L24.2629 53.3584C24.3349 53.5234 24.5619 53.8524 25.2518 54.1704C25.3688 54.2244 25.5038 54.2774 25.6488 54.3294C25.7208 54.3554 25.7948 54.3804 25.8738 54.4054C26.1318 54.4874 26.4318 54.5644 26.7768 54.6344C27.7288 54.8274 29.0278 54.9634 30.8238 54.9634C32.6198 54.9634 33.9198 54.8274 34.8718 54.6344C35.2168 54.5644 35.5168 54.4874 35.7748 54.4054C35.8538 54.3804 35.9278 54.3554 35.9988 54.3294C36.1438 54.2774 36.2798 54.2244 36.3958 54.1704C37.0868 53.8524 37.3128 53.5224 37.3858 53.3574L37.4278 50.6984L37.4308 50.4794C37.4318 50.4714 37.4358 50.4634 37.4358 50.4544C37.4358 50.4474 37.4318 50.4404 37.4318 50.4334L37.4368 50.1544ZM31.5848 53.7514L30.5428 53.3164L26.2938 51.5474C27.4778 51.8004 29.0688 51.9574 30.8248 51.9574C32.9848 51.9574 34.8968 51.7204 36.1028 51.3574H36.2338V52.8844C36.0418 53.0294 35.4768 53.3454 34.0798 53.5564C33.4388 53.6524 32.6228 53.7264 31.5848 53.7514Z" fill="#1895FF"/>
<path fill-rule="evenodd" clip-rule="evenodd" d="M37.4368 45.3446H37.3048C37.2038 45.2316 37.0418 45.1236 36.8368 45.0216C36.7648 45.0576 36.6878 45.0926 36.6058 45.1286C36.4348 45.2026 36.2388 45.2746 36.0188 45.3446C36.0128 45.3466 36.0048 45.3486 35.9978 45.3506C34.9558 45.6806 33.3428 45.9456 30.8248 45.9456C28.3078 45.9456 26.6949 45.6806 25.6519 45.3506C25.6449 45.3486 25.6369 45.3466 25.6309 45.3446C25.4109 45.2746 25.2149 45.2016 25.0439 45.1286C24.9619 45.0926 24.8849 45.0566 24.8129 45.0216C24.6079 45.1236 24.4459 45.2316 24.3449 45.3446H24.2129V48.3066V48.3076L24.2629 48.5486C24.3349 48.7136 24.5619 49.0436 25.2519 49.3606C25.3689 49.4146 25.5039 49.4676 25.6489 49.5196C25.7199 49.5456 25.7949 49.5706 25.8739 49.5956C26.1309 49.6776 26.4319 49.7546 26.7759 49.8246C27.7279 50.0186 29.0278 50.1536 30.8248 50.1536C32.6208 50.1536 33.9208 50.0186 34.8718 49.8256C35.2168 49.7556 35.5178 49.6776 35.7758 49.5956C35.8538 49.5706 35.9288 49.5456 35.9998 49.5196C36.1448 49.4676 36.2798 49.4146 36.3968 49.3606C37.0878 49.0426 37.3138 48.7126 37.3858 48.5476L37.4278 45.8886L37.4318 45.6696C37.4318 45.6606 37.4368 45.6526 37.4368 45.6446C37.4368 45.6366 37.4328 45.6296 37.4318 45.6226L37.4368 45.3446ZM31.5848 48.9426L30.5428 48.5086L26.2949 46.7376C27.4779 46.9916 29.0698 47.1476 30.8248 47.1476C32.9858 47.1476 34.8988 46.9116 36.1058 46.5466H36.2338V48.0746C36.0418 48.2196 35.4768 48.5366 34.0798 48.7476C33.4388 48.8436 32.6238 48.9186 31.5848 48.9426Z" fill="#1895FF"/>
<path fill-rule="evenodd" clip-rule="evenodd" d="M37.4368 40.536H37.3048C37.2038 40.423 37.0418 40.315 36.8368 40.213C36.7648 40.248 36.6878 40.284 36.6058 40.32C36.4348 40.393 36.2368 40.466 36.0168 40.536C36.0108 40.538 36.0038 40.54 35.9978 40.542C34.9548 40.871 33.3418 41.136 30.8248 41.136C28.3078 41.136 26.6959 40.871 25.6529 40.542C25.6459 40.54 25.6389 40.538 25.6329 40.536C25.4129 40.466 25.2159 40.394 25.0449 40.32C24.9629 40.285 24.8859 40.249 24.8139 40.213C24.6079 40.316 24.4459 40.424 24.3459 40.537H24.2129V43.499V43.5L24.2639 43.741C24.3359 43.906 24.5629 44.235 25.2519 44.553C25.3689 44.607 25.5049 44.659 25.6499 44.712C25.7209 44.738 25.7959 44.763 25.8749 44.788C26.1319 44.87 26.4329 44.947 26.7779 45.017C27.7299 45.21 29.0288 45.346 30.8258 45.346C32.6218 45.346 33.9218 45.21 34.8728 45.017C35.2178 44.947 35.5188 44.87 35.7768 44.788C35.8548 44.763 35.9288 44.738 36.0008 44.712C36.1458 44.66 36.2808 44.607 36.3978 44.553C37.0888 44.235 37.3148 43.906 37.3868 43.74L37.4288 41.081L37.4328 40.862C37.4328 40.854 37.4378 40.846 37.4378 40.837C37.4378 40.83 37.4338 40.823 37.4328 40.816L37.4368 40.536ZM31.5838 44.133L30.5418 43.699L26.2949 41.929C27.4779 42.183 29.0698 42.339 30.8248 42.339C32.9848 42.339 34.8978 42.103 36.1038 41.739H36.2338V43.267C36.0418 43.411 35.4768 43.728 34.0808 43.938C33.4398 44.034 32.6228 44.108 31.5838 44.133Z" fill="#1895FF"/>
<path fill-rule="evenodd" clip-rule="evenodd" d="M37.4368 35.7262H37.3038C37.2038 35.6132 37.0418 35.5062 36.8368 35.4042C36.7648 35.4402 36.6878 35.4752 36.6058 35.5112C36.4348 35.5842 36.2388 35.6562 36.0198 35.7262C36.0128 35.7282 36.0048 35.7312 35.9968 35.7332C34.9538 36.0622 33.3418 36.3272 30.8248 36.3272C28.3068 36.3272 26.6949 36.0622 25.6519 35.7332C25.6439 35.7312 25.6359 35.7282 25.6289 35.7262C25.4099 35.6562 25.2139 35.5842 25.0439 35.5112C24.9619 35.4752 24.8849 35.4402 24.8129 35.4042C24.6079 35.5062 24.4459 35.6142 24.3449 35.7262H24.2129V38.6892L24.2629 38.9312C24.3349 39.0962 24.5619 39.4252 25.2519 39.7432C25.3689 39.7972 25.5039 39.8502 25.6489 39.9022C25.7209 39.9282 25.7949 39.9532 25.8739 39.9782C26.1319 40.0602 26.4319 40.1372 26.7769 40.2072C27.7289 40.4002 29.0278 40.5362 30.8238 40.5362C32.6198 40.5362 33.9198 40.4002 34.8718 40.2072C35.2168 40.1372 35.5168 40.0602 35.7748 39.9782C35.8538 39.9532 35.9278 39.9282 35.9988 39.9022C36.1448 39.8502 36.2798 39.7972 36.3968 39.7432C37.0868 39.4252 37.3138 39.0952 37.3858 38.9302L37.4278 36.2712L37.4308 36.0522C37.4318 36.0442 37.4368 36.0362 37.4368 36.0272C37.4368 36.0202 37.4318 36.0132 37.4318 36.0062L37.4368 35.7262ZM31.5848 39.3242L30.5428 38.8902L26.2949 37.1192C27.4789 37.3732 29.0698 37.5292 30.8248 37.5292C32.9868 37.5292 34.8998 37.2932 36.1068 36.9282H36.2348V38.4562C36.0428 38.6012 35.4778 38.9182 34.0808 39.1292C33.4388 39.2262 32.6238 39.3002 31.5848 39.3242Z" fill="#1895FF"/>
<path fill-rule="evenodd" clip-rule="evenodd" d="M37.4368 30.9176H37.3048C37.2038 30.8046 37.0418 30.6966 36.8358 30.5946C36.7638 30.6306 36.6868 30.6656 36.6048 30.7016C36.4338 30.7756 36.2368 30.8476 36.0168 30.9176C36.0108 30.9196 36.0038 30.9216 35.9968 30.9236C34.9538 31.2526 33.3418 31.5176 30.8248 31.5176C28.3078 31.5176 26.6959 31.2526 25.6529 30.9236C25.6459 30.9216 25.6389 30.9196 25.6329 30.9176C25.4129 30.8476 25.2159 30.7756 25.0449 30.7016C24.9629 30.6666 24.8859 30.6306 24.8139 30.5946C24.6079 30.6976 24.4459 30.8046 24.3449 30.9176H24.2129V33.8806L24.2629 34.1226C24.3349 34.2876 24.5619 34.6166 25.2519 34.9346C25.3689 34.9886 25.5039 35.0416 25.6489 35.0936C25.7199 35.1196 25.7949 35.1446 25.8729 35.1696C26.1309 35.2516 26.4319 35.3286 26.7759 35.3986C27.7149 35.5896 28.9958 35.7226 30.7538 35.7266C30.7788 35.7266 30.7998 35.7276 30.8238 35.7276C30.8488 35.7276 30.8698 35.7266 30.8948 35.7266C32.6528 35.7226 33.9328 35.5896 34.8718 35.3986C35.2168 35.3286 35.5178 35.2516 35.7758 35.1696C35.8538 35.1446 35.9288 35.1196 35.9998 35.0936C36.1448 35.0416 36.2798 34.9886 36.3968 34.9346C37.0868 34.6166 37.3138 34.2866 37.3858 34.1216L37.4278 31.4626L37.4308 31.2436C37.4318 31.2346 37.4368 31.2266 37.4368 31.2186C37.4368 31.2116 37.4318 31.2036 37.4318 31.1966L37.4368 30.9176ZM31.5858 34.5156L30.5428 34.0816L26.2939 32.3106C27.4779 32.5646 29.0688 32.7206 30.8248 32.7206C32.9858 32.7206 34.8988 32.4836 36.1048 32.1196H36.2338V33.6476C36.0418 33.7926 35.4768 34.1096 34.0798 34.3206C33.4388 34.4166 32.6238 34.4916 31.5858 34.5156Z" fill="#1895FF"/>
<path fill-rule="evenodd" clip-rule="evenodd" d="M37.4368 26.1091H37.3048C37.2038 25.9961 37.0418 25.8881 36.8368 25.7861C36.7648 25.8211 36.6878 25.8571 36.6058 25.8921C36.4348 25.9661 36.2368 26.0391 36.0168 26.1091C36.0108 26.1111 36.0038 26.1131 35.9978 26.1151C34.9548 26.4441 33.3418 26.7101 30.8248 26.7101C28.3078 26.7101 26.6959 26.4441 25.6529 26.1151C25.6459 26.1131 25.6389 26.1111 25.6329 26.1091C25.4129 26.0391 25.2159 25.9671 25.0449 25.8931C24.9629 25.8581 24.8859 25.8221 24.8139 25.7861C24.6079 25.8891 24.4459 25.9971 24.3459 26.1101H24.2129V29.0711V29.0721L24.2639 29.3131C24.3359 29.4781 24.5629 29.8081 25.2529 30.1251C25.3699 30.1791 25.5049 30.2321 25.6509 30.2851C25.7219 30.3101 25.7969 30.3361 25.8749 30.3611C26.1329 30.4431 26.4339 30.5201 26.7779 30.5891C27.7299 30.7831 29.0298 30.9181 30.8258 30.9181C32.6218 30.9181 33.9208 30.7831 34.8728 30.5891C35.2178 30.5201 35.5188 30.4431 35.7758 30.3611C35.8548 30.3361 35.9288 30.3101 35.9998 30.2851C36.1458 30.2321 36.2808 30.1791 36.3978 30.1251C37.0888 29.8071 37.3148 29.4771 37.3878 29.3121L37.4298 26.6541L37.4328 26.4351C37.4338 26.4271 37.4378 26.4191 37.4378 26.4101C37.4378 26.4031 37.4338 26.3961 37.4338 26.3891L37.4368 26.1091ZM31.5838 29.7061L30.5418 29.2711L26.2949 27.5021C27.4789 27.7551 29.0698 27.9121 30.8248 27.9121C32.9858 27.9121 34.8978 27.6751 36.1048 27.3111H36.2348V28.8381C36.0428 28.9831 35.4778 29.3001 34.0808 29.5101C33.4388 29.6071 32.6228 29.6811 31.5838 29.7061Z" fill="#1895FF"/>
<path fill-rule="evenodd" clip-rule="evenodd" d="M37.4368 21.2991H37.3038C36.6918 20.6131 34.0238 20.0971 30.8248 20.0971C27.6248 20.0971 24.9579 20.6131 24.3449 21.2991H24.2119V24.2611V24.2621L24.2629 24.5031C24.3349 24.6691 24.5619 24.9981 25.2518 25.3161C25.3688 25.3701 25.5038 25.4221 25.6488 25.4751C25.7198 25.5011 25.7948 25.5261 25.8738 25.5511C26.1308 25.6331 26.4318 25.7101 26.7768 25.7801C27.7288 25.9731 29.0278 26.1091 30.8238 26.1091C32.6198 26.1091 33.9198 25.9731 34.8718 25.7801C35.2168 25.7101 35.5168 25.6331 35.7748 25.5511C35.8538 25.5261 35.9288 25.5001 35.9988 25.4751C36.1448 25.4221 36.2798 25.3691 36.3968 25.3151C37.0868 24.9971 37.3138 24.6681 37.3858 24.5021L37.4278 21.8431L37.4308 21.6241C37.4318 21.6161 37.4368 21.6081 37.4368 21.6001C37.4368 21.5921 37.4318 21.5851 37.4318 21.5781L37.4368 21.2991ZM31.5848 24.8971L30.5428 24.4631L26.2948 22.6921C27.4778 22.9461 29.0698 23.1021 30.8248 23.1021C32.9868 23.1021 34.8998 22.8661 36.1058 22.5011H36.2338V24.0291C36.0418 24.1741 35.4768 24.4911 34.0798 24.7021C33.4388 24.7981 32.6238 24.8731 31.5848 24.8971Z" fill="#1895FF"/>
<path fill-rule="evenodd" clip-rule="evenodd" d="M28.0934 73.7847C28.0874 73.7787 28.0794 73.7727 28.0734 73.7657C28.0154 73.7057 27.9384 73.6467 27.8494 73.5887C27.7824 73.5457 27.7084 73.5027 27.6254 73.4617C27.5734 73.4877 27.5154 73.5137 27.4584 73.5387C27.4364 73.5487 27.4174 73.5587 27.3944 73.5687C27.3314 73.5957 27.2624 73.6227 27.1934 73.6487C27.0734 73.6957 26.9454 73.7407 26.8054 73.7847C26.7994 73.7867 26.7924 73.7887 26.7864 73.7907C26.6354 73.8387 26.4714 73.8847 26.2954 73.9287C25.2544 74.1907 23.7664 74.3847 21.6134 74.3847C19.0965 74.3847 17.4835 74.1197 16.4405 73.7907C16.4345 73.7887 16.4275 73.7867 16.4205 73.7847C16.2005 73.7147 16.0035 73.6427 15.8325 73.5687C15.7505 73.5337 15.6735 73.4977 15.6015 73.4617C15.3955 73.5647 15.2335 73.6727 15.1335 73.7857H15.0005V76.7467V76.7487L15.0505 76.9887C15.2155 77.3657 16.1775 78.5937 21.6134 78.5937C27.0484 78.5937 28.0104 77.3657 28.1754 76.9887L28.2164 74.3287L28.2184 74.2317L28.2204 74.1067C28.2204 74.0997 28.2254 74.0927 28.2254 74.0857C28.2254 74.0787 28.2214 74.0727 28.2214 74.0667L28.2254 73.7847H28.0934ZM27.0234 74.9877V76.5147C26.7424 76.7257 25.6744 77.3037 22.3724 77.3817L17.0835 75.1777C18.2675 75.4307 19.8585 75.5877 21.6134 75.5877C23.7734 75.5877 25.6854 75.3507 26.8924 74.9867H27.0234V74.9877Z" fill="#1895FF"/>
<path fill-rule="evenodd" clip-rule="evenodd" d="M15.051 72.1795C15.123 72.3445 15.35 72.6745 16.04 72.9915C16.158 73.0455 16.292 73.0985 16.438 73.1515C16.509 73.1765 16.584 73.2025 16.662 73.2275C16.92 73.3095 17.221 73.3865 17.566 73.4565C18.517 73.6495 19.8169 73.7845 21.6139 73.7845C23.0779 73.7845 24.2089 73.6935 25.0959 73.5565C25.2969 73.5255 25.4859 73.4915 25.6609 73.4565C25.7739 73.4325 25.8869 73.4105 25.9909 73.3855C26.0959 73.3605 26.1899 73.3345 26.2859 73.3075C26.3819 73.2805 26.4769 73.2545 26.5639 73.2265C26.6429 73.2015 26.7169 73.1765 26.7889 73.1505C26.8089 73.1435 26.8319 73.1375 26.8509 73.1295C26.9729 73.0845 27.0849 73.0385 27.1859 72.9915C27.2139 72.9785 27.2379 72.9655 27.2649 72.9525C27.6649 72.7565 27.8969 72.5615 28.0289 72.4025C28.1029 72.3145 28.1499 72.2365 28.1749 72.1795L28.1919 71.1225L28.1999 70.6185L28.2069 70.1415L28.2119 69.8725L28.2169 69.5195L28.2189 69.4205L28.2209 69.2975C28.2209 69.2895 28.2259 69.2835 28.2259 69.2755H28.2249C28.2249 69.2685 28.2219 69.2635 28.2209 69.2575L28.2259 68.9755H28.0919C28.0859 68.9675 28.0759 68.9605 28.0689 68.9535C28.0639 68.9485 28.0579 68.9445 28.0529 68.9395C27.9459 68.8325 27.7869 68.7305 27.5859 68.6345C27.4879 68.5875 27.3809 68.5425 27.2629 68.4975C27.0089 68.4025 26.7119 68.3145 26.3739 68.2345C26.2959 68.2165 26.2139 68.1985 26.1319 68.1805C25.9249 68.1365 25.7069 68.0955 25.4759 68.0585C25.3359 68.0345 25.1919 68.0135 25.0439 67.9935C24.9389 67.9785 24.8359 67.9635 24.7269 67.9505C24.5989 67.9345 24.4649 67.9205 24.3319 67.9075C24.2909 67.9035 24.2519 67.8985 24.2119 67.8945C24.0649 67.8795 23.9129 67.8675 23.7609 67.8555C23.0869 67.8035 22.3659 67.7735 21.6129 67.7735C18.414 67.7735 15.746 68.2895 15.133 68.9755H15V71.9375L15.001 71.9395L15.051 72.1795ZM27.0239 70.4685V70.6365V71.7055C26.9159 71.7875 26.6879 71.9235 26.2639 72.0635C25.9659 72.1625 25.5689 72.2635 25.0439 72.3505C24.9869 72.3595 24.9289 72.3685 24.8689 72.3775C24.8539 72.3805 24.8379 72.3825 24.8219 72.3845C24.7079 72.4015 24.5909 72.4175 24.4649 72.4325C24.3999 72.4405 24.3299 72.4475 24.2619 72.4555C24.1109 72.4715 23.9519 72.4865 23.7859 72.5005C23.3669 72.5345 22.9009 72.5605 22.3739 72.5735L21.3319 72.1385L17.086 70.3695C18.27 70.6225 19.8589 70.7785 21.6129 70.7785C22.3669 70.7785 23.0869 70.7485 23.7609 70.6955C23.9129 70.6845 24.0649 70.6725 24.2119 70.6575C24.3139 70.6475 24.4109 70.6355 24.5099 70.6255C24.5599 70.6195 24.6119 70.6145 24.6619 70.6085C24.9239 70.5775 25.1749 70.5425 25.4139 70.5045C25.7309 70.4535 26.0289 70.3975 26.3009 70.3355C26.3029 70.3355 26.3039 70.3345 26.3049 70.3345C26.5179 70.2855 26.7119 70.2325 26.8939 70.1775H27.0229V70.4685H27.0239Z" fill="#1895FF"/>
</svg>
