<svg width="96" height="96" viewBox="0 0 96 96" fill="none" xmlns="http://www.w3.org/2000/svg">
<path fill-rule="evenodd" clip-rule="evenodd" d="M58.3995 51.1401L65.6329 51.1401C66.1025 51.1401 66.557 51.3053 66.917 51.6068L92.1954 72.7748C92.8588 73.3303 93.0897 74.2495 92.7676 75.0526C92.4455 75.8557 91.6435 76.3606 90.78 76.3038L68.0411 74.8074L52.1 85.3797C51.7723 85.597 51.3878 85.7129 50.9945 85.7129H27.8905C27.3625 85.7129 26.8559 85.5041 26.4813 85.1321L3.68447 62.4937C3.0975 61.9108 2.92995 61.0267 3.26296 60.2694C3.59596 59.5122 4.36079 59.0381 5.18712 59.0767L28.8305 60.1817L40.3092 53.4216C41.261 52.8611 42.487 53.1782 43.0475 54.13C43.608 55.0818 43.2908 56.3078 42.3391 56.8683L30.3471 63.9307C30.0122 64.1279 29.627 64.2233 29.2388 64.2052L10.188 63.3148L28.7149 81.7129H50.3916L66.3931 71.1006C66.7582 70.8584 67.1927 70.7429 67.6299 70.7717L84.9328 71.9104L64.9061 55.1401L58.3995 55.1401C57.2949 55.1401 56.3995 54.2447 56.3995 53.1401C56.3995 52.0356 57.2949 51.1401 58.3995 51.1401Z" fill="#1895FF"/>
<path fill-rule="evenodd" clip-rule="evenodd" d="M54.4627 59.8953C55.2408 59.1113 56.5071 59.1066 57.2911 59.8847L69.2047 71.7087C69.9887 72.4868 69.9935 73.7531 69.2154 74.5371C68.4373 75.3211 67.171 75.3258 66.387 74.5477L54.4734 62.7237C53.6894 61.9456 53.6846 60.6793 54.4627 59.8953Z" fill="#1895FF"/>
<path fill-rule="evenodd" clip-rule="evenodd" d="M31.2312 66.8635L12.1816 68.4507L12.0488 66.8562L31.0984 65.269L31.2312 66.8635Z" fill="#1895FF"/>
<path fill-rule="evenodd" clip-rule="evenodd" d="M50.0213 65.4797L38.8425 72.4152L37.999 71.0556L49.1777 64.1201L50.0213 65.4797Z" fill="#1895FF"/>
<path fill-rule="evenodd" clip-rule="evenodd" d="M73.337 74.1856L61.3178 54.0032L62.6925 53.1846L74.7117 73.367L73.337 74.1856Z" fill="#1895FF"/>
<path fill-rule="evenodd" clip-rule="evenodd" d="M27.4578 61.2751C28.2252 60.4806 29.4913 60.4586 30.2858 61.226L52.121 82.3172C52.9155 83.0846 52.9374 84.3508 52.17 85.1452C51.4026 85.9397 50.1365 85.9617 49.342 85.1943L27.5068 64.1031C26.7124 63.3357 26.6904 62.0695 27.4578 61.2751Z" fill="#1895FF"/>
<path fill-rule="evenodd" clip-rule="evenodd" d="M60.9498 63.0078C59.0801 63.4793 57.6448 64.3454 56.766 65.6143C56.4347 66.0928 56.0863 66.6148 55.7193 67.1648C53.89 69.9056 51.5973 73.3407 48.6517 75.55C46.8541 76.8983 44.769 77.8312 42.3506 77.8854C39.9336 77.9396 37.2785 77.1142 34.3432 75.1179L34.7931 74.4564L34.3432 75.1179C28.8316 71.3701 24.5067 71.0323 21.6128 71.5585C20.1537 71.8238 19.0315 72.3137 18.2799 72.732C17.9042 72.9411 17.6219 73.1319 17.4377 73.2667C17.3456 73.3341 17.2782 73.3874 17.236 73.4219C17.2149 73.4391 17.2001 73.4516 17.1917 73.4588L17.1851 73.4645C17.1855 73.4642 17.1859 73.4638 16.6507 72.8692C16.1155 72.2746 16.116 72.2742 16.1164 72.2738L16.1175 72.2728L16.1202 72.2704L16.1274 72.2641L16.1494 72.245C16.1674 72.2294 16.1923 72.2085 16.2238 72.1828C16.2868 72.1313 16.3766 72.0606 16.4927 71.9756C16.7248 71.8058 17.0626 71.5784 17.5018 71.3339C18.3802 70.8451 19.6675 70.286 21.3266 69.9843C24.6691 69.3765 29.4154 69.8323 35.2429 73.7949L35.243 73.7949C37.9765 75.6539 40.31 76.3308 42.3147 76.2858C44.3181 76.2409 46.0879 75.4729 47.6917 74.27C50.3948 72.2426 52.5001 69.0956 54.3357 66.3518C54.718 65.7803 55.0886 65.2263 55.4505 64.7035L55.4506 64.7034C56.6134 63.0243 58.4383 61.9911 60.5585 61.4564C62.6772 60.922 65.1423 60.8701 67.6891 61.1903C72.7771 61.8299 78.3514 63.9754 82.4381 67.011L81.4841 68.2954C77.6332 65.435 72.3227 63.3854 67.4895 62.7778C65.0757 62.4743 62.8211 62.5358 60.9498 63.0078ZM17.184 73.4656L17.1845 73.4651L17.1851 73.4645L17.184 73.4656ZM17.1837 73.4658C17.1834 73.4661 17.1835 73.466 17.184 73.4656L17.1837 73.4658Z" fill="#1895FF"/>
<path fill-rule="evenodd" clip-rule="evenodd" d="M31.7679 84.2409L24.2847 62.4713L25.7978 61.9512L33.281 83.7208L31.7679 84.2409Z" fill="#1895FF"/>
<path fill-rule="evenodd" clip-rule="evenodd" d="M50.3436 22.0752C46.5006 22.0752 43.3814 25.1936 43.3814 29.046C43.3814 32.8971 46.5009 36.0168 50.3436 36.0168C54.1863 36.0168 57.3058 32.8971 57.3058 29.046C57.3058 25.1936 54.1865 22.0752 50.3436 22.0752ZM39.3814 29.046C39.3814 22.9876 44.2883 18.0752 50.3436 18.0752C56.3988 18.0752 61.3058 22.9876 61.3058 29.046C61.3058 35.1026 56.3991 40.0168 50.3436 40.0168C44.2881 40.0168 39.3814 35.1026 39.3814 29.046Z" fill="#1C3553"/>
<path fill-rule="evenodd" clip-rule="evenodd" d="M30.875 28.049C30.875 16.8588 39.491 7.6001 50.3433 7.6001C61.1956 7.6001 69.8116 16.8588 69.8116 28.049C69.8116 29.1455 69.7264 30.2477 69.6336 30.8567L69.6325 30.8639C69.6073 31.0254 69.5909 31.1318 69.5804 31.2012V31.3086L69.5267 31.5357C69.5265 31.5363 69.5261 31.5384 69.5252 31.5424L69.5194 31.5702L69.5171 31.5812C69.5145 31.5941 69.5108 31.612 69.5066 31.632C69.3683 32.4662 69.1815 33.2945 68.9397 34.1065C68.0953 37.3321 66.8647 40.381 65.4896 43.3051C61.8046 51.1577 57.1249 58.2925 52.2229 65.1593L52.1522 65.2583L52.0701 65.348C51.3802 66.1014 50.4956 66.0295 50.1458 65.951C49.8075 65.8751 49.5716 65.7291 49.4942 65.68C49.3076 65.5618 49.1721 65.4336 49.1241 65.3879C48.9985 65.2683 48.8757 65.1301 48.7784 65.017C48.5691 64.7735 48.3001 64.4365 47.9984 64.0461C47.3883 63.2565 46.5756 62.1587 45.7003 60.9394C43.9588 58.5137 41.9061 55.5186 40.6733 53.4381M50.3433 11.6001C41.9029 11.6001 34.875 18.8595 34.875 28.049C34.875 28.9619 34.9473 29.8536 35.0852 30.7316L35.1094 30.8858V30.8867C35.2435 31.7081 35.4382 32.5125 35.6841 33.3023L35.6946 33.3361L35.7039 33.3702C37.4512 39.7709 40.6335 45.5352 44.1129 51.3962L44.1138 51.3977C45.2535 53.3215 47.2228 56.2013 48.9497 58.6067C49.5029 59.3773 50.0246 60.09 50.4787 60.6975C54.7526 54.5883 58.7056 48.3461 61.8692 41.6044L61.8699 41.6029C63.1885 38.7989 64.3169 35.9811 65.0782 33.0625L65.0873 33.0274L65.0978 32.9926C65.2959 32.3321 65.4515 31.6447 65.567 30.938L65.5757 30.8849L65.5872 30.8323C65.5901 30.8194 65.5923 30.8086 65.597 30.7857L65.6018 30.7622C65.602 30.7614 65.6022 30.7605 65.6024 30.7597C65.6048 30.7418 65.6077 30.7217 65.6111 30.6988C65.6219 30.6251 65.6419 30.4932 65.6798 30.2505C65.7358 29.881 65.8116 28.9883 65.8116 28.049C65.8116 18.8595 58.7837 11.6001 50.3433 11.6001ZM30.875 28.049C30.875 29.1398 30.9588 30.2058 31.1181 31.2518L30.875 28.049ZM31.1181 31.2518C31.1227 31.304 31.1306 31.3724 31.1448 31.4501C31.1508 31.4835 31.1586 31.5219 31.1655 31.5547C31.3298 32.5536 31.5643 33.5209 31.8544 34.4574C33.7578 41.4095 37.1867 47.565 40.6731 53.4378" fill="#1C3553"/>
</svg>
