<svg width="96" height="96" viewBox="0 0 96 96" fill="none" xmlns="http://www.w3.org/2000/svg">
<path fill-rule="evenodd" clip-rule="evenodd" d="M75.7695 72.2767C75.7445 72.2477 75.7075 72.2197 75.6755 72.1917C75.6325 72.2197 75.5845 72.2487 75.5365 72.2767C75.5165 72.2877 75.4965 72.2997 75.4755 72.3107C75.3395 72.3877 75.1875 72.4647 75.0045 72.5407C74.0115 72.9547 72.2855 73.3287 69.2905 73.3287C67.9155 73.3287 66.8185 73.2467 65.9265 73.1217C65.3175 73.0367 64.8035 72.9307 64.3785 72.8127C64.2285 72.7707 64.0855 72.7287 63.9565 72.6837C63.8185 72.6377 63.6925 72.5897 63.5755 72.5407C63.4665 72.4957 63.3695 72.4497 63.2765 72.4037C63.2145 72.3727 63.1585 72.3417 63.1035 72.3107C63.0835 72.2997 63.0625 72.2887 63.0435 72.2767C62.9945 72.2487 62.9475 72.2207 62.9045 72.1927C62.8715 72.2207 62.8355 72.2487 62.8105 72.2767H62.6775V72.4117V72.7117V72.8617V73.3117V75.2387V75.2407L62.7275 75.4817C62.8925 75.8577 63.8545 77.0857 69.2905 77.0857C74.7255 77.0857 75.6875 75.8577 75.8525 75.4817L75.8945 72.8207L75.8985 72.5977C75.8985 72.5907 75.9025 72.5837 75.9025 72.5767C75.9025 72.5707 75.8995 72.5647 75.8985 72.5577L75.9035 72.2767H75.7695ZM74.6995 73.4787V75.0077C74.4185 75.2187 73.3505 75.7957 70.0495 75.8737L64.7595 73.6697C65.9435 73.9227 67.5345 74.0797 69.2895 74.0797C71.4495 74.0797 73.3625 73.8437 74.5685 73.4787H74.6995Z" fill="#1C3553"/>
<path fill-rule="evenodd" clip-rule="evenodd" d="M75.3014 67.5955C75.2294 67.6315 75.1524 67.6665 75.0704 67.7025C74.8994 67.7765 74.7024 67.8485 74.4824 67.9185C74.4764 67.9205 74.4694 67.9225 74.4624 67.9245C73.4864 68.2325 71.9974 68.4805 69.7474 68.5115C69.5964 68.5135 69.4554 68.5185 69.2974 68.5185H69.2904H69.2884C69.2394 68.5185 69.1984 68.5165 69.1514 68.5165C69.0264 68.5155 68.9124 68.5125 68.7914 68.5105C68.3324 68.5035 67.9004 68.4895 67.5034 68.4655C66.9094 68.4295 66.3824 68.3775 65.9154 68.3115C65.7294 68.2855 65.5534 68.2565 65.3864 68.2275C65.0124 68.1605 64.6764 68.0865 64.3854 68.0055C64.2914 67.9795 64.2034 67.9525 64.1164 67.9245C64.1104 67.9225 64.1034 67.9205 64.0964 67.9185C64.0804 67.9135 64.0624 67.9085 64.0464 67.9035C63.8464 67.8385 63.6674 67.7715 63.5084 67.7025C63.4264 67.6675 63.3494 67.6315 63.2774 67.5955C63.0814 67.6935 62.9264 67.7965 62.8254 67.9035C62.8204 67.9085 62.8134 67.9135 62.8094 67.9185H62.6764V68.0535V68.3535V68.5035V68.9545V69.1065V69.7065V70.8815V70.8835L62.7274 71.1235C62.7394 71.1525 62.7594 71.1875 62.7824 71.2245C62.8314 71.3035 62.9094 71.4005 63.0294 71.5065C63.0964 71.5655 63.1774 71.6275 63.2744 71.6915C63.3384 71.7335 63.4084 71.7755 63.4864 71.8185C63.4994 71.8255 63.5154 71.8335 63.5294 71.8405C63.5964 71.8765 63.6654 71.9115 63.7434 71.9465C63.9264 72.0295 64.1404 72.1115 64.3934 72.1885C64.4914 72.2195 64.6024 72.2485 64.7124 72.2765C64.7764 72.2935 64.8374 72.3115 64.9064 72.3275C65.2054 72.3985 65.5474 72.4635 65.9334 72.5195C66.0994 72.5435 66.2784 72.5655 66.4624 72.5855C66.8984 72.6345 67.3874 72.6715 67.9314 72.6955C68.3524 72.7145 68.7964 72.7275 69.2894 72.7275C71.4444 72.7275 72.8874 72.5335 73.8654 72.2765C73.9754 72.2485 74.0864 72.2195 74.1844 72.1885C74.4374 72.1115 74.6514 72.0295 74.8344 71.9465C74.9124 71.9115 74.9824 71.8765 75.0494 71.8405C75.1434 71.7905 75.2294 71.7405 75.3034 71.6915C75.6544 71.4595 75.7974 71.2465 75.8504 71.1235L75.8934 68.4625L75.8964 68.2405C75.8974 68.2335 75.9014 68.2265 75.9014 68.2195C75.9014 68.2125 75.8974 68.2065 75.8974 68.2005L75.9014 67.9185H75.7684C75.6684 67.8055 75.5064 67.6975 75.3014 67.5955ZM74.6994 69.1205V70.6495C74.5694 70.7475 74.2674 70.9245 73.6534 71.0935C73.3994 71.1635 73.0894 71.2325 72.7174 71.2935C72.6594 71.3035 72.5984 71.3125 72.5354 71.3215C71.8954 71.4175 71.0834 71.4905 70.0484 71.5155L69.7174 71.3765L69.2974 71.2015L69.2144 71.1675L68.9994 71.0775H68.9974L68.8454 71.0135L68.0334 70.6755L68.0064 70.6645L65.3884 69.5735L64.7584 69.3115C65.1144 69.3875 65.5074 69.4545 65.9304 69.5115C66.5874 69.5995 67.3164 69.6635 68.0944 69.6955C68.3384 69.7055 68.5874 69.7125 68.8404 69.7155C68.9824 69.7175 69.1234 69.7205 69.2684 69.7205C69.2754 69.7205 69.2824 69.7215 69.2894 69.7215H69.2964C69.4444 69.7215 69.5894 69.7185 69.7344 69.7165C71.7114 69.6865 73.4464 69.4595 74.5694 69.1205H74.6994Z" fill="#1C3553"/>
<path fill-rule="evenodd" clip-rule="evenodd" d="M69.7206 61.9116C69.5796 61.9096 69.4406 61.9066 69.2976 61.9066H69.2896C69.2746 61.9066 69.2616 61.9076 69.2466 61.9076C69.1116 61.9076 68.9796 61.9096 68.8456 61.9116C67.9796 61.9246 67.1606 61.9756 66.4176 62.0576C66.2286 62.0786 66.0446 62.1006 65.8666 62.1256C65.6336 62.1576 65.4096 62.1926 65.1976 62.2306C64.9166 62.2806 64.6576 62.3366 64.4166 62.3956C64.4026 62.3996 64.3886 62.4036 64.3736 62.4066C63.9046 62.5256 63.5146 62.6606 63.2296 62.8086C63.0456 62.9046 62.9026 63.0056 62.8086 63.1096H62.6756V63.2436V63.5446V63.6946V64.1446V64.7476V65.3476V66.0716L62.6766 66.0736L62.7136 66.2506L62.7266 66.3126C62.7666 66.4036 62.8546 66.5436 63.0376 66.7046H63.0386C63.1896 66.8366 63.4046 66.9826 63.7156 67.1256C63.7206 67.1276 63.7276 67.1306 63.7326 67.1326C63.7716 67.1506 63.8186 67.1676 63.8606 67.1866C63.9406 67.2196 64.0226 67.2526 64.1136 67.2846C64.1846 67.3106 64.2596 67.3356 64.3376 67.3606C64.5956 67.4426 64.8966 67.5196 65.2416 67.5896C65.5906 67.6606 65.9896 67.7226 66.4406 67.7746C66.7426 67.8086 67.0606 67.8396 67.4116 67.8616C67.5276 67.8696 67.6556 67.8736 67.7776 67.8796C67.8076 67.8816 67.8386 67.8826 67.8686 67.8836C68.0106 67.8906 68.1446 67.8986 68.2936 67.9036C68.4656 67.9086 68.6546 67.9096 68.8376 67.9116C68.8626 67.9126 68.8876 67.9126 68.9126 67.9126C69.0006 67.9136 69.0826 67.9166 69.1736 67.9166C69.2136 67.9166 69.2486 67.9186 69.2896 67.9186H69.2956C69.3556 67.9186 69.4076 67.9166 69.4666 67.9166C71.1676 67.9076 72.4176 67.7766 73.3366 67.5896C73.6816 67.5196 73.9816 67.4426 74.2396 67.3606C74.3186 67.3356 74.3926 67.3106 74.4646 67.2846C74.6096 67.2326 74.7446 67.1796 74.8616 67.1256C75.5516 66.8076 75.7786 66.4786 75.8506 66.3136L75.8926 63.6536L75.8966 63.4316C75.8966 63.4236 75.9016 63.4176 75.9016 63.4096C75.9016 63.4036 75.8976 63.3976 75.8976 63.3906L75.9016 63.1096H75.7696C75.1866 62.4546 72.7266 61.9556 69.7206 61.9116ZM70.0496 66.7066L69.7216 66.5706L69.2976 66.3936L69.2526 66.3746L69.0066 66.2726L68.8436 66.2046L68.0946 65.8926L66.2236 65.1126L65.3466 64.7476L64.7586 64.5026C65.2126 64.5996 65.7256 64.6816 66.2866 64.7476C66.6886 64.7936 67.1136 64.8306 67.5576 64.8586C67.7346 64.8696 67.9126 64.8786 68.0946 64.8866C68.3386 64.8966 68.5866 64.9036 68.8386 64.9066C68.9836 64.9086 69.1286 64.9116 69.2756 64.9116C69.2806 64.9116 69.2856 64.9126 69.2896 64.9126H69.2976C69.4466 64.9126 69.5926 64.9086 69.7396 64.9076C71.7136 64.8766 73.4466 64.6506 74.5686 64.3126H74.6996V65.8396C74.5076 65.9836 73.9426 66.3006 72.5456 66.5116C71.9046 66.6076 71.0886 66.6816 70.0496 66.7066Z" fill="#1C3553"/>
<path fill-rule="evenodd" clip-rule="evenodd" d="M60.6761 69.635C61.1701 69.671 61.6901 69.693 62.2261 69.701V69.106V68.947C61.6711 68.939 61.1491 68.922 60.6841 68.89L60.6811 69.106L60.6761 69.635Z" fill="#1C3553"/>
<path fill-rule="evenodd" clip-rule="evenodd" d="M62.7244 72.0676C62.4064 71.8226 62.2944 71.6116 62.2574 71.5176L62.2544 71.5046L62.2254 71.3526V70.9926L60.6684 70.3436L60.6574 71.4406L60.6564 71.5026C60.6204 71.5966 60.5074 71.8056 60.1924 72.0496C60.1014 72.1206 59.9884 72.1936 59.8594 72.2686C59.7204 72.3496 59.5624 72.4306 59.3724 72.5116C60.1304 72.6196 61.0764 72.6896 62.2254 72.7056V72.4056V72.3706H62.4264C62.4984 72.2646 62.6104 72.1696 62.7174 72.0746C62.7204 72.0726 62.7224 72.0696 62.7244 72.0676Z" fill="#1C3553"/>
<path fill-rule="evenodd" clip-rule="evenodd" d="M60.6761 65.2769C61.1701 65.3129 61.6901 65.3349 62.2261 65.3429V64.7479V64.1379C61.6721 64.1309 61.1521 64.1139 60.6881 64.0819V64.0889L60.6811 64.7479L60.6761 65.2769Z" fill="#1C3553"/>
<path fill-rule="evenodd" clip-rule="evenodd" d="M62.2258 68.0472V68.0122H62.4268C62.4538 67.9732 62.5028 67.9412 62.5338 67.9032C62.5878 67.8392 62.6498 67.7762 62.7178 67.7162C62.8148 67.6292 62.9228 67.5482 63.0458 67.4692C62.8578 67.3602 62.7118 67.2522 62.6008 67.1532C62.5998 67.1522 62.5978 67.1512 62.5968 67.1502C62.3778 66.9532 62.2888 66.7892 62.2578 66.7082L62.2568 66.7062V66.7052L62.2448 66.6422L61.4018 66.2912L60.6688 65.9852L60.6648 66.3442L60.6608 66.7722V66.7922L60.6578 67.0812L60.6568 67.1432C60.6458 67.1712 60.6248 67.2122 60.5978 67.2582C60.5328 67.3672 60.4148 67.5192 60.1928 67.6902C60.1918 67.6912 60.1908 67.6922 60.1898 67.6932C60.1378 67.7332 60.0758 67.7752 60.0108 67.8182C59.9678 67.8462 59.9198 67.8742 59.8708 67.9022C59.8678 67.9042 59.8638 67.9072 59.8598 67.9092C59.8448 67.9182 59.8278 67.9272 59.8118 67.9362C59.6838 68.0082 59.5418 68.0802 59.3728 68.1522C59.6018 68.1852 59.8468 68.2142 60.1078 68.2392C60.1458 68.2432 60.1898 68.2452 60.2278 68.2492C60.2298 68.2492 60.2318 68.2502 60.2328 68.2502C60.3768 68.2632 60.5258 68.2752 60.6788 68.2852C61.1448 68.3182 61.6618 68.3382 62.2268 68.3462V68.0472H62.2258Z" fill="#1C3553"/>
<path fill-rule="evenodd" clip-rule="evenodd" d="M68.0538 61.4949C68.3188 61.4799 68.5808 61.4729 68.8438 61.4679C68.9798 61.4649 69.1178 61.4579 69.2538 61.4579L69.2878 59.2799L69.2908 59.0599C69.2918 59.0519 69.2968 59.0439 69.2968 59.0369C69.2968 59.0299 69.2928 59.0229 69.2918 59.0159L69.2958 58.7359H69.1638C69.0628 58.6229 68.9008 58.5149 68.6958 58.4129C68.6238 58.4489 68.5468 58.4849 68.4648 58.5199C68.2938 58.5939 68.0978 58.6659 67.8788 58.7359C67.8718 58.7379 67.8638 58.7399 67.8568 58.7419C66.8138 59.0719 65.2008 59.3369 62.6838 59.3369C61.9428 59.3369 61.2808 59.3139 60.6878 59.2729V59.2809L60.6808 59.9389L60.6758 60.4679C61.3098 60.5139 61.9838 60.5389 62.6838 60.5389C64.8458 60.5389 66.7588 60.3029 67.9648 59.9379H68.0938V61.4659C68.0828 61.4749 68.0678 61.4849 68.0538 61.4949Z" fill="#1C3553"/>
<path fill-rule="evenodd" clip-rule="evenodd" d="M62.8259 62.7971C63.0249 62.6431 63.2759 62.5061 63.5569 62.3801C63.5709 62.3741 63.5869 62.3681 63.6009 62.3621C63.6039 62.3611 63.6069 62.3601 63.6099 62.3581C63.6369 62.3461 63.6679 62.3361 63.6959 62.3251C63.6119 62.3271 63.5319 62.3311 63.4449 62.3331L62.4029 61.8991L60.6689 61.1761L60.6599 61.9861L60.6569 62.2731V62.3351C60.6479 62.3571 60.6339 62.3851 60.6169 62.4181C60.6129 62.4251 60.6069 62.4331 60.6029 62.4401C60.5389 62.5501 60.4199 62.7051 60.1929 62.8821C60.1649 62.9031 60.1299 62.9251 60.0989 62.9481C60.0309 62.9961 59.9539 63.0451 59.8679 63.0961C59.8659 63.0971 59.8619 63.0991 59.8589 63.1011C59.7899 63.1411 59.7179 63.1811 59.6369 63.2211C59.5649 63.2571 59.4879 63.2921 59.4059 63.3281C59.3939 63.3331 59.3839 63.3391 59.3719 63.3441C59.3989 63.3481 59.4299 63.3511 59.4569 63.3551C59.6169 63.3761 59.7849 63.3961 59.9599 63.4151C60.0689 63.4271 60.1849 63.4371 60.2999 63.4471C60.8619 63.4971 61.5029 63.5281 62.2249 63.5381V63.2381V63.2021H62.4269C62.4989 63.0961 62.6099 63.0021 62.7179 62.9061C62.7579 62.8711 62.7819 62.8311 62.8259 62.7971Z" fill="#1C3553"/>
<path fill-rule="evenodd" clip-rule="evenodd" d="M69.2921 54.2069L69.2961 53.9269H69.1641C69.0631 53.8139 68.9011 53.7059 68.6961 53.6039C68.6241 53.6399 68.5471 53.6749 68.4651 53.7109C68.2941 53.7849 68.0961 53.8569 67.8761 53.9269C67.8701 53.9289 67.8631 53.9309 67.8571 53.9329C66.8141 54.2619 65.2011 54.5269 62.6841 54.5269C61.9431 54.5269 61.2821 54.5039 60.6881 54.4629V54.4699L60.6811 55.1289L60.6761 55.6589C61.3101 55.7049 61.9841 55.7299 62.6841 55.7299C64.8451 55.7299 66.7571 55.4939 67.9641 55.1289H68.0941V56.6569C67.9021 56.8019 67.3361 57.1179 65.9411 57.3279C65.2991 57.4249 64.4831 57.4989 63.4441 57.5239L62.4011 57.0889L60.6691 56.3669L60.6601 57.1769L60.6571 57.4629V57.5249C60.6481 57.5469 60.6341 57.5759 60.6161 57.6089C60.6131 57.6159 60.6071 57.6239 60.6031 57.6309C60.5391 57.7409 60.4201 57.8959 60.1921 58.0729C60.1651 58.0939 60.1301 58.1159 60.1001 58.1379C60.0311 58.1869 59.9541 58.2359 59.8681 58.2859C59.8651 58.2879 59.8621 58.2899 59.8581 58.2919C59.7891 58.3319 59.7181 58.3719 59.6371 58.4119C59.5651 58.4479 59.4881 58.4829 59.4061 58.5189C59.3941 58.5239 59.3851 58.5289 59.3731 58.5339C59.3991 58.5379 59.4301 58.5409 59.4571 58.5449C59.6161 58.5669 59.7851 58.5869 59.9601 58.6049C60.0691 58.6169 60.1841 58.6269 60.3001 58.6369C60.9811 58.6969 61.7641 58.7349 62.6841 58.7349C64.4801 58.7349 65.7801 58.5999 66.7321 58.4059C67.0761 58.3359 67.3771 58.2589 67.6351 58.1769C67.7131 58.1519 67.7881 58.1269 67.8591 58.1009C68.0041 58.0489 68.1391 57.9959 68.2571 57.9419C68.9471 57.6239 69.1731 57.2949 69.2451 57.1289L69.2871 54.4699L69.2911 54.2499C69.2911 54.2419 69.2961 54.2339 69.2961 54.2259C69.2971 54.2209 69.2921 54.2139 69.2921 54.2069Z" fill="#1C3553"/>
<path fill-rule="evenodd" clip-rule="evenodd" d="M69.2921 49.3978L69.2961 49.1188H69.1641C69.0631 49.0048 68.9021 48.8978 68.6961 48.7948C68.6241 48.8308 68.5471 48.8668 68.4651 48.9018C68.2941 48.9758 68.0961 49.0478 67.8761 49.1188C67.8701 49.1208 67.8631 49.1228 67.8571 49.1238C66.8141 49.4538 65.2011 49.7188 62.6841 49.7188C61.9431 49.7188 61.2811 49.6948 60.6871 49.6548L60.6881 49.6618L60.6811 50.3208L60.6761 50.8498C61.3091 50.8958 61.9831 50.9208 62.6841 50.9208C64.8441 50.9208 66.7561 50.6848 67.9621 50.3208H68.0941V51.8478C67.9021 51.9928 67.3371 52.3098 65.9401 52.5198C65.2981 52.6168 64.4831 52.6908 63.4441 52.7148L62.4021 52.2808L60.6691 51.5588L60.6601 52.3688L60.6571 52.6558V52.7178C60.6481 52.7388 60.6341 52.7678 60.6161 52.8008C60.6131 52.8078 60.6071 52.8158 60.6031 52.8228C60.5391 52.9328 60.4201 53.0878 60.1921 53.2648C60.1651 53.2858 60.1301 53.3088 60.0991 53.3308C60.0311 53.3788 59.9541 53.4278 59.8691 53.4778C59.8661 53.4798 59.8631 53.4818 59.8601 53.4828C59.7901 53.5228 59.7181 53.5638 59.6371 53.6038C59.5651 53.6398 59.4881 53.6748 59.4061 53.7108C59.3941 53.7158 59.3841 53.7208 59.3721 53.7268C59.3991 53.7308 59.4291 53.7338 59.4571 53.7368C59.6161 53.7588 59.7851 53.7788 59.9601 53.7978C60.0691 53.8088 60.1851 53.8188 60.3001 53.8288C60.9821 53.8898 61.7641 53.9268 62.6841 53.9268C64.4801 53.9268 65.7791 53.7918 66.7311 53.5978C67.0761 53.5278 67.3761 53.4508 67.6341 53.3688C67.7131 53.3438 67.7871 53.3188 67.8581 53.2928C68.0031 53.2408 68.1381 53.1878 68.2551 53.1338C68.9461 52.8158 69.1731 52.4868 69.2451 52.3208L69.2871 49.6618L69.2901 49.4418C69.2911 49.4338 69.2961 49.4258 69.2961 49.4188C69.2971 49.4108 69.2921 49.4048 69.2921 49.3978Z" fill="#1C3553"/>
<path fill-rule="evenodd" clip-rule="evenodd" d="M69.2921 44.5887L69.2961 44.3087H69.1641C69.0631 44.1957 68.9011 44.0877 68.6951 43.9857C68.6231 44.0217 68.5461 44.0567 68.4641 44.0927C68.2931 44.1667 68.0961 44.2387 67.8761 44.3087C67.8701 44.3107 67.8631 44.3127 67.8561 44.3147C66.8131 44.6437 65.2011 44.9087 62.6841 44.9087C61.9431 44.9087 61.2821 44.8857 60.6881 44.8447V44.8527L60.6821 45.5107L60.6761 46.0407C61.3101 46.0867 61.9841 46.1117 62.6841 46.1117C64.8461 46.1117 66.7591 45.8757 67.9651 45.5107H68.0951V47.0387C67.9021 47.1837 67.3371 47.5007 65.9401 47.7107C65.2991 47.8077 64.4841 47.8817 63.4451 47.9067L62.4031 47.4717L60.6691 46.7497L60.6611 47.5597L60.6581 47.8467L60.6571 47.9087C60.6491 47.9297 60.6351 47.9587 60.6171 47.9907C60.6141 47.9977 60.6081 48.0067 60.6041 48.0137C60.5401 48.1227 60.4211 48.2787 60.1931 48.4547C60.1661 48.4767 60.1311 48.4987 60.1001 48.5207C60.0321 48.5697 59.9551 48.6187 59.8691 48.6687C59.8661 48.6707 59.8631 48.6717 59.8601 48.6737C59.7911 48.7137 59.7191 48.7537 59.6371 48.7937C59.5651 48.8297 59.4881 48.8657 59.4061 48.9007C59.3941 48.9067 59.3851 48.9117 59.3721 48.9167C59.4001 48.9207 59.4301 48.9237 59.4581 48.9277C59.6171 48.9497 59.7861 48.9697 59.9611 48.9877C60.0691 48.9997 60.1851 49.0097 60.3001 49.0197C60.9821 49.0797 61.7641 49.1177 62.6841 49.1177C64.4801 49.1177 65.7801 48.9817 66.7321 48.7887C67.0771 48.7187 67.3771 48.6417 67.6351 48.5597C67.7141 48.5347 67.7881 48.5097 67.8591 48.4837C68.0041 48.4317 68.1391 48.3777 68.2561 48.3247C68.9471 48.0067 69.1731 47.6767 69.2461 47.5117L69.2881 44.8517L69.2911 44.6317C69.2921 44.6237 69.2961 44.6157 69.2961 44.6087C69.2971 44.6027 69.2921 44.5957 69.2921 44.5887Z" fill="#1C3553"/>
<path fill-rule="evenodd" clip-rule="evenodd" d="M69.2921 39.7797L69.2961 39.4997H69.1641C69.0631 39.3867 68.9011 39.2787 68.6961 39.1767C68.6241 39.2127 68.5471 39.2477 68.4651 39.2837C68.2941 39.3577 68.0961 39.4297 67.8761 39.4997C67.8701 39.5017 67.8631 39.5037 67.8571 39.5057C66.8141 39.8357 65.2011 40.0997 62.6841 40.0997C61.9431 40.0997 61.2821 40.0767 60.6881 40.0357V40.0437L60.6811 40.7027L60.6761 41.2317C61.3101 41.2777 61.9841 41.3027 62.6841 41.3027C64.8451 41.3027 66.7571 41.0657 67.9641 40.7027H68.0941V42.2307C67.9021 42.3756 67.3361 42.6916 65.9411 42.9016C65.2991 42.9976 64.4831 43.0726 63.4441 43.0966L62.4021 42.6626L60.6691 41.9407L60.6611 42.7496L60.6581 43.0366L60.6571 43.0986C60.6481 43.1206 60.6341 43.1496 60.6171 43.1816C60.6131 43.1886 60.6071 43.1976 60.6031 43.2046C60.5391 43.3136 60.4201 43.4696 60.1931 43.6456C60.1651 43.6676 60.1301 43.6896 60.1001 43.7116C60.0311 43.7606 59.9541 43.8096 59.8691 43.8596C59.8661 43.8616 59.8631 43.8626 59.8601 43.8646C59.7911 43.9046 59.7181 43.9446 59.6371 43.9856C59.5651 44.0216 59.4881 44.0566 59.4061 44.0916C59.3941 44.0976 59.3841 44.1026 59.3721 44.1076C59.3991 44.1116 59.4291 44.1146 59.4571 44.1186C59.6161 44.1406 59.7851 44.1606 59.9601 44.1786C60.0691 44.1906 60.1841 44.2006 60.2991 44.2106C60.9811 44.2716 61.7641 44.3086 62.6841 44.3086C64.4801 44.3086 65.7801 44.1736 66.7321 43.9796C67.0761 43.9096 67.3771 43.8336 67.6351 43.7506C67.7131 43.7266 67.7881 43.7006 67.8591 43.6756C68.0041 43.6226 68.1391 43.5696 68.2571 43.5156C68.9471 43.1986 69.1731 42.8686 69.2451 42.7036L69.2871 40.0437L69.2911 39.8237C69.2911 39.8157 69.2961 39.8077 69.2961 39.7997C69.2971 39.7927 69.2921 39.7867 69.2921 39.7797Z" fill="#1C3553"/>
<path fill-rule="evenodd" clip-rule="evenodd" d="M59.8692 34.2422C60.0842 34.3802 60.2632 34.5282 60.3952 34.6902C60.4222 34.7232 60.4652 34.7512 60.4882 34.7842H60.6612L60.6882 35.2352L60.6822 35.8932L60.6762 36.4232C61.3102 36.4692 61.9842 36.4942 62.6842 36.4942C64.8462 36.4942 66.7602 36.2572 67.9662 35.8932H68.0942V37.4212C67.9022 37.5662 67.3372 37.8822 65.9402 38.0932C65.2992 38.1902 64.4832 38.2642 63.4452 38.2882L62.4022 37.8542L60.6692 37.1312L60.6612 37.9412L60.6572 38.2282V38.2902C60.6482 38.3122 60.6352 38.3402 60.6172 38.3732C60.6132 38.3802 60.6082 38.3882 60.6032 38.3952C60.5402 38.5052 60.4212 38.6602 60.1932 38.8372C60.1652 38.8582 60.1312 38.8802 60.1002 38.9032C60.0312 38.9512 59.9542 39.0002 59.8692 39.0502C59.8662 39.0522 59.8632 39.0532 59.8602 39.0552C59.7912 39.0952 59.7192 39.1352 59.6372 39.1762C59.5652 39.2122 59.4882 39.2472 59.4062 39.2832C59.3942 39.2882 59.3852 39.2932 59.3732 39.2982C59.4002 39.3032 59.4302 39.3052 59.4582 39.3102C59.6172 39.3312 59.7862 39.3512 59.9612 39.3702C60.0702 39.3822 60.1852 39.3922 60.3002 39.4022C60.9822 39.4622 61.7642 39.4992 62.6842 39.4992C64.4802 39.4992 65.7802 39.3642 66.7312 39.1712C67.0762 39.1012 67.3772 39.0232 67.6352 38.9412C67.7132 38.9162 67.7882 38.8912 67.8592 38.8652C68.0042 38.8132 68.1392 38.7602 68.2562 38.7062C68.9472 38.3882 69.1732 38.0582 69.2462 37.8932L69.2882 35.2342L69.2912 35.0142C69.2922 35.0062 69.2962 34.9992 69.2962 34.9912C69.2962 34.9842 69.2922 34.9772 69.2922 34.9702L69.2962 34.6902H69.1632C68.5502 34.0042 65.8832 33.4882 62.6832 33.4882C61.9612 33.4882 61.2672 33.5152 60.6162 33.5642C60.6132 33.5712 60.6072 33.5802 60.6032 33.5872C60.5312 33.7102 60.3842 33.8922 60.0992 34.0942C60.0322 34.1432 59.9552 34.1922 59.8692 34.2422Z" fill="#1C3553"/>
<path fill-rule="evenodd" clip-rule="evenodd" d="M53.0079 38.7661C53.1149 38.8351 53.2149 38.9061 53.3019 38.9821C53.3819 39.0511 53.4519 39.1231 53.5139 39.1981C53.5439 39.2341 53.5919 39.2661 53.6179 39.3041H53.7909L53.8029 39.4971C54.6449 39.4931 55.3759 39.4591 56.0119 39.4021C56.1269 39.3921 56.2419 39.3821 56.3509 39.3701C56.5249 39.3511 56.6939 39.3321 56.8539 39.3101C56.8809 39.3061 56.9109 39.3031 56.9379 39.2991C57.2069 39.2601 57.4469 39.2171 57.6739 39.1711C57.7319 39.1591 57.7879 39.1471 57.8439 39.1341C57.9519 39.1111 58.0569 39.0861 58.1559 39.0611C58.3069 39.0231 58.4479 38.9831 58.5769 38.9411C58.6339 38.9231 58.6869 38.9051 58.7399 38.8861C58.7599 38.8791 58.7819 38.8731 58.8019 38.8651C58.9429 38.8151 59.0729 38.7631 59.1869 38.7111C59.1909 38.7091 59.1959 38.7081 59.1989 38.7061C59.3269 38.6471 59.4359 38.5881 59.5339 38.5291C59.5679 38.5081 59.6019 38.4881 59.6329 38.4671C59.7949 38.3611 59.9149 38.2591 59.9999 38.1671C60.0559 38.1061 60.0969 38.0511 60.1279 38.0011C60.1539 37.9611 60.1749 37.9241 60.1879 37.8931L60.2029 36.9371L60.2119 36.3841L60.2199 35.8921L60.2299 35.2341L60.2329 35.0151C60.2339 35.0071 60.2389 34.9991 60.2389 34.9901C60.2389 34.9831 60.2339 34.9761 60.2339 34.9691L60.2379 34.6901H60.1059C60.0049 34.5771 59.8429 34.4701 59.6379 34.3681C59.5659 34.4031 59.4889 34.4391 59.4069 34.4741C59.2369 34.5481 59.0409 34.6201 58.8219 34.6901C58.8139 34.6921 58.8059 34.6951 58.7989 34.6971C58.2719 34.8631 57.5949 35.0121 56.7309 35.1191C56.5409 35.1431 56.3399 35.1631 56.1319 35.1831C56.1289 35.1831 56.1259 35.1831 56.1229 35.1831C56.1069 35.1851 56.0889 35.1871 56.0719 35.1881C55.9229 35.2011 55.7809 35.2161 55.6219 35.2271C55.0809 35.2641 54.4759 35.2841 53.8139 35.2881L53.8069 35.8921L53.8009 36.4911C54.4339 36.4881 55.0449 36.4651 55.6219 36.4231C55.7749 36.4121 55.9239 36.3991 56.0719 36.3861C56.1749 36.3771 56.2759 36.3671 56.3759 36.3561C56.4259 36.3511 56.4739 36.3451 56.5219 36.3401C56.7819 36.3111 57.0349 36.2801 57.2739 36.2431C57.5889 36.1961 57.8809 36.1421 58.1549 36.0841C58.4289 36.0251 58.6799 35.9611 58.9069 35.8921H59.0359V36.2431V36.4511V37.4211C58.9169 37.5101 58.6529 37.6651 58.1429 37.8211C57.8299 37.9161 57.4219 38.0111 56.8929 38.0911C56.8899 38.0921 56.8849 38.0921 56.8819 38.0931C56.8119 38.1031 56.7389 38.1131 56.6649 38.1231C56.5529 38.1381 56.4329 38.1521 56.3109 38.1661C56.2439 38.1731 56.1789 38.1811 56.1089 38.1881C55.9609 38.2031 55.8039 38.2161 55.6419 38.2281C55.2639 38.2561 54.8479 38.2771 54.3869 38.2881L53.7719 38.0321C53.7439 38.0931 53.6909 38.1841 53.5919 38.2961L53.5909 38.2971C53.4719 38.4321 53.2829 38.5931 52.9979 38.7601C53.0019 38.7621 53.0049 38.7641 53.0079 38.7661Z" fill="#1C3553"/>
<path fill-rule="evenodd" clip-rule="evenodd" d="M56.8819 33.284C56.2409 33.381 55.4259 33.455 54.3879 33.479L53.7719 33.222C53.7439 33.284 53.6909 33.375 53.5919 33.488H53.5909C53.4729 33.623 53.2839 33.784 52.9979 33.951C53.0009 33.953 53.0049 33.955 53.0079 33.957C53.1149 34.026 53.2139 34.097 53.3009 34.172C53.3819 34.241 53.4519 34.314 53.5139 34.389C53.5439 34.425 53.5909 34.456 53.6169 34.493H53.7899L53.8019 34.688C54.6439 34.684 55.3749 34.649 56.0109 34.593C56.1249 34.583 56.2399 34.573 56.3489 34.561C56.5239 34.542 56.6929 34.522 56.8519 34.501C57.1529 34.459 57.4229 34.412 57.6729 34.362C58.0179 34.292 58.3189 34.214 58.5769 34.133C58.6549 34.107 58.7299 34.082 58.8009 34.057C58.9459 34.004 59.0809 33.951 59.1979 33.898C59.3269 33.838 59.4349 33.779 59.5339 33.72C59.5679 33.699 59.6009 33.679 59.6319 33.658C59.9009 33.482 60.0489 33.317 60.1269 33.193C60.1529 33.153 60.1739 33.115 60.1869 33.085L60.2289 30.425L60.2319 30.206C60.2329 30.198 60.2379 30.19 60.2379 30.181C60.2379 30.174 60.2329 30.167 60.2329 30.16L60.2369 29.881H60.1049C60.0039 29.768 59.8419 29.66 59.6369 29.558C59.5649 29.594 59.4879 29.629 59.4059 29.665C59.2349 29.739 59.0369 29.811 58.8179 29.881C58.8109 29.883 58.8039 29.885 58.7979 29.887C57.7819 30.208 56.2179 30.465 53.8129 30.478L53.8069 31.083L53.8009 31.682C55.8889 31.67 57.7319 31.438 58.9059 31.083H59.0349V32.612C58.8439 32.757 58.2789 33.074 56.8819 33.284Z" fill="#1C3553"/>
<path fill-rule="evenodd" clip-rule="evenodd" d="M47.3136 27.9514C47.3636 27.9524 47.4136 27.9534 47.4646 27.9554C47.8336 27.9674 48.2025 27.9874 48.5705 28.0174C49.4405 28.0884 50.2865 28.2084 51.0395 28.3874C51.3425 28.4594 51.6305 28.5394 51.8975 28.6294C51.9795 28.6564 52.0485 28.6904 52.1275 28.7194C52.1355 28.7224 52.1435 28.7264 52.1515 28.7284C52.4785 28.8534 52.7655 28.9924 53.0075 29.1484C53.1145 29.2174 53.2135 29.2884 53.3015 29.3634C53.3815 29.4324 53.4515 29.5054 53.5135 29.5794C53.5435 29.6164 53.5905 29.6474 53.6165 29.6854H53.7895L53.8015 29.8794C55.5035 29.8704 56.7545 29.7394 57.6725 29.5534C58.0175 29.4834 58.3185 29.4064 58.5755 29.3244C58.6545 29.2994 58.7285 29.2734 58.8005 29.2484C58.9455 29.1954 59.0805 29.1424 59.1975 29.0884C59.8885 28.7704 60.1155 28.4404 60.1875 28.2754L60.2295 25.6174L60.2325 25.3984C60.2335 25.3904 60.2385 25.3824 60.2385 25.3734C60.2385 25.3664 60.2335 25.3594 60.2335 25.3524L60.2375 25.0734H60.1055C60.0055 24.9604 59.8435 24.8524 59.6375 24.7504C59.5655 24.7864 59.4885 24.8214 59.4065 24.8574C59.2355 24.9314 59.0385 25.0034 58.8175 25.0734C58.8115 25.0754 58.8045 25.0774 58.7985 25.0794C57.7555 25.4094 56.1425 25.6744 53.6255 25.6744C51.1085 25.6744 49.4965 25.4094 48.4535 25.0804C48.4475 25.0784 48.4405 25.0764 48.4335 25.0744C48.2135 25.0044 48.0165 24.9314 47.8456 24.8574C47.7636 24.8224 47.6866 24.7864 47.6146 24.7514C47.4086 24.8534 47.2476 24.9614 47.1466 25.0744H47.0136V27.9464C47.1136 27.9454 47.2136 27.9494 47.3136 27.9514ZM49.0965 26.4654C50.2795 26.7194 51.8705 26.8754 53.6265 26.8754C55.7865 26.8754 57.6985 26.6394 58.9055 26.2754H59.0355V27.8024C58.8435 27.9474 58.2785 28.2644 56.8815 28.4744C56.2405 28.5714 55.4245 28.6454 54.3855 28.6694L53.3435 28.2354L49.0965 26.4654Z" fill="#1C3553"/>
<path fill-rule="evenodd" clip-rule="evenodd" d="M47.0646 23.4675C47.1366 23.6325 47.3636 23.9625 48.0535 24.2795C48.1705 24.3335 48.3055 24.3865 48.4505 24.4395C48.5225 24.4645 48.5965 24.4905 48.6755 24.5155C48.9335 24.5975 49.2335 24.6745 49.5785 24.7445C50.5305 24.9375 51.8305 25.0725 53.6265 25.0725C55.4225 25.0725 56.7225 24.9375 57.6735 24.7445C58.0185 24.6745 58.3195 24.5965 58.5775 24.5145C58.6555 24.4895 58.7305 24.4645 58.8015 24.4385C58.9465 24.3865 59.0815 24.3335 59.1985 24.2795C59.8895 23.9615 60.1155 23.6315 60.1875 23.4665L60.2295 20.8075L60.2335 20.5885C60.2335 20.5805 60.2385 20.5725 60.2385 20.5645C60.2385 20.5565 60.2345 20.5495 60.2335 20.5425L60.2385 20.2635H60.1055C59.4925 19.5775 56.8255 19.0615 53.6255 19.0615C50.4265 19.0615 47.7586 19.5775 47.1466 20.2635H47.0136V23.2255V23.2265L47.0646 23.4675ZM54.3865 23.8615L53.3445 23.4265L49.0965 21.6565C50.2805 21.9105 51.8715 22.0665 53.6265 22.0665C55.7885 22.0665 57.7015 21.8305 58.9075 21.4655H59.0365V22.9935C58.8445 23.1385 58.2795 23.4555 56.8825 23.6665C56.2405 23.7625 55.4255 23.8365 54.3865 23.8615Z" fill="#1C3553"/>
<path fill-rule="evenodd" clip-rule="evenodd" d="M53.3009 67.8354C53.3259 67.8574 53.3439 67.8814 53.3679 67.9034C53.4189 67.9514 53.4709 68.0004 53.5129 68.0514C53.5429 68.0884 53.5909 68.1194 53.6169 68.1574H53.7899L53.8019 68.3514C54.4769 68.3474 55.0809 68.3254 55.6219 68.2874C55.7769 68.2764 55.9269 68.2644 56.0719 68.2514C56.0759 68.2504 56.0789 68.2504 56.0829 68.2504C56.1209 68.2464 56.1649 68.2444 56.2029 68.2404C56.4639 68.2144 56.7089 68.1854 56.9379 68.1534C56.9629 68.1494 56.9839 68.1454 57.0089 68.1414C57.3169 68.0954 57.5909 68.0444 57.8429 67.9884C57.9509 67.9644 58.0569 67.9404 58.1549 67.9154C58.1709 67.9114 58.1849 67.9074 58.1999 67.9034C58.3109 67.8744 58.4219 67.8454 58.5209 67.8154C58.5989 67.7914 58.6689 67.7654 58.7399 67.7404C58.8979 67.6854 59.0449 67.6294 59.1709 67.5724C59.1759 67.5694 59.1819 67.5674 59.1869 67.5654C59.2589 67.5324 59.3219 67.4994 59.3849 67.4654C59.4259 67.4444 59.4679 67.4224 59.5049 67.4014C59.5529 67.3724 59.5969 67.3444 59.6389 67.3174C59.7979 67.2124 59.9149 67.1114 59.9989 67.0204C60.0579 66.9574 60.0999 66.8994 60.1319 66.8494C60.1389 66.8374 60.1469 66.8254 60.1529 66.8154C60.1669 66.7904 60.1789 66.7674 60.1879 66.7474L60.1939 66.3974L60.2029 65.7914L60.2119 65.2384L60.2199 64.7474L60.2299 64.0884L60.2309 64.0414C60.2159 64.0404 60.2019 64.0394 60.1879 64.0384C60.1849 64.0374 60.1819 64.0374 60.1789 64.0374C59.9709 64.0184 59.7699 63.9974 59.5809 63.9734C59.0329 63.9054 58.5619 63.8214 58.1559 63.7254C57.7499 63.8214 57.2779 63.9054 56.7309 63.9734C56.5409 63.9974 56.3409 64.0174 56.1319 64.0374C56.1299 64.0374 56.1269 64.0384 56.1239 64.0384C56.1069 64.0394 56.0899 64.0414 56.0729 64.0424C55.9239 64.0564 55.7809 64.0704 55.6219 64.0814C55.0819 64.1194 54.4759 64.1394 53.8139 64.1424L53.8079 64.7474L53.8019 65.3464C54.4339 65.3424 55.0459 65.3194 55.6219 65.2784C55.7749 65.2674 55.9239 65.2544 56.0719 65.2404C56.1749 65.2314 56.2759 65.2214 56.3769 65.2114C56.4259 65.2064 56.4739 65.2004 56.5229 65.1954C56.7829 65.1664 57.0359 65.1344 57.2749 65.0984C57.5889 65.0514 57.8819 64.9974 58.1549 64.9384C58.4289 64.8804 58.6789 64.8164 58.9049 64.7484H59.0359V65.0994V65.3064V66.2754C58.9169 66.3654 58.6539 66.5204 58.1439 66.6754C58.0939 66.6914 58.0439 66.7064 57.9879 66.7214C57.7349 66.7914 57.4249 66.8594 57.0539 66.9204C57.0019 66.9294 56.9489 66.9374 56.8939 66.9464C56.8869 66.9474 56.8799 66.9484 56.8729 66.9494C56.8059 66.9594 56.7359 66.9684 56.6659 66.9784C56.5529 66.9934 56.4339 67.0074 56.3109 67.0214C56.2439 67.0284 56.1799 67.0364 56.1089 67.0434C55.9609 67.0584 55.8039 67.0714 55.6419 67.0834C55.2639 67.1114 54.8479 67.1314 54.3869 67.1434L53.7719 66.8864C53.7439 66.9484 53.6909 67.0394 53.5919 67.1524L53.5909 67.1534C53.4719 67.2874 53.2839 67.4484 52.9989 67.6154C53.1089 67.6854 53.2109 67.7584 53.3009 67.8354Z" fill="#1895FF"/>
<path fill-rule="evenodd" clip-rule="evenodd" d="M53.0079 62.8114C53.1149 62.8804 53.2139 62.9514 53.3009 63.0264C53.3819 63.0954 53.4519 63.1684 53.5139 63.2434C53.5439 63.2794 53.5909 63.3104 53.6169 63.3474H53.7899L53.8019 63.5424C54.6439 63.5384 55.3749 63.5034 56.0109 63.4474C56.1249 63.4364 56.2409 63.4274 56.3489 63.4154C56.5239 63.3964 56.6929 63.3764 56.8519 63.3554C56.8799 63.3514 56.9099 63.3474 56.9379 63.3444C57.2059 63.3054 57.4469 63.2624 57.6729 63.2154C57.7319 63.2034 57.7879 63.1914 57.8439 63.1794C57.9509 63.1554 58.0569 63.1314 58.1549 63.1064C58.3059 63.0674 58.4469 63.0274 58.5769 62.9864C58.6339 62.9684 58.6859 62.9504 58.7389 62.9314C58.7589 62.9244 58.7809 62.9174 58.8009 62.9104C58.9419 62.8594 59.0729 62.8084 59.1869 62.7554C59.1909 62.7544 59.1949 62.7524 59.1979 62.7514C59.3269 62.6914 59.4359 62.6324 59.5339 62.5734C59.5689 62.5524 59.6019 62.5324 59.6329 62.5124C59.7949 62.4054 59.9149 62.3034 59.9989 62.2114C60.0559 62.1504 60.0969 62.0954 60.1279 62.0464C60.1529 62.0064 60.1739 61.9684 60.1879 61.9384L60.2029 60.9814L60.2119 60.4284L60.2189 59.9374L60.2299 59.2794V59.2324C60.2159 59.2304 60.2019 59.2294 60.1869 59.2284C60.1839 59.2274 60.1809 59.2274 60.1779 59.2274C59.9709 59.2084 59.7699 59.1874 59.5809 59.1634C59.0329 59.0954 58.5609 59.0114 58.1549 58.9154C57.7489 59.0114 57.2779 59.0954 56.7299 59.1634C56.5409 59.1874 56.3399 59.2074 56.1319 59.2274C56.1289 59.2274 56.1259 59.2274 56.1229 59.2274C56.1059 59.2294 56.0889 59.2304 56.0719 59.2324C55.9229 59.2454 55.7809 59.2604 55.6219 59.2714C55.0809 59.3084 54.4759 59.3284 53.8139 59.3324L53.8069 59.9364L53.8009 60.5354C54.4339 60.5324 55.0449 60.5094 55.6219 60.4674C55.7749 60.4564 55.9239 60.4434 56.0719 60.4304C56.1749 60.4214 56.2759 60.4114 56.3759 60.4004C56.4249 60.3954 56.4729 60.3894 56.5219 60.3844C56.7819 60.3554 57.0349 60.3234 57.2739 60.2874C57.5889 60.2404 57.8809 60.1864 58.1549 60.1274C58.4289 60.0694 58.6799 60.0054 58.9069 59.9364H59.0349V60.2874V60.4954V61.4654C58.9169 61.5544 58.6529 61.7094 58.1429 61.8654C57.8289 61.9604 57.4219 62.0554 56.8929 62.1354C56.8889 62.1364 56.8849 62.1364 56.8809 62.1374C56.8109 62.1474 56.7389 62.1584 56.6649 62.1674C56.5519 62.1834 56.4329 62.1964 56.3099 62.2104C56.2429 62.2184 56.1789 62.2264 56.1079 62.2334C55.9599 62.2474 55.8029 62.2604 55.6409 62.2724C55.2629 62.3004 54.8469 62.3214 54.3869 62.3324L53.7709 62.0754C53.7429 62.1374 53.6899 62.2284 53.5909 62.3414H53.5899C53.4719 62.4764 53.2829 62.6374 52.9969 62.8044C53.0009 62.8074 53.0049 62.8094 53.0079 62.8114Z" fill="#1895FF"/>
<path fill-rule="evenodd" clip-rule="evenodd" d="M53.0069 58.0013C53.1149 58.0703 53.2139 58.1413 53.3019 58.2173C53.3829 58.2873 53.4529 58.3593 53.5149 58.4343C53.5449 58.4703 53.5919 58.5013 53.6179 58.5383H53.7909L53.8029 58.7323C54.6449 58.7283 55.3759 58.6933 56.0119 58.6373C56.1269 58.6273 56.2419 58.6173 56.3509 58.6053C56.5259 58.5873 56.6949 58.5673 56.8549 58.5453C56.8819 58.5423 56.9119 58.5383 56.9379 58.5353C57.2069 58.4963 57.4479 58.4533 57.6749 58.4063C57.7329 58.3953 57.7879 58.3823 57.8439 58.3703C57.9519 58.3463 58.0579 58.3223 58.1559 58.2973C58.3069 58.2593 58.4479 58.2193 58.5779 58.1783C58.6339 58.1603 58.6859 58.1423 58.7389 58.1233C58.7599 58.1163 58.7819 58.1093 58.8019 58.1023C58.9429 58.0513 59.0739 57.9993 59.1879 57.9473C59.1919 57.9453 59.1959 57.9443 59.1999 57.9423C59.3279 57.8833 59.4369 57.8243 59.5349 57.7653C59.5699 57.7443 59.6029 57.7233 59.6339 57.7033C59.7959 57.5973 59.9159 57.4943 60.0009 57.4023C60.0569 57.3413 60.0979 57.2863 60.1299 57.2373C60.1549 57.1973 60.1759 57.1603 60.1889 57.1293L60.2039 56.1733L60.2129 55.6193L60.2199 55.1283L60.2309 54.4703V54.4223C60.2169 54.4213 60.2029 54.4193 60.1879 54.4183C60.1849 54.4183 60.1819 54.4183 60.1799 54.4173C59.9719 54.3983 59.7709 54.3783 59.5809 54.3543C59.0339 54.2863 58.5619 54.2013 58.1559 54.1063C57.7499 54.2013 57.2789 54.2863 56.7319 54.3543C56.5419 54.3773 56.3409 54.3983 56.1329 54.4173C56.1299 54.4183 56.1269 54.4183 56.1239 54.4183C56.1069 54.4203 56.0899 54.4213 56.0729 54.4233C55.9239 54.4363 55.7819 54.4513 55.6229 54.4623C55.0819 54.4993 54.4769 54.5193 53.8149 54.5233L53.8079 55.1283L53.8019 55.7273C54.4349 55.7233 55.0459 55.7003 55.6229 55.6593C55.7759 55.6483 55.9249 55.6353 56.0729 55.6213C56.1759 55.6123 56.2769 55.6023 56.3769 55.5913C56.4269 55.5863 56.4749 55.5803 56.5229 55.5753C56.7829 55.5463 57.0359 55.5143 57.2749 55.4793C57.5899 55.4313 57.8819 55.3773 58.1559 55.3193C58.4299 55.2603 58.6799 55.1963 58.9069 55.1283H59.0359V55.4793V55.6863V56.6563C58.9179 56.7463 58.6539 56.9003 58.1439 57.0553C57.8299 57.1513 57.4219 57.2463 56.8939 57.3263C56.8899 57.3263 56.8859 57.3273 56.8829 57.3273C56.8129 57.3383 56.7399 57.3483 56.6659 57.3583C56.5529 57.3733 56.4339 57.3873 56.3109 57.4013C56.2439 57.4083 56.1789 57.4163 56.1089 57.4233C55.9609 57.4383 55.8039 57.4513 55.6419 57.4633C55.2639 57.4913 54.8469 57.5123 54.3859 57.5223L53.7719 57.2673C53.7439 57.3283 53.6919 57.4193 53.5929 57.5313C53.5929 57.5323 53.5919 57.5323 53.5919 57.5323C53.4729 57.6673 53.2839 57.8293 52.9989 57.9963C53.0009 57.9983 53.0039 57.9993 53.0069 58.0013Z" fill="#1895FF"/>
<path fill-rule="evenodd" clip-rule="evenodd" d="M53.0079 53.1927C53.1149 53.2617 53.2149 53.3327 53.3019 53.4087C53.3819 53.4777 53.4519 53.5497 53.5139 53.6247C53.5439 53.6607 53.5919 53.6927 53.6179 53.7297H53.7909L53.8029 53.9237C54.6449 53.9197 55.3759 53.8847 56.0119 53.8287C56.1269 53.8187 56.2419 53.8087 56.3509 53.7967C56.5259 53.7777 56.6949 53.7587 56.8539 53.7367C56.8819 53.7327 56.9119 53.7297 56.9389 53.7257C57.2069 53.6877 57.4479 53.6437 57.6739 53.5977C57.7329 53.5857 57.7879 53.5737 57.8439 53.5617C57.9519 53.5377 58.0579 53.5137 58.1559 53.4887C58.3069 53.4497 58.4479 53.4107 58.5769 53.3687C58.6339 53.3507 58.6869 53.3327 58.7399 53.3137C58.7609 53.3067 58.7819 53.2997 58.8019 53.2927C58.9429 53.2427 59.0729 53.1907 59.1879 53.1387C59.1919 53.1367 59.1959 53.1347 59.1999 53.1337C59.3279 53.0747 59.4359 53.0157 59.5339 52.9567C59.5689 52.9357 59.6019 52.9157 59.6329 52.8947C59.7949 52.7877 59.9149 52.6857 60.0009 52.5937C60.0569 52.5327 60.0979 52.4787 60.1289 52.4287C60.1539 52.3887 60.1749 52.3507 60.1889 52.3207L60.2039 51.3647L60.2129 50.8107L60.2199 50.3207L60.2309 49.6617V49.6137C60.2169 49.6127 60.2029 49.6117 60.1889 49.6107C60.1859 49.6097 60.1829 49.6097 60.1799 49.6097C59.9719 49.5907 59.7709 49.5697 59.5809 49.5457C59.0339 49.4787 58.5619 49.3937 58.1559 49.2977C57.7499 49.3937 57.2789 49.4787 56.7319 49.5457C56.5419 49.5697 56.3409 49.5907 56.1329 49.6097C56.1299 49.6097 56.1269 49.6107 56.1239 49.6107C56.1079 49.6117 56.0899 49.6137 56.0729 49.6147C55.9239 49.6287 55.7819 49.6437 55.6229 49.6547C55.0819 49.6917 54.4769 49.7117 53.8149 49.7147L53.8079 50.3207L53.8019 50.9187C54.4349 50.9147 55.0459 50.8917 55.6229 50.8507C55.7759 50.8397 55.9249 50.8267 56.0729 50.8127C56.1759 50.8037 56.2769 50.7937 56.3769 50.7827C56.4269 50.7777 56.4749 50.7717 56.5229 50.7667C56.7829 50.7377 57.0359 50.7057 57.2749 50.6707C57.5899 50.6227 57.8819 50.5687 58.1559 50.5107C58.4289 50.4517 58.6789 50.3887 58.9049 50.3197H59.0369V50.6707V50.8777V51.8477C58.9179 51.9367 58.6539 52.0917 58.1439 52.2467C57.8309 52.3427 57.4229 52.4377 56.8939 52.5177C56.8909 52.5187 56.8859 52.5187 56.8829 52.5197C56.8129 52.5297 56.7399 52.5397 56.6659 52.5497C56.5539 52.5647 56.4339 52.5787 56.3119 52.5927C56.2449 52.5997 56.1799 52.6077 56.1099 52.6147C55.9619 52.6297 55.8049 52.6427 55.6429 52.6547C55.2649 52.6827 54.8489 52.7037 54.3879 52.7147L53.7719 52.4577C53.7449 52.5197 53.6919 52.6107 53.5929 52.7227C53.5929 52.7237 53.5929 52.7237 53.5929 52.7237H53.5919C53.4729 52.8587 53.2839 53.0197 52.9989 53.1867C53.0019 53.1887 53.0049 53.1907 53.0079 53.1927Z" fill="#1895FF"/>
<path fill-rule="evenodd" clip-rule="evenodd" d="M53.0079 48.3842C53.1149 48.4532 53.2139 48.5242 53.3009 48.5992C53.3819 48.6692 53.4519 48.7412 53.5139 48.8162C53.5439 48.8522 53.5909 48.8832 53.6169 48.9212H53.7899L53.8019 49.1152C54.6439 49.1112 55.3749 49.0772 56.0109 49.0202C56.1249 49.0102 56.2409 49.0002 56.3489 48.9882C56.5239 48.9692 56.6929 48.9502 56.8519 48.9282C56.8799 48.9242 56.9099 48.9212 56.9379 48.9172C57.2059 48.8792 57.4469 48.8352 57.6729 48.7892C57.7319 48.7772 57.7879 48.7652 57.8439 48.7522C57.9509 48.7282 58.0569 48.7042 58.1549 48.6792C58.3059 48.6412 58.4469 48.6012 58.5769 48.5592C58.6339 48.5412 58.6859 48.5232 58.7389 48.5052C58.7589 48.4982 58.7809 48.4902 58.8009 48.4832C58.9419 48.4332 59.0729 48.3812 59.1869 48.3292C59.1899 48.3272 59.1939 48.3262 59.1979 48.3242C59.3269 48.2652 59.4349 48.2052 59.5339 48.1462C59.5679 48.1262 59.6009 48.1052 59.6319 48.0852C59.7939 47.9782 59.9139 47.8762 59.9989 47.7852C60.0549 47.7242 60.0959 47.6692 60.1269 47.6192C60.1529 47.5792 60.1739 47.5422 60.1869 47.5112L60.2019 46.5552L60.2109 46.0012L60.2189 45.5102L60.2289 44.8522L60.2299 44.8042C60.2149 44.8032 60.2009 44.8012 60.1859 44.8002C60.1839 44.7992 60.1809 44.7992 60.1779 44.7992C59.9699 44.7802 59.7679 44.7592 59.5789 44.7362C59.0319 44.6682 58.5599 44.5832 58.1549 44.4882C57.7489 44.5832 57.2779 44.6672 56.7319 44.7352C56.5419 44.7592 56.3399 44.7802 56.1309 44.7992C56.1279 44.7992 56.1259 44.7992 56.1229 44.8002C56.1059 44.8012 56.0889 44.8032 56.0719 44.8042C55.9229 44.8182 55.7799 44.8332 55.6209 44.8442C55.0809 44.8812 54.4749 44.9012 53.8129 44.9052L53.8069 45.5102L53.8009 46.1082C54.4329 46.1052 55.0449 46.0822 55.6209 46.0402C55.7749 46.0302 55.9239 46.0162 56.0709 46.0032C56.1749 45.9942 56.2749 45.9842 56.3759 45.9732C56.4249 45.9682 56.4729 45.9622 56.5219 45.9572C56.7819 45.9282 57.0349 45.8972 57.2739 45.8612C57.5879 45.8132 57.8809 45.7602 58.1539 45.7012H58.1549C58.4289 45.6432 58.6789 45.5792 58.9059 45.5102H59.0349V45.8612V46.0682V47.0382C58.9169 47.1282 58.6529 47.2832 58.1429 47.4392C57.8289 47.5342 57.4219 47.6292 56.8929 47.7092C56.8889 47.7102 56.8849 47.7102 56.8809 47.7112C56.8109 47.7212 56.7389 47.7312 56.6649 47.7412C56.5519 47.7562 56.4329 47.7702 56.3099 47.7842C56.2429 47.7912 56.1789 47.7992 56.1079 47.8062C55.9599 47.8212 55.8029 47.8342 55.6409 47.8462C55.2629 47.8742 54.8469 47.8952 54.3869 47.9062L53.7709 47.6492C53.7429 47.7112 53.6899 47.8022 53.5909 47.9152H53.5899C53.4719 48.0502 53.2829 48.2112 52.9969 48.3782C53.0009 48.3802 53.0049 48.3822 53.0079 48.3842Z" fill="#1895FF"/>
<path fill-rule="evenodd" clip-rule="evenodd" d="M53.0069 43.5746C53.1149 43.6436 53.2139 43.7146 53.3009 43.7906C53.3819 43.8596 53.4519 43.9316 53.5139 44.0066C53.5439 44.0426 53.5919 44.0736 53.6169 44.1116H53.7899L53.8019 44.3056C54.6449 44.3016 55.3749 44.2666 56.0109 44.2106C56.1259 44.2006 56.2419 44.1906 56.3509 44.1786C56.5259 44.1606 56.6949 44.1406 56.8539 44.1186C56.8809 44.1146 56.9119 44.1116 56.9389 44.1076C57.2069 44.0696 57.4479 44.0256 57.6739 43.9796C57.7319 43.9676 57.7879 43.9556 57.8439 43.9436C57.9519 43.9196 58.0569 43.8956 58.1559 43.8706C58.3059 43.8316 58.4469 43.7926 58.5769 43.7506C58.6339 43.7326 58.6869 43.7146 58.7409 43.6956C58.7599 43.6886 58.7819 43.6816 58.8019 43.6746C58.9419 43.6246 59.0729 43.5726 59.1879 43.5206C59.1909 43.5186 59.1959 43.5176 59.1989 43.5156C59.3279 43.4566 59.4359 43.3976 59.5349 43.3386C59.5689 43.3176 59.6019 43.2976 59.6329 43.2766C59.7949 43.1706 59.9149 43.0676 59.9999 42.9766C60.0559 42.9156 60.0969 42.8606 60.1289 42.8106C60.1539 42.7706 60.1749 42.7336 60.1879 42.7036L60.2029 41.7466L60.2119 41.1936L60.2199 40.7026L60.2299 40.0436L60.2309 39.9966C60.2159 39.9956 60.2019 39.9946 60.1879 39.9936C60.1849 39.9926 60.1819 39.9926 60.1789 39.9926C59.9709 39.9736 59.7699 39.9526 59.5809 39.9286C59.0329 39.8606 58.5619 39.7766 58.1559 39.6806C57.7499 39.7766 57.2779 39.8606 56.7309 39.9286C56.5419 39.9526 56.3399 39.9736 56.1319 39.9926C56.1289 39.9926 56.1269 39.9936 56.1239 39.9936C56.1069 39.9946 56.0889 39.9956 56.0719 39.9976C55.9229 40.0116 55.7809 40.0256 55.6219 40.0366C55.0809 40.0746 54.4759 40.0946 53.8139 40.0976L53.8079 40.7026L53.8009 41.3016C54.4339 41.2976 55.0459 41.2746 55.6219 41.2336C55.7749 41.2226 55.9239 41.2096 56.0719 41.1956C56.1749 41.1866 56.2759 41.1766 56.3759 41.1656C56.4259 41.1606 56.4739 41.1556 56.5219 41.1496C56.7819 41.1206 57.0349 41.0896 57.2739 41.0536C57.5889 41.0056 57.8819 40.9516 58.1549 40.8936C58.4289 40.8346 58.6789 40.7706 58.9059 40.7026H59.0359V41.0536V41.2606V42.2316C58.9169 42.3206 58.6529 42.4756 58.1429 42.6306C57.8299 42.7256 57.4219 42.8206 56.8929 42.9006C56.8899 42.9016 56.8859 42.9016 56.8819 42.9026C56.8119 42.9126 56.7389 42.9226 56.6649 42.9326C56.5519 42.9476 56.4329 42.9616 56.3099 42.9756C56.2429 42.9826 56.1789 42.9906 56.1079 42.9976C55.9599 43.0126 55.8029 43.0256 55.6409 43.0376C55.2629 43.0656 54.8469 43.0866 54.3849 43.0966L53.7709 42.8406C53.7429 42.9026 53.6899 42.9936 53.5919 43.1056C53.5909 43.1056 53.5909 43.1066 53.5909 43.1066C53.4719 43.2416 53.2829 43.4026 52.9979 43.5696C53.0009 43.5716 53.0039 43.5726 53.0069 43.5746Z" fill="#1895FF"/>
<path fill-rule="evenodd" clip-rule="evenodd" d="M60.1879 71.106L60.2029 70.15L60.2119 69.596L60.2189 69.106L60.2229 68.849C60.0739 68.836 59.9179 68.824 59.7789 68.808C59.7509 68.805 59.7269 68.801 59.6989 68.798C59.0989 68.727 58.5909 68.636 58.1549 68.534C57.7859 68.621 57.3599 68.698 56.8749 68.763C56.7949 68.773 56.7179 68.785 56.6349 68.794C56.6269 68.796 56.6199 68.796 56.6119 68.798C56.5809 68.801 56.5539 68.806 56.5229 68.809C56.3809 68.825 56.2239 68.837 56.0729 68.85C55.9239 68.864 55.7809 68.879 55.6219 68.89C55.0819 68.927 54.4759 68.947 53.8139 68.951L53.8129 69.105L53.8069 69.703C54.4379 69.699 55.0479 69.677 55.6229 69.635C55.7759 69.624 55.9249 69.611 56.0729 69.598C56.1759 69.588 56.2769 69.578 56.3769 69.568C56.4269 69.563 56.4749 69.557 56.5229 69.552C56.7829 69.523 57.0359 69.491 57.2749 69.455C57.5899 69.408 57.8819 69.354 58.1559 69.295C58.4289 69.237 58.6789 69.173 58.9049 69.105H59.0369V69.455V69.662V70.632C58.9179 70.721 58.6539 70.877 58.1439 71.032C57.8309 71.127 57.4229 71.222 56.8939 71.302C56.8209 71.313 56.7439 71.324 56.6659 71.334C56.5539 71.35 56.4339 71.364 56.3119 71.377C56.2449 71.385 56.1799 71.393 56.1099 71.4C55.9619 71.415 55.8049 71.427 55.6429 71.439C55.2649 71.467 54.8489 71.488 54.3879 71.499L53.7919 71.251L53.7889 71.507L53.7869 71.662C53.7519 71.751 53.6459 71.944 53.3689 72.171C53.2779 72.245 53.1679 72.323 53.0349 72.403C53.0229 72.41 53.0099 72.416 52.9989 72.423C53.1389 72.512 53.2589 72.607 53.3639 72.707C53.4539 72.708 53.5349 72.711 53.6269 72.711C54.9949 72.711 56.0789 72.633 56.9389 72.51C57.2769 72.462 57.5719 72.406 57.8439 72.346C57.9519 72.322 58.0579 72.298 58.1559 72.273C58.3739 72.217 58.5669 72.159 58.7399 72.098C58.9049 72.041 59.0569 71.983 59.1869 71.923C59.6029 71.733 59.8509 71.54 59.9999 71.379C60.1009 71.269 60.1579 71.173 60.1879 71.106Z" fill="#1895FF"/>
<path fill-rule="evenodd" clip-rule="evenodd" d="M53.3667 77.2313H53.2347C53.2087 77.2023 53.1727 77.1743 53.1397 77.1463C53.0967 77.1743 53.0487 77.2023 53.0007 77.2313C52.9817 77.2423 52.9607 77.2533 52.9407 77.2653C52.8037 77.3413 52.6517 77.4193 52.4687 77.4953C51.4757 77.9083 49.7497 78.2823 46.7547 78.2823C43.7597 78.2823 42.0337 77.9083 41.0407 77.4953C40.8577 77.4193 40.7057 77.3423 40.5687 77.2653C40.5487 77.2543 40.5277 77.2433 40.5087 77.2323C40.4597 77.2033 40.4117 77.1753 40.3687 77.1473C40.3357 77.1753 40.2997 77.2023 40.2737 77.2323H40.1417V77.5323V77.7753V79.8103V79.9033V80.1933L40.1927 80.4353C40.3577 80.8123 41.3187 82.0403 46.7537 82.0403C52.1907 82.0403 53.1507 80.8113 53.3157 80.4343L53.3577 77.7753L53.3607 77.5563C53.3617 77.5483 53.3667 77.5403 53.3667 77.5323C53.3667 77.5253 53.3617 77.5173 53.3617 77.5103L53.3667 77.2313ZM52.1637 78.4343V79.9613C51.8837 80.1723 50.8167 80.7503 47.5147 80.8283L42.2257 78.6243C43.4097 78.8773 44.9997 79.0343 46.7547 79.0343C48.9147 79.0343 50.8267 78.7973 52.0327 78.4343H52.1637Z" fill="#1895FF"/>
<path fill-rule="evenodd" clip-rule="evenodd" d="M53.3667 72.8731H53.2347C53.2297 72.8671 53.2217 72.8611 53.2167 72.8561C53.1677 72.8041 53.1057 72.7531 53.0337 72.7041C52.9577 72.6511 52.8667 72.6001 52.7667 72.5501C52.6947 72.5851 52.6177 72.6211 52.5357 72.6571C52.5107 72.6671 52.4877 72.6781 52.4607 72.6891C52.3527 72.7341 52.2347 72.7781 52.1077 72.8221C52.0577 72.8391 51.9997 72.8561 51.9467 72.8731C51.9407 72.8751 51.9337 72.8771 51.9277 72.8791C51.5927 72.9851 51.1947 73.0831 50.7307 73.1681C49.7477 73.3491 48.4627 73.4731 46.7537 73.4731C44.2367 73.4731 42.6237 73.2081 41.5807 72.8791C41.5747 72.8771 41.5677 72.8751 41.5617 72.8731C41.3417 72.8031 41.1447 72.7311 40.9737 72.6571C40.8917 72.6211 40.8137 72.5851 40.7427 72.5501C40.5367 72.6521 40.3747 72.7601 40.2737 72.8731H40.1417V73.1731V73.4171V75.4521V75.5451V75.8351L40.1927 76.0771C40.2467 76.2001 40.3897 76.4141 40.7407 76.6461C40.8147 76.6941 40.9007 76.7441 40.9947 76.7941C41.0617 76.8301 41.1317 76.8651 41.2097 76.9001C41.3927 76.9831 41.6067 77.0651 41.8587 77.1431C41.9577 77.1731 42.0687 77.2021 42.1797 77.2311C43.1567 77.4881 44.6007 77.6821 46.7537 77.6821C48.9077 77.6821 50.3507 77.4881 51.3277 77.2311C51.4387 77.2021 51.5497 77.1731 51.6487 77.1431C51.9017 77.0651 52.1157 76.9831 52.2987 76.9001C52.3767 76.8651 52.4457 76.8291 52.5127 76.7941C52.6077 76.7441 52.6927 76.6941 52.7677 76.6451C53.1187 76.4131 53.2617 76.1981 53.3157 76.0751L53.3577 73.4171L53.3597 73.3081L53.3607 73.1971C53.3617 73.1891 53.3667 73.1811 53.3667 73.1731C53.3667 73.1661 53.3617 73.1591 53.3617 73.1521L53.3667 72.8731ZM52.1637 74.0751V75.6021C52.0337 75.7011 51.7327 75.8781 51.1167 76.0481C50.8627 76.1181 50.5537 76.1861 50.1827 76.2471C50.1237 76.2571 50.0627 76.2661 50.0007 76.2761C49.3607 76.3721 48.5477 76.4451 47.5147 76.4701L46.4637 76.0321H46.4627L45.4727 75.6191L42.2237 74.2651C43.4077 74.5191 44.9987 74.6751 46.7537 74.6751C48.9147 74.6751 50.8267 74.4391 52.0327 74.0751H52.1637Z" fill="#1895FF"/>
<path fill-rule="evenodd" clip-rule="evenodd" d="M41.1815 72.0801C41.2985 72.1341 41.4335 72.1871 41.5785 72.2391C41.6495 72.2651 41.7245 72.2901 41.8035 72.3151C42.0605 72.397 42.3605 72.474 42.7055 72.544C43.6575 72.737 44.9575 72.873 46.7545 72.873C47.5025 72.873 48.1585 72.848 48.7475 72.807C49.3045 72.767 49.7935 72.713 50.2235 72.646C50.3985 72.619 50.5665 72.5911 50.7225 72.561C50.7505 72.556 50.7745 72.55 50.8015 72.544C51.1085 72.4821 51.3855 72.4151 51.6225 72.3431C51.6525 72.3341 51.6765 72.3241 51.7045 72.3151C51.7835 72.2901 51.8585 72.2651 51.9295 72.2391C51.9915 72.2171 52.0505 72.1941 52.1075 72.1711C52.1825 72.1411 52.2595 72.1111 52.3265 72.0801C52.7665 71.8771 53.0145 71.6711 53.1575 71.5051C53.2385 71.4101 53.2895 71.3271 53.3155 71.2671L53.3195 71.0561L53.3405 69.7031L53.3495 69.1061L53.3525 68.9501L53.3575 68.6071L53.3595 68.4991L53.3615 68.3881C53.3615 68.3801 53.3665 68.3721 53.3665 68.3641C53.3665 68.3591 53.3635 68.3541 53.3635 68.3501C53.3635 68.3471 53.3625 68.3451 53.3615 68.3431L53.3665 68.0631H53.2335C53.2285 68.0581 53.2225 68.0531 53.2175 68.0481C53.1745 68.0031 53.1245 67.9581 53.0645 67.9141C53.0595 67.9101 53.0525 67.9071 53.0475 67.9031C52.9675 67.8471 52.8715 67.7931 52.7655 67.7401C52.6935 67.7761 52.6165 67.8121 52.5345 67.8471C52.5225 67.8531 52.5135 67.8571 52.5025 67.8621C52.4695 67.8761 52.4325 67.8901 52.3985 67.9041C52.3045 67.9411 52.2085 67.9791 52.1015 68.0151C52.0535 68.0321 51.9985 68.0471 51.9475 68.0641C51.9415 68.0661 51.9335 68.0681 51.9265 68.0701C51.7205 68.1351 51.4895 68.1971 51.2355 68.2561C51.0795 68.2921 50.9145 68.3261 50.7395 68.3581C50.2965 68.4401 49.7875 68.5091 49.2075 68.5611C48.6875 68.6081 48.1075 68.6401 47.4635 68.6541C47.4155 68.6551 47.3665 68.6551 47.3185 68.6561C47.2165 68.6581 47.1175 68.6601 47.0125 68.6611C46.9235 68.6621 46.8445 68.6651 46.7535 68.6651C46.6865 68.6651 46.6285 68.6621 46.5625 68.6621C44.1585 68.6481 42.5955 68.3911 41.5805 68.0701C41.5735 68.0681 41.5655 68.0661 41.5595 68.0641C41.3395 67.9941 41.1435 67.9221 40.9725 67.8481C40.8905 67.8131 40.8145 67.7771 40.7415 67.7411C40.5365 67.8431 40.3745 67.9511 40.2735 68.0641H40.1405V68.3641V68.6081V70.6431V70.7351V71.0261L40.1915 71.2681C40.2655 71.4331 40.4915 71.7621 41.1815 72.0801ZM46.5635 69.8641C46.6275 69.8651 46.6895 69.8671 46.7545 69.8671C46.8415 69.8671 46.9265 69.8641 47.0135 69.8641C47.0825 69.8631 47.1515 69.8621 47.2205 69.8611C47.3015 69.8601 47.3835 69.8601 47.4635 69.8581C47.7195 69.8511 47.9695 69.8411 48.2155 69.8281C48.8495 69.7961 49.4485 69.7431 49.9995 69.6721C50.2675 69.6381 50.5225 69.5991 50.7665 69.5571C51.2455 69.4731 51.6725 69.3751 52.0355 69.2661H52.1645V69.6681V70.5751V70.7941C52.0055 70.9141 51.5895 71.1511 50.6645 71.3481C50.4695 71.3901 50.2535 71.4301 50.0105 71.4661C49.5105 71.5411 48.9045 71.6031 48.1685 71.6381C48.1575 71.6391 48.1475 71.6391 48.1365 71.6401C47.9615 71.6481 47.7755 71.6541 47.5845 71.6591C47.5605 71.6601 47.5395 71.6611 47.5145 71.6621L47.1295 71.5011L46.5625 71.2651L46.4725 71.2281L42.2235 69.4571C43.3645 69.7011 44.8835 69.8531 46.5635 69.8641Z" fill="#1895FF"/>
<path fill-rule="evenodd" clip-rule="evenodd" d="M41.1811 67.2705C41.2981 67.3245 41.4331 67.3775 41.5791 67.4295C41.6501 67.4555 41.7251 67.4815 41.8031 67.5055C42.0611 67.5875 42.3611 67.6645 42.7061 67.7345C43.6221 67.9205 44.8681 68.0505 46.5631 68.0595C46.6281 68.0605 46.6871 68.0625 46.7541 68.0625C46.8451 68.0625 46.9251 68.0595 47.0131 68.0595C47.0241 68.0595 47.0341 68.0585 47.0451 68.0585C47.1331 68.0585 47.2181 68.0565 47.3041 68.0545C47.4211 68.0525 47.5451 68.0525 47.6571 68.0505C47.8441 68.0445 48.0171 68.0365 48.1931 68.0275C48.4021 68.0175 48.6061 68.0065 48.7991 67.9925C48.9551 67.9815 49.1101 67.9695 49.2561 67.9555C49.4231 67.9405 49.5791 67.9215 49.7321 67.9035C49.9071 67.8815 50.0761 67.8595 50.2341 67.8345C50.4361 67.8035 50.6261 67.7705 50.8021 67.7345C50.8881 67.7165 50.9731 67.6985 51.0521 67.6805C51.2941 67.6255 51.5111 67.5665 51.7051 67.5055C51.7831 67.4795 51.8581 67.4545 51.9291 67.4295C52.0741 67.3765 52.2101 67.3235 52.3271 67.2695C52.3891 67.2415 52.4411 67.2125 52.4961 67.1845C52.5291 67.1675 52.5671 67.1495 52.5971 67.1325C52.8671 66.9805 53.0371 66.8335 53.1481 66.7065L53.1491 66.7055C53.1661 66.6855 53.1851 66.6655 53.1991 66.6475C53.2571 66.5725 53.2941 66.5075 53.3161 66.4575L53.3191 66.2575L53.3331 65.3445L53.3431 64.7475L53.3521 64.1405L53.3581 63.7985L53.3601 63.6905L53.3611 63.5785C53.3621 63.5705 53.3671 63.5625 53.3671 63.5545C53.3671 63.5515 53.3651 63.5485 53.3651 63.5455C53.3651 63.5435 53.3641 63.5425 53.3641 63.5415C53.3641 63.5385 53.3621 63.5365 53.3621 63.5335L53.3671 63.2545H53.2341C53.2301 63.2495 53.2231 63.2445 53.2181 63.2395C53.1751 63.1935 53.1251 63.1495 53.0651 63.1055C52.9821 63.0455 52.8791 62.9875 52.7651 62.9315C52.6941 62.9675 52.6171 63.0025 52.5351 63.0385C52.5231 63.0435 52.5141 63.0485 52.5021 63.0535C52.3801 63.1045 52.2461 63.1565 52.1011 63.2055C52.0521 63.2225 51.9971 63.2385 51.9461 63.2545C51.9401 63.2565 51.9331 63.2585 51.9271 63.2605C51.7201 63.3255 51.4881 63.3885 51.2331 63.4465C51.0831 63.4815 50.9231 63.5135 50.7551 63.5455C50.7501 63.5465 50.7441 63.5465 50.7391 63.5485C50.2951 63.6305 49.7861 63.6985 49.2051 63.7515C48.7951 63.7885 48.3591 63.8185 47.8731 63.8355C47.6511 63.8425 47.4101 63.8455 47.1711 63.8485C47.1181 63.8485 47.0681 63.8505 47.0141 63.8505H47.0131C46.9241 63.8515 46.8451 63.8545 46.7541 63.8545C46.6871 63.8545 46.6291 63.8515 46.5631 63.8515C44.1601 63.8375 42.5961 63.5805 41.5811 63.2605C41.5751 63.2585 41.5681 63.2565 41.5621 63.2545C41.3421 63.1845 41.1451 63.1125 40.9741 63.0385C40.8921 63.0025 40.8141 62.9665 40.7431 62.9315C40.5371 63.0335 40.3751 63.1415 40.2741 63.2545H40.1411V63.5555V63.7985V65.8345V65.9265V66.2175L40.1921 66.4595C40.2651 66.6245 40.4911 66.9535 41.1811 67.2705ZM46.5631 65.0555C46.6271 65.0555 46.6901 65.0575 46.7541 65.0575C46.8421 65.0575 46.9271 65.0555 47.0131 65.0545C47.1331 65.0535 47.2531 65.0535 47.3711 65.0505C47.4021 65.0505 47.4331 65.0495 47.4641 65.0495C47.7191 65.0425 47.9691 65.0325 48.2161 65.0205C48.5331 65.0035 48.8401 64.9825 49.1381 64.9555C49.1481 64.9545 49.1581 64.9545 49.1681 64.9535C49.7461 64.9015 50.2821 64.8315 50.7671 64.7475C51.2451 64.6645 51.6711 64.5665 52.0341 64.4575H52.1641V64.7475V65.3095V65.9855C52.1161 66.0215 52.0411 66.0695 51.9391 66.1225C51.7951 66.1985 51.5901 66.2865 51.3021 66.3755C50.9831 66.4745 50.5611 66.5735 50.0111 66.6565C49.8021 66.6885 49.5751 66.7165 49.3281 66.7425C49.2551 66.7505 49.1811 66.7575 49.1041 66.7645C48.7001 66.8015 48.2431 66.8285 47.7341 66.8445C47.6601 66.8475 47.5901 66.8505 47.5131 66.8525L47.4641 66.8315L47.0441 66.6565L47.0131 66.6435L46.5631 66.4555L46.4711 66.4175L42.2241 64.6485C43.3641 64.8915 44.8841 65.0445 46.5631 65.0555Z" fill="#1895FF"/>
<path fill-rule="evenodd" clip-rule="evenodd" d="M41.1815 62.4619C41.2985 62.5159 41.4335 62.5689 41.5785 62.6209C41.6505 62.6469 41.7245 62.6729 41.8035 62.6969C42.0615 62.7789 42.3615 62.8559 42.7065 62.9259C43.6585 63.1189 44.9575 63.2549 46.7535 63.2549C46.8915 63.2549 47.0145 63.2509 47.1465 63.2489C47.2885 63.2479 47.4325 63.2459 47.5685 63.2429C47.5965 63.2419 47.6285 63.2429 47.6565 63.2419C47.7945 63.2379 47.9215 63.2309 48.0535 63.2259C48.3135 63.2149 48.5635 63.2009 48.7985 63.1839C48.9555 63.1729 49.1095 63.1609 49.2545 63.1469C49.6125 63.1139 49.9355 63.0719 50.2325 63.0269C50.4345 62.9949 50.6245 62.9619 50.8005 62.9259C50.8875 62.9079 50.9715 62.8899 51.0525 62.8719C51.2935 62.8169 51.5105 62.7579 51.7035 62.6969C51.7825 62.6709 51.8575 62.6459 51.9285 62.6209C52.0735 62.5679 52.2085 62.5149 52.3255 62.4609C52.3915 62.4309 52.4465 62.4009 52.5035 62.3709C52.5075 62.3689 52.5115 62.3669 52.5155 62.3649C52.5415 62.3519 52.5715 62.3379 52.5955 62.3239C52.8605 62.1749 53.0305 62.0289 53.1425 61.9039C53.1625 61.8809 53.1815 61.8589 53.1985 61.8379C53.2565 61.7629 53.2935 61.6979 53.3155 61.6479L53.3325 60.5349L53.3425 59.9369L53.3515 59.3319L53.3575 58.9889L53.3595 58.8809L53.3605 58.7699C53.3615 58.7619 53.3665 58.7539 53.3665 58.7459C53.3665 58.7419 53.3635 58.7389 53.3635 58.7359C53.3635 58.7339 53.3635 58.7329 53.3635 58.7319C53.3635 58.7289 53.3615 58.7279 53.3615 58.7249L53.3655 58.4459H53.2335C53.2295 58.4409 53.2225 58.4359 53.2175 58.4309C53.1745 58.3849 53.1255 58.3399 53.0645 58.2959C52.9825 58.2369 52.8785 58.1789 52.7655 58.1229C52.6935 58.1589 52.6165 58.1939 52.5345 58.2299C52.5235 58.2349 52.5145 58.2399 52.5025 58.2439C52.3805 58.2959 52.2465 58.3479 52.1005 58.3979C52.0525 58.4149 51.9975 58.4299 51.9465 58.4459C51.9395 58.4479 51.9335 58.4499 51.9265 58.4519C51.7205 58.5169 51.4905 58.5789 51.2365 58.6379C51.0865 58.6719 50.9285 58.7049 50.7615 58.7359C50.7545 58.7369 50.7465 58.7379 50.7395 58.7399C50.2965 58.8219 49.7875 58.8909 49.2065 58.9429C48.7965 58.9799 48.3595 59.0099 47.8735 59.0269C47.6515 59.0349 47.4095 59.0369 47.1705 59.0399C47.1185 59.0409 47.0685 59.0419 47.0145 59.0419H47.0135C46.9245 59.0429 46.8455 59.0459 46.7545 59.0459C46.6875 59.0459 46.6295 59.0439 46.5635 59.0429C44.1595 59.0299 42.5965 58.7729 41.5815 58.4519C41.5755 58.4499 41.5685 58.4479 41.5615 58.4459C41.3415 58.3759 41.1445 58.3039 40.9735 58.2299C40.8915 58.1939 40.8145 58.1589 40.7425 58.1229C40.5365 58.2249 40.3755 58.3329 40.2745 58.4459H40.1425V58.7459V58.9899V61.0249V61.1179V61.4079L40.1925 61.6499C40.2655 61.8149 40.4915 62.1439 41.1815 62.4619ZM46.5635 60.2469C46.6275 60.2469 46.6895 60.2489 46.7545 60.2489C46.8415 60.2489 46.9265 60.2469 47.0135 60.2459C47.1335 60.2449 47.2535 60.2439 47.3715 60.2419C47.4025 60.2409 47.4325 60.2409 47.4635 60.2399C47.7195 60.2339 47.9695 60.2239 48.2155 60.2109C48.5325 60.1949 48.8395 60.1729 49.1385 60.1469C49.1485 60.1459 49.1585 60.1449 49.1685 60.1439C49.7475 60.0929 50.2845 60.0229 50.7705 59.9379C51.2475 59.8549 51.6715 59.7579 52.0335 59.6489H52.1645V59.9379V60.5009V61.1759C52.1165 61.2119 52.0415 61.2599 51.9395 61.3139C51.6355 61.4739 51.0565 61.6899 50.0105 61.8479C49.8025 61.8789 49.5745 61.9079 49.3275 61.9329C48.8695 61.9809 48.3405 62.0169 47.7345 62.0359C47.6605 62.0379 47.5905 62.0409 47.5145 62.0429L47.4645 62.0219L47.0445 61.8469L47.0135 61.8339L46.5635 61.6459L46.4725 61.6079L42.2235 59.8389C43.3635 60.0829 44.8835 60.2359 46.5635 60.2469Z" fill="#1895FF"/>
<path fill-rule="evenodd" clip-rule="evenodd" d="M41.1815 57.6528C41.2985 57.7068 41.4335 57.7598 41.5785 57.8118C41.6495 57.8378 41.7245 57.8628 41.8035 57.8878C42.0605 57.9698 42.3615 58.0468 42.7065 58.1168C43.6575 58.3098 44.9575 58.4458 46.7545 58.4458C46.8915 58.4458 47.0135 58.4418 47.1455 58.4398C47.2875 58.4388 47.4325 58.4378 47.5685 58.4338C47.5975 58.4338 47.6295 58.4338 47.6585 58.4328C47.7965 58.4288 47.9225 58.4218 48.0535 58.4168C48.3145 58.4058 48.5645 58.3918 48.8005 58.3748C48.9575 58.3638 49.1125 58.3518 49.2585 58.3388C49.6145 58.3048 49.9375 58.2638 50.2335 58.2178C50.4355 58.1858 50.6255 58.1528 50.8025 58.1168C50.8885 58.0988 50.9735 58.0808 51.0545 58.0628C51.2955 58.0078 51.5125 57.9488 51.7055 57.8878C51.7845 57.8628 51.8585 57.8368 51.9295 57.8118C52.0755 57.7598 52.2095 57.7058 52.3265 57.6518C52.3925 57.6218 52.4485 57.5918 52.5055 57.5618C52.5095 57.5598 52.5135 57.5578 52.5175 57.5558C52.5435 57.5418 52.5745 57.5278 52.5985 57.5148C52.8635 57.3648 53.0325 57.2188 53.1445 57.0938C53.1635 57.0718 53.1835 57.0498 53.1995 57.0288C53.2575 56.9548 53.2945 56.8888 53.3165 56.8388L53.3345 55.7258L53.3435 55.1288L53.3535 54.5218L53.3585 54.1799L53.3605 54.0719L53.3625 53.9609C53.3625 53.9529 53.3675 53.9449 53.3675 53.9369C53.3675 53.9329 53.3655 53.9299 53.3655 53.9259C53.3655 53.9249 53.3645 53.9239 53.3635 53.9229C53.3635 53.9209 53.3625 53.9179 53.3625 53.9159L53.3665 53.6359H53.2345C53.2295 53.6309 53.2225 53.6259 53.2175 53.6209C53.1745 53.5759 53.1255 53.5309 53.0655 53.4869C52.9825 53.4269 52.8795 53.3699 52.7655 53.3129C52.6945 53.3489 52.6175 53.3849 52.5355 53.4199C52.5235 53.4249 52.5145 53.4299 52.5035 53.4349C52.3815 53.4869 52.2475 53.5379 52.1025 53.5879C52.0545 53.6039 51.9995 53.6199 51.9495 53.6359C51.9425 53.6379 51.9345 53.6409 51.9275 53.6429C51.7215 53.7079 51.4905 53.7699 51.2365 53.8289C51.0865 53.8629 50.9275 53.8959 50.7605 53.9269C50.7545 53.9279 50.7475 53.9289 50.7405 53.9309C50.2975 54.0129 49.7885 54.0819 49.2085 54.1339C48.7975 54.1709 48.3605 54.2009 47.8725 54.2179C47.6505 54.2259 47.4095 54.2279 47.1705 54.2309C47.1185 54.2319 47.0685 54.2329 47.0145 54.2329H47.0135C46.9245 54.2339 46.8455 54.2379 46.7545 54.2379C46.6865 54.2379 46.6285 54.2349 46.5625 54.2339C44.1595 54.2209 42.5955 53.9629 41.5815 53.6429C41.5745 53.6409 41.5665 53.6379 41.5595 53.6359C41.3405 53.5669 41.1435 53.4939 40.9735 53.4209C40.8915 53.3849 40.8145 53.3489 40.7425 53.3139C40.5365 53.4159 40.3755 53.5239 40.2745 53.6359H40.1415V53.9369V54.1809V56.2158V56.3088V56.5988L40.1925 56.8408C40.2655 57.0058 40.4915 57.3348 41.1815 57.6528ZM46.5635 55.4378C46.6275 55.4378 46.6895 55.4398 46.7545 55.4398C46.8415 55.4398 46.9265 55.4378 47.0135 55.4368C47.1335 55.4358 47.2535 55.4348 47.3715 55.4328C47.4025 55.4318 47.4325 55.4318 47.4635 55.4308C47.7195 55.4248 47.9695 55.4148 48.2155 55.4018C48.5325 55.3858 48.8395 55.3638 49.1375 55.3378C49.1475 55.3368 49.1585 55.3358 49.1685 55.3348C49.7465 55.2838 50.2835 55.2138 50.7685 55.1298C51.2475 55.0458 51.6725 54.9488 52.0355 54.8388H52.1645V55.1298V55.6918V56.3678C52.1155 56.4038 52.0415 56.4518 51.9395 56.5048C51.6355 56.6648 51.0565 56.8818 50.0105 57.0398C49.8025 57.0708 49.5755 57.0988 49.3285 57.1248C48.8705 57.1728 48.3415 57.2088 47.7345 57.2278C47.6615 57.2298 47.5915 57.2328 47.5155 57.2348L47.4645 57.2138L47.0445 57.0388L47.0135 57.0258L46.5635 56.8378L46.4735 56.8008L42.2245 55.0298C43.3645 55.2738 44.8835 55.4268 46.5635 55.4378Z" fill="#1895FF"/>
<path fill-rule="evenodd" clip-rule="evenodd" d="M41.1811 52.8437C41.2981 52.8977 41.4331 52.9507 41.5791 53.0027C41.6501 53.0287 41.7251 53.0537 41.8031 53.0787C42.0611 53.1607 42.3611 53.2377 42.7061 53.3077C43.6581 53.5007 44.9581 53.6367 46.7541 53.6367C46.8921 53.6367 47.0151 53.6327 47.1471 53.6307C47.2891 53.6287 47.4341 53.6277 47.5701 53.6247C47.5981 53.6237 47.6291 53.6247 47.6571 53.6237C47.7961 53.6197 47.9231 53.6127 48.0551 53.6067C48.3141 53.5967 48.5641 53.5827 48.7991 53.5657C48.9551 53.5547 49.1101 53.5427 49.2561 53.5297C49.6131 53.4957 49.9361 53.4547 50.2341 53.4087C50.4361 53.3767 50.6251 53.3437 50.8021 53.3077C50.8881 53.2907 50.9721 53.2727 51.0521 53.2537C51.2941 53.1987 51.5111 53.1407 51.7051 53.0787C51.7831 53.0537 51.8581 53.0287 51.9291 53.0027C52.0741 52.9507 52.2101 52.8977 52.3271 52.8437C52.3921 52.8137 52.4481 52.7837 52.5051 52.7527C52.5091 52.7507 52.5131 52.7487 52.5171 52.7467C52.5431 52.7337 52.5731 52.7197 52.5971 52.7057C52.8631 52.5557 53.0321 52.4107 53.1431 52.2857C53.1631 52.2627 53.1821 52.2408 53.1991 52.2208C53.2561 52.1458 53.2941 52.0808 53.3151 52.0308L53.3331 50.9178L53.3431 50.3208L53.3521 49.7138L53.3581 49.3718L53.3591 49.2638L53.3611 49.1518C53.3621 49.1438 53.3661 49.1358 53.3661 49.1278C53.3661 49.1248 53.3641 49.1218 53.3641 49.1188C53.3641 49.1168 53.3641 49.1158 53.3641 49.1148C53.3641 49.1118 53.3621 49.1098 53.3621 49.1078L53.3661 48.8278H53.2341C53.2291 48.8228 53.2231 48.8178 53.2181 48.8128C53.1751 48.7668 53.1251 48.7228 53.0651 48.6788C52.9821 48.6188 52.8791 48.5618 52.7651 48.5048C52.6941 48.5408 52.6171 48.5758 52.5351 48.6118C52.5231 48.6168 52.5141 48.6218 52.5021 48.6268C52.3801 48.6788 52.2461 48.7298 52.1011 48.7798C52.0521 48.7958 51.9971 48.8118 51.9461 48.8278C51.9401 48.8298 51.9331 48.8318 51.9271 48.8338C51.7201 48.8998 51.4881 48.9618 51.2331 49.0208C51.0831 49.0548 50.9231 49.0868 50.7551 49.1188C50.7501 49.1198 50.7441 49.1208 50.7391 49.1218C50.2951 49.2038 49.7861 49.2728 49.2061 49.3248C48.7961 49.3618 48.3601 49.3918 47.8741 49.4088C47.6521 49.4168 47.4101 49.4188 47.1711 49.4218C47.1181 49.4228 47.0691 49.4238 47.0151 49.4248H47.0131C46.9251 49.4248 46.8451 49.4288 46.7541 49.4288C46.6871 49.4288 46.6291 49.4258 46.5631 49.4248C44.1601 49.4118 42.5971 49.1548 41.5821 48.8338C41.5751 48.8318 41.5681 48.8298 41.5621 48.8278C41.3421 48.7588 41.1451 48.6858 40.9741 48.6118C40.8921 48.5768 40.8151 48.5408 40.7431 48.5048C40.5371 48.6078 40.3751 48.7158 40.2751 48.8288H40.1421V49.1288V49.3728V51.4078V51.4998V51.7908L40.1931 52.0328C40.2651 52.1978 40.4911 52.5267 41.1811 52.8437ZM46.5631 50.6288C46.6271 50.6288 46.6901 50.6308 46.7541 50.6308C46.8421 50.6308 46.9271 50.6288 47.0131 50.6278C47.1331 50.6268 47.2531 50.6258 47.3711 50.6238C47.4021 50.6228 47.4331 50.6228 47.4641 50.6218C47.7191 50.6158 47.9691 50.6058 48.2161 50.5928C48.5331 50.5768 48.8401 50.5548 49.1381 50.5288C49.1481 50.5278 49.1581 50.5268 49.1691 50.5258C49.7461 50.4748 50.2821 50.4048 50.7661 50.3208C51.2451 50.2368 51.6711 50.1398 52.0341 50.0298H52.1641V50.3208V50.8828V51.5588C52.1161 51.5948 52.0411 51.6428 51.9391 51.6958C51.6351 51.8558 51.0571 52.0728 50.0111 52.2297C49.8021 52.2617 49.5751 52.2897 49.3281 52.3157C48.8701 52.3627 48.3401 52.3987 47.7341 52.4177C47.6601 52.4197 47.5901 52.4227 47.5131 52.4247L47.4641 52.4047L47.0441 52.2297L47.0131 52.2167L46.5631 52.0288L46.4711 51.9908L42.2241 50.2208C43.3641 50.4648 44.8841 50.6178 46.5631 50.6288Z" fill="#1895FF"/>
<path fill-rule="evenodd" clip-rule="evenodd" d="M41.1815 48.0347C41.2985 48.0887 41.4335 48.1417 41.5785 48.1937C41.6505 48.2197 41.7245 48.2457 41.8035 48.2697C42.0615 48.3517 42.3615 48.4287 42.7065 48.4987C43.6585 48.6917 44.9585 48.8277 46.7545 48.8277C46.8915 48.8277 47.0145 48.8237 47.1465 48.8217C47.2885 48.8207 47.4335 48.8197 47.5695 48.8157C47.5975 48.8157 47.6285 48.8157 47.6565 48.8147C47.7955 48.8107 47.9215 48.8037 48.0535 48.7987C48.3145 48.7877 48.5645 48.7737 48.7995 48.7567C48.9555 48.7457 49.1105 48.7337 49.2555 48.7197C49.6125 48.6867 49.9355 48.6447 50.2335 48.5997C50.4355 48.5677 50.6245 48.5347 50.8015 48.4987C50.8875 48.4807 50.9725 48.4627 51.0525 48.4447C51.2945 48.3897 51.5115 48.3307 51.7045 48.2697C51.7835 48.2437 51.8575 48.2187 51.9295 48.1937C52.0745 48.1407 52.2095 48.0877 52.3265 48.0337C52.3915 48.0037 52.4475 47.9737 52.5045 47.9437C52.5085 47.9417 52.5125 47.9397 52.5165 47.9377C52.5425 47.9237 52.5715 47.9097 52.5955 47.8967C52.8615 47.7477 53.0305 47.6017 53.1425 47.4767C53.1625 47.4537 53.1825 47.4317 53.1985 47.4107C53.2565 47.3357 53.2945 47.2707 53.3155 47.2207L53.3335 46.1077L53.3425 45.5097L53.3525 44.9037L53.3575 44.5617L53.3595 44.4537L53.3615 44.3417C53.3625 44.3337 53.3665 44.3257 53.3665 44.3177C53.3665 44.3147 53.3645 44.3117 53.3645 44.3077C53.3645 44.3067 53.3635 44.3057 53.3635 44.3037C53.3635 44.3017 53.3625 44.2997 53.3625 44.2967L53.3665 44.0167H53.2335C53.2295 44.0117 53.2225 44.0067 53.2175 44.0017C53.1745 43.9567 53.1255 43.9117 53.0645 43.8677C52.9825 43.8087 52.8795 43.7507 52.7665 43.6947C52.6945 43.7307 52.6175 43.7657 52.5355 43.8017C52.5235 43.8067 52.5145 43.8117 52.5035 43.8167C52.3825 43.8677 52.2485 43.9187 52.1035 43.9687C52.0555 43.9847 52.0005 44.0007 51.9495 44.0167C51.9425 44.0197 51.9345 44.0217 51.9275 44.0237C51.7215 44.0887 51.4905 44.1517 51.2365 44.2097C51.0875 44.2437 50.9285 44.2767 50.7615 44.3077C50.7545 44.3087 50.7475 44.3107 50.7405 44.3117C50.2975 44.3937 49.7895 44.4617 49.2095 44.5147C48.7985 44.5507 48.3605 44.5817 47.8735 44.5987C47.6515 44.6067 47.4105 44.6087 47.1715 44.6117C47.1185 44.6127 47.0685 44.6137 47.0155 44.6137H47.0145C46.9255 44.6147 46.8455 44.6177 46.7545 44.6177C46.6875 44.6177 46.6295 44.6157 46.5635 44.6157C44.1595 44.6017 42.5965 44.3447 41.5815 44.0237C41.5745 44.0217 41.5665 44.0187 41.5595 44.0167C41.3405 43.9467 41.1435 43.8747 40.9735 43.8017C40.8915 43.7657 40.8145 43.7307 40.7425 43.6947C40.5375 43.7967 40.3755 43.9047 40.2755 44.0167H40.1425V44.3177V44.5617V46.5977V46.6897V46.9797L40.1925 47.2217C40.2655 47.3877 40.4915 47.7167 41.1815 48.0347ZM46.5635 45.8197C46.6275 45.8197 46.6895 45.8217 46.7545 45.8217C46.8415 45.8217 46.9265 45.8197 47.0135 45.8187C47.1335 45.8177 47.2535 45.8167 47.3715 45.8147C47.4025 45.8137 47.4325 45.8137 47.4635 45.8127C47.7195 45.8067 47.9695 45.7967 48.2155 45.7837C48.5325 45.7677 48.8395 45.7457 49.1375 45.7197C49.1475 45.7187 49.1585 45.7177 49.1685 45.7167C49.7465 45.6657 50.2845 45.5957 50.7705 45.5107C51.2485 45.4277 51.6735 45.3297 52.0355 45.2207H52.1645V45.5107V46.0737V46.7487C52.1155 46.7857 52.0405 46.8337 51.9395 46.8867C51.6345 47.0467 51.0565 47.2637 50.0105 47.4217C49.8025 47.4527 49.5745 47.4817 49.3275 47.5067C48.8695 47.5547 48.3405 47.5907 47.7345 47.6087C47.6605 47.6117 47.5905 47.6147 47.5145 47.6167L47.4645 47.5957L47.0445 47.4207L47.0135 47.4077L46.5635 47.2197L46.4725 47.1817L42.2245 45.4117C43.3645 45.6557 44.8835 45.8087 46.5635 45.8197Z" fill="#1895FF"/>
<path fill-rule="evenodd" clip-rule="evenodd" d="M41.1815 43.2256C41.2985 43.2796 41.4335 43.3326 41.5785 43.3846C41.6495 43.4106 41.7245 43.4356 41.8025 43.4606C42.0605 43.5426 42.3605 43.6196 42.7055 43.6896C43.6445 43.8806 44.9255 44.0136 46.6835 44.0176C46.7075 44.0176 46.7295 44.0186 46.7535 44.0186C46.7785 44.0186 46.7995 44.0176 46.8245 44.0176C46.9355 44.0176 47.0365 44.0146 47.1455 44.0126C47.2875 44.0116 47.4315 44.0106 47.5675 44.0066C47.5965 44.0056 47.6295 44.0056 47.6585 44.0056C47.7955 44.0016 47.9215 43.9946 48.0525 43.9896C48.3135 43.9786 48.5645 43.9646 48.8005 43.9476C48.9575 43.9366 49.1125 43.9246 49.2585 43.9106C49.6155 43.8776 49.9385 43.8356 50.2365 43.7896C50.4375 43.7586 50.6255 43.7256 50.8015 43.6896C50.8885 43.6716 50.9735 43.6546 51.0545 43.6356C51.2955 43.5806 51.5125 43.5216 51.7055 43.4606C51.7835 43.4356 51.8585 43.4106 51.9295 43.3846C52.0745 43.3326 52.2095 43.2796 52.3265 43.2256C52.3925 43.1956 52.4475 43.1646 52.5055 43.1346C52.5095 43.1326 52.5135 43.1306 52.5175 43.1286C52.5435 43.1146 52.5735 43.1006 52.5975 43.0876C52.8635 42.9376 53.0325 42.7916 53.1435 42.6666C53.1635 42.6446 53.1825 42.6226 53.1995 42.6016C53.2565 42.5276 53.2945 42.4626 53.3165 42.4126L53.3335 41.2986L53.3435 40.7016L53.3535 40.0956L53.3585 39.7526L53.3605 39.6456L53.3615 39.5336C53.3625 39.5256 53.3675 39.5176 53.3675 39.5096C53.3675 39.5066 53.3655 39.5036 53.3645 39.4996C53.3645 39.4986 53.3635 39.4976 53.3635 39.4976C53.3635 39.4936 53.3625 39.4916 53.3625 39.4886L53.3665 39.2096H53.2345C53.2295 39.2046 53.2225 39.1986 53.2175 39.1936C53.1745 39.1486 53.1255 39.1036 53.0655 39.0596C52.9825 39.0006 52.8795 38.9426 52.7655 38.8866C52.6935 38.9226 52.6165 38.9576 52.5345 38.9936C52.5225 38.9976 52.5135 39.0026 52.5025 39.0076C52.3805 39.0596 52.2465 39.1106 52.1005 39.1606C52.0525 39.1776 51.9975 39.1926 51.9465 39.2096C51.9405 39.2116 51.9335 39.2136 51.9265 39.2156C51.7195 39.2806 51.4885 39.3426 51.2335 39.4016C51.0835 39.4356 50.9235 39.4686 50.7555 39.4996C50.7505 39.5006 50.7445 39.5016 50.7385 39.5036C50.2945 39.5856 49.7865 39.6536 49.2055 39.7056C48.7965 39.7426 48.3595 39.7726 47.8745 39.7896C47.6515 39.7976 47.4105 39.7996 47.1715 39.8026C47.1185 39.8036 47.0685 39.8046 47.0145 39.8056H47.0135C46.9245 39.8056 46.8455 39.8096 46.7545 39.8096C46.6865 39.8096 46.6285 39.8066 46.5625 39.8066C44.1595 39.7926 42.5965 39.5356 41.5815 39.2156C41.5755 39.2136 41.5685 39.2116 41.5615 39.2096C41.3415 39.1396 41.1445 39.0666 40.9735 38.9936C40.8915 38.9576 40.8145 38.9216 40.7425 38.8866C40.5375 38.9886 40.3755 39.0966 40.2745 39.2096H40.1415V39.5096V39.7536V41.7886V41.8816V42.1716L40.1925 42.4136C40.2655 42.5786 40.4915 42.9076 41.1815 43.2256ZM46.5635 41.0097C46.6275 41.0107 46.6895 41.0127 46.7545 41.0127C46.8415 41.0127 46.9265 41.0097 47.0135 41.0097C47.1335 41.0087 47.2535 41.0077 47.3715 41.0057C47.4025 41.0047 47.4325 41.0047 47.4635 41.0037C47.7195 40.9977 47.9695 40.9877 48.2155 40.9747C48.5325 40.9577 48.8395 40.9367 49.1385 40.9107C49.1485 40.9097 49.1585 40.9087 49.1685 40.9077C49.7465 40.8557 50.2825 40.7867 50.7685 40.7017C51.2465 40.6187 51.6725 40.5207 52.0345 40.4117H52.1645V40.7017V41.2647V41.9397C52.1165 41.9767 52.0415 42.0237 51.9395 42.0777C51.6355 42.2377 51.0575 42.4547 50.0105 42.6117C49.8025 42.6437 49.5755 42.6717 49.3285 42.6977C48.8705 42.7457 48.3415 42.7817 47.7345 42.8007C47.6615 42.8027 47.5915 42.8057 47.5155 42.8077L47.4645 42.7857L47.0445 42.6117L47.0135 42.5987L46.5635 42.4107L46.4735 42.3737L42.2235 40.6027C43.3635 40.8467 44.8835 40.9997 46.5635 41.0097Z" fill="#1895FF"/>
<path fill-rule="evenodd" clip-rule="evenodd" d="M41.1818 38.416C41.2988 38.47 41.4338 38.523 41.5798 38.575C41.6508 38.601 41.7258 38.626 41.8038 38.651C42.0618 38.733 42.3618 38.81 42.7068 38.88C43.6588 39.073 44.9588 39.209 46.7548 39.209C46.8918 39.209 47.0148 39.205 47.1468 39.203C47.2898 39.202 47.4338 39.201 47.5698 39.197C47.5978 39.197 47.6298 39.197 47.6568 39.196C47.7958 39.192 47.9228 39.185 48.0548 39.18C48.3148 39.169 48.5638 39.155 48.7988 39.139C48.9558 39.127 49.1108 39.116 49.2568 39.102C49.6138 39.068 49.9368 39.027 50.2338 38.981C50.4358 38.95 50.6258 38.916 50.8018 38.88C50.8878 38.863 50.9728 38.845 51.0528 38.827C51.2938 38.772 51.5118 38.713 51.7048 38.651C51.7838 38.626 51.8578 38.601 51.9288 38.575C52.0748 38.523 52.2098 38.47 52.3268 38.416C52.3918 38.386 52.4478 38.356 52.5048 38.326C52.5088 38.324 52.5128 38.322 52.5168 38.32C52.5428 38.306 52.5728 38.293 52.5968 38.279C52.8628 38.13 53.0318 37.984 53.1438 37.858C53.1628 37.836 53.1828 37.814 53.1998 37.793C53.2578 37.718 53.2948 37.653 53.3168 37.603L53.3348 36.491L53.3438 35.893L53.3538 35.287L53.3588 34.945L53.3608 34.837L53.3628 34.725C53.3628 34.717 53.3678 34.709 53.3678 34.701C53.3678 34.698 53.3658 34.694 53.3658 34.691C53.3658 34.691 53.3648 34.689 53.3648 34.688C53.3648 34.685 53.3628 34.683 53.3628 34.68L53.3678 34.401H53.2348C53.2308 34.396 53.2238 34.391 53.2188 34.386C53.1758 34.34 53.1268 34.295 53.0658 34.251C52.9838 34.192 52.8798 34.134 52.7668 34.078C52.6948 34.114 52.6178 34.149 52.5358 34.185C52.5248 34.19 52.5148 34.194 52.5038 34.199C52.3818 34.251 52.2478 34.302 52.1018 34.352C52.0538 34.369 51.9988 34.384 51.9468 34.401C51.9408 34.403 51.9338 34.405 51.9278 34.407C51.7208 34.472 51.4888 34.534 51.2338 34.593C51.0858 34.627 50.9278 34.659 50.7618 34.69C50.7548 34.692 50.7468 34.693 50.7398 34.694C50.2958 34.776 49.7868 34.845 49.2068 34.897C48.7968 34.934 48.3608 34.964 47.8748 34.981C47.6528 34.989 47.4108 34.991 47.1718 34.994C47.1188 34.995 47.0688 34.997 47.0158 34.997H47.0148C46.9258 34.998 46.8458 35.001 46.7548 35.001C46.6878 35.001 46.6298 34.998 46.5638 34.998C44.1608 34.984 42.5978 34.727 41.5828 34.407C41.5758 34.405 41.5688 34.403 41.5628 34.401C41.3428 34.331 41.1458 34.258 40.9748 34.185C40.8928 34.149 40.8148 34.113 40.7438 34.078C40.5378 34.18 40.3758 34.288 40.2748 34.401H40.1428V34.701V34.945V36.98V37.073V37.362L40.1928 37.604C40.2648 37.769 40.4918 38.098 41.1818 38.416ZM46.5628 36.201C46.6278 36.201 46.6898 36.203 46.7548 36.203C46.8418 36.203 46.9268 36.201 47.0138 36.2C47.1338 36.199 47.2538 36.199 47.3718 36.196C47.4018 36.196 47.4328 36.195 47.4638 36.195C47.7198 36.188 47.9698 36.178 48.2158 36.166C48.5328 36.149 48.8398 36.128 49.1378 36.101C49.1478 36.1 49.1588 36.1 49.1678 36.099C49.7478 36.047 50.2858 35.977 50.7718 35.892C51.2488 35.809 51.6718 35.712 52.0338 35.603H52.1638V35.892V36.456V37.13C52.1158 37.167 52.0408 37.215 51.9388 37.268C51.6348 37.428 51.0568 37.645 50.0098 37.802C49.8018 37.834 49.5748 37.862 49.3268 37.888C48.8698 37.935 48.3398 37.971 47.7338 37.99C47.6598 37.992 47.5898 37.995 47.5138 37.997L47.4638 37.977L47.0448 37.802L47.0138 37.789L46.5628 37.601L46.4718 37.563L42.2248 35.793C43.3648 36.037 44.8838 36.19 46.5628 36.201Z" fill="#1895FF"/>
<path fill-rule="evenodd" clip-rule="evenodd" d="M41.1815 33.6076C41.2985 33.6616 41.4335 33.7146 41.5785 33.7666C41.6505 33.7926 41.7245 33.8186 41.8035 33.8426C42.0615 33.9246 42.3615 34.0016 42.7065 34.0716C43.6585 34.2646 44.9585 34.4006 46.7545 34.4006C46.8915 34.4006 47.0145 34.3966 47.1465 34.3946C47.2885 34.3936 47.4335 34.3926 47.5685 34.3886C47.5965 34.3886 47.6285 34.3886 47.6565 34.3876C47.7955 34.3836 47.9215 34.3766 48.0535 34.3716C48.3135 34.3606 48.5635 34.3466 48.7995 34.3296C48.9555 34.3186 49.1105 34.3066 49.2555 34.2936C49.6125 34.2596 49.9355 34.2186 50.2335 34.1726C50.4355 34.1406 50.6245 34.1076 50.8015 34.0716C50.8875 34.0536 50.9725 34.0356 51.0525 34.0176C51.2935 33.9626 51.5115 33.9036 51.7045 33.8426C51.7835 33.8176 51.8575 33.7916 51.9285 33.7666C52.0745 33.7146 52.2095 33.6606 52.3265 33.6066C52.3915 33.5766 52.4475 33.5466 52.5045 33.5166C52.5085 33.5146 52.5125 33.5126 52.5165 33.5106C52.5415 33.4966 52.5715 33.4836 52.5955 33.4696C52.8605 33.3206 53.0305 33.1746 53.1425 33.0496C53.1625 33.0266 53.1815 33.0046 53.1985 32.9836C53.2565 32.9086 53.2935 32.8436 53.3155 32.7936L53.3325 31.6806L53.3425 31.0826L53.3515 30.4766L53.3575 30.1346L53.3595 30.0266L53.3605 29.9146C53.3615 29.9066 53.3665 29.8986 53.3665 29.8906C53.3665 29.8876 53.3635 29.8846 53.3635 29.8806C53.3635 29.8796 53.3635 29.8776 53.3635 29.8776C53.3635 29.8746 53.3615 29.8726 53.3615 29.8696L53.3655 29.5896H53.2335C53.2285 29.5846 53.2215 29.5796 53.2165 29.5746C53.1745 29.5296 53.1245 29.4846 53.0645 29.4406C52.9285 29.3426 52.7485 29.2496 52.5315 29.1606C52.2035 29.0266 51.7855 28.9056 51.2985 28.8016C51.2705 28.7946 51.2405 28.7896 51.2105 28.7836C50.8085 28.6996 50.3645 28.6256 49.8805 28.5666C49.2345 28.4876 48.5215 28.4336 47.7695 28.4076C47.6735 28.4046 47.5795 28.4006 47.4835 28.3976C47.3665 28.3946 47.2475 28.3936 47.1295 28.3926C47.0905 28.3916 47.0515 28.3916 47.0125 28.3906C46.9265 28.3896 46.8415 28.3876 46.7535 28.3876C46.6895 28.3876 46.6265 28.3896 46.5625 28.3896C43.4495 28.4106 40.8745 28.9176 40.2745 29.5896H40.1415V29.8906V30.1346V32.1696V32.2626V32.5526L40.1915 32.7946C40.2655 32.9606 40.4915 33.2896 41.1815 33.6076ZM52.1645 31.6466V32.3216C52.1155 32.3576 52.0415 32.4056 51.9395 32.4596C51.6345 32.6196 51.0565 32.8356 50.0105 32.9936C49.8015 33.0246 49.5745 33.0536 49.3275 33.0796C48.8695 33.1266 48.3405 33.1626 47.7345 33.1816C47.6605 33.1836 47.5905 33.1866 47.5145 33.1886L47.4635 33.1676L47.0445 32.9926L47.0135 32.9796L46.5625 32.7916L46.4725 32.7546L42.2235 30.9836C43.3635 31.2286 44.8835 31.3806 46.5625 31.3916C46.6265 31.3926 46.6895 31.3946 46.7535 31.3946C46.8415 31.3946 46.9265 31.3916 47.0125 31.3916C47.1325 31.3906 47.2525 31.3896 47.3705 31.3876C47.4015 31.3866 47.4325 31.3866 47.4635 31.3856C47.7185 31.3796 47.9685 31.3696 48.2155 31.3566C48.5325 31.3396 48.8395 31.3186 49.1375 31.2926C49.1475 31.2916 49.1575 31.2906 49.1675 31.2896C49.7465 31.2376 50.2835 31.1676 50.7695 31.0836C51.2475 31.0006 51.6725 30.9026 52.0355 30.7936H52.1635V31.0836V31.6466H52.1645Z" fill="#1895FF"/>
<path fill-rule="evenodd" clip-rule="evenodd" d="M37.4368 68.9398H37.3048C37.2788 68.9108 37.2428 68.8828 37.2098 68.8548C37.1668 68.8828 37.1188 68.9118 37.0698 68.9398C37.0508 68.9508 37.0308 68.9618 37.0108 68.9738C36.8738 69.0498 36.7218 69.1278 36.5388 69.2038C35.5458 69.6168 33.8198 69.9908 30.8248 69.9908C30.0158 69.9908 29.3068 69.9618 28.6728 69.9138L28.6708 70.1428L28.6648 70.6598C29.3428 70.7128 30.0678 70.7428 30.8248 70.7428C32.9848 70.7428 34.8968 70.5068 36.1038 70.1428H36.2348V71.6698C35.9548 71.8818 34.8868 72.4598 31.5848 72.5378L28.6588 71.3178L28.6468 72.4648L28.6458 72.5758C28.6118 72.6638 28.5068 72.8528 28.2388 73.0748C28.1528 73.1468 28.0518 73.2208 27.9268 73.2978C27.9058 73.3108 27.8798 73.3238 27.8578 73.3368C28.0038 73.4298 28.1268 73.5298 28.2358 73.6348C28.9608 73.7068 29.8148 73.7488 30.8248 73.7488C36.2608 73.7488 37.2218 72.5188 37.3868 72.1428L37.4288 69.4838L37.4318 69.2648C37.4328 69.2568 37.4368 69.2488 37.4368 69.2408C37.4368 69.2328 37.4328 69.2258 37.4328 69.2188L37.4368 68.9398Z" fill="#1895FF"/>
<path fill-rule="evenodd" clip-rule="evenodd" d="M37.4368 64.5816H37.3048C37.2038 64.4686 37.0418 64.3606 36.8368 64.2586C36.7648 64.2946 36.6878 64.3296 36.6058 64.3656C36.4348 64.4386 36.2368 64.5116 36.0168 64.5816C36.0108 64.5836 36.0038 64.5856 35.9968 64.5876C34.9538 64.9166 33.3418 65.1816 30.8248 65.1816C28.3068 65.1816 26.6948 64.9166 25.6518 64.5876C25.6448 64.5856 25.6388 64.5836 25.6318 64.5816C25.4118 64.5116 25.2148 64.4396 25.0439 64.3656C24.9619 64.3306 24.8849 64.2946 24.8129 64.2586C24.6069 64.3616 24.4449 64.4696 24.3449 64.5826H24.2119V67.4826C24.3359 67.4986 24.4589 67.5126 24.5799 67.5296C24.6069 67.5336 24.6359 67.5356 24.6619 67.5396C25.1918 67.6176 25.6888 67.7206 26.1538 67.8426C26.3908 67.9046 26.6208 67.9706 26.8328 68.0446C26.8808 68.0606 26.9228 68.0806 26.9688 68.0976C27.2378 68.1986 27.4788 68.3096 27.6938 68.4306C27.8458 68.5166 27.9928 68.6046 28.1128 68.7006C28.2058 68.7766 28.2768 68.8586 28.3478 68.9406C28.3618 68.9566 28.3808 68.9716 28.3938 68.9886C28.4168 69.0166 28.4548 69.0406 28.4748 69.0706H28.6478L28.6628 69.3106C29.2928 69.3596 30.0018 69.3906 30.8238 69.3906C32.9768 69.3906 34.4198 69.1966 35.3978 68.9406C35.5078 68.9116 35.6188 68.8816 35.7178 68.8516C35.9708 68.7736 36.1848 68.6916 36.3678 68.6086C36.4458 68.5736 36.5158 68.5386 36.5818 68.5026C36.6768 68.4526 36.7618 68.4036 36.8368 68.3536C37.1888 68.1216 37.3318 67.9076 37.3848 67.7846L37.4268 65.1256L37.4308 64.9066C37.4308 64.8986 37.4358 64.8906 37.4358 64.8816C37.4358 64.8746 37.4318 64.8676 37.4308 64.8606L37.4368 64.5816ZM36.2338 65.7836V67.3106C36.1038 67.4096 35.8028 67.5866 35.1868 67.7566C34.9328 67.8266 34.6238 67.8956 34.2528 67.9556C34.1938 67.9656 34.1328 67.9746 34.0708 67.9846C33.4308 68.0806 32.6178 68.1536 31.5848 68.1786L30.5348 67.7406L30.5328 67.7396L29.5428 67.3276L26.2948 65.9746C27.4788 66.2276 29.0698 66.3846 30.8248 66.3846C32.9848 66.3846 34.8968 66.1476 36.1038 65.7836H36.2338Z" fill="#1895FF"/>
<path fill-rule="evenodd" clip-rule="evenodd" d="M37.4368 59.7716H37.3048C37.2038 59.6586 37.0418 59.5506 36.8368 59.4486C36.7648 59.4846 36.6878 59.5196 36.6058 59.5556C36.4348 59.6296 36.2378 59.7016 36.0188 59.7716C36.0118 59.7736 36.0048 59.7756 35.9978 59.7776C34.9548 60.1076 33.3418 60.3726 30.8248 60.3726C28.3068 60.3726 26.6949 60.1076 25.6519 59.7776C25.6449 59.7756 25.6369 59.7736 25.6299 59.7716C25.4109 59.7016 25.2149 59.6296 25.0439 59.5556C24.9619 59.5196 24.8849 59.4836 24.8129 59.4486C24.6079 59.5506 24.4459 59.6576 24.3449 59.7706H24.2129V62.7336L24.2629 62.9756C24.3349 63.1406 24.5619 63.4696 25.2519 63.7876C25.3689 63.8416 25.5039 63.8946 25.6489 63.9466C25.7199 63.9726 25.7949 63.9976 25.8739 64.0226C26.1309 64.1046 26.4319 64.1816 26.7759 64.2516C27.7279 64.4456 29.0278 64.5806 30.8248 64.5806C32.6208 64.5806 33.9208 64.4456 34.8718 64.2526C35.2168 64.1826 35.5178 64.1046 35.7758 64.0226C35.8538 63.9976 35.9288 63.9726 35.9998 63.9466C36.1448 63.8946 36.2798 63.8416 36.3968 63.7876C37.0868 63.4696 37.3138 63.1396 37.3858 62.9746L37.4278 60.3156L37.4308 60.0966C37.4318 60.0886 37.4368 60.0806 37.4368 60.0716C37.4368 60.0646 37.4318 60.0576 37.4318 60.0506L37.4368 59.7716ZM31.5848 63.3696L30.5428 62.9346L26.2949 61.1646C27.4779 61.4186 29.0698 61.5746 30.8248 61.5746C32.9858 61.5746 34.8988 61.3386 36.1058 60.9736H36.2338V62.5016C36.0418 62.6466 35.4768 62.9636 34.0798 63.1736C33.4388 63.2706 32.6238 63.3446 31.5848 63.3696Z" fill="#1895FF"/>
<path fill-rule="evenodd" clip-rule="evenodd" d="M37.4368 54.963H37.3048C37.2038 54.85 37.0418 54.742 36.8358 54.64C36.7638 54.675 36.6868 54.711 36.6048 54.747C36.4338 54.82 36.2368 54.893 36.0168 54.963C36.0108 54.965 36.0038 54.967 35.9968 54.969C34.9538 55.298 33.3418 55.563 30.8248 55.563C28.3078 55.563 26.6949 55.298 25.6519 54.969C25.6459 54.967 25.6389 54.965 25.6329 54.963C25.4129 54.893 25.2159 54.821 25.0449 54.747C24.9629 54.712 24.8849 54.676 24.8139 54.64C24.6079 54.743 24.4459 54.851 24.3449 54.963H24.2129V57.926L24.2629 58.168C24.3359 58.333 24.5619 58.662 25.2519 58.979C25.3689 59.033 25.5039 59.086 25.6499 59.139C25.7209 59.164 25.7959 59.189 25.8739 59.214C26.1319 59.296 26.4319 59.373 26.7769 59.443C27.7289 59.636 29.0288 59.772 30.8248 59.772C32.6208 59.772 33.9208 59.636 34.8728 59.443C35.2178 59.373 35.5178 59.296 35.7758 59.214C35.8538 59.189 35.9288 59.164 35.9998 59.138C36.1448 59.086 36.2808 59.033 36.3978 58.979C37.0878 58.661 37.3138 58.332 37.3868 58.166L37.4288 55.507L37.4318 55.288C37.4328 55.28 37.4368 55.272 37.4368 55.263C37.4368 55.256 37.4328 55.249 37.4328 55.242L37.4368 54.963ZM31.5838 58.56L30.5418 58.125L26.2949 56.356C27.4779 56.61 29.0698 56.766 30.8248 56.766C32.9858 56.766 34.8978 56.53 36.1048 56.165H36.2348V57.693C36.0418 57.838 35.4768 58.154 34.0808 58.364C33.4398 58.461 32.6228 58.535 31.5838 58.56Z" fill="#1895FF"/>
<path fill-rule="evenodd" clip-rule="evenodd" d="M37.4368 50.1544H37.3048C37.2038 50.0414 37.0418 49.9334 36.8368 49.8314C36.7648 49.8664 36.6878 49.9024 36.6058 49.9374C36.4338 50.0114 36.2368 50.0844 36.0168 50.1544C36.0108 50.1564 36.0038 50.1584 35.9968 50.1604C34.9538 50.4894 33.3418 50.7544 30.8248 50.7544C28.3068 50.7544 26.6948 50.4894 25.6518 50.1604C25.6448 50.1584 25.6388 50.1564 25.6318 50.1544C25.4118 50.0844 25.2148 50.0124 25.0439 49.9384C24.9619 49.9024 24.8849 49.8664 24.8129 49.8314C24.6069 49.9334 24.4449 50.0414 24.3449 50.1544H24.2119V53.1164L24.2629 53.3584C24.3349 53.5234 24.5619 53.8524 25.2518 54.1704C25.3688 54.2244 25.5038 54.2774 25.6488 54.3294C25.7208 54.3554 25.7948 54.3804 25.8738 54.4054C26.1318 54.4874 26.4318 54.5644 26.7768 54.6344C27.7288 54.8274 29.0278 54.9634 30.8238 54.9634C32.6198 54.9634 33.9198 54.8274 34.8718 54.6344C35.2168 54.5644 35.5168 54.4874 35.7748 54.4054C35.8538 54.3804 35.9278 54.3554 35.9988 54.3294C36.1438 54.2774 36.2798 54.2244 36.3958 54.1704C37.0868 53.8524 37.3128 53.5224 37.3858 53.3574L37.4278 50.6984L37.4308 50.4794C37.4318 50.4714 37.4358 50.4634 37.4358 50.4544C37.4358 50.4474 37.4318 50.4404 37.4318 50.4334L37.4368 50.1544ZM31.5848 53.7514L30.5428 53.3164L26.2938 51.5474C27.4778 51.8004 29.0688 51.9574 30.8248 51.9574C32.9848 51.9574 34.8968 51.7204 36.1028 51.3574H36.2338V52.8844C36.0418 53.0294 35.4768 53.3454 34.0798 53.5564C33.4388 53.6524 32.6228 53.7264 31.5848 53.7514Z" fill="#1895FF"/>
<path fill-rule="evenodd" clip-rule="evenodd" d="M37.4368 45.3449H37.3048C37.2038 45.2319 37.0418 45.1239 36.8368 45.0219C36.7648 45.0579 36.6878 45.0929 36.6058 45.1289C36.4348 45.2029 36.2388 45.2749 36.0188 45.3449C36.0128 45.3469 36.0048 45.3489 35.9978 45.3509C34.9558 45.6809 33.3428 45.9459 30.8248 45.9459C28.3078 45.9459 26.6949 45.6809 25.6519 45.3509C25.6449 45.3489 25.6369 45.3469 25.6309 45.3449C25.4109 45.2749 25.2149 45.2019 25.0439 45.1289C24.9619 45.0929 24.8849 45.0569 24.8129 45.0219C24.6079 45.1239 24.4459 45.2319 24.3449 45.3449H24.2129V48.3068V48.3078L24.2629 48.5488C24.3349 48.7138 24.5619 49.0438 25.2519 49.3608C25.3689 49.4148 25.5039 49.4678 25.6489 49.5198C25.7199 49.5458 25.7949 49.5708 25.8739 49.5958C26.1309 49.6778 26.4319 49.7548 26.7759 49.8248C27.7279 50.0188 29.0278 50.1538 30.8248 50.1538C32.6208 50.1538 33.9208 50.0188 34.8718 49.8258C35.2168 49.7558 35.5178 49.6778 35.7758 49.5958C35.8538 49.5708 35.9288 49.5458 35.9998 49.5198C36.1448 49.4678 36.2798 49.4148 36.3968 49.3608C37.0878 49.0428 37.3138 48.7128 37.3858 48.5478L37.4278 45.8889L37.4318 45.6699C37.4318 45.6609 37.4368 45.6529 37.4368 45.6449C37.4368 45.6369 37.4328 45.6299 37.4318 45.6229L37.4368 45.3449ZM31.5848 48.9428L30.5428 48.5088L26.2949 46.7379C27.4779 46.9919 29.0698 47.1479 30.8248 47.1479C32.9858 47.1479 34.8988 46.9119 36.1058 46.5469H36.2338V48.0749C36.0418 48.2198 35.4768 48.5368 34.0798 48.7478C33.4388 48.8438 32.6238 48.9188 31.5848 48.9428Z" fill="#1895FF"/>
<path fill-rule="evenodd" clip-rule="evenodd" d="M37.4368 40.5363H37.3048C37.2038 40.4233 37.0418 40.3153 36.8368 40.2133C36.7648 40.2483 36.6878 40.2843 36.6058 40.3203C36.4348 40.3933 36.2368 40.4663 36.0168 40.5363C36.0108 40.5383 36.0038 40.5403 35.9978 40.5423C34.9548 40.8713 33.3418 41.1363 30.8248 41.1363C28.3078 41.1363 26.6959 40.8713 25.6529 40.5423C25.6459 40.5403 25.6389 40.5383 25.6329 40.5363C25.4129 40.4663 25.2159 40.3943 25.0449 40.3203C24.9629 40.2853 24.8859 40.2493 24.8139 40.2133C24.6079 40.3163 24.4459 40.4243 24.3459 40.5373H24.2129V43.4993V43.5003L24.2639 43.7413C24.3359 43.9063 24.5629 44.2353 25.2519 44.5533C25.3689 44.6073 25.5049 44.6593 25.6499 44.7123C25.7209 44.7383 25.7959 44.7633 25.8749 44.7883C26.1319 44.8703 26.4329 44.9473 26.7779 45.0173C27.7299 45.2103 29.0288 45.3463 30.8258 45.3463C32.6218 45.3463 33.9218 45.2103 34.8728 45.0173C35.2178 44.9473 35.5188 44.8703 35.7768 44.7883C35.8548 44.7633 35.9288 44.7383 36.0008 44.7123C36.1458 44.6603 36.2808 44.6073 36.3978 44.5533C37.0888 44.2353 37.3148 43.9063 37.3868 43.7403L37.4288 41.0813L37.4328 40.8623C37.4328 40.8543 37.4378 40.8463 37.4378 40.8373C37.4378 40.8303 37.4338 40.8233 37.4328 40.8163L37.4368 40.5363ZM31.5838 44.1333L30.5418 43.6993L26.2949 41.9293C27.4779 42.1833 29.0698 42.3393 30.8248 42.3393C32.9848 42.3393 34.8978 42.1033 36.1038 41.7393H36.2338V43.2673C36.0418 43.4113 35.4768 43.7283 34.0808 43.9383C33.4398 44.0343 32.6228 44.1083 31.5838 44.1333Z" fill="#1895FF"/>
<path fill-rule="evenodd" clip-rule="evenodd" d="M37.4368 35.7262H37.3038C37.2038 35.6132 37.0418 35.5062 36.8368 35.4042C36.7648 35.4402 36.6878 35.4752 36.6058 35.5112C36.4348 35.5842 36.2388 35.6562 36.0198 35.7262C36.0128 35.7282 36.0048 35.7312 35.9968 35.7332C34.9538 36.0622 33.3418 36.3272 30.8248 36.3272C28.3068 36.3272 26.6949 36.0622 25.6519 35.7332C25.6439 35.7312 25.6359 35.7282 25.6289 35.7262C25.4099 35.6562 25.2139 35.5842 25.0439 35.5112C24.9619 35.4752 24.8849 35.4402 24.8129 35.4042C24.6079 35.5062 24.4459 35.6142 24.3449 35.7262H24.2129V38.6892L24.2629 38.9312C24.3349 39.0962 24.5619 39.4252 25.2519 39.7432C25.3689 39.7972 25.5039 39.8502 25.6489 39.9022C25.7209 39.9282 25.7949 39.9532 25.8739 39.9782C26.1319 40.0602 26.4319 40.1372 26.7769 40.2072C27.7289 40.4002 29.0278 40.5362 30.8238 40.5362C32.6198 40.5362 33.9198 40.4002 34.8718 40.2072C35.2168 40.1372 35.5168 40.0602 35.7748 39.9782C35.8538 39.9532 35.9278 39.9282 35.9988 39.9022C36.1448 39.8502 36.2798 39.7972 36.3968 39.7432C37.0868 39.4252 37.3138 39.0952 37.3858 38.9302L37.4278 36.2712L37.4308 36.0522C37.4318 36.0442 37.4368 36.0362 37.4368 36.0272C37.4368 36.0202 37.4318 36.0132 37.4318 36.0062L37.4368 35.7262ZM31.5848 39.3242L30.5428 38.8902L26.2949 37.1192C27.4789 37.3732 29.0698 37.5292 30.8248 37.5292C32.9868 37.5292 34.8998 37.2932 36.1068 36.9282H36.2348V38.4562C36.0428 38.6012 35.4778 38.9182 34.0808 39.1292C33.4388 39.2262 32.6238 39.3002 31.5848 39.3242Z" fill="#1895FF"/>
<path fill-rule="evenodd" clip-rule="evenodd" d="M37.4368 30.9176H37.3048C37.2038 30.8046 37.0418 30.6966 36.8358 30.5946C36.7638 30.6306 36.6868 30.6656 36.6048 30.7016C36.4338 30.7756 36.2368 30.8476 36.0168 30.9176C36.0108 30.9196 36.0038 30.9216 35.9968 30.9236C34.9538 31.2526 33.3418 31.5176 30.8248 31.5176C28.3078 31.5176 26.6959 31.2526 25.6529 30.9236C25.6459 30.9216 25.6389 30.9196 25.6329 30.9176C25.4129 30.8476 25.2159 30.7756 25.0449 30.7016C24.9629 30.6666 24.8859 30.6306 24.8139 30.5946C24.6079 30.6976 24.4459 30.8046 24.3449 30.9176H24.2129V33.8806L24.2629 34.1226C24.3349 34.2876 24.5619 34.6166 25.2519 34.9346C25.3689 34.9886 25.5039 35.0416 25.6489 35.0936C25.7199 35.1196 25.7949 35.1446 25.8729 35.1696C26.1309 35.2516 26.4319 35.3286 26.7759 35.3986C27.7149 35.5896 28.9958 35.7226 30.7538 35.7266C30.7788 35.7266 30.7998 35.7276 30.8238 35.7276C30.8488 35.7276 30.8698 35.7266 30.8948 35.7266C32.6528 35.7226 33.9328 35.5896 34.8718 35.3986C35.2168 35.3286 35.5178 35.2516 35.7758 35.1696C35.8538 35.1446 35.9288 35.1196 35.9998 35.0936C36.1448 35.0416 36.2798 34.9886 36.3968 34.9346C37.0868 34.6166 37.3138 34.2866 37.3858 34.1216L37.4278 31.4626L37.4308 31.2436C37.4318 31.2346 37.4368 31.2266 37.4368 31.2186C37.4368 31.2116 37.4318 31.2036 37.4318 31.1966L37.4368 30.9176ZM31.5858 34.5156L30.5428 34.0816L26.2939 32.3106C27.4779 32.5646 29.0688 32.7206 30.8248 32.7206C32.9858 32.7206 34.8988 32.4836 36.1048 32.1196H36.2338V33.6476C36.0418 33.7926 35.4768 34.1096 34.0798 34.3206C33.4388 34.4166 32.6238 34.4916 31.5858 34.5156Z" fill="#1895FF"/>
<path fill-rule="evenodd" clip-rule="evenodd" d="M37.4368 26.1091H37.3048C37.2038 25.9961 37.0418 25.8881 36.8368 25.7861C36.7648 25.8211 36.6878 25.8571 36.6058 25.8921C36.4348 25.9661 36.2368 26.0391 36.0168 26.1091C36.0108 26.1111 36.0038 26.1131 35.9978 26.1151C34.9548 26.4441 33.3418 26.7101 30.8248 26.7101C28.3078 26.7101 26.6959 26.4441 25.6529 26.1151C25.6459 26.1131 25.6389 26.1111 25.6329 26.1091C25.4129 26.0391 25.2159 25.9671 25.0449 25.8931C24.9629 25.8581 24.8859 25.8221 24.8139 25.7861C24.6079 25.8891 24.4459 25.9971 24.3459 26.1101H24.2129V29.0711V29.0721L24.2639 29.3131C24.3359 29.4781 24.5629 29.8081 25.2529 30.1251C25.3699 30.1791 25.5049 30.2321 25.6509 30.2851C25.7219 30.3101 25.7969 30.3361 25.8749 30.3611C26.1329 30.4431 26.4339 30.5201 26.7779 30.5891C27.7299 30.7831 29.0298 30.9181 30.8258 30.9181C32.6218 30.9181 33.9208 30.7831 34.8728 30.5891C35.2178 30.5201 35.5188 30.4431 35.7758 30.3611C35.8548 30.3361 35.9288 30.3101 35.9998 30.2851C36.1458 30.2321 36.2808 30.1791 36.3978 30.1251C37.0888 29.8071 37.3148 29.4771 37.3878 29.3121L37.4298 26.6541L37.4328 26.4351C37.4338 26.4271 37.4378 26.4191 37.4378 26.4101C37.4378 26.4031 37.4338 26.3961 37.4338 26.3891L37.4368 26.1091ZM31.5838 29.7061L30.5418 29.2711L26.2949 27.5021C27.4789 27.7551 29.0698 27.9121 30.8248 27.9121C32.9858 27.9121 34.8978 27.6751 36.1048 27.3111H36.2348V28.8381C36.0428 28.9831 35.4778 29.3001 34.0808 29.5101C33.4388 29.6071 32.6228 29.6811 31.5838 29.7061Z" fill="#1895FF"/>
<path fill-rule="evenodd" clip-rule="evenodd" d="M37.4368 21.2991H37.3038C36.6918 20.6131 34.0238 20.0971 30.8248 20.0971C27.6248 20.0971 24.9579 20.6131 24.3449 21.2991H24.2119V24.2611V24.2621L24.2629 24.5031C24.3349 24.6691 24.5619 24.9981 25.2518 25.3161C25.3688 25.3701 25.5038 25.4221 25.6488 25.4751C25.7198 25.5011 25.7948 25.5261 25.8738 25.5511C26.1308 25.6331 26.4318 25.7101 26.7768 25.7801C27.7288 25.9731 29.0278 26.1091 30.8238 26.1091C32.6198 26.1091 33.9198 25.9731 34.8718 25.7801C35.2168 25.7101 35.5168 25.6331 35.7748 25.5511C35.8538 25.5261 35.9288 25.5001 35.9988 25.4751C36.1448 25.4221 36.2798 25.3691 36.3968 25.3151C37.0868 24.9971 37.3138 24.6681 37.3858 24.5021L37.4278 21.8431L37.4308 21.6241C37.4318 21.6161 37.4368 21.6081 37.4368 21.6001C37.4368 21.5921 37.4318 21.5851 37.4318 21.5781L37.4368 21.2991ZM31.5848 24.8971L30.5428 24.4631L26.2948 22.6921C27.4778 22.9461 29.0698 23.1021 30.8248 23.1021C32.9868 23.1021 34.8998 22.8661 36.1058 22.5011H36.2338V24.0291C36.0418 24.1741 35.4768 24.4911 34.0798 24.7021C33.4388 24.7981 32.6238 24.8731 31.5848 24.8971Z" fill="#1895FF"/>
<path fill-rule="evenodd" clip-rule="evenodd" d="M28.0934 73.7842C28.0874 73.7782 28.0794 73.7722 28.0734 73.7652C28.0154 73.7052 27.9384 73.6462 27.8494 73.5882C27.7824 73.5452 27.7084 73.5022 27.6254 73.4612C27.5734 73.4872 27.5154 73.5132 27.4584 73.5382C27.4364 73.5482 27.4174 73.5582 27.3944 73.5682C27.3314 73.5952 27.2624 73.6222 27.1934 73.6482C27.0734 73.6952 26.9454 73.7402 26.8054 73.7842C26.7994 73.7862 26.7924 73.7882 26.7864 73.7902C26.6354 73.8382 26.4714 73.8842 26.2954 73.9282C25.2544 74.1902 23.7664 74.3842 21.6134 74.3842C19.0964 74.3842 17.4834 74.1192 16.4404 73.7902C16.4344 73.7882 16.4274 73.7862 16.4204 73.7842C16.2004 73.7142 16.0034 73.6422 15.8324 73.5682C15.7504 73.5332 15.6734 73.4972 15.6014 73.4612C15.3954 73.5642 15.2334 73.6722 15.1334 73.7852H15.0005V76.7462V76.7482L15.0505 76.9882C15.2154 77.3652 16.1774 78.5932 21.6134 78.5932C27.0484 78.5932 28.0104 77.3652 28.1754 76.9882L28.2164 74.3282L28.2184 74.2312L28.2204 74.1062C28.2204 74.0992 28.2254 74.0922 28.2254 74.0852C28.2254 74.0782 28.2214 74.0722 28.2214 74.0662L28.2254 73.7842H28.0934ZM27.0234 74.9872V76.5142C26.7424 76.7252 25.6744 77.3032 22.3724 77.3812L17.0834 75.1772C18.2674 75.4302 19.8584 75.5872 21.6134 75.5872C23.7734 75.5872 25.6854 75.3502 26.8924 74.9862H27.0234V74.9872Z" fill="#1895FF"/>
<path fill-rule="evenodd" clip-rule="evenodd" d="M15.051 72.1793C15.123 72.3443 15.35 72.6743 16.04 72.9913C16.158 73.0453 16.292 73.0983 16.438 73.1513C16.509 73.1763 16.584 73.2023 16.662 73.2273C16.92 73.3093 17.221 73.3863 17.566 73.4563C18.517 73.6493 19.8169 73.7843 21.6139 73.7843C23.0779 73.7843 24.2089 73.6933 25.0959 73.5563C25.2969 73.5253 25.4859 73.4913 25.6609 73.4563C25.7739 73.4323 25.8869 73.4103 25.9909 73.3853C26.0959 73.3603 26.1899 73.3343 26.2859 73.3073C26.3819 73.2803 26.4769 73.2543 26.5639 73.2263C26.6429 73.2013 26.7169 73.1763 26.7889 73.1503C26.8089 73.1433 26.8319 73.1373 26.8509 73.1293C26.9729 73.0843 27.0849 73.0383 27.1859 72.9913C27.2139 72.9783 27.2379 72.9653 27.2649 72.9523C27.6649 72.7563 27.8969 72.5613 28.0289 72.4023C28.1029 72.3143 28.1499 72.2363 28.1749 72.1793L28.1919 71.1223L28.1999 70.6183L28.2069 70.1413L28.2119 69.8723L28.2169 69.5193L28.2189 69.4203L28.2209 69.2973C28.2209 69.2893 28.2259 69.2833 28.2259 69.2753H28.2249C28.2249 69.2683 28.2219 69.2633 28.2209 69.2573L28.2259 68.9753H28.0919C28.0859 68.9673 28.0759 68.9603 28.0689 68.9533C28.0639 68.9483 28.0579 68.9443 28.0529 68.9393C27.9459 68.8323 27.7869 68.7303 27.5859 68.6343C27.4879 68.5873 27.3809 68.5423 27.2629 68.4973C27.0089 68.4023 26.7119 68.3143 26.3739 68.2343C26.2959 68.2163 26.2139 68.1983 26.1319 68.1803C25.9249 68.1363 25.7069 68.0953 25.4759 68.0583C25.3359 68.0343 25.1919 68.0133 25.0439 67.9933C24.9389 67.9783 24.8359 67.9633 24.7269 67.9503C24.5989 67.9343 24.4649 67.9203 24.3319 67.9073C24.2909 67.9033 24.2519 67.8983 24.2119 67.8943C24.0649 67.8793 23.9129 67.8673 23.7609 67.8553C23.0869 67.8033 22.3659 67.7733 21.6129 67.7733C18.414 67.7733 15.746 68.2893 15.133 68.9753H15V71.9373L15.001 71.9393L15.051 72.1793ZM27.0239 70.4683V70.6363V71.7053C26.9159 71.7873 26.6879 71.9233 26.2639 72.0633C25.9659 72.1623 25.5689 72.2633 25.0439 72.3503C24.9869 72.3593 24.9289 72.3683 24.8689 72.3773C24.8539 72.3803 24.8379 72.3823 24.8219 72.3843C24.7079 72.4013 24.5909 72.4173 24.4649 72.4323C24.3999 72.4403 24.3299 72.4473 24.2619 72.4553C24.1109 72.4713 23.9519 72.4863 23.7859 72.5003C23.3669 72.5343 22.9009 72.5603 22.3739 72.5733L21.3319 72.1383L17.086 70.3693C18.27 70.6223 19.8589 70.7783 21.6129 70.7783C22.3669 70.7783 23.0869 70.7483 23.7609 70.6953C23.9129 70.6843 24.0649 70.6723 24.2119 70.6573C24.3139 70.6473 24.4109 70.6353 24.5099 70.6253C24.5599 70.6193 24.6119 70.6143 24.6619 70.6083C24.9239 70.5773 25.1749 70.5423 25.4139 70.5043C25.7309 70.4533 26.0289 70.3973 26.3009 70.3353C26.3029 70.3353 26.3039 70.3343 26.3049 70.3343C26.5179 70.2853 26.7119 70.2323 26.8939 70.1773H27.0229V70.4683H27.0239Z" fill="#1895FF"/>
</svg>
