<svg width="96" height="96" viewBox="0 0 96 96" fill="none" xmlns="http://www.w3.org/2000/svg">
<path fill-rule="evenodd" clip-rule="evenodd" d="M58.3995 51.1406L65.6329 51.1406C66.1025 51.1406 66.557 51.3058 66.917 51.6072L92.1954 72.7752C92.8588 73.3308 93.0897 74.25 92.7676 75.0531C92.4455 75.8562 91.6435 76.3611 90.78 76.3043L68.0411 74.8079L52.1 85.3802C51.7723 85.5975 51.3878 85.7134 50.9945 85.7134H27.8905C27.3625 85.7134 26.8559 85.5046 26.4813 85.1326L3.68447 62.4942C3.0975 61.9113 2.92995 61.0272 3.26296 60.2699C3.59596 59.5127 4.36079 59.0386 5.18712 59.0772L28.8305 60.1822L40.3092 53.4221C41.261 52.8615 42.487 53.1787 43.0475 54.1305C43.608 55.0823 43.2908 56.3082 42.3391 56.8688L30.3471 63.9312C30.0122 64.1284 29.627 64.2238 29.2388 64.2056L10.188 63.3153L28.7149 81.7134H50.3916L66.3931 71.1011C66.7582 70.8589 67.1927 70.7434 67.6299 70.7721L84.9328 71.9108L64.9061 55.1406L58.3995 55.1406C57.2949 55.1406 56.3995 54.2452 56.3995 53.1406C56.3995 52.0361 57.2949 51.1406 58.3995 51.1406Z" fill="#1895FF"/>
<path fill-rule="evenodd" clip-rule="evenodd" d="M54.4627 59.8958C55.2408 59.1118 56.5071 59.1071 57.2911 59.8851L69.2047 71.7091C69.9887 72.4872 69.9935 73.7536 69.2154 74.5376C68.4373 75.3215 67.171 75.3263 66.387 74.5482L54.4734 62.7242C53.6894 61.9461 53.6846 60.6798 54.4627 59.8958Z" fill="#1895FF"/>
<path fill-rule="evenodd" clip-rule="evenodd" d="M31.2312 66.864L12.1816 68.4512L12.0488 66.8567L31.0984 65.2695L31.2312 66.864Z" fill="#1895FF"/>
<path fill-rule="evenodd" clip-rule="evenodd" d="M50.0213 65.4802L38.8425 72.4157L37.999 71.0561L49.1777 64.1206L50.0213 65.4802Z" fill="#1895FF"/>
<path fill-rule="evenodd" clip-rule="evenodd" d="M73.337 74.1861L61.3178 54.0037L62.6925 53.1851L74.7117 73.3675L73.337 74.1861Z" fill="#1895FF"/>
<path fill-rule="evenodd" clip-rule="evenodd" d="M27.4578 61.2755C28.2252 60.4811 29.4913 60.4591 30.2858 61.2265L52.121 82.3177C52.9155 83.0851 52.9374 84.3513 52.17 85.1457C51.4026 85.9402 50.1365 85.9621 49.342 85.1947L27.5068 64.1035C26.7123 63.3362 26.6904 62.07 27.4578 61.2755Z" fill="#1895FF"/>
<path fill-rule="evenodd" clip-rule="evenodd" d="M60.9498 63.0083C59.0801 63.4798 57.6447 64.3458 56.766 65.6148C56.4347 66.0933 56.0863 66.6153 55.7193 67.1652C53.89 69.9061 51.5972 73.3412 48.6517 75.5505C46.854 76.8988 44.769 77.8317 42.3506 77.8859C39.9336 77.9401 37.2785 77.1147 34.3432 75.1184L34.7931 74.4569L34.3432 75.1184C28.8315 71.3706 24.5067 71.0328 21.6128 71.559C20.1537 71.8243 19.0315 72.3142 18.2799 72.7325C17.9042 72.9416 17.6219 73.1323 17.4377 73.2672C17.3456 73.3346 17.2782 73.3879 17.236 73.4224C17.2149 73.4396 17.2001 73.4521 17.1917 73.4593L17.1851 73.465C17.1855 73.4647 17.1859 73.4643 16.6507 72.8697C16.1155 72.2751 16.1159 72.2747 16.1164 72.2743L16.1175 72.2733L16.1202 72.2709L16.1274 72.2646L16.1494 72.2454C16.1674 72.2299 16.1922 72.209 16.2237 72.1833C16.2867 72.1318 16.3765 72.0611 16.4926 71.9761C16.7247 71.8062 17.0626 71.5789 17.5018 71.3344C18.3801 70.8456 19.6675 70.2865 21.3266 69.9848C24.6691 69.377 29.4154 69.8328 35.2429 73.7954L35.243 73.7954C37.9764 75.6544 40.3099 76.3313 42.3147 76.2863C44.3181 76.2414 46.0879 75.4734 47.6917 74.2705C50.3948 72.2431 52.5001 69.0961 54.3357 66.3523C54.718 65.7808 55.0886 65.2267 55.4505 64.704L55.4506 64.7038C56.6134 63.0248 58.4382 61.9916 60.5585 61.4569C62.6771 60.9225 65.1423 60.8706 67.6891 61.1908C72.777 61.8304 78.3514 63.9759 82.4381 67.0115L81.484 68.2959C77.6332 65.4355 72.3227 63.3859 67.4895 62.7783C65.0757 62.4748 62.8211 62.5363 60.9498 63.0083ZM17.184 73.466L17.1845 73.4656L17.1851 73.465L17.184 73.466ZM17.1837 73.4663C17.1834 73.4666 17.1835 73.4665 17.184 73.466L17.1837 73.4663Z" fill="#1895FF"/>
<path fill-rule="evenodd" clip-rule="evenodd" d="M31.7679 84.2414L24.2847 62.4718L25.7978 61.9517L33.281 83.7213L31.7679 84.2414Z" fill="#1895FF"/>
<path fill-rule="evenodd" clip-rule="evenodd" d="M50.3436 22.0752C46.5006 22.0752 43.3813 25.1936 43.3813 29.046C43.3813 32.8971 46.5008 36.0168 50.3436 36.0168C54.1863 36.0168 57.3058 32.8971 57.3058 29.046C57.3058 25.1936 54.1865 22.0752 50.3436 22.0752ZM39.3813 29.046C39.3813 22.9876 44.2883 18.0752 50.3436 18.0752C56.3988 18.0752 61.3058 22.9876 61.3058 29.046C61.3058 35.1026 56.399 40.0168 50.3436 40.0168C44.2881 40.0168 39.3813 35.1026 39.3813 29.046Z" fill="#1C3553"/>
<path fill-rule="evenodd" clip-rule="evenodd" d="M30.875 28.049C30.875 16.8588 39.491 7.6001 50.3433 7.6001C61.1956 7.6001 69.8116 16.8588 69.8116 28.049C69.8116 29.1455 69.7264 30.2477 69.6336 30.8567L69.6325 30.8639C69.6073 31.0254 69.5909 31.1318 69.5804 31.2012V31.3086L69.5267 31.5357C69.5265 31.5363 69.5261 31.5384 69.5252 31.5424L69.5194 31.5702L69.5171 31.5812C69.5145 31.5941 69.5108 31.612 69.5066 31.632C69.3683 32.4662 69.1815 33.2945 68.9397 34.1065C68.0953 37.3321 66.8647 40.381 65.4896 43.3051C61.8046 51.1577 57.1249 58.2925 52.2229 65.1593L52.1522 65.2583L52.0701 65.348C51.3802 66.1014 50.4956 66.0295 50.1458 65.951C49.8075 65.8751 49.5716 65.7291 49.4942 65.68C49.3076 65.5618 49.1721 65.4336 49.1241 65.3879C48.9985 65.2683 48.8757 65.1301 48.7784 65.017C48.5691 64.7735 48.3001 64.4365 47.9984 64.0461C47.3883 63.2565 46.5756 62.1587 45.7003 60.9394C43.9588 58.5137 41.9061 55.5186 40.6733 53.4381M50.3433 11.6001C41.9029 11.6001 34.875 18.8595 34.875 28.049C34.875 28.9619 34.9473 29.8536 35.0852 30.7316L35.1094 30.8858V30.8867C35.2435 31.7081 35.4382 32.5125 35.6841 33.3023L35.6946 33.3361L35.7039 33.3702C37.4512 39.7709 40.6335 45.5352 44.1129 51.3962L44.1138 51.3977C45.2535 53.3215 47.2228 56.2013 48.9497 58.6067C49.5029 59.3773 50.0246 60.09 50.4787 60.6975C54.7526 54.5883 58.7056 48.3461 61.8692 41.6044L61.8699 41.6029C63.1885 38.7989 64.3169 35.9811 65.0782 33.0625L65.0873 33.0274L65.0978 32.9926C65.2959 32.3321 65.4515 31.6447 65.567 30.938L65.5757 30.8849L65.5872 30.8323C65.5901 30.8194 65.5923 30.8086 65.597 30.7857L65.6018 30.7622C65.602 30.7614 65.6022 30.7605 65.6024 30.7597C65.6048 30.7418 65.6077 30.7217 65.6111 30.6988C65.6219 30.6251 65.6419 30.4932 65.6798 30.2505C65.7358 29.881 65.8116 28.9883 65.8116 28.049C65.8116 18.8595 58.7837 11.6001 50.3433 11.6001ZM30.875 28.049C30.875 29.1398 30.9588 30.2058 31.1181 31.2518L30.875 28.049ZM31.1181 31.2518C31.1227 31.304 31.1306 31.3724 31.1448 31.4501C31.1508 31.4835 31.1586 31.5219 31.1655 31.5547C31.3298 32.5536 31.5643 33.5209 31.8544 34.4574C33.7578 41.4095 37.1867 47.565 40.6731 53.4378" fill="#1C3553"/>
</svg>
