<svg width="96" height="96" viewBox="0 0 96 96" fill="none" xmlns="http://www.w3.org/2000/svg">
<path fill-rule="evenodd" clip-rule="evenodd" d="M47.4888 19.4785C48.6091 19.4211 49.4583 20.0148 50.0255 20.5469C51.2291 21.6762 58.8055 28.8616 65.2737 34.996C69.9463 39.4275 74.0407 43.3106 74.7368 43.9662L74.7382 43.9675C74.7448 43.9737 74.7517 43.9802 74.759 43.9871C74.9536 44.1703 75.3933 44.584 75.6758 45.1543C76.0453 45.9001 76.0939 46.7689 75.7243 47.6263L75.7238 47.6275C75.3884 48.4041 74.8101 48.9556 74.0944 49.2527C73.4757 49.5097 72.8672 49.5265 72.5069 49.524C72.5066 49.524 72.5072 49.524 72.5069 49.524C71.0015 49.514 69.4943 49.5153 67.9828 49.5208C67.9828 49.3626 67.9829 49.2043 67.9829 49.0461C67.9829 48.9089 67.9929 48.8533 67.9926 48.8533C67.9925 48.8533 67.9914 48.8589 67.9885 48.8692C67.9793 48.9021 67.9571 48.9665 67.9121 49.0457C67.9122 49.0456 67.912 49.0459 67.9121 49.0457C67.8728 49.1149 67.816 49.1957 67.7356 49.2763C67.6577 49.3545 67.58 49.4103 67.5126 49.4496L67.5107 49.046L67.5032 47.5227L67.5095 49.0457L67.5112 49.4504C67.4303 49.4974 67.3645 49.5204 67.3318 49.5296C67.3221 49.5324 67.3169 49.5335 67.3169 49.5336C67.317 49.5339 67.3727 49.5234 67.5115 49.5226M26.9944 49.5208C26.9957 57.1924 26.9957 64.8641 26.9957 72.536V72.544C26.9957 73.1861 27.0192 74.4236 27.9312 75.3169C28.8282 76.1955 30.0563 76.2167 30.7043 76.2167H64.2743C64.9223 76.2167 66.1504 76.1955 67.0474 75.3169C67.9593 74.4236 67.9829 73.1861 67.9829 72.544C67.9829 69.9329 67.9827 67.3219 67.9826 64.7109C67.9823 59.6474 67.982 54.5842 67.9828 49.5208M26.9944 49.5208C27.1514 49.5214 27.3085 49.522 27.4657 49.5226C27.4652 49.5226 27.4647 49.5226 27.4642 49.5226L27.4646 49.4492C27.465 49.4495 27.4655 49.4498 27.466 49.4501L27.4657 49.5226M26.9944 49.5208C25.4829 49.5153 23.9756 49.514 22.4703 49.524C22.11 49.5265 21.5008 49.5095 20.8824 49.2525C20.1665 48.955 19.5882 48.4027 19.2538 47.6251M47.4888 19.4785C46.3685 19.4209 45.5189 20.0161 44.953 20.5469C43.7494 21.6762 36.173 28.8616 29.7048 34.9961C25.0346 39.4253 20.942 43.3067 20.2428 43.9652M47.4893 23.6527C45.809 25.2355 38.7055 31.9726 32.5582 37.8028C29.2274 40.9618 26.1773 43.8545 24.4228 45.5168C25.4441 45.5158 26.4642 45.5185 27.4823 45.5227L27.4838 45.5227C28.1787 45.5261 29.2549 45.6287 30.0761 46.4535C30.8978 47.2788 30.9942 48.3548 30.9943 49.0454M47.4893 23.6527C49.1696 25.2356 56.2736 31.9731 62.421 37.8034C65.7516 40.9622 68.8014 43.8546 70.5558 45.5168C69.534 45.5158 68.5134 45.5185 67.4949 45.5227L67.4934 45.5227C66.7984 45.5261 65.7231 45.629 64.9021 46.453C64.0803 47.2778 63.9829 48.3534 63.9829 49.0454M20.2428 43.9652C20.2367 43.971 20.2298 43.9775 20.2231 43.9837L20.2428 43.9652ZM20.2231 43.9837C20.0269 44.1678 19.5852 44.5822 19.3017 45.1554L20.2231 43.9837ZM19.3017 45.1554C18.9326 45.9016 18.8855 46.7691 19.2533 47.6239L19.3017 45.1554ZM30.9957 72.2167H63.9829C63.9829 69.7151 63.9827 67.2134 63.9826 64.7117C63.9823 59.4898 63.982 54.2673 63.9829 49.0454M30.9957 72.2167C30.9957 64.4932 30.9956 56.7691 30.9943 49.0454L30.9957 72.2167Z" fill="#1C3553"/>
<path fill-rule="evenodd" clip-rule="evenodd" d="M38.9393 64.9396C38.3536 64.3538 38.3536 63.404 38.9393 62.8182L54.818 46.9396C55.4038 46.3538 56.3536 46.3538 56.9393 46.9396C57.5251 47.5254 57.5251 48.4751 56.9393 49.0609L41.0607 64.9396C40.4749 65.5254 39.5251 65.5254 38.9393 64.9396Z" fill="#1895FF"/>
<path fill-rule="evenodd" clip-rule="evenodd" d="M57.0607 64.9396C57.6464 64.3538 57.6464 63.404 57.0607 62.8182L41.182 46.9396C40.5962 46.3538 39.6464 46.3538 39.0607 46.9396C38.4749 47.5254 38.4749 48.4751 39.0607 49.0609L54.9393 64.9396C55.5251 65.5254 56.4749 65.5254 57.0607 64.9396Z" fill="#1895FF"/>
</svg>
