<svg width="96" height="96" viewBox="0 0 96 96" fill="none" xmlns="http://www.w3.org/2000/svg">
<path fill-rule="evenodd" clip-rule="evenodd" d="M47.9688 19.4785C49.0891 19.4211 49.9383 20.0148 50.5055 20.5469C51.7091 21.6762 59.2855 28.8616 65.7537 34.996C70.4263 39.4275 74.5207 43.3106 75.2168 43.9662L75.2182 43.9675C75.2248 43.9737 75.2317 43.9802 75.239 43.9871C75.4336 44.1703 75.8733 44.584 76.1558 45.1543C76.5253 45.9001 76.5739 46.7689 76.2043 47.6263L76.2038 47.6275C75.8683 48.4041 75.2901 48.9556 74.5744 49.2527C73.9557 49.5097 73.3472 49.5265 72.9869 49.524C72.9866 49.524 72.9872 49.524 72.9869 49.524C71.4815 49.514 69.9743 49.5153 68.4628 49.5208C68.4628 49.3626 68.4629 49.2043 68.4629 49.0461C68.4629 48.9089 68.4729 48.8533 68.4726 48.8533C68.4725 48.8533 68.4714 48.8589 68.4685 48.8692C68.4593 48.9021 68.4371 48.9665 68.3921 49.0457C68.3922 49.0456 68.392 49.0459 68.3921 49.0457C68.3528 49.1149 68.296 49.1957 68.2156 49.2763C68.1377 49.3545 68.0599 49.4103 67.9926 49.4496L67.9907 49.046L67.9832 47.5227L67.9895 49.0457L67.9912 49.4504C67.9102 49.4974 67.8445 49.5204 67.8118 49.5296C67.8021 49.5324 67.7969 49.5335 67.7969 49.5336C67.797 49.5339 67.8527 49.5234 67.9915 49.5226M27.4744 49.5208C27.4757 57.1924 27.4757 64.8641 27.4757 72.536V72.544C27.4757 73.1861 27.4992 74.4236 28.4112 75.3169C29.3082 76.1955 30.5363 76.2167 31.1843 76.2167H64.7543C65.4023 76.2167 66.6304 76.1955 67.5274 75.3169C68.4393 74.4236 68.4629 73.1861 68.4629 72.544C68.4629 69.9329 68.4627 67.3219 68.4626 64.7109C68.4623 59.6474 68.462 54.5842 68.4628 49.5208M27.4744 49.5208C27.6314 49.5214 27.7885 49.522 27.9457 49.5226C27.9452 49.5226 27.9447 49.5226 27.9442 49.5226L27.9445 49.4492C27.945 49.4495 27.9455 49.4498 27.946 49.4501L27.9457 49.5226M27.4744 49.5208C25.9629 49.5153 24.4556 49.514 22.9503 49.524C22.59 49.5265 21.9808 49.5095 21.3624 49.2525C20.6465 48.955 20.0682 48.4027 19.7338 47.6251M47.9688 19.4785C46.8485 19.4209 45.9989 20.0161 45.433 20.5469C44.2294 21.6762 36.653 28.8616 30.1848 34.9961C25.5145 39.4253 21.422 43.3067 20.7228 43.9652M47.9693 23.6527C46.289 25.2355 39.1855 31.9726 33.0382 37.8028C29.7074 40.9618 26.6573 43.8545 24.9028 45.5168C25.9241 45.5158 26.9442 45.5185 27.9622 45.5227L27.9637 45.5227C28.6587 45.5261 29.7349 45.6287 30.5561 46.4535C31.3778 47.2788 31.4742 48.3548 31.4743 49.0454M47.9693 23.6527C49.6496 25.2356 56.7536 31.9731 62.901 37.8034C66.2316 40.9622 69.2814 43.8546 71.0358 45.5168C70.014 45.5158 68.9934 45.5185 67.9749 45.5227L67.9734 45.5227C67.2784 45.5261 66.2031 45.629 65.3821 46.453C64.5603 47.2778 64.4629 48.3534 64.4629 49.0454M20.7228 43.9652C20.7167 43.971 20.7098 43.9775 20.7031 43.9837L20.7228 43.9652ZM20.7031 43.9837C20.5069 44.1678 20.0652 44.5822 19.7817 45.1554L20.7031 43.9837ZM19.7817 45.1554C19.4126 45.9016 19.3655 46.7691 19.7333 47.6239L19.7817 45.1554ZM31.4757 72.2167H64.4629C64.4629 69.7151 64.4627 67.2134 64.4626 64.7117C64.4623 59.4898 64.462 54.2673 64.4629 49.0454M31.4757 72.2167C31.4757 64.4932 31.4756 56.7691 31.4743 49.0454L31.4757 72.2167Z" fill="#1C3553"/>
<path fill-rule="evenodd" clip-rule="evenodd" d="M45.7218 57.1655C45.7446 55.8097 45.8984 54.7388 46.1832 53.9526C46.468 53.1665 47.0491 52.2949 47.9264 51.3379L50.1651 49.0308C51.1222 47.9484 51.6007 46.7863 51.6007 45.5444C51.6007 44.3481 51.2874 43.4111 50.6607 42.7332C50.0341 42.0553 49.1227 41.7163 47.9264 41.7163C46.7642 41.7163 45.83 42.0239 45.1236 42.6392C44.4172 43.2544 44.0641 44.0804 44.0641 45.1172H40.9024C40.9252 43.2715 41.5832 41.7818 42.8763 40.6482C44.1694 39.5146 45.8528 38.9478 47.9264 38.9478C50.0797 38.9478 51.7573 39.526 52.9593 40.6824C54.1613 41.8388 54.7623 43.4253 54.7623 45.4419C54.7623 47.4357 53.8395 49.401 51.9937 51.3379L50.1309 53.1836C49.2992 54.1065 48.8834 55.4337 48.8834 57.1655H45.7218ZM45.585 62.583C45.585 62.0703 45.7417 61.6402 46.055 61.2927C46.3683 60.9452 46.8326 60.7715 47.4478 60.7715C48.0631 60.7715 48.5302 60.9452 48.8492 61.2927C49.1682 61.6402 49.3277 62.0703 49.3277 62.583C49.3277 63.0957 49.1682 63.5201 48.8492 63.8562C48.5302 64.1923 48.0631 64.3604 47.4478 64.3604C46.8326 64.3604 46.3683 64.1923 46.055 63.8562C45.7417 63.5201 45.585 63.0957 45.585 62.583Z" fill="#1895FF"/>
</svg>
