<svg width="96" height="96" viewBox="0 0 96 96" fill="none" xmlns="http://www.w3.org/2000/svg">
<path fill-rule="evenodd" clip-rule="evenodd" d="M41.6359 18.3173C42.2919 18.3173 42.8928 18.6842 43.1926 19.2677L53.0719 38.5002C53.3506 39.0427 53.3267 39.6911 53.0089 40.2117C52.6911 40.7322 52.1251 41.0498 51.5152 41.0498H50.8565L56.0486 51.1593C56.3272 51.7019 56.3033 52.3503 55.9855 52.8708C55.6677 53.3913 55.1018 53.7088 54.4919 53.7088H53.1477L56.9735 61.1556C57.2522 61.6982 57.2284 62.3466 56.9106 62.8672C56.5927 63.3878 56.0268 63.7053 55.4169 63.7053H44.4346V67.088C44.4346 68.0545 43.6511 68.838 42.6846 68.838H40.5894C39.6229 68.838 38.8394 68.0545 38.8394 67.088V63.7053H27.856C27.2461 63.7053 26.6802 63.3878 26.3624 62.8673C26.0446 62.3467 26.0207 61.6983 26.2994 61.1558L30.1245 53.7088H28.78C28.1701 53.7088 27.6042 53.3913 27.2864 52.8707C26.9686 52.3501 26.9447 51.7017 27.2234 51.1591L32.417 41.0498H31.7587C31.1488 41.0498 30.583 40.7323 30.2651 40.2118C29.9473 39.6912 29.9234 39.0428 30.202 38.5003L40.0793 19.2679C40.379 18.6843 40.9799 18.3174 41.6359 18.3173ZM34.6248 37.5498H35.2835C35.8934 37.5498 36.4593 37.8673 36.7771 38.3879C37.0949 38.9085 37.1188 39.5569 36.8401 40.0995L31.6465 50.2088H32.9907C33.6006 50.2088 34.1665 50.5264 34.4843 51.0469C34.8021 51.5674 34.826 52.2159 34.5474 52.7584L30.7223 60.2053H40.5894C40.9823 60.2053 41.3449 60.3348 41.637 60.5534C41.929 60.3348 42.2917 60.2053 42.6846 60.2053H52.5504L48.7246 52.7585C48.4459 52.216 48.4698 51.5675 48.7876 51.047C49.1054 50.5264 49.6713 50.2088 50.2812 50.2088H51.6258L46.4338 40.0993C46.1552 39.5568 46.1791 38.9083 46.4969 38.3878C46.8147 37.8673 47.3806 37.5498 47.9905 37.5498H48.6489L41.6361 23.8976L34.6248 37.5498Z" fill="#1C3553"/>
<path fill-rule="evenodd" clip-rule="evenodd" d="M47.4995 63.7001H35.4996V60.2001H47.4995V63.7001Z" fill="#1C3553"/>
<path fill-rule="evenodd" clip-rule="evenodd" d="M69.9538 60.0459C70.4809 59.4803 71.3668 59.4491 71.9324 59.9763L75.6878 63.4763C76.2534 64.0035 76.2846 64.8893 75.7575 65.455C75.2303 66.0206 74.3444 66.0518 73.7788 65.5246L70.0234 62.0246C69.4578 61.4975 69.4266 60.6116 69.9538 60.0459ZM81.2199 70.5459C81.7471 69.9803 82.6329 69.9491 83.1986 70.4763L86.954 73.9763C87.3748 74.3684 87.5129 74.9781 87.3021 75.5133C87.0914 76.0486 86.5747 76.4004 85.9995 76.4004H82.2495C81.4763 76.4004 80.8495 75.7736 80.8495 75.0004C80.8495 74.2272 81.4763 73.6004 82.2495 73.6004H82.4439L81.2896 72.5246C80.7239 71.9974 80.6928 71.1115 81.2199 70.5459ZM9.59962 75.0004C9.59962 74.2272 10.2264 73.6004 10.9996 73.6004H14.7496C15.5228 73.6004 16.1496 74.2272 16.1496 75.0004C16.1496 75.7736 15.5228 76.4004 14.7496 76.4004H10.9996C10.2264 76.4004 9.59962 75.7736 9.59962 75.0004ZM20.8496 75.0004C20.8496 74.2272 21.4764 73.6004 22.2496 73.6004H29.7496C30.5228 73.6004 31.1496 74.2272 31.1496 75.0004C31.1496 75.7736 30.5228 76.4004 29.7496 76.4004H22.2496C21.4764 76.4004 20.8496 75.7736 20.8496 75.0004ZM35.8496 75.0004C35.8496 74.2272 36.4764 73.6004 37.2496 73.6004H44.7495C45.5227 73.6004 46.1495 74.2272 46.1495 75.0004C46.1495 75.7736 45.5227 76.4004 44.7495 76.4004H37.2496C36.4764 76.4004 35.8496 75.7736 35.8496 75.0004ZM50.8495 75.0004C50.8495 74.2272 51.4763 73.6004 52.2495 73.6004H59.7495C60.5227 73.6004 61.1495 74.2272 61.1495 75.0004C61.1495 75.7736 60.5227 76.4004 59.7495 76.4004H52.2495C51.4763 76.4004 50.8495 75.7736 50.8495 75.0004ZM65.8495 75.0004C65.8495 74.2272 66.4763 73.6004 67.2495 73.6004H74.7495C75.5227 73.6004 76.1495 74.2272 76.1495 75.0004C76.1495 75.7736 75.5227 76.4004 74.7495 76.4004H67.2495C66.4763 76.4004 65.8495 75.7736 65.8495 75.0004Z" fill="#1895FF"/>
<path fill-rule="evenodd" clip-rule="evenodd" d="M24.1479 59.62C24.3437 59.4302 24.6058 59.3241 24.8785 59.3241H27.9996C28.5795 59.3241 29.0496 59.7942 29.0496 60.3741C29.0496 60.954 28.5795 61.4241 27.9996 61.4241H25.3037L10.3611 75.901C9.94461 76.3045 9.27987 76.294 8.87637 75.8775C8.47286 75.461 8.48338 74.7962 8.89987 74.3927L24.1479 59.62ZM54.8513 60.3741C54.8513 59.7942 55.3214 59.3241 55.9013 59.3241H70.513C71.0929 59.3241 71.563 59.7942 71.563 60.3741C71.563 60.954 71.0929 61.4241 70.513 61.4241H55.9013C55.3214 61.4241 54.8513 60.954 54.8513 60.3741Z" fill="#1C3553"/>
</svg>
