<svg width="96" height="96" viewBox="0 0 96 96" fill="none" xmlns="http://www.w3.org/2000/svg">
<path fill-rule="evenodd" clip-rule="evenodd" d="M22.279 61.03C22.9904 61.7748 22.9634 62.9553 22.2185 63.6668L15.3051 70.2701H81.1577L74.2722 63.6639C73.5289 62.9508 73.5045 61.7702 74.2176 61.0269C74.9307 60.2837 76.1113 60.2593 76.8545 60.9724L87.0865 70.7894C87.6359 71.3165 87.8097 72.1246 87.5257 72.831C87.2416 73.5373 86.5567 74.0001 85.7954 74.0001H10.6524C9.89024 74.0001 9.2048 73.5364 8.92125 72.829C8.6377 72.1216 8.81308 71.3129 9.3642 70.7865L19.6422 60.9695C20.387 60.258 21.5676 60.2851 22.279 61.03Z" fill="#1895FF"/>
<path fill-rule="evenodd" clip-rule="evenodd" d="M64.1324 38.7713V27.8773C64.1584 27.8763 64.1814 27.8743 64.2044 27.8743C65.8054 27.8743 67.4064 27.8683 69.0074 27.8783C69.7544 27.8823 70.4864 27.9953 71.1754 28.3033C71.8834 28.6193 72.4374 29.1023 72.7744 29.8123C72.9364 30.1523 73.0274 30.5113 73.0704 30.8853C73.1374 31.4703 73.1104 32.0483 72.9414 32.6143C72.6634 33.5463 72.0504 34.1793 71.1734 34.5693C70.7634 34.7523 70.3314 34.8583 69.8874 34.9223C69.4714 34.9813 69.0534 34.9983 68.6344 34.9973C68.1034 34.9973 67.5714 34.9973 67.0404 34.9973H66.9484V35.0863C66.9484 36.2853 66.9484 37.4843 66.9484 38.6833C66.9484 38.7713 66.9484 38.7713 66.8624 38.7713C65.9784 38.7713 65.0954 38.7713 64.2114 38.7713H64.1324ZM66.9524 32.9413C66.9764 32.9433 66.9974 32.9453 67.0184 32.9453C67.5134 32.9453 68.0074 32.9453 68.5024 32.9463C68.7254 32.9463 68.9464 32.9263 69.1614 32.8653C69.5884 32.7453 69.9124 32.5023 70.0804 32.0803C70.2034 31.7703 70.2194 31.4473 70.1704 31.1193C70.1034 30.6713 69.8774 30.3333 69.4724 30.1233C69.1774 29.9703 68.8584 29.9233 68.5324 29.9203C68.0214 29.9143 67.5094 29.9183 66.9974 29.9173C66.9824 29.9173 66.9684 29.9213 66.9524 29.9223V32.9413Z" fill="#1895FF"/>
<path fill-rule="evenodd" clip-rule="evenodd" d="M32.9254 61.7303C32.9254 60.9499 33.5581 60.3173 34.3384 60.3173H65.1484C65.9288 60.3173 66.5614 60.9499 66.5614 61.7303C66.5614 62.5106 65.9288 63.1433 65.1484 63.1433H34.3384C33.5581 63.1433 32.9254 62.5106 32.9254 61.7303Z" fill="#1C3553"/>
<path fill-rule="evenodd" clip-rule="evenodd" d="M73.5406 52.867C73.5406 52.0866 74.1733 51.454 74.9536 51.454H76.4776C77.258 51.454 77.8906 52.0866 77.8906 52.867C77.8906 53.6474 77.258 54.28 76.4776 54.28H74.9536C74.1733 54.28 73.5406 53.6474 73.5406 52.867Z" fill="#1C3553"/>
<path fill-rule="evenodd" clip-rule="evenodd" d="M28.2757 38.5506C29.0558 38.5314 29.7038 39.1483 29.723 39.9284L29.9271 48.2282H62.529L64.827 46.044C65.3926 45.5064 66.287 45.5291 66.8246 46.0947C67.3622 46.6603 67.3395 47.5547 66.7739 48.0923L64.0669 50.6653C63.8043 50.915 63.4558 51.0542 63.0934 51.0542H28.5484C27.7816 51.0542 27.1547 50.4425 27.1359 49.6759L26.8979 39.9979C26.8787 39.2178 27.4956 38.5698 28.2757 38.5506Z" fill="#1C3553"/>
<path fill-rule="evenodd" clip-rule="evenodd" d="M42.3431 38.3072C43.1134 38.1821 43.8392 38.7052 43.9643 39.4754L45.4443 48.5904C45.5694 49.3607 45.0463 50.0866 44.276 50.2116C43.5057 50.3367 42.7799 49.8137 42.6548 49.0434L41.1748 39.9284C41.0497 39.1581 41.5728 38.4322 42.3431 38.3072Z" fill="#1C3553"/>
<path fill-rule="evenodd" clip-rule="evenodd" d="M47.2968 52.867C47.2968 52.0866 47.9295 51.454 48.7098 51.454H49.8258C50.6062 51.454 51.2388 52.0866 51.2388 52.867C51.2388 53.6474 50.6062 54.28 49.8258 54.28H48.7098C47.9295 54.28 47.2968 53.6474 47.2968 52.867Z" fill="#1C3553"/>
<path fill-rule="evenodd" clip-rule="evenodd" d="M20.3723 52.867C20.3723 52.0866 21.005 51.454 21.7853 51.454H22.9013C23.6817 51.454 24.3143 52.0866 24.3143 52.867C24.3143 53.6474 23.6817 54.28 22.9013 54.28H21.7853C21.005 54.28 20.3723 53.6474 20.3723 52.867Z" fill="#1C3553"/>
<path fill-rule="evenodd" clip-rule="evenodd" d="M69.9531 57.911C68.4114 57.911 67.1611 59.1613 67.1611 60.703C67.1611 62.2446 68.4114 63.495 69.9531 63.495C71.4947 63.495 72.7451 62.2446 72.7451 60.703C72.7451 59.1613 71.4947 57.911 69.9531 57.911ZM64.3351 60.703C64.3351 57.6006 66.8507 55.085 69.9531 55.085C73.0554 55.085 75.5711 57.6006 75.5711 60.703C75.5711 63.8053 73.0554 66.321 69.9531 66.321C66.8507 66.321 64.3351 63.8053 64.3351 60.703Z" fill="#1C3553"/>
<path fill-rule="evenodd" clip-rule="evenodd" d="M29.1752 57.911C27.6335 57.911 26.3832 59.1613 26.3832 60.703C26.3832 62.2446 27.6335 63.495 29.1752 63.495C30.7168 63.495 31.9672 62.2446 31.9672 60.703C31.9672 59.1613 30.7168 57.911 29.1752 57.911ZM23.5572 60.703C23.5572 57.6006 26.0728 55.085 29.1752 55.085C32.2775 55.085 34.7932 57.6006 34.7932 60.703C34.7932 63.8053 32.2775 66.321 29.1752 66.321C26.0728 66.321 23.5572 63.8053 23.5572 60.703Z" fill="#1C3553"/>
<path fill-rule="evenodd" clip-rule="evenodd" d="M20.3459 49.6618C20.3459 48.8972 20.9658 48.2773 21.7304 48.2773H56.2604C57.0251 48.2773 57.6449 48.8972 57.6449 49.6618C57.6449 50.4265 57.0251 51.0463 56.2604 51.0463H21.7304C20.9658 51.0463 20.3459 50.4265 20.3459 49.6618Z" fill="#1C3553"/>
<path fill-rule="evenodd" clip-rule="evenodd" d="M65.9297 45.3619C69.9513 45.9256 72.866 47.0755 74.9478 48.5752C77.0924 50.1202 78.2862 51.989 78.8972 53.8058C79.5013 55.6018 79.522 57.3013 79.4007 58.5335C79.3397 59.1533 79.2416 59.6668 79.1568 60.0317C79.1143 60.2146 79.0749 60.3612 79.0446 60.4665C79.0295 60.5192 79.0166 60.5616 79.0068 60.5931L78.9943 60.6322L78.99 60.6455L78.9883 60.6505L78.9876 60.6527C78.9873 60.6536 78.987 60.6545 77.6476 60.2045C78.2459 61.4845 78.2458 61.4846 78.2458 61.4846L78.2432 61.4858L78.2114 61.5006L78.1183 61.5437C78.0384 61.5806 77.9242 61.6331 77.7859 61.696C77.5098 61.8214 77.1347 61.9897 76.7423 62.1587C76.3533 62.3263 75.9322 62.5012 75.5689 62.6365C75.3886 62.7036 75.2045 62.7678 75.0363 62.8171C74.9172 62.8519 74.6451 62.9305 74.3605 62.9305C73.5802 62.9305 72.9476 62.2979 72.9476 61.5175C72.9476 60.7847 73.5053 60.1823 74.2194 60.1114C74.226 60.1096 74.2334 60.1075 74.2418 60.105C74.3186 60.0825 74.4325 60.0441 74.5827 59.9881C74.8805 59.8773 75.2513 59.7239 75.6243 59.5633C75.9197 59.436 76.207 59.3082 76.4461 59.2004C76.4973 58.9517 76.5514 58.631 76.5883 58.2567C76.6833 57.2913 76.6592 56.0166 76.2186 54.7067C75.7851 53.4175 74.9343 52.0484 73.296 50.8682C71.6421 49.6767 69.1205 48.6321 65.2858 48.1263C65.106 48.1026 64.9325 48.0446 64.7748 47.9553C57.7557 43.9841 53.8221 42.1454 51.6729 41.3014C50.598 40.8793 50.0026 40.7193 49.7126 40.6608C49.6372 40.6456 49.5876 40.6383 49.5597 40.6348C49.531 40.6366 49.5023 40.6375 49.4736 40.6375H26.2752C26.3475 41.0805 26.2058 41.5441 25.8711 41.8731L25.8679 41.8764L25.8445 41.8999C25.8224 41.9224 25.7875 41.9582 25.7416 42.0066C25.6497 42.1035 25.5144 42.2499 25.3502 42.4389C25.0205 42.8183 24.5809 43.3613 24.1433 44.0124C23.2391 45.3578 22.4736 46.9736 22.4736 48.4825V60.3175H23.7006C24.4809 60.3175 25.1136 60.9501 25.1136 61.7305C25.1136 62.5109 24.4809 63.1435 23.7006 63.1435H21.0606C20.2802 63.1435 19.6476 62.5109 19.6476 61.7305V48.4825C19.6476 46.1253 20.792 43.9327 21.7978 42.4361C22.2801 41.7184 22.7607 41.1168 23.1367 40.6783L22.7043 39.9352C22.45 39.4981 22.4486 38.9585 22.7006 38.5201C22.9527 38.0817 23.4199 37.8115 23.9256 37.8115H49.401C49.4748 37.8061 49.5515 37.805 49.6317 37.8077C49.8068 37.8137 50.0156 37.839 50.2716 37.8907C50.78 37.9932 51.5425 38.2141 52.7059 38.671C55.0074 39.5748 59.0074 41.4541 65.9297 45.3619ZM24.8806 40.8655L25.8711 41.8731C25.8711 41.8731 25.8712 41.8731 25.8711 41.8731C25.8709 41.8733 25.8663 41.8693 24.8806 40.8655ZM77.6476 60.2045L78.2458 61.4846C78.5959 61.3209 78.8639 61.0209 78.987 60.6545L77.6476 60.2045Z" fill="#1C3553"/>
<path fill-rule="evenodd" clip-rule="evenodd" d="M56.5818 22.585C56.5818 21.8358 57.1891 21.2285 57.9383 21.2285H79.0873C79.8364 21.2285 80.4438 21.8358 80.4438 22.585V42.612C80.4438 43.3612 79.8364 43.9685 79.0873 43.9685H59.8613C59.1121 43.9685 58.5048 43.3612 58.5048 42.612C58.5048 42.5954 58.5051 42.5789 58.5056 42.5625C58.333 42.6421 58.1408 42.6865 57.9383 42.6865C57.1891 42.6865 56.5818 42.0792 56.5818 41.33V22.585ZM59.2939 41.3795C59.4665 41.2999 59.6587 41.2555 59.8613 41.2555H77.7308V23.9415H59.2948V41.33C59.2948 41.3466 59.2945 41.3631 59.2939 41.3795Z" fill="#1C3553"/>
</svg>
