<svg width="96" height="96" viewBox="0 0 96 96" fill="none" xmlns="http://www.w3.org/2000/svg">
<path fill-rule="evenodd" clip-rule="evenodd" d="M8.49609 57.0283C8.49609 55.9238 9.39152 55.0283 10.4961 55.0283H19C20.1046 55.0283 21 55.9238 21 57.0283C21 58.1329 20.1046 59.0283 19 59.0283H12.4961V66.6701H86.7183V59.0283H75C73.8954 59.0283 73 58.1329 73 57.0283C73 55.9238 73.8954 55.0283 75 55.0283H88.7183C89.8229 55.0283 90.7183 55.9238 90.7183 57.0283V68.6701C90.7183 69.7747 89.8229 70.6701 88.7183 70.6701H10.4961C9.39152 70.6701 8.49609 69.7747 8.49609 68.6701V57.0283Z" fill="#1895FF"/>
<path fill-rule="evenodd" clip-rule="evenodd" d="M67.2678 36.976C71.8076 37.6679 75.1349 39.0672 77.5293 40.9082C80.0118 42.817 81.3837 45.1188 82.0824 47.336C82.7726 49.5265 82.7952 51.594 82.6573 53.0892C82.5878 53.8422 82.4761 54.4667 82.3792 54.9116C82.3306 55.1346 82.2854 55.314 82.2506 55.4435C82.2331 55.5083 82.2182 55.5607 82.2067 55.6L82.1921 55.6491L82.1869 55.6661L82.1839 55.6755C82.1835 55.6768 82.1832 55.678 80.2755 55.0774L81.1518 56.8752L81.1062 56.8973L80.9821 56.9574C80.8756 57.0088 80.7235 57.0819 80.5394 57.1695C80.1722 57.3444 79.6743 57.5788 79.1567 57.8143C78.6436 58.0478 78.0914 58.2914 77.6217 58.48C77.3892 58.5733 77.1513 58.6636 76.9356 58.7337L76.9227 58.7379C76.7888 58.7816 76.3943 58.9104 75.9786 58.9104C74.874 58.9104 73.9786 58.015 73.9786 56.9104C73.9786 55.901 74.7264 55.0663 75.6981 54.9299C75.6985 54.9298 75.6978 54.93 75.6981 54.9299C75.7909 54.8998 75.9358 54.8465 76.1313 54.768C76.5176 54.6129 77.006 54.3983 77.5 54.1735C77.8717 54.0043 78.2354 53.8346 78.5442 53.6887C78.5921 53.4201 78.6399 53.0934 78.6742 52.7217C78.7796 51.5789 78.7519 50.0762 78.2673 48.5382C77.7911 47.027 76.8635 45.4419 75.0912 44.0792C73.3021 42.7036 70.5471 41.4749 66.3006 40.8769C66.0334 40.8393 65.7765 40.7479 65.5455 40.6084C57.6585 35.845 53.2561 33.6505 50.8694 32.65C49.6753 32.1495 49.0359 31.9693 48.7504 31.9078C48.7114 31.8994 48.6813 31.8937 48.6592 31.8899C48.6356 31.8907 48.612 31.8912 48.5884 31.8912H22.9295C22.9221 32.3825 22.734 32.8666 22.3789 33.2399C22.3786 33.2403 22.3793 33.2396 22.3789 33.2399L22.3756 33.2435L22.3514 33.2695C22.3279 33.295 22.2901 33.3364 22.2399 33.3928C22.1395 33.5058 21.9905 33.6779 21.8091 33.9006C21.4447 34.3481 20.958 34.9897 20.4737 35.7589C19.4704 37.3521 18.6328 39.2484 18.6328 41.006V54.9104H22C23.1046 54.9104 24 55.8058 24 56.9104C24 58.015 23.1046 58.9104 22 58.9104H16.6328C15.5282 58.9104 14.6328 58.015 14.6328 56.9104V41.006C14.6328 38.1218 15.9437 35.4459 17.0889 33.6274C17.5971 32.8203 18.1037 32.1338 18.5164 31.6127L18.0998 30.8482C17.7621 30.2285 17.776 29.4767 18.1363 28.8699C18.4967 28.2631 19.1502 27.8911 19.8559 27.8911H48.488C48.5858 27.8844 48.6847 27.8833 48.7847 27.887C49.0185 27.8955 49.2836 27.9309 49.5926 27.9974C50.2048 28.1293 51.0925 28.4063 52.4158 28.961C55.0252 30.0548 59.5235 32.3121 67.2678 36.976ZM75.6201 54.9526C75.6208 54.952 75.6327 54.9485 75.6539 54.9437C75.6301 54.9508 75.6195 54.9532 75.6201 54.9526ZM80.2755 55.0774L81.1518 56.8752C81.6452 56.6346 82.0183 56.2017 82.1832 55.678L80.2755 55.0774Z" fill="#1C3553"/>
<path fill-rule="evenodd" clip-rule="evenodd" d="M68 59.0003H32V55.0002H68V59.0003Z" fill="#1C3553"/>
<path fill-rule="evenodd" clip-rule="evenodd" d="M71.4956 45.51C71.4956 44.4054 72.391 43.51 73.4956 43.51H79.0689C80.1735 43.51 81.0689 44.4054 81.0689 45.51C81.0689 46.6146 80.1735 47.51 79.0689 47.51H73.4956C72.391 47.51 71.4956 46.6146 71.4956 45.51Z" fill="#1C3553"/>
<path fill-rule="evenodd" clip-rule="evenodd" d="M25.126 29.5553C25.8437 29.5366 26.4407 30.1033 26.4593 30.8211L26.6877 39.6123H62.8387L65.4386 37.2728C65.9724 36.7926 66.7943 36.8359 67.2746 37.3697C67.7548 37.9034 67.7115 38.7253 67.1777 39.2056L64.2071 41.8786C63.9684 42.0934 63.6586 42.2123 63.3375 42.2123H25.4211C24.7163 42.2123 24.1398 41.6506 24.1215 40.946L23.8602 30.8886C23.8415 30.1709 24.4083 29.5739 25.126 29.5553Z" fill="#1C3553"/>
<path fill-rule="evenodd" clip-rule="evenodd" d="M38.6953 29.3862C39.3149 29.0235 40.1112 29.2317 40.474 29.8513L45.9264 39.1644C46.2892 39.784 46.0809 40.5803 45.4613 40.9431C44.8418 41.3058 44.0454 41.0976 43.6827 40.478L38.2302 31.1649C37.8675 30.5453 38.0757 29.749 38.6953 29.3862Z" fill="#1C3553"/>
<path fill-rule="evenodd" clip-rule="evenodd" d="M43.9935 45.8701C43.9935 45.1521 44.5756 44.5701 45.2935 44.5701H46.8384C47.5564 44.5701 48.1384 45.1521 48.1384 45.8701C48.1384 46.588 47.5564 47.1701 46.8384 47.1701H45.2935C44.5756 47.1701 43.9935 46.588 43.9935 45.8701Z" fill="#1C3553"/>
<path fill-rule="evenodd" clip-rule="evenodd" d="M15.4119 45.51C15.4119 44.4054 16.3073 43.51 17.4119 43.51H21.4919C22.5964 43.51 23.4919 44.4054 23.4919 45.51C23.4919 46.6146 22.5964 47.51 21.4919 47.51H17.4119C16.3073 47.51 15.4119 46.6146 15.4119 45.51Z" fill="#1C3553"/>
<path fill-rule="evenodd" clip-rule="evenodd" d="M27.1023 54.7786C25.8102 54.7786 24.8392 55.7899 24.8392 56.9508C24.8392 58.1081 25.8102 59.1212 27.1023 59.1212C28.3944 59.1212 29.3655 58.1081 29.3655 56.9508C29.3655 55.7899 28.3944 54.7786 27.1023 54.7786ZM20.8392 56.9508C20.8392 53.4994 23.6833 50.7786 27.1023 50.7786C30.5214 50.7786 33.3655 53.4994 33.3655 56.9508C33.3655 60.3986 30.5214 63.1212 27.1023 63.1212C23.6833 63.1212 20.8392 60.3986 20.8392 56.9508Z" fill="#1C3553"/>
<path fill-rule="evenodd" clip-rule="evenodd" d="M70.4802 54.7786C69.188 54.7786 68.217 55.7899 68.217 56.9508C68.217 58.1081 69.188 59.1212 70.4802 59.1212C71.7723 59.1212 72.7433 58.1081 72.7433 56.9508C72.7433 55.7899 71.7723 54.7786 70.4802 54.7786ZM64.217 56.9508C64.217 53.4994 67.0611 50.7786 70.4802 50.7786C73.8992 50.7786 76.7433 53.4994 76.7433 56.9508C76.7433 60.3986 73.8992 63.1212 70.4802 63.1212C67.0611 63.1212 64.217 60.3986 64.217 56.9508Z" fill="#1C3553"/>
</svg>
