<svg width="96" height="97" viewBox="0 0 96 97" fill="none" xmlns="http://www.w3.org/2000/svg">
<path fill-rule="evenodd" clip-rule="evenodd" d="M12.3753 51.2007V53.0007L10.6676 52.4316L11.0778 51.2007H12.3753ZM23.9039 51.4309L13.5458 51.2007H12.3753V53.0007C10.6676 52.4316 10.6678 52.4313 10.6676 52.4316L10.6667 52.4344L10.6657 52.4375L10.6634 52.4444L10.6579 52.4615C10.6538 52.4743 10.6489 52.4899 10.6434 52.5082C10.6323 52.5447 10.6184 52.5921 10.6028 52.6495C10.5716 52.7639 10.533 52.9193 10.4952 53.1081C10.4245 53.462 10.3533 53.9502 10.3459 54.5153C10.3437 54.5375 10.3413 54.5635 10.3386 54.593C10.3289 54.6993 10.3159 54.8521 10.3018 55.0478C10.2736 55.439 10.2407 56.0024 10.2202 56.7099C10.179 58.1236 10.1867 60.119 10.3801 62.4694C10.7653 67.1522 11.8948 73.3378 14.9207 79.1487L15.4251 80.1174H23.6505C25.5617 80.1174 27.0554 78.6265 27.0612 76.7174L27.0649 76.3674C27.2327 76.4234 27.4087 76.4822 27.5923 76.5436C29.2277 77.09 31.4634 77.8378 33.8643 78.643C38.6706 80.2551 44.1251 82.0928 46.7598 83.0094C52.4932 85.004 57.7147 82.3158 59.7486 81.2686C59.8884 81.1966 60.0131 81.1324 60.1219 81.078C61.9978 80.1399 77.4465 71.8369 79.9678 70.4613C82.8046 68.9136 84.5112 66.2725 83.5383 63.8399C83.0314 62.5723 81.8164 61.7627 80.5204 61.4387C79.1821 61.104 77.592 61.2224 75.9225 61.9095C74.6368 62.3766 71.2861 63.5695 68.2348 64.6533C67.2541 65.0017 66.3055 65.3384 65.4681 65.6354C65.2318 62.8661 62.9884 60.6369 60.2371 60.6369H50.5926C50.5825 60.6364 50.5607 60.6351 50.5299 60.6319C50.461 60.6248 50.3637 60.6103 50.26 60.5826C50.1543 60.5544 50.0696 60.5199 50.0098 60.4858C49.9605 60.4576 49.9439 60.4388 49.9419 60.4364L49.8918 60.3696L49.8357 60.3077C46.0307 56.1082 39.867 54.6155 35.0346 54.0882C32.563 53.8185 30.3166 53.7891 28.6896 53.8263C28.0927 53.84 27.5768 53.8627 27.1611 53.8861C26.76 52.459 25.4749 51.4409 23.9039 51.4309ZM23.6893 55.027L13.9343 54.8102L13.9325 54.8281C13.9306 54.8471 13.9275 54.878 13.9237 54.9202C13.916 55.0047 13.9049 55.1347 13.8925 55.3067C13.8677 55.6509 13.8376 56.1627 13.8186 56.8146C13.7807 58.1195 13.7874 59.9792 13.9679 62.1743C14.3083 66.3119 15.2599 71.5587 17.6303 76.5174H23.4631L23.6893 55.027ZM27.2636 57.4862C27.6576 57.4629 28.1684 57.4392 28.7719 57.4254C30.2873 57.3907 32.3697 57.4188 34.6441 57.667C39.2794 58.1727 44.2484 59.5453 47.1234 62.6761C47.8072 63.5372 48.7321 63.9009 49.3323 64.061C49.6601 64.1485 49.9511 64.1914 50.1625 64.2131C50.2697 64.2241 50.3602 64.23 50.4294 64.2332C50.4641 64.2348 50.4937 64.2357 50.5177 64.2363L50.5496 64.2368L50.5623 64.2369L50.5678 64.2369L50.5703 64.2369L50.5716 64.2369C50.5722 64.2369 50.5727 64.2369 50.5727 62.4369V64.2369H60.2371C61.009 64.2369 61.8887 64.9655 61.8887 66.1193C61.8887 67.197 61.0835 68.0018 60.0071 68.0018H43.6696C42.6755 68.0018 41.8696 68.8077 41.8696 69.8018C41.8696 70.7959 42.6755 71.6018 43.6696 71.6018H60.0071C61.5382 71.6018 62.9073 70.9987 63.8943 70.0131L65.3653 69.4916C66.4405 69.1104 67.9006 68.5924 69.4398 68.0457C72.5143 66.9536 75.9163 65.7425 77.1899 65.2793L77.2288 65.2651L77.267 65.2492C78.3441 64.8003 79.1553 64.8082 79.6471 64.9311C79.9912 65.0172 80.1381 65.1391 80.1879 65.1878C80.1845 65.3405 80.1576 66.2569 78.2437 67.301C75.7027 68.6873 60.3174 76.9552 58.5116 77.8582C58.4033 77.9124 58.2886 77.9705 58.1679 78.0316C56.0721 79.0931 52.1575 81.0756 47.9427 79.6093C45.285 78.6847 39.8096 76.84 35.009 75.2299C32.6065 74.4241 30.3695 73.6759 28.7331 73.1291C28.0881 72.9136 27.5364 72.7294 27.1047 72.5853L27.2636 57.4862Z" fill="#1895FF"/>
<path fill-rule="evenodd" clip-rule="evenodd" d="M55.4599 14.012C56.5675 13.8993 57.4381 14.4904 58.0452 15.0598L58.0457 15.0603C58.7786 15.7481 61.3595 18.168 64.6211 21.2263C71.6252 27.7935 81.7685 37.3043 83.4937 38.9284C83.4937 38.9284 83.4937 38.9284 83.4937 38.9285L83.5115 38.9452C83.7103 39.132 84.1327 39.529 84.402 40.0729C84.7481 40.772 84.794 41.5841 84.4464 42.3923L84.4453 42.395C84.1279 43.1294 83.5844 43.6463 82.9126 43.9257C82.3276 44.169 81.7467 44.1874 81.3859 44.185L81.3852 44.185C79.7664 44.1737 78.1457 44.1749 76.5218 44.182C76.5209 49.0478 76.5209 53.624 76.5209 58.5008C76.5209 59.4949 75.715 60.3008 74.7209 60.3008C73.7268 60.3008 72.9209 59.4949 72.9209 58.5008C72.9209 53.5429 72.9209 48.8952 72.9219 43.9381M55.4599 14.012C54.3528 13.8994 53.4815 14.4896 52.8735 15.0598L52.8731 15.0603C52.1488 15.74 49.6203 18.1109 46.4136 21.1178C39.4063 27.6884 29.1605 37.2956 27.426 38.9285L28.6599 40.239L27.4277 38.9269C27.4222 38.932 27.4166 38.9373 27.4108 38.9428C27.2109 39.1303 26.787 39.5277 26.5171 40.0736C26.1709 40.7734 26.1262 41.5853 26.4734 42.3923L26.4735 42.3927C26.7905 43.1292 27.3351 43.6465 28.0071 43.9258C28.5921 44.169 29.1731 44.1874 29.5339 44.185L29.5345 44.185C31.1537 44.1737 32.7747 44.1749 34.398 44.182C34.3989 46.5881 34.3989 48.0211 34.3989 50.4934V50.5007C34.3989 51.4948 35.2048 52.3007 36.1989 52.3007C37.193 52.3007 37.9989 51.4948 37.9989 50.5007C37.9989 47.9419 37.9989 46.4961 37.9979 43.9381M55.3367 17.6852C54.6098 18.3675 52.0764 20.743 48.8654 23.7539C42.7401 29.4974 34.149 37.5531 30.9274 40.5782C32.1712 40.5746 33.4135 40.5773 34.6533 40.5831C35.3479 40.5862 36.3619 40.6907 37.13 41.4614C37.8986 42.2328 37.9978 43.2469 37.9979 43.9374M29.7004 41.7436C29.6995 41.7448 29.699 41.7454 29.699 41.7454C29.699 41.7454 29.6994 41.7448 29.7004 41.7436ZM55.3367 17.6852C55.356 17.6671 55.3738 17.6509 55.3902 17.6364C55.4363 17.6382 55.4825 17.6382 55.5287 17.6364C55.545 17.6509 55.5628 17.6671 55.5821 17.6852C56.3177 18.3756 58.9033 20.8 62.1691 23.8621C68.2867 29.5982 76.7909 37.572 79.9923 40.5782C78.7485 40.5746 77.506 40.5773 76.2655 40.5831C75.571 40.5862 74.5566 40.6906 73.7887 41.4621C73.0205 42.2338 72.9219 43.2481 72.9219 43.9377" fill="#1C3553"/>
<path fill-rule="evenodd" clip-rule="evenodd" d="M47 46.0007V50.0008H49V46.0007H47ZM46 44.0007C45.4477 44.0007 45 44.4484 45 45.0007V51.0008C45 51.5531 45.4477 52.0008 46 52.0008H50C50.5523 52.0008 51 51.5531 51 51.0008V45.0007C51 44.4484 50.5523 44.0007 50 44.0007H46Z" fill="#1C3553"/>
<path fill-rule="evenodd" clip-rule="evenodd" d="M62 46.0007V50.0008H64V46.0007H62ZM61 44.0007C60.4477 44.0007 60 44.4484 60 45.0007V51.0008C60 51.5531 60.4477 52.0008 61 52.0008H65C65.5523 52.0008 66 51.5531 66 51.0008V45.0007C66 44.4484 65.5523 44.0007 65 44.0007H61Z" fill="#1C3553"/>
<path fill-rule="evenodd" clip-rule="evenodd" d="M34.8897 30.182C34.8897 30.182 34.8767 25.1379 34.8807 21.4179C34.8827 20.4119 35.2817 20.0129 36.2887 20.0069C37.7937 19.9989 39.2997 19.9969 40.8057 20.0079C41.7927 20.0139 42.1977 20.4389 42.2057 21.4429C42.2117 22.3069 42.1867 22.2629 42.2157 23.1249L34.8897 30.182Z" fill="#1C3553"/>
</svg>
