<svg width="96" height="96" viewBox="0 0 96 96" fill="none" xmlns="http://www.w3.org/2000/svg">
<path fill-rule="evenodd" clip-rule="evenodd" d="M55.0761 6.01275C56.1282 5.89994 56.961 6.45835 57.5588 7.01903L57.5592 7.01944C58.2921 7.70722 60.8719 10.1261 64.1325 13.1832C71.1367 19.7505 81.2821 29.2629 83.0071 30.8869L83.0227 30.9016C83.2213 31.0883 83.6267 31.4695 83.8838 31.9886C84.2106 32.6487 84.2549 33.4149 83.9248 34.1822L83.9237 34.1847C83.6218 34.8834 83.1071 35.3719 82.4712 35.6364C81.9149 35.8677 81.3588 35.8866 81.0031 35.8842L81.0025 35.8842C79.3332 35.8725 77.6623 35.8742 75.9881 35.8818C75.9876 38.2946 75.9873 39.4101 75.9872 40.5257C75.9871 41.6558 75.9871 42.786 75.9871 45.2651C75.9871 46.1764 75.2484 46.9151 74.3371 46.9151C73.4258 46.9151 72.6871 46.1764 72.6871 45.2651C72.6871 42.7858 72.6871 41.6555 72.6872 40.5253C72.6873 39.3953 72.6876 38.2653 72.6881 35.7872M55.0761 6.01275C54.0244 5.9 53.1909 6.45766 52.5924 7.01903L52.5919 7.01944C51.8675 7.69936 49.3382 10.0709 46.1308 13.0784C39.1235 19.6487 28.8793 29.2542 27.1451 30.8869L27.1319 30.8993C26.9322 31.0866 26.5254 31.4682 26.2677 31.9893C25.9409 32.65 25.8977 33.4159 26.2274 34.1822L26.2275 34.1826C26.5291 34.8831 27.0448 35.3721 27.6809 35.6365C28.2372 35.8677 28.7934 35.8866 29.1491 35.8842L29.1497 35.8842C30.8192 35.8725 32.4906 35.8742 34.1641 35.8818C34.1651 38.4099 34.1651 41.0588 34.1651 43.5855V43.5891C34.1651 44.5004 34.9038 45.2391 35.8151 45.2391C36.7264 45.2391 37.4651 44.5004 37.4651 43.5891V43.5818C37.4651 41.0253 37.4651 38.3429 37.4641 35.7872M54.8502 9.42569C54.1233 10.108 51.5892 12.484 48.3774 15.4956C42.0669 21.4126 33.1403 29.7827 30.1635 32.5786C31.5338 32.5733 32.9027 32.5758 34.2688 32.5823C34.9537 32.5853 35.9155 32.6895 36.6399 33.4165C37.3648 34.1439 37.464 35.1058 37.4641 35.7866M54.8502 9.42569C54.8904 9.38806 54.9249 9.35758 54.9542 9.33306C55.035 9.33905 55.1162 9.33907 55.1971 9.33313C55.2263 9.35765 55.2608 9.38812 55.3009 9.42569C56.0364 10.116 58.6219 12.5401 61.8875 15.602C68.1913 21.5125 77.0296 29.7994 79.9887 32.5786C78.6183 32.5733 77.2492 32.5758 75.8824 32.5823C75.1976 32.5853 74.2354 32.6895 73.5112 33.4171C72.7867 34.1449 72.6881 35.1069 72.6881 35.7869" fill="#1C3553"/>
<path fill-rule="evenodd" clip-rule="evenodd" d="M46 39.9995V43.9994H48V39.9995H46ZM45 37.9995C44.4477 37.9995 44 38.4472 44 38.9995V44.9994C44 45.5517 44.4477 45.9994 45 45.9994H49C49.5523 45.9994 50 45.5517 50 44.9994V38.9995C50 38.4472 49.5523 37.9995 49 37.9995H45Z" fill="#1C3553"/>
<path fill-rule="evenodd" clip-rule="evenodd" d="M62 39.9995V43.9994H64V39.9995H62ZM61 37.9995C60.4477 37.9995 60 38.4472 60 38.9995V44.9994C60 45.5517 60.4477 45.9994 61 45.9994H65C65.5523 45.9994 66 45.5517 66 44.9994V38.9995C66 38.4472 65.5523 37.9995 65 37.9995H61Z" fill="#1C3553"/>
<path fill-rule="evenodd" clip-rule="evenodd" d="M34.1982 22.016C34.1982 22.016 34.1852 16.1371 34.1892 12.4171C34.1912 11.4111 34.5902 11.0121 35.5972 11.0061C37.1022 10.9981 38.6082 10.9971 40.1142 11.0071C41.1012 11.0141 41.5062 11.4381 41.5142 12.4431C41.5202 13.3061 41.4952 14.0971 41.5242 14.9591L34.1982 22.016Z" fill="#1C3553"/>
<path fill-rule="evenodd" clip-rule="evenodd" d="M12 29.5431C12 28.5766 12.7835 27.7931 13.75 27.7931C14.1365 27.7931 14.5874 27.9061 14.8656 27.9787C15.2213 28.0715 15.6476 28.1986 16.1051 28.3431C17.0235 28.6331 18.1387 29.0156 19.2074 29.3928C20.2793 29.7711 21.318 30.1488 22.0878 30.4316C22.473 30.5731 22.7915 30.6911 23.014 30.7738L23.2721 30.8699L23.364 30.9043C23.3641 30.9043 23.3645 30.9045 22.75 32.5431L23.364 30.9043C23.8832 31.099 24.2798 31.5284 24.4324 32.0615L27.6032 43.139C27.7 43.1238 27.7994 43.1166 27.9007 43.1181L75.7747 43.7931C76.2673 43.8 76.7342 44.0143 77.0606 44.3833C77.3871 44.7523 77.5429 45.2418 77.4898 45.7316L75.4898 64.1743C75.3935 65.0626 74.6435 65.7357 73.75 65.7357H31.75C30.969 65.7357 30.2825 65.2181 30.0676 64.4672L21.3111 33.8754C21.18 33.827 21.036 33.7739 20.881 33.717C20.1195 33.4373 19.0957 33.065 18.0426 32.6933C16.9863 32.3205 15.914 31.9531 15.0512 31.6806C14.618 31.5438 14.2553 31.4366 13.9821 31.3653C13.7591 31.3071 13.6706 31.2938 13.6709 31.2917C13.6709 31.2915 13.6715 31.2914 13.6727 31.2914C12.7421 31.251 12 30.4837 12 29.5431ZM28.602 46.6283L33.0694 62.2357H72.1795L73.8029 47.2656L28.602 46.6283Z" fill="#1895FF"/>
<path fill-rule="evenodd" clip-rule="evenodd" d="M28.0198 50.5801L76.0194 51.5193L75.9803 53.5189L27.9806 52.5798L28.0198 50.5801Z" fill="#1895FF"/>
<path fill-rule="evenodd" clip-rule="evenodd" d="M29.5114 56.4882L75.5113 57.0109L75.4886 59.0108L29.4887 58.488L29.5114 56.4882Z" fill="#1895FF"/>
<path fill-rule="evenodd" clip-rule="evenodd" d="M40.2845 45.8229L44.1767 65.2838L42.2155 65.6761L38.3233 46.2151L40.2845 45.8229Z" fill="#1895FF"/>
<path fill-rule="evenodd" clip-rule="evenodd" d="M52.4109 45.9178L54.0817 65.4103L52.089 65.5811L50.4182 46.0887L52.4109 45.9178Z" fill="#1895FF"/>
<path fill-rule="evenodd" clip-rule="evenodd" d="M64 45.9996V65.4994H62V45.9996H64Z" fill="#1895FF"/>
<path fill-rule="evenodd" clip-rule="evenodd" d="M33.5999 62.456C34.4448 62.9253 34.7491 63.9907 34.2798 64.8356L29.7281 73.0286L29.8316 73.2356H73.75C74.4128 73.2356 75.0188 73.6101 75.3152 74.203L77.3152 78.2029C77.7475 79.0674 77.3971 80.1185 76.5326 80.5508C75.6682 80.983 74.617 80.6326 74.1848 79.7682L72.6684 76.7356H28.75C28.0872 76.7356 27.4812 76.3611 27.1848 75.7682L26.1848 73.7682C25.9264 73.2516 25.9397 72.6407 26.2202 72.1357L31.2202 63.1358C31.6896 62.291 32.755 61.9866 33.5999 62.456Z" fill="#1895FF"/>
<path fill-rule="evenodd" clip-rule="evenodd" d="M26.9996 84.1964C26.9996 81.0739 29.5311 78.5424 32.6536 78.5424C35.7767 78.5424 38.3066 81.0744 38.3066 84.1964C38.3066 87.3176 35.7764 89.8494 32.6536 89.8494C29.5314 89.8494 26.9996 87.3181 26.9996 84.1964ZM32.6536 82.0424C31.4641 82.0424 30.4996 83.0069 30.4996 84.1964C30.4996 85.3846 31.4638 86.3494 32.6536 86.3494C33.8428 86.3494 34.8066 85.3852 34.8066 84.1964C34.8066 83.0063 33.8425 82.0424 32.6536 82.0424Z" fill="#1895FF"/>
<path fill-rule="evenodd" clip-rule="evenodd" d="M61.0004 84.1964C61.0004 81.0744 63.5303 78.5424 66.6534 78.5424C69.7759 78.5424 72.3074 81.0739 72.3074 84.1964C72.3074 87.3181 69.7756 89.8494 66.6534 89.8494C63.5306 89.8494 61.0004 87.3176 61.0004 84.1964ZM66.6534 82.0424C65.4645 82.0424 64.5004 83.0063 64.5004 84.1964C64.5004 85.3852 65.4642 86.3494 66.6534 86.3494C67.8432 86.3494 68.8074 85.3846 68.8074 84.1964C68.8074 83.0069 67.8429 82.0424 66.6534 82.0424Z" fill="#1895FF"/>
</svg>
