<svg width="96" height="96" viewBox="0 0 96 96" fill="none" xmlns="http://www.w3.org/2000/svg">
<path fill-rule="evenodd" clip-rule="evenodd" d="M55.0761 6.01269C56.1282 5.89988 56.961 6.45829 57.5588 7.01897L57.5592 7.01938C58.2921 7.70716 60.8719 10.126 64.1325 13.1832C71.1367 19.7504 81.2821 29.2629 83.0071 30.8868L83.0227 30.9015C83.2214 31.0883 83.6267 31.4694 83.8838 31.9886C84.2106 32.6486 84.2549 33.4148 83.9248 34.1822L83.9238 34.1846C83.6219 34.8833 83.1071 35.3719 82.4712 35.6363C81.9149 35.8676 81.3589 35.8865 81.0031 35.8841L81.0025 35.8841C79.3333 35.8724 77.6623 35.8741 75.9881 35.8817C75.9876 38.2945 75.9873 39.4101 75.9872 40.5256C75.9871 41.6558 75.9871 42.7859 75.9871 45.265C75.9871 46.1763 75.2484 46.915 74.3371 46.915C73.4258 46.915 72.6871 46.1763 72.6871 45.265C72.6871 42.7858 72.6871 41.6555 72.6872 40.5252C72.6873 39.3952 72.6876 38.2652 72.6881 35.7872M55.0761 6.01269C54.0244 5.89994 53.191 6.4576 52.5924 7.01897L52.5919 7.01938C51.8675 7.6993 49.3382 10.0708 46.1308 13.0783C39.1235 19.6487 28.8793 29.2542 27.1451 30.8868L27.1319 30.8992C26.9322 31.0865 26.5254 31.4682 26.2677 31.9892C25.9409 32.6499 25.8977 33.4158 26.2274 34.1822L26.2275 34.1826C26.5291 34.8831 27.0448 35.372 27.6809 35.6364C28.2372 35.8676 28.7934 35.8865 29.1491 35.8841L29.1497 35.8841C30.8193 35.8724 32.4906 35.8741 34.1641 35.8817C34.1651 38.4099 34.1651 41.0588 34.1651 43.5854V43.5891C34.1651 44.5003 34.9038 45.2391 35.8151 45.2391C36.7264 45.2391 37.4651 44.5003 37.4651 43.5891V43.5818C37.4651 41.0253 37.4651 38.3429 37.4641 35.7872M54.8503 9.42563C54.1233 10.1079 51.5892 12.484 48.3774 15.4955C42.067 21.4125 33.1403 29.7826 30.1635 32.5786C31.5339 32.5732 32.9027 32.5758 34.2688 32.5822C34.9537 32.5852 35.9156 32.6895 36.6399 33.4164C37.3648 34.1439 37.464 35.1057 37.4641 35.7865M54.8503 9.42563C54.8904 9.388 54.9249 9.35752 54.9542 9.333C55.0351 9.33899 55.1162 9.33901 55.1971 9.33307C55.2263 9.35759 55.2609 9.38806 55.3009 9.42563C56.0365 10.1159 58.6219 12.5401 61.8875 15.602C68.1913 21.5125 77.0296 29.7993 79.9887 32.5786C78.6183 32.5732 77.2493 32.5758 75.8824 32.5822C75.1976 32.5852 74.2354 32.6894 73.5112 33.417C72.7867 34.1448 72.6881 35.1069 72.6881 35.7868" fill="#1C3553"/>
<path fill-rule="evenodd" clip-rule="evenodd" d="M46 39.9995V43.9994H48V39.9995H46ZM45 37.9995C44.4477 37.9995 44 38.4472 44 38.9995V44.9994C44 45.5517 44.4477 45.9994 45 45.9994H49C49.5523 45.9994 50 45.5517 50 44.9994V38.9995C50 38.4472 49.5523 37.9995 49 37.9995H45Z" fill="#1C3553"/>
<path fill-rule="evenodd" clip-rule="evenodd" d="M62 39.9995V43.9994H64V39.9995H62ZM61 37.9995C60.4477 37.9995 60 38.4472 60 38.9995V44.9994C60 45.5517 60.4477 45.9994 61 45.9994H65C65.5523 45.9994 66 45.5517 66 44.9994V38.9995C66 38.4472 65.5523 37.9995 65 37.9995H61Z" fill="#1C3553"/>
<path fill-rule="evenodd" clip-rule="evenodd" d="M34.1982 22.0159C34.1982 22.0159 34.1852 16.1369 34.1892 12.417C34.1912 11.411 34.5902 11.012 35.5972 11.006C37.1022 10.998 38.6082 10.997 40.1142 11.007C41.1012 11.014 41.5062 11.438 41.5142 12.443C41.5202 13.306 41.4952 14.097 41.5242 14.959L34.1982 22.0159Z" fill="#1C3553"/>
<path fill-rule="evenodd" clip-rule="evenodd" d="M12 29.543C12 28.5765 12.7835 27.793 13.75 27.793C14.1365 27.793 14.5874 27.906 14.8656 27.9785C15.2213 28.0713 15.6476 28.1985 16.1051 28.3429C17.0235 28.633 18.1387 29.0155 19.2074 29.3927C20.2793 29.771 21.318 30.1487 22.0878 30.4315C22.473 30.573 22.7915 30.691 23.014 30.7737L23.2721 30.8698L23.364 30.9042C23.3641 30.9042 23.3645 30.9044 22.75 32.5429L23.364 30.9042C23.8832 31.0989 24.2798 31.5283 24.4324 32.0614L27.6032 43.1389C27.7 43.1237 27.7994 43.1165 27.9007 43.1179L75.7747 43.7929C76.2673 43.7999 76.7342 44.0142 77.0606 44.3831C77.3871 44.7521 77.5429 45.2416 77.4898 45.7314L75.4898 64.1742C75.3935 65.0625 74.6435 65.7355 73.75 65.7355H31.75C30.969 65.7355 30.2825 65.218 30.0676 64.4671L21.3111 33.8753C21.18 33.8269 21.036 33.7738 20.881 33.7169C20.1195 33.4372 19.0957 33.0649 18.0426 32.6932C16.9863 32.3204 15.914 31.953 15.0512 31.6805C14.618 31.5437 14.2553 31.4365 13.9821 31.3652C13.7591 31.307 13.6706 31.2936 13.6709 31.2916C13.6709 31.2914 13.6715 31.2913 13.6727 31.2913C12.7421 31.2509 12 30.4836 12 29.543ZM28.602 46.6282L33.0694 62.2355H72.1795L73.8029 47.2655L28.602 46.6282Z" fill="#1895FF"/>
<path fill-rule="evenodd" clip-rule="evenodd" d="M28.0197 50.5801L76.0194 51.5192L75.9802 53.5188L27.9806 52.5797L28.0197 50.5801Z" fill="#1895FF"/>
<path fill-rule="evenodd" clip-rule="evenodd" d="M29.5114 56.488L75.5113 57.0108L75.4886 59.0106L52.4886 58.7493L29.4887 58.4879L29.5114 56.488Z" fill="#1895FF"/>
<path fill-rule="evenodd" clip-rule="evenodd" d="M40.2845 45.8228L44.1767 65.2837L42.2155 65.6759L38.3233 46.215L40.2845 45.8228Z" fill="#1895FF"/>
<path fill-rule="evenodd" clip-rule="evenodd" d="M52.4109 45.9177L54.0817 65.4102L52.089 65.581L50.4182 46.0885L52.4109 45.9177Z" fill="#1895FF"/>
<path fill-rule="evenodd" clip-rule="evenodd" d="M64 45.9995V65.4993H62V45.9995H64Z" fill="#1895FF"/>
<path fill-rule="evenodd" clip-rule="evenodd" d="M33.5999 62.4559C34.4448 62.9253 34.7491 63.9907 34.2798 64.8356L29.7281 73.0285L29.8316 73.2355H73.75C74.4128 73.2355 75.0188 73.61 75.3152 74.2029L77.3152 78.2028C77.7475 79.0673 77.3971 80.1185 76.5326 80.5507C75.6682 80.983 74.617 80.6326 74.1848 79.7681L72.6684 76.7355H28.75C28.0872 76.7355 27.4812 76.361 27.1848 75.7682L26.1848 73.7682C25.9264 73.2515 25.9397 72.6406 26.2202 72.1357L31.2202 63.1358C31.6896 62.2909 32.755 61.9865 33.5999 62.4559Z" fill="#1895FF"/>
<path fill-rule="evenodd" clip-rule="evenodd" d="M26.9996 84.1962C26.9996 81.0737 29.5311 78.5422 32.6536 78.5422C35.7767 78.5422 38.3066 81.0743 38.3066 84.1962C38.3066 87.3174 35.7764 89.8492 32.6536 89.8492C29.5314 89.8492 26.9996 87.318 26.9996 84.1962ZM32.6536 82.0422C31.4641 82.0422 30.4996 83.0067 30.4996 84.1962C30.4996 85.3844 31.4638 86.3492 32.6536 86.3492C33.8428 86.3492 34.8066 85.385 34.8066 84.1962C34.8066 83.0062 33.8425 82.0422 32.6536 82.0422Z" fill="#1895FF"/>
<path fill-rule="evenodd" clip-rule="evenodd" d="M61.0004 84.1962C61.0004 81.0743 63.5303 78.5422 66.6534 78.5422C69.7759 78.5422 72.3074 81.0737 72.3074 84.1962C72.3074 87.318 69.7756 89.8492 66.6534 89.8492C63.5306 89.8492 61.0004 87.3174 61.0004 84.1962ZM66.6534 82.0422C65.4645 82.0422 64.5004 83.0062 64.5004 84.1962C64.5004 85.385 65.4642 86.3492 66.6534 86.3492C67.8432 86.3492 68.8074 85.3844 68.8074 84.1962C68.8074 83.0067 67.8429 82.0422 66.6534 82.0422Z" fill="#1895FF"/>
</svg>
