<svg width="96" height="96" viewBox="0 0 96 96" fill="none" xmlns="http://www.w3.org/2000/svg">
<path d="M31 62.6442L35.326 65L34.178 60.56L38 57.5726L32.967 57.1874L31 53L29.033 57.1874L24 57.5726L27.822 60.56L26.674 65L31 62.6442Z" fill="#1895FF"/>
<path d="M47 62.6442L51.326 65L50.178 60.56L54 57.5726L48.967 57.1874L47 53L45.033 57.1874L40 57.5726L43.822 60.56L42.674 65L47 62.6442Z" fill="#1895FF"/>
<path d="M63 62.6442L67.326 65L66.178 60.56L70 57.5726L64.967 57.1874L63 53L61.033 57.1874L56 57.5726L59.822 60.56L58.674 65L63 62.6442Z" fill="#1895FF"/>
<path fill-rule="evenodd" clip-rule="evenodd" d="M29 67C30.1046 67 31 67.8954 31 69H29H27C27 67.8954 27.8954 67 29 67ZM31 71V69H29H27V72.4771C27 72.8124 27.0597 73.3717 27.4487 73.9094C27.8363 74.4454 28.3536 74.6875 28.7114 74.802C29.3056 74.9921 30.041 75 30.6366 75H62.8612C63.4568 75 64.1922 74.9921 64.7864 74.802C65.1442 74.6875 65.6615 74.4454 66.0491 73.9094C66.4381 73.3717 66.4978 72.8124 66.4978 72.4771V69.0005C66.4978 67.896 65.6024 67 64.4978 67C63.3932 67 62.4978 67.8954 62.4978 69V70.9995L31 71Z" fill="#1C3553"/>
<path fill-rule="evenodd" clip-rule="evenodd" d="M48.4362 20.4795L47.1369 22L45.818 20.4965C46.5652 19.841 47.6805 19.8338 48.4362 20.4795ZM73.6833 42.1412C73.6895 42.1471 73.6961 42.1532 73.703 42.1597C73.8912 42.3355 74.3253 42.7408 74.6048 43.304C74.971 44.0418 75.0173 44.9007 74.653 45.7441C74.3223 46.5111 73.7494 47.0541 73.0445 47.3455C72.4365 47.5968 71.8404 47.6126 71.4926 47.61M47.1541 24.6457C46.5354 25.1885 45.7221 25.9023 44.7706 26.7374C42.5527 28.6841 39.5845 31.2901 36.5829 33.9273C32.2545 37.7303 27.8936 41.566 25.5908 43.6028C26.4681 43.6024 27.3446 43.6046 28.2208 43.6084L28.2224 43.6084C28.2495 43.6085 28.2781 43.6086 28.3079 43.6087C28.5264 43.6095 28.8076 43.6105 29.0551 43.63C29.3268 43.6514 29.8245 43.7087 30.3217 43.9858C31.6183 44.7085 31.6702 46.0909 31.671 46.6558L31.671 46.6584L31.671 49.75C31.671 50.8546 30.7755 51.75 29.671 51.75C28.5664 51.75 27.671 50.8546 27.671 49.75V47.6062C26.2491 47.6012 24.8303 47.601 23.4118 47.6097M27.6667 46.5441C27.6667 46.5441 27.6668 46.5448 27.667 46.5464L27.6667 46.5441ZM28.7679 47.6207C28.7676 47.6209 28.7606 47.6203 28.748 47.6182C28.7619 47.6195 28.7682 47.6205 28.7679 47.6207ZM47.1541 24.6457C47.7937 25.1925 48.6395 25.9155 49.6307 26.7632C51.9129 28.7148 54.9662 31.3266 58.0507 33.9677C61.1354 36.609 64.2504 39.2788 66.6564 41.3467C67.677 42.2238 68.569 42.9918 69.2766 43.6031C68.4116 43.6027 67.5472 43.6049 66.6832 43.6087L66.6816 43.6087C66.6545 43.6088 66.6259 43.6089 66.5961 43.609C66.3776 43.6098 66.0964 43.6107 65.8489 43.6303C65.5772 43.6517 65.0795 43.709 64.5823 43.9861C63.2857 44.7087 63.2338 46.0912 63.233 46.6561V49.7531C63.233 50.8577 64.1285 51.7531 65.233 51.7531C66.3376 51.7531 67.233 50.8577 67.233 49.7531V47.6065C68.6549 47.6015 70.074 47.6013 71.4926 47.61M66.1361 47.621C66.1358 47.6208 66.1421 47.6198 66.156 47.6185C66.1434 47.6206 66.1364 47.6212 66.1361 47.621ZM73.6833 42.1412C73.1272 41.6205 66.7768 36.1735 60.6523 30.9294L73.6833 42.1412ZM60.6523 30.9294C57.567 28.2875 54.513 25.6751 52.2304 23.7231L60.6523 30.9294ZM52.2304 23.7231C51.089 22.7472 50.1405 21.9363 49.4774 21.3694L52.2304 23.7231ZM49.4774 21.3694L48.7081 20.7119L49.4774 21.3694ZM48.7081 20.7119L48.5057 20.5389L48.7081 20.7119ZM48.5057 20.5389L48.4538 20.4945L48.5057 20.5389ZM48.4538 20.4945L48.4406 20.4833L48.4538 20.4945ZM48.4406 20.4833L48.4373 20.4805L48.4406 20.4833ZM48.4373 20.4805L48.4362 20.4795L48.4373 20.4805ZM48.4362 20.4795C48.436 20.4794 48.4362 20.4795 47.1369 22L48.4362 20.4795ZM47.1369 22C45.818 20.4965 45.8182 20.4964 45.818 20.4965L47.1369 22ZM45.818 20.4965L45.8169 20.4975L45.818 20.4965ZM45.8169 20.4975L45.8137 20.5003L45.8169 20.4975ZM45.8137 20.5003L45.8009 20.5115L45.8137 20.5003ZM45.8009 20.5115L45.7506 20.5557L45.8009 20.5115ZM45.7506 20.5557L45.5539 20.7282L45.7506 20.5557ZM45.5539 20.7282L44.8068 21.3838L45.5539 20.7282ZM44.8068 21.3838C44.1626 21.949 43.2411 22.7577 42.132 23.7311L44.8068 21.3838ZM42.132 23.7311C39.9138 25.6781 36.945 28.2845 33.9427 30.9223L42.132 23.7311ZM33.9427 30.9223C27.9659 36.1736 21.785 41.6117 21.2195 42.1422L33.9427 30.9223ZM21.2195 42.1422L21.218 42.1435L21.2195 42.1422ZM21.218 42.1435C21.2114 42.1497 21.2043 42.1563 21.1969 42.1633L21.218 42.1435ZM21.1969 42.1633C21.01 42.3384 20.5778 42.7434 20.2994 43.3037L21.1969 42.1633ZM20.2994 43.3037C19.9328 44.0417 19.8868 44.9006 20.2509 45.7438L20.2994 43.3037ZM20.2509 45.7438C20.5817 46.5108 21.1546 47.0538 21.8595 47.3452C22.4675 47.5966 23.0639 47.6123 23.4118 47.6097" fill="#1C3553"/>
</svg>
