<svg width="96" height="96" viewBox="0 0 96 96" fill="none" xmlns="http://www.w3.org/2000/svg">
<path d="M47.5 62.6442L51.826 65L50.678 60.56L54.5 57.5726L49.467 57.1874L47.5 53L45.533 57.1874L40.5 57.5726L44.322 60.56L43.174 65L47.5 62.6442Z" fill="#1895FF"/>
<path fill-rule="evenodd" clip-rule="evenodd" d="M29.153 44.8879C30.2575 44.8879 31.153 45.7834 31.153 46.8879H29.153H27.153C27.153 45.7834 28.0484 44.8879 29.153 44.8879ZM31.219 72.641C31.2174 72.6272 31.2157 72.6131 31.2141 72.5985C31.1734 72.2297 31.153 71.7219 31.153 71.0129V46.8879C31.153 46.8878 31.153 46.8879 29.153 46.8879C27.153 46.8879 27.153 46.8878 27.153 46.8879V71.0129C27.153 71.7714 27.1735 72.4507 27.2383 73.0373C27.3012 73.6072 27.4186 74.2246 27.6875 74.7885C27.9853 75.4129 28.4612 75.952 29.1489 76.2859C29.7695 76.5873 30.4021 76.641 30.8858 76.641H65.006C65.4897 76.641 66.1223 76.5873 66.743 76.2859C67.4306 75.952 67.9065 75.4129 68.2043 74.7885C68.4733 74.2246 68.5906 73.6072 68.6535 73.0373C68.7183 72.4507 68.7389 71.7714 68.7389 71.0129V46.8889C68.7389 46.8887 68.7389 46.8879 66.7389 46.8879L68.7389 46.8889C68.7389 45.7843 67.8434 44.8879 66.7389 44.8879C65.6343 44.8879 64.7389 45.7834 64.7389 46.8879H66.7389C64.7389 46.8879 64.7389 46.8878 64.7389 46.8879V71.0129C64.7389 71.7219 64.7184 72.2297 64.6777 72.5985C64.6761 72.6131 64.6744 72.6272 64.6728 72.641H31.219Z" fill="#1C3553"/>
<path fill-rule="evenodd" clip-rule="evenodd" d="M48.8717 20.4437L47.6156 22L46.3396 20.4599C47.0723 19.8529 48.1312 19.8461 48.8717 20.4437ZM75.6019 42.1037C75.6085 42.1096 75.6155 42.1158 75.6229 42.1223C75.8195 42.2956 76.276 42.6981 76.5728 43.2628C76.971 44.0204 77.0222 44.9153 76.6245 45.7842C76.2672 46.5659 75.6643 47.0874 74.9655 47.3603C74.3598 47.5967 73.7646 47.6125 73.4055 47.61M47.6321 24.5837C46.9639 25.1375 46.0592 25.8873 44.9895 26.774C42.6411 28.7207 39.4983 31.3267 36.3201 33.9639C31.7657 37.7432 27.1759 41.556 24.7253 43.6028C25.6794 43.6023 26.6327 43.6044 27.5857 43.6084L27.5872 43.6084C27.6166 43.6085 27.6472 43.6086 27.6788 43.6087C27.9114 43.6095 28.1995 43.6105 28.4521 43.6293C28.7274 43.6498 29.2191 43.7036 29.7118 43.963C31.045 44.6648 31.1214 46.0507 31.1222 46.6556L31.1222 46.6584L31.1222 49.75C31.1222 50.8546 30.2268 51.75 29.1222 51.75C28.0176 51.75 27.1222 50.8546 27.1222 49.75V47.6066C25.577 47.6012 24.035 47.6008 22.4931 47.6097M22.2849 43.6032C22.2849 43.6032 22.2856 43.6033 22.287 43.6035L22.2849 43.6032ZM47.6321 24.5837C48.3222 25.1408 49.2623 25.8999 50.3757 26.7991C52.7922 28.7507 56.0251 31.3626 59.2911 34.0037C62.5572 36.6449 65.8555 39.3148 68.4031 41.3828C69.4625 42.2427 70.3912 42.9978 71.1333 43.6031C70.1925 43.6026 69.2524 43.6048 68.3127 43.6087L68.3112 43.6087C68.2818 43.6088 68.2512 43.6089 68.2195 43.609C67.9869 43.6098 67.6989 43.6108 67.4462 43.6296C67.171 43.6501 66.6793 43.7039 66.1865 43.9633C64.8534 44.665 64.777 46.0509 64.7762 46.6559L64.7762 46.6587V49.7531C64.7762 50.8577 65.6716 51.7531 66.7762 51.7531C67.8807 51.7531 68.7762 50.8577 68.7762 49.7531V47.6069C70.3214 47.6015 71.8637 47.6011 73.4055 47.61M75.601 42.1029C75.0144 41.5841 68.2929 36.1391 61.8063 30.8934L75.601 42.1029ZM61.8063 30.8934C58.5395 28.2516 55.3058 25.6392 52.8889 23.6872L61.8063 30.8934ZM52.8889 23.6872C51.6805 22.7113 50.6762 21.9004 49.974 21.3335L52.8889 23.6872ZM49.974 21.3335L49.1595 20.676L49.974 21.3335ZM49.1595 20.676L48.9452 20.503L49.1595 20.676ZM48.9452 20.503L48.8902 20.4587L48.9452 20.503ZM48.8902 20.4587L48.8763 20.4474L48.8902 20.4587ZM48.8763 20.4474L48.8728 20.4446L48.8763 20.4474ZM48.8728 20.4446L48.8717 20.4437L48.8728 20.4446ZM48.8717 20.4437C48.8715 20.4435 48.8717 20.4437 47.6156 22L48.8717 20.4437ZM47.6156 22C46.3396 20.4599 46.3398 20.4598 46.3396 20.4599L47.6156 22ZM46.3396 20.4599L46.3384 20.4609L46.3396 20.4599ZM46.3384 20.4609L46.335 20.4637L46.3384 20.4609ZM46.335 20.4637L46.3215 20.4749L46.335 20.4637ZM46.3215 20.4749L46.2682 20.5191L46.3215 20.4749ZM46.2682 20.5191L46.06 20.6916L46.2682 20.5191ZM46.06 20.6916L45.2689 21.3471L46.06 20.6916ZM45.2689 21.3471C44.5868 21.9124 43.6111 22.721 42.4368 23.6945L45.2689 21.3471ZM42.4368 23.6945C40.0881 25.6415 36.9447 28.2479 33.7658 30.8857L42.4368 23.6945ZM33.7658 30.8857C27.4363 36.1379 20.8936 41.5745 20.2961 42.1038L33.7658 30.8857ZM20.2961 42.1038L20.2946 42.1051L20.2961 42.1038ZM20.2946 42.1051C20.2873 42.1116 20.2796 42.1185 20.2713 42.1258L20.2946 42.1051ZM20.2713 42.1258C20.0761 42.2984 19.6214 42.7006 19.3259 43.2625L20.2713 42.1258ZM19.3259 43.2625C18.9274 44.02 18.8762 44.9142 19.2733 45.7826L19.3259 43.2625ZM19.2733 45.7826C19.6305 46.565 20.2336 47.087 20.9329 47.36C21.5385 47.5964 22.134 47.6122 22.4931 47.6097" fill="#1C3553"/>
</svg>
