<svg width="96" height="96" viewBox="0 0 96 96" fill="none" xmlns="http://www.w3.org/2000/svg">
<path d="M40 62.6442L44.326 65L43.178 60.56L47 57.5726L41.967 57.1874L40 53L38.033 57.1874L33 57.5726L36.822 60.56L35.674 65L40 62.6442Z" fill="#1895FF"/>
<path d="M55 62.6442L59.326 65L58.178 60.56L62 57.5726L56.967 57.1874L55 53L53.033 57.1874L48 57.5726L51.822 60.56L50.674 65L55 62.6442Z" fill="#1895FF"/>
<path fill-rule="evenodd" clip-rule="evenodd" d="M28.653 44.8879C29.7575 44.8879 30.653 45.7834 30.653 46.8879H28.653H26.653C26.653 45.7834 27.5484 44.8879 28.653 44.8879ZM30.719 72.641C30.7174 72.6272 30.7157 72.6131 30.7141 72.5985C30.6734 72.2297 30.653 71.7219 30.653 71.0129V46.8879C30.653 46.8878 30.653 46.8879 28.653 46.8879C26.653 46.8879 26.653 46.8878 26.653 46.8879V71.0129C26.653 71.7714 26.6735 72.4507 26.7383 73.0373C26.8012 73.6072 26.9186 74.2246 27.1875 74.7885C27.4853 75.4129 27.9612 75.952 28.6489 76.2859C29.2695 76.5873 29.9021 76.641 30.3858 76.641H64.506C64.9897 76.641 65.6223 76.5873 66.243 76.2859C66.9306 75.952 67.4065 75.4129 67.7043 74.7885C67.9733 74.2246 68.0906 73.6072 68.1535 73.0373C68.2183 72.4507 68.2389 71.7714 68.2389 71.0129V46.8889C68.2389 46.8887 68.2389 46.8879 66.2389 46.8879L68.2389 46.8889C68.2389 45.7843 67.3434 44.8879 66.2389 44.8879C65.1343 44.8879 64.2389 45.7834 64.2389 46.8879H66.2389C64.2389 46.8879 64.2389 46.8878 64.2389 46.8879V71.0129C64.2389 71.7219 64.2184 72.2297 64.1777 72.5985C64.1761 72.6131 64.1744 72.6272 64.1728 72.641H30.719Z" fill="#1C3553"/>
<path fill-rule="evenodd" clip-rule="evenodd" d="M48.3717 20.4437L47.1156 22L45.8396 20.4599C46.5723 19.8529 47.6312 19.8461 48.3717 20.4437ZM75.1019 42.1037C75.1085 42.1096 75.1155 42.1158 75.1229 42.1223C75.3195 42.2956 75.776 42.6981 76.0728 43.2628C76.471 44.0204 76.5222 44.9153 76.1245 45.7842C75.7672 46.5659 75.1643 47.0874 74.4655 47.3603C73.8598 47.5967 73.2646 47.6125 72.9055 47.61M47.1321 24.5837C46.4639 25.1375 45.5592 25.8873 44.4895 26.774C42.1411 28.7207 38.9983 31.3267 35.8201 33.9639C31.2657 37.7432 26.6759 41.556 24.2253 43.6028C25.1794 43.6023 26.1327 43.6044 27.0857 43.6084L27.0872 43.6084C27.1166 43.6085 27.1472 43.6086 27.1788 43.6087C27.4114 43.6095 27.6995 43.6105 27.9521 43.6293C28.2274 43.6498 28.7191 43.7036 29.2118 43.963C30.545 44.6648 30.6214 46.0507 30.6222 46.6556L30.6222 46.6584L30.6222 49.75C30.6222 50.8546 29.7268 51.75 28.6222 51.75C27.5176 51.75 26.6222 50.8546 26.6222 49.75V47.6066C25.077 47.6012 23.535 47.6008 21.9931 47.6097M21.7849 43.6032C21.7849 43.6032 21.7856 43.6033 21.787 43.6035L21.7849 43.6032ZM47.1321 24.5837C47.8222 25.1408 48.7623 25.8999 49.8757 26.7991C52.2922 28.7507 55.5251 31.3626 58.7911 34.0037C62.0572 36.6449 65.3555 39.3148 67.9031 41.3828C68.9625 42.2427 69.8912 42.9978 70.6333 43.6031C69.6925 43.6026 68.7524 43.6048 67.8127 43.6087L67.8112 43.6087C67.7818 43.6088 67.7512 43.6089 67.7195 43.609C67.4869 43.6098 67.1989 43.6108 66.9462 43.6296C66.671 43.6501 66.1793 43.7039 65.6865 43.9633C64.3534 44.665 64.277 46.0509 64.2762 46.6559L64.2762 46.6587V49.7531C64.2762 50.8577 65.1716 51.7531 66.2762 51.7531C67.3807 51.7531 68.2762 50.8577 68.2762 49.7531V47.6069C69.8214 47.6015 71.3637 47.6011 72.9055 47.61M75.101 42.1029C74.5144 41.5841 67.7929 36.1391 61.3063 30.8934L75.101 42.1029ZM61.3063 30.8934C58.0395 28.2516 54.8058 25.6392 52.3889 23.6872L61.3063 30.8934ZM52.3889 23.6872C51.1805 22.7113 50.1762 21.9004 49.474 21.3335L52.3889 23.6872ZM49.474 21.3335L48.6595 20.676L49.474 21.3335ZM48.6595 20.676L48.4452 20.503L48.6595 20.676ZM48.4452 20.503L48.3902 20.4587L48.4452 20.503ZM48.3902 20.4587L48.3763 20.4474L48.3902 20.4587ZM48.3763 20.4474L48.3728 20.4446L48.3763 20.4474ZM48.3728 20.4446L48.3717 20.4437L48.3728 20.4446ZM48.3717 20.4437C48.3715 20.4435 48.3717 20.4437 47.1156 22L48.3717 20.4437ZM47.1156 22C45.8396 20.4599 45.8398 20.4598 45.8396 20.4599L47.1156 22ZM45.8396 20.4599L45.8384 20.4609L45.8396 20.4599ZM45.8384 20.4609L45.835 20.4637L45.8384 20.4609ZM45.835 20.4637L45.8215 20.4749L45.835 20.4637ZM45.8215 20.4749L45.7682 20.5191L45.8215 20.4749ZM45.7682 20.5191L45.56 20.6916L45.7682 20.5191ZM45.56 20.6916L44.7689 21.3471L45.56 20.6916ZM44.7689 21.3471C44.0868 21.9124 43.1111 22.721 41.9368 23.6945L44.7689 21.3471ZM41.9368 23.6945C39.5881 25.6415 36.4447 28.2479 33.2658 30.8857L41.9368 23.6945ZM33.2658 30.8857C26.9363 36.1379 20.3936 41.5745 19.7961 42.1038L33.2658 30.8857ZM19.7961 42.1038L19.7946 42.1051L19.7961 42.1038ZM19.7946 42.1051C19.7873 42.1116 19.7796 42.1185 19.7713 42.1258L19.7946 42.1051ZM19.7713 42.1258C19.5761 42.2984 19.1214 42.7006 18.8259 43.2625L19.7713 42.1258ZM18.8259 43.2625C18.4274 44.02 18.3762 44.9142 18.7733 45.7826L18.8259 43.2625ZM18.7733 45.7826C19.1305 46.565 19.7336 47.087 20.4329 47.36C21.0385 47.5964 21.634 47.6122 21.9931 47.6097" fill="#1C3553"/>
</svg>
