<svg width="96" height="96" viewBox="0 0 96 96" fill="none" xmlns="http://www.w3.org/2000/svg">
<path d="M24 62.6442L28.326 65L27.178 60.56L31 57.5726L25.967 57.1874L24 53L22.033 57.1874L17 57.5726L20.822 60.56L19.674 65L24 62.6442Z" fill="#1895FF"/>
<path d="M40 62.6442L44.326 65L43.178 60.56L47 57.5726L41.967 57.1874L40 53L38.033 57.1874L33 57.5726L36.822 60.56L35.674 65L40 62.6442Z" fill="#1895FF"/>
<path d="M56 62.6442L60.326 65L59.178 60.56L63 57.5726L57.967 57.1874L56 53L54.033 57.1874L49 57.5726L52.822 60.56L51.674 65L56 62.6442Z" fill="#1895FF"/>
<path d="M72 62.6442L76.326 65L75.178 60.56L79 57.5726L73.967 57.1874L72 53L70.033 57.1874L65 57.5726L68.822 60.56L67.674 65L72 62.6442Z" fill="#1895FF"/>
<path fill-rule="evenodd" clip-rule="evenodd" d="M30 67.135C31.03 67.135 31.865 67.97 31.865 69H30H28.135C28.135 67.97 28.97 67.135 30 67.135ZM31.865 71.135V69H30H28.135V72.4771C28.135 72.7969 28.192 73.3242 28.558 73.8303C28.9229 74.3347 29.4106 74.5641 29.7525 74.6735C30.323 74.856 31.0364 74.865 31.6366 74.865H63.8612C64.4614 74.865 65.1748 74.856 65.7453 74.6735C66.0872 74.5641 66.5749 74.3347 66.9398 73.8303C67.3058 73.3242 67.3628 72.7969 67.3628 72.4771V69.0005C67.3628 67.9705 66.5278 67.135 65.4978 67.135C64.4678 67.135 63.6328 67.97 63.6328 69V71.135H31.865Z" fill="#1C3553"/>
<path fill-rule="evenodd" clip-rule="evenodd" d="M49.3485 20.5822L48.1369 22L46.907 20.598C47.6038 19.9867 48.6439 19.98 49.3485 20.5822ZM74.5917 42.2404C74.0439 41.727 67.6946 36.2808 61.5645 31.0319C58.4792 28.3901 55.4252 25.7777 53.1426 23.8258C52.0013 22.8498 51.0528 22.0389 50.3896 21.472L49.3485 20.5822C49.3484 20.582 49.3485 20.5822 48.1369 22C46.907 20.598 46.9072 20.5979 46.907 20.598L45.8958 21.4852C45.2516 22.0505 44.3301 22.8591 43.221 23.8326C41.0028 25.7796 38.0341 28.386 35.0318 31.0238C29.0532 36.2767 22.8752 41.7122 22.3118 42.2406L22.3105 42.2419C22.3042 42.2478 22.2976 42.254 22.2907 42.2604C22.1042 42.4353 21.6876 42.8258 21.4204 43.3638C21.0714 44.0662 21.0267 44.8831 21.3744 45.6891M74.5926 42.2413L73.3163 43.6012L74.5917 42.2404M74.5926 42.2413L74.6093 42.2569C74.7971 42.4323 75.2155 42.8233 75.4839 43.3641C75.8328 44.0668 75.8775 44.8846 75.5288 45.6914M48.1529 24.4671C47.5243 25.0187 46.6788 25.7607 45.6816 26.6359C43.4637 28.5827 40.4954 31.1886 37.4938 33.8259C32.9938 37.7796 28.4562 41.771 26.2342 43.7381C27.2303 43.7368 28.2255 43.739 29.2202 43.7434L29.2217 43.7434C29.2492 43.7435 29.278 43.7436 29.3078 43.7437C29.5271 43.7445 29.8025 43.7455 30.0445 43.7646C30.3105 43.7856 30.7846 43.841 31.256 44.1037C32.4805 44.7862 32.5352 46.093 32.536 46.656L32.536 46.6584L32.536 49.75C32.536 50.78 31.701 51.615 30.671 51.615C29.641 51.615 28.806 50.78 28.806 49.75V47.4717C27.3379 47.4662 25.8729 47.4658 24.4082 47.4747L24.3968 45.6098L24.4108 47.4747C24.0675 47.4773 23.4935 47.4612 22.9111 47.2205C22.2385 46.9424 21.6916 46.4249 21.3749 45.6903M48.1529 24.4671C48.8022 25.0221 49.6806 25.7731 50.7185 26.6606C53.0007 28.6122 56.054 31.2241 59.1385 33.8652C63.7497 37.8136 68.3778 41.7826 70.6402 43.7384C69.654 43.7372 68.6687 43.7394 67.6838 43.7437L67.6823 43.7437C67.6548 43.7438 67.626 43.7439 67.5962 43.744C67.377 43.7448 67.1015 43.7458 66.8595 43.7649C66.5935 43.7859 66.1194 43.8413 65.6481 44.104C64.4235 44.7865 64.3688 46.0932 64.368 46.6563L64.368 46.6587V49.7531C64.368 50.7831 65.203 51.6181 66.233 51.6181C67.2631 51.6181 68.098 50.7831 68.098 49.7531V47.472C69.5657 47.4665 71.0302 47.4661 72.4944 47.475C72.8379 47.4775 73.4112 47.4612 73.9929 47.2208C74.6652 46.9428 75.212 46.4253 75.5288 45.6914" fill="#1C3553"/>
</svg>
