<svg width="96" height="96" viewBox="0 0 96 96" fill="none" xmlns="http://www.w3.org/2000/svg">
<path fill-rule="evenodd" clip-rule="evenodd" d="M30.4556 19.0449C31.6359 18.9333 32.5569 19.5654 33.1787 20.1486L33.1797 20.1495C34.1198 21.0324 38.0999 24.764 42.6578 29.0374L45.2485 31.4664C46.0543 32.2219 46.0951 33.4876 45.3396 34.2934C44.5841 35.0992 43.3184 35.1399 42.5126 34.3844L39.9514 31.9831C35.4049 27.7203 31.4255 23.9893 30.4561 23.0791C29.6928 23.7954 27.0666 26.2576 23.7669 29.3514C17.8812 34.8698 9.85227 42.3975 6.42882 45.6112C7.50374 45.6097 8.57767 45.6124 9.65023 45.6174M30.4556 19.0449C29.2757 18.9333 28.3548 19.565 27.7329 20.1491C26.9917 20.8447 24.3597 23.3125 21.0448 26.4205C14.045 32.9833 4.00036 42.401 2.28465 44.0162L2.28293 44.0178C2.27636 44.024 2.26945 44.0305 2.26221 44.0374C2.0633 44.2246 1.61905 44.6428 1.33405 45.2188C0.962457 45.9697 0.914235 46.843 1.28533 47.7057L1.28662 47.7087C1.62486 48.4915 2.2074 49.0461 2.9277 49.3449C3.55081 49.6034 4.16476 49.6208 4.53091 49.6184C4.53076 49.6184 4.53106 49.6184 4.53091 49.6184M9.19363 49.6155C9.19457 57.4644 9.19458 65.3123 9.19458 73.1604C9.19458 73.8167 9.22009 75.0624 10.1378 75.9607C11.0395 76.8433 12.2754 76.867 12.9382 76.8674H47.973C48.6357 76.867 49.8716 76.8433 50.7733 75.9607C51.6911 75.0624 51.7166 73.8167 51.7166 73.1604C51.7166 65.2963 51.7166 57.4322 51.7175 49.5673C52.6103 49.3635 53.2747 48.5627 53.2706 47.6088C53.2658 46.5042 52.3665 45.6127 51.2619 45.6174C50.5543 45.6205 49.4707 45.7251 48.6442 46.5541C47.8169 47.384 47.7176 48.4678 47.7176 49.1712M9.19363 49.6155C9.19361 49.4675 9.19359 49.3196 9.19357 49.1717C9.19357 49.0255 9.18261 48.9669 9.18293 48.9668C9.18303 48.9668 9.184 48.9713 9.18633 48.9797C9.19559 49.0131 9.22017 49.0842 9.27251 49.1714C9.27256 49.1715 9.27246 49.1713 9.27251 49.1714C9.31029 49.2343 9.36265 49.3059 9.43397 49.3775C9.5029 49.4467 9.57156 49.498 9.63259 49.5356C9.63282 49.5358 9.63236 49.5355 9.63259 49.5356C9.72195 49.5906 9.79557 49.6166 9.82893 49.626C9.83688 49.6282 9.84114 49.6292 9.84113 49.6292C9.84106 49.6296 9.78175 49.618 9.63293 49.6174C9.48671 49.6167 9.3398 49.6161 9.19363 49.6155ZM13.1936 49.1714C13.1946 57.0708 13.1946 64.9692 13.1946 72.8674H47.7166C47.7166 64.9692 47.7166 57.0706 47.7176 49.1712M13.1936 49.1714C13.1936 48.4691 13.0949 47.385 12.2682 46.5549C11.4421 45.7253 10.3577 45.6206 9.65023 45.6174" fill="#1C3553"/>
<path fill-rule="evenodd" clip-rule="evenodd" d="M35.9091 49.1711H39.6971C40.103 49.1711 40.4321 49.5002 40.4321 49.9061V56.7671C40.4321 57.1731 40.103 57.5021 39.6971 57.5021H35.9091C35.5032 57.5021 35.1741 57.1731 35.1741 56.7671V49.9061H35.9091V49.1711ZM36.6441 50.6411V56.0321H38.9621V50.6411H36.6441Z" fill="#1C3553"/>
<path fill-rule="evenodd" clip-rule="evenodd" d="M20.8491 49.1711H24.6371C25.043 49.1711 25.3721 49.5002 25.3721 49.9061V56.7671C25.3721 57.1731 25.043 57.5021 24.6371 57.5021H20.8491C20.4432 57.5021 20.1141 57.1731 20.1141 56.7671V49.9061H20.8491V49.1711ZM21.5841 50.6411V56.0321H23.9021V50.6411H21.5841Z" fill="#1C3553"/>
<path fill-rule="evenodd" clip-rule="evenodd" d="M52.6218 33.8071C52.8346 33.6972 53.0705 33.6399 53.31 33.6399H64.078C64.9064 33.6399 65.578 34.3115 65.578 35.1399V41.7069C65.578 42.5353 64.9064 43.2069 64.078 43.2069H43.61C42.7816 43.2069 42.11 42.5353 42.11 41.7069V40.1489C42.11 39.5878 42.4232 39.0736 42.9218 38.8161L52.6218 33.8071ZM53.6744 36.6399L46.7669 40.2069H62.578V36.6399H53.6744Z" fill="#1895FF"/>
<path fill-rule="evenodd" clip-rule="evenodd" d="M75.357 54.8792C75.357 54.2165 75.8943 53.6792 76.557 53.6792H80.668C81.3308 53.6792 81.868 54.2165 81.868 54.8792V75.4022C81.868 76.0649 81.3308 76.6022 80.668 76.6022H76.557C75.8943 76.6022 75.357 76.0649 75.357 75.4022V54.8792ZM77.757 56.0792V74.2022H79.468V56.0792H77.757Z" fill="#1895FF"/>
<path fill-rule="evenodd" clip-rule="evenodd" d="M88.4122 38.5156C88.4122 37.6872 89.0838 37.0156 89.9122 37.0156H92.2592C93.0876 37.0156 93.7592 37.6872 93.7592 38.5156V47.9476C93.7592 48.7761 93.0876 49.4476 92.2592 49.4476H80.0092V53.6516C80.0092 54.4801 79.3376 55.1516 78.5092 55.1516C77.6808 55.1516 77.0092 54.4801 77.0092 53.6516V47.9476C77.0092 47.1192 77.6808 46.4476 78.5092 46.4476H90.7592V40.0156H89.9122C89.0838 40.0156 88.4122 39.3441 88.4122 38.5156Z" fill="#1895FF"/>
<path fill-rule="evenodd" clip-rule="evenodd" d="M67.839 35.1402C67.839 34.4774 68.3763 33.9402 69.039 33.9402H88.806C89.4688 33.9402 90.006 34.4774 90.006 35.1402V41.4842C90.006 42.1469 89.4688 42.6842 88.806 42.6842H69.039C68.3763 42.6842 67.839 42.1469 67.839 41.4842V35.1402ZM70.239 36.3402V40.2842H87.606V36.3402H70.239Z" fill="#1895FF"/>
<path fill-rule="evenodd" clip-rule="evenodd" d="M73.867 35.3793C73.6301 35.2373 73.323 35.3143 73.1811 35.5512L71.6811 38.0552C71.5392 38.2921 71.6162 38.5992 71.8531 38.7411C72.09 38.883 72.3971 38.806 72.539 38.5691L74.039 36.0651C74.1809 35.8282 74.1039 35.5212 73.867 35.3793Z" fill="#1895FF"/>
<path fill-rule="evenodd" clip-rule="evenodd" d="M76.367 35.3793C76.1301 35.2373 75.823 35.3143 75.6811 35.5512L74.1811 38.0552C74.0392 38.2921 74.1162 38.5992 74.3531 38.7411C74.59 38.883 74.8971 38.806 75.039 38.5691L76.539 36.0651C76.6809 35.8282 76.6039 35.5212 76.367 35.3793Z" fill="#1895FF"/>
<path fill-rule="evenodd" clip-rule="evenodd" d="M78.867 35.3793C78.6301 35.2373 78.323 35.3143 78.1811 35.5512L76.6811 38.0552C76.5392 38.2921 76.6162 38.5992 76.8531 38.7411C77.09 38.883 77.3971 38.806 77.539 38.5691L79.039 36.0651C79.1809 35.8282 79.1039 35.5212 78.867 35.3793Z" fill="#1895FF"/>
<path fill-rule="evenodd" clip-rule="evenodd" d="M81.367 35.3793C81.1301 35.2373 80.823 35.3143 80.6811 35.5512L79.1811 38.0552C79.0392 38.2921 79.1162 38.5992 79.3531 38.7411C79.59 38.883 79.8971 38.806 80.039 38.5691L81.539 36.0651C81.6809 35.8282 81.6039 35.5212 81.367 35.3793Z" fill="#1895FF"/>
<path fill-rule="evenodd" clip-rule="evenodd" d="M83.867 35.3793C83.6301 35.2373 83.323 35.3143 83.1811 35.5512L81.6811 38.0552C81.5392 38.2921 81.6162 38.5992 81.8531 38.7411C82.09 38.883 82.3971 38.806 82.539 38.5691L84.039 36.0651C84.1809 35.8282 84.1039 35.5212 83.867 35.3793Z" fill="#1895FF"/>
<path fill-rule="evenodd" clip-rule="evenodd" d="M86.367 35.3793C86.1301 35.2373 85.823 35.3143 85.6811 35.5512L84.1811 38.0552C84.0392 38.2921 84.1162 38.5992 84.3531 38.7411C84.59 38.883 84.8971 38.806 85.039 38.5691L86.539 36.0651C86.6809 35.8282 86.6039 35.5212 86.367 35.3793Z" fill="#1895FF"/>
<path fill-rule="evenodd" clip-rule="evenodd" d="M55.699 42.2281C55.699 41.5653 56.2363 41.0281 56.899 41.0281H61.01C61.6727 41.0281 62.21 41.5653 62.21 42.2281V75.4021C62.21 76.0648 61.6727 76.6021 61.01 76.6021H56.899C56.2363 76.6021 55.699 76.0648 55.699 75.4021V42.2281ZM58.099 43.4281V74.2021H59.81V43.4281H58.099Z" fill="#1895FF"/>
<path fill-rule="evenodd" clip-rule="evenodd" d="M55.7546 33.5406C55.7546 32.8778 56.2919 32.3406 56.9546 32.3406H60.9546C61.6173 32.3406 62.1546 32.8778 62.1546 33.5406C62.1546 34.2033 61.6173 34.7406 60.9546 34.7406H56.9546C56.2919 34.7406 55.7546 34.2033 55.7546 33.5406Z" fill="#1895FF"/>
</svg>
