<svg width="96" height="96" viewBox="0 0 96 96" fill="none" xmlns="http://www.w3.org/2000/svg">
<path fill-rule="evenodd" clip-rule="evenodd" d="M28.2815 27.7538C28.2815 26.8702 28.9978 26.1538 29.8815 26.1538H35.297C36.1807 26.1538 36.897 26.8702 36.897 27.7538V83.2C36.897 84.0836 36.1807 84.8 35.297 84.8H29.8815C28.9978 84.8 28.2815 84.0836 28.2815 83.2V27.7538ZM31.4815 29.3538V81.6H33.697V29.3538H31.4815Z" fill="#1895FF"/>
<path fill-rule="evenodd" clip-rule="evenodd" d="M28.3744 12.8632C28.3744 11.9795 29.0907 11.2632 29.9744 11.2632H35.2061C36.0898 11.2632 36.8061 11.9795 36.8061 12.8632C36.8061 13.7468 36.0898 14.4632 35.2061 14.4632H29.9744C29.0907 14.4632 28.3744 13.7468 28.3744 12.8632Z" fill="#1895FF"/>
<path fill-rule="evenodd" clip-rule="evenodd" d="M69.28 49.6C69.28 48.7163 69.9963 48 70.88 48H75.68C76.5636 48 77.28 48.7163 77.28 49.6V83.2C77.28 84.0837 76.5636 84.8 75.68 84.8H70.88C69.9963 84.8 69.28 84.0837 69.28 83.2V49.6ZM72.48 51.2V81.6H74.08V51.2H72.48Z" fill="#1895FF"/>
<path fill-rule="evenodd" clip-rule="evenodd" d="M50 20.7999C50 20.1371 50.5373 19.5999 51.2 19.5999H55.0245C55.6872 19.5999 56.2245 20.1371 56.2245 20.7999C56.2245 21.4626 55.6872 21.9999 55.0245 21.9999H52.4V34.2787H73.6C74.2627 34.2787 74.8 34.816 74.8 35.4787V47.9998C74.8 48.6626 74.2627 49.1999 73.6 49.1999C72.9373 49.1999 72.4 48.6626 72.4 47.9998V36.6787H51.2C50.5373 36.6787 50 36.1415 50 35.4787V20.7999Z" fill="#1895FF"/>
<path fill-rule="evenodd" clip-rule="evenodd" d="M83.3614 17.2413C83.5594 17.3393 83.6405 17.5793 83.5425 17.7772L81.9585 20.9772C81.8605 21.1752 81.6205 21.2563 81.4225 21.1583C81.2245 21.0603 81.1435 20.8203 81.2415 20.6223L82.8255 17.4223C82.9235 17.2244 83.1635 17.1433 83.3614 17.2413Z" fill="#1895FF"/>
<path fill-rule="evenodd" clip-rule="evenodd" d="M80.1615 17.2413C80.3595 17.3393 80.4405 17.5793 80.3425 17.7772L78.7585 20.9772C78.6605 21.1752 78.4206 21.2563 78.2226 21.1583C78.0246 21.0603 77.9435 20.8203 78.0415 20.6223L79.6255 17.4223C79.7235 17.2244 79.9635 17.1433 80.1615 17.2413Z" fill="#1895FF"/>
<path fill-rule="evenodd" clip-rule="evenodd" d="M76.9615 17.2413C77.1595 17.3393 77.2405 17.5793 77.1425 17.7772L75.5585 20.9772C75.4605 21.1752 75.2206 21.2563 75.0226 21.1583C74.8246 21.0603 74.7435 20.8203 74.8415 20.6223L76.4255 17.4223C76.5235 17.2244 76.7635 17.1433 76.9615 17.2413Z" fill="#1895FF"/>
<path fill-rule="evenodd" clip-rule="evenodd" d="M73.7615 17.2413C73.9594 17.3393 74.0405 17.5793 73.9425 17.7772L72.3585 20.9772C72.2605 21.1752 72.0205 21.2563 71.8226 21.1583C71.6246 21.0603 71.5435 20.8203 71.6415 20.6223L73.2255 17.4223C73.3235 17.2244 73.5635 17.1433 73.7615 17.2413Z" fill="#1895FF"/>
<path fill-rule="evenodd" clip-rule="evenodd" d="M67.3615 17.2413C67.5595 17.3393 67.6405 17.5793 67.5425 17.7772L65.9585 20.9772C65.8605 21.1752 65.6206 21.2563 65.4226 21.1583C65.2246 21.0603 65.1436 20.8203 65.2416 20.6223L66.8256 17.4223C66.9236 17.2244 67.1635 17.1433 67.3615 17.2413Z" fill="#1895FF"/>
<path fill-rule="evenodd" clip-rule="evenodd" d="M70.5614 17.2413C70.7594 17.3393 70.8405 17.5793 70.7425 17.7772L69.1585 20.9772C69.0605 21.1752 68.8205 21.2563 68.6225 21.1583C68.4246 21.0603 68.3435 20.8203 68.4415 20.6223L70.0255 17.4223C70.1235 17.2244 70.3635 17.1433 70.5614 17.2413Z" fill="#1895FF"/>
<path fill-rule="evenodd" clip-rule="evenodd" d="M64.1615 17.2413C64.3595 17.3393 64.4405 17.5793 64.3425 17.7772L62.7585 20.9772C62.6605 21.1752 62.4206 21.2563 62.2226 21.1583C62.0246 21.0603 61.9435 20.8203 62.0415 20.6223L63.6255 17.4223C63.7235 17.2244 63.9635 17.1433 64.1615 17.2413Z" fill="#1895FF"/>
<path fill-rule="evenodd" clip-rule="evenodd" d="M54.08 15.9998C54.08 14.9394 54.9396 14.0798 56 14.0798H88C89.0604 14.0798 89.92 14.9394 89.92 15.9998V23.9998C89.92 25.0602 89.0604 25.9198 88 25.9198H56C54.9396 25.9198 54.08 25.0602 54.08 23.9998V15.9998ZM57.92 17.9198V22.0798H86.08V17.9198H57.92Z" fill="#1895FF"/>
<path fill-rule="evenodd" clip-rule="evenodd" d="M22.4872 13.881C22.7501 13.7522 23.039 13.6853 23.3317 13.6853H40.3511C41.4115 13.6853 42.2711 14.5449 42.2711 15.6053V25.4508C42.2711 26.5112 41.4115 27.3708 40.3511 27.3708H8.0002C6.93981 27.3708 6.0802 26.5112 6.0802 25.4508V23.1139C6.0802 22.3809 6.49748 21.7119 7.15572 21.3896L22.4872 13.881ZM23.7766 17.5253L11.5142 23.5308H38.4311V17.5253H23.7766Z" fill="#1895FF"/>
</svg>
