<svg width="96" height="96" viewBox="0 0 96 96" fill="none" xmlns="http://www.w3.org/2000/svg">
<path fill-rule="evenodd" clip-rule="evenodd" d="M30.4556 19.0447C31.6359 18.933 32.5568 19.5652 33.1787 20.1484L33.1796 20.1492C34.1198 21.0321 38.0999 24.7638 42.6577 29.0371L45.2485 31.4662C46.0543 32.2217 46.0951 33.4873 45.3396 34.2931C44.5841 35.0989 43.3184 35.1397 42.5126 34.3842L39.9514 31.9828C35.4048 27.7201 31.4255 23.9891 30.456 23.0788C29.6927 23.7952 27.0666 26.2574 23.7669 29.3512C17.8811 34.8695 9.85223 42.3972 6.42879 45.6109C7.50371 45.6095 8.57764 45.6122 9.6502 45.6172M30.4556 19.0447C29.2756 18.933 28.3548 19.5647 27.7329 20.1489C26.9917 20.8445 24.3596 23.3122 21.0447 26.4202C14.045 32.9831 4.00033 42.4007 2.28462 44.016L2.2829 44.0176C2.27633 44.0238 2.26942 44.0303 2.26218 44.0371C2.06327 44.2244 1.61902 44.6426 1.33402 45.2185C0.962426 45.9694 0.914204 46.8427 1.2853 47.7055L1.28659 47.7085C1.62483 48.4913 2.20737 49.0458 2.92767 49.3446C3.55078 49.6031 4.16473 49.6206 4.53088 49.6181C4.53073 49.6181 4.53103 49.6181 4.53088 49.6181M9.1936 49.6152C9.19454 57.4641 9.19454 65.3121 9.19454 73.1602C9.19454 73.8164 9.22006 75.0622 10.1378 75.9605C11.0395 76.843 12.2754 76.8667 12.9381 76.8672H47.973C48.6357 76.8667 49.8716 76.843 50.7733 75.9605C51.691 75.0622 51.7165 73.8164 51.7165 73.1602C51.7165 65.296 51.7165 57.432 51.7175 49.567C52.6103 49.3633 53.2747 48.5624 53.2705 47.6085C53.2658 46.504 52.3665 45.6124 51.2619 45.6172C50.5543 45.6203 49.4706 45.7249 48.6442 46.5539C47.8168 47.3838 47.7176 48.4676 47.7175 49.1709M9.1936 49.6152C9.19358 49.4673 9.19356 49.3194 9.19354 49.1714C9.19354 49.0252 9.18258 48.9666 9.1829 48.9666C9.18299 48.9665 9.18397 48.9711 9.1863 48.9795C9.19556 49.0129 9.22014 49.084 9.27248 49.1712C9.27253 49.1713 9.27243 49.1711 9.27248 49.1712C9.31026 49.2341 9.36262 49.3056 9.43394 49.3772C9.50287 49.4465 9.57153 49.4978 9.63256 49.5354C9.63279 49.5355 9.63233 49.5352 9.63256 49.5354C9.72192 49.5903 9.79554 49.6163 9.8289 49.6257C9.83685 49.628 9.84111 49.6289 9.8411 49.629C9.84103 49.6293 9.78172 49.6178 9.63289 49.6172C9.48668 49.6165 9.33977 49.6158 9.1936 49.6152ZM13.1935 49.1712C13.1945 57.0706 13.1945 64.9689 13.1945 72.8672H47.7165C47.7165 64.9689 47.7166 57.0703 47.7175 49.1709M13.1935 49.1712C13.1935 48.4688 13.0949 47.3847 12.2682 46.5546C11.442 45.7251 10.3577 45.6203 9.6502 45.6172" fill="#1C3553"/>
<path fill-rule="evenodd" clip-rule="evenodd" d="M35.9091 49.1709H39.6971C40.103 49.1709 40.4321 49.5 40.4321 49.9059V56.7669C40.4321 57.1728 40.103 57.5019 39.6971 57.5019H35.9091C35.5031 57.5019 35.1741 57.1728 35.1741 56.7669V49.9059H35.9091V49.1709ZM36.6441 50.6409V56.0319H38.9621V50.6409H36.6441Z" fill="#1C3553"/>
<path fill-rule="evenodd" clip-rule="evenodd" d="M20.8491 49.1709H24.6371C25.043 49.1709 25.3721 49.5 25.3721 49.9059V56.7669C25.3721 57.1728 25.043 57.5019 24.6371 57.5019H20.8491C20.4431 57.5019 20.1141 57.1728 20.1141 56.7669V49.9059H20.8491V49.1709ZM21.5841 50.6409V56.0319H23.9021V50.6409H21.5841Z" fill="#1C3553"/>
<path fill-rule="evenodd" clip-rule="evenodd" d="M52.6217 33.8069C52.8345 33.697 53.0705 33.6396 53.31 33.6396H64.078C64.9064 33.6396 65.578 34.3112 65.578 35.1396V41.7066C65.578 42.5351 64.9064 43.2066 64.078 43.2066H43.61C42.7816 43.2066 42.11 42.5351 42.11 41.7066V40.1486C42.11 39.5875 42.4232 39.0733 42.9217 38.8159L52.6217 33.8069ZM53.6744 36.6396L46.7669 40.2066H62.578V36.6396H53.6744Z" fill="#1895FF"/>
<path fill-rule="evenodd" clip-rule="evenodd" d="M75.357 54.8787C75.357 54.216 75.8943 53.6787 76.557 53.6787H80.668C81.3307 53.6787 81.868 54.216 81.868 54.8787V75.4017C81.868 76.0645 81.3307 76.6017 80.668 76.6017H76.557C75.8943 76.6017 75.357 76.0645 75.357 75.4017V54.8787ZM77.757 56.0787V74.2017H79.468V56.0787H77.757Z" fill="#1895FF"/>
<path fill-rule="evenodd" clip-rule="evenodd" d="M88.4122 38.5156C88.4122 37.6872 89.0837 37.0156 89.9122 37.0156H92.2592C93.0876 37.0156 93.7592 37.6872 93.7592 38.5156V47.9476C93.7592 48.7761 93.0876 49.4476 92.2592 49.4476H80.0092V53.6516C80.0092 54.4801 79.3376 55.1516 78.5092 55.1516C77.6807 55.1516 77.0092 54.4801 77.0092 53.6516V47.9476C77.0092 47.1192 77.6807 46.4476 78.5092 46.4476H90.7592V40.0156H89.9122C89.0837 40.0156 88.4122 39.3441 88.4122 38.5156Z" fill="#1895FF"/>
<path fill-rule="evenodd" clip-rule="evenodd" d="M67.839 35.1399C67.839 34.4772 68.3762 33.9399 69.039 33.9399H88.806C89.4687 33.9399 90.006 34.4772 90.006 35.1399V41.4839C90.006 42.1467 89.4687 42.6839 88.806 42.6839H69.039C68.3762 42.6839 67.839 42.1467 67.839 41.4839V35.1399ZM70.239 36.3399V40.2839H87.606V36.3399H70.239Z" fill="#1895FF"/>
<path fill-rule="evenodd" clip-rule="evenodd" d="M73.8669 35.3793C73.63 35.2373 73.3229 35.3143 73.181 35.5512L71.681 38.0552C71.5391 38.2921 71.6161 38.5992 71.853 38.7411C72.0899 38.883 72.397 38.806 72.5389 38.5691L74.0389 36.0651C74.1808 35.8282 74.1038 35.5212 73.8669 35.3793Z" fill="#1895FF"/>
<path fill-rule="evenodd" clip-rule="evenodd" d="M76.3669 35.3793C76.13 35.2373 75.8229 35.3143 75.681 35.5512L74.181 38.0552C74.0391 38.2921 74.1161 38.5992 74.353 38.7411C74.5899 38.883 74.897 38.806 75.0389 38.5691L76.5389 36.0651C76.6808 35.8282 76.6038 35.5212 76.3669 35.3793Z" fill="#1895FF"/>
<path fill-rule="evenodd" clip-rule="evenodd" d="M78.8669 35.3793C78.63 35.2373 78.3229 35.3143 78.181 35.5512L76.681 38.0552C76.5391 38.2921 76.6161 38.5992 76.853 38.7411C77.0899 38.883 77.397 38.806 77.5389 38.5691L79.0389 36.0651C79.1808 35.8282 79.1038 35.5212 78.8669 35.3793Z" fill="#1895FF"/>
<path fill-rule="evenodd" clip-rule="evenodd" d="M81.3669 35.3793C81.13 35.2373 80.8229 35.3143 80.681 35.5512L79.181 38.0552C79.0391 38.2921 79.1161 38.5992 79.353 38.7411C79.5899 38.883 79.897 38.806 80.0389 38.5691L81.5389 36.0651C81.6808 35.8282 81.6038 35.5212 81.3669 35.3793Z" fill="#1895FF"/>
<path fill-rule="evenodd" clip-rule="evenodd" d="M83.8669 35.3793C83.63 35.2373 83.3229 35.3143 83.181 35.5512L81.681 38.0552C81.5391 38.2921 81.6161 38.5992 81.853 38.7411C82.0899 38.883 82.397 38.806 82.5389 38.5691L84.0389 36.0651C84.1808 35.8282 84.1038 35.5212 83.8669 35.3793Z" fill="#1895FF"/>
<path fill-rule="evenodd" clip-rule="evenodd" d="M86.3669 35.3793C86.13 35.2373 85.8229 35.3143 85.681 35.5512L84.181 38.0552C84.0391 38.2921 84.1161 38.5992 84.353 38.7411C84.5899 38.883 84.897 38.806 85.0389 38.5691L86.5389 36.0651C86.6808 35.8282 86.6038 35.5212 86.3669 35.3793Z" fill="#1895FF"/>
<path fill-rule="evenodd" clip-rule="evenodd" d="M55.699 42.2278C55.699 41.5651 56.2362 41.0278 56.899 41.0278H61.01C61.6727 41.0278 62.21 41.5651 62.21 42.2278V75.4018C62.21 76.0646 61.6727 76.6018 61.01 76.6018H56.899C56.2362 76.6018 55.699 76.0646 55.699 75.4018V42.2278ZM58.099 43.4278V74.2018H59.81V43.4278H58.099Z" fill="#1895FF"/>
<path fill-rule="evenodd" clip-rule="evenodd" d="M55.7546 33.5403C55.7546 32.8776 56.2918 32.3403 56.9546 32.3403H60.9546C61.6173 32.3403 62.1546 32.8776 62.1546 33.5403C62.1546 34.2031 61.6173 34.7403 60.9546 34.7403H56.9546C56.2918 34.7403 55.7546 34.2031 55.7546 33.5403Z" fill="#1895FF"/>
</svg>
