<svg width="96" height="96" viewBox="0 0 96 96" fill="none" xmlns="http://www.w3.org/2000/svg">
<path d="M18.2581 64.1598C18.2581 63.6075 18.7058 63.1598 19.2581 63.1598H27.0645C27.6168 63.1598 28.0645 63.6075 28.0645 64.1598V67.3308C28.0645 67.8831 27.6168 68.3308 27.0645 68.3308H19.2581C18.7058 68.3308 18.2581 67.8831 18.2581 67.3308V64.1598Z" fill="#1C3553"/>
<path fill-rule="evenodd" clip-rule="evenodd" d="M30.5161 64.1598C30.5161 63.6075 30.9638 63.1598 31.5161 63.1598H39.3226C39.8749 63.1598 40.3226 63.6075 40.3226 64.1598V67.3308C40.3226 67.8831 39.8749 68.3308 39.3226 68.3308H31.5161C30.9638 68.3308 30.5161 67.8831 30.5161 67.3308V64.1598Z" fill="#1C3553"/>
<path fill-rule="evenodd" clip-rule="evenodd" d="M42.7742 64.1598C42.7742 63.6075 43.2219 63.1598 43.7742 63.1598H50.7742C51.3265 63.1598 51.7742 63.6075 51.7742 64.1598V67.3308C51.7742 67.8831 51.3265 68.3308 50.7742 68.3308H43.7742C43.2219 68.3308 42.7742 67.8831 42.7742 67.3308V64.1598Z" fill="#1C3553"/>
<path d="M18.2581 56.4035C18.2581 55.8512 18.7058 55.4035 19.2581 55.4035H27.0645C27.6168 55.4035 28.0645 55.8512 28.0645 56.4035V59.5745C28.0645 60.1267 27.6168 60.5745 27.0645 60.5745H19.2581C18.7058 60.5745 18.2581 60.1267 18.2581 59.5745V56.4035Z" fill="#1C3553"/>
<path fill-rule="evenodd" clip-rule="evenodd" d="M30.5161 56.4035C30.5161 55.8512 30.9638 55.4035 31.5161 55.4035H39.3226C39.8749 55.4035 40.3226 55.8512 40.3226 56.4035V59.5745C40.3226 60.1267 39.8749 60.5745 39.3226 60.5745H31.5161C30.9638 60.5745 30.5161 60.1267 30.5161 59.5745V56.4035Z" fill="#1C3553"/>
<path fill-rule="evenodd" clip-rule="evenodd" d="M42.7742 56.4035C42.7742 55.8512 43.2219 55.4035 43.7742 55.4035H50.7742C51.3265 55.4035 51.7742 55.8512 51.7742 56.4035V59.5745C51.7742 60.1267 51.3265 60.5745 50.7742 60.5745H43.7742C43.2219 60.5745 42.7742 60.1267 42.7742 59.5745V56.4035Z" fill="#1C3553"/>
<path d="M18.2581 48.647C18.2581 48.0947 18.7058 47.647 19.2581 47.647H27.0645C27.6168 47.647 28.0645 48.0947 28.0645 48.647V51.818C28.0645 52.3703 27.6168 52.818 27.0645 52.818H19.2581C18.7058 52.818 18.2581 52.3703 18.2581 51.818V48.647Z" fill="#1C3553"/>
<path fill-rule="evenodd" clip-rule="evenodd" d="M30.5161 48.647C30.5161 48.0947 30.9638 47.647 31.5161 47.647H39.3226C39.8749 47.647 40.3226 48.0947 40.3226 48.647V51.818C40.3226 52.3703 39.8749 52.818 39.3226 52.818H31.5161C30.9638 52.818 30.5161 52.3703 30.5161 51.818V48.647Z" fill="#1C3553"/>
<path fill-rule="evenodd" clip-rule="evenodd" d="M42.7742 48.647C42.7742 48.0947 43.2219 47.647 43.7742 47.647H50.7742C51.3265 47.647 51.7742 48.0947 51.7742 48.647V51.818C51.7742 52.3703 51.3265 52.818 50.7742 52.818H43.7742C43.2219 52.818 42.7742 52.3703 42.7742 51.818V48.647Z" fill="#1C3553"/>
<path d="M18.2581 40.8907C18.2581 40.3384 18.7058 39.8907 19.2581 39.8907H27.0645C27.6168 39.8907 28.0645 40.3384 28.0645 40.8907V44.0616C28.0645 44.6139 27.6168 45.0616 27.0645 45.0616H19.2581C18.7058 45.0616 18.2581 44.6139 18.2581 44.0616V40.8907Z" fill="#1C3553"/>
<path fill-rule="evenodd" clip-rule="evenodd" d="M30.5161 40.8907C30.5161 40.3384 30.9638 39.8907 31.5161 39.8907H39.3226C39.8749 39.8907 40.3226 40.3384 40.3226 40.8907V44.0616C40.3226 44.6139 39.8749 45.0616 39.3226 45.0616H31.5161C30.9638 45.0616 30.5161 44.6139 30.5161 44.0616V40.8907Z" fill="#1C3553"/>
<path fill-rule="evenodd" clip-rule="evenodd" d="M42.7742 40.8907C42.7742 40.3384 43.2219 39.8907 43.7742 39.8907H51.5807C52.1329 39.8907 52.5807 40.3384 52.5807 40.8907V44.0616C52.5807 44.6139 52.1329 45.0616 51.5807 45.0616H43.7742C43.2219 45.0616 42.7742 44.6139 42.7742 44.0616V40.8907Z" fill="#1C3553"/>
<path fill-rule="evenodd" clip-rule="evenodd" d="M57.6822 45.0616L63.9866 39.9015C63.9383 39.8944 63.889 39.8907 63.8387 39.8907H56.0323C55.48 39.8907 55.0323 40.3384 55.0323 40.8907V44.0616C55.0323 44.6139 55.48 45.0616 56.0323 45.0616H57.6822Z" fill="#1C3553"/>
<path fill-rule="evenodd" clip-rule="evenodd" d="M68.2903 39.8907C67.7986 39.8907 67.3897 40.2456 67.306 40.7134L72.2373 45.0616H76.0968C76.6491 45.0616 77.0968 44.6139 77.0968 44.0616V40.8907C77.0968 40.3384 76.6491 39.8907 76.0968 39.8907H68.2903Z" fill="#1C3553"/>
<path fill-rule="evenodd" clip-rule="evenodd" d="M13.9449 33.2833H82.668V36.9833H13.9449V33.2833Z" fill="#1C3553"/>
<path fill-rule="evenodd" clip-rule="evenodd" d="M69.742 17.15C70.7637 17.15 71.592 17.9783 71.592 19V23.9642C71.592 24.9859 70.7637 25.8142 69.742 25.8142C68.7203 25.8142 67.892 24.9859 67.892 23.9642V19C67.892 17.9783 68.7203 17.15 69.742 17.15Z" fill="#1C3553"/>
<path fill-rule="evenodd" clip-rule="evenodd" d="M25.6129 17.15C26.6347 17.15 27.4629 17.9783 27.4629 19V23.9642C27.4629 24.9859 26.6347 25.8142 25.6129 25.8142C24.5912 25.8142 23.7629 24.9859 23.7629 23.9642V19C23.7629 17.9783 24.5912 17.15 25.6129 17.15Z" fill="#1C3553"/>
<path fill-rule="evenodd" clip-rule="evenodd" d="M11 22.011C11 20.9064 11.8954 20.011 13 20.011H82.0078C83.1124 20.011 84.0078 20.9064 84.0078 22.011V73.0027C84.0078 74.1072 83.1124 75.0027 82.0078 75.0027H77.9987V71.0027H80.0078V24.011H15V71.0027H52V75.0027H13C11.8954 75.0027 11 74.1072 11 73.0027V22.011Z" fill="#1C3553"/>
<path fill-rule="evenodd" clip-rule="evenodd" d="M63.8345 59.9494C64.1835 59.7165 64.5715 59.5313 64.9875 59.4001C65.4025 59.2689 65.8415 59.2028 66.2915 59.2028H68.5905C68.7955 59.2028 68.9745 59.1265 69.1225 58.9749C69.2695 58.8254 69.3445 58.6382 69.3445 58.4195C69.3445 58.212 69.2695 58.0299 69.1225 57.8793C68.9745 57.7288 68.7955 57.6525 68.5905 57.6525H66.2915C65.6365 57.6525 65.0025 57.7583 64.4065 57.9668C63.8125 58.1743 63.2625 58.4643 62.7715 58.8284C62.2785 59.1926 61.8425 59.631 61.4735 60.1336C61.1205 60.6137 60.8405 61.1457 60.6425 61.7174H59.9225C59.7175 61.7174 59.5385 61.7927 59.3905 61.9432C59.2425 62.0938 59.1675 62.2759 59.1675 62.4844C59.1675 62.7031 59.2425 62.8903 59.3905 63.0408C59.5385 63.1904 59.7165 63.2656 59.9225 63.2656H60.3215C60.3165 63.3206 60.3125 63.3755 60.3105 63.4315C60.3065 63.5281 60.3035 63.6278 60.3035 63.7295C60.3035 63.8404 60.3065 63.9452 60.3105 64.0418C60.3125 64.0977 60.3165 64.1537 60.3215 64.2076H59.9225C59.7175 64.2076 59.5385 64.2839 59.3915 64.4334C59.2425 64.583 59.1675 64.7691 59.1675 64.9889C59.1675 65.1974 59.2425 65.3795 59.3905 65.529C59.5385 65.6796 59.7175 65.7559 59.9225 65.7559H60.6425C60.8405 66.3265 61.1205 66.8596 61.4735 67.3397C61.8425 67.8422 62.2785 68.2806 62.7715 68.6448C63.0275 68.834 63.3015 69.0019 63.5885 69.1504C63.8505 69.2867 64.1225 69.4067 64.4065 69.5074C65.0005 69.715 65.6345 69.8197 66.2915 69.8197H68.5905C68.7955 69.8197 68.9745 69.7445 69.1225 69.5939V69.5929C69.2455 69.4678 69.3045 69.3162 69.3255 69.1504C69.3295 69.1168 69.3445 69.0873 69.3445 69.0527C69.3445 68.834 69.2695 68.6479 69.1215 68.4963C68.9735 68.3468 68.7955 68.2715 68.5905 68.2715H66.2915C65.8405 68.2715 65.4015 68.2044 64.9875 68.0731C64.5695 67.9409 64.1815 67.7557 63.8345 67.5238C63.4865 67.2899 63.1685 67.006 62.8915 66.6805C62.6505 66.3977 62.4475 66.0885 62.2855 65.7559H67.6465C67.8525 65.7559 68.0315 65.6796 68.1785 65.529C68.3255 65.3795 68.4005 65.1974 68.4005 64.9889C68.4005 64.7691 68.3255 64.583 68.1785 64.4334C68.0305 64.2839 67.8525 64.2076 67.6465 64.2076H61.8455C61.8405 64.1496 61.8355 64.0916 61.8325 64.0306C61.8275 63.937 61.8255 63.8373 61.8255 63.7295C61.8255 63.6308 61.8275 63.5352 61.8325 63.4416C61.8355 63.3826 61.8405 63.3236 61.8455 63.2656H67.6465C67.8525 63.2656 68.0315 63.1904 68.1785 63.0408C68.3255 62.8903 68.4005 62.7031 68.4005 62.4844C68.4005 62.2759 68.3255 62.0938 68.1785 61.9442C68.0315 61.7927 67.8525 61.7174 67.6465 61.7174H62.2855C62.4475 61.3848 62.6505 61.0745 62.8915 60.7917C63.1685 60.4662 63.4865 60.1824 63.8345 59.9494Z" fill="#1895FF"/>
<path fill-rule="evenodd" clip-rule="evenodd" d="M75.83 64.3933H75.767L75.685 51.689C75.683 51.3462 75.536 51.0217 75.281 50.7969L65.969 42.5858C65.542 42.2094 64.912 42.1982 64.469 42.5583L54.437 50.7695C54.159 50.9973 53.998 51.3411 54 51.7043L54.121 70.4693H54.153L54.162 76.7161C54.166 77.3702 54.689 77.8992 55.332 77.8992H74.677C74.988 77.8992 75.287 77.772 75.507 77.5482C75.726 77.3224 75.849 77.0182 75.847 76.7009L75.83 64.3933ZM73.465 70.4693H73.489L73.492 75.3551H56.488L56.481 64.3933H56.422L56.344 52.2638L65.174 45.0353L73.349 52.2434L73.458 69.1499L73.465 70.4693Z" fill="#1895FF"/>
</svg>
