<svg width="96" height="96" viewBox="0 0 96 96" fill="none" xmlns="http://www.w3.org/2000/svg">
<path fill-rule="evenodd" clip-rule="evenodd" d="M52.1417 42.6325C52.1417 42.0802 52.5894 41.6325 53.1417 41.6325H57.4067C57.959 41.6325 58.4067 42.0802 58.4067 42.6325C58.4067 43.1848 57.959 43.6325 57.4067 43.6325H53.1417C52.5894 43.6325 52.1417 43.1848 52.1417 42.6325Z" fill="#1C3553"/>
<path fill-rule="evenodd" clip-rule="evenodd" d="M27.5494 46.8193C28.3057 47.4211 28.4309 48.5221 27.8291 49.2784L11.1192 70.2783C10.5174 71.0346 9.41643 71.1599 8.66015 70.5581C7.90386 69.9563 7.77862 68.8554 8.3804 68.0991L25.0904 47.0991C25.6922 46.3428 26.7931 46.2176 27.5494 46.8193Z" fill="#1C3553"/>
<path fill-rule="evenodd" clip-rule="evenodd" d="M78.0135 42.5385C77.6551 37.9883 73.6769 34.5889 69.1261 34.9473L78.0135 42.5385ZM76.0197 42.6957C75.748 39.246 72.7322 36.6695 69.2831 36.9411C65.8336 37.2127 63.2569 40.2294 63.5285 43.6787C63.5719 44.2292 63.1607 44.7107 62.6101 44.7541C62.0595 44.7974 61.5781 44.3863 61.5347 43.8357C61.1763 39.285 64.5757 35.3056 69.1261 34.9473M78.0135 42.5387C78.2433 45.4522 76.932 48.1304 74.7684 49.7735C74.3286 50.1076 73.7012 50.0218 73.3672 49.582C73.0332 49.1421 73.119 48.5148 73.5588 48.1808C75.2032 46.9319 76.1938 44.9022 76.0197 42.6958L76.0197 42.6957" fill="#1C3553"/>
<path fill-rule="evenodd" clip-rule="evenodd" d="M81.1417 42.6325C81.1417 42.0802 81.5894 41.6325 82.1417 41.6325H86.4067C86.959 41.6325 87.4067 42.0802 87.4067 42.6325C87.4067 43.1848 86.959 43.6325 86.4067 43.6325H82.1417C81.5894 43.6325 81.1417 43.1848 81.1417 42.6325Z" fill="#1C3553"/>
<path fill-rule="evenodd" clip-rule="evenodd" d="M69.7742 25C70.3265 25 70.7742 25.4477 70.7742 26V30.265C70.7742 30.8172 70.3265 31.265 69.7742 31.265C69.2219 31.265 68.7742 30.8172 68.7742 30.265V26C68.7742 25.4477 69.2219 25 69.7742 25Z" fill="#1C3553"/>
<path fill-rule="evenodd" clip-rule="evenodd" d="M57.3059 30.1642C57.6964 29.7737 58.3296 29.7737 58.7201 30.1642L61.7361 33.1802C62.1266 33.5707 62.1266 34.2039 61.7361 34.5944C61.3456 34.9849 60.7124 34.9849 60.3219 34.5944L57.3059 31.5784C56.9154 31.1879 56.9154 30.5547 57.3059 30.1642Z" fill="#1C3553"/>
<path fill-rule="evenodd" clip-rule="evenodd" d="M77.812 50.6703C78.2025 50.2797 78.8357 50.2797 79.2262 50.6703L82.2422 53.6863C82.6327 54.0768 82.6327 54.71 82.2422 55.1005C81.8517 55.491 81.2185 55.491 80.828 55.1005L77.812 52.0845C77.4215 51.694 77.4215 51.0608 77.812 50.6703Z" fill="#1C3553"/>
<path fill-rule="evenodd" clip-rule="evenodd" d="M82.2424 30.1642C82.6329 30.5547 82.6329 31.1879 82.2424 31.5784L79.2264 34.5944C78.8359 34.9849 78.2027 34.9849 77.8122 34.5944C77.4217 34.2039 77.4217 33.5707 77.8122 33.1802L80.8282 30.1642C81.2187 29.7737 81.8519 29.7737 82.2424 30.1642Z" fill="#1C3553"/>
<path fill-rule="evenodd" clip-rule="evenodd" d="M24.8921 47.2695C25.1832 46.6625 25.7967 46.2763 26.47 46.2763H66.9999C67.5305 46.2763 68.0325 46.5171 68.3647 46.9309L85.6447 68.4609C86.066 68.9859 86.1489 69.7061 85.8578 70.3131C85.5666 70.9201 84.9531 71.3063 84.2799 71.3063H43.7499C43.2193 71.3063 42.7173 71.0655 42.3851 70.6517L25.1052 49.1217C24.6838 48.5967 24.6009 47.8765 24.8921 47.2695ZM30.1184 49.7763L44.5893 67.8063H80.6314L66.1605 49.7763H30.1184Z" fill="#1895FF"/>
<path fill-rule="evenodd" clip-rule="evenodd" d="M57.5052 47.5068C57.9387 47.1646 58.5675 47.2386 58.9097 47.6721L76.2017 69.5771C76.5439 70.0106 76.4699 70.6394 76.0364 70.9816C75.6029 71.3238 74.9741 71.2498 74.6319 70.8163L57.3399 48.9113C56.9977 48.4778 57.0717 47.849 57.5052 47.5068Z" fill="#1895FF"/>
<path fill-rule="evenodd" clip-rule="evenodd" d="M47.4427 47.5068C47.8762 47.1646 48.505 47.2386 48.8472 47.6721L66.1392 69.5771C66.4814 70.0106 66.4074 70.6394 65.9739 70.9816C65.5404 71.3238 64.9116 71.2498 64.5694 70.8163L47.2774 48.9113C46.9352 48.4778 47.0092 47.849 47.4427 47.5068Z" fill="#1895FF"/>
<path fill-rule="evenodd" clip-rule="evenodd" d="M37.3802 47.5068C37.8137 47.1646 38.4425 47.2386 38.7847 47.6721L56.0767 69.5771C56.4189 70.0106 56.3449 70.6394 55.9114 70.9816C55.4779 71.3238 54.8491 71.2498 54.5069 70.8163L37.2149 48.9113C36.8727 48.4778 36.9467 47.849 37.3802 47.5068Z" fill="#1895FF"/>
<path fill-rule="evenodd" clip-rule="evenodd" d="M30.3422 54.7795C30.3422 54.2272 30.79 53.7795 31.3422 53.7795H72.2672C72.8195 53.7795 73.2672 54.2272 73.2672 54.7795C73.2672 55.3318 72.8195 55.7795 72.2672 55.7795H31.3422C30.79 55.7795 30.3422 55.3318 30.3422 54.7795Z" fill="#1895FF"/>
<path fill-rule="evenodd" clip-rule="evenodd" d="M36.0751 62.4841C36.0751 61.9318 36.5229 61.4841 37.0751 61.4841H78.0001C78.5524 61.4841 79.0001 61.9318 79.0001 62.4841C79.0001 63.0363 78.5524 63.4841 78.0001 63.4841H37.0751C36.5229 63.4841 36.0751 63.0363 36.0751 62.4841Z" fill="#1895FF"/>
</svg>
