<svg width="96" height="96" viewBox="0 0 96 96" fill="none" xmlns="http://www.w3.org/2000/svg">
<path fill-rule="evenodd" clip-rule="evenodd" d="M48.4261 14.0451C49.6077 13.9325 50.5287 14.5671 51.1488 15.1496C51.89 15.8452 54.5216 18.3126 57.8361 21.4202C64.8358 27.983 74.881 37.4011 76.597 39.0167M48.4261 14.0451C47.2451 13.9326 46.3235 14.5662 45.7025 15.1496C44.9692 15.8378 42.386 18.2599 39.1218 21.3205C32.1181 27.8873 21.9797 37.3932 20.2552 39.0168L21.6261 40.4729L20.257 39.0151C20.2508 39.0209 20.2444 39.0269 20.2376 39.0333C20.0372 39.2211 19.5904 39.6398 19.3041 40.2188C18.9323 40.9706 18.8854 41.8435 19.2556 42.7046M48.4257 18.0796C47.6707 18.7882 45.0931 21.2049 41.8439 24.2515C35.9491 29.7785 27.8436 37.3784 24.3994 40.6117C25.4743 40.6102 26.5478 40.6126 27.6194 40.617L27.6215 40.617C28.3291 40.6207 29.4121 40.7261 30.2379 41.5549C31.0647 42.3847 31.1641 43.468 31.1642 44.1716M48.4257 18.0796C49.189 18.7959 51.815 21.2581 55.1147 24.3518C61.0004 29.8701 69.0294 37.3979 72.4529 40.6117C71.3779 40.6102 70.3041 40.6126 69.232 40.617L69.2298 40.617C68.5224 40.6207 67.439 40.7261 66.6132 41.5556C65.7869 42.3857 65.6882 43.4691 65.6882 44.1717M77.5475 40.218C77.9194 40.9692 77.9674 41.8427 77.5964 42.7052L77.5956 42.7071C77.2578 43.4901 76.6757 44.0455 75.9548 44.345C75.3313 44.604 74.7169 44.6214 74.3508 44.6189C72.7989 44.6089 71.2451 44.6097 69.6881 44.6153C69.6881 44.4673 69.6881 44.3196 69.6882 44.1723C69.6882 44.0296 69.6986 43.9703 69.6988 43.9674C69.6988 43.9674 69.6979 43.9711 69.6954 43.9802C69.6862 44.0136 69.6616 44.0847 69.6092 44.172C69.5715 44.2347 69.5192 44.3061 69.4481 44.3775C69.3794 44.4466 69.311 44.4978 69.2501 44.5353L69.2482 44.1722L69.2402 42.617L69.2465 44.172L69.248 44.5366C69.1594 44.591 69.0871 44.6164 69.0541 44.6257C69.0462 44.628 69.042 44.629 69.042 44.629C69.042 44.629 69.1013 44.6177 69.25 44.6169M69.6881 44.6153C69.6872 51.2159 69.6872 58.4943 69.6872 65.064C69.6872 66.1685 68.7917 67.064 67.6872 67.064C66.5826 67.064 65.6872 66.1685 65.6872 65.064C65.6872 58.3471 65.6872 50.8888 65.6882 44.1717M77.5475 40.218C77.2618 39.6411 76.8166 39.2229 76.6172 39.0357L77.5475 40.218ZM76.6172 39.0357C76.6102 39.0291 76.6034 39.0227 76.597 39.0167L76.6172 39.0357ZM22.5015 44.6189C22.1355 44.6214 21.521 44.604 20.8974 44.3451C20.1765 44.0458 19.5931 43.4894 19.2556 42.7046M22.5015 44.6189C24.0537 44.6089 25.6077 44.6097 27.1642 44.6153C27.1652 50.524 27.1652 59.1434 27.1652 64.9145V64.923C27.1652 66.0275 28.0606 66.923 29.1652 66.923C30.2697 66.923 31.1652 66.0275 31.1652 64.923V64.9061C31.1652 58.9892 31.1652 50.0832 31.1642 44.1716M27.6008 44.6169L27.6012 44.5351L27.6033 44.5364L27.603 44.6169L27.6008 44.6169ZM27.6033 44.5364C27.6922 44.5911 27.7647 44.6165 27.7977 44.6258C27.8054 44.628 27.8096 44.629 27.8096 44.629C27.8096 44.629 27.7497 44.6177 27.6008 44.6169" fill="#1C3553"/>
<path fill-rule="evenodd" clip-rule="evenodd" d="M42.5303 49.4702V54.5302H40.4703V49.4702H42.5303ZM43.0003 48.0002C43.5526 48.0002 44.0003 48.448 44.0003 49.0002V55.0002C44.0003 55.5525 43.5526 56.0002 43.0003 56.0002H40.0003C39.448 56.0002 39.0003 55.5525 39.0003 55.0002V49.0002C39.0003 48.448 39.448 48.0002 40.0003 48.0002H43.0003Z" fill="#1C3553"/>
<path fill-rule="evenodd" clip-rule="evenodd" d="M56.5303 49.4702V54.5302H54.4703V49.4702H56.5303ZM57.0003 48.0002C57.5526 48.0002 58.0003 48.448 58.0003 49.0002V55.0002C58.0003 55.5525 57.5526 56.0002 57.0003 56.0002H54.0003C53.448 56.0002 53.0003 55.5525 53.0003 55.0002V49.0002C53.0003 48.448 53.448 48.0002 54.0003 48.0002H57.0003Z" fill="#1C3553"/>
<path fill-rule="evenodd" clip-rule="evenodd" d="M11.5305 57.7778C11.5305 57.2255 11.9782 56.7778 12.5305 56.7778H26.6605C27.2128 56.7778 27.6605 57.2255 27.6605 57.7778C27.6605 58.3301 27.2128 58.7778 26.6605 58.7778H12.5305C11.9782 58.7778 11.5305 58.3301 11.5305 57.7778Z" fill="#1C3553"/>
<path fill-rule="evenodd" clip-rule="evenodd" d="M23.689 53.9731C24.2413 53.9731 24.689 54.4209 24.689 54.9731V64.7151C24.689 65.2674 24.2413 65.7151 23.689 65.7151C23.1367 65.7151 22.689 65.2674 22.689 64.7151V54.9731C22.689 54.4209 23.1367 53.9731 23.689 53.9731Z" fill="#1C3553"/>
<path fill-rule="evenodd" clip-rule="evenodd" d="M18.8342 53.9731C19.3865 53.9731 19.8342 54.4209 19.8342 54.9731V64.7151C19.8342 65.2674 19.3865 65.7151 18.8342 65.7151C18.2819 65.7151 17.8342 65.2674 17.8342 64.7151V54.9731C17.8342 54.4209 18.2819 53.9731 18.8342 53.9731Z" fill="#1C3553"/>
<path fill-rule="evenodd" clip-rule="evenodd" d="M13.9792 53.9731C14.5315 53.9731 14.9792 54.4209 14.9792 54.9731V64.7151C14.9792 65.2674 14.5315 65.7151 13.9792 65.7151C13.4269 65.7151 12.9792 65.2674 12.9792 64.7151V54.9731C12.9792 54.4209 13.4269 53.9731 13.9792 53.9731Z" fill="#1C3553"/>
<path fill-rule="evenodd" clip-rule="evenodd" d="M10.9055 65.9092C10.9055 65.3569 11.3532 64.9092 11.9055 64.9092H23.4405C23.9928 64.9092 24.4405 65.3569 24.4405 65.9092C24.4405 66.4615 23.9928 66.9092 23.4405 66.9092H11.9055C11.3532 66.9092 10.9055 66.4615 10.9055 65.9092Z" fill="#1C3553"/>
<path fill-rule="evenodd" clip-rule="evenodd" d="M68.7263 57.7778C68.7263 57.2255 69.174 56.7778 69.7263 56.7778H83.8563C84.4086 56.7778 84.8563 57.2255 84.8563 57.7778C84.8563 58.3301 84.4086 58.7778 83.8563 58.7778H69.7263C69.174 58.7778 68.7263 58.3301 68.7263 57.7778Z" fill="#1C3553"/>
<path fill-rule="evenodd" clip-rule="evenodd" d="M72.6978 53.9731C73.2501 53.9731 73.6978 54.4209 73.6978 54.9731V64.7151C73.6978 65.2674 73.2501 65.7151 72.6978 65.7151C72.1455 65.7151 71.6978 65.2674 71.6978 64.7151V54.9731C71.6978 54.4209 72.1455 53.9731 72.6978 53.9731Z" fill="#1C3553"/>
<path fill-rule="evenodd" clip-rule="evenodd" d="M77.5525 53.9731C78.1048 53.9731 78.5525 54.4209 78.5525 54.9731V64.7151C78.5525 65.2674 78.1048 65.7151 77.5525 65.7151C77.0002 65.7151 76.5525 65.2674 76.5525 64.7151V54.9731C76.5525 54.4209 77.0002 53.9731 77.5525 53.9731Z" fill="#1C3553"/>
<path fill-rule="evenodd" clip-rule="evenodd" d="M82.4075 53.9731C82.9598 53.9731 83.4075 54.4209 83.4075 54.9731V64.7151C83.4075 65.2674 82.9598 65.7151 82.4075 65.7151C81.8552 65.7151 81.4075 65.2674 81.4075 64.7151V54.9731C81.4075 54.4209 81.8552 53.9731 82.4075 53.9731Z" fill="#1C3553"/>
<path fill-rule="evenodd" clip-rule="evenodd" d="M71.9463 65.9092C71.9463 65.3569 72.394 64.9092 72.9463 64.9092H84.4813C85.0336 64.9092 85.4813 65.3569 85.4813 65.9092C85.4813 66.4615 85.0336 66.9092 84.4813 66.9092H72.9463C72.394 66.9092 71.9463 66.4615 71.9463 65.9092Z" fill="#1C3553"/>
<path fill-rule="evenodd" clip-rule="evenodd" d="M24.5212 63.8404C24.8398 63.5627 25.2483 63.4097 25.671 63.4097H70.712C71.1347 63.4097 71.5432 63.5627 71.8618 63.8404L86.9128 76.9586C87.4629 77.4381 87.6578 78.2085 87.4018 78.8918C87.1458 79.5751 86.4927 80.0279 85.763 80.0279H10.62C9.89031 80.0279 9.23721 79.5751 8.98122 78.8918C8.72524 78.2085 8.9201 77.4381 9.47017 76.9586L24.5212 63.8404ZM26.3266 66.9097L15.2913 76.5279H81.0917L70.0564 66.9097H26.3266Z" fill="#1895FF"/>
<path fill-rule="evenodd" clip-rule="evenodd" d="M18.2338 71.2945C18.2338 70.9825 18.4868 70.7295 18.7988 70.7295H77.5878C77.8998 70.7295 78.1528 70.9825 78.1528 71.2945C78.1528 71.6065 77.8998 71.8595 77.5878 71.8595H18.7988C18.4868 71.8595 18.2338 71.6065 18.2338 71.2945Z" fill="#1895FF"/>
<path fill-rule="evenodd" clip-rule="evenodd" d="M47.0116 65.1193C47.0116 64.4952 47.5175 63.9893 48.1416 63.9893C48.7657 63.9893 49.2716 64.4952 49.2716 65.1193V78.2323C49.2716 78.8564 48.7657 79.3623 48.1416 79.3623C47.5175 79.3623 47.0116 78.8564 47.0116 78.2323V65.1193ZM41.3343 64.8676C41.5277 64.2742 42.1654 63.9499 42.7588 64.1432C43.3522 64.3366 43.6765 64.9743 43.4831 65.5677L39.2101 78.6817C39.0168 79.2751 38.379 79.5994 37.7856 79.406C37.1923 79.2127 36.868 78.5749 37.0613 77.9816L41.3343 64.8676ZM35.7281 64.7005C36.0688 64.1777 36.7689 64.03 37.2918 64.3707C37.8147 64.7114 37.9623 65.4115 37.6216 65.9344L29.0766 79.0474C28.7359 79.5703 28.0358 79.718 27.5129 79.3772C26.9901 79.0365 26.8424 78.3364 27.1831 77.8136L35.7281 64.7005ZM30.1329 64.6269C30.5691 64.1806 31.2846 64.1725 31.7309 64.6087C32.1772 65.0449 32.1853 65.7603 31.7491 66.2066L31.3451 65.8117L31.7491 66.2066L18.9321 79.3197C18.4959 79.766 17.7804 79.7742 17.3341 79.3379C16.8878 78.9017 16.8797 78.1863 17.3159 77.74L30.1329 64.6269Z" fill="#1895FF"/>
<path fill-rule="evenodd" clip-rule="evenodd" d="M47.1136 65.1193C47.1136 64.4952 47.6195 63.9893 48.2436 63.9893C48.8677 63.9893 49.3736 64.4952 49.3736 65.1193V78.2323C49.3736 78.8564 48.8677 79.3623 48.2436 79.3623C47.6195 79.3623 47.1136 78.8564 47.1136 78.2323V65.1193ZM53.6279 64.1432C54.2213 63.9499 54.859 64.2742 55.0524 64.8676L59.3254 77.9816C59.5187 78.5749 59.1944 79.2127 58.6011 79.406C58.0077 79.5994 57.3699 79.2751 57.1766 78.6817L52.9036 65.5677C52.7102 64.9743 53.0345 64.3366 53.6279 64.1432ZM59.0935 64.3707C59.6163 64.03 60.3164 64.1777 60.6571 64.7005L69.2021 77.8136C69.5429 78.3364 69.3952 79.0365 68.8723 79.3772C68.3495 79.718 67.6494 79.5703 67.3087 79.0474L58.7637 65.9344C58.423 65.4115 58.5706 64.7114 59.0935 64.3707ZM64.6549 64.6087C65.1012 64.1725 65.8167 64.1806 66.2529 64.6269L79.0699 77.74C79.5061 78.1863 79.4979 78.9017 79.0516 79.3379C78.6053 79.7742 77.8899 79.766 77.4537 79.3197L64.6367 66.2066C64.2005 65.7603 64.2086 65.0449 64.6549 64.6087Z" fill="#1895FF"/>
</svg>
