<svg width="96" height="96" viewBox="0 0 96 96" fill="none" xmlns="http://www.w3.org/2000/svg">
<path fill-rule="evenodd" clip-rule="evenodd" d="M36 47.9997C36 46.8952 36.8954 45.9998 38 45.9998H42C43.1046 45.9998 44 46.8952 44 47.9997V53.9997C44 55.1043 43.1046 55.9997 42 55.9997H38C36.8954 55.9997 36 55.1043 36 53.9997V47.9997ZM38 47.9997V53.9997H42V47.9997H38Z" fill="#1C3553"/>
<path fill-rule="evenodd" clip-rule="evenodd" d="M52 47.9997C52 46.8952 52.8954 45.9998 54 45.9998H58C59.1046 45.9998 60 46.8952 60 47.9997V53.9997C60 55.1043 59.1046 55.9997 58 55.9997H54C52.8954 55.9997 52 55.1043 52 53.9997V47.9997ZM54 47.9997V53.9997H58V47.9997H54Z" fill="#1C3553"/>
<path fill-rule="evenodd" clip-rule="evenodd" d="M26.6334 43.236C26.6334 43.2359 26.6334 43.2358 28.6334 43.2358C30.6334 43.2358 30.6334 43.2359 30.6334 43.236V69.6367C30.6334 70.4156 30.6551 70.9822 30.6996 71.3995C30.7079 71.4767 30.7166 71.5456 30.7255 71.607H66.3419C66.3508 71.5456 66.3596 71.4767 66.3678 71.3995C66.4124 70.9822 66.4341 70.4156 66.4341 69.6367V43.2369C66.4341 43.2367 66.4341 43.2358 68.4341 43.2358C70.4341 43.2358 70.4341 43.2359 70.4341 43.2361V69.6367C70.4341 70.4635 70.4123 71.196 70.3452 71.8243C70.2799 72.4354 70.1596 73.0805 69.8902 73.6643C69.5939 74.3063 69.1167 74.8713 68.4103 75.2258C67.7685 75.5479 67.1094 75.607 66.5991 75.607H30.4683C29.9581 75.607 29.299 75.5479 28.6571 75.2258C27.9507 74.8713 27.4735 74.3063 27.1772 73.6643C26.9078 73.0805 26.7875 72.4354 26.7222 71.8243C26.6551 71.196 26.6334 70.4635 26.6334 69.6367V43.236Z" fill="#1C3553"/>
<path fill-rule="evenodd" clip-rule="evenodd" d="M49.4649 14.4641L48.1839 16L46.8831 14.4808C47.6244 13.8461 48.7155 13.839 49.4649 14.4641ZM77.7659 38.1636C77.1568 37.6061 70.0382 31.6465 63.1616 25.8996C59.7024 23.0085 56.2782 20.1497 53.7189 18.0136L49.4649 14.4641C49.4647 14.4639 49.4649 14.4641 48.1839 16C46.8831 14.4808 46.8833 14.4806 46.8831 14.4808L42.7504 18.0205C40.2633 20.1511 36.9347 23.0034 33.5685 25.89C26.8642 31.6393 19.939 37.5862 19.3084 38.1634C19.3014 38.1699 19.2925 38.178 19.2848 38.1851C19.0769 38.3753 18.6158 38.7972 18.3192 39.3799C17.9289 40.1468 17.8784 41.0436 18.2688 41.9257M77.7659 38.1636L77.7852 38.1813C77.9944 38.3721 78.4576 38.7945 78.7555 39.3802C79.1453 40.1467 79.196 41.0434 78.8057 41.9255C78.8055 41.9259 78.8059 41.9251 78.8057 41.9255C78.4519 42.7256 77.8477 43.2763 77.1235 43.5685C76.4951 43.822 75.8742 43.84 75.4946 43.8372C73.8222 43.8272 72.1497 43.8279 70.4736 43.8343V46.3711H66.4736V42.9821C66.4744 42.3501 66.5453 40.9411 67.88 40.215C68.3863 39.9396 68.8958 39.881 69.1869 39.8585C69.4525 39.8381 69.7554 39.837 70.002 39.8362C70.0355 39.836 70.068 39.8359 70.0993 39.8358C71.2515 39.8309 72.4059 39.8284 73.5597 39.8301C71.0466 37.7091 65.8109 33.3266 60.5966 28.9688C57.1382 26.0785 53.7147 23.2203 51.1558 21.0846L48.2008 18.6187L45.3527 21.0582C42.8659 23.1886 39.5379 26.0404 36.1724 28.9264C31.0841 33.2899 25.9513 37.6966 23.483 39.8299C24.6474 39.8281 25.8107 39.8305 26.9735 39.8355C27.0048 39.8356 27.0388 39.8357 27.0724 39.8358C27.319 39.8367 27.6219 39.8378 27.8874 39.8582C28.1786 39.8807 28.688 39.9393 29.1944 40.2147C30.5291 40.9408 30.6 42.3498 30.6008 42.9818L30.6008 42.9845L30.6008 44.5014M21.3525 39.8291C21.3525 39.8291 21.3532 39.8292 21.3545 39.8295L21.3525 39.8291ZM70.1177 43.4846C70.1505 43.452 70.1824 43.4171 70.2131 43.3799C70.3368 43.2301 70.4049 43.0866 70.4406 42.9875L70.1152 42.987L70.1177 43.4846ZM70.4736 42.9875C70.4737 42.8957 70.4781 42.8535 70.479 42.8461C70.48 42.8378 70.4743 42.8929 70.4415 42.9848M30.6008 46.3419V46.3678H26.6008V44.8471M30.6008 46.3419V44.847V46.3419Z" fill="#1C3553"/>
<path fill-rule="evenodd" clip-rule="evenodd" d="M18 69.9997C18 68.8952 18.8954 67.9998 20 67.9998H76C77.1046 67.9998 78 68.8952 78 69.9997V73.9997C78 75.1043 77.1046 75.9997 76 75.9997H20C18.8954 75.9997 18 75.1043 18 73.9997V69.9997Z" fill="#1895FF"/>
</svg>
